M48
; DRILL file {KiCad 9.0.0} date 2025-06-04T09:40:23+0900
; FORMAT={-:-/ absolute / metric / decimal}
; #@! TF.CreationDate,2025-06-04T09:40:23+09:00
; #@! TF.GenerationSoftware,Kicad,Pcbnew,9.0.0
; #@! TF.FileFunction,Plated,1,2,PTH
FMAT,2
METRIC
; #@! TA.AperFunction,Plated,PTH,ViaDrill
T1C0.300
; #@! TA.AperFunction,Plated,PTH,ComponentDrill
T2C0.300
; #@! TA.AperFunction,Plated,PTH,ComponentDrill
T3C0.600
; #@! TA.AperFunction,Plated,PTH,ComponentDrill
T4C0.650
; #@! TA.AperFunction,Plated,PTH,ComponentDrill
T5C0.700
; #@! TA.AperFunction,Plated,PTH,ComponentDrill
T6C0.750
; #@! TA.AperFunction,Plated,PTH,ComponentDrill
T7C1.020
; #@! TA.AperFunction,Plated,PTH,ComponentDrill
T8C1.600
; #@! TA.AperFunction,Plated,PTH,ComponentDrill
T9C2.000
%
G90
G05
T1
X20.64Y-45.37
X21.8Y-59.8
X21.95Y-41.05
X22.0Y-38.7
X22.3Y-46.9
X22.9Y-59.8
X23.5Y-52.21
X23.5Y-53.41
X24.1Y-59.8
X24.3Y-50.94
X24.3Y-53.41
X25.085Y-49.67
X25.093Y-53.519
X25.2Y-59.8
X25.6Y-52.9
X25.7Y-50.2
X25.7Y-51.6
X25.76Y-64.01
X25.8Y-48.7
X25.8Y-54.95
X26.82Y-81.57
X26.96Y-61.69
X29.378Y-56.202
X29.6Y-51.0
X29.7Y-52.5
X29.8Y-49.4
X31.37Y-46.41
X31.597Y-47.99
X31.7Y-54.174
X32.19Y-39.71
X32.197Y-51.909
X32.396Y-41.164
X32.6Y-52.6
X32.797Y-42.05
X32.797Y-45.88
X32.8Y-50.1
X32.9Y-54.5
X33.5Y-39.3
X33.5Y-53.2
X33.88Y-40.529
X37.261Y-52.6
X37.379Y-57.402
X37.435Y-58.2
X37.435Y-59.0
X37.9Y-53.2
X38.14Y-72.14
X38.635Y-57.4
X38.635Y-58.2
X38.635Y-59.0
X39.321Y-56.988
X39.68Y-59.6
X39.757Y-60.396
X40.191Y-71.593
X40.492Y-72.334
X48.1Y-57.199
X53.73Y-40.0
X53.8Y-46.8
X53.8Y-48.2
X53.8Y-51.95
X53.9Y-39.15
X53.9Y-49.35
X53.9Y-50.7
X54.9Y-43.0
X55.0Y-44.92
X55.8Y-42.025
X55.8Y-44.92
X56.34Y-59.61
X56.36Y-57.6
X56.36Y-60.81
X56.468Y-39.998
X56.49Y-40.825
X56.49Y-43.67
X56.751Y-53.2
X56.892Y-51.939
X57.376Y-52.576
X57.832Y-48.988
X58.275Y-51.5
X58.579Y-49.323
X58.858Y-50.9
X59.2Y-52.9
X59.512Y-50.3
X59.9Y-52.1
X60.041Y-49.7
X60.626Y-51.4
X60.8Y-38.57
X60.979Y-50.67
X61.874Y-49.774
X62.1Y-40.825
X62.1Y-42.025
X62.12Y-38.1
X62.7Y-44.15
X62.7Y-46.403
X62.7Y-47.251
X63.0Y-68.47
X66.15Y-39.851
X67.078Y-42.025
X67.1Y-38.1
X67.926Y-42.025
X68.15Y-40.8
X68.34Y-60.21
X68.913Y-68.99
X69.1Y-40.825
X69.6Y-69.4
X69.7Y-36.9
X70.731Y-73.9
X71.059Y-56.316
X71.35Y-74.5
X71.352Y-55.572
X71.4Y-66.6
X71.45Y-33.55
X71.451Y-38.501
X71.5Y-34.9
X71.5Y-35.95
X71.5Y-36.9
X71.5Y-71.65
X71.7Y-60.2
X71.825Y-53.45
X71.869Y-73.3
X72.333Y-47.067
X72.36Y-18.65
X72.37Y-48.52
X72.55Y-74.955
X72.7Y-25.4
X72.7Y-26.6
X72.7Y-32.201
X72.7Y-33.054
X72.7Y-33.903
X72.7Y-34.751
X72.7Y-36.4
X73.0Y-46.0
X73.3Y-29.275
X73.4Y-73.25
X73.5Y-60.84
X74.1Y-26.9
X75.75Y-67.1
X76.1Y-54.0
X76.124Y-55.224
X76.174Y-18.674
X76.299Y-56.005
X76.3Y-56.805
X76.75Y-73.45
X77.7Y-73.2
X77.7Y-74.735
X77.7Y-76.026
X77.851Y-27.051
X78.13Y-59.54
X78.3Y-37.0
X78.3Y-38.8
X78.3Y-70.7
X78.4Y-40.9
X78.4Y-42.9
X78.5Y-44.9
X78.7Y-58.2
X78.93Y-59.6
X79.0Y-55.2
X79.0Y-72.5
X79.7Y-55.8
X79.7Y-75.9
X79.798Y-25.387
X80.0Y-21.0
X80.013Y-23.747
X80.3Y-23.0
X80.34Y-61.992
X80.9Y-22.35
X81.5Y-26.8
X82.13Y-31.63
X82.2Y-55.8
X82.25Y-74.5
X82.57Y-61.8
X82.812Y-55.0
X83.0Y-53.4
X83.453Y-63.88
X84.25Y-67.9
X84.3Y-42.0
X84.4Y-36.0
X84.4Y-38.0
X84.4Y-40.0
X85.6Y-42.0
X85.61Y-59.35
X85.8Y-76.8
X86.0Y-74.5
X86.12Y-64.48
X87.29Y-66.32
X88.2Y-40.0
X89.7Y-62.68
X89.849Y-38.001
X89.99Y-67.11
X90.05Y-64.87
X90.76Y-66.11
X90.78Y-63.21
X91.55Y-74.4
X91.724Y-35.076
X92.0Y-77.0
X93.749Y-32.851
X95.74Y-63.9
X95.79Y-65.75
X96.34Y-64.5
X96.38Y-66.35
X101.4Y-33.0
X101.4Y-37.8
X101.4Y-43.0
X101.4Y-48.4
X101.4Y-54.0
T2
X40.85Y-44.99
X40.85Y-46.39
X41.55Y-44.29
X41.55Y-45.69
X41.55Y-47.09
X42.25Y-44.99
X42.25Y-46.39
X42.95Y-44.29
X42.95Y-45.69
X42.95Y-47.09
X43.65Y-44.99
X43.65Y-46.39
X74.425Y-74.9
X74.425Y-76.4
X74.925Y-75.65
X75.425Y-74.9
X75.425Y-76.4
T6
X20.03Y-49.0
X20.03Y-50.27
X20.03Y-51.54
X20.03Y-52.81
X20.03Y-54.08
X21.3Y-49.0
X21.3Y-50.27
X21.3Y-51.54
X21.3Y-52.81
X21.3Y-54.08
T7
X60.2Y-39.977
X60.2Y-42.517
X60.2Y-45.057
X60.2Y-47.597
T8
X94.92Y-20.0
X94.92Y-25.08
X97.46Y-22.54
X100.0Y-20.0
X100.0Y-25.08
T9
X24.0Y-94.0
X96.0Y-94.0
T3
G00X94.27Y-60.68
M15
G01X95.37Y-60.68
M16
G05
G00X94.27Y-69.32
M15
G01X95.37Y-69.32
M16
G05
G00X98.6Y-60.68
M15
G01X99.4Y-60.68
M16
G05
G00X98.6Y-69.32
M15
G01X99.4Y-69.32
M16
G05
T4
G00X96.315Y-72.605
M15
G01X95.915Y-72.605
M16
G05
G00X96.315Y-77.445
M15
G01X95.915Y-77.445
M16
G05
T5
G00X99.365Y-72.295
M15
G01X98.865Y-72.295
M16
G05
G00X99.365Y-77.755
M15
G01X98.865Y-77.755
M16
G05
M30
