%TF.GenerationSoftware,KiCad,Pcbnew,9.0.0*%
%TF.CreationDate,2025-06-04T09:40:56+09:00*%
%TF.ProjectId,FLP_PCB_host,464c505f-5043-4425-9f68-6f73742e6b69,rev?*%
%TF.SameCoordinates,Original*%
%TF.FileFunction,Copper,L2,Bot*%
%TF.FilePolarity,Positive*%
%FSLAX46Y46*%
G04 Gerber Fmt 4.6, Leading zero omitted, Abs format (unit mm)*
G04 Created by KiCad (PCBNEW 9.0.0) date 2025-06-04 09:40:56*
%MOMM*%
%LPD*%
G01*
G04 APERTURE LIST*
%TA.AperFunction,ComponentPad*%
%ADD10O,2.100000X1.050000*%
%TD*%
%TA.AperFunction,ComponentPad*%
%ADD11O,1.800000X0.900000*%
%TD*%
%TA.AperFunction,ComponentPad*%
%ADD12C,2.400000*%
%TD*%
%TA.AperFunction,ComponentPad*%
%ADD13R,1.050000X1.050000*%
%TD*%
%TA.AperFunction,ComponentPad*%
%ADD14C,1.050000*%
%TD*%
%TA.AperFunction,ComponentPad*%
%ADD15C,0.600000*%
%TD*%
%TA.AperFunction,SMDPad,CuDef*%
%ADD16R,2.300000X2.800000*%
%TD*%
%TA.AperFunction,ComponentPad*%
%ADD17R,3.500000X3.500000*%
%TD*%
%TA.AperFunction,ComponentPad*%
%ADD18C,3.500000*%
%TD*%
%TA.AperFunction,HeatsinkPad*%
%ADD19O,1.700000X1.350000*%
%TD*%
%TA.AperFunction,HeatsinkPad*%
%ADD20O,1.500000X1.100000*%
%TD*%
%TA.AperFunction,ComponentPad*%
%ADD21R,1.370000X1.370000*%
%TD*%
%TA.AperFunction,ComponentPad*%
%ADD22C,1.370000*%
%TD*%
%TA.AperFunction,HeatsinkPad*%
%ADD23C,0.600000*%
%TD*%
%TA.AperFunction,ViaPad*%
%ADD24C,0.600000*%
%TD*%
%TA.AperFunction,Conductor*%
%ADD25C,0.200000*%
%TD*%
G04 APERTURE END LIST*
D10*
%TO.P,UART1,SH1*%
%TO.N,N/C*%
X94820000Y-69320000D03*
%TO.P,UART1,SH2*%
X94820000Y-60680000D03*
D11*
%TO.P,UART1,SH3*%
X99000000Y-69320000D03*
%TO.P,UART1,SH4*%
X99000000Y-60680000D03*
%TD*%
D12*
%TO.P,J5,1*%
%TO.N,Net-(C20-Pad1)*%
X97460000Y-22540000D03*
%TO.P,J5,2*%
%TO.N,GND*%
X100000000Y-25080000D03*
%TO.P,J5,3*%
X100000000Y-20000000D03*
%TO.P,J5,4*%
X94920000Y-20000000D03*
%TO.P,J5,5*%
X94920000Y-25080000D03*
%TD*%
D13*
%TO.P,J3,1,1*%
%TO.N,3.3V OUT*%
X20030000Y-49000000D03*
D14*
%TO.P,J3,2,2*%
%TO.N,Net-(C8-Pad1)*%
X21300000Y-49000000D03*
%TO.P,J3,3,3*%
%TO.N,GND*%
X20030000Y-50270000D03*
%TO.P,J3,4,4*%
%TO.N,Net-(C13-Pad1)*%
X21300000Y-50270000D03*
%TO.P,J3,5,5*%
%TO.N,GND*%
X20030000Y-51540000D03*
%TO.P,J3,6,6*%
%TO.N,Net-(C14-Pad1)*%
X21300000Y-51540000D03*
%TO.P,J3,7,7*%
%TO.N,unconnected-(J3-Pad7)*%
X20030000Y-52810000D03*
%TO.P,J3,8,8*%
%TO.N,Net-(C15-Pad1)*%
X21300000Y-52810000D03*
%TO.P,J3,9,9*%
%TO.N,GND*%
X20030000Y-54080000D03*
%TO.P,J3,10,10*%
%TO.N,EN*%
X21300000Y-54080000D03*
%TD*%
D15*
%TO.P,U2,11,PAD*%
%TO.N,GND*%
X74425000Y-74900000D03*
X74425000Y-76400000D03*
X74925000Y-75650000D03*
D16*
X74925000Y-75650000D03*
D15*
X75425000Y-74900000D03*
X75425000Y-76400000D03*
%TD*%
D17*
%TO.P,BT1,1,+*%
%TO.N,Net-(BT1-+)*%
X24000000Y-94000000D03*
D18*
%TO.P,BT1,2,-*%
%TO.N,GND*%
X96000000Y-94000000D03*
%TD*%
D19*
%TO.P,Charger1,6,Shield*%
%TO.N,GND*%
X99115000Y-77755000D03*
D20*
X96115000Y-77445000D03*
X96115000Y-72605000D03*
D19*
X99115000Y-72295000D03*
%TD*%
D21*
%TO.P,J4,01,01*%
%TO.N,GND*%
X60200000Y-39977500D03*
D22*
%TO.P,J4,02,02*%
%TO.N,3.3V OUT*%
X60200000Y-42517500D03*
%TO.P,J4,03,03*%
%TO.N,I2C SCL*%
X60200000Y-45057500D03*
%TO.P,J4,04,04*%
%TO.N,I2C SDL*%
X60200000Y-47597500D03*
%TD*%
D23*
%TO.P,U1,39,GND*%
%TO.N,GND*%
X40850000Y-44990000D03*
X40850000Y-46390000D03*
X41550000Y-44290000D03*
X41550000Y-45690000D03*
X41550000Y-47090000D03*
X42250000Y-44990000D03*
X42250000Y-46390000D03*
X42950000Y-44290000D03*
X42950000Y-45690000D03*
X42950000Y-47090000D03*
X43650000Y-44990000D03*
X43650000Y-46390000D03*
%TD*%
D24*
%TO.N,Net-(Charger1-VBUS)*%
X84250000Y-67900000D03*
X79000000Y-72500000D03*
X92000000Y-77000000D03*
X86000000Y-74500000D03*
%TO.N,3.3V OUT*%
X40492464Y-72333744D03*
X101400000Y-54000000D03*
X101400000Y-37800000D03*
X20640000Y-45370000D03*
X33500000Y-39300000D03*
X38140000Y-72140000D03*
X93749265Y-32850735D03*
X101400000Y-43000000D03*
X72360000Y-18650000D03*
X101400000Y-48400000D03*
X71825000Y-53450000D03*
X62700000Y-44150000D03*
X82130000Y-31630000D03*
X22300000Y-46900000D03*
X73300000Y-29275000D03*
X76174265Y-18674265D03*
X101400000Y-33000000D03*
X77850735Y-27050735D03*
X71700000Y-60200000D03*
X81500000Y-26800000D03*
%TO.N,Net-(C8-Pad1)*%
X25200000Y-59800000D03*
X25800000Y-48700000D03*
X25092607Y-53518511D03*
X25085421Y-49670000D03*
%TO.N,EN*%
X32796902Y-45880000D03*
X32796902Y-42050000D03*
X33880267Y-40528797D03*
%TO.N,Net-(C13-Pad1)*%
X24300000Y-50940000D03*
X24100000Y-59800000D03*
X24300000Y-53410000D03*
X25700000Y-50200000D03*
%TO.N,Net-(C14-Pad1)*%
X23500000Y-52210000D03*
X23500000Y-53410000D03*
X25700000Y-51600000D03*
X22900000Y-59800000D03*
%TO.N,Net-(C15-Pad1)*%
X25600000Y-52900000D03*
X21800000Y-59800000D03*
%TO.N,TX*%
X76299188Y-56004908D03*
X71351765Y-55571765D03*
X55800000Y-42025000D03*
X55800000Y-44920000D03*
%TO.N,RX*%
X76300005Y-56804910D03*
X54999997Y-44920000D03*
X54900000Y-43000000D03*
X71059298Y-56316390D03*
%TO.N,I2C SCL*%
X56468235Y-39998235D03*
X53730000Y-40000000D03*
%TO.N,Net-(Q1-D)*%
X71500000Y-71650000D03*
X78300000Y-70700000D03*
%TO.N,GND*%
X89700000Y-62680000D03*
X73000000Y-46000000D03*
X89990000Y-67110000D03*
X72370000Y-48520000D03*
X25760000Y-64010000D03*
X67100000Y-38100000D03*
X26960000Y-61690000D03*
X80000000Y-21000000D03*
X73500000Y-60840000D03*
X71400000Y-66600000D03*
X77700000Y-74735413D03*
X21950000Y-41050000D03*
X72333235Y-47066765D03*
X83000000Y-53400000D03*
X40191338Y-71592578D03*
X68340000Y-60210000D03*
X66150000Y-39851000D03*
X22000000Y-38700000D03*
X90050000Y-64870000D03*
X82250000Y-74500000D03*
X78700000Y-58200000D03*
%TO.N,5v OUT*%
X83452500Y-63880000D03*
X85610000Y-59350000D03*
X77700000Y-73200000D03*
X68913101Y-68989911D03*
X72550000Y-74955276D03*
X75750000Y-67100000D03*
X76750000Y-73450000D03*
X26820000Y-81570000D03*
%TO.N,Net-(U2-VAUX)*%
X71869052Y-73300001D03*
X69600000Y-69400000D03*
%TO.N,Net-(U2-L)*%
X73400000Y-73250000D03*
X70730832Y-73900000D03*
%TO.N,Net-(U2-UVLO)*%
X71350000Y-74500000D03*
X77700000Y-76026388D03*
%TO.N,Net-(BT1-+)*%
X85800000Y-76800000D03*
%TO.N,Net-(U3-PROG)*%
X79700000Y-75900000D03*
X91550000Y-74400000D03*
%TO.N,Net-(Ctrl1-Pad3)*%
X84400000Y-38000000D03*
X89849265Y-38000735D03*
%TO.N,Net-(Down1-Pad3)*%
X84300000Y-42000000D03*
X85600000Y-42000000D03*
%TO.N,Net-(Enter&space1-Pad3)*%
X88200000Y-40000000D03*
X84400000Y-40000000D03*
%TO.N,Net-(U5-D-)*%
X86120000Y-64480000D03*
X78930000Y-59600000D03*
%TO.N,Net-(U5-D+)*%
X78130000Y-59540000D03*
X87290000Y-66320000D03*
%TO.N,Net-(Find_Host1-Pad3)*%
X84400000Y-36000000D03*
X91724265Y-35075735D03*
%TO.N,Net-(U5-~{RST})*%
X80340000Y-61992067D03*
X82570000Y-61800000D03*
%TO.N,DTR*%
X25800000Y-54950000D03*
X37435000Y-58200000D03*
X38635000Y-58200000D03*
X29377767Y-56202233D03*
%TO.N,MTDO*%
X32900000Y-54500000D03*
X31700000Y-54174265D03*
X48100000Y-57199000D03*
X29700000Y-52500000D03*
%TO.N,MTCK*%
X39320542Y-56987644D03*
X29600000Y-51000000D03*
%TO.N,MTMS*%
X29800000Y-49400000D03*
X33500000Y-53200000D03*
%TO.N,RESET*%
X62100000Y-40825000D03*
X72700000Y-26600000D03*
X60041260Y-49700000D03*
X53800000Y-51950000D03*
X62100000Y-42025000D03*
X56891553Y-51938889D03*
X72700000Y-25400000D03*
X62120000Y-38100000D03*
%TO.N,SCK*%
X53900000Y-49350000D03*
X79798000Y-25387500D03*
X72700000Y-33054418D03*
X68150000Y-40800000D03*
X57831939Y-48988240D03*
X71500000Y-36900000D03*
X62700000Y-46402946D03*
X67077945Y-42025000D03*
%TO.N,NSS(CS)*%
X71450735Y-38500735D03*
X58578883Y-49322587D03*
X72700000Y-36400000D03*
X67926473Y-42025000D03*
X53800000Y-48200000D03*
X62700000Y-47251473D03*
X80900000Y-22350000D03*
X69100000Y-40825000D03*
%TO.N,MISO*%
X69700000Y-36900000D03*
X56490000Y-40825000D03*
X80012816Y-23746679D03*
X72700000Y-33902945D03*
X56490000Y-43670000D03*
X53800000Y-46800000D03*
X71500000Y-34900000D03*
X60800000Y-38570000D03*
%TO.N,MOSI*%
X71500000Y-35950000D03*
X80300000Y-23000000D03*
X72700000Y-34751473D03*
X53900000Y-39150000D03*
%TO.N,DIO0(IRQ)*%
X74100000Y-26900000D03*
X32196902Y-51908975D03*
X32190000Y-39710000D03*
X71450000Y-33550000D03*
X32396111Y-41164424D03*
X72700000Y-32201472D03*
%TO.N,RTS*%
X76124265Y-55224265D03*
X38635000Y-59000003D03*
X76100000Y-54000000D03*
X37435000Y-59000003D03*
%TO.N,IO0*%
X37379136Y-57401950D03*
X38635000Y-57399997D03*
%TO.N,GPS_Reset*%
X63000000Y-68470000D03*
X56360000Y-57600000D03*
X56340000Y-59610000D03*
X56360000Y-60810000D03*
%TO.N,Net-(U5-RXD)*%
X79000000Y-55200000D03*
X82812500Y-55000000D03*
%TO.N,Net-(U5-TXD)*%
X79700000Y-55800000D03*
X82200000Y-55800000D03*
%TO.N,Net-(UART1-CC2)*%
X90760000Y-66110000D03*
X90780000Y-63210000D03*
%TO.N,GPS_TX*%
X39757413Y-60396251D03*
X31370000Y-46410000D03*
%TO.N,Find_Host*%
X78300000Y-37000000D03*
X59512110Y-50300000D03*
X61874265Y-49774265D03*
X32800000Y-50100000D03*
%TO.N,Enter&space*%
X78400000Y-40900000D03*
X58274953Y-51500000D03*
X32600000Y-52600000D03*
X60626369Y-51400000D03*
%TO.N,Up*%
X78500000Y-44900000D03*
X59200000Y-52900000D03*
X37900000Y-53200000D03*
X56751473Y-53200000D03*
%TO.N,Down*%
X59900000Y-52100000D03*
X57375735Y-52575735D03*
X78400000Y-42900000D03*
X37261397Y-52600000D03*
%TO.N,Ctrl*%
X53900000Y-50700000D03*
X60978530Y-50670000D03*
X78300000Y-38800000D03*
X58858032Y-50900000D03*
%TO.N,Net-(U8-I{slash}O2-Pad3)*%
X96340000Y-64500000D03*
X96380000Y-66350000D03*
%TO.N,Net-(U8-I{slash}O1-Pad1)*%
X95740000Y-63900000D03*
X95790000Y-65750000D03*
%TO.N,GPS_Rx*%
X31596902Y-47990000D03*
X39680000Y-59600003D03*
%TD*%
D25*
%TO.N,Net-(Charger1-VBUS)*%
X84250000Y-72250000D02*
X84000000Y-72500000D01*
X86500000Y-75000000D02*
X86000000Y-74500000D01*
X88500000Y-77000000D02*
X86500000Y-75000000D01*
X79000000Y-72500000D02*
X84000000Y-72500000D01*
X92000000Y-77000000D02*
X88500000Y-77000000D01*
X84250000Y-67900000D02*
X84250000Y-72250000D01*
X84000000Y-72500000D02*
X86500000Y-75000000D01*
%TO.N,3.3V OUT*%
X76150000Y-18650000D02*
X76174265Y-18674265D01*
X70110000Y-55965000D02*
X70110000Y-58610000D01*
X20640000Y-45370000D02*
X20770000Y-45370000D01*
X81500000Y-31000000D02*
X81500000Y-26800000D01*
X62723618Y-44126382D02*
X62723618Y-41798675D01*
X28100000Y-46900000D02*
X22300000Y-46900000D01*
X61700000Y-41425000D02*
X60200000Y-41425000D01*
X40458720Y-72300000D02*
X39990000Y-72300000D01*
X40492464Y-72333744D02*
X40458720Y-72300000D01*
X101400000Y-48400000D02*
X101400000Y-54000000D01*
X72360000Y-18650000D02*
X72100000Y-18910000D01*
X82130000Y-31630000D02*
X81500000Y-31000000D01*
X39990000Y-72300000D02*
X39830000Y-72140000D01*
X62349943Y-41425000D02*
X61700000Y-41425000D01*
X69375000Y-41425000D02*
X61700000Y-41425000D01*
X101400000Y-33000000D02*
X101400000Y-37800000D01*
X31596902Y-41113690D02*
X32399592Y-40311000D01*
X20770000Y-45370000D02*
X22300000Y-46900000D01*
X72100000Y-18910000D02*
X72100000Y-38700000D01*
X83300000Y-32800000D02*
X82130000Y-31630000D01*
X39830000Y-72140000D02*
X38140000Y-72140000D01*
X77849265Y-27050735D02*
X77850735Y-27050735D01*
X75625000Y-29275000D02*
X77849265Y-27050735D01*
X70110000Y-58610000D02*
X71700000Y-60200000D01*
X31596902Y-43403098D02*
X28100000Y-46900000D01*
X71825000Y-53450000D02*
X71825000Y-54250000D01*
X38660000Y-72140000D02*
X69375000Y-41425000D01*
X93749265Y-32850735D02*
X93698530Y-32800000D01*
X93698530Y-32800000D02*
X83300000Y-32800000D01*
X101400000Y-37800000D02*
X101400000Y-43000000D01*
X35625000Y-41425000D02*
X33500000Y-39300000D01*
X38140000Y-72140000D02*
X38660000Y-72140000D01*
X62700000Y-44150000D02*
X62723618Y-44126382D01*
X60200000Y-41425000D02*
X35625000Y-41425000D01*
X60200000Y-42517500D02*
X60200000Y-41425000D01*
X72100000Y-38700000D02*
X69375000Y-41425000D01*
X101400000Y-43000000D02*
X101400000Y-48400000D01*
X62723618Y-41798675D02*
X62349943Y-41425000D01*
X72360000Y-18650000D02*
X76150000Y-18650000D01*
X31596902Y-41113690D02*
X31596902Y-43403098D01*
X71825000Y-54250000D02*
X70110000Y-55965000D01*
X32399592Y-40311000D02*
X32489000Y-40311000D01*
X32489000Y-40311000D02*
X33500000Y-39300000D01*
X73300000Y-29275000D02*
X75625000Y-29275000D01*
%TO.N,Net-(C8-Pad1)*%
X25200000Y-53625904D02*
X25092607Y-53518511D01*
X25500000Y-48700000D02*
X25200000Y-49000000D01*
X25200000Y-49000000D02*
X21300000Y-49000000D01*
X25800000Y-48700000D02*
X25500000Y-48700000D01*
X25085421Y-49114579D02*
X25200000Y-49000000D01*
X25200000Y-59800000D02*
X25200000Y-53625904D01*
X25085421Y-49670000D02*
X25085421Y-49114579D01*
%TO.N,EN*%
X32796902Y-45880000D02*
X32796902Y-42050000D01*
X32796902Y-42050000D02*
X32796902Y-41612162D01*
X32796902Y-41612162D02*
X33880267Y-40528797D01*
%TO.N,Net-(C13-Pad1)*%
X24300000Y-50370000D02*
X24200000Y-50270000D01*
X24100000Y-53610000D02*
X24300000Y-53410000D01*
X25700000Y-50200000D02*
X25630000Y-50270000D01*
X24100000Y-59800000D02*
X24100000Y-53610000D01*
X25630000Y-50270000D02*
X24200000Y-50270000D01*
X24300000Y-50940000D02*
X24300000Y-50370000D01*
X24200000Y-50270000D02*
X21300000Y-50270000D01*
%TO.N,Net-(C14-Pad1)*%
X25640000Y-51540000D02*
X21300000Y-51540000D01*
X23500000Y-59200000D02*
X23500000Y-53410000D01*
X25700000Y-51600000D02*
X25640000Y-51540000D01*
X23500000Y-52210000D02*
X21970000Y-52210000D01*
X22900000Y-59800000D02*
X23500000Y-59200000D01*
X21970000Y-52210000D02*
X21300000Y-51540000D01*
%TO.N,Net-(C15-Pad1)*%
X25510000Y-52810000D02*
X21300000Y-52810000D01*
X22126000Y-53636000D02*
X21300000Y-52810000D01*
X21800000Y-59800000D02*
X22126000Y-59474000D01*
X25600000Y-52900000D02*
X25510000Y-52810000D01*
X22126000Y-59474000D02*
X22126000Y-53636000D01*
%TO.N,TX*%
X76040057Y-55990000D02*
X76284280Y-55990000D01*
X71351765Y-55571765D02*
X71353530Y-55570000D01*
X75620057Y-55570000D02*
X76040057Y-55990000D01*
X76284280Y-55990000D02*
X76299188Y-56004908D01*
X71353530Y-55570000D02*
X75620057Y-55570000D01*
X55800000Y-44920000D02*
X55800000Y-42025000D01*
%TO.N,RX*%
X75764337Y-56320000D02*
X76050245Y-56605908D01*
X71059298Y-56316390D02*
X71062908Y-56320000D01*
X54999997Y-44920000D02*
X54999997Y-43099997D01*
X76101003Y-56605908D02*
X76300005Y-56804910D01*
X54999997Y-43099997D02*
X54900000Y-43000000D01*
X71062908Y-56320000D02*
X75764337Y-56320000D01*
X76050245Y-56605908D02*
X76101003Y-56605908D01*
%TO.N,I2C SCL*%
X56468235Y-39998235D02*
X56466470Y-40000000D01*
X56466470Y-40000000D02*
X53730000Y-40000000D01*
%TO.N,Net-(Q1-D)*%
X77350000Y-71650000D02*
X78300000Y-70700000D01*
X71500000Y-71650000D02*
X77350000Y-71650000D01*
%TO.N,GND*%
X68540000Y-60210000D02*
X71400000Y-63070000D01*
X41137422Y-71592578D02*
X52520000Y-60210000D01*
X71400000Y-62940000D02*
X71400000Y-63070000D01*
X25760000Y-62890000D02*
X25760000Y-64010000D01*
X80649943Y-58200000D02*
X78700000Y-58200000D01*
X90050000Y-67050000D02*
X89990000Y-67110000D01*
X83413500Y-53813500D02*
X83413500Y-55436443D01*
X80000000Y-21000000D02*
X94920000Y-21000000D01*
X76140000Y-58200000D02*
X73500000Y-60840000D01*
X78700000Y-58200000D02*
X76140000Y-58200000D01*
X66150000Y-39851000D02*
X67250000Y-38751000D01*
X90050000Y-63030000D02*
X90050000Y-64870000D01*
X73500000Y-60840000D02*
X71400000Y-62940000D01*
X67250000Y-38250000D02*
X67250000Y-38751000D01*
X72370000Y-48520000D02*
X77250000Y-53400000D01*
X71400000Y-63070000D02*
X71400000Y-66600000D01*
X77250000Y-53400000D02*
X83000000Y-53400000D01*
X77700000Y-74735413D02*
X82014587Y-74735413D01*
X21950000Y-41050000D02*
X21950000Y-38750000D01*
X89700000Y-62680000D02*
X90050000Y-63030000D01*
X72333235Y-46666765D02*
X73000000Y-46000000D01*
X82014587Y-74735413D02*
X82250000Y-74500000D01*
X67100000Y-38100000D02*
X67250000Y-38250000D01*
X40191338Y-71592578D02*
X41137422Y-71592578D01*
X72333235Y-47066765D02*
X72333235Y-46666765D01*
X21950000Y-38750000D02*
X22000000Y-38700000D01*
X26960000Y-61690000D02*
X25760000Y-62890000D01*
X90050000Y-64870000D02*
X90050000Y-67050000D01*
X83413500Y-55436443D02*
X80649943Y-58200000D01*
X68340000Y-60210000D02*
X68540000Y-60210000D01*
X83000000Y-53400000D02*
X83413500Y-53813500D01*
X52520000Y-60210000D02*
X68340000Y-60210000D01*
%TO.N,5v OUT*%
X83452500Y-61507500D02*
X83452500Y-63880000D01*
X28230000Y-82980000D02*
X26820000Y-81570000D01*
X77499943Y-69050000D02*
X75750000Y-69050000D01*
X78901000Y-70948943D02*
X78901000Y-70451057D01*
X68913101Y-68989911D02*
X68913101Y-79326899D01*
X75750000Y-69050000D02*
X75750000Y-67100000D01*
X65260000Y-82980000D02*
X28230000Y-82980000D01*
X74055276Y-73450000D02*
X76750000Y-73450000D01*
X77700000Y-72149943D02*
X78901000Y-70948943D01*
X72550000Y-74955276D02*
X74055276Y-73450000D01*
X78901000Y-70451057D02*
X77499943Y-69050000D01*
X85610000Y-59350000D02*
X83452500Y-61507500D01*
X68913101Y-79326899D02*
X65260000Y-82980000D01*
X77700000Y-73200000D02*
X77700000Y-72149943D01*
%TO.N,Net-(U2-VAUX)*%
X71869052Y-72868052D02*
X69600000Y-70599000D01*
X69600000Y-70599000D02*
X69600000Y-69400000D01*
X71869052Y-73300001D02*
X71869052Y-72868052D01*
%TO.N,Net-(U2-L)*%
X72750000Y-73900000D02*
X70730832Y-73900000D01*
X73400000Y-73250000D02*
X72750000Y-73900000D01*
%TO.N,Net-(U2-UVLO)*%
X76376000Y-77350388D02*
X77700000Y-76026388D01*
X71350000Y-77250000D02*
X71450388Y-77350388D01*
X71350000Y-74500000D02*
X71350000Y-77250000D01*
X71450388Y-77350388D02*
X76376000Y-77350388D01*
%TO.N,Net-(BT1-+)*%
X34596000Y-94800000D02*
X34596000Y-94808131D01*
X34596000Y-94808131D02*
X33453131Y-95951000D01*
X30694000Y-94808131D02*
X30694000Y-94600000D01*
X30694000Y-94600000D02*
X24000000Y-94600000D01*
X67800000Y-94800000D02*
X34596000Y-94800000D01*
X33453131Y-95951000D02*
X31836869Y-95951000D01*
X31836869Y-95951000D02*
X30694000Y-94808131D01*
X24000000Y-94600000D02*
X24000000Y-93902000D01*
X85800000Y-76800000D02*
X67800000Y-94800000D01*
%TO.N,Net-(U3-PROG)*%
X92601000Y-77248943D02*
X92601000Y-75451000D01*
X88311000Y-77601000D02*
X92248943Y-77601000D01*
X92601000Y-75451000D02*
X91550000Y-74400000D01*
X79700000Y-75800000D02*
X80200000Y-75300000D01*
X80200000Y-75300000D02*
X86010000Y-75300000D01*
X92248943Y-77601000D02*
X92601000Y-77248943D01*
X79700000Y-75900000D02*
X79700000Y-75800000D01*
X86010000Y-75300000D02*
X88311000Y-77601000D01*
%TO.N,Net-(Ctrl1-Pad3)*%
X89400000Y-38000000D02*
X84400000Y-38000000D01*
X89400735Y-38000735D02*
X89400000Y-38000000D01*
X89849265Y-38000735D02*
X89400735Y-38000735D01*
%TO.N,Net-(Down1-Pad3)*%
X84300000Y-42000000D02*
X85600000Y-42000000D01*
%TO.N,Net-(Enter&space1-Pad3)*%
X88200000Y-40000000D02*
X84400000Y-40000000D01*
%TO.N,Net-(U5-D-)*%
X78850000Y-59600000D02*
X78760000Y-59690000D01*
X78930000Y-59600000D02*
X78850000Y-59600000D01*
X78760000Y-59690000D02*
X78760000Y-63780000D01*
X79460000Y-64480000D02*
X86120000Y-64480000D01*
X78760000Y-63780000D02*
X79460000Y-64480000D01*
%TO.N,Net-(U5-D+)*%
X78130000Y-63717100D02*
X78130000Y-59540000D01*
X86440000Y-66320000D02*
X85600000Y-65480000D01*
X79892900Y-65480000D02*
X78130000Y-63717100D01*
X87290000Y-66320000D02*
X86440000Y-66320000D01*
X85600000Y-65480000D02*
X79892900Y-65480000D01*
%TO.N,Net-(Find_Host1-Pad3)*%
X84400000Y-36000000D02*
X90800000Y-36000000D01*
X90800000Y-36000000D02*
X91724265Y-35075735D01*
%TO.N,Net-(U5-~{RST})*%
X82377933Y-61992067D02*
X82570000Y-61800000D01*
X80340000Y-61992067D02*
X82377933Y-61992067D01*
%TO.N,DTR*%
X29377767Y-56202233D02*
X28125534Y-54950000D01*
X28125534Y-54950000D02*
X25800000Y-54950000D01*
X37435000Y-58200000D02*
X38635000Y-58200000D01*
%TO.N,MTDO*%
X33011353Y-56386644D02*
X39569485Y-56386644D01*
X48099000Y-57200000D02*
X48100000Y-57199000D01*
X40000000Y-57200000D02*
X48099000Y-57200000D01*
X40000000Y-56817159D02*
X40000000Y-57200000D01*
X32802003Y-56200000D02*
X33000000Y-56397997D01*
X30025735Y-52500000D02*
X31700000Y-54174265D01*
X32900000Y-54500000D02*
X32802003Y-54597997D01*
X39569485Y-56386644D02*
X40000000Y-56817159D01*
X29700000Y-52500000D02*
X30025735Y-52500000D01*
X32802003Y-54597997D02*
X32802003Y-56200000D01*
X33000000Y-56397997D02*
X33011353Y-56386644D01*
%TO.N,MTCK*%
X31194902Y-52694902D02*
X32300000Y-53800000D01*
X32300000Y-53800000D02*
X32300000Y-56410000D01*
X32688997Y-56798997D02*
X39131895Y-56798997D01*
X29600000Y-51000000D02*
X31194902Y-51000000D01*
X39131895Y-56798997D02*
X39320542Y-56987644D01*
X31194902Y-51000000D02*
X31194902Y-52694902D01*
X32300000Y-56410000D02*
X32688997Y-56798997D01*
%TO.N,MTMS*%
X29800000Y-49400000D02*
X31595902Y-49400000D01*
X31595902Y-52445845D02*
X32350057Y-53200000D01*
X31595902Y-49400000D02*
X31595902Y-52445845D01*
X32350057Y-53200000D02*
X33500000Y-53200000D01*
%TO.N,RESET*%
X72700000Y-25400000D02*
X72700000Y-26600000D01*
X62100000Y-47641260D02*
X62100000Y-42025000D01*
X53811111Y-51938889D02*
X53800000Y-51950000D01*
X62120000Y-38110000D02*
X62100000Y-38130000D01*
X56891553Y-51938889D02*
X53811111Y-51938889D01*
X62120000Y-38100000D02*
X62120000Y-38110000D01*
X62100000Y-38130000D02*
X62100000Y-40825000D01*
X60041260Y-49700000D02*
X62100000Y-47641260D01*
%TO.N,SCK*%
X71500000Y-37450000D02*
X68150000Y-40800000D01*
X79798000Y-25387500D02*
X79798000Y-25952000D01*
X57831939Y-48988240D02*
X54261760Y-48988240D01*
X72700000Y-33050000D02*
X79798000Y-25952000D01*
X71500000Y-36900000D02*
X71500000Y-37450000D01*
X72700000Y-33050000D02*
X72700000Y-33054418D01*
X54261760Y-48988240D02*
X53900000Y-49350000D01*
X62700000Y-46402946D02*
X67077945Y-42025000D01*
%TO.N,NSS(CS)*%
X57892228Y-48200000D02*
X53800000Y-48200000D01*
X71450735Y-38500735D02*
X69126470Y-40825000D01*
X67926473Y-42025000D02*
X62700000Y-47251473D01*
X69126470Y-40825000D02*
X69100000Y-40825000D01*
X81200000Y-22650000D02*
X81200000Y-26250057D01*
X58500735Y-49244439D02*
X58500735Y-48808507D01*
X80900000Y-22350000D02*
X81200000Y-22650000D01*
X58500735Y-48808507D02*
X57892228Y-48200000D01*
X80899000Y-27401000D02*
X72700000Y-35600000D01*
X72700000Y-35600000D02*
X72700000Y-36400000D01*
X81200000Y-26250057D02*
X80899000Y-26551057D01*
X58578883Y-49322587D02*
X58500735Y-49244439D01*
X80899000Y-26551057D02*
X80899000Y-27401000D01*
%TO.N,MISO*%
X56490000Y-43670000D02*
X56490000Y-46800000D01*
X79815572Y-26784428D02*
X79815572Y-26787373D01*
X69700000Y-36700000D02*
X69700000Y-36900000D01*
X80398000Y-24131863D02*
X80398000Y-25917857D01*
X80097000Y-26218857D02*
X80097000Y-26503000D01*
X80012816Y-23746679D02*
X80398000Y-24131863D01*
X58745000Y-38570000D02*
X60800000Y-38570000D01*
X79815572Y-26787373D02*
X72700000Y-33902945D01*
X56490000Y-46800000D02*
X53800000Y-46800000D01*
X71500000Y-34900000D02*
X69700000Y-36700000D01*
X80097000Y-26503000D02*
X79815572Y-26784428D01*
X80398000Y-25917857D02*
X80097000Y-26218857D01*
X56490000Y-40825000D02*
X58745000Y-38570000D01*
%TO.N,MOSI*%
X66810057Y-37540000D02*
X62409943Y-37540000D01*
X61830057Y-37540000D02*
X54760000Y-37540000D01*
X66851057Y-37499000D02*
X66810057Y-37540000D01*
X54650000Y-38400000D02*
X53900000Y-39150000D01*
X80498000Y-26384957D02*
X80498000Y-26953473D01*
X61871057Y-37499000D02*
X61830057Y-37540000D01*
X80498000Y-26953473D02*
X72700000Y-34751473D01*
X67389943Y-37540000D02*
X67348943Y-37499000D01*
X80498000Y-26384957D02*
X80799000Y-26083957D01*
X71500000Y-35950000D02*
X69910000Y-37540000D01*
X54760000Y-37540000D02*
X54650000Y-37650000D01*
X62368943Y-37499000D02*
X61871057Y-37499000D01*
X69910000Y-37540000D02*
X67389943Y-37540000D01*
X80799000Y-23499000D02*
X80799000Y-26083957D01*
X62409943Y-37540000D02*
X62368943Y-37499000D01*
X54650000Y-37650000D02*
X54650000Y-38400000D01*
X67348943Y-37499000D02*
X66851057Y-37499000D01*
X80300000Y-23000000D02*
X80799000Y-23499000D01*
%TO.N,DIO0(IRQ)*%
X72700000Y-28300000D02*
X72700000Y-32201472D01*
X32196902Y-41363633D02*
X32196902Y-51908975D01*
X54433900Y-37099000D02*
X54199000Y-37333900D01*
X32396111Y-41164424D02*
X32196902Y-41363633D01*
X54199000Y-38283900D02*
X54066450Y-38416450D01*
X74100000Y-26900000D02*
X72700000Y-28300000D01*
X71450000Y-33550000D02*
X67901000Y-37099000D01*
X54433900Y-37099000D02*
X67901000Y-37099000D01*
X54199000Y-37333900D02*
X54199000Y-38283900D01*
X54066450Y-38416450D02*
X33483550Y-38416450D01*
X32190000Y-39710000D02*
X33483550Y-38416450D01*
%TO.N,RTS*%
X76124265Y-55224265D02*
X76124265Y-54024265D01*
X76124265Y-54024265D02*
X76100000Y-54000000D01*
X37435000Y-59000003D02*
X38635000Y-59000003D01*
%TO.N,IO0*%
X37379136Y-57401950D02*
X38633047Y-57401950D01*
X38633047Y-57401950D02*
X38635000Y-57399997D01*
%TO.N,GPS_Reset*%
X62990000Y-68470000D02*
X56360000Y-61840000D01*
X56340000Y-59610000D02*
X56360000Y-59590000D01*
X63000000Y-68470000D02*
X62990000Y-68470000D01*
X56360000Y-59590000D02*
X56360000Y-57600000D01*
X56360000Y-61840000D02*
X56360000Y-60810000D01*
%TO.N,Net-(U5-RXD)*%
X82812500Y-55000000D02*
X79200000Y-55000000D01*
X79200000Y-55000000D02*
X79000000Y-55200000D01*
%TO.N,Net-(U5-TXD)*%
X82200000Y-55800000D02*
X79700000Y-55800000D01*
%TO.N,Net-(UART1-CC2)*%
X90760000Y-66110000D02*
X90780000Y-66090000D01*
X90780000Y-66090000D02*
X90780000Y-63210000D01*
%TO.N,GPS_TX*%
X28598000Y-49184957D02*
X28598000Y-54132200D01*
X31052957Y-46727043D02*
X31052957Y-46730000D01*
X28598000Y-54132200D02*
X34862051Y-60396251D01*
X31370000Y-46410000D02*
X31052957Y-46727043D01*
X34862051Y-60396251D02*
X39757413Y-60396251D01*
X31052957Y-46730000D02*
X28598000Y-49184957D01*
%TO.N,Find_Host*%
X72501000Y-37000000D02*
X78300000Y-37000000D01*
X72501000Y-39147530D02*
X72501000Y-37000000D01*
X61874265Y-49774265D02*
X72501000Y-39147530D01*
X59312110Y-50100000D02*
X32800000Y-50100000D01*
X59512110Y-50300000D02*
X59312110Y-50100000D01*
%TO.N,Enter&space*%
X72320000Y-40900000D02*
X78400000Y-40900000D01*
X58100688Y-51325735D02*
X37074265Y-51325735D01*
X37074265Y-51325735D02*
X35800000Y-52600000D01*
X61912937Y-51307063D02*
X72320000Y-40900000D01*
X60719306Y-51307063D02*
X61912937Y-51307063D01*
X58274953Y-51500000D02*
X58100688Y-51325735D01*
X35800000Y-52600000D02*
X32600000Y-52600000D01*
X60626369Y-51400000D02*
X60719306Y-51307063D01*
%TO.N,Up*%
X78500000Y-44900000D02*
X69940000Y-44900000D01*
X69940000Y-44900000D02*
X61940000Y-52900000D01*
X56751473Y-53200000D02*
X37900000Y-53200000D01*
X61940000Y-52900000D02*
X59200000Y-52900000D01*
%TO.N,Down*%
X57351470Y-52600000D02*
X57375735Y-52575735D01*
X71100000Y-42900000D02*
X62000000Y-52000000D01*
X37261397Y-52600000D02*
X57351470Y-52600000D01*
X62000000Y-52000000D02*
X60000000Y-52000000D01*
X60000000Y-52000000D02*
X59900000Y-52100000D01*
X78400000Y-42900000D02*
X71100000Y-42900000D01*
%TO.N,Ctrl*%
X72902000Y-39596473D02*
X72902000Y-38898000D01*
X58658032Y-50700000D02*
X58858032Y-50900000D01*
X53900000Y-50700000D02*
X58658032Y-50700000D01*
X73000000Y-38800000D02*
X78300000Y-38800000D01*
X60978530Y-50670000D02*
X61828473Y-50670000D01*
X61828473Y-50670000D02*
X72902000Y-39596473D01*
X72902000Y-38898000D02*
X73000000Y-38800000D01*
%TO.N,Net-(U8-I{slash}O2-Pad3)*%
X96391000Y-66339000D02*
X96380000Y-66350000D01*
X96340000Y-64500000D02*
X96391000Y-64551000D01*
X96391000Y-64551000D02*
X96391000Y-66339000D01*
%TO.N,Net-(U8-I{slash}O1-Pad1)*%
X95740000Y-65700000D02*
X95790000Y-65750000D01*
X95740000Y-63900000D02*
X95740000Y-65700000D01*
%TO.N,GPS_Rx*%
X28999000Y-53719000D02*
X28999000Y-49351057D01*
X30360057Y-47990000D02*
X31596902Y-47990000D01*
X28999000Y-49351057D02*
X30360057Y-47990000D01*
X39680000Y-59600003D02*
X34880003Y-59600003D01*
X34880003Y-59600003D02*
X28999000Y-53719000D01*
%TD*%
%TA.AperFunction,Conductor*%
%TO.N,GND*%
G36*
X100002702Y-15500617D02*
G01*
X100386771Y-15517386D01*
X100397506Y-15518326D01*
X100775971Y-15568152D01*
X100786597Y-15570025D01*
X101159284Y-15652648D01*
X101169710Y-15655442D01*
X101533765Y-15770227D01*
X101543911Y-15773920D01*
X101896578Y-15920000D01*
X101906369Y-15924566D01*
X102244942Y-16100816D01*
X102254310Y-16106224D01*
X102576244Y-16311318D01*
X102585105Y-16317523D01*
X102887930Y-16549889D01*
X102896217Y-16556843D01*
X103177635Y-16814715D01*
X103185284Y-16822364D01*
X103443156Y-17103782D01*
X103450110Y-17112069D01*
X103682476Y-17414894D01*
X103688681Y-17423755D01*
X103893775Y-17745689D01*
X103899183Y-17755057D01*
X104075430Y-18093623D01*
X104080002Y-18103427D01*
X104226075Y-18456078D01*
X104229775Y-18466244D01*
X104344554Y-18830278D01*
X104347354Y-18840727D01*
X104429971Y-19213389D01*
X104431849Y-19224042D01*
X104481671Y-19602473D01*
X104482614Y-19613249D01*
X104499382Y-19997297D01*
X104499500Y-20002706D01*
X104499500Y-99997438D01*
X104499394Y-100002562D01*
X104482636Y-100407726D01*
X104481790Y-100417940D01*
X104431947Y-100817802D01*
X104430260Y-100827910D01*
X104347569Y-101222285D01*
X104345053Y-101232221D01*
X104230075Y-101618423D01*
X104226747Y-101628116D01*
X104080271Y-102003502D01*
X104076154Y-102012887D01*
X103899186Y-102374880D01*
X103894309Y-102383894D01*
X103688037Y-102730064D01*
X103682431Y-102738644D01*
X103448284Y-103066587D01*
X103441989Y-103074674D01*
X103181566Y-103382155D01*
X103174625Y-103389695D01*
X102889695Y-103674625D01*
X102882155Y-103681566D01*
X102574674Y-103941989D01*
X102566587Y-103948284D01*
X102238644Y-104182431D01*
X102230064Y-104188037D01*
X101883894Y-104394309D01*
X101874880Y-104399186D01*
X101512887Y-104576154D01*
X101503502Y-104580271D01*
X101128116Y-104726747D01*
X101118423Y-104730075D01*
X100732221Y-104845053D01*
X100722285Y-104847569D01*
X100327910Y-104930260D01*
X100317802Y-104931947D01*
X99917940Y-104981790D01*
X99907726Y-104982636D01*
X99503175Y-104999368D01*
X99497271Y-104999472D01*
X20076832Y-104499972D01*
X20076827Y-104499972D01*
X20067434Y-104499912D01*
X20065892Y-104499500D01*
X20002256Y-104499500D01*
X20001940Y-104499498D01*
X20001885Y-104499481D01*
X19997316Y-104499382D01*
X19995418Y-104499299D01*
X19613247Y-104482613D01*
X19602474Y-104481671D01*
X19483647Y-104466027D01*
X19224042Y-104431849D01*
X19213389Y-104429971D01*
X18840727Y-104347354D01*
X18830278Y-104344554D01*
X18466244Y-104229775D01*
X18456078Y-104226075D01*
X18103427Y-104080002D01*
X18093623Y-104075430D01*
X17755057Y-103899183D01*
X17745689Y-103893775D01*
X17423755Y-103688681D01*
X17414894Y-103682476D01*
X17112069Y-103450110D01*
X17103782Y-103443156D01*
X16822364Y-103185284D01*
X16814715Y-103177635D01*
X16556843Y-102896217D01*
X16549889Y-102887930D01*
X16317523Y-102585105D01*
X16311318Y-102576244D01*
X16106224Y-102254310D01*
X16100816Y-102244942D01*
X16014160Y-102078478D01*
X15924566Y-101906369D01*
X15919997Y-101896572D01*
X15808799Y-101628116D01*
X15773920Y-101543911D01*
X15770224Y-101533755D01*
X15655442Y-101169710D01*
X15652648Y-101159284D01*
X15570025Y-100786597D01*
X15568152Y-100775971D01*
X15518326Y-100397506D01*
X15517386Y-100386771D01*
X15500618Y-100002702D01*
X15500500Y-99997293D01*
X15500500Y-92202135D01*
X21749500Y-92202135D01*
X21749500Y-95797870D01*
X21749501Y-95797876D01*
X21755908Y-95857483D01*
X21806202Y-95992328D01*
X21806206Y-95992335D01*
X21892452Y-96107544D01*
X21892455Y-96107547D01*
X22007664Y-96193793D01*
X22007671Y-96193797D01*
X22142517Y-96244091D01*
X22142516Y-96244091D01*
X22149444Y-96244835D01*
X22202127Y-96250500D01*
X25797872Y-96250499D01*
X25857483Y-96244091D01*
X25992331Y-96193796D01*
X26107546Y-96107546D01*
X26193796Y-95992331D01*
X26244091Y-95857483D01*
X26250500Y-95797873D01*
X26250500Y-95324500D01*
X26270185Y-95257461D01*
X26322989Y-95211706D01*
X26374500Y-95200500D01*
X30185771Y-95200500D01*
X30215207Y-95209143D01*
X30245197Y-95215667D01*
X30250213Y-95219422D01*
X30252810Y-95220185D01*
X30273451Y-95236818D01*
X30325284Y-95288651D01*
X30325285Y-95288651D01*
X30332353Y-95295719D01*
X31352008Y-96315374D01*
X31352018Y-96315385D01*
X31356348Y-96319715D01*
X31356349Y-96319716D01*
X31468153Y-96431520D01*
X31554964Y-96481639D01*
X31554966Y-96481641D01*
X31593020Y-96503611D01*
X31605084Y-96510577D01*
X31757812Y-96551501D01*
X31757815Y-96551501D01*
X31923522Y-96551501D01*
X31923538Y-96551500D01*
X33366462Y-96551500D01*
X33366478Y-96551501D01*
X33374074Y-96551501D01*
X33532185Y-96551501D01*
X33532188Y-96551501D01*
X33684916Y-96510577D01*
X33735035Y-96481639D01*
X33821847Y-96431520D01*
X33933651Y-96319716D01*
X33933651Y-96319714D01*
X33943859Y-96309507D01*
X33943860Y-96309504D01*
X34816547Y-95436819D01*
X34877870Y-95403334D01*
X34904228Y-95400500D01*
X67713331Y-95400500D01*
X67713347Y-95400501D01*
X67720943Y-95400501D01*
X67879054Y-95400501D01*
X67879057Y-95400501D01*
X68031785Y-95359577D01*
X68081904Y-95330639D01*
X68168716Y-95280520D01*
X68280520Y-95168716D01*
X68280520Y-95168714D01*
X68290728Y-95158507D01*
X68290729Y-95158504D01*
X69570522Y-93878711D01*
X86404500Y-93878711D01*
X86404500Y-94121288D01*
X86436161Y-94361785D01*
X86498947Y-94596104D01*
X86516079Y-94637463D01*
X86591776Y-94820212D01*
X86713064Y-95030289D01*
X86713066Y-95030292D01*
X86713067Y-95030293D01*
X86860733Y-95222736D01*
X86860739Y-95222743D01*
X87032256Y-95394260D01*
X87032263Y-95394266D01*
X87145321Y-95481018D01*
X87224711Y-95541936D01*
X87434788Y-95663224D01*
X87658900Y-95756054D01*
X87893211Y-95818838D01*
X88073586Y-95842584D01*
X88133711Y-95850500D01*
X88133712Y-95850500D01*
X88376289Y-95850500D01*
X88424388Y-95844167D01*
X88616789Y-95818838D01*
X88851100Y-95756054D01*
X89075212Y-95663224D01*
X89285289Y-95541936D01*
X89477738Y-95394265D01*
X89649265Y-95222738D01*
X89796936Y-95030289D01*
X89918224Y-94820212D01*
X90011054Y-94596100D01*
X90073838Y-94361789D01*
X90105500Y-94121288D01*
X90105500Y-93878712D01*
X90102054Y-93852533D01*
X93750000Y-93852533D01*
X93750000Y-94147466D01*
X93750001Y-94147483D01*
X93788496Y-94439884D01*
X93788499Y-94439897D01*
X93864835Y-94724790D01*
X93864838Y-94724800D01*
X93977704Y-94997281D01*
X93977709Y-94997292D01*
X94125174Y-95252707D01*
X94125180Y-95252715D01*
X94241777Y-95404667D01*
X95137425Y-94509018D01*
X95223249Y-94637463D01*
X95362537Y-94776751D01*
X95490979Y-94862573D01*
X94595331Y-95758221D01*
X94747284Y-95874819D01*
X94747292Y-95874825D01*
X95002707Y-96022290D01*
X95002718Y-96022295D01*
X95275199Y-96135161D01*
X95275209Y-96135164D01*
X95560102Y-96211500D01*
X95560115Y-96211503D01*
X95852516Y-96249998D01*
X95852534Y-96250000D01*
X96147466Y-96250000D01*
X96147483Y-96249998D01*
X96439884Y-96211503D01*
X96439897Y-96211500D01*
X96724790Y-96135164D01*
X96724800Y-96135161D01*
X96997281Y-96022295D01*
X96997292Y-96022290D01*
X97252707Y-95874825D01*
X97252725Y-95874813D01*
X97404667Y-95758222D01*
X97404667Y-95758220D01*
X96509020Y-94862573D01*
X96637463Y-94776751D01*
X96776751Y-94637463D01*
X96862573Y-94509020D01*
X97758220Y-95404667D01*
X97758222Y-95404667D01*
X97874813Y-95252725D01*
X97874825Y-95252707D01*
X98022290Y-94997292D01*
X98022295Y-94997281D01*
X98135161Y-94724800D01*
X98135164Y-94724790D01*
X98211500Y-94439897D01*
X98211503Y-94439884D01*
X98249998Y-94147483D01*
X98250000Y-94147466D01*
X98250000Y-93852533D01*
X98249998Y-93852516D01*
X98211503Y-93560115D01*
X98211500Y-93560102D01*
X98135164Y-93275209D01*
X98135161Y-93275199D01*
X98022295Y-93002718D01*
X98022290Y-93002707D01*
X97874825Y-92747292D01*
X97874819Y-92747284D01*
X97758221Y-92595331D01*
X96862573Y-93490979D01*
X96776751Y-93362537D01*
X96637463Y-93223249D01*
X96509020Y-93137425D01*
X97404667Y-92241777D01*
X97252715Y-92125180D01*
X97252707Y-92125174D01*
X96997292Y-91977709D01*
X96997281Y-91977704D01*
X96724800Y-91864838D01*
X96724790Y-91864835D01*
X96439897Y-91788499D01*
X96439884Y-91788496D01*
X96147483Y-91750001D01*
X96147466Y-91750000D01*
X95852534Y-91750000D01*
X95852516Y-91750001D01*
X95560115Y-91788496D01*
X95560102Y-91788499D01*
X95275209Y-91864835D01*
X95275199Y-91864838D01*
X95002718Y-91977704D01*
X95002707Y-91977709D01*
X94747292Y-92125174D01*
X94747276Y-92125185D01*
X94595331Y-92241775D01*
X94595331Y-92241777D01*
X95490979Y-93137425D01*
X95362537Y-93223249D01*
X95223249Y-93362537D01*
X95137425Y-93490979D01*
X94241777Y-92595331D01*
X94241775Y-92595331D01*
X94125185Y-92747276D01*
X94125174Y-92747292D01*
X93977709Y-93002707D01*
X93977704Y-93002718D01*
X93864838Y-93275199D01*
X93864835Y-93275209D01*
X93788499Y-93560102D01*
X93788496Y-93560115D01*
X93750001Y-93852516D01*
X93750000Y-93852533D01*
X90102054Y-93852533D01*
X90073838Y-93638211D01*
X90011054Y-93403900D01*
X89918224Y-93179788D01*
X89796936Y-92969711D01*
X89649265Y-92777262D01*
X89649260Y-92777256D01*
X89477743Y-92605739D01*
X89477736Y-92605733D01*
X89285293Y-92458067D01*
X89285292Y-92458066D01*
X89285289Y-92458064D01*
X89075212Y-92336776D01*
X89075205Y-92336773D01*
X88851104Y-92243947D01*
X88616785Y-92181161D01*
X88376289Y-92149500D01*
X88376288Y-92149500D01*
X88133712Y-92149500D01*
X88133711Y-92149500D01*
X87893214Y-92181161D01*
X87658895Y-92243947D01*
X87434794Y-92336773D01*
X87434785Y-92336777D01*
X87224706Y-92458067D01*
X87032263Y-92605733D01*
X87032256Y-92605739D01*
X86860739Y-92777256D01*
X86860733Y-92777263D01*
X86713067Y-92969706D01*
X86591777Y-93179785D01*
X86591773Y-93179794D01*
X86498947Y-93403895D01*
X86436161Y-93638214D01*
X86404500Y-93878711D01*
X69570522Y-93878711D01*
X85814662Y-77634572D01*
X85875983Y-77601089D01*
X85878150Y-77600638D01*
X85936085Y-77589113D01*
X86033497Y-77569737D01*
X86179179Y-77509394D01*
X86310289Y-77421789D01*
X86421789Y-77310289D01*
X86509394Y-77179179D01*
X86512806Y-77170943D01*
X86526151Y-77138723D01*
X86569737Y-77033497D01*
X86578321Y-76990344D01*
X86610705Y-76928433D01*
X86671421Y-76893859D01*
X86741191Y-76897598D01*
X86787619Y-76926854D01*
X87826139Y-77965374D01*
X87826149Y-77965385D01*
X87830479Y-77969715D01*
X87830480Y-77969716D01*
X87942284Y-78081520D01*
X87942286Y-78081521D01*
X87942290Y-78081524D01*
X88079209Y-78160573D01*
X88079216Y-78160577D01*
X88191019Y-78190534D01*
X88231942Y-78201500D01*
X88231943Y-78201500D01*
X92162274Y-78201500D01*
X92162290Y-78201501D01*
X92169886Y-78201501D01*
X92327997Y-78201501D01*
X92328000Y-78201501D01*
X92480728Y-78160577D01*
X92530847Y-78131639D01*
X92617659Y-78081520D01*
X92729463Y-77969716D01*
X92729464Y-77969714D01*
X93081520Y-77617659D01*
X93160577Y-77480728D01*
X93201501Y-77328000D01*
X93201501Y-77195000D01*
X94894157Y-77195000D01*
X95705382Y-77195000D01*
X95654936Y-77245446D01*
X95612149Y-77319555D01*
X95590000Y-77402213D01*
X95590000Y-77487787D01*
X95612149Y-77570445D01*
X95654936Y-77644554D01*
X95705382Y-77695000D01*
X94894157Y-77695000D01*
X94905350Y-77751274D01*
X94905351Y-77751276D01*
X94984500Y-77942358D01*
X94984505Y-77942368D01*
X95099410Y-78114335D01*
X95099413Y-78114339D01*
X95245660Y-78260586D01*
X95245664Y-78260589D01*
X95417631Y-78375494D01*
X95417641Y-78375499D01*
X95608725Y-78454649D01*
X95608733Y-78454651D01*
X95811579Y-78494999D01*
X95811583Y-78495000D01*
X95865000Y-78495000D01*
X95865000Y-77768067D01*
X95872213Y-77770000D01*
X96357787Y-77770000D01*
X96365000Y-77768067D01*
X96365000Y-78495000D01*
X96418417Y-78495000D01*
X96418420Y-78494999D01*
X96621266Y-78454651D01*
X96621274Y-78454649D01*
X96812358Y-78375499D01*
X96812368Y-78375494D01*
X96984335Y-78260589D01*
X96984339Y-78260586D01*
X97130586Y-78114339D01*
X97130589Y-78114335D01*
X97245494Y-77942368D01*
X97245499Y-77942358D01*
X97254560Y-77920485D01*
X97324648Y-77751276D01*
X97324649Y-77751274D01*
X97335843Y-77695000D01*
X96524618Y-77695000D01*
X96575064Y-77644554D01*
X96617851Y-77570445D01*
X96635388Y-77504999D01*
X97789950Y-77504999D01*
X97789950Y-77505000D01*
X98620025Y-77505000D01*
X98584930Y-77540095D01*
X98538852Y-77619905D01*
X98515000Y-77708922D01*
X98515000Y-77801078D01*
X98538852Y-77890095D01*
X98584930Y-77969905D01*
X98620025Y-78005000D01*
X97789950Y-78005000D01*
X97793932Y-78030144D01*
X97851082Y-78206037D01*
X97851084Y-78206043D01*
X97935052Y-78370837D01*
X98043754Y-78520454D01*
X98043758Y-78520459D01*
X98174540Y-78651241D01*
X98174545Y-78651245D01*
X98324162Y-78759947D01*
X98488956Y-78843915D01*
X98488959Y-78843916D01*
X98664852Y-78901066D01*
X98847527Y-78930000D01*
X98865000Y-78930000D01*
X98865000Y-78105000D01*
X99365000Y-78105000D01*
X99365000Y-78930000D01*
X99382473Y-78930000D01*
X99565147Y-78901066D01*
X99741040Y-78843916D01*
X99741043Y-78843915D01*
X99905837Y-78759947D01*
X100055454Y-78651245D01*
X100055459Y-78651241D01*
X100186241Y-78520459D01*
X100186245Y-78520454D01*
X100294947Y-78370837D01*
X100378915Y-78206043D01*
X100378917Y-78206037D01*
X100436067Y-78030144D01*
X100440049Y-78005000D01*
X99609975Y-78005000D01*
X99645070Y-77969905D01*
X99691148Y-77890095D01*
X99715000Y-77801078D01*
X99715000Y-77708922D01*
X99691148Y-77619905D01*
X99645070Y-77540095D01*
X99609975Y-77505000D01*
X100440050Y-77505000D01*
X100440049Y-77504999D01*
X100436067Y-77479855D01*
X100378917Y-77303962D01*
X100378915Y-77303956D01*
X100294947Y-77139162D01*
X100186245Y-76989545D01*
X100186241Y-76989540D01*
X100055459Y-76858758D01*
X100055454Y-76858754D01*
X99905837Y-76750052D01*
X99741043Y-76666084D01*
X99741040Y-76666083D01*
X99565147Y-76608933D01*
X99382473Y-76580000D01*
X99365000Y-76580000D01*
X99365000Y-77405000D01*
X98865000Y-77405000D01*
X98865000Y-76580000D01*
X98847527Y-76580000D01*
X98664852Y-76608933D01*
X98488959Y-76666083D01*
X98488956Y-76666084D01*
X98324162Y-76750052D01*
X98174545Y-76858754D01*
X98174540Y-76858758D01*
X98043758Y-76989540D01*
X98043754Y-76989545D01*
X97935052Y-77139162D01*
X97851084Y-77303956D01*
X97851082Y-77303962D01*
X97793932Y-77479855D01*
X97789950Y-77504999D01*
X96635388Y-77504999D01*
X96640000Y-77487787D01*
X96640000Y-77402213D01*
X96617851Y-77319555D01*
X96575064Y-77245446D01*
X96524618Y-77195000D01*
X97335843Y-77195000D01*
X97324649Y-77138725D01*
X97324648Y-77138723D01*
X97245499Y-76947641D01*
X97245494Y-76947631D01*
X97130589Y-76775664D01*
X97130586Y-76775660D01*
X96984339Y-76629413D01*
X96984335Y-76629410D01*
X96812368Y-76514505D01*
X96812358Y-76514500D01*
X96621274Y-76435350D01*
X96621266Y-76435348D01*
X96418420Y-76395000D01*
X96365000Y-76395000D01*
X96365000Y-77121932D01*
X96357787Y-77120000D01*
X95872213Y-77120000D01*
X95865000Y-77121932D01*
X95865000Y-76395000D01*
X95811579Y-76395000D01*
X95608733Y-76435348D01*
X95608725Y-76435350D01*
X95417641Y-76514500D01*
X95417631Y-76514505D01*
X95245664Y-76629410D01*
X95245660Y-76629413D01*
X95099413Y-76775660D01*
X95099410Y-76775664D01*
X94984505Y-76947631D01*
X94984500Y-76947641D01*
X94905351Y-77138723D01*
X94905350Y-77138725D01*
X94894157Y-77195000D01*
X93201501Y-77195000D01*
X93201501Y-77169885D01*
X93201500Y-77169881D01*
X93201500Y-75371943D01*
X93200635Y-75368716D01*
X93182357Y-75300500D01*
X93160577Y-75219216D01*
X93149851Y-75200638D01*
X93081524Y-75082290D01*
X93081521Y-75082286D01*
X93081520Y-75082284D01*
X92969716Y-74970480D01*
X92969715Y-74970479D01*
X92965385Y-74966149D01*
X92965374Y-74966139D01*
X92384574Y-74385339D01*
X92351089Y-74324016D01*
X92350638Y-74321849D01*
X92319738Y-74166510D01*
X92319737Y-74166503D01*
X92280506Y-74071790D01*
X92259397Y-74020827D01*
X92259390Y-74020814D01*
X92171789Y-73889711D01*
X92171786Y-73889707D01*
X92060292Y-73778213D01*
X92060288Y-73778210D01*
X91929185Y-73690609D01*
X91929172Y-73690602D01*
X91783501Y-73630264D01*
X91783489Y-73630261D01*
X91628845Y-73599500D01*
X91628842Y-73599500D01*
X91471158Y-73599500D01*
X91471155Y-73599500D01*
X91316510Y-73630261D01*
X91316498Y-73630264D01*
X91170827Y-73690602D01*
X91170814Y-73690609D01*
X91039711Y-73778210D01*
X91039707Y-73778213D01*
X90928213Y-73889707D01*
X90928210Y-73889711D01*
X90840609Y-74020814D01*
X90840602Y-74020827D01*
X90780264Y-74166498D01*
X90780261Y-74166510D01*
X90749500Y-74321153D01*
X90749500Y-74478846D01*
X90780261Y-74633489D01*
X90780264Y-74633501D01*
X90840602Y-74779172D01*
X90840609Y-74779185D01*
X90928210Y-74910288D01*
X90928213Y-74910292D01*
X91039707Y-75021786D01*
X91039711Y-75021789D01*
X91170814Y-75109390D01*
X91170827Y-75109397D01*
X91303756Y-75164457D01*
X91316503Y-75169737D01*
X91381147Y-75182595D01*
X91471849Y-75200638D01*
X91533760Y-75233023D01*
X91535339Y-75234574D01*
X91964181Y-75663416D01*
X91997666Y-75724739D01*
X92000500Y-75751097D01*
X92000500Y-76081953D01*
X91980815Y-76148992D01*
X91928011Y-76194747D01*
X91900692Y-76203570D01*
X91766508Y-76230261D01*
X91766498Y-76230264D01*
X91620827Y-76290602D01*
X91620814Y-76290609D01*
X91489125Y-76378602D01*
X91422447Y-76399480D01*
X91420234Y-76399500D01*
X88800097Y-76399500D01*
X88733058Y-76379815D01*
X88712416Y-76363181D01*
X86987590Y-74638355D01*
X86980521Y-74631286D01*
X86980520Y-74631284D01*
X86834570Y-74485334D01*
X86801088Y-74424014D01*
X86800637Y-74421847D01*
X86780746Y-74321849D01*
X86769737Y-74266503D01*
X86767750Y-74261706D01*
X86709397Y-74120827D01*
X86709390Y-74120814D01*
X86621789Y-73989711D01*
X86621786Y-73989707D01*
X86510292Y-73878213D01*
X86510288Y-73878210D01*
X86379185Y-73790609D01*
X86379172Y-73790602D01*
X86233501Y-73730264D01*
X86233491Y-73730261D01*
X86078149Y-73699361D01*
X86016238Y-73666976D01*
X86014660Y-73665425D01*
X84864731Y-72515496D01*
X84831246Y-72454173D01*
X84832637Y-72395721D01*
X84834832Y-72387532D01*
X84843549Y-72355000D01*
X94894157Y-72355000D01*
X95705382Y-72355000D01*
X95654936Y-72405446D01*
X95612149Y-72479555D01*
X95590000Y-72562213D01*
X95590000Y-72647787D01*
X95612149Y-72730445D01*
X95654936Y-72804554D01*
X95705382Y-72855000D01*
X94894157Y-72855000D01*
X94905350Y-72911274D01*
X94905351Y-72911276D01*
X94984500Y-73102358D01*
X94984505Y-73102368D01*
X95099410Y-73274335D01*
X95099413Y-73274339D01*
X95245660Y-73420586D01*
X95245664Y-73420589D01*
X95417631Y-73535494D01*
X95417641Y-73535499D01*
X95608725Y-73614649D01*
X95608733Y-73614651D01*
X95811579Y-73654999D01*
X95811583Y-73655000D01*
X95865000Y-73655000D01*
X95865000Y-72928067D01*
X95872213Y-72930000D01*
X96357787Y-72930000D01*
X96365000Y-72928067D01*
X96365000Y-73655000D01*
X96418417Y-73655000D01*
X96418420Y-73654999D01*
X96621266Y-73614651D01*
X96621274Y-73614649D01*
X96812358Y-73535499D01*
X96812368Y-73535494D01*
X96984335Y-73420589D01*
X96984339Y-73420586D01*
X97130586Y-73274339D01*
X97130589Y-73274335D01*
X97245494Y-73102368D01*
X97245499Y-73102358D01*
X97324648Y-72911276D01*
X97324649Y-72911274D01*
X97335843Y-72855000D01*
X96524618Y-72855000D01*
X96575064Y-72804554D01*
X96617851Y-72730445D01*
X96640000Y-72647787D01*
X96640000Y-72562213D01*
X96617851Y-72479555D01*
X96575064Y-72405446D01*
X96524618Y-72355000D01*
X97335843Y-72355000D01*
X97324649Y-72298725D01*
X97324648Y-72298723D01*
X97254560Y-72129515D01*
X97245499Y-72107641D01*
X97245494Y-72107631D01*
X97203645Y-72044999D01*
X97789950Y-72044999D01*
X97789950Y-72045000D01*
X98620025Y-72045000D01*
X98584930Y-72080095D01*
X98538852Y-72159905D01*
X98515000Y-72248922D01*
X98515000Y-72341078D01*
X98538852Y-72430095D01*
X98584930Y-72509905D01*
X98620025Y-72545000D01*
X97789950Y-72545000D01*
X97793932Y-72570144D01*
X97851082Y-72746037D01*
X97851084Y-72746043D01*
X97935052Y-72910837D01*
X98043754Y-73060454D01*
X98043758Y-73060459D01*
X98174540Y-73191241D01*
X98174545Y-73191245D01*
X98324162Y-73299947D01*
X98488956Y-73383915D01*
X98488959Y-73383916D01*
X98664852Y-73441066D01*
X98847527Y-73470000D01*
X98865000Y-73470000D01*
X98865000Y-72645000D01*
X99365000Y-72645000D01*
X99365000Y-73470000D01*
X99382473Y-73470000D01*
X99565147Y-73441066D01*
X99741040Y-73383916D01*
X99741043Y-73383915D01*
X99905837Y-73299947D01*
X100055454Y-73191245D01*
X100055459Y-73191241D01*
X100186241Y-73060459D01*
X100186245Y-73060454D01*
X100294947Y-72910837D01*
X100378915Y-72746043D01*
X100378917Y-72746037D01*
X100436067Y-72570144D01*
X100440049Y-72545000D01*
X99609975Y-72545000D01*
X99645070Y-72509905D01*
X99691148Y-72430095D01*
X99715000Y-72341078D01*
X99715000Y-72248922D01*
X99691148Y-72159905D01*
X99645070Y-72080095D01*
X99609975Y-72045000D01*
X100440050Y-72045000D01*
X100440049Y-72044999D01*
X100436067Y-72019855D01*
X100378917Y-71843962D01*
X100378915Y-71843956D01*
X100294947Y-71679162D01*
X100186245Y-71529545D01*
X100186241Y-71529540D01*
X100055459Y-71398758D01*
X100055454Y-71398754D01*
X99905837Y-71290052D01*
X99741043Y-71206084D01*
X99741040Y-71206083D01*
X99565147Y-71148933D01*
X99382473Y-71120000D01*
X99365000Y-71120000D01*
X99365000Y-71945000D01*
X98865000Y-71945000D01*
X98865000Y-71120000D01*
X98847527Y-71120000D01*
X98664852Y-71148933D01*
X98488959Y-71206083D01*
X98488956Y-71206084D01*
X98324162Y-71290052D01*
X98174545Y-71398754D01*
X98174540Y-71398758D01*
X98043758Y-71529540D01*
X98043754Y-71529545D01*
X97935052Y-71679162D01*
X97851084Y-71843956D01*
X97851082Y-71843962D01*
X97793932Y-72019855D01*
X97789950Y-72044999D01*
X97203645Y-72044999D01*
X97130589Y-71935664D01*
X97130586Y-71935660D01*
X96984339Y-71789413D01*
X96984335Y-71789410D01*
X96812368Y-71674505D01*
X96812358Y-71674500D01*
X96621274Y-71595350D01*
X96621266Y-71595348D01*
X96418420Y-71555000D01*
X96365000Y-71555000D01*
X96365000Y-72281932D01*
X96357787Y-72280000D01*
X95872213Y-72280000D01*
X95865000Y-72281932D01*
X95865000Y-71555000D01*
X95811579Y-71555000D01*
X95608733Y-71595348D01*
X95608725Y-71595350D01*
X95417641Y-71674500D01*
X95417631Y-71674505D01*
X95245664Y-71789410D01*
X95245660Y-71789413D01*
X95099413Y-71935660D01*
X95099410Y-71935664D01*
X94984505Y-72107631D01*
X94984500Y-72107641D01*
X94905351Y-72298723D01*
X94905350Y-72298725D01*
X94894157Y-72355000D01*
X84843549Y-72355000D01*
X84850500Y-72329057D01*
X84850500Y-69218992D01*
X93269500Y-69218992D01*
X93269500Y-69421007D01*
X93308907Y-69619119D01*
X93308909Y-69619127D01*
X93386212Y-69805752D01*
X93386217Y-69805762D01*
X93498441Y-69973718D01*
X93641281Y-70116558D01*
X93809237Y-70228782D01*
X93809241Y-70228784D01*
X93809244Y-70228786D01*
X93995873Y-70306091D01*
X94193992Y-70345499D01*
X94193996Y-70345500D01*
X94193997Y-70345500D01*
X95446004Y-70345500D01*
X95446005Y-70345499D01*
X95644127Y-70306091D01*
X95830756Y-70228786D01*
X95998718Y-70116558D01*
X96141558Y-69973718D01*
X96253786Y-69805756D01*
X96331091Y-69619127D01*
X96370500Y-69421003D01*
X96370500Y-69226379D01*
X97599500Y-69226379D01*
X97599500Y-69413620D01*
X97636025Y-69597243D01*
X97636027Y-69597251D01*
X97707676Y-69770228D01*
X97707681Y-69770237D01*
X97811697Y-69925907D01*
X97811700Y-69925911D01*
X97944088Y-70058299D01*
X97944092Y-70058302D01*
X98099762Y-70162318D01*
X98099768Y-70162321D01*
X98099769Y-70162322D01*
X98272749Y-70233973D01*
X98456379Y-70270499D01*
X98456383Y-70270500D01*
X98456384Y-70270500D01*
X99543617Y-70270500D01*
X99543618Y-70270499D01*
X99727251Y-70233973D01*
X99900231Y-70162322D01*
X100055908Y-70058302D01*
X100188302Y-69925908D01*
X100292322Y-69770231D01*
X100363973Y-69597251D01*
X100400500Y-69413616D01*
X100400500Y-69226384D01*
X100363973Y-69042749D01*
X100292322Y-68869769D01*
X100292321Y-68869768D01*
X100292318Y-68869762D01*
X100188302Y-68714092D01*
X100188299Y-68714088D01*
X100055911Y-68581700D01*
X100055907Y-68581697D01*
X99900237Y-68477681D01*
X99900228Y-68477676D01*
X99727251Y-68406027D01*
X99727243Y-68406025D01*
X99543620Y-68369500D01*
X99543616Y-68369500D01*
X98456384Y-68369500D01*
X98456379Y-68369500D01*
X98272756Y-68406025D01*
X98272748Y-68406027D01*
X98099771Y-68477676D01*
X98099762Y-68477681D01*
X97944092Y-68581697D01*
X97944088Y-68581700D01*
X97811700Y-68714088D01*
X97811697Y-68714092D01*
X97707681Y-68869762D01*
X97707676Y-68869771D01*
X97636027Y-69042748D01*
X97636025Y-69042756D01*
X97599500Y-69226379D01*
X96370500Y-69226379D01*
X96370500Y-69218997D01*
X96331091Y-69020873D01*
X96253786Y-68834244D01*
X96253784Y-68834241D01*
X96253782Y-68834237D01*
X96141558Y-68666281D01*
X95998718Y-68523441D01*
X95825691Y-68407829D01*
X95826432Y-68406718D01*
X95781465Y-68362553D01*
X95765999Y-68294417D01*
X95782369Y-68240152D01*
X95856281Y-68112135D01*
X95895500Y-67965766D01*
X95895500Y-67814234D01*
X95856281Y-67667865D01*
X95855940Y-67667275D01*
X95836581Y-67633744D01*
X95780515Y-67536635D01*
X95673365Y-67429485D01*
X95604468Y-67389707D01*
X95542136Y-67353719D01*
X95468950Y-67334109D01*
X95395766Y-67314500D01*
X95244234Y-67314500D01*
X95097863Y-67353719D01*
X94966635Y-67429485D01*
X94966632Y-67429487D01*
X94859487Y-67536632D01*
X94859485Y-67536635D01*
X94783719Y-67667863D01*
X94744500Y-67814234D01*
X94744500Y-67965766D01*
X94778006Y-68090814D01*
X94783720Y-68112137D01*
X94786831Y-68119649D01*
X94784552Y-68120592D01*
X94798093Y-68176393D01*
X94775245Y-68242421D01*
X94720326Y-68285615D01*
X94674233Y-68294500D01*
X94193992Y-68294500D01*
X93995880Y-68333907D01*
X93995872Y-68333909D01*
X93809247Y-68411212D01*
X93809237Y-68411217D01*
X93641281Y-68523441D01*
X93498441Y-68666281D01*
X93386217Y-68834237D01*
X93386212Y-68834247D01*
X93308909Y-69020872D01*
X93308907Y-69020880D01*
X93269500Y-69218992D01*
X84850500Y-69218992D01*
X84850500Y-68479765D01*
X84870185Y-68412726D01*
X84871398Y-68410874D01*
X84922825Y-68333909D01*
X84959394Y-68279179D01*
X85019737Y-68133497D01*
X85050500Y-67978842D01*
X85050500Y-67821158D01*
X85050500Y-67821155D01*
X85050499Y-67821153D01*
X85038455Y-67760606D01*
X85019737Y-67666503D01*
X85019735Y-67666498D01*
X84959397Y-67520827D01*
X84959390Y-67520814D01*
X84871789Y-67389711D01*
X84871786Y-67389707D01*
X84760292Y-67278213D01*
X84760288Y-67278210D01*
X84629185Y-67190609D01*
X84629172Y-67190602D01*
X84483501Y-67130264D01*
X84483489Y-67130261D01*
X84328845Y-67099500D01*
X84328842Y-67099500D01*
X84171158Y-67099500D01*
X84171155Y-67099500D01*
X84016510Y-67130261D01*
X84016498Y-67130264D01*
X83870827Y-67190602D01*
X83870814Y-67190609D01*
X83739711Y-67278210D01*
X83739707Y-67278213D01*
X83628213Y-67389707D01*
X83628210Y-67389711D01*
X83540609Y-67520814D01*
X83540602Y-67520827D01*
X83480264Y-67666498D01*
X83480261Y-67666510D01*
X83449500Y-67821153D01*
X83449500Y-67978846D01*
X83480261Y-68133489D01*
X83480264Y-68133501D01*
X83540602Y-68279172D01*
X83540609Y-68279185D01*
X83628602Y-68410874D01*
X83649480Y-68477551D01*
X83649500Y-68479765D01*
X83649500Y-71775500D01*
X83629815Y-71842539D01*
X83577011Y-71888294D01*
X83525500Y-71899500D01*
X79579766Y-71899500D01*
X79512727Y-71879815D01*
X79510875Y-71878602D01*
X79379185Y-71790609D01*
X79379172Y-71790602D01*
X79233501Y-71730264D01*
X79228460Y-71728735D01*
X79225115Y-71726543D01*
X79221128Y-71726258D01*
X79196135Y-71707548D01*
X79170024Y-71690434D01*
X79168395Y-71686782D01*
X79165195Y-71684386D01*
X79154283Y-71655131D01*
X79141571Y-71626620D01*
X79142175Y-71622668D01*
X79140778Y-71618922D01*
X79147415Y-71588411D01*
X79152135Y-71557554D01*
X79155024Y-71553431D01*
X79155630Y-71550649D01*
X79176776Y-71522400D01*
X79259506Y-71439670D01*
X79259511Y-71439667D01*
X79269714Y-71429463D01*
X79269716Y-71429463D01*
X79381520Y-71317659D01*
X79460577Y-71180727D01*
X79495739Y-71049500D01*
X79501500Y-71028001D01*
X79501500Y-70869886D01*
X79501500Y-70540117D01*
X79501501Y-70540104D01*
X79501501Y-70372002D01*
X79501501Y-70372000D01*
X79460577Y-70219272D01*
X79405303Y-70123535D01*
X79381520Y-70082341D01*
X79269716Y-69970537D01*
X79269713Y-69970535D01*
X77987533Y-68688355D01*
X77987531Y-68688352D01*
X77868660Y-68569481D01*
X77868659Y-68569480D01*
X77764581Y-68509391D01*
X77731728Y-68490423D01*
X77579000Y-68449499D01*
X77420886Y-68449499D01*
X77413290Y-68449499D01*
X77413274Y-68449500D01*
X76474500Y-68449500D01*
X76407461Y-68429815D01*
X76361706Y-68377011D01*
X76350500Y-68325500D01*
X76350500Y-67679765D01*
X76370185Y-67612726D01*
X76371398Y-67610874D01*
X76459390Y-67479185D01*
X76459390Y-67479184D01*
X76459394Y-67479179D01*
X76519737Y-67333497D01*
X76550500Y-67178842D01*
X76550500Y-67021158D01*
X76550500Y-67021155D01*
X76550499Y-67021153D01*
X76534712Y-66941786D01*
X76519737Y-66866503D01*
X76504737Y-66830289D01*
X76459397Y-66720827D01*
X76459390Y-66720814D01*
X76371789Y-66589711D01*
X76371786Y-66589707D01*
X76260292Y-66478213D01*
X76260288Y-66478210D01*
X76129185Y-66390609D01*
X76129172Y-66390602D01*
X75983501Y-66330264D01*
X75983489Y-66330261D01*
X75828845Y-66299500D01*
X75828842Y-66299500D01*
X75671158Y-66299500D01*
X75671155Y-66299500D01*
X75516510Y-66330261D01*
X75516498Y-66330264D01*
X75370827Y-66390602D01*
X75370814Y-66390609D01*
X75239711Y-66478210D01*
X75239707Y-66478213D01*
X75128213Y-66589707D01*
X75128210Y-66589711D01*
X75040609Y-66720814D01*
X75040602Y-66720827D01*
X74980264Y-66866498D01*
X74980261Y-66866510D01*
X74949500Y-67021153D01*
X74949500Y-67178846D01*
X74980261Y-67333489D01*
X74980264Y-67333501D01*
X75040602Y-67479172D01*
X75040609Y-67479185D01*
X75128602Y-67610874D01*
X75149480Y-67677551D01*
X75149500Y-67679765D01*
X75149500Y-69129057D01*
X75187400Y-69270500D01*
X75190423Y-69281783D01*
X75190426Y-69281790D01*
X75269475Y-69418709D01*
X75269479Y-69418714D01*
X75269480Y-69418716D01*
X75381284Y-69530520D01*
X75381286Y-69530521D01*
X75381290Y-69530524D01*
X75518209Y-69609573D01*
X75518216Y-69609577D01*
X75670943Y-69650500D01*
X75829057Y-69650500D01*
X77199846Y-69650500D01*
X77266885Y-69670185D01*
X77287527Y-69686819D01*
X77651196Y-70050488D01*
X77684681Y-70111811D01*
X77679697Y-70181503D01*
X77666618Y-70207059D01*
X77590608Y-70320816D01*
X77590602Y-70320827D01*
X77530264Y-70466498D01*
X77530261Y-70466508D01*
X77499361Y-70621850D01*
X77466976Y-70683761D01*
X77465425Y-70685339D01*
X77137584Y-71013181D01*
X77076261Y-71046666D01*
X77049903Y-71049500D01*
X72079766Y-71049500D01*
X72012727Y-71029815D01*
X72010875Y-71028602D01*
X71879185Y-70940609D01*
X71879172Y-70940602D01*
X71733501Y-70880264D01*
X71733489Y-70880261D01*
X71578845Y-70849500D01*
X71578842Y-70849500D01*
X71421158Y-70849500D01*
X71421155Y-70849500D01*
X71266510Y-70880261D01*
X71266498Y-70880264D01*
X71120827Y-70940602D01*
X71120814Y-70940609D01*
X71007626Y-71016240D01*
X70940948Y-71037118D01*
X70873568Y-71018633D01*
X70851054Y-71000819D01*
X70236819Y-70386584D01*
X70203334Y-70325261D01*
X70200500Y-70298903D01*
X70200500Y-69979765D01*
X70220185Y-69912726D01*
X70221398Y-69910874D01*
X70309390Y-69779185D01*
X70309390Y-69779184D01*
X70309394Y-69779179D01*
X70369737Y-69633497D01*
X70400500Y-69478842D01*
X70400500Y-69321158D01*
X70400500Y-69321155D01*
X70400499Y-69321153D01*
X70381056Y-69223408D01*
X70369737Y-69166503D01*
X70369735Y-69166498D01*
X70309397Y-69020827D01*
X70309390Y-69020814D01*
X70221789Y-68889711D01*
X70221786Y-68889707D01*
X70110292Y-68778213D01*
X70110288Y-68778210D01*
X69979185Y-68690609D01*
X69979172Y-68690602D01*
X69833501Y-68630264D01*
X69833489Y-68630261D01*
X69678846Y-68599500D01*
X69672782Y-68598903D01*
X69672963Y-68597061D01*
X69614230Y-68579815D01*
X69578167Y-68544391D01*
X69534890Y-68479622D01*
X69534888Y-68479619D01*
X69423393Y-68368124D01*
X69423389Y-68368121D01*
X69292286Y-68280520D01*
X69292273Y-68280513D01*
X69146602Y-68220175D01*
X69146590Y-68220172D01*
X68991946Y-68189411D01*
X68991943Y-68189411D01*
X68834259Y-68189411D01*
X68834256Y-68189411D01*
X68679611Y-68220172D01*
X68679599Y-68220175D01*
X68533928Y-68280513D01*
X68533915Y-68280520D01*
X68402812Y-68368121D01*
X68402808Y-68368124D01*
X68291314Y-68479618D01*
X68291311Y-68479622D01*
X68203710Y-68610725D01*
X68203703Y-68610738D01*
X68143365Y-68756409D01*
X68143362Y-68756421D01*
X68112601Y-68911064D01*
X68112601Y-69068757D01*
X68143362Y-69223400D01*
X68143365Y-69223412D01*
X68203703Y-69369083D01*
X68203710Y-69369096D01*
X68291703Y-69500785D01*
X68312581Y-69567462D01*
X68312601Y-69569676D01*
X68312601Y-79026802D01*
X68292916Y-79093841D01*
X68276282Y-79114483D01*
X65047584Y-82343181D01*
X64986261Y-82376666D01*
X64959903Y-82379500D01*
X28530097Y-82379500D01*
X28463058Y-82359815D01*
X28442416Y-82343181D01*
X27654574Y-81555339D01*
X27621089Y-81494016D01*
X27620638Y-81491849D01*
X27589738Y-81336510D01*
X27589737Y-81336503D01*
X27589735Y-81336498D01*
X27529397Y-81190827D01*
X27529390Y-81190814D01*
X27441789Y-81059711D01*
X27441786Y-81059707D01*
X27330292Y-80948213D01*
X27330288Y-80948210D01*
X27199185Y-80860609D01*
X27199172Y-80860602D01*
X27053501Y-80800264D01*
X27053489Y-80800261D01*
X26898845Y-80769500D01*
X26898842Y-80769500D01*
X26741158Y-80769500D01*
X26741155Y-80769500D01*
X26586510Y-80800261D01*
X26586498Y-80800264D01*
X26440827Y-80860602D01*
X26440814Y-80860609D01*
X26309711Y-80948210D01*
X26309707Y-80948213D01*
X26198213Y-81059707D01*
X26198210Y-81059711D01*
X26110609Y-81190814D01*
X26110602Y-81190827D01*
X26050264Y-81336498D01*
X26050261Y-81336510D01*
X26019500Y-81491153D01*
X26019500Y-81648846D01*
X26050261Y-81803489D01*
X26050264Y-81803501D01*
X26110602Y-81949172D01*
X26110609Y-81949185D01*
X26198210Y-82080288D01*
X26198213Y-82080292D01*
X26309707Y-82191786D01*
X26309711Y-82191789D01*
X26440814Y-82279390D01*
X26440827Y-82279397D01*
X26586498Y-82339735D01*
X26586503Y-82339737D01*
X26651147Y-82352595D01*
X26741849Y-82370638D01*
X26803760Y-82403023D01*
X26805339Y-82404574D01*
X27745139Y-83344374D01*
X27745149Y-83344385D01*
X27749479Y-83348715D01*
X27749480Y-83348716D01*
X27861284Y-83460520D01*
X27948095Y-83510639D01*
X27948097Y-83510641D01*
X27986151Y-83532611D01*
X27998215Y-83539577D01*
X28150943Y-83580500D01*
X65173331Y-83580500D01*
X65173347Y-83580501D01*
X65180943Y-83580501D01*
X65339054Y-83580501D01*
X65339057Y-83580501D01*
X65491785Y-83539577D01*
X65541904Y-83510639D01*
X65628716Y-83460520D01*
X65740520Y-83348716D01*
X65740520Y-83348714D01*
X65750728Y-83338507D01*
X65750730Y-83338504D01*
X69281814Y-79807420D01*
X69281817Y-79807419D01*
X69393621Y-79695615D01*
X69443740Y-79608803D01*
X69472678Y-79558684D01*
X69513602Y-79405956D01*
X69513602Y-79247842D01*
X69513602Y-79240247D01*
X69513601Y-79240229D01*
X69513601Y-71661198D01*
X69533286Y-71594159D01*
X69586090Y-71548404D01*
X69655248Y-71538460D01*
X69718804Y-71567485D01*
X69725282Y-71573517D01*
X71071867Y-72920102D01*
X71105352Y-72981425D01*
X71100368Y-73051117D01*
X71058496Y-73107050D01*
X70993032Y-73131467D01*
X70959995Y-73129400D01*
X70809678Y-73099500D01*
X70809674Y-73099500D01*
X70651990Y-73099500D01*
X70651987Y-73099500D01*
X70497342Y-73130261D01*
X70497330Y-73130264D01*
X70351659Y-73190602D01*
X70351646Y-73190609D01*
X70220543Y-73278210D01*
X70220539Y-73278213D01*
X70109045Y-73389707D01*
X70109042Y-73389711D01*
X70021441Y-73520814D01*
X70021434Y-73520827D01*
X69961096Y-73666498D01*
X69961093Y-73666510D01*
X69930332Y-73821153D01*
X69930332Y-73978846D01*
X69961093Y-74133489D01*
X69961096Y-74133501D01*
X70021434Y-74279172D01*
X70021441Y-74279185D01*
X70109042Y-74410288D01*
X70109045Y-74410292D01*
X70220539Y-74521786D01*
X70220543Y-74521789D01*
X70351646Y-74609390D01*
X70351659Y-74609397D01*
X70439062Y-74645599D01*
X70497335Y-74669737D01*
X70497342Y-74669738D01*
X70503168Y-74671506D01*
X70502541Y-74673569D01*
X70555825Y-74701436D01*
X70584291Y-74743223D01*
X70640602Y-74879172D01*
X70640609Y-74879185D01*
X70728602Y-75010874D01*
X70749480Y-75077551D01*
X70749500Y-75079765D01*
X70749500Y-77163330D01*
X70749499Y-77163348D01*
X70749499Y-77329054D01*
X70749498Y-77329054D01*
X70749499Y-77329057D01*
X70790423Y-77481785D01*
X70806363Y-77509394D01*
X70819358Y-77531900D01*
X70819359Y-77531904D01*
X70819360Y-77531904D01*
X70868867Y-77617655D01*
X70869479Y-77618714D01*
X70869481Y-77618717D01*
X71081672Y-77830908D01*
X71168483Y-77881027D01*
X71168485Y-77881029D01*
X71206539Y-77902999D01*
X71218603Y-77909965D01*
X71371331Y-77950888D01*
X76289331Y-77950888D01*
X76289347Y-77950889D01*
X76296943Y-77950889D01*
X76455054Y-77950889D01*
X76455057Y-77950889D01*
X76607785Y-77909965D01*
X76657904Y-77881027D01*
X76744716Y-77830908D01*
X76856520Y-77719104D01*
X76856520Y-77719102D01*
X76866728Y-77708895D01*
X76866729Y-77708892D01*
X77714665Y-76860958D01*
X77775984Y-76827476D01*
X77778151Y-76827025D01*
X77778840Y-76826888D01*
X77778842Y-76826888D01*
X77933497Y-76796125D01*
X78079179Y-76735782D01*
X78210289Y-76648177D01*
X78321789Y-76536677D01*
X78409394Y-76405567D01*
X78411700Y-76400001D01*
X78426951Y-76363181D01*
X78469737Y-76259885D01*
X78500500Y-76105230D01*
X78500500Y-75947546D01*
X78500500Y-75947543D01*
X78500499Y-75947541D01*
X78498680Y-75938397D01*
X78469737Y-75792891D01*
X78454363Y-75755775D01*
X78409397Y-75647215D01*
X78409390Y-75647202D01*
X78321789Y-75516099D01*
X78321786Y-75516095D01*
X78210292Y-75404601D01*
X78210288Y-75404598D01*
X78079185Y-75316997D01*
X78079172Y-75316990D01*
X77933501Y-75256652D01*
X77933489Y-75256649D01*
X77778845Y-75225888D01*
X77778842Y-75225888D01*
X77621158Y-75225888D01*
X77621155Y-75225888D01*
X77466510Y-75256649D01*
X77466498Y-75256652D01*
X77320827Y-75316990D01*
X77320814Y-75316997D01*
X77189711Y-75404598D01*
X77189707Y-75404601D01*
X77078213Y-75516095D01*
X77078210Y-75516099D01*
X76990609Y-75647202D01*
X76990602Y-75647215D01*
X76930264Y-75792886D01*
X76930261Y-75792896D01*
X76899362Y-75948236D01*
X76890597Y-75964991D01*
X76886578Y-75983470D01*
X76867832Y-76008511D01*
X76866977Y-76010147D01*
X76865427Y-76011725D01*
X76786680Y-76090472D01*
X76725359Y-76123956D01*
X76655667Y-76118972D01*
X76599733Y-76077101D01*
X76575316Y-76011637D01*
X76575000Y-76002790D01*
X76575000Y-75900000D01*
X75278553Y-75900000D01*
X75514095Y-76135542D01*
X75547580Y-76196865D01*
X75542596Y-76266557D01*
X75527374Y-76290242D01*
X75509968Y-76272836D01*
X75454837Y-76250000D01*
X75395163Y-76250000D01*
X75340032Y-76272836D01*
X75297836Y-76315032D01*
X75275000Y-76370163D01*
X75275000Y-76429837D01*
X75297836Y-76484968D01*
X75340032Y-76527164D01*
X75395163Y-76550000D01*
X75454837Y-76550000D01*
X75509968Y-76527164D01*
X75528122Y-76509009D01*
X75534916Y-76527226D01*
X75547581Y-76550419D01*
X75546935Y-76559448D01*
X75550099Y-76567931D01*
X75544482Y-76593751D01*
X75542597Y-76620111D01*
X75536778Y-76629164D01*
X75535247Y-76636204D01*
X75514096Y-76664458D01*
X75464985Y-76713569D01*
X75403662Y-76747054D01*
X75377304Y-76749888D01*
X75020921Y-76749888D01*
X74953882Y-76730203D01*
X74924765Y-76696601D01*
X74903391Y-76725155D01*
X74837927Y-76749572D01*
X74829080Y-76749888D01*
X74472696Y-76749888D01*
X74443255Y-76741243D01*
X74413269Y-76734720D01*
X74408253Y-76730965D01*
X74405657Y-76730203D01*
X74385015Y-76713569D01*
X74335904Y-76664458D01*
X74302419Y-76603135D01*
X74307403Y-76533443D01*
X74322625Y-76509757D01*
X74340032Y-76527164D01*
X74395163Y-76550000D01*
X74454837Y-76550000D01*
X74509968Y-76527164D01*
X74552164Y-76484968D01*
X74575000Y-76429837D01*
X74575000Y-76399999D01*
X74778553Y-76399999D01*
X74916761Y-76538206D01*
X74924061Y-76551575D01*
X74927208Y-76544685D01*
X74933240Y-76538207D01*
X75071446Y-76400001D01*
X75071446Y-76400000D01*
X74925000Y-76253553D01*
X74778553Y-76399999D01*
X74575000Y-76399999D01*
X74575000Y-76370163D01*
X74552164Y-76315032D01*
X74509968Y-76272836D01*
X74454837Y-76250000D01*
X74395163Y-76250000D01*
X74340032Y-76272836D01*
X74323916Y-76288951D01*
X74302419Y-76249581D01*
X74307403Y-76179889D01*
X74335904Y-76135542D01*
X74571446Y-75900000D01*
X73275000Y-75900000D01*
X73275000Y-76625888D01*
X73255315Y-76692927D01*
X73202511Y-76738682D01*
X73151000Y-76749888D01*
X72074500Y-76749888D01*
X72007461Y-76730203D01*
X71961706Y-76677399D01*
X71950500Y-76625888D01*
X71950500Y-75749444D01*
X71970185Y-75682405D01*
X72022989Y-75636650D01*
X72092147Y-75626706D01*
X72143392Y-75646343D01*
X72170812Y-75664665D01*
X72170827Y-75664673D01*
X72316498Y-75725011D01*
X72316503Y-75725013D01*
X72471153Y-75755775D01*
X72471156Y-75755776D01*
X72471158Y-75755776D01*
X72628844Y-75755776D01*
X72628845Y-75755775D01*
X72783497Y-75725013D01*
X72929179Y-75664670D01*
X72995788Y-75620163D01*
X74775000Y-75620163D01*
X74775000Y-75679837D01*
X74797836Y-75734968D01*
X74840032Y-75777164D01*
X74895163Y-75800000D01*
X74954837Y-75800000D01*
X75009968Y-75777164D01*
X75052164Y-75734968D01*
X75075000Y-75679837D01*
X75075000Y-75620163D01*
X75052164Y-75565032D01*
X75009968Y-75522836D01*
X74954837Y-75500000D01*
X74895163Y-75500000D01*
X74840032Y-75522836D01*
X74797836Y-75565032D01*
X74775000Y-75620163D01*
X72995788Y-75620163D01*
X73060289Y-75577065D01*
X73171789Y-75465565D01*
X73178776Y-75455107D01*
X73232389Y-75410304D01*
X73281878Y-75400000D01*
X74571446Y-75400000D01*
X74571446Y-75399999D01*
X74335904Y-75164457D01*
X74302419Y-75103134D01*
X74307403Y-75033442D01*
X74322624Y-75009756D01*
X74340032Y-75027164D01*
X74395163Y-75050000D01*
X74454837Y-75050000D01*
X74509968Y-75027164D01*
X74552164Y-74984968D01*
X74575000Y-74929837D01*
X74575000Y-74899999D01*
X74778553Y-74899999D01*
X74925000Y-75046446D01*
X75071446Y-74900001D01*
X75071446Y-74900000D01*
X74925000Y-74753553D01*
X74778553Y-74899999D01*
X74575000Y-74899999D01*
X74575000Y-74870163D01*
X74552164Y-74815032D01*
X74509968Y-74772836D01*
X74454837Y-74750000D01*
X74395163Y-74750000D01*
X74340032Y-74772836D01*
X74323916Y-74788951D01*
X74302419Y-74749581D01*
X74307403Y-74679889D01*
X74335904Y-74635542D01*
X74837319Y-74134127D01*
X74898642Y-74100642D01*
X74968334Y-74105626D01*
X75012681Y-74134127D01*
X75514095Y-74635542D01*
X75547580Y-74696865D01*
X75542596Y-74766557D01*
X75527374Y-74790242D01*
X75509968Y-74772836D01*
X75454837Y-74750000D01*
X75395163Y-74750000D01*
X75340032Y-74772836D01*
X75297836Y-74815032D01*
X75275000Y-74870163D01*
X75275000Y-74929837D01*
X75297836Y-74984968D01*
X75340032Y-75027164D01*
X75395163Y-75050000D01*
X75454837Y-75050000D01*
X75509968Y-75027164D01*
X75526082Y-75011049D01*
X75547580Y-75050418D01*
X75542596Y-75120110D01*
X75514095Y-75164457D01*
X75278553Y-75399999D01*
X75278554Y-75400000D01*
X76575000Y-75400000D01*
X76575000Y-74374500D01*
X76594685Y-74307461D01*
X76647489Y-74261706D01*
X76699000Y-74250500D01*
X76828844Y-74250500D01*
X76828845Y-74250499D01*
X76983497Y-74219737D01*
X77129179Y-74159394D01*
X77260289Y-74071789D01*
X77334264Y-73997813D01*
X77395585Y-73964330D01*
X77460374Y-73968963D01*
X77460676Y-73967969D01*
X77465057Y-73969298D01*
X77465277Y-73969314D01*
X77465840Y-73969535D01*
X77466492Y-73969732D01*
X77466503Y-73969737D01*
X77607660Y-73997815D01*
X77621153Y-74000499D01*
X77621156Y-74000500D01*
X77621158Y-74000500D01*
X77778844Y-74000500D01*
X77778845Y-74000499D01*
X77933497Y-73969737D01*
X78079179Y-73909394D01*
X78210289Y-73821789D01*
X78321789Y-73710289D01*
X78409394Y-73579179D01*
X78469737Y-73433497D01*
X78492944Y-73316826D01*
X78525328Y-73254916D01*
X78586044Y-73220342D01*
X78655813Y-73224081D01*
X78662013Y-73226457D01*
X78766498Y-73269735D01*
X78766503Y-73269737D01*
X78918378Y-73299947D01*
X78921153Y-73300499D01*
X78921156Y-73300500D01*
X78921158Y-73300500D01*
X79078844Y-73300500D01*
X79078845Y-73300499D01*
X79233497Y-73269737D01*
X79379179Y-73209394D01*
X79407303Y-73190602D01*
X79510875Y-73121398D01*
X79577553Y-73100520D01*
X79579766Y-73100500D01*
X83699903Y-73100500D01*
X83766942Y-73120185D01*
X83787584Y-73136819D01*
X85138584Y-74487819D01*
X85172069Y-74549142D01*
X85167085Y-74618834D01*
X85125213Y-74674767D01*
X85059749Y-74699184D01*
X85050903Y-74699500D01*
X80286670Y-74699500D01*
X80286654Y-74699499D01*
X80279058Y-74699499D01*
X80120943Y-74699499D01*
X80044579Y-74719961D01*
X79968214Y-74740423D01*
X79968209Y-74740426D01*
X79831290Y-74819475D01*
X79831286Y-74819478D01*
X79560506Y-75090257D01*
X79499183Y-75123741D01*
X79497019Y-75124192D01*
X79466505Y-75130262D01*
X79466500Y-75130263D01*
X79320827Y-75190602D01*
X79320814Y-75190609D01*
X79189711Y-75278210D01*
X79189707Y-75278213D01*
X79078213Y-75389707D01*
X79078210Y-75389711D01*
X78990609Y-75520814D01*
X78990602Y-75520827D01*
X78930264Y-75666498D01*
X78930261Y-75666510D01*
X78899500Y-75821153D01*
X78899500Y-75978846D01*
X78930261Y-76133489D01*
X78930264Y-76133501D01*
X78990602Y-76279172D01*
X78990609Y-76279185D01*
X79078210Y-76410288D01*
X79078213Y-76410292D01*
X79189707Y-76521786D01*
X79189711Y-76521789D01*
X79320814Y-76609390D01*
X79320827Y-76609397D01*
X79414452Y-76648177D01*
X79466503Y-76669737D01*
X79601557Y-76696601D01*
X79621153Y-76700499D01*
X79621156Y-76700500D01*
X79621158Y-76700500D01*
X79778844Y-76700500D01*
X79778845Y-76700499D01*
X79933497Y-76669737D01*
X80079179Y-76609394D01*
X80210289Y-76521789D01*
X80321789Y-76410289D01*
X80409394Y-76279179D01*
X80469737Y-76133497D01*
X80478269Y-76090606D01*
X80496231Y-76000308D01*
X80528616Y-75938397D01*
X80589332Y-75903823D01*
X80617848Y-75900500D01*
X85296561Y-75900500D01*
X85363600Y-75920185D01*
X85409355Y-75972989D01*
X85419299Y-76042147D01*
X85390274Y-76105703D01*
X85365452Y-76127602D01*
X85289711Y-76178210D01*
X85289707Y-76178213D01*
X85178213Y-76289707D01*
X85178210Y-76289711D01*
X85090609Y-76420814D01*
X85090602Y-76420827D01*
X85030264Y-76566498D01*
X85030261Y-76566508D01*
X84999361Y-76721850D01*
X84966976Y-76783761D01*
X84965425Y-76785339D01*
X67587584Y-94163181D01*
X67526261Y-94196666D01*
X67499903Y-94199500D01*
X34619500Y-94199500D01*
X34552461Y-94179815D01*
X34506706Y-94127011D01*
X34495500Y-94075500D01*
X34495500Y-93878711D01*
X34483422Y-93786972D01*
X34463838Y-93638211D01*
X34401054Y-93403900D01*
X34308224Y-93179788D01*
X34186936Y-92969711D01*
X34039265Y-92777262D01*
X34039260Y-92777256D01*
X33867743Y-92605739D01*
X33867736Y-92605733D01*
X33675293Y-92458067D01*
X33675292Y-92458066D01*
X33675289Y-92458064D01*
X33465212Y-92336776D01*
X33465205Y-92336773D01*
X33241104Y-92243947D01*
X33006785Y-92181161D01*
X32766289Y-92149500D01*
X32766288Y-92149500D01*
X32523712Y-92149500D01*
X32523711Y-92149500D01*
X32283214Y-92181161D01*
X32048895Y-92243947D01*
X31824794Y-92336773D01*
X31824785Y-92336777D01*
X31614706Y-92458067D01*
X31422263Y-92605733D01*
X31422256Y-92605739D01*
X31250739Y-92777256D01*
X31250733Y-92777263D01*
X31103067Y-92969706D01*
X30981777Y-93179785D01*
X30981773Y-93179794D01*
X30888947Y-93403895D01*
X30826161Y-93638214D01*
X30794499Y-93878717D01*
X30794234Y-93882763D01*
X30792402Y-93882642D01*
X30774815Y-93942539D01*
X30722011Y-93988294D01*
X30670500Y-93999500D01*
X26374499Y-93999500D01*
X26307460Y-93979815D01*
X26261705Y-93927011D01*
X26250499Y-93875500D01*
X26250499Y-92202129D01*
X26250498Y-92202123D01*
X26250497Y-92202116D01*
X26244091Y-92142517D01*
X26237622Y-92125174D01*
X26193797Y-92007671D01*
X26193793Y-92007664D01*
X26107547Y-91892455D01*
X26107544Y-91892452D01*
X25992335Y-91806206D01*
X25992328Y-91806202D01*
X25857482Y-91755908D01*
X25857483Y-91755908D01*
X25797883Y-91749501D01*
X25797881Y-91749500D01*
X25797873Y-91749500D01*
X25797864Y-91749500D01*
X22202129Y-91749500D01*
X22202123Y-91749501D01*
X22142516Y-91755908D01*
X22007671Y-91806202D01*
X22007664Y-91806206D01*
X21892455Y-91892452D01*
X21892452Y-91892455D01*
X21806206Y-92007664D01*
X21806202Y-92007671D01*
X21755908Y-92142517D01*
X21751754Y-92181161D01*
X21749501Y-92202123D01*
X21749500Y-92202135D01*
X15500500Y-92202135D01*
X15500500Y-20002706D01*
X15500618Y-19997297D01*
X15508008Y-19828031D01*
X15517386Y-19613226D01*
X15518326Y-19602495D01*
X15568152Y-19224025D01*
X15570025Y-19213405D01*
X15652649Y-18840709D01*
X15655440Y-18830295D01*
X15770230Y-18466227D01*
X15773917Y-18456095D01*
X15920003Y-18103412D01*
X15924561Y-18093638D01*
X16100822Y-17755045D01*
X16106217Y-17745700D01*
X16311325Y-17423744D01*
X16317515Y-17414905D01*
X16549896Y-17112060D01*
X16556834Y-17103791D01*
X16814726Y-16822352D01*
X16822352Y-16814726D01*
X17103791Y-16556834D01*
X17112060Y-16549896D01*
X17414905Y-16317515D01*
X17423744Y-16311325D01*
X17745700Y-16106217D01*
X17755045Y-16100822D01*
X18093638Y-15924561D01*
X18103412Y-15920003D01*
X18456095Y-15773917D01*
X18466227Y-15770230D01*
X18830295Y-15655440D01*
X18840709Y-15652649D01*
X19213405Y-15570025D01*
X19224025Y-15568152D01*
X19602495Y-15518326D01*
X19613247Y-15517386D01*
X19619929Y-15517094D01*
X19620601Y-15517065D01*
X19688434Y-15533811D01*
X19736444Y-15584573D01*
X19750000Y-15640947D01*
X19750000Y-16394797D01*
X19730315Y-16461836D01*
X19677511Y-16507591D01*
X19638154Y-16518200D01*
X19485750Y-16533210D01*
X19148427Y-16600308D01*
X18819293Y-16700150D01*
X18501535Y-16831770D01*
X18501530Y-16831772D01*
X18198224Y-16993893D01*
X18198206Y-16993904D01*
X17912248Y-17184975D01*
X17912234Y-17184985D01*
X17646367Y-17403176D01*
X17403176Y-17646367D01*
X17184985Y-17912234D01*
X17184975Y-17912248D01*
X16993904Y-18198206D01*
X16993893Y-18198224D01*
X16831772Y-18501530D01*
X16831770Y-18501535D01*
X16700150Y-18819293D01*
X16600308Y-19148427D01*
X16533210Y-19485750D01*
X16515296Y-19667645D01*
X16499500Y-19828031D01*
X16499500Y-19859852D01*
X16499500Y-20171969D01*
X16509751Y-20276054D01*
X16533210Y-20514249D01*
X16600308Y-20851572D01*
X16693140Y-21157598D01*
X16700150Y-21180705D01*
X16809667Y-21445104D01*
X16831770Y-21498464D01*
X16831772Y-21498469D01*
X16993893Y-21801775D01*
X16993904Y-21801793D01*
X17184975Y-22087751D01*
X17184985Y-22087765D01*
X17403176Y-22353632D01*
X17646367Y-22596823D01*
X17646372Y-22596827D01*
X17646373Y-22596828D01*
X17912240Y-22815019D01*
X18198213Y-23006100D01*
X18198222Y-23006105D01*
X18198224Y-23006106D01*
X18501530Y-23168227D01*
X18501532Y-23168227D01*
X18501538Y-23168231D01*
X18819295Y-23299850D01*
X19148422Y-23399690D01*
X19485750Y-23466789D01*
X19638154Y-23481798D01*
X19702940Y-23507958D01*
X19743300Y-23564992D01*
X19750000Y-23605201D01*
X19750000Y-36670000D01*
X53714302Y-36670000D01*
X53729393Y-36674431D01*
X53745115Y-36673889D01*
X53762233Y-36684074D01*
X53781341Y-36689685D01*
X53791640Y-36701570D01*
X53805160Y-36709615D01*
X53814054Y-36727438D01*
X53827096Y-36742489D01*
X53829334Y-36758056D01*
X53836359Y-36772133D01*
X53834205Y-36791934D01*
X53837040Y-36811647D01*
X53830407Y-36826858D01*
X53828805Y-36841593D01*
X53814961Y-36862283D01*
X53810758Y-36871924D01*
X53806628Y-36877035D01*
X53718480Y-36965184D01*
X53680907Y-37030263D01*
X53639423Y-37102115D01*
X53598499Y-37254843D01*
X53598499Y-37254845D01*
X53598499Y-37422946D01*
X53598500Y-37422959D01*
X53598500Y-37691950D01*
X53578815Y-37758989D01*
X53526011Y-37804744D01*
X53474500Y-37815950D01*
X33570219Y-37815950D01*
X33570203Y-37815949D01*
X33562607Y-37815949D01*
X33404493Y-37815949D01*
X33297137Y-37844715D01*
X33251760Y-37856874D01*
X33251759Y-37856875D01*
X33214799Y-37878215D01*
X33214798Y-37878216D01*
X33114837Y-37935927D01*
X33114832Y-37935931D01*
X32175339Y-38875425D01*
X32114016Y-38908910D01*
X32111850Y-38909361D01*
X31956508Y-38940261D01*
X31956498Y-38940264D01*
X31810827Y-39000602D01*
X31810814Y-39000609D01*
X31679711Y-39088210D01*
X31679707Y-39088213D01*
X31568213Y-39199707D01*
X31568210Y-39199711D01*
X31480609Y-39330814D01*
X31480602Y-39330827D01*
X31420264Y-39476498D01*
X31420261Y-39476510D01*
X31389500Y-39631153D01*
X31389500Y-39788846D01*
X31420261Y-39943489D01*
X31420264Y-39943501D01*
X31480602Y-40089172D01*
X31480609Y-40089185D01*
X31540855Y-40179349D01*
X31561733Y-40246027D01*
X31543248Y-40313407D01*
X31525434Y-40335921D01*
X31228188Y-40633168D01*
X31116383Y-40744972D01*
X31116377Y-40744980D01*
X31072522Y-40820941D01*
X31072522Y-40820942D01*
X31037325Y-40881905D01*
X30996401Y-41034633D01*
X30996401Y-41034635D01*
X30996401Y-41202736D01*
X30996402Y-41202749D01*
X30996402Y-43103001D01*
X30976717Y-43170040D01*
X30960083Y-43190682D01*
X27887584Y-46263181D01*
X27826261Y-46296666D01*
X27799903Y-46299500D01*
X22879766Y-46299500D01*
X22812727Y-46279815D01*
X22810875Y-46278602D01*
X22679185Y-46190609D01*
X22679172Y-46190602D01*
X22533501Y-46130264D01*
X22533491Y-46130261D01*
X22378151Y-46099362D01*
X22316241Y-46066977D01*
X22314662Y-46065426D01*
X21442150Y-45192914D01*
X21411171Y-45141230D01*
X21409736Y-45136500D01*
X21349397Y-44990827D01*
X21349390Y-44990814D01*
X21261789Y-44859711D01*
X21261786Y-44859707D01*
X21150292Y-44748213D01*
X21150288Y-44748210D01*
X21019185Y-44660609D01*
X21019172Y-44660602D01*
X20873501Y-44600264D01*
X20873489Y-44600261D01*
X20718845Y-44569500D01*
X20718842Y-44569500D01*
X20561158Y-44569500D01*
X20561155Y-44569500D01*
X20406510Y-44600261D01*
X20406498Y-44600264D01*
X20260827Y-44660602D01*
X20260814Y-44660609D01*
X20129711Y-44748210D01*
X20129707Y-44748213D01*
X20018213Y-44859707D01*
X20018210Y-44859711D01*
X19930609Y-44990814D01*
X19930602Y-44990827D01*
X19870264Y-45136498D01*
X19870261Y-45136510D01*
X19839500Y-45291153D01*
X19839500Y-45448846D01*
X19870261Y-45603489D01*
X19870264Y-45603501D01*
X19930602Y-45749172D01*
X19930609Y-45749185D01*
X20018210Y-45880288D01*
X20018213Y-45880292D01*
X20129707Y-45991786D01*
X20129711Y-45991789D01*
X20260814Y-46079390D01*
X20260827Y-46079397D01*
X20383633Y-46130264D01*
X20406503Y-46139737D01*
X20559137Y-46170098D01*
X20561153Y-46170499D01*
X20561156Y-46170500D01*
X20669902Y-46170500D01*
X20736941Y-46190185D01*
X20757583Y-46206819D01*
X21465425Y-46914660D01*
X21498910Y-46975983D01*
X21499361Y-46978149D01*
X21530261Y-47133491D01*
X21530264Y-47133501D01*
X21590602Y-47279172D01*
X21590609Y-47279185D01*
X21678210Y-47410288D01*
X21678213Y-47410292D01*
X21789707Y-47521786D01*
X21789711Y-47521789D01*
X21920814Y-47609390D01*
X21920827Y-47609397D01*
X21995732Y-47640423D01*
X22066503Y-47669737D01*
X22221153Y-47700499D01*
X22221156Y-47700500D01*
X22221158Y-47700500D01*
X22378844Y-47700500D01*
X22378845Y-47700499D01*
X22533497Y-47669737D01*
X22679179Y-47609394D01*
X22679185Y-47609390D01*
X22810875Y-47521398D01*
X22877553Y-47500520D01*
X22879766Y-47500500D01*
X28013331Y-47500500D01*
X28013347Y-47500501D01*
X28020943Y-47500501D01*
X28179054Y-47500501D01*
X28179057Y-47500501D01*
X28331785Y-47459577D01*
X28397235Y-47421789D01*
X28468716Y-47380520D01*
X28580520Y-47268716D01*
X28580520Y-47268714D01*
X28590724Y-47258511D01*
X28590727Y-47258506D01*
X31384723Y-44464511D01*
X31446044Y-44431028D01*
X31515736Y-44436012D01*
X31571669Y-44477884D01*
X31596086Y-44543348D01*
X31596402Y-44552194D01*
X31596402Y-45487756D01*
X31576717Y-45554795D01*
X31523913Y-45600550D01*
X31454755Y-45610494D01*
X31449083Y-45609523D01*
X31448843Y-45609500D01*
X31448842Y-45609500D01*
X31291158Y-45609500D01*
X31291155Y-45609500D01*
X31136510Y-45640261D01*
X31136498Y-45640264D01*
X30990827Y-45700602D01*
X30990814Y-45700609D01*
X30859711Y-45788210D01*
X30859707Y-45788213D01*
X30748213Y-45899707D01*
X30748210Y-45899711D01*
X30660609Y-46030814D01*
X30660602Y-46030827D01*
X30600264Y-46176498D01*
X30600261Y-46176508D01*
X30568627Y-46335540D01*
X30536242Y-46397451D01*
X30534691Y-46399029D01*
X28229286Y-48704435D01*
X28117481Y-48816239D01*
X28117475Y-48816247D01*
X28072168Y-48894723D01*
X28072168Y-48894724D01*
X28038423Y-48953172D01*
X27997499Y-49105900D01*
X27997499Y-49105902D01*
X27997499Y-49274003D01*
X27997500Y-49274016D01*
X27997500Y-54053139D01*
X27997499Y-54053143D01*
X27997499Y-54211257D01*
X27998254Y-54214076D01*
X27998303Y-54224946D01*
X27990699Y-54251276D01*
X27986477Y-54278351D01*
X27981146Y-54284356D01*
X27978918Y-54292073D01*
X27958284Y-54310113D01*
X27940096Y-54330606D01*
X27932280Y-54332850D01*
X27926319Y-54338063D01*
X27901106Y-54341802D01*
X27874304Y-54349500D01*
X26379766Y-54349500D01*
X26312727Y-54329815D01*
X26310875Y-54328602D01*
X26179185Y-54240609D01*
X26179172Y-54240602D01*
X26033501Y-54180264D01*
X26033491Y-54180261D01*
X25900308Y-54153769D01*
X25872177Y-54139054D01*
X25843297Y-54125865D01*
X25841440Y-54122975D01*
X25838397Y-54121384D01*
X25822684Y-54093791D01*
X25805523Y-54067087D01*
X25804862Y-54062493D01*
X25803823Y-54060668D01*
X25800500Y-54032152D01*
X25800500Y-53925978D01*
X25809939Y-53878526D01*
X25834104Y-53820185D01*
X25862344Y-53752008D01*
X25869837Y-53714333D01*
X25902219Y-53652425D01*
X25944001Y-53623964D01*
X25979179Y-53609394D01*
X26110289Y-53521789D01*
X26221789Y-53410289D01*
X26309394Y-53279179D01*
X26369737Y-53133497D01*
X26400500Y-52978842D01*
X26400500Y-52821158D01*
X26400500Y-52821155D01*
X26400499Y-52821153D01*
X26390358Y-52770171D01*
X26369737Y-52666503D01*
X26362694Y-52649500D01*
X26309397Y-52520827D01*
X26309390Y-52520814D01*
X26221789Y-52389711D01*
X26219766Y-52387688D01*
X26219043Y-52386365D01*
X26217924Y-52385001D01*
X26218182Y-52384788D01*
X26186276Y-52326368D01*
X26191255Y-52256676D01*
X26219757Y-52212320D01*
X26321789Y-52110289D01*
X26409394Y-51979179D01*
X26469737Y-51833497D01*
X26500500Y-51678842D01*
X26500500Y-51521158D01*
X26500500Y-51521155D01*
X26500499Y-51521153D01*
X26469737Y-51366503D01*
X26455206Y-51331422D01*
X26409397Y-51220827D01*
X26409390Y-51220814D01*
X26321789Y-51089711D01*
X26321786Y-51089707D01*
X26219760Y-50987681D01*
X26186275Y-50926358D01*
X26191259Y-50856666D01*
X26219760Y-50812319D01*
X26321786Y-50710292D01*
X26321789Y-50710289D01*
X26409394Y-50579179D01*
X26469737Y-50433497D01*
X26500500Y-50278842D01*
X26500500Y-50121158D01*
X26500500Y-50121155D01*
X26500499Y-50121153D01*
X26498159Y-50109390D01*
X26469737Y-49966503D01*
X26434961Y-49882546D01*
X26409397Y-49820827D01*
X26409390Y-49820814D01*
X26321789Y-49689711D01*
X26321786Y-49689707D01*
X26205982Y-49573903D01*
X26207296Y-49572588D01*
X26172850Y-49522025D01*
X26170977Y-49452180D01*
X26207161Y-49392410D01*
X26221949Y-49380815D01*
X26310289Y-49321789D01*
X26421789Y-49210289D01*
X26509394Y-49079179D01*
X26569737Y-48933497D01*
X26600500Y-48778842D01*
X26600500Y-48621158D01*
X26600500Y-48621155D01*
X26600499Y-48621153D01*
X26591661Y-48576722D01*
X26569737Y-48466503D01*
X26558675Y-48439797D01*
X26509397Y-48320827D01*
X26509390Y-48320814D01*
X26421789Y-48189711D01*
X26421786Y-48189707D01*
X26310292Y-48078213D01*
X26310288Y-48078210D01*
X26179185Y-47990609D01*
X26179172Y-47990602D01*
X26033501Y-47930264D01*
X26033489Y-47930261D01*
X25878845Y-47899500D01*
X25878842Y-47899500D01*
X25721158Y-47899500D01*
X25721155Y-47899500D01*
X25566510Y-47930261D01*
X25566498Y-47930264D01*
X25420827Y-47990602D01*
X25420814Y-47990609D01*
X25289711Y-48078210D01*
X25289707Y-48078213D01*
X25183425Y-48184496D01*
X25178458Y-48189197D01*
X25168876Y-48197775D01*
X25131284Y-48219480D01*
X25019480Y-48331284D01*
X25019478Y-48331286D01*
X25017064Y-48333699D01*
X25017045Y-48333717D01*
X24987582Y-48363181D01*
X24926259Y-48396666D01*
X24899901Y-48399500D01*
X22198397Y-48399500D01*
X22131358Y-48379815D01*
X22101288Y-48350279D01*
X22100422Y-48350990D01*
X22096555Y-48346278D01*
X21953718Y-48203441D01*
X21785762Y-48091217D01*
X21785752Y-48091212D01*
X21599127Y-48013909D01*
X21599119Y-48013907D01*
X21401007Y-47974500D01*
X21401003Y-47974500D01*
X21198997Y-47974500D01*
X21198992Y-47974500D01*
X21000880Y-48013907D01*
X21000868Y-48013910D01*
X20920198Y-48047325D01*
X20850729Y-48054794D01*
X20805342Y-48035036D01*
X20805114Y-48035454D01*
X20800447Y-48032905D01*
X20798432Y-48032028D01*
X20797331Y-48031204D01*
X20797330Y-48031203D01*
X20797328Y-48031202D01*
X20662482Y-47980908D01*
X20662483Y-47980908D01*
X20602883Y-47974501D01*
X20602881Y-47974500D01*
X20602873Y-47974500D01*
X20602864Y-47974500D01*
X19457129Y-47974500D01*
X19457123Y-47974501D01*
X19397516Y-47980908D01*
X19262671Y-48031202D01*
X19262664Y-48031206D01*
X19147455Y-48117452D01*
X19147452Y-48117455D01*
X19061206Y-48232664D01*
X19061202Y-48232671D01*
X19010908Y-48367517D01*
X19004501Y-48427116D01*
X19004500Y-48427135D01*
X19004500Y-49572870D01*
X19004501Y-49572876D01*
X19010908Y-49632483D01*
X19061202Y-49767328D01*
X19061203Y-49767330D01*
X19061204Y-49767331D01*
X19062377Y-49768898D01*
X19063062Y-49770733D01*
X19065454Y-49775114D01*
X19064824Y-49775457D01*
X19086796Y-49834361D01*
X19077674Y-49890662D01*
X19044389Y-49971021D01*
X19044387Y-49971025D01*
X19005000Y-50169041D01*
X19005000Y-50370958D01*
X19044387Y-50568974D01*
X19044390Y-50568983D01*
X19121654Y-50755516D01*
X19175504Y-50836110D01*
X19196381Y-50902788D01*
X19177896Y-50970168D01*
X19175504Y-50973890D01*
X19121654Y-51054483D01*
X19044390Y-51241016D01*
X19044387Y-51241025D01*
X19005000Y-51439041D01*
X19005000Y-51640958D01*
X19044387Y-51838974D01*
X19044390Y-51838983D01*
X19121652Y-52025513D01*
X19121659Y-52025526D01*
X19175203Y-52105659D01*
X19196081Y-52172336D01*
X19177597Y-52239716D01*
X19175204Y-52243439D01*
X19121214Y-52324243D01*
X19043909Y-52510872D01*
X19043907Y-52510880D01*
X19004500Y-52708992D01*
X19004500Y-52911007D01*
X19043907Y-53109119D01*
X19043909Y-53109127D01*
X19121212Y-53295754D01*
X19175204Y-53376558D01*
X19196081Y-53443235D01*
X19177596Y-53510615D01*
X19175204Y-53514337D01*
X19121655Y-53594479D01*
X19121654Y-53594481D01*
X19044390Y-53781016D01*
X19044387Y-53781025D01*
X19005000Y-53979041D01*
X19005000Y-54180958D01*
X19044387Y-54378974D01*
X19044390Y-54378983D01*
X19121652Y-54565513D01*
X19149402Y-54607043D01*
X19655000Y-54101445D01*
X19655000Y-54129370D01*
X19680556Y-54224745D01*
X19729925Y-54310255D01*
X19799745Y-54380075D01*
X19885255Y-54429444D01*
X19980630Y-54455000D01*
X20008552Y-54455000D01*
X19502954Y-54960596D01*
X19502955Y-54960597D01*
X19544475Y-54988341D01*
X19544484Y-54988346D01*
X19731016Y-55065609D01*
X19731025Y-55065612D01*
X19929041Y-55104999D01*
X19929045Y-55105000D01*
X20130955Y-55105000D01*
X20130958Y-55104999D01*
X20328974Y-55065612D01*
X20328983Y-55065609D01*
X20515515Y-54988346D01*
X20515518Y-54988344D01*
X20595658Y-54934796D01*
X20662335Y-54913917D01*
X20729716Y-54932401D01*
X20733422Y-54934783D01*
X20814244Y-54988786D01*
X21000873Y-55066091D01*
X21137447Y-55093257D01*
X21198992Y-55105499D01*
X21198996Y-55105500D01*
X21401500Y-55105500D01*
X21468539Y-55125185D01*
X21514294Y-55177989D01*
X21525500Y-55229500D01*
X21525500Y-58964392D01*
X21505815Y-59031431D01*
X21453011Y-59077186D01*
X21448953Y-59078953D01*
X21420824Y-59090604D01*
X21420814Y-59090609D01*
X21289711Y-59178210D01*
X21289707Y-59178213D01*
X21178213Y-59289707D01*
X21178210Y-59289711D01*
X21090609Y-59420814D01*
X21090602Y-59420827D01*
X21030264Y-59566498D01*
X21030261Y-59566510D01*
X20999500Y-59721153D01*
X20999500Y-59878846D01*
X21030261Y-60033489D01*
X21030264Y-60033501D01*
X21090602Y-60179172D01*
X21090609Y-60179185D01*
X21178210Y-60310288D01*
X21178213Y-60310292D01*
X21289707Y-60421786D01*
X21289711Y-60421789D01*
X21420814Y-60509390D01*
X21420827Y-60509397D01*
X21566498Y-60569735D01*
X21566503Y-60569737D01*
X21650188Y-60586383D01*
X21721153Y-60600499D01*
X21721156Y-60600500D01*
X21721158Y-60600500D01*
X21878844Y-60600500D01*
X21878845Y-60600499D01*
X22033497Y-60569737D01*
X22179179Y-60509394D01*
X22281111Y-60441284D01*
X22347786Y-60420408D01*
X22415166Y-60438892D01*
X22418847Y-60441257D01*
X22520821Y-60509394D01*
X22520823Y-60509395D01*
X22520827Y-60509397D01*
X22666498Y-60569735D01*
X22666503Y-60569737D01*
X22750188Y-60586383D01*
X22821153Y-60600499D01*
X22821156Y-60600500D01*
X22821158Y-60600500D01*
X22978844Y-60600500D01*
X22978845Y-60600499D01*
X23133497Y-60569737D01*
X23279179Y-60509394D01*
X23410289Y-60421789D01*
X23412312Y-60419766D01*
X23413634Y-60419043D01*
X23414999Y-60417924D01*
X23415211Y-60418182D01*
X23473632Y-60386276D01*
X23543324Y-60391255D01*
X23584939Y-60417999D01*
X23585001Y-60417924D01*
X23585648Y-60418454D01*
X23587688Y-60419766D01*
X23589711Y-60421789D01*
X23720814Y-60509390D01*
X23720827Y-60509397D01*
X23866498Y-60569735D01*
X23866503Y-60569737D01*
X23950188Y-60586383D01*
X24021153Y-60600499D01*
X24021156Y-60600500D01*
X24021158Y-60600500D01*
X24178844Y-60600500D01*
X24178845Y-60600499D01*
X24333497Y-60569737D01*
X24479179Y-60509394D01*
X24581111Y-60441284D01*
X24647786Y-60420408D01*
X24715166Y-60438892D01*
X24718847Y-60441257D01*
X24820821Y-60509394D01*
X24820823Y-60509395D01*
X24820827Y-60509397D01*
X24966498Y-60569735D01*
X24966503Y-60569737D01*
X25050188Y-60586383D01*
X25121153Y-60600499D01*
X25121156Y-60600500D01*
X25121158Y-60600500D01*
X25278844Y-60600500D01*
X25278845Y-60600499D01*
X25433497Y-60569737D01*
X25579179Y-60509394D01*
X25710289Y-60421789D01*
X25821789Y-60310289D01*
X25909394Y-60179179D01*
X25916200Y-60162749D01*
X25931689Y-60125354D01*
X25969737Y-60033497D01*
X26000500Y-59878842D01*
X26000500Y-59721158D01*
X26000500Y-59721155D01*
X26000499Y-59721153D01*
X25992084Y-59678847D01*
X25969737Y-59566503D01*
X25955097Y-59531158D01*
X25909397Y-59420827D01*
X25909390Y-59420814D01*
X25821398Y-59289125D01*
X25800520Y-59222447D01*
X25800500Y-59220234D01*
X25800500Y-55867847D01*
X25820185Y-55800808D01*
X25872989Y-55755053D01*
X25900309Y-55746230D01*
X25916291Y-55743050D01*
X26033497Y-55719737D01*
X26179179Y-55659394D01*
X26179185Y-55659390D01*
X26310875Y-55571398D01*
X26377553Y-55550520D01*
X26379766Y-55550500D01*
X27825437Y-55550500D01*
X27892476Y-55570185D01*
X27913118Y-55586819D01*
X28543192Y-56216893D01*
X28576677Y-56278216D01*
X28577128Y-56280382D01*
X28608028Y-56435724D01*
X28608031Y-56435734D01*
X28668369Y-56581405D01*
X28668376Y-56581418D01*
X28755977Y-56712521D01*
X28755980Y-56712525D01*
X28867474Y-56824019D01*
X28867478Y-56824022D01*
X28998581Y-56911623D01*
X28998594Y-56911630D01*
X29128645Y-56965498D01*
X29144270Y-56971970D01*
X29298920Y-57002732D01*
X29298923Y-57002733D01*
X29298925Y-57002733D01*
X29456611Y-57002733D01*
X29456612Y-57002732D01*
X29611264Y-56971970D01*
X29756946Y-56911627D01*
X29888056Y-56824022D01*
X29999556Y-56712522D01*
X30047605Y-56640610D01*
X30101215Y-56595808D01*
X30170540Y-56587099D01*
X30233568Y-56617254D01*
X30238387Y-56621822D01*
X34377190Y-60760625D01*
X34377200Y-60760636D01*
X34381530Y-60764966D01*
X34381531Y-60764967D01*
X34493335Y-60876771D01*
X34556947Y-60913497D01*
X34630266Y-60955828D01*
X34782994Y-60996752D01*
X34782997Y-60996752D01*
X34948704Y-60996752D01*
X34948720Y-60996751D01*
X39177647Y-60996751D01*
X39244686Y-61016436D01*
X39246538Y-61017649D01*
X39378227Y-61105641D01*
X39378240Y-61105648D01*
X39523346Y-61165752D01*
X39523916Y-61165988D01*
X39678566Y-61196750D01*
X39678569Y-61196751D01*
X39678571Y-61196751D01*
X39836257Y-61196751D01*
X39836258Y-61196750D01*
X39990910Y-61165988D01*
X40136592Y-61105645D01*
X40267702Y-61018040D01*
X40379202Y-60906540D01*
X40466807Y-60775430D01*
X40527150Y-60629748D01*
X40557913Y-60475093D01*
X40557913Y-60317409D01*
X40557913Y-60317406D01*
X40557912Y-60317404D01*
X40549673Y-60275983D01*
X40527150Y-60162754D01*
X40509919Y-60121155D01*
X40466810Y-60017079D01*
X40466809Y-60017078D01*
X40466807Y-60017072D01*
X40446151Y-59986159D01*
X40425274Y-59919486D01*
X40434693Y-59869818D01*
X40449737Y-59833500D01*
X40480500Y-59678845D01*
X40480500Y-59521161D01*
X40480500Y-59521158D01*
X40480499Y-59521156D01*
X40474421Y-59490602D01*
X40449737Y-59366506D01*
X40449290Y-59365426D01*
X40389397Y-59220830D01*
X40389390Y-59220817D01*
X40301789Y-59089714D01*
X40301786Y-59089710D01*
X40190292Y-58978216D01*
X40190288Y-58978213D01*
X40059185Y-58890612D01*
X40059172Y-58890605D01*
X39913501Y-58830267D01*
X39913489Y-58830264D01*
X39758845Y-58799503D01*
X39758842Y-58799503D01*
X39601158Y-58799503D01*
X39601153Y-58799503D01*
X39532124Y-58813234D01*
X39500498Y-58810404D01*
X39468774Y-58809271D01*
X39465954Y-58807313D01*
X39462533Y-58807007D01*
X39437456Y-58787527D01*
X39411381Y-58769423D01*
X39409013Y-58765432D01*
X39407355Y-58764144D01*
X39393374Y-58739075D01*
X39355423Y-58647452D01*
X39347955Y-58577985D01*
X39355424Y-58552549D01*
X39356687Y-58549500D01*
X39404737Y-58433497D01*
X39435500Y-58278842D01*
X39435500Y-58121158D01*
X39435500Y-58121155D01*
X39435499Y-58121153D01*
X39433338Y-58110289D01*
X39404737Y-57966503D01*
X39393895Y-57940329D01*
X39392281Y-57925317D01*
X39385884Y-57911640D01*
X39388621Y-57891284D01*
X39386426Y-57870862D01*
X39393185Y-57857358D01*
X39395198Y-57842394D01*
X39408506Y-57826749D01*
X39417700Y-57808383D01*
X39431407Y-57799828D01*
X39440470Y-57789176D01*
X39463722Y-57779663D01*
X39472440Y-57774223D01*
X39478278Y-57772450D01*
X39554039Y-57757381D01*
X39625654Y-57727716D01*
X39631472Y-57725951D01*
X39660567Y-57725686D01*
X39689504Y-57722575D01*
X39697091Y-57725353D01*
X39701339Y-57725315D01*
X39707384Y-57729122D01*
X39729487Y-57737217D01*
X39768216Y-57759577D01*
X39920943Y-57800500D01*
X40079057Y-57800500D01*
X47521731Y-57800500D01*
X47588770Y-57820185D01*
X47590622Y-57821398D01*
X47720814Y-57908390D01*
X47720827Y-57908397D01*
X47861129Y-57966511D01*
X47866503Y-57968737D01*
X48021153Y-57999499D01*
X48021156Y-57999500D01*
X48021158Y-57999500D01*
X48178844Y-57999500D01*
X48178845Y-57999499D01*
X48333497Y-57968737D01*
X48446166Y-57922067D01*
X48479172Y-57908397D01*
X48479172Y-57908396D01*
X48479179Y-57908394D01*
X48610289Y-57820789D01*
X48721789Y-57709289D01*
X48809394Y-57578179D01*
X48869737Y-57432497D01*
X48900500Y-57277842D01*
X48900500Y-57120158D01*
X48900500Y-57120155D01*
X48900499Y-57120153D01*
X48884239Y-57038408D01*
X48869737Y-56965503D01*
X48869735Y-56965498D01*
X48809397Y-56819827D01*
X48809390Y-56819814D01*
X48721789Y-56688711D01*
X48721786Y-56688707D01*
X48610292Y-56577213D01*
X48610288Y-56577210D01*
X48479185Y-56489609D01*
X48479172Y-56489602D01*
X48333501Y-56429264D01*
X48333489Y-56429261D01*
X48178845Y-56398500D01*
X48178842Y-56398500D01*
X48021158Y-56398500D01*
X48021155Y-56398500D01*
X47866510Y-56429261D01*
X47866498Y-56429264D01*
X47720827Y-56489602D01*
X47720814Y-56489609D01*
X47587629Y-56578602D01*
X47520952Y-56599480D01*
X47518738Y-56599500D01*
X40639324Y-56599500D01*
X40627808Y-56596118D01*
X40615859Y-56597260D01*
X40594902Y-56586456D01*
X40572285Y-56579815D01*
X40562872Y-56569943D01*
X40553756Y-56565244D01*
X40531938Y-56537502D01*
X40525789Y-56526852D01*
X40525787Y-56526849D01*
X40480521Y-56448445D01*
X40480520Y-56448443D01*
X40368716Y-56336639D01*
X40368715Y-56336638D01*
X40364385Y-56332308D01*
X40364374Y-56332298D01*
X40057075Y-56024999D01*
X40057073Y-56024996D01*
X39938202Y-55906125D01*
X39938201Y-55906124D01*
X39822772Y-55839481D01*
X39822772Y-55839480D01*
X39822767Y-55839479D01*
X39815265Y-55835147D01*
X39801271Y-55827067D01*
X39763088Y-55816836D01*
X39648542Y-55786143D01*
X39490428Y-55786143D01*
X39482832Y-55786143D01*
X39482816Y-55786144D01*
X33526503Y-55786144D01*
X33459464Y-55766459D01*
X33413709Y-55713655D01*
X33402503Y-55662144D01*
X33402503Y-55180938D01*
X33422188Y-55113899D01*
X33438822Y-55093257D01*
X33521786Y-55010292D01*
X33521789Y-55010289D01*
X33609394Y-54879179D01*
X33669737Y-54733497D01*
X33700500Y-54578842D01*
X33700500Y-54421158D01*
X33700500Y-54421155D01*
X33700499Y-54421153D01*
X33682488Y-54330606D01*
X33669737Y-54266503D01*
X33618843Y-54143634D01*
X33611375Y-54074167D01*
X33642650Y-54011688D01*
X33702739Y-53976036D01*
X33709186Y-53974572D01*
X33733497Y-53969737D01*
X33879179Y-53909394D01*
X34010289Y-53821789D01*
X34121789Y-53710289D01*
X34209394Y-53579179D01*
X34269737Y-53433497D01*
X34278725Y-53388310D01*
X34296231Y-53300308D01*
X34328616Y-53238397D01*
X34389332Y-53203823D01*
X34417848Y-53200500D01*
X35713331Y-53200500D01*
X35713347Y-53200501D01*
X35720943Y-53200501D01*
X35879054Y-53200501D01*
X35879057Y-53200501D01*
X36031785Y-53159577D01*
X36098328Y-53121158D01*
X36119181Y-53109119D01*
X36168709Y-53080524D01*
X36168708Y-53080524D01*
X36168716Y-53080520D01*
X36280520Y-52968716D01*
X36280520Y-52968714D01*
X36290723Y-52958512D01*
X36290727Y-52958506D01*
X36338200Y-52911033D01*
X36399521Y-52877550D01*
X36469213Y-52882534D01*
X36525146Y-52924406D01*
X36540438Y-52951259D01*
X36551864Y-52978844D01*
X36552004Y-52979181D01*
X36552006Y-52979185D01*
X36639607Y-53110288D01*
X36639610Y-53110292D01*
X36751104Y-53221786D01*
X36751108Y-53221789D01*
X36882211Y-53309390D01*
X36882224Y-53309397D01*
X36938107Y-53332544D01*
X37027900Y-53369737D01*
X37045665Y-53373270D01*
X37107576Y-53405654D01*
X37136036Y-53447436D01*
X37190602Y-53579172D01*
X37190609Y-53579185D01*
X37278210Y-53710288D01*
X37278213Y-53710292D01*
X37389707Y-53821786D01*
X37389711Y-53821789D01*
X37520814Y-53909390D01*
X37520827Y-53909397D01*
X37648797Y-53962403D01*
X37666503Y-53969737D01*
X37821153Y-54000499D01*
X37821156Y-54000500D01*
X37821158Y-54000500D01*
X37978844Y-54000500D01*
X37978845Y-54000499D01*
X38133497Y-53969737D01*
X38279179Y-53909394D01*
X38333663Y-53872989D01*
X38410875Y-53821398D01*
X38477553Y-53800520D01*
X38479766Y-53800500D01*
X55850902Y-53800500D01*
X55917941Y-53820185D01*
X55963696Y-53872989D01*
X55973640Y-53942147D01*
X55944615Y-54005703D01*
X55938583Y-54012181D01*
X38578457Y-71372306D01*
X38517134Y-71405791D01*
X38447442Y-71400807D01*
X38443339Y-71399192D01*
X38373497Y-71370263D01*
X38373489Y-71370261D01*
X38218845Y-71339500D01*
X38218842Y-71339500D01*
X38061158Y-71339500D01*
X38061155Y-71339500D01*
X37906510Y-71370261D01*
X37906498Y-71370264D01*
X37760827Y-71430602D01*
X37760814Y-71430609D01*
X37629711Y-71518210D01*
X37629707Y-71518213D01*
X37518213Y-71629707D01*
X37518210Y-71629711D01*
X37430609Y-71760814D01*
X37430602Y-71760827D01*
X37370264Y-71906498D01*
X37370261Y-71906510D01*
X37339500Y-72061153D01*
X37339500Y-72218846D01*
X37370261Y-72373489D01*
X37370264Y-72373501D01*
X37430602Y-72519172D01*
X37430609Y-72519185D01*
X37518210Y-72650288D01*
X37518213Y-72650292D01*
X37629707Y-72761786D01*
X37629711Y-72761789D01*
X37760814Y-72849390D01*
X37760827Y-72849397D01*
X37901950Y-72907851D01*
X37906503Y-72909737D01*
X38061153Y-72940499D01*
X38061156Y-72940500D01*
X38061158Y-72940500D01*
X38218844Y-72940500D01*
X38218845Y-72940499D01*
X38373497Y-72909737D01*
X38518926Y-72849499D01*
X38519172Y-72849397D01*
X38519172Y-72849396D01*
X38519179Y-72849394D01*
X38555018Y-72825447D01*
X38650873Y-72761399D01*
X38668917Y-72755748D01*
X38684825Y-72745525D01*
X38715787Y-72741072D01*
X38717550Y-72740521D01*
X38719759Y-72740501D01*
X38739057Y-72740501D01*
X38739059Y-72740500D01*
X38746664Y-72740500D01*
X39529902Y-72740500D01*
X39596941Y-72760185D01*
X39617583Y-72776819D01*
X39621284Y-72780520D01*
X39691088Y-72820821D01*
X39758215Y-72859577D01*
X39900977Y-72897829D01*
X39956564Y-72929923D01*
X39982171Y-72955530D01*
X39982175Y-72955533D01*
X40113278Y-73043134D01*
X40113291Y-73043141D01*
X40249356Y-73099500D01*
X40258967Y-73103481D01*
X40399661Y-73131467D01*
X40413617Y-73134243D01*
X40413620Y-73134244D01*
X40413622Y-73134244D01*
X40571308Y-73134244D01*
X40571309Y-73134243D01*
X40725961Y-73103481D01*
X40871643Y-73043138D01*
X41002753Y-72955533D01*
X41114253Y-72844033D01*
X41201858Y-72712923D01*
X41262201Y-72567241D01*
X41292964Y-72412586D01*
X41292964Y-72254902D01*
X41292964Y-72254899D01*
X41292963Y-72254897D01*
X41274068Y-72159905D01*
X41262201Y-72100247D01*
X41207776Y-71968852D01*
X41201861Y-71954571D01*
X41201854Y-71954558D01*
X41114253Y-71823455D01*
X41114250Y-71823451D01*
X41002756Y-71711957D01*
X41002752Y-71711954D01*
X40871649Y-71624353D01*
X40871636Y-71624346D01*
X40725965Y-71564008D01*
X40725953Y-71564005D01*
X40571309Y-71533244D01*
X40571306Y-71533244D01*
X40415352Y-71533244D01*
X40348313Y-71513559D01*
X40302558Y-71460755D01*
X40292614Y-71391597D01*
X40321639Y-71328041D01*
X40327671Y-71321563D01*
X49239734Y-62409500D01*
X52118081Y-59531153D01*
X55539500Y-59531153D01*
X55539500Y-59688846D01*
X55570261Y-59843489D01*
X55570264Y-59843501D01*
X55630602Y-59989172D01*
X55630609Y-59989185D01*
X55718210Y-60120288D01*
X55718213Y-60120292D01*
X55730600Y-60132679D01*
X55764085Y-60194002D01*
X55759101Y-60263694D01*
X55741378Y-60294501D01*
X55741595Y-60294646D01*
X55739439Y-60297871D01*
X55738786Y-60299008D01*
X55738216Y-60299701D01*
X55650609Y-60430814D01*
X55650602Y-60430827D01*
X55590264Y-60576498D01*
X55590261Y-60576510D01*
X55559500Y-60731153D01*
X55559500Y-60888846D01*
X55590261Y-61043489D01*
X55590264Y-61043501D01*
X55650602Y-61189172D01*
X55650609Y-61189185D01*
X55738602Y-61320874D01*
X55759480Y-61387551D01*
X55759500Y-61389765D01*
X55759500Y-61753330D01*
X55759499Y-61753348D01*
X55759499Y-61919054D01*
X55759498Y-61919054D01*
X55800423Y-62071785D01*
X55821331Y-62107997D01*
X55821332Y-62108001D01*
X55879475Y-62208709D01*
X55879481Y-62208717D01*
X55998349Y-62327585D01*
X55998355Y-62327590D01*
X62167908Y-68497143D01*
X62201393Y-68558466D01*
X62201844Y-68560632D01*
X62230261Y-68703491D01*
X62230264Y-68703501D01*
X62290602Y-68849172D01*
X62290609Y-68849185D01*
X62378210Y-68980288D01*
X62378213Y-68980292D01*
X62489707Y-69091786D01*
X62489711Y-69091789D01*
X62620814Y-69179390D01*
X62620827Y-69179397D01*
X62766498Y-69239735D01*
X62766503Y-69239737D01*
X62921153Y-69270499D01*
X62921156Y-69270500D01*
X62921158Y-69270500D01*
X63078844Y-69270500D01*
X63078845Y-69270499D01*
X63233497Y-69239737D01*
X63379179Y-69179394D01*
X63510289Y-69091789D01*
X63621789Y-68980289D01*
X63709394Y-68849179D01*
X63769737Y-68703497D01*
X63800500Y-68548842D01*
X63800500Y-68391158D01*
X63800500Y-68391155D01*
X63800499Y-68391153D01*
X63779506Y-68285615D01*
X63769737Y-68236503D01*
X63727068Y-68133489D01*
X63709397Y-68090827D01*
X63709390Y-68090814D01*
X63621789Y-67959711D01*
X63621786Y-67959707D01*
X63510292Y-67848213D01*
X63510288Y-67848210D01*
X63379185Y-67760609D01*
X63379172Y-67760602D01*
X63233501Y-67700264D01*
X63233489Y-67700261D01*
X63078834Y-67669497D01*
X63078491Y-67669464D01*
X63078322Y-67669396D01*
X63072868Y-67668311D01*
X63073073Y-67667275D01*
X63013707Y-67643296D01*
X63002979Y-67633744D01*
X56996819Y-61627584D01*
X56982115Y-61600656D01*
X56965523Y-61574838D01*
X56964631Y-61568637D01*
X56963334Y-61566261D01*
X56960500Y-61539903D01*
X56960500Y-61389765D01*
X56980185Y-61322726D01*
X56981398Y-61320874D01*
X57047243Y-61222331D01*
X57069394Y-61189179D01*
X57073938Y-61178210D01*
X57103993Y-61105648D01*
X57129737Y-61043497D01*
X57160500Y-60888842D01*
X57160500Y-60731158D01*
X57160500Y-60731155D01*
X57160499Y-60731153D01*
X57140328Y-60629748D01*
X57129737Y-60576503D01*
X57126935Y-60569738D01*
X57069397Y-60430827D01*
X57069390Y-60430814D01*
X56981789Y-60299711D01*
X56981786Y-60299707D01*
X56969399Y-60287320D01*
X56935914Y-60225997D01*
X56940898Y-60156305D01*
X56958623Y-60125499D01*
X56958405Y-60125354D01*
X56960580Y-60122098D01*
X56961229Y-60120971D01*
X56961781Y-60120296D01*
X56961789Y-60120289D01*
X57049394Y-59989179D01*
X57109737Y-59843497D01*
X57140500Y-59688842D01*
X57140500Y-59531158D01*
X57140500Y-59531155D01*
X57140499Y-59531153D01*
X57120431Y-59430264D01*
X57109737Y-59376503D01*
X57080745Y-59306510D01*
X57049397Y-59230827D01*
X57049390Y-59230814D01*
X56981398Y-59129057D01*
X56960520Y-59062379D01*
X56960500Y-59060166D01*
X56960500Y-58689054D01*
X69509498Y-58689054D01*
X69550339Y-58841470D01*
X69550423Y-58841785D01*
X69552115Y-58844715D01*
X69552117Y-58844725D01*
X69552120Y-58844724D01*
X69629477Y-58978712D01*
X69629481Y-58978717D01*
X69748349Y-59097585D01*
X69748355Y-59097590D01*
X70865425Y-60214660D01*
X70898910Y-60275983D01*
X70899361Y-60278149D01*
X70930261Y-60433491D01*
X70930264Y-60433501D01*
X70990602Y-60579172D01*
X70990609Y-60579185D01*
X71078210Y-60710288D01*
X71078213Y-60710292D01*
X71189707Y-60821786D01*
X71189711Y-60821789D01*
X71320814Y-60909390D01*
X71320827Y-60909397D01*
X71436359Y-60957251D01*
X71466503Y-60969737D01*
X71602311Y-60996751D01*
X71621153Y-61000499D01*
X71621156Y-61000500D01*
X71621158Y-61000500D01*
X71778844Y-61000500D01*
X71778845Y-61000499D01*
X71933497Y-60969737D01*
X72046166Y-60923067D01*
X72079172Y-60909397D01*
X72079172Y-60909396D01*
X72079179Y-60909394D01*
X72210289Y-60821789D01*
X72321789Y-60710289D01*
X72409394Y-60579179D01*
X72409472Y-60578992D01*
X72452506Y-60475097D01*
X72469737Y-60433497D01*
X72500500Y-60278842D01*
X72500500Y-60121158D01*
X72500500Y-60121155D01*
X72500499Y-60121153D01*
X72488213Y-60059390D01*
X72469737Y-59966503D01*
X72459462Y-59941697D01*
X72409397Y-59820827D01*
X72409390Y-59820814D01*
X72321789Y-59689711D01*
X72321786Y-59689707D01*
X72210292Y-59578213D01*
X72210288Y-59578210D01*
X72180293Y-59558168D01*
X72079185Y-59490609D01*
X72079172Y-59490602D01*
X72008075Y-59461153D01*
X77329500Y-59461153D01*
X77329500Y-59618846D01*
X77360261Y-59773489D01*
X77360264Y-59773501D01*
X77420602Y-59919172D01*
X77420609Y-59919185D01*
X77508602Y-60050874D01*
X77529480Y-60117551D01*
X77529500Y-60119765D01*
X77529500Y-63630430D01*
X77529499Y-63630448D01*
X77529499Y-63796154D01*
X77529498Y-63796154D01*
X77551825Y-63879480D01*
X77570423Y-63948885D01*
X77587719Y-63978842D01*
X77649479Y-64085814D01*
X77649481Y-64085817D01*
X77768349Y-64204685D01*
X77768355Y-64204690D01*
X79408039Y-65844374D01*
X79408049Y-65844385D01*
X79412379Y-65848715D01*
X79412380Y-65848716D01*
X79524184Y-65960520D01*
X79610995Y-66010639D01*
X79610997Y-66010641D01*
X79646525Y-66031153D01*
X79661115Y-66039577D01*
X79813843Y-66080500D01*
X85299903Y-66080500D01*
X85366942Y-66100185D01*
X85387584Y-66116819D01*
X85955139Y-66684374D01*
X85955149Y-66684385D01*
X85959479Y-66688715D01*
X85959480Y-66688716D01*
X86071284Y-66800520D01*
X86071286Y-66800521D01*
X86071290Y-66800524D01*
X86174806Y-66860288D01*
X86208216Y-66879577D01*
X86320019Y-66909534D01*
X86360942Y-66920500D01*
X86360943Y-66920500D01*
X86710234Y-66920500D01*
X86777273Y-66940185D01*
X86779125Y-66941398D01*
X86910814Y-67029390D01*
X86910827Y-67029397D01*
X87056498Y-67089735D01*
X87056503Y-67089737D01*
X87207312Y-67119735D01*
X87211153Y-67120499D01*
X87211156Y-67120500D01*
X87211158Y-67120500D01*
X87368844Y-67120500D01*
X87368845Y-67120499D01*
X87523497Y-67089737D01*
X87669179Y-67029394D01*
X87800289Y-66941789D01*
X87911789Y-66830289D01*
X87999394Y-66699179D01*
X88059737Y-66553497D01*
X88090500Y-66398842D01*
X88090500Y-66241158D01*
X88090500Y-66241155D01*
X88090499Y-66241153D01*
X88080094Y-66188844D01*
X88059737Y-66086503D01*
X88059735Y-66086498D01*
X88053944Y-66072516D01*
X88036811Y-66031153D01*
X89959500Y-66031153D01*
X89959500Y-66188846D01*
X89990261Y-66343489D01*
X89990264Y-66343501D01*
X90050602Y-66489172D01*
X90050609Y-66489185D01*
X90138210Y-66620288D01*
X90138213Y-66620292D01*
X90249707Y-66731786D01*
X90249711Y-66731789D01*
X90380814Y-66819390D01*
X90380827Y-66819397D01*
X90479558Y-66860292D01*
X90526503Y-66879737D01*
X90676302Y-66909534D01*
X90681153Y-66910499D01*
X90681156Y-66910500D01*
X90681158Y-66910500D01*
X90838844Y-66910500D01*
X90838845Y-66910499D01*
X90993497Y-66879737D01*
X91139179Y-66819394D01*
X91270289Y-66731789D01*
X91381789Y-66620289D01*
X91469394Y-66489179D01*
X91473938Y-66478210D01*
X91483067Y-66456166D01*
X91529737Y-66343497D01*
X91560500Y-66188842D01*
X91560500Y-66031158D01*
X91560500Y-66031155D01*
X91560499Y-66031153D01*
X91551020Y-65983501D01*
X91529737Y-65876503D01*
X91529735Y-65876498D01*
X91469397Y-65730827D01*
X91469390Y-65730814D01*
X91401398Y-65629057D01*
X91380520Y-65562379D01*
X91380500Y-65560166D01*
X91380500Y-63821153D01*
X94939500Y-63821153D01*
X94939500Y-63978843D01*
X94970261Y-64133489D01*
X94970264Y-64133501D01*
X95030602Y-64279172D01*
X95030609Y-64279185D01*
X95118602Y-64410874D01*
X95139480Y-64477551D01*
X95139500Y-64479765D01*
X95139500Y-65245064D01*
X95119815Y-65312103D01*
X95118603Y-65313954D01*
X95080608Y-65370817D01*
X95080602Y-65370828D01*
X95020264Y-65516498D01*
X95020261Y-65516510D01*
X94989500Y-65671153D01*
X94989500Y-65828846D01*
X95020261Y-65983489D01*
X95020264Y-65983501D01*
X95080602Y-66129172D01*
X95080609Y-66129185D01*
X95168210Y-66260288D01*
X95168213Y-66260292D01*
X95279707Y-66371786D01*
X95279711Y-66371789D01*
X95410814Y-66459390D01*
X95410821Y-66459394D01*
X95542065Y-66513756D01*
X95596466Y-66557595D01*
X95609172Y-66580864D01*
X95670602Y-66729172D01*
X95670609Y-66729185D01*
X95758210Y-66860288D01*
X95758213Y-66860292D01*
X95869707Y-66971786D01*
X95869711Y-66971789D01*
X96000814Y-67059390D01*
X96000827Y-67059397D01*
X96074078Y-67089738D01*
X96146503Y-67119737D01*
X96301153Y-67150499D01*
X96301156Y-67150500D01*
X96301158Y-67150500D01*
X96458844Y-67150500D01*
X96458845Y-67150499D01*
X96613497Y-67119737D01*
X96759179Y-67059394D01*
X96890289Y-66971789D01*
X97001789Y-66860289D01*
X97089394Y-66729179D01*
X97092854Y-66720827D01*
X97147163Y-66589711D01*
X97149737Y-66583497D01*
X97180500Y-66428842D01*
X97180500Y-66271158D01*
X97180500Y-66271155D01*
X97180499Y-66271153D01*
X97164127Y-66188846D01*
X97149737Y-66116503D01*
X97131517Y-66072516D01*
X97089397Y-65970827D01*
X97089390Y-65970814D01*
X97012398Y-65855587D01*
X96991520Y-65788909D01*
X96991500Y-65786696D01*
X96991500Y-65003438D01*
X97011185Y-64936399D01*
X97012399Y-64934546D01*
X97049389Y-64879187D01*
X97049390Y-64879184D01*
X97049394Y-64879179D01*
X97109737Y-64733497D01*
X97140500Y-64578842D01*
X97140500Y-64421158D01*
X97140500Y-64421155D01*
X97140499Y-64421153D01*
X97136521Y-64401153D01*
X97109737Y-64266503D01*
X97101451Y-64246498D01*
X97049397Y-64120827D01*
X97049390Y-64120814D01*
X96961789Y-63989711D01*
X96961786Y-63989707D01*
X96850292Y-63878213D01*
X96850288Y-63878210D01*
X96719185Y-63790609D01*
X96719172Y-63790602D01*
X96575864Y-63731243D01*
X96521460Y-63687402D01*
X96508761Y-63664147D01*
X96449394Y-63520821D01*
X96449392Y-63520818D01*
X96449390Y-63520814D01*
X96361789Y-63389711D01*
X96361786Y-63389707D01*
X96250292Y-63278213D01*
X96250288Y-63278210D01*
X96119185Y-63190609D01*
X96119172Y-63190602D01*
X95973501Y-63130264D01*
X95973489Y-63130261D01*
X95818845Y-63099500D01*
X95818842Y-63099500D01*
X95661158Y-63099500D01*
X95661155Y-63099500D01*
X95506510Y-63130261D01*
X95506498Y-63130264D01*
X95360827Y-63190602D01*
X95360814Y-63190609D01*
X95229711Y-63278210D01*
X95229707Y-63278213D01*
X95118213Y-63389707D01*
X95118210Y-63389711D01*
X95030609Y-63520814D01*
X95030602Y-63520827D01*
X94970264Y-63666498D01*
X94970261Y-63666510D01*
X94939500Y-63821153D01*
X91380500Y-63821153D01*
X91380500Y-63789765D01*
X91400185Y-63722726D01*
X91401398Y-63720874D01*
X91408490Y-63710261D01*
X91489394Y-63589179D01*
X91549737Y-63443497D01*
X91580500Y-63288842D01*
X91580500Y-63131158D01*
X91580500Y-63131155D01*
X91580499Y-63131153D01*
X91549738Y-62976510D01*
X91549737Y-62976503D01*
X91549735Y-62976498D01*
X91489397Y-62830827D01*
X91489390Y-62830814D01*
X91401789Y-62699711D01*
X91401786Y-62699707D01*
X91290292Y-62588213D01*
X91290288Y-62588210D01*
X91159185Y-62500609D01*
X91159172Y-62500602D01*
X91013501Y-62440264D01*
X91013489Y-62440261D01*
X90858845Y-62409500D01*
X90858842Y-62409500D01*
X90701158Y-62409500D01*
X90701155Y-62409500D01*
X90546510Y-62440261D01*
X90546498Y-62440264D01*
X90400827Y-62500602D01*
X90400814Y-62500609D01*
X90269711Y-62588210D01*
X90269707Y-62588213D01*
X90158213Y-62699707D01*
X90158210Y-62699711D01*
X90070609Y-62830814D01*
X90070602Y-62830827D01*
X90010264Y-62976498D01*
X90010261Y-62976510D01*
X89979500Y-63131153D01*
X89979500Y-63288846D01*
X90010261Y-63443489D01*
X90010264Y-63443501D01*
X90070602Y-63589172D01*
X90070609Y-63589185D01*
X90149595Y-63707395D01*
X90151510Y-63710261D01*
X90158602Y-63720874D01*
X90179480Y-63787551D01*
X90179500Y-63789765D01*
X90179500Y-65507059D01*
X90159815Y-65574098D01*
X90143181Y-65594740D01*
X90138213Y-65599707D01*
X90138210Y-65599711D01*
X90050609Y-65730814D01*
X90050602Y-65730827D01*
X89990264Y-65876498D01*
X89990261Y-65876510D01*
X89959500Y-66031153D01*
X88036811Y-66031153D01*
X87999395Y-65940823D01*
X87999390Y-65940814D01*
X87911789Y-65809711D01*
X87911786Y-65809707D01*
X87800292Y-65698213D01*
X87800288Y-65698210D01*
X87669185Y-65610609D01*
X87669172Y-65610602D01*
X87523501Y-65550264D01*
X87523489Y-65550261D01*
X87368845Y-65519500D01*
X87368842Y-65519500D01*
X87211158Y-65519500D01*
X87211155Y-65519500D01*
X87056510Y-65550261D01*
X87056498Y-65550264D01*
X86910827Y-65610602D01*
X86910816Y-65610608D01*
X86797025Y-65686641D01*
X86730348Y-65707518D01*
X86662968Y-65689033D01*
X86640454Y-65671219D01*
X86389597Y-65420362D01*
X86356112Y-65359039D01*
X86361096Y-65289347D01*
X86402968Y-65233414D01*
X86429818Y-65218123D01*
X86499179Y-65189394D01*
X86630289Y-65101789D01*
X86741789Y-64990289D01*
X86829394Y-64859179D01*
X86889737Y-64713497D01*
X86920500Y-64558842D01*
X86920500Y-64401158D01*
X86920500Y-64401155D01*
X86920499Y-64401153D01*
X86896238Y-64279185D01*
X86889737Y-64246503D01*
X86869489Y-64197620D01*
X86829397Y-64100827D01*
X86829390Y-64100814D01*
X86741789Y-63969711D01*
X86741786Y-63969707D01*
X86630292Y-63858213D01*
X86630288Y-63858210D01*
X86499185Y-63770609D01*
X86499172Y-63770602D01*
X86353501Y-63710264D01*
X86353489Y-63710261D01*
X86198845Y-63679500D01*
X86198842Y-63679500D01*
X86041158Y-63679500D01*
X86041155Y-63679500D01*
X85886510Y-63710261D01*
X85886498Y-63710264D01*
X85740827Y-63770602D01*
X85740814Y-63770609D01*
X85609125Y-63858602D01*
X85542447Y-63879480D01*
X85540234Y-63879500D01*
X84370348Y-63879500D01*
X84303309Y-63859815D01*
X84257554Y-63807011D01*
X84248731Y-63779692D01*
X84222238Y-63646508D01*
X84222237Y-63646507D01*
X84222237Y-63646503D01*
X84215587Y-63630448D01*
X84161897Y-63500827D01*
X84161890Y-63500814D01*
X84073898Y-63369125D01*
X84053020Y-63302447D01*
X84053000Y-63300234D01*
X84053000Y-61807597D01*
X84072685Y-61740558D01*
X84089319Y-61719916D01*
X84853409Y-60955826D01*
X85230243Y-60578992D01*
X93269500Y-60578992D01*
X93269500Y-60781007D01*
X93308907Y-60979119D01*
X93308909Y-60979127D01*
X93386212Y-61165752D01*
X93386217Y-61165762D01*
X93498441Y-61333718D01*
X93641281Y-61476558D01*
X93809237Y-61588782D01*
X93809241Y-61588784D01*
X93809244Y-61588786D01*
X93995873Y-61666091D01*
X94151747Y-61697096D01*
X94193992Y-61705499D01*
X94193996Y-61705500D01*
X94193997Y-61705500D01*
X94674233Y-61705500D01*
X94741272Y-61725185D01*
X94787027Y-61777989D01*
X94796971Y-61847147D01*
X94785647Y-61879860D01*
X94786831Y-61880351D01*
X94783720Y-61887862D01*
X94783720Y-61887863D01*
X94783719Y-61887865D01*
X94744500Y-62034234D01*
X94744500Y-62185766D01*
X94763867Y-62258046D01*
X94783719Y-62332136D01*
X94806296Y-62371239D01*
X94859485Y-62463365D01*
X94966635Y-62570515D01*
X95097865Y-62646281D01*
X95244234Y-62685500D01*
X95244236Y-62685500D01*
X95395764Y-62685500D01*
X95395766Y-62685500D01*
X95542135Y-62646281D01*
X95673365Y-62570515D01*
X95780515Y-62463365D01*
X95856281Y-62332135D01*
X95895500Y-62185766D01*
X95895500Y-62034234D01*
X95856281Y-61887865D01*
X95782370Y-61759848D01*
X95765898Y-61691951D01*
X95788750Y-61625924D01*
X95826223Y-61592967D01*
X95825691Y-61592171D01*
X95941716Y-61514644D01*
X95998718Y-61476558D01*
X96141558Y-61333718D01*
X96253786Y-61165756D01*
X96331091Y-60979127D01*
X96370500Y-60781003D01*
X96370500Y-60586379D01*
X97599500Y-60586379D01*
X97599500Y-60773620D01*
X97636025Y-60957243D01*
X97636027Y-60957251D01*
X97707676Y-61130228D01*
X97707681Y-61130237D01*
X97811697Y-61285907D01*
X97811700Y-61285911D01*
X97944088Y-61418299D01*
X97944092Y-61418302D01*
X98099762Y-61522318D01*
X98099768Y-61522321D01*
X98099769Y-61522322D01*
X98272749Y-61593973D01*
X98433379Y-61625924D01*
X98456379Y-61630499D01*
X98456383Y-61630500D01*
X98456384Y-61630500D01*
X99543617Y-61630500D01*
X99543618Y-61630499D01*
X99727251Y-61593973D01*
X99900231Y-61522322D01*
X100055908Y-61418302D01*
X100188302Y-61285908D01*
X100292322Y-61130231D01*
X100363973Y-60957251D01*
X100400500Y-60773616D01*
X100400500Y-60586384D01*
X100363973Y-60402749D01*
X100292322Y-60229769D01*
X100292321Y-60229768D01*
X100292318Y-60229762D01*
X100188302Y-60074092D01*
X100188299Y-60074088D01*
X100055911Y-59941700D01*
X100055907Y-59941697D01*
X99900237Y-59837681D01*
X99900228Y-59837676D01*
X99727251Y-59766027D01*
X99727243Y-59766025D01*
X99543620Y-59729500D01*
X99543616Y-59729500D01*
X98456384Y-59729500D01*
X98456379Y-59729500D01*
X98272756Y-59766025D01*
X98272748Y-59766027D01*
X98099771Y-59837676D01*
X98099762Y-59837681D01*
X97944092Y-59941697D01*
X97944088Y-59941700D01*
X97811700Y-60074088D01*
X97811697Y-60074092D01*
X97707681Y-60229762D01*
X97707676Y-60229771D01*
X97636027Y-60402748D01*
X97636025Y-60402756D01*
X97599500Y-60586379D01*
X96370500Y-60586379D01*
X96370500Y-60578997D01*
X96331091Y-60380873D01*
X96253786Y-60194244D01*
X96253784Y-60194241D01*
X96253782Y-60194237D01*
X96141558Y-60026281D01*
X95998718Y-59883441D01*
X95830762Y-59771217D01*
X95830752Y-59771212D01*
X95644127Y-59693909D01*
X95644119Y-59693907D01*
X95446007Y-59654500D01*
X95446003Y-59654500D01*
X94193997Y-59654500D01*
X94193992Y-59654500D01*
X93995880Y-59693907D01*
X93995872Y-59693909D01*
X93809247Y-59771212D01*
X93809237Y-59771217D01*
X93641281Y-59883441D01*
X93498441Y-60026281D01*
X93386217Y-60194237D01*
X93386212Y-60194247D01*
X93308909Y-60380872D01*
X93308907Y-60380880D01*
X93269500Y-60578992D01*
X85230243Y-60578992D01*
X85624664Y-60184571D01*
X85685985Y-60151088D01*
X85688152Y-60150637D01*
X85688841Y-60150500D01*
X85688842Y-60150500D01*
X85843497Y-60119737D01*
X85989179Y-60059394D01*
X86120289Y-59971789D01*
X86231789Y-59860289D01*
X86319394Y-59729179D01*
X86322719Y-59721153D01*
X86365095Y-59618846D01*
X86379737Y-59583497D01*
X86410500Y-59428842D01*
X86410500Y-59271158D01*
X86410500Y-59271155D01*
X86410499Y-59271153D01*
X86400486Y-59220814D01*
X86379737Y-59116503D01*
X86370723Y-59094740D01*
X86319397Y-58970827D01*
X86319390Y-58970814D01*
X86231789Y-58839711D01*
X86231786Y-58839707D01*
X86120292Y-58728213D01*
X86120288Y-58728210D01*
X85989185Y-58640609D01*
X85989172Y-58640602D01*
X85843501Y-58580264D01*
X85843489Y-58580261D01*
X85688845Y-58549500D01*
X85688842Y-58549500D01*
X85531158Y-58549500D01*
X85531155Y-58549500D01*
X85376510Y-58580261D01*
X85376498Y-58580264D01*
X85230827Y-58640602D01*
X85230814Y-58640609D01*
X85099711Y-58728210D01*
X85099707Y-58728213D01*
X84988213Y-58839707D01*
X84988210Y-58839711D01*
X84900609Y-58970814D01*
X84900602Y-58970827D01*
X84840264Y-59116498D01*
X84840261Y-59116508D01*
X84809362Y-59271848D01*
X84776977Y-59333759D01*
X84775426Y-59335337D01*
X83926191Y-60184573D01*
X83083786Y-61026978D01*
X83083784Y-61026980D01*
X83068758Y-61042004D01*
X83057951Y-61052812D01*
X83036081Y-61064752D01*
X82996629Y-61086294D01*
X82996626Y-61086293D01*
X82996626Y-61086294D01*
X82982666Y-61085295D01*
X82926937Y-61081308D01*
X82922821Y-61079688D01*
X82803501Y-61030264D01*
X82803489Y-61030261D01*
X82648845Y-60999500D01*
X82648842Y-60999500D01*
X82491158Y-60999500D01*
X82491155Y-60999500D01*
X82336510Y-61030261D01*
X82336498Y-61030264D01*
X82190827Y-61090602D01*
X82190814Y-61090609D01*
X82059711Y-61178210D01*
X82059707Y-61178213D01*
X81948213Y-61289707D01*
X81948210Y-61289711D01*
X81916975Y-61336458D01*
X81863362Y-61381263D01*
X81813873Y-61391567D01*
X80919766Y-61391567D01*
X80852727Y-61371882D01*
X80850875Y-61370669D01*
X80719185Y-61282676D01*
X80719172Y-61282669D01*
X80573501Y-61222331D01*
X80573489Y-61222328D01*
X80418845Y-61191567D01*
X80418842Y-61191567D01*
X80261158Y-61191567D01*
X80261155Y-61191567D01*
X80106510Y-61222328D01*
X80106498Y-61222331D01*
X79960827Y-61282669D01*
X79960814Y-61282676D01*
X79829711Y-61370277D01*
X79829707Y-61370280D01*
X79718213Y-61481774D01*
X79718210Y-61481778D01*
X79630609Y-61612881D01*
X79630604Y-61612890D01*
X79599061Y-61689044D01*
X79555220Y-61743447D01*
X79488926Y-61765512D01*
X79421227Y-61748233D01*
X79373616Y-61697096D01*
X79360500Y-61641591D01*
X79360500Y-60341381D01*
X79380185Y-60274342D01*
X79415610Y-60238278D01*
X79440289Y-60221789D01*
X79551789Y-60110289D01*
X79639394Y-59979179D01*
X79699737Y-59833497D01*
X79730500Y-59678842D01*
X79730500Y-59521158D01*
X79730500Y-59521156D01*
X79730500Y-59521155D01*
X79730499Y-59521153D01*
X79710543Y-59420827D01*
X79699737Y-59366503D01*
X79686174Y-59333759D01*
X79639397Y-59220827D01*
X79639390Y-59220814D01*
X79551789Y-59089711D01*
X79551786Y-59089707D01*
X79440292Y-58978213D01*
X79440288Y-58978210D01*
X79309185Y-58890609D01*
X79309172Y-58890602D01*
X79163501Y-58830264D01*
X79163489Y-58830261D01*
X79008845Y-58799500D01*
X79008842Y-58799500D01*
X78851158Y-58799500D01*
X78851155Y-58799500D01*
X78696505Y-58830261D01*
X78696501Y-58830263D01*
X78641779Y-58852929D01*
X78572309Y-58860396D01*
X78525438Y-58841470D01*
X78522805Y-58839711D01*
X78509179Y-58830606D01*
X78509176Y-58830604D01*
X78509171Y-58830602D01*
X78363501Y-58770264D01*
X78363489Y-58770261D01*
X78208845Y-58739500D01*
X78208842Y-58739500D01*
X78051158Y-58739500D01*
X78051155Y-58739500D01*
X77896510Y-58770261D01*
X77896498Y-58770264D01*
X77750827Y-58830602D01*
X77750814Y-58830609D01*
X77619711Y-58918210D01*
X77619707Y-58918213D01*
X77508213Y-59029707D01*
X77508210Y-59029711D01*
X77420609Y-59160814D01*
X77420602Y-59160827D01*
X77360264Y-59306498D01*
X77360261Y-59306510D01*
X77329500Y-59461153D01*
X72008075Y-59461153D01*
X71933501Y-59430264D01*
X71933491Y-59430261D01*
X71778151Y-59399362D01*
X71716241Y-59366977D01*
X71714662Y-59365426D01*
X70746819Y-58397583D01*
X70713334Y-58336260D01*
X70710500Y-58309902D01*
X70710500Y-57214286D01*
X70730185Y-57147247D01*
X70782989Y-57101492D01*
X70852147Y-57091548D01*
X70858674Y-57092666D01*
X70903046Y-57101492D01*
X70980454Y-57116890D01*
X70980456Y-57116890D01*
X71138142Y-57116890D01*
X71138143Y-57116889D01*
X71292795Y-57086127D01*
X71405464Y-57039457D01*
X71438470Y-57025787D01*
X71438470Y-57025786D01*
X71438477Y-57025784D01*
X71509675Y-56978211D01*
X71564770Y-56941398D01*
X71631447Y-56920520D01*
X71633661Y-56920500D01*
X75405051Y-56920500D01*
X75472090Y-56940185D01*
X75517845Y-56992989D01*
X75526667Y-57020307D01*
X75527757Y-57025784D01*
X75530267Y-57038405D01*
X75530268Y-57038408D01*
X75590607Y-57184082D01*
X75590614Y-57184095D01*
X75678215Y-57315198D01*
X75678218Y-57315202D01*
X75789712Y-57426696D01*
X75789716Y-57426699D01*
X75920819Y-57514300D01*
X75920832Y-57514307D01*
X76006654Y-57549855D01*
X76066508Y-57574647D01*
X76221158Y-57605409D01*
X76221161Y-57605410D01*
X76221163Y-57605410D01*
X76378849Y-57605410D01*
X76378850Y-57605409D01*
X76533502Y-57574647D01*
X76679184Y-57514304D01*
X76810294Y-57426699D01*
X76921794Y-57315199D01*
X77009399Y-57184089D01*
X77069742Y-57038407D01*
X77100505Y-56883752D01*
X77100505Y-56726068D01*
X77100505Y-56726065D01*
X77100504Y-56726063D01*
X77097811Y-56712524D01*
X77069742Y-56571413D01*
X77020020Y-56451374D01*
X77012552Y-56381906D01*
X77020021Y-56356471D01*
X77039150Y-56310288D01*
X77068925Y-56238405D01*
X77099688Y-56083750D01*
X77099688Y-55926066D01*
X77099688Y-55926063D01*
X77099687Y-55926061D01*
X77090294Y-55878842D01*
X77068925Y-55771411D01*
X77063636Y-55758643D01*
X77008585Y-55625735D01*
X77008578Y-55625722D01*
X76923076Y-55497760D01*
X76902198Y-55431083D01*
X76904561Y-55404677D01*
X76906757Y-55393641D01*
X76924765Y-55303107D01*
X76924765Y-55145423D01*
X76923539Y-55139259D01*
X76923539Y-55139257D01*
X76919938Y-55121153D01*
X78199500Y-55121153D01*
X78199500Y-55278846D01*
X78230261Y-55433489D01*
X78230264Y-55433501D01*
X78290602Y-55579172D01*
X78290609Y-55579185D01*
X78378210Y-55710288D01*
X78378213Y-55710292D01*
X78489707Y-55821786D01*
X78489711Y-55821789D01*
X78620814Y-55909390D01*
X78620827Y-55909397D01*
X78766498Y-55969735D01*
X78766503Y-55969737D01*
X78851181Y-55986580D01*
X78913090Y-56018964D01*
X78941549Y-56060745D01*
X78990602Y-56179172D01*
X78990609Y-56179185D01*
X79078210Y-56310288D01*
X79078213Y-56310292D01*
X79189707Y-56421786D01*
X79189711Y-56421789D01*
X79320814Y-56509390D01*
X79320827Y-56509397D01*
X79455656Y-56565244D01*
X79466503Y-56569737D01*
X79604870Y-56597260D01*
X79621153Y-56600499D01*
X79621156Y-56600500D01*
X79621158Y-56600500D01*
X79778844Y-56600500D01*
X79778845Y-56600499D01*
X79933497Y-56569737D01*
X80079179Y-56509394D01*
X80088669Y-56503053D01*
X80210875Y-56421398D01*
X80277553Y-56400520D01*
X80279766Y-56400500D01*
X81620234Y-56400500D01*
X81687273Y-56420185D01*
X81689125Y-56421398D01*
X81820814Y-56509390D01*
X81820827Y-56509397D01*
X81955656Y-56565244D01*
X81966503Y-56569737D01*
X82104870Y-56597260D01*
X82121153Y-56600499D01*
X82121156Y-56600500D01*
X82121158Y-56600500D01*
X82278844Y-56600500D01*
X82278845Y-56600499D01*
X82433497Y-56569737D01*
X82579179Y-56509394D01*
X82710289Y-56421789D01*
X82821789Y-56310289D01*
X82909394Y-56179179D01*
X82969737Y-56033497D01*
X83000500Y-55878842D01*
X83000500Y-55871437D01*
X83020185Y-55804398D01*
X83072989Y-55758643D01*
X83077048Y-55756876D01*
X83191672Y-55709397D01*
X83191672Y-55709396D01*
X83191679Y-55709394D01*
X83322789Y-55621789D01*
X83434289Y-55510289D01*
X83521894Y-55379179D01*
X83582237Y-55233497D01*
X83613000Y-55078842D01*
X83613000Y-54921158D01*
X83613000Y-54921155D01*
X83612999Y-54921153D01*
X83593043Y-54820827D01*
X83582237Y-54766503D01*
X83567333Y-54730521D01*
X83521897Y-54620827D01*
X83521890Y-54620814D01*
X83434289Y-54489711D01*
X83434286Y-54489707D01*
X83322792Y-54378213D01*
X83322788Y-54378210D01*
X83191685Y-54290609D01*
X83191672Y-54290602D01*
X83046001Y-54230264D01*
X83045989Y-54230261D01*
X82891345Y-54199500D01*
X82891342Y-54199500D01*
X82733658Y-54199500D01*
X82733655Y-54199500D01*
X82579010Y-54230261D01*
X82578998Y-54230264D01*
X82433327Y-54290602D01*
X82433314Y-54290609D01*
X82301625Y-54378602D01*
X82234947Y-54399480D01*
X82232734Y-54399500D01*
X79279062Y-54399500D01*
X79279058Y-54399499D01*
X79120943Y-54399499D01*
X79115014Y-54401087D01*
X79100862Y-54401218D01*
X79094692Y-54399467D01*
X79085000Y-54399150D01*
X79084907Y-54400097D01*
X79078845Y-54399500D01*
X79078842Y-54399500D01*
X78921158Y-54399500D01*
X78921155Y-54399500D01*
X78766510Y-54430261D01*
X78766498Y-54430264D01*
X78620827Y-54490602D01*
X78620814Y-54490609D01*
X78489711Y-54578210D01*
X78489707Y-54578213D01*
X78378213Y-54689707D01*
X78378210Y-54689711D01*
X78290609Y-54820814D01*
X78290602Y-54820827D01*
X78230264Y-54966498D01*
X78230261Y-54966510D01*
X78199500Y-55121153D01*
X76919938Y-55121153D01*
X76902633Y-55034161D01*
X76894002Y-54990768D01*
X76894000Y-54990763D01*
X76833662Y-54845092D01*
X76833655Y-54845079D01*
X76745663Y-54713390D01*
X76740012Y-54695343D01*
X76729788Y-54679434D01*
X76725336Y-54648472D01*
X76724785Y-54646712D01*
X76724765Y-54644499D01*
X76724765Y-54543450D01*
X76744450Y-54476411D01*
X76745663Y-54474559D01*
X76775260Y-54430264D01*
X76809394Y-54379179D01*
X76869737Y-54233497D01*
X76900500Y-54078842D01*
X76900500Y-53921158D01*
X76900500Y-53921155D01*
X76900499Y-53921153D01*
X76892020Y-53878526D01*
X76869737Y-53766503D01*
X76869735Y-53766498D01*
X76809397Y-53620827D01*
X76809390Y-53620814D01*
X76721789Y-53489711D01*
X76721786Y-53489707D01*
X76610292Y-53378213D01*
X76610288Y-53378210D01*
X76479185Y-53290609D01*
X76479172Y-53290602D01*
X76333501Y-53230264D01*
X76333489Y-53230261D01*
X76178845Y-53199500D01*
X76178842Y-53199500D01*
X76021158Y-53199500D01*
X76021155Y-53199500D01*
X75866510Y-53230261D01*
X75866498Y-53230264D01*
X75720827Y-53290602D01*
X75720814Y-53290609D01*
X75589711Y-53378210D01*
X75589707Y-53378213D01*
X75478213Y-53489707D01*
X75478210Y-53489711D01*
X75390609Y-53620814D01*
X75390602Y-53620827D01*
X75330264Y-53766498D01*
X75330261Y-53766510D01*
X75299500Y-53921153D01*
X75299500Y-54078846D01*
X75330261Y-54233489D01*
X75330264Y-54233501D01*
X75390602Y-54379172D01*
X75390609Y-54379185D01*
X75478210Y-54510288D01*
X75478212Y-54510291D01*
X75487443Y-54519521D01*
X75502149Y-54546451D01*
X75518742Y-54572270D01*
X75519633Y-54578466D01*
X75520930Y-54580842D01*
X75523765Y-54607205D01*
X75523765Y-54644499D01*
X75504080Y-54711538D01*
X75502867Y-54713390D01*
X75414874Y-54845079D01*
X75414867Y-54845092D01*
X75395044Y-54892952D01*
X75351204Y-54947356D01*
X75284910Y-54969421D01*
X75280483Y-54969500D01*
X72254096Y-54969500D01*
X72232851Y-54963261D01*
X72210766Y-54961683D01*
X72199981Y-54953609D01*
X72187057Y-54949815D01*
X72172558Y-54933082D01*
X72154831Y-54919813D01*
X72150122Y-54907190D01*
X72141302Y-54897011D01*
X72138151Y-54875097D01*
X72130412Y-54854350D01*
X72133275Y-54841186D01*
X72131358Y-54827853D01*
X72140556Y-54807712D01*
X72145262Y-54786076D01*
X72158534Y-54768345D01*
X72160383Y-54764297D01*
X72166396Y-54757837D01*
X72193713Y-54730521D01*
X72193716Y-54730520D01*
X72305520Y-54618716D01*
X72355639Y-54531904D01*
X72384577Y-54481785D01*
X72425500Y-54329058D01*
X72425500Y-54170943D01*
X72425500Y-54029765D01*
X72445185Y-53962726D01*
X72446398Y-53960874D01*
X72472936Y-53921158D01*
X72534394Y-53829179D01*
X72594737Y-53683497D01*
X72625500Y-53528842D01*
X72625500Y-53371158D01*
X72625500Y-53371155D01*
X72625499Y-53371153D01*
X72614228Y-53314489D01*
X72594737Y-53216503D01*
X72588109Y-53200501D01*
X72534397Y-53070827D01*
X72534390Y-53070814D01*
X72446789Y-52939711D01*
X72446786Y-52939707D01*
X72335292Y-52828213D01*
X72335288Y-52828210D01*
X72204185Y-52740609D01*
X72204172Y-52740602D01*
X72058501Y-52680264D01*
X72058489Y-52680261D01*
X71903845Y-52649500D01*
X71903842Y-52649500D01*
X71746158Y-52649500D01*
X71746155Y-52649500D01*
X71591510Y-52680261D01*
X71591498Y-52680264D01*
X71445827Y-52740602D01*
X71445814Y-52740609D01*
X71314711Y-52828210D01*
X71314707Y-52828213D01*
X71203213Y-52939707D01*
X71203210Y-52939711D01*
X71115609Y-53070814D01*
X71115602Y-53070827D01*
X71055264Y-53216498D01*
X71055261Y-53216510D01*
X71024500Y-53371153D01*
X71024500Y-53528846D01*
X71055261Y-53683489D01*
X71055264Y-53683501D01*
X71115602Y-53829172D01*
X71115609Y-53829185D01*
X71171613Y-53913000D01*
X71192491Y-53979677D01*
X71174007Y-54047058D01*
X71156192Y-54069572D01*
X69629481Y-55596282D01*
X69629477Y-55596287D01*
X69591456Y-55662144D01*
X69580847Y-55680519D01*
X69550423Y-55733215D01*
X69509499Y-55885943D01*
X69509499Y-56044057D01*
X69509499Y-56044059D01*
X69509500Y-56054053D01*
X69509500Y-58523330D01*
X69509499Y-58523348D01*
X69509499Y-58689054D01*
X69509498Y-58689054D01*
X56960500Y-58689054D01*
X56960500Y-58179765D01*
X56980185Y-58112726D01*
X56981398Y-58110874D01*
X57069390Y-57979185D01*
X57069390Y-57979184D01*
X57069394Y-57979179D01*
X57129737Y-57833497D01*
X57160500Y-57678842D01*
X57160500Y-57521158D01*
X57160500Y-57521155D01*
X57160499Y-57521153D01*
X57152471Y-57480792D01*
X57129737Y-57366503D01*
X57108488Y-57315202D01*
X57069397Y-57220827D01*
X57069390Y-57220814D01*
X56981789Y-57089711D01*
X56981786Y-57089707D01*
X56870292Y-56978213D01*
X56870288Y-56978210D01*
X56739185Y-56890609D01*
X56739172Y-56890602D01*
X56593501Y-56830264D01*
X56593489Y-56830261D01*
X56438845Y-56799500D01*
X56438842Y-56799500D01*
X56281158Y-56799500D01*
X56281155Y-56799500D01*
X56126510Y-56830261D01*
X56126498Y-56830264D01*
X55980827Y-56890602D01*
X55980814Y-56890609D01*
X55849711Y-56978210D01*
X55849707Y-56978213D01*
X55738213Y-57089707D01*
X55738210Y-57089711D01*
X55650609Y-57220814D01*
X55650602Y-57220827D01*
X55590264Y-57366498D01*
X55590261Y-57366510D01*
X55559500Y-57521153D01*
X55559500Y-57678846D01*
X55590261Y-57833489D01*
X55590264Y-57833501D01*
X55650602Y-57979172D01*
X55650609Y-57979185D01*
X55738602Y-58110874D01*
X55759480Y-58177551D01*
X55759500Y-58179765D01*
X55759500Y-59007059D01*
X55739815Y-59074098D01*
X55723181Y-59094740D01*
X55718213Y-59099707D01*
X55718210Y-59099711D01*
X55630609Y-59230814D01*
X55630602Y-59230827D01*
X55570264Y-59376498D01*
X55570261Y-59376510D01*
X55539500Y-59531153D01*
X52118081Y-59531153D01*
X58335482Y-53313752D01*
X58396803Y-53280269D01*
X58466495Y-53285253D01*
X58522428Y-53327125D01*
X58526263Y-53332544D01*
X58578210Y-53410288D01*
X58578213Y-53410292D01*
X58689707Y-53521786D01*
X58689711Y-53521789D01*
X58820814Y-53609390D01*
X58820827Y-53609397D01*
X58966498Y-53669735D01*
X58966503Y-53669737D01*
X59121153Y-53700499D01*
X59121156Y-53700500D01*
X59121158Y-53700500D01*
X59278844Y-53700500D01*
X59278845Y-53700499D01*
X59433497Y-53669737D01*
X59551592Y-53620821D01*
X59579172Y-53609397D01*
X59579172Y-53609396D01*
X59579179Y-53609394D01*
X59624399Y-53579179D01*
X59710875Y-53521398D01*
X59777553Y-53500520D01*
X59779766Y-53500500D01*
X61853331Y-53500500D01*
X61853347Y-53500501D01*
X61860943Y-53500501D01*
X62019054Y-53500501D01*
X62019057Y-53500501D01*
X62171785Y-53459577D01*
X62234211Y-53423535D01*
X62308716Y-53380520D01*
X62420520Y-53268716D01*
X62420520Y-53268714D01*
X62430724Y-53258511D01*
X62430727Y-53258506D01*
X70152416Y-45536819D01*
X70213739Y-45503334D01*
X70240097Y-45500500D01*
X77920234Y-45500500D01*
X77987273Y-45520185D01*
X77989125Y-45521398D01*
X78120814Y-45609390D01*
X78120827Y-45609397D01*
X78266498Y-45669735D01*
X78266503Y-45669737D01*
X78421153Y-45700499D01*
X78421156Y-45700500D01*
X78421158Y-45700500D01*
X78578844Y-45700500D01*
X78578845Y-45700499D01*
X78733497Y-45669737D01*
X78864486Y-45615480D01*
X78879172Y-45609397D01*
X78879172Y-45609396D01*
X78879179Y-45609394D01*
X79010289Y-45521789D01*
X79121789Y-45410289D01*
X79209394Y-45279179D01*
X79269737Y-45133497D01*
X79300500Y-44978842D01*
X79300500Y-44821158D01*
X79300500Y-44821155D01*
X79300499Y-44821153D01*
X79285990Y-44748211D01*
X79269737Y-44666503D01*
X79264910Y-44654849D01*
X79209397Y-44520827D01*
X79209390Y-44520814D01*
X79121789Y-44389711D01*
X79121786Y-44389707D01*
X79010292Y-44278213D01*
X79010288Y-44278210D01*
X78879185Y-44190609D01*
X78879172Y-44190602D01*
X78733501Y-44130264D01*
X78733489Y-44130261D01*
X78578845Y-44099500D01*
X78578842Y-44099500D01*
X78421158Y-44099500D01*
X78421155Y-44099500D01*
X78266510Y-44130261D01*
X78266498Y-44130264D01*
X78120827Y-44190602D01*
X78120814Y-44190609D01*
X77989125Y-44278602D01*
X77922447Y-44299480D01*
X77920234Y-44299500D01*
X70849097Y-44299500D01*
X70782058Y-44279815D01*
X70736303Y-44227011D01*
X70726359Y-44157853D01*
X70755384Y-44094297D01*
X70761416Y-44087819D01*
X71312416Y-43536819D01*
X71373739Y-43503334D01*
X71400097Y-43500500D01*
X77820234Y-43500500D01*
X77887273Y-43520185D01*
X77889125Y-43521398D01*
X78020814Y-43609390D01*
X78020827Y-43609397D01*
X78134739Y-43656580D01*
X78166503Y-43669737D01*
X78321153Y-43700499D01*
X78321156Y-43700500D01*
X78321158Y-43700500D01*
X78478844Y-43700500D01*
X78478845Y-43700499D01*
X78633497Y-43669737D01*
X78779179Y-43609394D01*
X78910289Y-43521789D01*
X79021789Y-43410289D01*
X79109394Y-43279179D01*
X79169737Y-43133497D01*
X79200500Y-42978842D01*
X79200500Y-42821158D01*
X79200500Y-42821155D01*
X79200499Y-42821153D01*
X79189627Y-42766498D01*
X79169737Y-42666503D01*
X79150552Y-42620185D01*
X79109397Y-42520827D01*
X79109390Y-42520814D01*
X79021789Y-42389711D01*
X79021786Y-42389707D01*
X78910292Y-42278213D01*
X78910288Y-42278210D01*
X78779185Y-42190609D01*
X78779172Y-42190602D01*
X78633501Y-42130264D01*
X78633489Y-42130261D01*
X78478845Y-42099500D01*
X78478842Y-42099500D01*
X78321158Y-42099500D01*
X78321155Y-42099500D01*
X78166510Y-42130261D01*
X78166498Y-42130264D01*
X78020827Y-42190602D01*
X78020814Y-42190609D01*
X77889125Y-42278602D01*
X77822447Y-42299480D01*
X77820234Y-42299500D01*
X72069098Y-42299500D01*
X72002059Y-42279815D01*
X71956304Y-42227011D01*
X71946360Y-42157853D01*
X71975385Y-42094297D01*
X71981417Y-42087819D01*
X72148083Y-41921153D01*
X83499500Y-41921153D01*
X83499500Y-42078846D01*
X83530261Y-42233489D01*
X83530264Y-42233501D01*
X83590602Y-42379172D01*
X83590609Y-42379185D01*
X83678210Y-42510288D01*
X83678213Y-42510292D01*
X83789707Y-42621786D01*
X83789711Y-42621789D01*
X83920814Y-42709390D01*
X83920827Y-42709397D01*
X84007989Y-42745500D01*
X84066503Y-42769737D01*
X84194036Y-42795105D01*
X84221153Y-42800499D01*
X84221156Y-42800500D01*
X84221158Y-42800500D01*
X84378844Y-42800500D01*
X84378845Y-42800499D01*
X84533497Y-42769737D01*
X84679179Y-42709394D01*
X84679185Y-42709390D01*
X84810875Y-42621398D01*
X84828921Y-42615747D01*
X84844831Y-42605523D01*
X84875792Y-42601071D01*
X84877553Y-42600520D01*
X84879766Y-42600500D01*
X85020234Y-42600500D01*
X85087273Y-42620185D01*
X85089125Y-42621398D01*
X85220814Y-42709390D01*
X85220827Y-42709397D01*
X85307989Y-42745500D01*
X85366503Y-42769737D01*
X85494036Y-42795105D01*
X85521153Y-42800499D01*
X85521156Y-42800500D01*
X85521158Y-42800500D01*
X85678844Y-42800500D01*
X85678845Y-42800499D01*
X85833497Y-42769737D01*
X85979179Y-42709394D01*
X86110289Y-42621789D01*
X86221789Y-42510289D01*
X86309394Y-42379179D01*
X86369737Y-42233497D01*
X86400500Y-42078842D01*
X86400500Y-41921158D01*
X86400500Y-41921155D01*
X86400499Y-41921153D01*
X86379684Y-41816510D01*
X86369737Y-41766503D01*
X86342398Y-41700500D01*
X86309397Y-41620827D01*
X86309390Y-41620814D01*
X86221789Y-41489711D01*
X86221786Y-41489707D01*
X86110292Y-41378213D01*
X86110288Y-41378210D01*
X85979185Y-41290609D01*
X85979172Y-41290602D01*
X85833501Y-41230264D01*
X85833489Y-41230261D01*
X85678845Y-41199500D01*
X85678842Y-41199500D01*
X85521158Y-41199500D01*
X85521155Y-41199500D01*
X85366510Y-41230261D01*
X85366498Y-41230264D01*
X85220827Y-41290602D01*
X85220814Y-41290609D01*
X85089125Y-41378602D01*
X85071078Y-41384252D01*
X85055169Y-41394477D01*
X85024207Y-41398928D01*
X85022447Y-41399480D01*
X85020234Y-41399500D01*
X84879766Y-41399500D01*
X84812727Y-41379815D01*
X84810875Y-41378602D01*
X84679185Y-41290609D01*
X84679172Y-41290602D01*
X84533501Y-41230264D01*
X84533489Y-41230261D01*
X84378845Y-41199500D01*
X84378842Y-41199500D01*
X84221158Y-41199500D01*
X84221155Y-41199500D01*
X84066510Y-41230261D01*
X84066498Y-41230264D01*
X83920827Y-41290602D01*
X83920814Y-41290609D01*
X83789711Y-41378210D01*
X83789707Y-41378213D01*
X83678213Y-41489707D01*
X83678210Y-41489711D01*
X83590609Y-41620814D01*
X83590602Y-41620827D01*
X83530264Y-41766498D01*
X83530261Y-41766510D01*
X83499500Y-41921153D01*
X72148083Y-41921153D01*
X72532417Y-41536819D01*
X72593740Y-41503334D01*
X72620098Y-41500500D01*
X77820234Y-41500500D01*
X77887273Y-41520185D01*
X77889125Y-41521398D01*
X78020814Y-41609390D01*
X78020827Y-41609397D01*
X78166264Y-41669638D01*
X78166503Y-41669737D01*
X78321153Y-41700499D01*
X78321156Y-41700500D01*
X78321158Y-41700500D01*
X78478844Y-41700500D01*
X78478845Y-41700499D01*
X78633497Y-41669737D01*
X78751592Y-41620821D01*
X78779172Y-41609397D01*
X78779172Y-41609396D01*
X78779179Y-41609394D01*
X78910289Y-41521789D01*
X79021789Y-41410289D01*
X79109394Y-41279179D01*
X79169737Y-41133497D01*
X79200500Y-40978842D01*
X79200500Y-40821158D01*
X79200500Y-40821155D01*
X79200499Y-40821153D01*
X79185346Y-40744974D01*
X79169737Y-40666503D01*
X79142398Y-40600500D01*
X79109397Y-40520827D01*
X79109390Y-40520814D01*
X79021789Y-40389711D01*
X79021786Y-40389707D01*
X78910292Y-40278213D01*
X78910288Y-40278210D01*
X78779185Y-40190609D01*
X78779172Y-40190602D01*
X78633501Y-40130264D01*
X78633489Y-40130261D01*
X78478845Y-40099500D01*
X78478842Y-40099500D01*
X78321158Y-40099500D01*
X78321155Y-40099500D01*
X78166510Y-40130261D01*
X78166498Y-40130264D01*
X78020827Y-40190602D01*
X78020814Y-40190609D01*
X77889125Y-40278602D01*
X77822447Y-40299480D01*
X77820234Y-40299500D01*
X73347569Y-40299500D01*
X73326370Y-40293275D01*
X73304330Y-40291717D01*
X73293499Y-40283623D01*
X73280530Y-40279815D01*
X73266063Y-40263119D01*
X73248362Y-40249891D01*
X73243626Y-40237226D01*
X73234775Y-40227011D01*
X73231630Y-40205144D01*
X73223892Y-40184447D01*
X73226755Y-40171233D01*
X73224831Y-40157853D01*
X73234009Y-40137755D01*
X73238688Y-40116162D01*
X73252014Y-40098329D01*
X73253856Y-40094297D01*
X73259802Y-40087905D01*
X73260436Y-40087270D01*
X73260517Y-40087212D01*
X73260507Y-40087202D01*
X73317448Y-40030261D01*
X73382520Y-39965189D01*
X73407944Y-39921153D01*
X83599500Y-39921153D01*
X83599500Y-40078846D01*
X83630261Y-40233489D01*
X83630264Y-40233501D01*
X83690602Y-40379172D01*
X83690609Y-40379185D01*
X83778210Y-40510288D01*
X83778213Y-40510292D01*
X83889707Y-40621786D01*
X83889711Y-40621789D01*
X84020814Y-40709390D01*
X84020827Y-40709397D01*
X84166498Y-40769735D01*
X84166503Y-40769737D01*
X84251289Y-40786602D01*
X84321153Y-40800499D01*
X84321156Y-40800500D01*
X84321158Y-40800500D01*
X84478844Y-40800500D01*
X84478845Y-40800499D01*
X84633497Y-40769737D01*
X84779179Y-40709394D01*
X84792490Y-40700500D01*
X84910875Y-40621398D01*
X84977553Y-40600520D01*
X84979766Y-40600500D01*
X87620234Y-40600500D01*
X87687273Y-40620185D01*
X87689125Y-40621398D01*
X87820814Y-40709390D01*
X87820827Y-40709397D01*
X87966498Y-40769735D01*
X87966503Y-40769737D01*
X88051289Y-40786602D01*
X88121153Y-40800499D01*
X88121156Y-40800500D01*
X88121158Y-40800500D01*
X88278844Y-40800500D01*
X88278845Y-40800499D01*
X88433497Y-40769737D01*
X88579179Y-40709394D01*
X88710289Y-40621789D01*
X88821789Y-40510289D01*
X88909394Y-40379179D01*
X88969737Y-40233497D01*
X89000500Y-40078842D01*
X89000500Y-39921158D01*
X89000500Y-39921155D01*
X89000499Y-39921153D01*
X88988214Y-39859394D01*
X88969737Y-39766503D01*
X88932055Y-39675529D01*
X88909397Y-39620827D01*
X88909390Y-39620814D01*
X88821789Y-39489711D01*
X88821786Y-39489707D01*
X88710292Y-39378213D01*
X88710288Y-39378210D01*
X88579185Y-39290609D01*
X88579172Y-39290602D01*
X88433501Y-39230264D01*
X88433489Y-39230261D01*
X88278845Y-39199500D01*
X88278842Y-39199500D01*
X88121158Y-39199500D01*
X88121155Y-39199500D01*
X87966510Y-39230261D01*
X87966498Y-39230264D01*
X87820827Y-39290602D01*
X87820814Y-39290609D01*
X87689125Y-39378602D01*
X87622447Y-39399480D01*
X87620234Y-39399500D01*
X84979766Y-39399500D01*
X84912727Y-39379815D01*
X84910875Y-39378602D01*
X84779185Y-39290609D01*
X84779172Y-39290602D01*
X84633501Y-39230264D01*
X84633489Y-39230261D01*
X84478845Y-39199500D01*
X84478842Y-39199500D01*
X84321158Y-39199500D01*
X84321155Y-39199500D01*
X84166510Y-39230261D01*
X84166498Y-39230264D01*
X84020827Y-39290602D01*
X84020814Y-39290609D01*
X83889711Y-39378210D01*
X83889707Y-39378213D01*
X83778213Y-39489707D01*
X83778210Y-39489711D01*
X83690609Y-39620814D01*
X83690602Y-39620827D01*
X83630264Y-39766498D01*
X83630261Y-39766510D01*
X83599500Y-39921153D01*
X73407944Y-39921153D01*
X73443600Y-39859394D01*
X73461577Y-39828258D01*
X73502500Y-39675530D01*
X73502500Y-39524500D01*
X73522185Y-39457461D01*
X73574989Y-39411706D01*
X73626500Y-39400500D01*
X77720234Y-39400500D01*
X77787273Y-39420185D01*
X77789125Y-39421398D01*
X77920814Y-39509390D01*
X77920827Y-39509397D01*
X78066498Y-39569735D01*
X78066503Y-39569737D01*
X78221153Y-39600499D01*
X78221156Y-39600500D01*
X78221158Y-39600500D01*
X78378844Y-39600500D01*
X78378845Y-39600499D01*
X78533497Y-39569737D01*
X78679179Y-39509394D01*
X78810289Y-39421789D01*
X78921789Y-39310289D01*
X79009394Y-39179179D01*
X79069737Y-39033497D01*
X79100500Y-38878842D01*
X79100500Y-38721158D01*
X79100500Y-38721155D01*
X79100499Y-38721153D01*
X79091219Y-38674498D01*
X79069737Y-38566503D01*
X79069735Y-38566498D01*
X79009397Y-38420827D01*
X79009390Y-38420814D01*
X78921789Y-38289711D01*
X78921786Y-38289707D01*
X78810292Y-38178213D01*
X78810288Y-38178210D01*
X78679185Y-38090609D01*
X78679172Y-38090602D01*
X78541472Y-38033566D01*
X78541470Y-38033565D01*
X78533497Y-38030263D01*
X78488143Y-38021241D01*
X78486302Y-38020816D01*
X78457432Y-38004564D01*
X78428122Y-37989232D01*
X78427142Y-37987512D01*
X78425417Y-37986541D01*
X78409922Y-37957271D01*
X78393548Y-37928517D01*
X78393653Y-37926540D01*
X78392727Y-37924790D01*
X78393034Y-37921153D01*
X83599500Y-37921153D01*
X83599500Y-38078846D01*
X83630261Y-38233489D01*
X83630264Y-38233501D01*
X83690602Y-38379172D01*
X83690609Y-38379185D01*
X83778210Y-38510288D01*
X83778213Y-38510292D01*
X83889707Y-38621786D01*
X83889711Y-38621789D01*
X84020814Y-38709390D01*
X84020827Y-38709397D01*
X84164028Y-38768712D01*
X84166503Y-38769737D01*
X84321153Y-38800499D01*
X84321156Y-38800500D01*
X84321158Y-38800500D01*
X84478844Y-38800500D01*
X84478845Y-38800499D01*
X84633497Y-38769737D01*
X84750790Y-38721153D01*
X84779172Y-38709397D01*
X84779172Y-38709396D01*
X84779179Y-38709394D01*
X84831403Y-38674499D01*
X84910875Y-38621398D01*
X84977553Y-38600520D01*
X84979766Y-38600500D01*
X89268399Y-38600500D01*
X89335438Y-38620185D01*
X89337290Y-38621398D01*
X89470079Y-38710125D01*
X89470092Y-38710132D01*
X89613996Y-38769738D01*
X89615768Y-38770472D01*
X89766723Y-38800499D01*
X89770418Y-38801234D01*
X89770421Y-38801235D01*
X89770423Y-38801235D01*
X89928109Y-38801235D01*
X89928110Y-38801234D01*
X90082762Y-38770472D01*
X90228444Y-38710129D01*
X90359554Y-38622524D01*
X90471054Y-38511024D01*
X90558659Y-38379914D01*
X90558964Y-38379179D01*
X90599155Y-38282147D01*
X90619002Y-38234232D01*
X90649765Y-38079577D01*
X90649765Y-37921893D01*
X90649765Y-37921890D01*
X90649764Y-37921888D01*
X90641202Y-37878844D01*
X90619002Y-37767238D01*
X90619000Y-37767233D01*
X90558662Y-37621562D01*
X90558655Y-37621549D01*
X90471054Y-37490446D01*
X90471051Y-37490442D01*
X90359557Y-37378948D01*
X90359553Y-37378945D01*
X90228450Y-37291344D01*
X90228437Y-37291337D01*
X90082766Y-37230999D01*
X90082754Y-37230996D01*
X89928110Y-37200235D01*
X89928107Y-37200235D01*
X89770423Y-37200235D01*
X89770420Y-37200235D01*
X89615775Y-37230996D01*
X89615763Y-37230999D01*
X89470092Y-37291337D01*
X89470079Y-37291344D01*
X89339490Y-37378602D01*
X89272812Y-37399480D01*
X89270599Y-37399500D01*
X84979766Y-37399500D01*
X84912727Y-37379815D01*
X84910875Y-37378602D01*
X84779185Y-37290609D01*
X84779172Y-37290602D01*
X84633501Y-37230264D01*
X84633489Y-37230261D01*
X84478845Y-37199500D01*
X84478842Y-37199500D01*
X84321158Y-37199500D01*
X84321155Y-37199500D01*
X84166510Y-37230261D01*
X84166498Y-37230264D01*
X84020827Y-37290602D01*
X84020814Y-37290609D01*
X83889711Y-37378210D01*
X83889707Y-37378213D01*
X83778213Y-37489707D01*
X83778210Y-37489711D01*
X83690609Y-37620814D01*
X83690602Y-37620827D01*
X83630264Y-37766498D01*
X83630261Y-37766510D01*
X83599500Y-37921153D01*
X78393034Y-37921153D01*
X78395515Y-37891797D01*
X78397287Y-37858747D01*
X78398445Y-37857140D01*
X78398612Y-37855169D01*
X78418792Y-37828924D01*
X78438154Y-37802075D01*
X78440132Y-37801171D01*
X78441202Y-37799781D01*
X78450373Y-37796494D01*
X78490033Y-37778383D01*
X78507940Y-37774820D01*
X78533497Y-37769737D01*
X78679179Y-37709394D01*
X78810289Y-37621789D01*
X78921789Y-37510289D01*
X79009394Y-37379179D01*
X79069737Y-37233497D01*
X79100500Y-37078842D01*
X79100500Y-36921158D01*
X79100500Y-36921155D01*
X79100499Y-36921153D01*
X79081742Y-36826858D01*
X79069737Y-36766503D01*
X79053556Y-36727438D01*
X79009397Y-36620827D01*
X79009390Y-36620814D01*
X78921789Y-36489711D01*
X78921786Y-36489707D01*
X78810292Y-36378213D01*
X78810288Y-36378210D01*
X78679185Y-36290609D01*
X78679172Y-36290602D01*
X78533501Y-36230264D01*
X78533489Y-36230261D01*
X78378845Y-36199500D01*
X78378842Y-36199500D01*
X78221158Y-36199500D01*
X78221155Y-36199500D01*
X78066510Y-36230261D01*
X78066498Y-36230264D01*
X77920827Y-36290602D01*
X77920814Y-36290609D01*
X77789125Y-36378602D01*
X77722447Y-36399480D01*
X77720234Y-36399500D01*
X73617848Y-36399500D01*
X73550809Y-36379815D01*
X73505054Y-36327011D01*
X73496231Y-36299692D01*
X73469738Y-36166508D01*
X73469737Y-36166507D01*
X73469737Y-36166503D01*
X73433427Y-36078842D01*
X73409397Y-36020827D01*
X73409390Y-36020814D01*
X73384764Y-35983959D01*
X73384763Y-35983958D01*
X73379953Y-35976759D01*
X73353385Y-35936998D01*
X73348424Y-35921153D01*
X83599500Y-35921153D01*
X83599500Y-36078846D01*
X83630261Y-36233489D01*
X83630264Y-36233501D01*
X83690602Y-36379172D01*
X83690609Y-36379185D01*
X83778210Y-36510288D01*
X83778213Y-36510292D01*
X83889707Y-36621786D01*
X83889711Y-36621789D01*
X84020814Y-36709390D01*
X84020827Y-36709397D01*
X84138302Y-36758056D01*
X84166503Y-36769737D01*
X84321153Y-36800499D01*
X84321156Y-36800500D01*
X84321158Y-36800500D01*
X84478844Y-36800500D01*
X84478845Y-36800499D01*
X84633497Y-36769737D01*
X84746166Y-36723067D01*
X84779172Y-36709397D01*
X84779172Y-36709396D01*
X84779179Y-36709394D01*
X84779185Y-36709390D01*
X84910875Y-36621398D01*
X84977553Y-36600520D01*
X84979766Y-36600500D01*
X90713331Y-36600500D01*
X90713347Y-36600501D01*
X90720943Y-36600501D01*
X90879054Y-36600501D01*
X90879057Y-36600501D01*
X91031785Y-36559577D01*
X91098912Y-36520821D01*
X91168716Y-36480520D01*
X91280520Y-36368716D01*
X91280520Y-36368714D01*
X91290724Y-36358511D01*
X91290727Y-36358506D01*
X91738927Y-35910307D01*
X91800248Y-35876824D01*
X91802415Y-35876373D01*
X91860350Y-35864848D01*
X91957762Y-35845472D01*
X92103444Y-35785129D01*
X92234554Y-35697524D01*
X92346054Y-35586024D01*
X92433659Y-35454914D01*
X92494002Y-35309232D01*
X92524765Y-35154577D01*
X92524765Y-34996893D01*
X92524765Y-34996890D01*
X92524764Y-34996888D01*
X92494003Y-34842245D01*
X92494003Y-34842243D01*
X92494002Y-34842238D01*
X92494000Y-34842233D01*
X92433662Y-34696562D01*
X92433655Y-34696549D01*
X92346054Y-34565446D01*
X92346051Y-34565442D01*
X92234557Y-34453948D01*
X92234553Y-34453945D01*
X92103450Y-34366344D01*
X92103437Y-34366337D01*
X91957766Y-34305999D01*
X91957754Y-34305996D01*
X91803110Y-34275235D01*
X91803107Y-34275235D01*
X91645423Y-34275235D01*
X91645420Y-34275235D01*
X91490775Y-34305996D01*
X91490763Y-34305999D01*
X91345092Y-34366337D01*
X91345079Y-34366344D01*
X91213976Y-34453945D01*
X91213972Y-34453948D01*
X91102478Y-34565442D01*
X91102475Y-34565446D01*
X91014874Y-34696549D01*
X91014867Y-34696562D01*
X90954529Y-34842233D01*
X90954526Y-34842243D01*
X90923626Y-34997585D01*
X90891241Y-35059496D01*
X90889690Y-35061074D01*
X90587584Y-35363181D01*
X90526261Y-35396666D01*
X90499903Y-35399500D01*
X84979766Y-35399500D01*
X84912727Y-35379815D01*
X84910875Y-35378602D01*
X84779185Y-35290609D01*
X84779172Y-35290602D01*
X84633501Y-35230264D01*
X84633489Y-35230261D01*
X84478845Y-35199500D01*
X84478842Y-35199500D01*
X84321158Y-35199500D01*
X84321155Y-35199500D01*
X84166510Y-35230261D01*
X84166498Y-35230264D01*
X84020827Y-35290602D01*
X84020814Y-35290609D01*
X83889711Y-35378210D01*
X83889707Y-35378213D01*
X83778213Y-35489707D01*
X83778210Y-35489711D01*
X83690609Y-35620814D01*
X83690602Y-35620827D01*
X83630264Y-35766498D01*
X83630261Y-35766510D01*
X83599500Y-35921153D01*
X73348424Y-35921153D01*
X73332508Y-35870322D01*
X73350992Y-35802942D01*
X73368803Y-35780431D01*
X80687819Y-28461416D01*
X80749142Y-28427931D01*
X80818834Y-28432915D01*
X80874767Y-28474787D01*
X80899184Y-28540251D01*
X80899500Y-28549097D01*
X80899500Y-30913330D01*
X80899499Y-30913348D01*
X80899499Y-31079054D01*
X80899498Y-31079054D01*
X80940423Y-31231785D01*
X80969358Y-31281900D01*
X80969359Y-31281904D01*
X80969360Y-31281904D01*
X81019479Y-31368714D01*
X81019481Y-31368717D01*
X81138349Y-31487585D01*
X81138355Y-31487590D01*
X81295425Y-31644660D01*
X81328910Y-31705983D01*
X81329361Y-31708149D01*
X81360261Y-31863491D01*
X81360264Y-31863501D01*
X81420602Y-32009172D01*
X81420609Y-32009185D01*
X81508210Y-32140288D01*
X81508213Y-32140292D01*
X81619707Y-32251786D01*
X81619711Y-32251789D01*
X81750814Y-32339390D01*
X81750827Y-32339397D01*
X81844534Y-32378211D01*
X81896503Y-32399737D01*
X81961147Y-32412595D01*
X82051849Y-32430638D01*
X82113760Y-32463023D01*
X82115339Y-32464574D01*
X82815139Y-33164374D01*
X82815149Y-33164385D01*
X82819479Y-33168715D01*
X82819480Y-33168716D01*
X82931284Y-33280520D01*
X83010890Y-33326480D01*
X83068215Y-33359577D01*
X83220943Y-33400501D01*
X83220946Y-33400501D01*
X83386653Y-33400501D01*
X83386669Y-33400500D01*
X93115590Y-33400500D01*
X93182629Y-33420185D01*
X93203272Y-33436820D01*
X93238972Y-33472521D01*
X93238976Y-33472524D01*
X93370079Y-33560125D01*
X93370092Y-33560132D01*
X93515763Y-33620470D01*
X93515768Y-33620472D01*
X93670418Y-33651234D01*
X93670421Y-33651235D01*
X93670423Y-33651235D01*
X93828109Y-33651235D01*
X93828110Y-33651234D01*
X93982762Y-33620472D01*
X94128444Y-33560129D01*
X94259554Y-33472524D01*
X94371054Y-33361024D01*
X94458659Y-33229914D01*
X94519002Y-33084232D01*
X94549765Y-32929577D01*
X94549765Y-32921153D01*
X100599500Y-32921153D01*
X100599500Y-33078846D01*
X100630261Y-33233489D01*
X100630264Y-33233501D01*
X100690602Y-33379172D01*
X100690609Y-33379185D01*
X100778602Y-33510874D01*
X100799480Y-33577551D01*
X100799500Y-33579765D01*
X100799500Y-37220234D01*
X100779815Y-37287273D01*
X100778602Y-37289125D01*
X100690609Y-37420814D01*
X100690602Y-37420827D01*
X100630264Y-37566498D01*
X100630261Y-37566510D01*
X100599500Y-37721153D01*
X100599500Y-37878846D01*
X100630261Y-38033489D01*
X100630264Y-38033501D01*
X100690602Y-38179172D01*
X100690609Y-38179185D01*
X100778602Y-38310874D01*
X100799480Y-38377551D01*
X100799500Y-38379765D01*
X100799500Y-42420234D01*
X100779815Y-42487273D01*
X100778602Y-42489125D01*
X100690609Y-42620814D01*
X100690602Y-42620827D01*
X100630264Y-42766498D01*
X100630261Y-42766510D01*
X100599500Y-42921153D01*
X100599500Y-43078846D01*
X100630261Y-43233489D01*
X100630264Y-43233501D01*
X100690602Y-43379172D01*
X100690609Y-43379185D01*
X100778602Y-43510874D01*
X100799480Y-43577551D01*
X100799500Y-43579765D01*
X100799500Y-47820234D01*
X100779815Y-47887273D01*
X100778602Y-47889125D01*
X100690609Y-48020814D01*
X100690602Y-48020827D01*
X100630264Y-48166498D01*
X100630261Y-48166510D01*
X100599500Y-48321153D01*
X100599500Y-48478846D01*
X100630261Y-48633489D01*
X100630264Y-48633501D01*
X100690602Y-48779172D01*
X100690609Y-48779185D01*
X100778602Y-48910874D01*
X100799480Y-48977551D01*
X100799500Y-48979765D01*
X100799500Y-53420234D01*
X100779815Y-53487273D01*
X100778602Y-53489125D01*
X100690609Y-53620814D01*
X100690602Y-53620827D01*
X100630264Y-53766498D01*
X100630261Y-53766510D01*
X100599500Y-53921153D01*
X100599500Y-54078846D01*
X100630261Y-54233489D01*
X100630264Y-54233501D01*
X100690602Y-54379172D01*
X100690609Y-54379185D01*
X100778210Y-54510288D01*
X100778213Y-54510292D01*
X100889707Y-54621786D01*
X100889711Y-54621789D01*
X101020814Y-54709390D01*
X101020827Y-54709397D01*
X101158683Y-54766498D01*
X101166503Y-54769737D01*
X101298807Y-54796054D01*
X101321153Y-54800499D01*
X101321156Y-54800500D01*
X101321158Y-54800500D01*
X101478844Y-54800500D01*
X101478845Y-54800499D01*
X101633497Y-54769737D01*
X101779179Y-54709394D01*
X101910289Y-54621789D01*
X102021789Y-54510289D01*
X102109394Y-54379179D01*
X102169737Y-54233497D01*
X102200500Y-54078842D01*
X102200500Y-53921158D01*
X102200500Y-53921155D01*
X102200499Y-53921153D01*
X102192020Y-53878526D01*
X102169737Y-53766503D01*
X102169735Y-53766498D01*
X102109397Y-53620827D01*
X102109390Y-53620814D01*
X102021398Y-53489125D01*
X102000520Y-53422447D01*
X102000500Y-53420234D01*
X102000500Y-48979765D01*
X102020185Y-48912726D01*
X102021398Y-48910874D01*
X102032189Y-48894725D01*
X102109394Y-48779179D01*
X102169737Y-48633497D01*
X102200500Y-48478842D01*
X102200500Y-48321158D01*
X102200500Y-48321155D01*
X102200499Y-48321153D01*
X102200432Y-48320814D01*
X102169737Y-48166503D01*
X102149421Y-48117455D01*
X102109397Y-48020827D01*
X102109390Y-48020814D01*
X102021398Y-47889125D01*
X102000520Y-47822447D01*
X102000500Y-47820234D01*
X102000500Y-43579765D01*
X102020185Y-43512726D01*
X102021398Y-43510874D01*
X102109390Y-43379185D01*
X102109390Y-43379184D01*
X102109394Y-43379179D01*
X102169737Y-43233497D01*
X102200500Y-43078842D01*
X102200500Y-42921158D01*
X102200500Y-42921155D01*
X102200499Y-42921153D01*
X102190646Y-42871620D01*
X102169737Y-42766503D01*
X102109794Y-42621786D01*
X102109397Y-42620827D01*
X102109390Y-42620814D01*
X102021398Y-42489125D01*
X102000520Y-42422447D01*
X102000500Y-42420234D01*
X102000500Y-38379765D01*
X102020185Y-38312726D01*
X102021398Y-38310874D01*
X102109390Y-38179185D01*
X102109390Y-38179184D01*
X102109394Y-38179179D01*
X102109718Y-38178398D01*
X102125415Y-38140500D01*
X102169737Y-38033497D01*
X102200500Y-37878842D01*
X102200500Y-37721158D01*
X102200500Y-37721155D01*
X102200499Y-37721153D01*
X102180734Y-37621789D01*
X102169737Y-37566503D01*
X102146452Y-37510288D01*
X102109397Y-37420827D01*
X102109390Y-37420814D01*
X102021398Y-37289125D01*
X102000520Y-37222447D01*
X102000500Y-37220234D01*
X102000500Y-33579765D01*
X102020185Y-33512726D01*
X102021398Y-33510874D01*
X102047936Y-33471158D01*
X102109394Y-33379179D01*
X102169737Y-33233497D01*
X102200500Y-33078842D01*
X102200500Y-32921158D01*
X102200500Y-32921155D01*
X102200499Y-32921153D01*
X102169737Y-32766503D01*
X102158053Y-32738294D01*
X102109397Y-32620827D01*
X102109390Y-32620814D01*
X102021789Y-32489711D01*
X102021786Y-32489707D01*
X101910292Y-32378213D01*
X101910288Y-32378210D01*
X101779185Y-32290609D01*
X101779172Y-32290602D01*
X101633501Y-32230264D01*
X101633489Y-32230261D01*
X101478845Y-32199500D01*
X101478842Y-32199500D01*
X101321158Y-32199500D01*
X101321155Y-32199500D01*
X101166510Y-32230261D01*
X101166498Y-32230264D01*
X101020827Y-32290602D01*
X101020814Y-32290609D01*
X100889711Y-32378210D01*
X100889707Y-32378213D01*
X100778213Y-32489707D01*
X100778210Y-32489711D01*
X100690609Y-32620814D01*
X100690602Y-32620827D01*
X100630264Y-32766498D01*
X100630261Y-32766510D01*
X100599500Y-32921153D01*
X94549765Y-32921153D01*
X94549765Y-32771893D01*
X94549765Y-32771890D01*
X94549764Y-32771888D01*
X94519716Y-32620827D01*
X94519002Y-32617238D01*
X94466179Y-32489711D01*
X94458662Y-32471562D01*
X94458655Y-32471549D01*
X94371054Y-32340446D01*
X94371051Y-32340442D01*
X94259557Y-32228948D01*
X94259553Y-32228945D01*
X94128450Y-32141344D01*
X94128437Y-32141337D01*
X93982766Y-32080999D01*
X93982754Y-32080996D01*
X93828110Y-32050235D01*
X93828107Y-32050235D01*
X93670423Y-32050235D01*
X93670420Y-32050235D01*
X93515775Y-32080996D01*
X93515763Y-32080999D01*
X93370092Y-32141337D01*
X93370085Y-32141341D01*
X93341732Y-32160286D01*
X93314320Y-32178602D01*
X93247644Y-32199480D01*
X93245430Y-32199500D01*
X83600097Y-32199500D01*
X83533058Y-32179815D01*
X83512416Y-32163181D01*
X82964574Y-31615339D01*
X82931089Y-31554016D01*
X82930638Y-31551849D01*
X82899738Y-31396510D01*
X82899737Y-31396503D01*
X82896457Y-31388584D01*
X82839397Y-31250827D01*
X82839390Y-31250814D01*
X82751789Y-31119711D01*
X82751786Y-31119707D01*
X82640292Y-31008213D01*
X82640288Y-31008210D01*
X82509185Y-30920609D01*
X82509172Y-30920602D01*
X82363501Y-30860264D01*
X82363491Y-30860261D01*
X82208151Y-30829362D01*
X82191391Y-30820595D01*
X82172909Y-30816573D01*
X82147878Y-30797833D01*
X82146241Y-30796977D01*
X82144656Y-30795421D01*
X82136813Y-30787577D01*
X82103332Y-30726251D01*
X82100500Y-30699901D01*
X82100500Y-27379765D01*
X82120185Y-27312726D01*
X82121398Y-27310874D01*
X82209390Y-27179185D01*
X82209390Y-27179184D01*
X82209394Y-27179179D01*
X82269737Y-27033497D01*
X82300500Y-26878842D01*
X82300500Y-26721158D01*
X82300500Y-26721155D01*
X82300499Y-26721153D01*
X82269738Y-26566510D01*
X82269737Y-26566503D01*
X82240755Y-26496533D01*
X82219617Y-26445501D01*
X82219610Y-26445487D01*
X82209394Y-26420821D01*
X82209392Y-26420818D01*
X82209390Y-26420814D01*
X82121789Y-26289711D01*
X82121786Y-26289707D01*
X82010292Y-26178213D01*
X82010288Y-26178210D01*
X81879185Y-26090609D01*
X81879169Y-26090601D01*
X81877038Y-26089718D01*
X81876094Y-26088957D01*
X81873809Y-26087736D01*
X81874040Y-26087302D01*
X81822638Y-26045873D01*
X81800579Y-25979577D01*
X81800500Y-25975161D01*
X81800500Y-22570945D01*
X81800500Y-22570943D01*
X81778734Y-22489711D01*
X81759577Y-22418215D01*
X81719904Y-22349500D01*
X81717108Y-22344657D01*
X81700500Y-22282665D01*
X81700500Y-22271155D01*
X81700499Y-22271153D01*
X81690671Y-22221744D01*
X81669737Y-22116503D01*
X81669735Y-22116498D01*
X81609397Y-21970827D01*
X81609390Y-21970814D01*
X81521789Y-21839711D01*
X81521786Y-21839707D01*
X81410292Y-21728213D01*
X81410288Y-21728210D01*
X81279185Y-21640609D01*
X81279172Y-21640602D01*
X81133501Y-21580264D01*
X81133489Y-21580261D01*
X80978845Y-21549500D01*
X80978842Y-21549500D01*
X80821158Y-21549500D01*
X80821155Y-21549500D01*
X80666510Y-21580261D01*
X80666498Y-21580264D01*
X80520827Y-21640602D01*
X80520814Y-21640609D01*
X80389711Y-21728210D01*
X80389707Y-21728213D01*
X80278213Y-21839707D01*
X80278210Y-21839711D01*
X80190609Y-21970814D01*
X80190602Y-21970827D01*
X80130264Y-22116498D01*
X80130261Y-22116508D01*
X80124258Y-22146690D01*
X80091873Y-22208601D01*
X80050094Y-22237059D01*
X79920824Y-22290604D01*
X79920814Y-22290609D01*
X79789711Y-22378210D01*
X79789707Y-22378213D01*
X79678213Y-22489707D01*
X79678210Y-22489711D01*
X79590609Y-22620814D01*
X79590602Y-22620827D01*
X79530264Y-22766498D01*
X79530261Y-22766510D01*
X79499500Y-22921153D01*
X79499500Y-23076554D01*
X79479815Y-23143593D01*
X79463181Y-23164235D01*
X79391029Y-23236386D01*
X79391026Y-23236390D01*
X79303425Y-23367493D01*
X79303418Y-23367506D01*
X79243080Y-23513177D01*
X79243077Y-23513189D01*
X79212316Y-23667832D01*
X79212316Y-23825525D01*
X79243077Y-23980168D01*
X79243080Y-23980180D01*
X79303418Y-24125851D01*
X79303425Y-24125864D01*
X79391026Y-24256967D01*
X79391029Y-24256971D01*
X79502523Y-24368465D01*
X79502527Y-24368468D01*
X79563671Y-24409324D01*
X79608476Y-24462937D01*
X79617183Y-24532262D01*
X79587028Y-24595289D01*
X79542233Y-24626987D01*
X79418823Y-24678104D01*
X79418814Y-24678109D01*
X79287711Y-24765710D01*
X79287707Y-24765713D01*
X79176213Y-24877207D01*
X79176210Y-24877211D01*
X79088609Y-25008314D01*
X79088602Y-25008327D01*
X79028264Y-25153998D01*
X79028261Y-25154010D01*
X78997500Y-25308653D01*
X78997500Y-25466346D01*
X79028261Y-25620989D01*
X79028264Y-25621001D01*
X79070219Y-25722291D01*
X79077688Y-25791761D01*
X79046412Y-25854240D01*
X79043339Y-25857424D01*
X78499398Y-26401365D01*
X78438075Y-26434850D01*
X78368383Y-26429866D01*
X78342826Y-26416786D01*
X78229920Y-26341344D01*
X78229907Y-26341337D01*
X78084236Y-26280999D01*
X78084224Y-26280996D01*
X77929580Y-26250235D01*
X77929577Y-26250235D01*
X77771893Y-26250235D01*
X77771890Y-26250235D01*
X77617245Y-26280996D01*
X77617233Y-26280999D01*
X77471562Y-26341337D01*
X77471549Y-26341344D01*
X77340446Y-26428945D01*
X77340442Y-26428948D01*
X77228948Y-26540442D01*
X77228945Y-26540446D01*
X77141344Y-26671549D01*
X77141337Y-26671562D01*
X77080999Y-26817233D01*
X77080996Y-26817243D01*
X77050462Y-26970748D01*
X77018077Y-27032659D01*
X77016526Y-27034237D01*
X75412584Y-28638181D01*
X75351261Y-28671666D01*
X75324903Y-28674500D01*
X73879766Y-28674500D01*
X73812727Y-28654815D01*
X73810875Y-28653602D01*
X73679185Y-28565609D01*
X73679172Y-28565602D01*
X73570935Y-28520770D01*
X73516531Y-28476930D01*
X73494466Y-28410636D01*
X73511745Y-28342936D01*
X73530702Y-28318532D01*
X74114662Y-27734572D01*
X74175983Y-27701089D01*
X74178150Y-27700638D01*
X74236085Y-27689113D01*
X74333497Y-27669737D01*
X74479179Y-27609394D01*
X74610289Y-27521789D01*
X74721789Y-27410289D01*
X74809394Y-27279179D01*
X74869737Y-27133497D01*
X74900500Y-26978842D01*
X74900500Y-26821158D01*
X74900500Y-26821155D01*
X74900499Y-26821153D01*
X74892313Y-26780000D01*
X74869737Y-26666503D01*
X74869735Y-26666498D01*
X74809397Y-26520827D01*
X74809390Y-26520814D01*
X74721789Y-26389711D01*
X74721786Y-26389707D01*
X74610292Y-26278213D01*
X74610288Y-26278210D01*
X74479185Y-26190609D01*
X74479172Y-26190602D01*
X74333501Y-26130264D01*
X74333489Y-26130261D01*
X74178845Y-26099500D01*
X74178842Y-26099500D01*
X74021158Y-26099500D01*
X74021155Y-26099500D01*
X73866510Y-26130261D01*
X73866498Y-26130264D01*
X73720827Y-26190602D01*
X73720814Y-26190609D01*
X73592731Y-26276192D01*
X73526053Y-26297070D01*
X73458673Y-26278585D01*
X73419868Y-26240661D01*
X73413646Y-26231088D01*
X73409394Y-26220821D01*
X73321789Y-26089711D01*
X73321725Y-26089647D01*
X73320528Y-26087805D01*
X73310729Y-26055054D01*
X73300520Y-26022447D01*
X73300505Y-26020879D01*
X73300502Y-26020867D01*
X73300505Y-26020854D01*
X73300500Y-26020234D01*
X73300500Y-25979765D01*
X73320185Y-25912726D01*
X73321398Y-25910874D01*
X73409390Y-25779185D01*
X73409390Y-25779184D01*
X73409394Y-25779179D01*
X73469737Y-25633497D01*
X73500500Y-25478842D01*
X73500500Y-25321158D01*
X73500500Y-25321155D01*
X73500499Y-25321153D01*
X73469738Y-25166510D01*
X73469737Y-25166503D01*
X73469735Y-25166498D01*
X73409397Y-25020827D01*
X73409390Y-25020814D01*
X73321789Y-24889711D01*
X73321786Y-24889707D01*
X73210292Y-24778213D01*
X73210288Y-24778210D01*
X73079185Y-24690609D01*
X73079172Y-24690602D01*
X72933501Y-24630264D01*
X72933491Y-24630261D01*
X72800308Y-24603769D01*
X72738397Y-24571384D01*
X72703823Y-24510668D01*
X72700500Y-24482152D01*
X72700500Y-19888575D01*
X93220000Y-19888575D01*
X93220000Y-20111424D01*
X93249085Y-20332354D01*
X93249088Y-20332367D01*
X93306763Y-20547618D01*
X93392045Y-20753502D01*
X93392054Y-20753520D01*
X93503464Y-20946491D01*
X93503473Y-20946504D01*
X93554040Y-21012403D01*
X93554043Y-21012403D01*
X94204152Y-20362293D01*
X94211049Y-20378942D01*
X94298599Y-20509970D01*
X94410030Y-20621401D01*
X94541058Y-20708951D01*
X94557705Y-20715846D01*
X93907595Y-21365955D01*
X93907595Y-21365956D01*
X93973507Y-21416533D01*
X94166485Y-21527949D01*
X94166497Y-21527954D01*
X94372381Y-21613236D01*
X94587632Y-21670911D01*
X94587645Y-21670914D01*
X94808575Y-21700000D01*
X95031425Y-21700000D01*
X95252354Y-21670914D01*
X95252367Y-21670911D01*
X95467618Y-21613236D01*
X95673502Y-21527954D01*
X95673520Y-21527945D01*
X95866490Y-21416535D01*
X95878327Y-21407453D01*
X95943495Y-21382256D01*
X96011941Y-21396292D01*
X96061932Y-21445104D01*
X96077598Y-21513195D01*
X96053964Y-21578946D01*
X96052195Y-21581309D01*
X96043061Y-21593212D01*
X96043052Y-21593226D01*
X95931595Y-21786273D01*
X95931593Y-21786277D01*
X95846293Y-21992209D01*
X95846290Y-21992219D01*
X95793933Y-22187621D01*
X95788597Y-22207534D01*
X95788594Y-22207547D01*
X95759501Y-22428533D01*
X95759500Y-22428549D01*
X95759500Y-22651450D01*
X95759501Y-22651466D01*
X95788594Y-22872452D01*
X95788595Y-22872457D01*
X95788596Y-22872463D01*
X95843282Y-23076554D01*
X95846290Y-23087780D01*
X95846293Y-23087790D01*
X95931593Y-23293722D01*
X95931595Y-23293726D01*
X96043052Y-23486774D01*
X96052193Y-23498687D01*
X96077387Y-23563856D01*
X96063349Y-23632300D01*
X96014535Y-23682290D01*
X95946444Y-23697954D01*
X95880693Y-23674317D01*
X95878331Y-23672549D01*
X95866493Y-23663465D01*
X95866491Y-23663464D01*
X95673520Y-23552054D01*
X95673502Y-23552045D01*
X95467618Y-23466763D01*
X95252367Y-23409088D01*
X95252354Y-23409085D01*
X95031425Y-23380000D01*
X94808575Y-23380000D01*
X94587645Y-23409085D01*
X94587632Y-23409088D01*
X94372381Y-23466763D01*
X94166497Y-23552045D01*
X94166479Y-23552054D01*
X93973511Y-23663462D01*
X93907595Y-23714042D01*
X94557706Y-24364152D01*
X94541058Y-24371049D01*
X94410030Y-24458599D01*
X94298599Y-24570030D01*
X94211049Y-24701058D01*
X94204153Y-24717706D01*
X93554042Y-24067595D01*
X93503462Y-24133511D01*
X93392054Y-24326479D01*
X93392045Y-24326497D01*
X93306763Y-24532381D01*
X93249088Y-24747632D01*
X93249085Y-24747645D01*
X93220000Y-24968575D01*
X93220000Y-25191424D01*
X93249085Y-25412354D01*
X93249088Y-25412367D01*
X93306763Y-25627618D01*
X93392045Y-25833502D01*
X93392054Y-25833520D01*
X93503464Y-26026491D01*
X93503473Y-26026504D01*
X93554040Y-26092403D01*
X93554043Y-26092403D01*
X94204152Y-25442293D01*
X94211049Y-25458942D01*
X94298599Y-25589970D01*
X94410030Y-25701401D01*
X94541058Y-25788951D01*
X94557705Y-25795846D01*
X93907595Y-26445955D01*
X93907595Y-26445956D01*
X93973507Y-26496533D01*
X94166485Y-26607949D01*
X94166497Y-26607954D01*
X94372381Y-26693236D01*
X94587632Y-26750911D01*
X94587645Y-26750914D01*
X94808575Y-26780000D01*
X95031425Y-26780000D01*
X95252354Y-26750914D01*
X95252367Y-26750911D01*
X95467618Y-26693236D01*
X95673502Y-26607954D01*
X95673514Y-26607949D01*
X95866498Y-26496530D01*
X95932403Y-26445957D01*
X95932404Y-26445956D01*
X95282294Y-25795846D01*
X95298942Y-25788951D01*
X95429970Y-25701401D01*
X95541401Y-25589970D01*
X95628951Y-25458942D01*
X95635846Y-25442293D01*
X96285956Y-26092404D01*
X96285957Y-26092403D01*
X96336530Y-26026498D01*
X96447949Y-25833514D01*
X96447954Y-25833502D01*
X96533236Y-25627618D01*
X96590911Y-25412367D01*
X96590914Y-25412354D01*
X96620000Y-25191424D01*
X96620000Y-24968575D01*
X96590914Y-24747645D01*
X96590911Y-24747632D01*
X96533236Y-24532381D01*
X96447954Y-24326497D01*
X96447945Y-24326479D01*
X96336535Y-24133508D01*
X96336533Y-24133504D01*
X96327451Y-24121669D01*
X96302256Y-24056500D01*
X96316294Y-23988055D01*
X96365108Y-23938065D01*
X96433199Y-23922401D01*
X96498949Y-23946037D01*
X96501279Y-23947781D01*
X96513226Y-23956948D01*
X96706274Y-24068405D01*
X96829151Y-24119302D01*
X96863444Y-24133507D01*
X96912219Y-24153710D01*
X97127537Y-24211404D01*
X97348543Y-24240500D01*
X97348550Y-24240500D01*
X97571450Y-24240500D01*
X97571457Y-24240500D01*
X97792463Y-24211404D01*
X98007781Y-24153710D01*
X98213726Y-24068405D01*
X98406774Y-23956948D01*
X98418686Y-23947807D01*
X98483850Y-23922612D01*
X98552296Y-23936648D01*
X98602288Y-23985460D01*
X98617954Y-24053550D01*
X98594321Y-24119302D01*
X98592552Y-24121665D01*
X98583463Y-24133510D01*
X98472054Y-24326479D01*
X98472045Y-24326497D01*
X98386763Y-24532381D01*
X98329088Y-24747632D01*
X98329085Y-24747645D01*
X98300000Y-24968575D01*
X98300000Y-25191424D01*
X98329085Y-25412354D01*
X98329088Y-25412367D01*
X98386763Y-25627618D01*
X98472045Y-25833502D01*
X98472054Y-25833520D01*
X98583464Y-26026491D01*
X98583473Y-26026504D01*
X98634040Y-26092403D01*
X98634043Y-26092403D01*
X99284152Y-25442293D01*
X99291049Y-25458942D01*
X99378599Y-25589970D01*
X99490030Y-25701401D01*
X99621058Y-25788951D01*
X99637705Y-25795846D01*
X98987595Y-26445955D01*
X98987595Y-26445956D01*
X99053507Y-26496533D01*
X99246485Y-26607949D01*
X99246497Y-26607954D01*
X99452381Y-26693236D01*
X99667632Y-26750911D01*
X99667645Y-26750914D01*
X99888575Y-26780000D01*
X100111425Y-26780000D01*
X100332354Y-26750914D01*
X100332367Y-26750911D01*
X100547618Y-26693236D01*
X100753502Y-26607954D01*
X100753514Y-26607949D01*
X100946498Y-26496530D01*
X101012403Y-26445957D01*
X101012404Y-26445956D01*
X100362294Y-25795846D01*
X100378942Y-25788951D01*
X100509970Y-25701401D01*
X100621401Y-25589970D01*
X100708951Y-25458942D01*
X100715846Y-25442294D01*
X101365956Y-26092404D01*
X101365957Y-26092403D01*
X101416530Y-26026498D01*
X101527949Y-25833514D01*
X101527954Y-25833502D01*
X101613236Y-25627618D01*
X101670911Y-25412367D01*
X101670914Y-25412354D01*
X101700000Y-25191424D01*
X101700000Y-24968575D01*
X101670914Y-24747645D01*
X101670911Y-24747632D01*
X101613236Y-24532381D01*
X101527954Y-24326497D01*
X101527949Y-24326485D01*
X101416533Y-24133507D01*
X101365956Y-24067595D01*
X101365955Y-24067595D01*
X100715846Y-24717704D01*
X100708951Y-24701058D01*
X100621401Y-24570030D01*
X100509970Y-24458599D01*
X100378942Y-24371049D01*
X100362293Y-24364152D01*
X101012403Y-23714043D01*
X101012403Y-23714040D01*
X100946504Y-23663473D01*
X100946491Y-23663464D01*
X100753520Y-23552054D01*
X100753502Y-23552045D01*
X100547618Y-23466763D01*
X100332367Y-23409088D01*
X100332354Y-23409085D01*
X100111425Y-23380000D01*
X99888575Y-23380000D01*
X99667645Y-23409085D01*
X99667632Y-23409088D01*
X99452381Y-23466763D01*
X99246497Y-23552045D01*
X99246479Y-23552054D01*
X99053510Y-23663463D01*
X99041665Y-23672552D01*
X98976495Y-23697743D01*
X98908050Y-23683703D01*
X98858062Y-23634887D01*
X98842402Y-23566795D01*
X98866040Y-23501045D01*
X98867740Y-23498774D01*
X98876948Y-23486774D01*
X98988405Y-23293726D01*
X99073710Y-23087781D01*
X99131404Y-22872463D01*
X99160500Y-22651457D01*
X99160500Y-22428543D01*
X99131404Y-22207537D01*
X99073710Y-21992219D01*
X98988405Y-21786274D01*
X98876948Y-21593226D01*
X98867806Y-21581312D01*
X98842612Y-21516145D01*
X98856650Y-21447700D01*
X98905463Y-21397709D01*
X98973554Y-21382045D01*
X99039305Y-21405681D01*
X99041669Y-21407451D01*
X99053504Y-21416533D01*
X99053508Y-21416535D01*
X99246479Y-21527945D01*
X99246497Y-21527954D01*
X99452381Y-21613236D01*
X99667632Y-21670911D01*
X99667645Y-21670914D01*
X99888575Y-21700000D01*
X100111425Y-21700000D01*
X100332354Y-21670914D01*
X100332367Y-21670911D01*
X100547618Y-21613236D01*
X100753502Y-21527954D01*
X100753514Y-21527949D01*
X100946498Y-21416530D01*
X101012403Y-21365957D01*
X101012404Y-21365956D01*
X100362293Y-20715846D01*
X100378942Y-20708951D01*
X100509970Y-20621401D01*
X100621401Y-20509970D01*
X100708951Y-20378942D01*
X100715846Y-20362294D01*
X101365956Y-21012404D01*
X101365957Y-21012403D01*
X101416530Y-20946498D01*
X101527949Y-20753514D01*
X101527954Y-20753502D01*
X101613236Y-20547618D01*
X101670911Y-20332367D01*
X101670914Y-20332354D01*
X101700000Y-20111424D01*
X101700000Y-19888575D01*
X101670914Y-19667645D01*
X101670911Y-19667632D01*
X101613236Y-19452381D01*
X101527954Y-19246497D01*
X101527949Y-19246485D01*
X101416533Y-19053507D01*
X101365956Y-18987595D01*
X101365955Y-18987595D01*
X100715846Y-19637704D01*
X100708951Y-19621058D01*
X100621401Y-19490030D01*
X100509970Y-19378599D01*
X100378942Y-19291049D01*
X100362293Y-19284152D01*
X101012403Y-18634043D01*
X101012403Y-18634040D01*
X100946504Y-18583473D01*
X100946491Y-18583464D01*
X100753520Y-18472054D01*
X100753502Y-18472045D01*
X100547618Y-18386763D01*
X100332367Y-18329088D01*
X100332354Y-18329085D01*
X100111425Y-18300000D01*
X99888575Y-18300000D01*
X99667645Y-18329085D01*
X99667632Y-18329088D01*
X99452381Y-18386763D01*
X99246497Y-18472045D01*
X99246479Y-18472054D01*
X99053511Y-18583462D01*
X98987595Y-18634042D01*
X99637706Y-19284152D01*
X99621058Y-19291049D01*
X99490030Y-19378599D01*
X99378599Y-19490030D01*
X99291049Y-19621058D01*
X99284152Y-19637706D01*
X98634042Y-18987595D01*
X98583462Y-19053511D01*
X98472054Y-19246479D01*
X98472045Y-19246497D01*
X98386763Y-19452381D01*
X98329088Y-19667632D01*
X98329085Y-19667645D01*
X98300000Y-19888575D01*
X98300000Y-20111424D01*
X98329085Y-20332354D01*
X98329088Y-20332367D01*
X98386763Y-20547618D01*
X98472045Y-20753502D01*
X98472054Y-20753520D01*
X98583464Y-20946491D01*
X98583465Y-20946493D01*
X98592549Y-20958331D01*
X98617743Y-21023500D01*
X98603704Y-21091945D01*
X98554890Y-21141935D01*
X98486799Y-21157598D01*
X98421049Y-21133961D01*
X98418689Y-21132195D01*
X98406774Y-21123052D01*
X98213726Y-21011595D01*
X98213722Y-21011593D01*
X98007790Y-20926293D01*
X98007783Y-20926291D01*
X98007781Y-20926290D01*
X97792463Y-20868596D01*
X97792457Y-20868595D01*
X97792452Y-20868594D01*
X97571466Y-20839501D01*
X97571463Y-20839500D01*
X97571457Y-20839500D01*
X97348543Y-20839500D01*
X97348537Y-20839500D01*
X97348533Y-20839501D01*
X97127547Y-20868594D01*
X97127540Y-20868595D01*
X97127537Y-20868596D01*
X96912219Y-20926290D01*
X96912209Y-20926293D01*
X96706277Y-21011593D01*
X96706273Y-21011595D01*
X96513226Y-21123052D01*
X96513212Y-21123061D01*
X96501309Y-21132195D01*
X96436140Y-21157387D01*
X96367695Y-21143347D01*
X96317707Y-21094531D01*
X96302046Y-21026440D01*
X96325684Y-20960690D01*
X96327453Y-20958327D01*
X96336535Y-20946490D01*
X96447945Y-20753520D01*
X96447954Y-20753502D01*
X96533236Y-20547618D01*
X96590911Y-20332367D01*
X96590914Y-20332354D01*
X96620000Y-20111424D01*
X96620000Y-19888575D01*
X96590914Y-19667645D01*
X96590911Y-19667632D01*
X96533236Y-19452381D01*
X96447954Y-19246497D01*
X96447949Y-19246485D01*
X96336533Y-19053507D01*
X96285956Y-18987595D01*
X96285955Y-18987595D01*
X95635846Y-19637705D01*
X95628951Y-19621058D01*
X95541401Y-19490030D01*
X95429970Y-19378599D01*
X95298942Y-19291049D01*
X95282293Y-19284152D01*
X95932403Y-18634043D01*
X95932403Y-18634041D01*
X95866504Y-18583473D01*
X95866491Y-18583464D01*
X95673520Y-18472054D01*
X95673502Y-18472045D01*
X95467618Y-18386763D01*
X95252367Y-18329088D01*
X95252354Y-18329085D01*
X95031425Y-18300000D01*
X94808575Y-18300000D01*
X94587645Y-18329085D01*
X94587632Y-18329088D01*
X94372381Y-18386763D01*
X94166497Y-18472045D01*
X94166479Y-18472054D01*
X93973511Y-18583462D01*
X93907595Y-18634042D01*
X94557706Y-19284152D01*
X94541058Y-19291049D01*
X94410030Y-19378599D01*
X94298599Y-19490030D01*
X94211049Y-19621058D01*
X94204153Y-19637706D01*
X93554042Y-18987595D01*
X93503462Y-19053511D01*
X93392054Y-19246479D01*
X93392045Y-19246497D01*
X93306763Y-19452381D01*
X93249088Y-19667632D01*
X93249085Y-19667645D01*
X93220000Y-19888575D01*
X72700500Y-19888575D01*
X72700500Y-19451517D01*
X72702736Y-19443899D01*
X72701467Y-19436063D01*
X72712440Y-19410853D01*
X72720185Y-19384478D01*
X72726894Y-19377647D01*
X72729353Y-19371999D01*
X72755605Y-19348418D01*
X72870289Y-19271789D01*
X72870288Y-19271789D01*
X72870876Y-19271397D01*
X72937554Y-19250520D01*
X72939766Y-19250500D01*
X75567059Y-19250500D01*
X75634098Y-19270185D01*
X75654740Y-19286819D01*
X75663972Y-19296051D01*
X75663976Y-19296054D01*
X75795079Y-19383655D01*
X75795092Y-19383662D01*
X75921601Y-19436063D01*
X75940768Y-19444002D01*
X76095418Y-19474764D01*
X76095421Y-19474765D01*
X76095423Y-19474765D01*
X76253109Y-19474765D01*
X76253110Y-19474764D01*
X76407762Y-19444002D01*
X76553444Y-19383659D01*
X76684554Y-19296054D01*
X76796054Y-19184554D01*
X76883659Y-19053444D01*
X76944002Y-18907762D01*
X76974765Y-18753107D01*
X76974765Y-18595423D01*
X76974765Y-18595420D01*
X76974764Y-18595418D01*
X76950223Y-18472045D01*
X76944002Y-18440768D01*
X76897742Y-18329085D01*
X76883662Y-18295092D01*
X76883655Y-18295079D01*
X76796054Y-18163976D01*
X76796051Y-18163972D01*
X76684557Y-18052478D01*
X76684553Y-18052475D01*
X76553450Y-17964874D01*
X76553437Y-17964867D01*
X76407766Y-17904529D01*
X76407754Y-17904526D01*
X76253110Y-17873765D01*
X76253107Y-17873765D01*
X76095423Y-17873765D01*
X76095420Y-17873765D01*
X75940775Y-17904526D01*
X75940763Y-17904529D01*
X75795092Y-17964867D01*
X75795080Y-17964874D01*
X75699706Y-18028602D01*
X75633029Y-18049480D01*
X75630815Y-18049500D01*
X72939766Y-18049500D01*
X72872727Y-18029815D01*
X72870875Y-18028602D01*
X72739185Y-17940609D01*
X72739172Y-17940602D01*
X72593501Y-17880264D01*
X72593489Y-17880261D01*
X72438845Y-17849500D01*
X72438842Y-17849500D01*
X72281158Y-17849500D01*
X72281155Y-17849500D01*
X72126510Y-17880261D01*
X72126498Y-17880264D01*
X71980827Y-17940602D01*
X71980814Y-17940609D01*
X71849711Y-18028210D01*
X71849707Y-18028213D01*
X71738213Y-18139707D01*
X71738210Y-18139711D01*
X71650609Y-18270814D01*
X71650602Y-18270827D01*
X71590264Y-18416498D01*
X71590261Y-18416510D01*
X71559500Y-18571153D01*
X71559500Y-18611946D01*
X71542888Y-18673945D01*
X71540424Y-18678212D01*
X71540423Y-18678214D01*
X71540423Y-18678215D01*
X71499499Y-18830943D01*
X71499499Y-18830945D01*
X71499499Y-18999046D01*
X71499500Y-18999059D01*
X71499500Y-32625500D01*
X71479815Y-32692539D01*
X71427011Y-32738294D01*
X71375500Y-32749500D01*
X71371155Y-32749500D01*
X71216510Y-32780261D01*
X71216498Y-32780264D01*
X71070827Y-32840602D01*
X71070814Y-32840609D01*
X70939711Y-32928210D01*
X70939707Y-32928213D01*
X70828213Y-33039707D01*
X70828210Y-33039711D01*
X70740609Y-33170814D01*
X70740602Y-33170827D01*
X70680264Y-33316498D01*
X70680261Y-33316508D01*
X70649361Y-33471850D01*
X70616976Y-33533761D01*
X70615425Y-33535339D01*
X67961681Y-36189084D01*
X67900358Y-36222569D01*
X67830666Y-36217585D01*
X67774733Y-36175713D01*
X67750316Y-36110249D01*
X67750000Y-36101403D01*
X67750000Y-15624500D01*
X67769685Y-15557461D01*
X67822489Y-15511706D01*
X67874000Y-15500500D01*
X99934108Y-15500500D01*
X99997294Y-15500500D01*
X100002702Y-15500617D01*
G37*
%TD.AperFunction*%
%TA.AperFunction,Conductor*%
G36*
X34506416Y-41160351D02*
G01*
X34528931Y-41178166D01*
X35140139Y-41789374D01*
X35140149Y-41789385D01*
X35144479Y-41793715D01*
X35144480Y-41793716D01*
X35256284Y-41905520D01*
X35256286Y-41905521D01*
X35256290Y-41905524D01*
X35326667Y-41946156D01*
X35326671Y-41946157D01*
X35326672Y-41946158D01*
X35393215Y-41984577D01*
X35545943Y-42025501D01*
X35545946Y-42025501D01*
X35711653Y-42025501D01*
X35711669Y-42025500D01*
X54537454Y-42025500D01*
X54604493Y-42045185D01*
X54650248Y-42097989D01*
X54660192Y-42167147D01*
X54631167Y-42230703D01*
X54584906Y-42264061D01*
X54520827Y-42290602D01*
X54520814Y-42290609D01*
X54389711Y-42378210D01*
X54389707Y-42378213D01*
X54278213Y-42489707D01*
X54278210Y-42489711D01*
X54190609Y-42620814D01*
X54190602Y-42620827D01*
X54130264Y-42766498D01*
X54130261Y-42766510D01*
X54099500Y-42921153D01*
X54099500Y-43078846D01*
X54130261Y-43233489D01*
X54130264Y-43233501D01*
X54190602Y-43379172D01*
X54190609Y-43379185D01*
X54278210Y-43510288D01*
X54278213Y-43510292D01*
X54363178Y-43595257D01*
X54396663Y-43656580D01*
X54399497Y-43682938D01*
X54399497Y-44340234D01*
X54379812Y-44407273D01*
X54378599Y-44409125D01*
X54290606Y-44540814D01*
X54290599Y-44540827D01*
X54230261Y-44686498D01*
X54230258Y-44686510D01*
X54199497Y-44841153D01*
X54199497Y-44998846D01*
X54230258Y-45153489D01*
X54230261Y-45153501D01*
X54290599Y-45299172D01*
X54290606Y-45299185D01*
X54378207Y-45430288D01*
X54378210Y-45430292D01*
X54489704Y-45541786D01*
X54489708Y-45541789D01*
X54620811Y-45629390D01*
X54620824Y-45629397D01*
X54740187Y-45678838D01*
X54766500Y-45689737D01*
X54910492Y-45718379D01*
X54921150Y-45720499D01*
X54921153Y-45720500D01*
X54921155Y-45720500D01*
X55078841Y-45720500D01*
X55078842Y-45720499D01*
X55233494Y-45689737D01*
X55352547Y-45640423D01*
X55422014Y-45632955D01*
X55447447Y-45640422D01*
X55566503Y-45689737D01*
X55710495Y-45718379D01*
X55721153Y-45720499D01*
X55721156Y-45720500D01*
X55765500Y-45720500D01*
X55774185Y-45723050D01*
X55783147Y-45721762D01*
X55807187Y-45732740D01*
X55832539Y-45740185D01*
X55838466Y-45747025D01*
X55846703Y-45750787D01*
X55860992Y-45773021D01*
X55878294Y-45792989D01*
X55880581Y-45803503D01*
X55884477Y-45809565D01*
X55889500Y-45844500D01*
X55889500Y-46075500D01*
X55869815Y-46142539D01*
X55817011Y-46188294D01*
X55765500Y-46199500D01*
X54379766Y-46199500D01*
X54312727Y-46179815D01*
X54310875Y-46178602D01*
X54179185Y-46090609D01*
X54179172Y-46090602D01*
X54033501Y-46030264D01*
X54033489Y-46030261D01*
X53878845Y-45999500D01*
X53878842Y-45999500D01*
X53721158Y-45999500D01*
X53721155Y-45999500D01*
X53566510Y-46030261D01*
X53566498Y-46030264D01*
X53420827Y-46090602D01*
X53420814Y-46090609D01*
X53289711Y-46178210D01*
X53289707Y-46178213D01*
X53178213Y-46289707D01*
X53178210Y-46289711D01*
X53090609Y-46420814D01*
X53090602Y-46420827D01*
X53030264Y-46566498D01*
X53030261Y-46566510D01*
X52999500Y-46721153D01*
X52999500Y-46878846D01*
X53030261Y-47033489D01*
X53030264Y-47033501D01*
X53090602Y-47179172D01*
X53090609Y-47179185D01*
X53178210Y-47310288D01*
X53178213Y-47310292D01*
X53280240Y-47412319D01*
X53313725Y-47473642D01*
X53308741Y-47543334D01*
X53280240Y-47587681D01*
X53178213Y-47689707D01*
X53178210Y-47689711D01*
X53090609Y-47820814D01*
X53090602Y-47820827D01*
X53030264Y-47966498D01*
X53030261Y-47966510D01*
X52999500Y-48121153D01*
X52999500Y-48278846D01*
X53030261Y-48433489D01*
X53030264Y-48433501D01*
X53090602Y-48579172D01*
X53090609Y-48579185D01*
X53178210Y-48710288D01*
X53178213Y-48710292D01*
X53218036Y-48750114D01*
X53251522Y-48811437D01*
X53246538Y-48881128D01*
X53233458Y-48906686D01*
X53190612Y-48970809D01*
X53190602Y-48970827D01*
X53130264Y-49116498D01*
X53130261Y-49116510D01*
X53099500Y-49271153D01*
X53099500Y-49375500D01*
X53079815Y-49442539D01*
X53027011Y-49488294D01*
X52975500Y-49499500D01*
X33379766Y-49499500D01*
X33312727Y-49479815D01*
X33310875Y-49478602D01*
X33179185Y-49390609D01*
X33179172Y-49390602D01*
X33033501Y-49330264D01*
X33033491Y-49330261D01*
X32897210Y-49303153D01*
X32835299Y-49270768D01*
X32800725Y-49210052D01*
X32797402Y-49181536D01*
X32797402Y-46797847D01*
X32817087Y-46730808D01*
X32869891Y-46685053D01*
X32897211Y-46676230D01*
X32913193Y-46673050D01*
X33030399Y-46649737D01*
X33176081Y-46589394D01*
X33307191Y-46501789D01*
X33418691Y-46390289D01*
X33506296Y-46259179D01*
X33566639Y-46113497D01*
X33597402Y-45958842D01*
X33597402Y-45801158D01*
X33597402Y-45801155D01*
X33597401Y-45801153D01*
X33591805Y-45773021D01*
X33566639Y-45646503D01*
X33564054Y-45640263D01*
X33506299Y-45500827D01*
X33506292Y-45500814D01*
X33418300Y-45369125D01*
X33397422Y-45302447D01*
X33397402Y-45300234D01*
X33397402Y-42629765D01*
X33417087Y-42562726D01*
X33418300Y-42560874D01*
X33506292Y-42429185D01*
X33506292Y-42429184D01*
X33506296Y-42429179D01*
X33509085Y-42422447D01*
X33527004Y-42379185D01*
X33566639Y-42283497D01*
X33597402Y-42128842D01*
X33597402Y-41971158D01*
X33597402Y-41971155D01*
X33597401Y-41971153D01*
X33566640Y-41816510D01*
X33566639Y-41816503D01*
X33561779Y-41804771D01*
X33554309Y-41735306D01*
X33585582Y-41672826D01*
X33588627Y-41669670D01*
X33894929Y-41363369D01*
X33956250Y-41329886D01*
X33958417Y-41329435D01*
X34016352Y-41317910D01*
X34113764Y-41298534D01*
X34259446Y-41238191D01*
X34372359Y-41162745D01*
X34439036Y-41141867D01*
X34506416Y-41160351D01*
G37*
%TD.AperFunction*%
%TA.AperFunction,Conductor*%
G36*
X67173637Y-38103724D02*
G01*
X67310886Y-38140501D01*
X67310888Y-38140501D01*
X67476597Y-38140501D01*
X67476613Y-38140500D01*
X69660903Y-38140500D01*
X69727942Y-38160185D01*
X69773697Y-38212989D01*
X69783641Y-38282147D01*
X69754616Y-38345703D01*
X69748584Y-38352181D01*
X68135339Y-39965425D01*
X68074016Y-39998910D01*
X68071850Y-39999361D01*
X67916508Y-40030261D01*
X67916498Y-40030264D01*
X67770827Y-40090602D01*
X67770814Y-40090609D01*
X67639711Y-40178210D01*
X67639707Y-40178213D01*
X67528213Y-40289707D01*
X67528210Y-40289711D01*
X67440609Y-40420814D01*
X67440602Y-40420827D01*
X67380264Y-40566498D01*
X67380261Y-40566510D01*
X67348797Y-40724691D01*
X67316412Y-40786602D01*
X67255697Y-40821176D01*
X67227180Y-40824500D01*
X63017848Y-40824500D01*
X62950809Y-40804815D01*
X62905054Y-40752011D01*
X62896231Y-40724692D01*
X62869738Y-40591508D01*
X62869737Y-40591507D01*
X62869737Y-40591503D01*
X62859380Y-40566498D01*
X62809397Y-40445827D01*
X62809390Y-40445814D01*
X62721398Y-40314125D01*
X62700520Y-40247447D01*
X62700500Y-40245234D01*
X62700500Y-38702940D01*
X62720185Y-38635901D01*
X62736818Y-38615259D01*
X62741789Y-38610289D01*
X62829394Y-38479179D01*
X62889737Y-38333497D01*
X62899951Y-38282147D01*
X62908274Y-38240309D01*
X62940659Y-38178398D01*
X63001375Y-38143823D01*
X63029891Y-38140500D01*
X66723388Y-38140500D01*
X66723404Y-38140501D01*
X66731000Y-38140501D01*
X66889112Y-38140501D01*
X66889114Y-38140501D01*
X66996806Y-38111644D01*
X67026363Y-38103725D01*
X67058456Y-38099500D01*
X67141547Y-38099500D01*
X67173637Y-38103724D01*
G37*
%TD.AperFunction*%
%TD*%
M02*
