%TF.GenerationSoftware,KiCad,Pcbnew,9.0.0*%
%TF.CreationDate,2025-09-24T11:45:30+09:00*%
%TF.ProjectId,FLP_PCB_set,464c505f-5043-4425-9f73-65742e6b6963,rev?*%
%TF.SameCoordinates,Original*%
%TF.FileFunction,Legend,Top*%
%TF.FilePolarity,Positive*%
%FSLAX46Y46*%
G04 Gerber Fmt 4.6, Leading zero omitted, Abs format (unit mm)*
G04 Created by KiCad (PCBNEW 9.0.0) date 2025-09-24 11:45:30*
%MOMM*%
%LPD*%
G01*
G04 APERTURE LIST*
%ADD10C,0.150000*%
%ADD11C,0.254000*%
%ADD12C,0.120000*%
%ADD13C,0.127000*%
%ADD14C,0.200000*%
G04 APERTURE END LIST*
D10*
X173757142Y-64969580D02*
X173709523Y-65017200D01*
X173709523Y-65017200D02*
X173566666Y-65064819D01*
X173566666Y-65064819D02*
X173471428Y-65064819D01*
X173471428Y-65064819D02*
X173328571Y-65017200D01*
X173328571Y-65017200D02*
X173233333Y-64921961D01*
X173233333Y-64921961D02*
X173185714Y-64826723D01*
X173185714Y-64826723D02*
X173138095Y-64636247D01*
X173138095Y-64636247D02*
X173138095Y-64493390D01*
X173138095Y-64493390D02*
X173185714Y-64302914D01*
X173185714Y-64302914D02*
X173233333Y-64207676D01*
X173233333Y-64207676D02*
X173328571Y-64112438D01*
X173328571Y-64112438D02*
X173471428Y-64064819D01*
X173471428Y-64064819D02*
X173566666Y-64064819D01*
X173566666Y-64064819D02*
X173709523Y-64112438D01*
X173709523Y-64112438D02*
X173757142Y-64160057D01*
X174614285Y-64398152D02*
X174614285Y-65064819D01*
X174376190Y-64017200D02*
X174138095Y-64731485D01*
X174138095Y-64731485D02*
X174757142Y-64731485D01*
X175042857Y-64064819D02*
X175661904Y-64064819D01*
X175661904Y-64064819D02*
X175328571Y-64445771D01*
X175328571Y-64445771D02*
X175471428Y-64445771D01*
X175471428Y-64445771D02*
X175566666Y-64493390D01*
X175566666Y-64493390D02*
X175614285Y-64541009D01*
X175614285Y-64541009D02*
X175661904Y-64636247D01*
X175661904Y-64636247D02*
X175661904Y-64874342D01*
X175661904Y-64874342D02*
X175614285Y-64969580D01*
X175614285Y-64969580D02*
X175566666Y-65017200D01*
X175566666Y-65017200D02*
X175471428Y-65064819D01*
X175471428Y-65064819D02*
X175185714Y-65064819D01*
X175185714Y-65064819D02*
X175090476Y-65017200D01*
X175090476Y-65017200D02*
X175042857Y-64969580D01*
X83828095Y-61842319D02*
X83828095Y-62651842D01*
X83828095Y-62651842D02*
X83875714Y-62747080D01*
X83875714Y-62747080D02*
X83923333Y-62794700D01*
X83923333Y-62794700D02*
X84018571Y-62842319D01*
X84018571Y-62842319D02*
X84209047Y-62842319D01*
X84209047Y-62842319D02*
X84304285Y-62794700D01*
X84304285Y-62794700D02*
X84351904Y-62747080D01*
X84351904Y-62747080D02*
X84399523Y-62651842D01*
X84399523Y-62651842D02*
X84399523Y-61842319D01*
X85304285Y-62175652D02*
X85304285Y-62842319D01*
X85066190Y-61794700D02*
X84828095Y-62508985D01*
X84828095Y-62508985D02*
X85447142Y-62508985D01*
X55023333Y-33329819D02*
X54690000Y-32853628D01*
X54451905Y-33329819D02*
X54451905Y-32329819D01*
X54451905Y-32329819D02*
X54832857Y-32329819D01*
X54832857Y-32329819D02*
X54928095Y-32377438D01*
X54928095Y-32377438D02*
X54975714Y-32425057D01*
X54975714Y-32425057D02*
X55023333Y-32520295D01*
X55023333Y-32520295D02*
X55023333Y-32663152D01*
X55023333Y-32663152D02*
X54975714Y-32758390D01*
X54975714Y-32758390D02*
X54928095Y-32806009D01*
X54928095Y-32806009D02*
X54832857Y-32853628D01*
X54832857Y-32853628D02*
X54451905Y-32853628D01*
X55356667Y-32329819D02*
X55975714Y-32329819D01*
X55975714Y-32329819D02*
X55642381Y-32710771D01*
X55642381Y-32710771D02*
X55785238Y-32710771D01*
X55785238Y-32710771D02*
X55880476Y-32758390D01*
X55880476Y-32758390D02*
X55928095Y-32806009D01*
X55928095Y-32806009D02*
X55975714Y-32901247D01*
X55975714Y-32901247D02*
X55975714Y-33139342D01*
X55975714Y-33139342D02*
X55928095Y-33234580D01*
X55928095Y-33234580D02*
X55880476Y-33282200D01*
X55880476Y-33282200D02*
X55785238Y-33329819D01*
X55785238Y-33329819D02*
X55499524Y-33329819D01*
X55499524Y-33329819D02*
X55404286Y-33282200D01*
X55404286Y-33282200D02*
X55356667Y-33234580D01*
X93048095Y-60257319D02*
X93048095Y-61066842D01*
X93048095Y-61066842D02*
X93095714Y-61162080D01*
X93095714Y-61162080D02*
X93143333Y-61209700D01*
X93143333Y-61209700D02*
X93238571Y-61257319D01*
X93238571Y-61257319D02*
X93429047Y-61257319D01*
X93429047Y-61257319D02*
X93524285Y-61209700D01*
X93524285Y-61209700D02*
X93571904Y-61162080D01*
X93571904Y-61162080D02*
X93619523Y-61066842D01*
X93619523Y-61066842D02*
X93619523Y-60257319D01*
X94524285Y-60257319D02*
X94333809Y-60257319D01*
X94333809Y-60257319D02*
X94238571Y-60304938D01*
X94238571Y-60304938D02*
X94190952Y-60352557D01*
X94190952Y-60352557D02*
X94095714Y-60495414D01*
X94095714Y-60495414D02*
X94048095Y-60685890D01*
X94048095Y-60685890D02*
X94048095Y-61066842D01*
X94048095Y-61066842D02*
X94095714Y-61162080D01*
X94095714Y-61162080D02*
X94143333Y-61209700D01*
X94143333Y-61209700D02*
X94238571Y-61257319D01*
X94238571Y-61257319D02*
X94429047Y-61257319D01*
X94429047Y-61257319D02*
X94524285Y-61209700D01*
X94524285Y-61209700D02*
X94571904Y-61162080D01*
X94571904Y-61162080D02*
X94619523Y-61066842D01*
X94619523Y-61066842D02*
X94619523Y-60828747D01*
X94619523Y-60828747D02*
X94571904Y-60733509D01*
X94571904Y-60733509D02*
X94524285Y-60685890D01*
X94524285Y-60685890D02*
X94429047Y-60638271D01*
X94429047Y-60638271D02*
X94238571Y-60638271D01*
X94238571Y-60638271D02*
X94143333Y-60685890D01*
X94143333Y-60685890D02*
X94095714Y-60733509D01*
X94095714Y-60733509D02*
X94048095Y-60828747D01*
X173583333Y-96274819D02*
X173107143Y-96274819D01*
X173107143Y-96274819D02*
X173107143Y-95274819D01*
X174345238Y-95608152D02*
X174345238Y-96274819D01*
X174107143Y-95227200D02*
X173869048Y-95941485D01*
X173869048Y-95941485D02*
X174488095Y-95941485D01*
X61985714Y-90586104D02*
X61947618Y-90624200D01*
X61947618Y-90624200D02*
X61833333Y-90662295D01*
X61833333Y-90662295D02*
X61757142Y-90662295D01*
X61757142Y-90662295D02*
X61642856Y-90624200D01*
X61642856Y-90624200D02*
X61566666Y-90548009D01*
X61566666Y-90548009D02*
X61528571Y-90471819D01*
X61528571Y-90471819D02*
X61490475Y-90319438D01*
X61490475Y-90319438D02*
X61490475Y-90205152D01*
X61490475Y-90205152D02*
X61528571Y-90052771D01*
X61528571Y-90052771D02*
X61566666Y-89976580D01*
X61566666Y-89976580D02*
X61642856Y-89900390D01*
X61642856Y-89900390D02*
X61757142Y-89862295D01*
X61757142Y-89862295D02*
X61833333Y-89862295D01*
X61833333Y-89862295D02*
X61947618Y-89900390D01*
X61947618Y-89900390D02*
X61985714Y-89938485D01*
X62747618Y-90662295D02*
X62290475Y-90662295D01*
X62519047Y-90662295D02*
X62519047Y-89862295D01*
X62519047Y-89862295D02*
X62442856Y-89976580D01*
X62442856Y-89976580D02*
X62366666Y-90052771D01*
X62366666Y-90052771D02*
X62290475Y-90090866D01*
X63509523Y-90662295D02*
X63052380Y-90662295D01*
X63280952Y-90662295D02*
X63280952Y-89862295D01*
X63280952Y-89862295D02*
X63204761Y-89976580D01*
X63204761Y-89976580D02*
X63128571Y-90052771D01*
X63128571Y-90052771D02*
X63052380Y-90090866D01*
X78697142Y-90719580D02*
X78649523Y-90767200D01*
X78649523Y-90767200D02*
X78506666Y-90814819D01*
X78506666Y-90814819D02*
X78411428Y-90814819D01*
X78411428Y-90814819D02*
X78268571Y-90767200D01*
X78268571Y-90767200D02*
X78173333Y-90671961D01*
X78173333Y-90671961D02*
X78125714Y-90576723D01*
X78125714Y-90576723D02*
X78078095Y-90386247D01*
X78078095Y-90386247D02*
X78078095Y-90243390D01*
X78078095Y-90243390D02*
X78125714Y-90052914D01*
X78125714Y-90052914D02*
X78173333Y-89957676D01*
X78173333Y-89957676D02*
X78268571Y-89862438D01*
X78268571Y-89862438D02*
X78411428Y-89814819D01*
X78411428Y-89814819D02*
X78506666Y-89814819D01*
X78506666Y-89814819D02*
X78649523Y-89862438D01*
X78649523Y-89862438D02*
X78697142Y-89910057D01*
X79078095Y-89910057D02*
X79125714Y-89862438D01*
X79125714Y-89862438D02*
X79220952Y-89814819D01*
X79220952Y-89814819D02*
X79459047Y-89814819D01*
X79459047Y-89814819D02*
X79554285Y-89862438D01*
X79554285Y-89862438D02*
X79601904Y-89910057D01*
X79601904Y-89910057D02*
X79649523Y-90005295D01*
X79649523Y-90005295D02*
X79649523Y-90100533D01*
X79649523Y-90100533D02*
X79601904Y-90243390D01*
X79601904Y-90243390D02*
X79030476Y-90814819D01*
X79030476Y-90814819D02*
X79649523Y-90814819D01*
X80506666Y-90148152D02*
X80506666Y-90814819D01*
X80268571Y-89767200D02*
X80030476Y-90481485D01*
X80030476Y-90481485D02*
X80649523Y-90481485D01*
X62851905Y-76564819D02*
X62851905Y-75564819D01*
X62851905Y-75564819D02*
X63090000Y-75564819D01*
X63090000Y-75564819D02*
X63232857Y-75612438D01*
X63232857Y-75612438D02*
X63328095Y-75707676D01*
X63328095Y-75707676D02*
X63375714Y-75802914D01*
X63375714Y-75802914D02*
X63423333Y-75993390D01*
X63423333Y-75993390D02*
X63423333Y-76136247D01*
X63423333Y-76136247D02*
X63375714Y-76326723D01*
X63375714Y-76326723D02*
X63328095Y-76421961D01*
X63328095Y-76421961D02*
X63232857Y-76517200D01*
X63232857Y-76517200D02*
X63090000Y-76564819D01*
X63090000Y-76564819D02*
X62851905Y-76564819D01*
X64280476Y-75898152D02*
X64280476Y-76564819D01*
X64042381Y-75517200D02*
X63804286Y-76231485D01*
X63804286Y-76231485D02*
X64423333Y-76231485D01*
X180437142Y-65224819D02*
X180103809Y-64748628D01*
X179865714Y-65224819D02*
X179865714Y-64224819D01*
X179865714Y-64224819D02*
X180246666Y-64224819D01*
X180246666Y-64224819D02*
X180341904Y-64272438D01*
X180341904Y-64272438D02*
X180389523Y-64320057D01*
X180389523Y-64320057D02*
X180437142Y-64415295D01*
X180437142Y-64415295D02*
X180437142Y-64558152D01*
X180437142Y-64558152D02*
X180389523Y-64653390D01*
X180389523Y-64653390D02*
X180341904Y-64701009D01*
X180341904Y-64701009D02*
X180246666Y-64748628D01*
X180246666Y-64748628D02*
X179865714Y-64748628D01*
X180818095Y-64320057D02*
X180865714Y-64272438D01*
X180865714Y-64272438D02*
X180960952Y-64224819D01*
X180960952Y-64224819D02*
X181199047Y-64224819D01*
X181199047Y-64224819D02*
X181294285Y-64272438D01*
X181294285Y-64272438D02*
X181341904Y-64320057D01*
X181341904Y-64320057D02*
X181389523Y-64415295D01*
X181389523Y-64415295D02*
X181389523Y-64510533D01*
X181389523Y-64510533D02*
X181341904Y-64653390D01*
X181341904Y-64653390D02*
X180770476Y-65224819D01*
X180770476Y-65224819D02*
X181389523Y-65224819D01*
X182008571Y-64224819D02*
X182103809Y-64224819D01*
X182103809Y-64224819D02*
X182199047Y-64272438D01*
X182199047Y-64272438D02*
X182246666Y-64320057D01*
X182246666Y-64320057D02*
X182294285Y-64415295D01*
X182294285Y-64415295D02*
X182341904Y-64605771D01*
X182341904Y-64605771D02*
X182341904Y-64843866D01*
X182341904Y-64843866D02*
X182294285Y-65034342D01*
X182294285Y-65034342D02*
X182246666Y-65129580D01*
X182246666Y-65129580D02*
X182199047Y-65177200D01*
X182199047Y-65177200D02*
X182103809Y-65224819D01*
X182103809Y-65224819D02*
X182008571Y-65224819D01*
X182008571Y-65224819D02*
X181913333Y-65177200D01*
X181913333Y-65177200D02*
X181865714Y-65129580D01*
X181865714Y-65129580D02*
X181818095Y-65034342D01*
X181818095Y-65034342D02*
X181770476Y-64843866D01*
X181770476Y-64843866D02*
X181770476Y-64605771D01*
X181770476Y-64605771D02*
X181818095Y-64415295D01*
X181818095Y-64415295D02*
X181865714Y-64320057D01*
X181865714Y-64320057D02*
X181913333Y-64272438D01*
X181913333Y-64272438D02*
X182008571Y-64224819D01*
X133927142Y-69049580D02*
X133879523Y-69097200D01*
X133879523Y-69097200D02*
X133736666Y-69144819D01*
X133736666Y-69144819D02*
X133641428Y-69144819D01*
X133641428Y-69144819D02*
X133498571Y-69097200D01*
X133498571Y-69097200D02*
X133403333Y-69001961D01*
X133403333Y-69001961D02*
X133355714Y-68906723D01*
X133355714Y-68906723D02*
X133308095Y-68716247D01*
X133308095Y-68716247D02*
X133308095Y-68573390D01*
X133308095Y-68573390D02*
X133355714Y-68382914D01*
X133355714Y-68382914D02*
X133403333Y-68287676D01*
X133403333Y-68287676D02*
X133498571Y-68192438D01*
X133498571Y-68192438D02*
X133641428Y-68144819D01*
X133641428Y-68144819D02*
X133736666Y-68144819D01*
X133736666Y-68144819D02*
X133879523Y-68192438D01*
X133879523Y-68192438D02*
X133927142Y-68240057D01*
X134260476Y-68144819D02*
X134879523Y-68144819D01*
X134879523Y-68144819D02*
X134546190Y-68525771D01*
X134546190Y-68525771D02*
X134689047Y-68525771D01*
X134689047Y-68525771D02*
X134784285Y-68573390D01*
X134784285Y-68573390D02*
X134831904Y-68621009D01*
X134831904Y-68621009D02*
X134879523Y-68716247D01*
X134879523Y-68716247D02*
X134879523Y-68954342D01*
X134879523Y-68954342D02*
X134831904Y-69049580D01*
X134831904Y-69049580D02*
X134784285Y-69097200D01*
X134784285Y-69097200D02*
X134689047Y-69144819D01*
X134689047Y-69144819D02*
X134403333Y-69144819D01*
X134403333Y-69144819D02*
X134308095Y-69097200D01*
X134308095Y-69097200D02*
X134260476Y-69049580D01*
X135450952Y-68573390D02*
X135355714Y-68525771D01*
X135355714Y-68525771D02*
X135308095Y-68478152D01*
X135308095Y-68478152D02*
X135260476Y-68382914D01*
X135260476Y-68382914D02*
X135260476Y-68335295D01*
X135260476Y-68335295D02*
X135308095Y-68240057D01*
X135308095Y-68240057D02*
X135355714Y-68192438D01*
X135355714Y-68192438D02*
X135450952Y-68144819D01*
X135450952Y-68144819D02*
X135641428Y-68144819D01*
X135641428Y-68144819D02*
X135736666Y-68192438D01*
X135736666Y-68192438D02*
X135784285Y-68240057D01*
X135784285Y-68240057D02*
X135831904Y-68335295D01*
X135831904Y-68335295D02*
X135831904Y-68382914D01*
X135831904Y-68382914D02*
X135784285Y-68478152D01*
X135784285Y-68478152D02*
X135736666Y-68525771D01*
X135736666Y-68525771D02*
X135641428Y-68573390D01*
X135641428Y-68573390D02*
X135450952Y-68573390D01*
X135450952Y-68573390D02*
X135355714Y-68621009D01*
X135355714Y-68621009D02*
X135308095Y-68668628D01*
X135308095Y-68668628D02*
X135260476Y-68763866D01*
X135260476Y-68763866D02*
X135260476Y-68954342D01*
X135260476Y-68954342D02*
X135308095Y-69049580D01*
X135308095Y-69049580D02*
X135355714Y-69097200D01*
X135355714Y-69097200D02*
X135450952Y-69144819D01*
X135450952Y-69144819D02*
X135641428Y-69144819D01*
X135641428Y-69144819D02*
X135736666Y-69097200D01*
X135736666Y-69097200D02*
X135784285Y-69049580D01*
X135784285Y-69049580D02*
X135831904Y-68954342D01*
X135831904Y-68954342D02*
X135831904Y-68763866D01*
X135831904Y-68763866D02*
X135784285Y-68668628D01*
X135784285Y-68668628D02*
X135736666Y-68621009D01*
X135736666Y-68621009D02*
X135641428Y-68573390D01*
X173333333Y-94834819D02*
X172857143Y-94834819D01*
X172857143Y-94834819D02*
X172857143Y-93834819D01*
X173571429Y-93834819D02*
X174190476Y-93834819D01*
X174190476Y-93834819D02*
X173857143Y-94215771D01*
X173857143Y-94215771D02*
X174000000Y-94215771D01*
X174000000Y-94215771D02*
X174095238Y-94263390D01*
X174095238Y-94263390D02*
X174142857Y-94311009D01*
X174142857Y-94311009D02*
X174190476Y-94406247D01*
X174190476Y-94406247D02*
X174190476Y-94644342D01*
X174190476Y-94644342D02*
X174142857Y-94739580D01*
X174142857Y-94739580D02*
X174095238Y-94787200D01*
X174095238Y-94787200D02*
X174000000Y-94834819D01*
X174000000Y-94834819D02*
X173714286Y-94834819D01*
X173714286Y-94834819D02*
X173619048Y-94787200D01*
X173619048Y-94787200D02*
X173571429Y-94739580D01*
X56257142Y-74969580D02*
X56209523Y-75017200D01*
X56209523Y-75017200D02*
X56066666Y-75064819D01*
X56066666Y-75064819D02*
X55971428Y-75064819D01*
X55971428Y-75064819D02*
X55828571Y-75017200D01*
X55828571Y-75017200D02*
X55733333Y-74921961D01*
X55733333Y-74921961D02*
X55685714Y-74826723D01*
X55685714Y-74826723D02*
X55638095Y-74636247D01*
X55638095Y-74636247D02*
X55638095Y-74493390D01*
X55638095Y-74493390D02*
X55685714Y-74302914D01*
X55685714Y-74302914D02*
X55733333Y-74207676D01*
X55733333Y-74207676D02*
X55828571Y-74112438D01*
X55828571Y-74112438D02*
X55971428Y-74064819D01*
X55971428Y-74064819D02*
X56066666Y-74064819D01*
X56066666Y-74064819D02*
X56209523Y-74112438D01*
X56209523Y-74112438D02*
X56257142Y-74160057D01*
X57209523Y-75064819D02*
X56638095Y-75064819D01*
X56923809Y-75064819D02*
X56923809Y-74064819D01*
X56923809Y-74064819D02*
X56828571Y-74207676D01*
X56828571Y-74207676D02*
X56733333Y-74302914D01*
X56733333Y-74302914D02*
X56638095Y-74350533D01*
X57780952Y-74493390D02*
X57685714Y-74445771D01*
X57685714Y-74445771D02*
X57638095Y-74398152D01*
X57638095Y-74398152D02*
X57590476Y-74302914D01*
X57590476Y-74302914D02*
X57590476Y-74255295D01*
X57590476Y-74255295D02*
X57638095Y-74160057D01*
X57638095Y-74160057D02*
X57685714Y-74112438D01*
X57685714Y-74112438D02*
X57780952Y-74064819D01*
X57780952Y-74064819D02*
X57971428Y-74064819D01*
X57971428Y-74064819D02*
X58066666Y-74112438D01*
X58066666Y-74112438D02*
X58114285Y-74160057D01*
X58114285Y-74160057D02*
X58161904Y-74255295D01*
X58161904Y-74255295D02*
X58161904Y-74302914D01*
X58161904Y-74302914D02*
X58114285Y-74398152D01*
X58114285Y-74398152D02*
X58066666Y-74445771D01*
X58066666Y-74445771D02*
X57971428Y-74493390D01*
X57971428Y-74493390D02*
X57780952Y-74493390D01*
X57780952Y-74493390D02*
X57685714Y-74541009D01*
X57685714Y-74541009D02*
X57638095Y-74588628D01*
X57638095Y-74588628D02*
X57590476Y-74683866D01*
X57590476Y-74683866D02*
X57590476Y-74874342D01*
X57590476Y-74874342D02*
X57638095Y-74969580D01*
X57638095Y-74969580D02*
X57685714Y-75017200D01*
X57685714Y-75017200D02*
X57780952Y-75064819D01*
X57780952Y-75064819D02*
X57971428Y-75064819D01*
X57971428Y-75064819D02*
X58066666Y-75017200D01*
X58066666Y-75017200D02*
X58114285Y-74969580D01*
X58114285Y-74969580D02*
X58161904Y-74874342D01*
X58161904Y-74874342D02*
X58161904Y-74683866D01*
X58161904Y-74683866D02*
X58114285Y-74588628D01*
X58114285Y-74588628D02*
X58066666Y-74541009D01*
X58066666Y-74541009D02*
X57971428Y-74493390D01*
X59833333Y-84624819D02*
X59500000Y-84148628D01*
X59261905Y-84624819D02*
X59261905Y-83624819D01*
X59261905Y-83624819D02*
X59642857Y-83624819D01*
X59642857Y-83624819D02*
X59738095Y-83672438D01*
X59738095Y-83672438D02*
X59785714Y-83720057D01*
X59785714Y-83720057D02*
X59833333Y-83815295D01*
X59833333Y-83815295D02*
X59833333Y-83958152D01*
X59833333Y-83958152D02*
X59785714Y-84053390D01*
X59785714Y-84053390D02*
X59738095Y-84101009D01*
X59738095Y-84101009D02*
X59642857Y-84148628D01*
X59642857Y-84148628D02*
X59261905Y-84148628D01*
X60166667Y-83624819D02*
X60833333Y-83624819D01*
X60833333Y-83624819D02*
X60404762Y-84624819D01*
X79558095Y-98764819D02*
X79558095Y-99574342D01*
X79558095Y-99574342D02*
X79605714Y-99669580D01*
X79605714Y-99669580D02*
X79653333Y-99717200D01*
X79653333Y-99717200D02*
X79748571Y-99764819D01*
X79748571Y-99764819D02*
X79939047Y-99764819D01*
X79939047Y-99764819D02*
X80034285Y-99717200D01*
X80034285Y-99717200D02*
X80081904Y-99669580D01*
X80081904Y-99669580D02*
X80129523Y-99574342D01*
X80129523Y-99574342D02*
X80129523Y-98764819D01*
X80510476Y-98764819D02*
X81177142Y-98764819D01*
X81177142Y-98764819D02*
X80748571Y-99764819D01*
X95187142Y-64804819D02*
X94853809Y-64328628D01*
X94615714Y-64804819D02*
X94615714Y-63804819D01*
X94615714Y-63804819D02*
X94996666Y-63804819D01*
X94996666Y-63804819D02*
X95091904Y-63852438D01*
X95091904Y-63852438D02*
X95139523Y-63900057D01*
X95139523Y-63900057D02*
X95187142Y-63995295D01*
X95187142Y-63995295D02*
X95187142Y-64138152D01*
X95187142Y-64138152D02*
X95139523Y-64233390D01*
X95139523Y-64233390D02*
X95091904Y-64281009D01*
X95091904Y-64281009D02*
X94996666Y-64328628D01*
X94996666Y-64328628D02*
X94615714Y-64328628D01*
X96139523Y-64804819D02*
X95568095Y-64804819D01*
X95853809Y-64804819D02*
X95853809Y-63804819D01*
X95853809Y-63804819D02*
X95758571Y-63947676D01*
X95758571Y-63947676D02*
X95663333Y-64042914D01*
X95663333Y-64042914D02*
X95568095Y-64090533D01*
X96996666Y-63804819D02*
X96806190Y-63804819D01*
X96806190Y-63804819D02*
X96710952Y-63852438D01*
X96710952Y-63852438D02*
X96663333Y-63900057D01*
X96663333Y-63900057D02*
X96568095Y-64042914D01*
X96568095Y-64042914D02*
X96520476Y-64233390D01*
X96520476Y-64233390D02*
X96520476Y-64614342D01*
X96520476Y-64614342D02*
X96568095Y-64709580D01*
X96568095Y-64709580D02*
X96615714Y-64757200D01*
X96615714Y-64757200D02*
X96710952Y-64804819D01*
X96710952Y-64804819D02*
X96901428Y-64804819D01*
X96901428Y-64804819D02*
X96996666Y-64757200D01*
X96996666Y-64757200D02*
X97044285Y-64709580D01*
X97044285Y-64709580D02*
X97091904Y-64614342D01*
X97091904Y-64614342D02*
X97091904Y-64376247D01*
X97091904Y-64376247D02*
X97044285Y-64281009D01*
X97044285Y-64281009D02*
X96996666Y-64233390D01*
X96996666Y-64233390D02*
X96901428Y-64185771D01*
X96901428Y-64185771D02*
X96710952Y-64185771D01*
X96710952Y-64185771D02*
X96615714Y-64233390D01*
X96615714Y-64233390D02*
X96568095Y-64281009D01*
X96568095Y-64281009D02*
X96520476Y-64376247D01*
X101407200Y-81401904D02*
X101454819Y-81259047D01*
X101454819Y-81259047D02*
X101454819Y-81020952D01*
X101454819Y-81020952D02*
X101407200Y-80925714D01*
X101407200Y-80925714D02*
X101359580Y-80878095D01*
X101359580Y-80878095D02*
X101264342Y-80830476D01*
X101264342Y-80830476D02*
X101169104Y-80830476D01*
X101169104Y-80830476D02*
X101073866Y-80878095D01*
X101073866Y-80878095D02*
X101026247Y-80925714D01*
X101026247Y-80925714D02*
X100978628Y-81020952D01*
X100978628Y-81020952D02*
X100931009Y-81211428D01*
X100931009Y-81211428D02*
X100883390Y-81306666D01*
X100883390Y-81306666D02*
X100835771Y-81354285D01*
X100835771Y-81354285D02*
X100740533Y-81401904D01*
X100740533Y-81401904D02*
X100645295Y-81401904D01*
X100645295Y-81401904D02*
X100550057Y-81354285D01*
X100550057Y-81354285D02*
X100502438Y-81306666D01*
X100502438Y-81306666D02*
X100454819Y-81211428D01*
X100454819Y-81211428D02*
X100454819Y-80973333D01*
X100454819Y-80973333D02*
X100502438Y-80830476D01*
X101454819Y-79878095D02*
X101454819Y-80449523D01*
X101454819Y-80163809D02*
X100454819Y-80163809D01*
X100454819Y-80163809D02*
X100597676Y-80259047D01*
X100597676Y-80259047D02*
X100692914Y-80354285D01*
X100692914Y-80354285D02*
X100740533Y-80449523D01*
X176044642Y-85214580D02*
X175997023Y-85262200D01*
X175997023Y-85262200D02*
X175854166Y-85309819D01*
X175854166Y-85309819D02*
X175758928Y-85309819D01*
X175758928Y-85309819D02*
X175616071Y-85262200D01*
X175616071Y-85262200D02*
X175520833Y-85166961D01*
X175520833Y-85166961D02*
X175473214Y-85071723D01*
X175473214Y-85071723D02*
X175425595Y-84881247D01*
X175425595Y-84881247D02*
X175425595Y-84738390D01*
X175425595Y-84738390D02*
X175473214Y-84547914D01*
X175473214Y-84547914D02*
X175520833Y-84452676D01*
X175520833Y-84452676D02*
X175616071Y-84357438D01*
X175616071Y-84357438D02*
X175758928Y-84309819D01*
X175758928Y-84309819D02*
X175854166Y-84309819D01*
X175854166Y-84309819D02*
X175997023Y-84357438D01*
X175997023Y-84357438D02*
X176044642Y-84405057D01*
X176901785Y-84643152D02*
X176901785Y-85309819D01*
X176663690Y-84262200D02*
X176425595Y-84976485D01*
X176425595Y-84976485D02*
X177044642Y-84976485D01*
X177377976Y-84405057D02*
X177425595Y-84357438D01*
X177425595Y-84357438D02*
X177520833Y-84309819D01*
X177520833Y-84309819D02*
X177758928Y-84309819D01*
X177758928Y-84309819D02*
X177854166Y-84357438D01*
X177854166Y-84357438D02*
X177901785Y-84405057D01*
X177901785Y-84405057D02*
X177949404Y-84500295D01*
X177949404Y-84500295D02*
X177949404Y-84595533D01*
X177949404Y-84595533D02*
X177901785Y-84738390D01*
X177901785Y-84738390D02*
X177330357Y-85309819D01*
X177330357Y-85309819D02*
X177949404Y-85309819D01*
X125781666Y-36079819D02*
X125781666Y-36794104D01*
X125781666Y-36794104D02*
X125734047Y-36936961D01*
X125734047Y-36936961D02*
X125638809Y-37032200D01*
X125638809Y-37032200D02*
X125495952Y-37079819D01*
X125495952Y-37079819D02*
X125400714Y-37079819D01*
X126162619Y-36079819D02*
X126829285Y-36079819D01*
X126829285Y-36079819D02*
X126400714Y-37079819D01*
X55723333Y-91864819D02*
X55390000Y-91388628D01*
X55151905Y-91864819D02*
X55151905Y-90864819D01*
X55151905Y-90864819D02*
X55532857Y-90864819D01*
X55532857Y-90864819D02*
X55628095Y-90912438D01*
X55628095Y-90912438D02*
X55675714Y-90960057D01*
X55675714Y-90960057D02*
X55723333Y-91055295D01*
X55723333Y-91055295D02*
X55723333Y-91198152D01*
X55723333Y-91198152D02*
X55675714Y-91293390D01*
X55675714Y-91293390D02*
X55628095Y-91341009D01*
X55628095Y-91341009D02*
X55532857Y-91388628D01*
X55532857Y-91388628D02*
X55151905Y-91388628D01*
X56294762Y-91293390D02*
X56199524Y-91245771D01*
X56199524Y-91245771D02*
X56151905Y-91198152D01*
X56151905Y-91198152D02*
X56104286Y-91102914D01*
X56104286Y-91102914D02*
X56104286Y-91055295D01*
X56104286Y-91055295D02*
X56151905Y-90960057D01*
X56151905Y-90960057D02*
X56199524Y-90912438D01*
X56199524Y-90912438D02*
X56294762Y-90864819D01*
X56294762Y-90864819D02*
X56485238Y-90864819D01*
X56485238Y-90864819D02*
X56580476Y-90912438D01*
X56580476Y-90912438D02*
X56628095Y-90960057D01*
X56628095Y-90960057D02*
X56675714Y-91055295D01*
X56675714Y-91055295D02*
X56675714Y-91102914D01*
X56675714Y-91102914D02*
X56628095Y-91198152D01*
X56628095Y-91198152D02*
X56580476Y-91245771D01*
X56580476Y-91245771D02*
X56485238Y-91293390D01*
X56485238Y-91293390D02*
X56294762Y-91293390D01*
X56294762Y-91293390D02*
X56199524Y-91341009D01*
X56199524Y-91341009D02*
X56151905Y-91388628D01*
X56151905Y-91388628D02*
X56104286Y-91483866D01*
X56104286Y-91483866D02*
X56104286Y-91674342D01*
X56104286Y-91674342D02*
X56151905Y-91769580D01*
X56151905Y-91769580D02*
X56199524Y-91817200D01*
X56199524Y-91817200D02*
X56294762Y-91864819D01*
X56294762Y-91864819D02*
X56485238Y-91864819D01*
X56485238Y-91864819D02*
X56580476Y-91817200D01*
X56580476Y-91817200D02*
X56628095Y-91769580D01*
X56628095Y-91769580D02*
X56675714Y-91674342D01*
X56675714Y-91674342D02*
X56675714Y-91483866D01*
X56675714Y-91483866D02*
X56628095Y-91388628D01*
X56628095Y-91388628D02*
X56580476Y-91341009D01*
X56580476Y-91341009D02*
X56485238Y-91293390D01*
X141674819Y-70387857D02*
X141198628Y-70721190D01*
X141674819Y-70959285D02*
X140674819Y-70959285D01*
X140674819Y-70959285D02*
X140674819Y-70578333D01*
X140674819Y-70578333D02*
X140722438Y-70483095D01*
X140722438Y-70483095D02*
X140770057Y-70435476D01*
X140770057Y-70435476D02*
X140865295Y-70387857D01*
X140865295Y-70387857D02*
X141008152Y-70387857D01*
X141008152Y-70387857D02*
X141103390Y-70435476D01*
X141103390Y-70435476D02*
X141151009Y-70483095D01*
X141151009Y-70483095D02*
X141198628Y-70578333D01*
X141198628Y-70578333D02*
X141198628Y-70959285D01*
X140770057Y-70006904D02*
X140722438Y-69959285D01*
X140722438Y-69959285D02*
X140674819Y-69864047D01*
X140674819Y-69864047D02*
X140674819Y-69625952D01*
X140674819Y-69625952D02*
X140722438Y-69530714D01*
X140722438Y-69530714D02*
X140770057Y-69483095D01*
X140770057Y-69483095D02*
X140865295Y-69435476D01*
X140865295Y-69435476D02*
X140960533Y-69435476D01*
X140960533Y-69435476D02*
X141103390Y-69483095D01*
X141103390Y-69483095D02*
X141674819Y-70054523D01*
X141674819Y-70054523D02*
X141674819Y-69435476D01*
X140674819Y-69102142D02*
X140674819Y-68435476D01*
X140674819Y-68435476D02*
X141674819Y-68864047D01*
X85516931Y-33063998D02*
X85516931Y-33874759D01*
X85516931Y-33874759D02*
X85564622Y-33970143D01*
X85564622Y-33970143D02*
X85612314Y-34017835D01*
X85612314Y-34017835D02*
X85707698Y-34065526D01*
X85707698Y-34065526D02*
X85898465Y-34065526D01*
X85898465Y-34065526D02*
X85993849Y-34017835D01*
X85993849Y-34017835D02*
X86041540Y-33970143D01*
X86041540Y-33970143D02*
X86089232Y-33874759D01*
X86089232Y-33874759D02*
X86089232Y-33063998D01*
X87090760Y-34065526D02*
X86518459Y-34065526D01*
X86804610Y-34065526D02*
X86804610Y-33063998D01*
X86804610Y-33063998D02*
X86709226Y-33207074D01*
X86709226Y-33207074D02*
X86613842Y-33302457D01*
X86613842Y-33302457D02*
X86518459Y-33350149D01*
X66842142Y-74759819D02*
X66508809Y-74283628D01*
X66270714Y-74759819D02*
X66270714Y-73759819D01*
X66270714Y-73759819D02*
X66651666Y-73759819D01*
X66651666Y-73759819D02*
X66746904Y-73807438D01*
X66746904Y-73807438D02*
X66794523Y-73855057D01*
X66794523Y-73855057D02*
X66842142Y-73950295D01*
X66842142Y-73950295D02*
X66842142Y-74093152D01*
X66842142Y-74093152D02*
X66794523Y-74188390D01*
X66794523Y-74188390D02*
X66746904Y-74236009D01*
X66746904Y-74236009D02*
X66651666Y-74283628D01*
X66651666Y-74283628D02*
X66270714Y-74283628D01*
X67794523Y-74759819D02*
X67223095Y-74759819D01*
X67508809Y-74759819D02*
X67508809Y-73759819D01*
X67508809Y-73759819D02*
X67413571Y-73902676D01*
X67413571Y-73902676D02*
X67318333Y-73997914D01*
X67318333Y-73997914D02*
X67223095Y-74045533D01*
X68651666Y-74093152D02*
X68651666Y-74759819D01*
X68413571Y-73712200D02*
X68175476Y-74426485D01*
X68175476Y-74426485D02*
X68794523Y-74426485D01*
X182844819Y-79356189D02*
X181844819Y-79356189D01*
X182844819Y-78879999D02*
X181844819Y-78879999D01*
X181844819Y-78879999D02*
X181844819Y-78641904D01*
X181844819Y-78641904D02*
X181892438Y-78499047D01*
X181892438Y-78499047D02*
X181987676Y-78403809D01*
X181987676Y-78403809D02*
X182082914Y-78356190D01*
X182082914Y-78356190D02*
X182273390Y-78308571D01*
X182273390Y-78308571D02*
X182416247Y-78308571D01*
X182416247Y-78308571D02*
X182606723Y-78356190D01*
X182606723Y-78356190D02*
X182701961Y-78403809D01*
X182701961Y-78403809D02*
X182797200Y-78499047D01*
X182797200Y-78499047D02*
X182844819Y-78641904D01*
X182844819Y-78641904D02*
X182844819Y-78879999D01*
X182844819Y-77356190D02*
X182844819Y-77927618D01*
X182844819Y-77641904D02*
X181844819Y-77641904D01*
X181844819Y-77641904D02*
X181987676Y-77737142D01*
X181987676Y-77737142D02*
X182082914Y-77832380D01*
X182082914Y-77832380D02*
X182130533Y-77927618D01*
X95272142Y-63439819D02*
X94938809Y-62963628D01*
X94700714Y-63439819D02*
X94700714Y-62439819D01*
X94700714Y-62439819D02*
X95081666Y-62439819D01*
X95081666Y-62439819D02*
X95176904Y-62487438D01*
X95176904Y-62487438D02*
X95224523Y-62535057D01*
X95224523Y-62535057D02*
X95272142Y-62630295D01*
X95272142Y-62630295D02*
X95272142Y-62773152D01*
X95272142Y-62773152D02*
X95224523Y-62868390D01*
X95224523Y-62868390D02*
X95176904Y-62916009D01*
X95176904Y-62916009D02*
X95081666Y-62963628D01*
X95081666Y-62963628D02*
X94700714Y-62963628D01*
X96224523Y-63439819D02*
X95653095Y-63439819D01*
X95938809Y-63439819D02*
X95938809Y-62439819D01*
X95938809Y-62439819D02*
X95843571Y-62582676D01*
X95843571Y-62582676D02*
X95748333Y-62677914D01*
X95748333Y-62677914D02*
X95653095Y-62725533D01*
X96557857Y-62439819D02*
X97224523Y-62439819D01*
X97224523Y-62439819D02*
X96795952Y-63439819D01*
X151512142Y-33084819D02*
X151178809Y-32608628D01*
X150940714Y-33084819D02*
X150940714Y-32084819D01*
X150940714Y-32084819D02*
X151321666Y-32084819D01*
X151321666Y-32084819D02*
X151416904Y-32132438D01*
X151416904Y-32132438D02*
X151464523Y-32180057D01*
X151464523Y-32180057D02*
X151512142Y-32275295D01*
X151512142Y-32275295D02*
X151512142Y-32418152D01*
X151512142Y-32418152D02*
X151464523Y-32513390D01*
X151464523Y-32513390D02*
X151416904Y-32561009D01*
X151416904Y-32561009D02*
X151321666Y-32608628D01*
X151321666Y-32608628D02*
X150940714Y-32608628D01*
X151893095Y-32180057D02*
X151940714Y-32132438D01*
X151940714Y-32132438D02*
X152035952Y-32084819D01*
X152035952Y-32084819D02*
X152274047Y-32084819D01*
X152274047Y-32084819D02*
X152369285Y-32132438D01*
X152369285Y-32132438D02*
X152416904Y-32180057D01*
X152416904Y-32180057D02*
X152464523Y-32275295D01*
X152464523Y-32275295D02*
X152464523Y-32370533D01*
X152464523Y-32370533D02*
X152416904Y-32513390D01*
X152416904Y-32513390D02*
X151845476Y-33084819D01*
X151845476Y-33084819D02*
X152464523Y-33084819D01*
X152845476Y-32180057D02*
X152893095Y-32132438D01*
X152893095Y-32132438D02*
X152988333Y-32084819D01*
X152988333Y-32084819D02*
X153226428Y-32084819D01*
X153226428Y-32084819D02*
X153321666Y-32132438D01*
X153321666Y-32132438D02*
X153369285Y-32180057D01*
X153369285Y-32180057D02*
X153416904Y-32275295D01*
X153416904Y-32275295D02*
X153416904Y-32370533D01*
X153416904Y-32370533D02*
X153369285Y-32513390D01*
X153369285Y-32513390D02*
X152797857Y-33084819D01*
X152797857Y-33084819D02*
X153416904Y-33084819D01*
X124687142Y-74669580D02*
X124639523Y-74717200D01*
X124639523Y-74717200D02*
X124496666Y-74764819D01*
X124496666Y-74764819D02*
X124401428Y-74764819D01*
X124401428Y-74764819D02*
X124258571Y-74717200D01*
X124258571Y-74717200D02*
X124163333Y-74621961D01*
X124163333Y-74621961D02*
X124115714Y-74526723D01*
X124115714Y-74526723D02*
X124068095Y-74336247D01*
X124068095Y-74336247D02*
X124068095Y-74193390D01*
X124068095Y-74193390D02*
X124115714Y-74002914D01*
X124115714Y-74002914D02*
X124163333Y-73907676D01*
X124163333Y-73907676D02*
X124258571Y-73812438D01*
X124258571Y-73812438D02*
X124401428Y-73764819D01*
X124401428Y-73764819D02*
X124496666Y-73764819D01*
X124496666Y-73764819D02*
X124639523Y-73812438D01*
X124639523Y-73812438D02*
X124687142Y-73860057D01*
X125020476Y-73764819D02*
X125639523Y-73764819D01*
X125639523Y-73764819D02*
X125306190Y-74145771D01*
X125306190Y-74145771D02*
X125449047Y-74145771D01*
X125449047Y-74145771D02*
X125544285Y-74193390D01*
X125544285Y-74193390D02*
X125591904Y-74241009D01*
X125591904Y-74241009D02*
X125639523Y-74336247D01*
X125639523Y-74336247D02*
X125639523Y-74574342D01*
X125639523Y-74574342D02*
X125591904Y-74669580D01*
X125591904Y-74669580D02*
X125544285Y-74717200D01*
X125544285Y-74717200D02*
X125449047Y-74764819D01*
X125449047Y-74764819D02*
X125163333Y-74764819D01*
X125163333Y-74764819D02*
X125068095Y-74717200D01*
X125068095Y-74717200D02*
X125020476Y-74669580D01*
X125972857Y-73764819D02*
X126639523Y-73764819D01*
X126639523Y-73764819D02*
X126210952Y-74764819D01*
D11*
X48859047Y-91095270D02*
X48738095Y-91034794D01*
X48738095Y-91034794D02*
X48617142Y-90913842D01*
X48617142Y-90913842D02*
X48435714Y-90732413D01*
X48435714Y-90732413D02*
X48314761Y-90671937D01*
X48314761Y-90671937D02*
X48193809Y-90671937D01*
X48254285Y-90974318D02*
X48133333Y-90913842D01*
X48133333Y-90913842D02*
X48012380Y-90792889D01*
X48012380Y-90792889D02*
X47951904Y-90550984D01*
X47951904Y-90550984D02*
X47951904Y-90127651D01*
X47951904Y-90127651D02*
X48012380Y-89885746D01*
X48012380Y-89885746D02*
X48133333Y-89764794D01*
X48133333Y-89764794D02*
X48254285Y-89704318D01*
X48254285Y-89704318D02*
X48496190Y-89704318D01*
X48496190Y-89704318D02*
X48617142Y-89764794D01*
X48617142Y-89764794D02*
X48738095Y-89885746D01*
X48738095Y-89885746D02*
X48798571Y-90127651D01*
X48798571Y-90127651D02*
X48798571Y-90550984D01*
X48798571Y-90550984D02*
X48738095Y-90792889D01*
X48738095Y-90792889D02*
X48617142Y-90913842D01*
X48617142Y-90913842D02*
X48496190Y-90974318D01*
X48496190Y-90974318D02*
X48254285Y-90974318D01*
X50008095Y-90974318D02*
X49282380Y-90974318D01*
X49645237Y-90974318D02*
X49645237Y-89704318D01*
X49645237Y-89704318D02*
X49524285Y-89885746D01*
X49524285Y-89885746D02*
X49403333Y-90006699D01*
X49403333Y-90006699D02*
X49282380Y-90067175D01*
D10*
X56364642Y-71809819D02*
X56031309Y-71333628D01*
X55793214Y-71809819D02*
X55793214Y-70809819D01*
X55793214Y-70809819D02*
X56174166Y-70809819D01*
X56174166Y-70809819D02*
X56269404Y-70857438D01*
X56269404Y-70857438D02*
X56317023Y-70905057D01*
X56317023Y-70905057D02*
X56364642Y-71000295D01*
X56364642Y-71000295D02*
X56364642Y-71143152D01*
X56364642Y-71143152D02*
X56317023Y-71238390D01*
X56317023Y-71238390D02*
X56269404Y-71286009D01*
X56269404Y-71286009D02*
X56174166Y-71333628D01*
X56174166Y-71333628D02*
X55793214Y-71333628D01*
X57317023Y-71809819D02*
X56745595Y-71809819D01*
X57031309Y-71809819D02*
X57031309Y-70809819D01*
X57031309Y-70809819D02*
X56936071Y-70952676D01*
X56936071Y-70952676D02*
X56840833Y-71047914D01*
X56840833Y-71047914D02*
X56745595Y-71095533D01*
X57650357Y-70809819D02*
X58269404Y-70809819D01*
X58269404Y-70809819D02*
X57936071Y-71190771D01*
X57936071Y-71190771D02*
X58078928Y-71190771D01*
X58078928Y-71190771D02*
X58174166Y-71238390D01*
X58174166Y-71238390D02*
X58221785Y-71286009D01*
X58221785Y-71286009D02*
X58269404Y-71381247D01*
X58269404Y-71381247D02*
X58269404Y-71619342D01*
X58269404Y-71619342D02*
X58221785Y-71714580D01*
X58221785Y-71714580D02*
X58174166Y-71762200D01*
X58174166Y-71762200D02*
X58078928Y-71809819D01*
X58078928Y-71809819D02*
X57793214Y-71809819D01*
X57793214Y-71809819D02*
X57697976Y-71762200D01*
X57697976Y-71762200D02*
X57650357Y-71714580D01*
X53743333Y-76509580D02*
X53695714Y-76557200D01*
X53695714Y-76557200D02*
X53552857Y-76604819D01*
X53552857Y-76604819D02*
X53457619Y-76604819D01*
X53457619Y-76604819D02*
X53314762Y-76557200D01*
X53314762Y-76557200D02*
X53219524Y-76461961D01*
X53219524Y-76461961D02*
X53171905Y-76366723D01*
X53171905Y-76366723D02*
X53124286Y-76176247D01*
X53124286Y-76176247D02*
X53124286Y-76033390D01*
X53124286Y-76033390D02*
X53171905Y-75842914D01*
X53171905Y-75842914D02*
X53219524Y-75747676D01*
X53219524Y-75747676D02*
X53314762Y-75652438D01*
X53314762Y-75652438D02*
X53457619Y-75604819D01*
X53457619Y-75604819D02*
X53552857Y-75604819D01*
X53552857Y-75604819D02*
X53695714Y-75652438D01*
X53695714Y-75652438D02*
X53743333Y-75700057D01*
X54314762Y-76033390D02*
X54219524Y-75985771D01*
X54219524Y-75985771D02*
X54171905Y-75938152D01*
X54171905Y-75938152D02*
X54124286Y-75842914D01*
X54124286Y-75842914D02*
X54124286Y-75795295D01*
X54124286Y-75795295D02*
X54171905Y-75700057D01*
X54171905Y-75700057D02*
X54219524Y-75652438D01*
X54219524Y-75652438D02*
X54314762Y-75604819D01*
X54314762Y-75604819D02*
X54505238Y-75604819D01*
X54505238Y-75604819D02*
X54600476Y-75652438D01*
X54600476Y-75652438D02*
X54648095Y-75700057D01*
X54648095Y-75700057D02*
X54695714Y-75795295D01*
X54695714Y-75795295D02*
X54695714Y-75842914D01*
X54695714Y-75842914D02*
X54648095Y-75938152D01*
X54648095Y-75938152D02*
X54600476Y-75985771D01*
X54600476Y-75985771D02*
X54505238Y-76033390D01*
X54505238Y-76033390D02*
X54314762Y-76033390D01*
X54314762Y-76033390D02*
X54219524Y-76081009D01*
X54219524Y-76081009D02*
X54171905Y-76128628D01*
X54171905Y-76128628D02*
X54124286Y-76223866D01*
X54124286Y-76223866D02*
X54124286Y-76414342D01*
X54124286Y-76414342D02*
X54171905Y-76509580D01*
X54171905Y-76509580D02*
X54219524Y-76557200D01*
X54219524Y-76557200D02*
X54314762Y-76604819D01*
X54314762Y-76604819D02*
X54505238Y-76604819D01*
X54505238Y-76604819D02*
X54600476Y-76557200D01*
X54600476Y-76557200D02*
X54648095Y-76509580D01*
X54648095Y-76509580D02*
X54695714Y-76414342D01*
X54695714Y-76414342D02*
X54695714Y-76223866D01*
X54695714Y-76223866D02*
X54648095Y-76128628D01*
X54648095Y-76128628D02*
X54600476Y-76081009D01*
X54600476Y-76081009D02*
X54505238Y-76033390D01*
X101159580Y-72373810D02*
X101207200Y-72421429D01*
X101207200Y-72421429D02*
X101254819Y-72564286D01*
X101254819Y-72564286D02*
X101254819Y-72659524D01*
X101254819Y-72659524D02*
X101207200Y-72802381D01*
X101207200Y-72802381D02*
X101111961Y-72897619D01*
X101111961Y-72897619D02*
X101016723Y-72945238D01*
X101016723Y-72945238D02*
X100826247Y-72992857D01*
X100826247Y-72992857D02*
X100683390Y-72992857D01*
X100683390Y-72992857D02*
X100492914Y-72945238D01*
X100492914Y-72945238D02*
X100397676Y-72897619D01*
X100397676Y-72897619D02*
X100302438Y-72802381D01*
X100302438Y-72802381D02*
X100254819Y-72659524D01*
X100254819Y-72659524D02*
X100254819Y-72564286D01*
X100254819Y-72564286D02*
X100302438Y-72421429D01*
X100302438Y-72421429D02*
X100350057Y-72373810D01*
X100588152Y-72088095D02*
X100588152Y-71707143D01*
X100254819Y-71945238D02*
X101111961Y-71945238D01*
X101111961Y-71945238D02*
X101207200Y-71897619D01*
X101207200Y-71897619D02*
X101254819Y-71802381D01*
X101254819Y-71802381D02*
X101254819Y-71707143D01*
X101254819Y-71373809D02*
X100588152Y-71373809D01*
X100778628Y-71373809D02*
X100683390Y-71326190D01*
X100683390Y-71326190D02*
X100635771Y-71278571D01*
X100635771Y-71278571D02*
X100588152Y-71183333D01*
X100588152Y-71183333D02*
X100588152Y-71088095D01*
X101254819Y-70611904D02*
X101207200Y-70707142D01*
X101207200Y-70707142D02*
X101111961Y-70754761D01*
X101111961Y-70754761D02*
X100254819Y-70754761D01*
X101254819Y-69707142D02*
X101254819Y-70278570D01*
X101254819Y-69992856D02*
X100254819Y-69992856D01*
X100254819Y-69992856D02*
X100397676Y-70088094D01*
X100397676Y-70088094D02*
X100492914Y-70183332D01*
X100492914Y-70183332D02*
X100540533Y-70278570D01*
X49786667Y-37906104D02*
X49748571Y-37944200D01*
X49748571Y-37944200D02*
X49634286Y-37982295D01*
X49634286Y-37982295D02*
X49558095Y-37982295D01*
X49558095Y-37982295D02*
X49443809Y-37944200D01*
X49443809Y-37944200D02*
X49367619Y-37868009D01*
X49367619Y-37868009D02*
X49329524Y-37791819D01*
X49329524Y-37791819D02*
X49291428Y-37639438D01*
X49291428Y-37639438D02*
X49291428Y-37525152D01*
X49291428Y-37525152D02*
X49329524Y-37372771D01*
X49329524Y-37372771D02*
X49367619Y-37296580D01*
X49367619Y-37296580D02*
X49443809Y-37220390D01*
X49443809Y-37220390D02*
X49558095Y-37182295D01*
X49558095Y-37182295D02*
X49634286Y-37182295D01*
X49634286Y-37182295D02*
X49748571Y-37220390D01*
X49748571Y-37220390D02*
X49786667Y-37258485D01*
X50472381Y-37448961D02*
X50472381Y-37982295D01*
X50281905Y-37144200D02*
X50091428Y-37715628D01*
X50091428Y-37715628D02*
X50586667Y-37715628D01*
X48405595Y-83674819D02*
X48405595Y-84484342D01*
X48405595Y-84484342D02*
X48453214Y-84579580D01*
X48453214Y-84579580D02*
X48500833Y-84627200D01*
X48500833Y-84627200D02*
X48596071Y-84674819D01*
X48596071Y-84674819D02*
X48786547Y-84674819D01*
X48786547Y-84674819D02*
X48881785Y-84627200D01*
X48881785Y-84627200D02*
X48929404Y-84579580D01*
X48929404Y-84579580D02*
X48977023Y-84484342D01*
X48977023Y-84484342D02*
X48977023Y-83674819D01*
X49357976Y-83674819D02*
X49977023Y-83674819D01*
X49977023Y-83674819D02*
X49643690Y-84055771D01*
X49643690Y-84055771D02*
X49786547Y-84055771D01*
X49786547Y-84055771D02*
X49881785Y-84103390D01*
X49881785Y-84103390D02*
X49929404Y-84151009D01*
X49929404Y-84151009D02*
X49977023Y-84246247D01*
X49977023Y-84246247D02*
X49977023Y-84484342D01*
X49977023Y-84484342D02*
X49929404Y-84579580D01*
X49929404Y-84579580D02*
X49881785Y-84627200D01*
X49881785Y-84627200D02*
X49786547Y-84674819D01*
X49786547Y-84674819D02*
X49500833Y-84674819D01*
X49500833Y-84674819D02*
X49405595Y-84627200D01*
X49405595Y-84627200D02*
X49357976Y-84579580D01*
X77170057Y-59635238D02*
X77122438Y-59730476D01*
X77122438Y-59730476D02*
X77027200Y-59825714D01*
X77027200Y-59825714D02*
X76884342Y-59968571D01*
X76884342Y-59968571D02*
X76836723Y-60063809D01*
X76836723Y-60063809D02*
X76836723Y-60159047D01*
X77074819Y-60111428D02*
X77027200Y-60206666D01*
X77027200Y-60206666D02*
X76931961Y-60301904D01*
X76931961Y-60301904D02*
X76741485Y-60349523D01*
X76741485Y-60349523D02*
X76408152Y-60349523D01*
X76408152Y-60349523D02*
X76217676Y-60301904D01*
X76217676Y-60301904D02*
X76122438Y-60206666D01*
X76122438Y-60206666D02*
X76074819Y-60111428D01*
X76074819Y-60111428D02*
X76074819Y-59920952D01*
X76074819Y-59920952D02*
X76122438Y-59825714D01*
X76122438Y-59825714D02*
X76217676Y-59730476D01*
X76217676Y-59730476D02*
X76408152Y-59682857D01*
X76408152Y-59682857D02*
X76741485Y-59682857D01*
X76741485Y-59682857D02*
X76931961Y-59730476D01*
X76931961Y-59730476D02*
X77027200Y-59825714D01*
X77027200Y-59825714D02*
X77074819Y-59920952D01*
X77074819Y-59920952D02*
X77074819Y-60111428D01*
X76170057Y-59301904D02*
X76122438Y-59254285D01*
X76122438Y-59254285D02*
X76074819Y-59159047D01*
X76074819Y-59159047D02*
X76074819Y-58920952D01*
X76074819Y-58920952D02*
X76122438Y-58825714D01*
X76122438Y-58825714D02*
X76170057Y-58778095D01*
X76170057Y-58778095D02*
X76265295Y-58730476D01*
X76265295Y-58730476D02*
X76360533Y-58730476D01*
X76360533Y-58730476D02*
X76503390Y-58778095D01*
X76503390Y-58778095D02*
X77074819Y-59349523D01*
X77074819Y-59349523D02*
X77074819Y-58730476D01*
X69882142Y-97604580D02*
X69834523Y-97652200D01*
X69834523Y-97652200D02*
X69691666Y-97699819D01*
X69691666Y-97699819D02*
X69596428Y-97699819D01*
X69596428Y-97699819D02*
X69453571Y-97652200D01*
X69453571Y-97652200D02*
X69358333Y-97556961D01*
X69358333Y-97556961D02*
X69310714Y-97461723D01*
X69310714Y-97461723D02*
X69263095Y-97271247D01*
X69263095Y-97271247D02*
X69263095Y-97128390D01*
X69263095Y-97128390D02*
X69310714Y-96937914D01*
X69310714Y-96937914D02*
X69358333Y-96842676D01*
X69358333Y-96842676D02*
X69453571Y-96747438D01*
X69453571Y-96747438D02*
X69596428Y-96699819D01*
X69596428Y-96699819D02*
X69691666Y-96699819D01*
X69691666Y-96699819D02*
X69834523Y-96747438D01*
X69834523Y-96747438D02*
X69882142Y-96795057D01*
X70834523Y-97699819D02*
X70263095Y-97699819D01*
X70548809Y-97699819D02*
X70548809Y-96699819D01*
X70548809Y-96699819D02*
X70453571Y-96842676D01*
X70453571Y-96842676D02*
X70358333Y-96937914D01*
X70358333Y-96937914D02*
X70263095Y-96985533D01*
X71310714Y-97699819D02*
X71501190Y-97699819D01*
X71501190Y-97699819D02*
X71596428Y-97652200D01*
X71596428Y-97652200D02*
X71644047Y-97604580D01*
X71644047Y-97604580D02*
X71739285Y-97461723D01*
X71739285Y-97461723D02*
X71786904Y-97271247D01*
X71786904Y-97271247D02*
X71786904Y-96890295D01*
X71786904Y-96890295D02*
X71739285Y-96795057D01*
X71739285Y-96795057D02*
X71691666Y-96747438D01*
X71691666Y-96747438D02*
X71596428Y-96699819D01*
X71596428Y-96699819D02*
X71405952Y-96699819D01*
X71405952Y-96699819D02*
X71310714Y-96747438D01*
X71310714Y-96747438D02*
X71263095Y-96795057D01*
X71263095Y-96795057D02*
X71215476Y-96890295D01*
X71215476Y-96890295D02*
X71215476Y-97128390D01*
X71215476Y-97128390D02*
X71263095Y-97223628D01*
X71263095Y-97223628D02*
X71310714Y-97271247D01*
X71310714Y-97271247D02*
X71405952Y-97318866D01*
X71405952Y-97318866D02*
X71596428Y-97318866D01*
X71596428Y-97318866D02*
X71691666Y-97271247D01*
X71691666Y-97271247D02*
X71739285Y-97223628D01*
X71739285Y-97223628D02*
X71786904Y-97128390D01*
X175847142Y-82969580D02*
X175799523Y-83017200D01*
X175799523Y-83017200D02*
X175656666Y-83064819D01*
X175656666Y-83064819D02*
X175561428Y-83064819D01*
X175561428Y-83064819D02*
X175418571Y-83017200D01*
X175418571Y-83017200D02*
X175323333Y-82921961D01*
X175323333Y-82921961D02*
X175275714Y-82826723D01*
X175275714Y-82826723D02*
X175228095Y-82636247D01*
X175228095Y-82636247D02*
X175228095Y-82493390D01*
X175228095Y-82493390D02*
X175275714Y-82302914D01*
X175275714Y-82302914D02*
X175323333Y-82207676D01*
X175323333Y-82207676D02*
X175418571Y-82112438D01*
X175418571Y-82112438D02*
X175561428Y-82064819D01*
X175561428Y-82064819D02*
X175656666Y-82064819D01*
X175656666Y-82064819D02*
X175799523Y-82112438D01*
X175799523Y-82112438D02*
X175847142Y-82160057D01*
X176180476Y-82064819D02*
X176799523Y-82064819D01*
X176799523Y-82064819D02*
X176466190Y-82445771D01*
X176466190Y-82445771D02*
X176609047Y-82445771D01*
X176609047Y-82445771D02*
X176704285Y-82493390D01*
X176704285Y-82493390D02*
X176751904Y-82541009D01*
X176751904Y-82541009D02*
X176799523Y-82636247D01*
X176799523Y-82636247D02*
X176799523Y-82874342D01*
X176799523Y-82874342D02*
X176751904Y-82969580D01*
X176751904Y-82969580D02*
X176704285Y-83017200D01*
X176704285Y-83017200D02*
X176609047Y-83064819D01*
X176609047Y-83064819D02*
X176323333Y-83064819D01*
X176323333Y-83064819D02*
X176228095Y-83017200D01*
X176228095Y-83017200D02*
X176180476Y-82969580D01*
X177656666Y-82398152D02*
X177656666Y-83064819D01*
X177418571Y-82017200D02*
X177180476Y-82731485D01*
X177180476Y-82731485D02*
X177799523Y-82731485D01*
X135301905Y-35404819D02*
X135301905Y-36214342D01*
X135301905Y-36214342D02*
X135349524Y-36309580D01*
X135349524Y-36309580D02*
X135397143Y-36357200D01*
X135397143Y-36357200D02*
X135492381Y-36404819D01*
X135492381Y-36404819D02*
X135682857Y-36404819D01*
X135682857Y-36404819D02*
X135778095Y-36357200D01*
X135778095Y-36357200D02*
X135825714Y-36309580D01*
X135825714Y-36309580D02*
X135873333Y-36214342D01*
X135873333Y-36214342D02*
X135873333Y-35404819D01*
X136873333Y-36404819D02*
X136301905Y-36404819D01*
X136587619Y-36404819D02*
X136587619Y-35404819D01*
X136587619Y-35404819D02*
X136492381Y-35547676D01*
X136492381Y-35547676D02*
X136397143Y-35642914D01*
X136397143Y-35642914D02*
X136301905Y-35690533D01*
X137825714Y-36404819D02*
X137254286Y-36404819D01*
X137540000Y-36404819D02*
X137540000Y-35404819D01*
X137540000Y-35404819D02*
X137444762Y-35547676D01*
X137444762Y-35547676D02*
X137349524Y-35642914D01*
X137349524Y-35642914D02*
X137254286Y-35690533D01*
X60723333Y-31664580D02*
X60675714Y-31712200D01*
X60675714Y-31712200D02*
X60532857Y-31759819D01*
X60532857Y-31759819D02*
X60437619Y-31759819D01*
X60437619Y-31759819D02*
X60294762Y-31712200D01*
X60294762Y-31712200D02*
X60199524Y-31616961D01*
X60199524Y-31616961D02*
X60151905Y-31521723D01*
X60151905Y-31521723D02*
X60104286Y-31331247D01*
X60104286Y-31331247D02*
X60104286Y-31188390D01*
X60104286Y-31188390D02*
X60151905Y-30997914D01*
X60151905Y-30997914D02*
X60199524Y-30902676D01*
X60199524Y-30902676D02*
X60294762Y-30807438D01*
X60294762Y-30807438D02*
X60437619Y-30759819D01*
X60437619Y-30759819D02*
X60532857Y-30759819D01*
X60532857Y-30759819D02*
X60675714Y-30807438D01*
X60675714Y-30807438D02*
X60723333Y-30855057D01*
X61056667Y-30759819D02*
X61723333Y-30759819D01*
X61723333Y-30759819D02*
X61294762Y-31759819D01*
X84053333Y-89574819D02*
X83577143Y-89574819D01*
X83577143Y-89574819D02*
X83577143Y-88574819D01*
X84339048Y-88670057D02*
X84386667Y-88622438D01*
X84386667Y-88622438D02*
X84481905Y-88574819D01*
X84481905Y-88574819D02*
X84720000Y-88574819D01*
X84720000Y-88574819D02*
X84815238Y-88622438D01*
X84815238Y-88622438D02*
X84862857Y-88670057D01*
X84862857Y-88670057D02*
X84910476Y-88765295D01*
X84910476Y-88765295D02*
X84910476Y-88860533D01*
X84910476Y-88860533D02*
X84862857Y-89003390D01*
X84862857Y-89003390D02*
X84291429Y-89574819D01*
X84291429Y-89574819D02*
X84910476Y-89574819D01*
X61955714Y-94436104D02*
X61917618Y-94474200D01*
X61917618Y-94474200D02*
X61803333Y-94512295D01*
X61803333Y-94512295D02*
X61727142Y-94512295D01*
X61727142Y-94512295D02*
X61612856Y-94474200D01*
X61612856Y-94474200D02*
X61536666Y-94398009D01*
X61536666Y-94398009D02*
X61498571Y-94321819D01*
X61498571Y-94321819D02*
X61460475Y-94169438D01*
X61460475Y-94169438D02*
X61460475Y-94055152D01*
X61460475Y-94055152D02*
X61498571Y-93902771D01*
X61498571Y-93902771D02*
X61536666Y-93826580D01*
X61536666Y-93826580D02*
X61612856Y-93750390D01*
X61612856Y-93750390D02*
X61727142Y-93712295D01*
X61727142Y-93712295D02*
X61803333Y-93712295D01*
X61803333Y-93712295D02*
X61917618Y-93750390D01*
X61917618Y-93750390D02*
X61955714Y-93788485D01*
X62717618Y-94512295D02*
X62260475Y-94512295D01*
X62489047Y-94512295D02*
X62489047Y-93712295D01*
X62489047Y-93712295D02*
X62412856Y-93826580D01*
X62412856Y-93826580D02*
X62336666Y-93902771D01*
X62336666Y-93902771D02*
X62260475Y-93940866D01*
X63441428Y-93712295D02*
X63060476Y-93712295D01*
X63060476Y-93712295D02*
X63022380Y-94093247D01*
X63022380Y-94093247D02*
X63060476Y-94055152D01*
X63060476Y-94055152D02*
X63136666Y-94017057D01*
X63136666Y-94017057D02*
X63327142Y-94017057D01*
X63327142Y-94017057D02*
X63403333Y-94055152D01*
X63403333Y-94055152D02*
X63441428Y-94093247D01*
X63441428Y-94093247D02*
X63479523Y-94169438D01*
X63479523Y-94169438D02*
X63479523Y-94359914D01*
X63479523Y-94359914D02*
X63441428Y-94436104D01*
X63441428Y-94436104D02*
X63403333Y-94474200D01*
X63403333Y-94474200D02*
X63327142Y-94512295D01*
X63327142Y-94512295D02*
X63136666Y-94512295D01*
X63136666Y-94512295D02*
X63060476Y-94474200D01*
X63060476Y-94474200D02*
X63022380Y-94436104D01*
X54978333Y-31804819D02*
X54645000Y-31328628D01*
X54406905Y-31804819D02*
X54406905Y-30804819D01*
X54406905Y-30804819D02*
X54787857Y-30804819D01*
X54787857Y-30804819D02*
X54883095Y-30852438D01*
X54883095Y-30852438D02*
X54930714Y-30900057D01*
X54930714Y-30900057D02*
X54978333Y-30995295D01*
X54978333Y-30995295D02*
X54978333Y-31138152D01*
X54978333Y-31138152D02*
X54930714Y-31233390D01*
X54930714Y-31233390D02*
X54883095Y-31281009D01*
X54883095Y-31281009D02*
X54787857Y-31328628D01*
X54787857Y-31328628D02*
X54406905Y-31328628D01*
X55835476Y-31138152D02*
X55835476Y-31804819D01*
X55597381Y-30757200D02*
X55359286Y-31471485D01*
X55359286Y-31471485D02*
X55978333Y-31471485D01*
X179929819Y-61483333D02*
X180644104Y-61483333D01*
X180644104Y-61483333D02*
X180786961Y-61530952D01*
X180786961Y-61530952D02*
X180882200Y-61626190D01*
X180882200Y-61626190D02*
X180929819Y-61769047D01*
X180929819Y-61769047D02*
X180929819Y-61864285D01*
X179929819Y-60578571D02*
X179929819Y-60769047D01*
X179929819Y-60769047D02*
X179977438Y-60864285D01*
X179977438Y-60864285D02*
X180025057Y-60911904D01*
X180025057Y-60911904D02*
X180167914Y-61007142D01*
X180167914Y-61007142D02*
X180358390Y-61054761D01*
X180358390Y-61054761D02*
X180739342Y-61054761D01*
X180739342Y-61054761D02*
X180834580Y-61007142D01*
X180834580Y-61007142D02*
X180882200Y-60959523D01*
X180882200Y-60959523D02*
X180929819Y-60864285D01*
X180929819Y-60864285D02*
X180929819Y-60673809D01*
X180929819Y-60673809D02*
X180882200Y-60578571D01*
X180882200Y-60578571D02*
X180834580Y-60530952D01*
X180834580Y-60530952D02*
X180739342Y-60483333D01*
X180739342Y-60483333D02*
X180501247Y-60483333D01*
X180501247Y-60483333D02*
X180406009Y-60530952D01*
X180406009Y-60530952D02*
X180358390Y-60578571D01*
X180358390Y-60578571D02*
X180310771Y-60673809D01*
X180310771Y-60673809D02*
X180310771Y-60864285D01*
X180310771Y-60864285D02*
X180358390Y-60959523D01*
X180358390Y-60959523D02*
X180406009Y-61007142D01*
X180406009Y-61007142D02*
X180501247Y-61054761D01*
X103926876Y-89564559D02*
X103926876Y-90278844D01*
X103926876Y-90278844D02*
X103879257Y-90421701D01*
X103879257Y-90421701D02*
X103784019Y-90516940D01*
X103784019Y-90516940D02*
X103641162Y-90564559D01*
X103641162Y-90564559D02*
X103545924Y-90564559D01*
X104879257Y-89564559D02*
X104403067Y-89564559D01*
X104403067Y-89564559D02*
X104355448Y-90040749D01*
X104355448Y-90040749D02*
X104403067Y-89993130D01*
X104403067Y-89993130D02*
X104498305Y-89945511D01*
X104498305Y-89945511D02*
X104736400Y-89945511D01*
X104736400Y-89945511D02*
X104831638Y-89993130D01*
X104831638Y-89993130D02*
X104879257Y-90040749D01*
X104879257Y-90040749D02*
X104926876Y-90135987D01*
X104926876Y-90135987D02*
X104926876Y-90374082D01*
X104926876Y-90374082D02*
X104879257Y-90469320D01*
X104879257Y-90469320D02*
X104831638Y-90516940D01*
X104831638Y-90516940D02*
X104736400Y-90564559D01*
X104736400Y-90564559D02*
X104498305Y-90564559D01*
X104498305Y-90564559D02*
X104403067Y-90516940D01*
X104403067Y-90516940D02*
X104355448Y-90469320D01*
X58008095Y-75694819D02*
X58008095Y-76504342D01*
X58008095Y-76504342D02*
X58055714Y-76599580D01*
X58055714Y-76599580D02*
X58103333Y-76647200D01*
X58103333Y-76647200D02*
X58198571Y-76694819D01*
X58198571Y-76694819D02*
X58389047Y-76694819D01*
X58389047Y-76694819D02*
X58484285Y-76647200D01*
X58484285Y-76647200D02*
X58531904Y-76599580D01*
X58531904Y-76599580D02*
X58579523Y-76504342D01*
X58579523Y-76504342D02*
X58579523Y-75694819D01*
X59531904Y-75694819D02*
X59055714Y-75694819D01*
X59055714Y-75694819D02*
X59008095Y-76171009D01*
X59008095Y-76171009D02*
X59055714Y-76123390D01*
X59055714Y-76123390D02*
X59150952Y-76075771D01*
X59150952Y-76075771D02*
X59389047Y-76075771D01*
X59389047Y-76075771D02*
X59484285Y-76123390D01*
X59484285Y-76123390D02*
X59531904Y-76171009D01*
X59531904Y-76171009D02*
X59579523Y-76266247D01*
X59579523Y-76266247D02*
X59579523Y-76504342D01*
X59579523Y-76504342D02*
X59531904Y-76599580D01*
X59531904Y-76599580D02*
X59484285Y-76647200D01*
X59484285Y-76647200D02*
X59389047Y-76694819D01*
X59389047Y-76694819D02*
X59150952Y-76694819D01*
X59150952Y-76694819D02*
X59055714Y-76647200D01*
X59055714Y-76647200D02*
X59008095Y-76599580D01*
X73993333Y-62064819D02*
X73660000Y-61588628D01*
X73421905Y-62064819D02*
X73421905Y-61064819D01*
X73421905Y-61064819D02*
X73802857Y-61064819D01*
X73802857Y-61064819D02*
X73898095Y-61112438D01*
X73898095Y-61112438D02*
X73945714Y-61160057D01*
X73945714Y-61160057D02*
X73993333Y-61255295D01*
X73993333Y-61255295D02*
X73993333Y-61398152D01*
X73993333Y-61398152D02*
X73945714Y-61493390D01*
X73945714Y-61493390D02*
X73898095Y-61541009D01*
X73898095Y-61541009D02*
X73802857Y-61588628D01*
X73802857Y-61588628D02*
X73421905Y-61588628D01*
X74469524Y-62064819D02*
X74660000Y-62064819D01*
X74660000Y-62064819D02*
X74755238Y-62017200D01*
X74755238Y-62017200D02*
X74802857Y-61969580D01*
X74802857Y-61969580D02*
X74898095Y-61826723D01*
X74898095Y-61826723D02*
X74945714Y-61636247D01*
X74945714Y-61636247D02*
X74945714Y-61255295D01*
X74945714Y-61255295D02*
X74898095Y-61160057D01*
X74898095Y-61160057D02*
X74850476Y-61112438D01*
X74850476Y-61112438D02*
X74755238Y-61064819D01*
X74755238Y-61064819D02*
X74564762Y-61064819D01*
X74564762Y-61064819D02*
X74469524Y-61112438D01*
X74469524Y-61112438D02*
X74421905Y-61160057D01*
X74421905Y-61160057D02*
X74374286Y-61255295D01*
X74374286Y-61255295D02*
X74374286Y-61493390D01*
X74374286Y-61493390D02*
X74421905Y-61588628D01*
X74421905Y-61588628D02*
X74469524Y-61636247D01*
X74469524Y-61636247D02*
X74564762Y-61683866D01*
X74564762Y-61683866D02*
X74755238Y-61683866D01*
X74755238Y-61683866D02*
X74850476Y-61636247D01*
X74850476Y-61636247D02*
X74898095Y-61588628D01*
X74898095Y-61588628D02*
X74945714Y-61493390D01*
X175897142Y-75949580D02*
X175849523Y-75997200D01*
X175849523Y-75997200D02*
X175706666Y-76044819D01*
X175706666Y-76044819D02*
X175611428Y-76044819D01*
X175611428Y-76044819D02*
X175468571Y-75997200D01*
X175468571Y-75997200D02*
X175373333Y-75901961D01*
X175373333Y-75901961D02*
X175325714Y-75806723D01*
X175325714Y-75806723D02*
X175278095Y-75616247D01*
X175278095Y-75616247D02*
X175278095Y-75473390D01*
X175278095Y-75473390D02*
X175325714Y-75282914D01*
X175325714Y-75282914D02*
X175373333Y-75187676D01*
X175373333Y-75187676D02*
X175468571Y-75092438D01*
X175468571Y-75092438D02*
X175611428Y-75044819D01*
X175611428Y-75044819D02*
X175706666Y-75044819D01*
X175706666Y-75044819D02*
X175849523Y-75092438D01*
X175849523Y-75092438D02*
X175897142Y-75140057D01*
X176278095Y-75140057D02*
X176325714Y-75092438D01*
X176325714Y-75092438D02*
X176420952Y-75044819D01*
X176420952Y-75044819D02*
X176659047Y-75044819D01*
X176659047Y-75044819D02*
X176754285Y-75092438D01*
X176754285Y-75092438D02*
X176801904Y-75140057D01*
X176801904Y-75140057D02*
X176849523Y-75235295D01*
X176849523Y-75235295D02*
X176849523Y-75330533D01*
X176849523Y-75330533D02*
X176801904Y-75473390D01*
X176801904Y-75473390D02*
X176230476Y-76044819D01*
X176230476Y-76044819D02*
X176849523Y-76044819D01*
X177420952Y-75473390D02*
X177325714Y-75425771D01*
X177325714Y-75425771D02*
X177278095Y-75378152D01*
X177278095Y-75378152D02*
X177230476Y-75282914D01*
X177230476Y-75282914D02*
X177230476Y-75235295D01*
X177230476Y-75235295D02*
X177278095Y-75140057D01*
X177278095Y-75140057D02*
X177325714Y-75092438D01*
X177325714Y-75092438D02*
X177420952Y-75044819D01*
X177420952Y-75044819D02*
X177611428Y-75044819D01*
X177611428Y-75044819D02*
X177706666Y-75092438D01*
X177706666Y-75092438D02*
X177754285Y-75140057D01*
X177754285Y-75140057D02*
X177801904Y-75235295D01*
X177801904Y-75235295D02*
X177801904Y-75282914D01*
X177801904Y-75282914D02*
X177754285Y-75378152D01*
X177754285Y-75378152D02*
X177706666Y-75425771D01*
X177706666Y-75425771D02*
X177611428Y-75473390D01*
X177611428Y-75473390D02*
X177420952Y-75473390D01*
X177420952Y-75473390D02*
X177325714Y-75521009D01*
X177325714Y-75521009D02*
X177278095Y-75568628D01*
X177278095Y-75568628D02*
X177230476Y-75663866D01*
X177230476Y-75663866D02*
X177230476Y-75854342D01*
X177230476Y-75854342D02*
X177278095Y-75949580D01*
X177278095Y-75949580D02*
X177325714Y-75997200D01*
X177325714Y-75997200D02*
X177420952Y-76044819D01*
X177420952Y-76044819D02*
X177611428Y-76044819D01*
X177611428Y-76044819D02*
X177706666Y-75997200D01*
X177706666Y-75997200D02*
X177754285Y-75949580D01*
X177754285Y-75949580D02*
X177801904Y-75854342D01*
X177801904Y-75854342D02*
X177801904Y-75663866D01*
X177801904Y-75663866D02*
X177754285Y-75568628D01*
X177754285Y-75568628D02*
X177706666Y-75521009D01*
X177706666Y-75521009D02*
X177611428Y-75473390D01*
X49716667Y-36716104D02*
X49678571Y-36754200D01*
X49678571Y-36754200D02*
X49564286Y-36792295D01*
X49564286Y-36792295D02*
X49488095Y-36792295D01*
X49488095Y-36792295D02*
X49373809Y-36754200D01*
X49373809Y-36754200D02*
X49297619Y-36678009D01*
X49297619Y-36678009D02*
X49259524Y-36601819D01*
X49259524Y-36601819D02*
X49221428Y-36449438D01*
X49221428Y-36449438D02*
X49221428Y-36335152D01*
X49221428Y-36335152D02*
X49259524Y-36182771D01*
X49259524Y-36182771D02*
X49297619Y-36106580D01*
X49297619Y-36106580D02*
X49373809Y-36030390D01*
X49373809Y-36030390D02*
X49488095Y-35992295D01*
X49488095Y-35992295D02*
X49564286Y-35992295D01*
X49564286Y-35992295D02*
X49678571Y-36030390D01*
X49678571Y-36030390D02*
X49716667Y-36068485D01*
X49983333Y-35992295D02*
X50478571Y-35992295D01*
X50478571Y-35992295D02*
X50211905Y-36297057D01*
X50211905Y-36297057D02*
X50326190Y-36297057D01*
X50326190Y-36297057D02*
X50402381Y-36335152D01*
X50402381Y-36335152D02*
X50440476Y-36373247D01*
X50440476Y-36373247D02*
X50478571Y-36449438D01*
X50478571Y-36449438D02*
X50478571Y-36639914D01*
X50478571Y-36639914D02*
X50440476Y-36716104D01*
X50440476Y-36716104D02*
X50402381Y-36754200D01*
X50402381Y-36754200D02*
X50326190Y-36792295D01*
X50326190Y-36792295D02*
X50097619Y-36792295D01*
X50097619Y-36792295D02*
X50021428Y-36754200D01*
X50021428Y-36754200D02*
X49983333Y-36716104D01*
X95192142Y-78864819D02*
X94858809Y-78388628D01*
X94620714Y-78864819D02*
X94620714Y-77864819D01*
X94620714Y-77864819D02*
X95001666Y-77864819D01*
X95001666Y-77864819D02*
X95096904Y-77912438D01*
X95096904Y-77912438D02*
X95144523Y-77960057D01*
X95144523Y-77960057D02*
X95192142Y-78055295D01*
X95192142Y-78055295D02*
X95192142Y-78198152D01*
X95192142Y-78198152D02*
X95144523Y-78293390D01*
X95144523Y-78293390D02*
X95096904Y-78341009D01*
X95096904Y-78341009D02*
X95001666Y-78388628D01*
X95001666Y-78388628D02*
X94620714Y-78388628D01*
X96144523Y-78864819D02*
X95573095Y-78864819D01*
X95858809Y-78864819D02*
X95858809Y-77864819D01*
X95858809Y-77864819D02*
X95763571Y-78007676D01*
X95763571Y-78007676D02*
X95668333Y-78102914D01*
X95668333Y-78102914D02*
X95573095Y-78150533D01*
X96620714Y-78864819D02*
X96811190Y-78864819D01*
X96811190Y-78864819D02*
X96906428Y-78817200D01*
X96906428Y-78817200D02*
X96954047Y-78769580D01*
X96954047Y-78769580D02*
X97049285Y-78626723D01*
X97049285Y-78626723D02*
X97096904Y-78436247D01*
X97096904Y-78436247D02*
X97096904Y-78055295D01*
X97096904Y-78055295D02*
X97049285Y-77960057D01*
X97049285Y-77960057D02*
X97001666Y-77912438D01*
X97001666Y-77912438D02*
X96906428Y-77864819D01*
X96906428Y-77864819D02*
X96715952Y-77864819D01*
X96715952Y-77864819D02*
X96620714Y-77912438D01*
X96620714Y-77912438D02*
X96573095Y-77960057D01*
X96573095Y-77960057D02*
X96525476Y-78055295D01*
X96525476Y-78055295D02*
X96525476Y-78293390D01*
X96525476Y-78293390D02*
X96573095Y-78388628D01*
X96573095Y-78388628D02*
X96620714Y-78436247D01*
X96620714Y-78436247D02*
X96715952Y-78483866D01*
X96715952Y-78483866D02*
X96906428Y-78483866D01*
X96906428Y-78483866D02*
X97001666Y-78436247D01*
X97001666Y-78436247D02*
X97049285Y-78388628D01*
X97049285Y-78388628D02*
X97096904Y-78293390D01*
X186266876Y-89464559D02*
X186266876Y-90178844D01*
X186266876Y-90178844D02*
X186219257Y-90321701D01*
X186219257Y-90321701D02*
X186124019Y-90416940D01*
X186124019Y-90416940D02*
X185981162Y-90464559D01*
X185981162Y-90464559D02*
X185885924Y-90464559D01*
X186885924Y-89893130D02*
X186790686Y-89845511D01*
X186790686Y-89845511D02*
X186743067Y-89797892D01*
X186743067Y-89797892D02*
X186695448Y-89702654D01*
X186695448Y-89702654D02*
X186695448Y-89655035D01*
X186695448Y-89655035D02*
X186743067Y-89559797D01*
X186743067Y-89559797D02*
X186790686Y-89512178D01*
X186790686Y-89512178D02*
X186885924Y-89464559D01*
X186885924Y-89464559D02*
X187076400Y-89464559D01*
X187076400Y-89464559D02*
X187171638Y-89512178D01*
X187171638Y-89512178D02*
X187219257Y-89559797D01*
X187219257Y-89559797D02*
X187266876Y-89655035D01*
X187266876Y-89655035D02*
X187266876Y-89702654D01*
X187266876Y-89702654D02*
X187219257Y-89797892D01*
X187219257Y-89797892D02*
X187171638Y-89845511D01*
X187171638Y-89845511D02*
X187076400Y-89893130D01*
X187076400Y-89893130D02*
X186885924Y-89893130D01*
X186885924Y-89893130D02*
X186790686Y-89940749D01*
X186790686Y-89940749D02*
X186743067Y-89988368D01*
X186743067Y-89988368D02*
X186695448Y-90083606D01*
X186695448Y-90083606D02*
X186695448Y-90274082D01*
X186695448Y-90274082D02*
X186743067Y-90369320D01*
X186743067Y-90369320D02*
X186790686Y-90416940D01*
X186790686Y-90416940D02*
X186885924Y-90464559D01*
X186885924Y-90464559D02*
X187076400Y-90464559D01*
X187076400Y-90464559D02*
X187171638Y-90416940D01*
X187171638Y-90416940D02*
X187219257Y-90369320D01*
X187219257Y-90369320D02*
X187266876Y-90274082D01*
X187266876Y-90274082D02*
X187266876Y-90083606D01*
X187266876Y-90083606D02*
X187219257Y-89988368D01*
X187219257Y-89988368D02*
X187171638Y-89940749D01*
X187171638Y-89940749D02*
X187076400Y-89893130D01*
X55329642Y-84219580D02*
X55282023Y-84267200D01*
X55282023Y-84267200D02*
X55139166Y-84314819D01*
X55139166Y-84314819D02*
X55043928Y-84314819D01*
X55043928Y-84314819D02*
X54901071Y-84267200D01*
X54901071Y-84267200D02*
X54805833Y-84171961D01*
X54805833Y-84171961D02*
X54758214Y-84076723D01*
X54758214Y-84076723D02*
X54710595Y-83886247D01*
X54710595Y-83886247D02*
X54710595Y-83743390D01*
X54710595Y-83743390D02*
X54758214Y-83552914D01*
X54758214Y-83552914D02*
X54805833Y-83457676D01*
X54805833Y-83457676D02*
X54901071Y-83362438D01*
X54901071Y-83362438D02*
X55043928Y-83314819D01*
X55043928Y-83314819D02*
X55139166Y-83314819D01*
X55139166Y-83314819D02*
X55282023Y-83362438D01*
X55282023Y-83362438D02*
X55329642Y-83410057D01*
X56282023Y-84314819D02*
X55710595Y-84314819D01*
X55996309Y-84314819D02*
X55996309Y-83314819D01*
X55996309Y-83314819D02*
X55901071Y-83457676D01*
X55901071Y-83457676D02*
X55805833Y-83552914D01*
X55805833Y-83552914D02*
X55710595Y-83600533D01*
X57139166Y-83314819D02*
X56948690Y-83314819D01*
X56948690Y-83314819D02*
X56853452Y-83362438D01*
X56853452Y-83362438D02*
X56805833Y-83410057D01*
X56805833Y-83410057D02*
X56710595Y-83552914D01*
X56710595Y-83552914D02*
X56662976Y-83743390D01*
X56662976Y-83743390D02*
X56662976Y-84124342D01*
X56662976Y-84124342D02*
X56710595Y-84219580D01*
X56710595Y-84219580D02*
X56758214Y-84267200D01*
X56758214Y-84267200D02*
X56853452Y-84314819D01*
X56853452Y-84314819D02*
X57043928Y-84314819D01*
X57043928Y-84314819D02*
X57139166Y-84267200D01*
X57139166Y-84267200D02*
X57186785Y-84219580D01*
X57186785Y-84219580D02*
X57234404Y-84124342D01*
X57234404Y-84124342D02*
X57234404Y-83886247D01*
X57234404Y-83886247D02*
X57186785Y-83791009D01*
X57186785Y-83791009D02*
X57139166Y-83743390D01*
X57139166Y-83743390D02*
X57043928Y-83695771D01*
X57043928Y-83695771D02*
X56853452Y-83695771D01*
X56853452Y-83695771D02*
X56758214Y-83743390D01*
X56758214Y-83743390D02*
X56710595Y-83791009D01*
X56710595Y-83791009D02*
X56662976Y-83886247D01*
X73333809Y-93748628D02*
X73333809Y-94224819D01*
X73000476Y-93224819D02*
X73333809Y-93748628D01*
X73333809Y-93748628D02*
X73667142Y-93224819D01*
X74524285Y-94224819D02*
X73952857Y-94224819D01*
X74238571Y-94224819D02*
X74238571Y-93224819D01*
X74238571Y-93224819D02*
X74143333Y-93367676D01*
X74143333Y-93367676D02*
X74048095Y-93462914D01*
X74048095Y-93462914D02*
X73952857Y-93510533D01*
X49856667Y-40296104D02*
X49818571Y-40334200D01*
X49818571Y-40334200D02*
X49704286Y-40372295D01*
X49704286Y-40372295D02*
X49628095Y-40372295D01*
X49628095Y-40372295D02*
X49513809Y-40334200D01*
X49513809Y-40334200D02*
X49437619Y-40258009D01*
X49437619Y-40258009D02*
X49399524Y-40181819D01*
X49399524Y-40181819D02*
X49361428Y-40029438D01*
X49361428Y-40029438D02*
X49361428Y-39915152D01*
X49361428Y-39915152D02*
X49399524Y-39762771D01*
X49399524Y-39762771D02*
X49437619Y-39686580D01*
X49437619Y-39686580D02*
X49513809Y-39610390D01*
X49513809Y-39610390D02*
X49628095Y-39572295D01*
X49628095Y-39572295D02*
X49704286Y-39572295D01*
X49704286Y-39572295D02*
X49818571Y-39610390D01*
X49818571Y-39610390D02*
X49856667Y-39648485D01*
X50542381Y-39572295D02*
X50390000Y-39572295D01*
X50390000Y-39572295D02*
X50313809Y-39610390D01*
X50313809Y-39610390D02*
X50275714Y-39648485D01*
X50275714Y-39648485D02*
X50199524Y-39762771D01*
X50199524Y-39762771D02*
X50161428Y-39915152D01*
X50161428Y-39915152D02*
X50161428Y-40219914D01*
X50161428Y-40219914D02*
X50199524Y-40296104D01*
X50199524Y-40296104D02*
X50237619Y-40334200D01*
X50237619Y-40334200D02*
X50313809Y-40372295D01*
X50313809Y-40372295D02*
X50466190Y-40372295D01*
X50466190Y-40372295D02*
X50542381Y-40334200D01*
X50542381Y-40334200D02*
X50580476Y-40296104D01*
X50580476Y-40296104D02*
X50618571Y-40219914D01*
X50618571Y-40219914D02*
X50618571Y-40029438D01*
X50618571Y-40029438D02*
X50580476Y-39953247D01*
X50580476Y-39953247D02*
X50542381Y-39915152D01*
X50542381Y-39915152D02*
X50466190Y-39877057D01*
X50466190Y-39877057D02*
X50313809Y-39877057D01*
X50313809Y-39877057D02*
X50237619Y-39915152D01*
X50237619Y-39915152D02*
X50199524Y-39953247D01*
X50199524Y-39953247D02*
X50161428Y-40029438D01*
X56349642Y-73149819D02*
X56016309Y-72673628D01*
X55778214Y-73149819D02*
X55778214Y-72149819D01*
X55778214Y-72149819D02*
X56159166Y-72149819D01*
X56159166Y-72149819D02*
X56254404Y-72197438D01*
X56254404Y-72197438D02*
X56302023Y-72245057D01*
X56302023Y-72245057D02*
X56349642Y-72340295D01*
X56349642Y-72340295D02*
X56349642Y-72483152D01*
X56349642Y-72483152D02*
X56302023Y-72578390D01*
X56302023Y-72578390D02*
X56254404Y-72626009D01*
X56254404Y-72626009D02*
X56159166Y-72673628D01*
X56159166Y-72673628D02*
X55778214Y-72673628D01*
X57302023Y-73149819D02*
X56730595Y-73149819D01*
X57016309Y-73149819D02*
X57016309Y-72149819D01*
X57016309Y-72149819D02*
X56921071Y-72292676D01*
X56921071Y-72292676D02*
X56825833Y-72387914D01*
X56825833Y-72387914D02*
X56730595Y-72435533D01*
X58206785Y-72149819D02*
X57730595Y-72149819D01*
X57730595Y-72149819D02*
X57682976Y-72626009D01*
X57682976Y-72626009D02*
X57730595Y-72578390D01*
X57730595Y-72578390D02*
X57825833Y-72530771D01*
X57825833Y-72530771D02*
X58063928Y-72530771D01*
X58063928Y-72530771D02*
X58159166Y-72578390D01*
X58159166Y-72578390D02*
X58206785Y-72626009D01*
X58206785Y-72626009D02*
X58254404Y-72721247D01*
X58254404Y-72721247D02*
X58254404Y-72959342D01*
X58254404Y-72959342D02*
X58206785Y-73054580D01*
X58206785Y-73054580D02*
X58159166Y-73102200D01*
X58159166Y-73102200D02*
X58063928Y-73149819D01*
X58063928Y-73149819D02*
X57825833Y-73149819D01*
X57825833Y-73149819D02*
X57730595Y-73102200D01*
X57730595Y-73102200D02*
X57682976Y-73054580D01*
X150492142Y-97099580D02*
X150444523Y-97147200D01*
X150444523Y-97147200D02*
X150301666Y-97194819D01*
X150301666Y-97194819D02*
X150206428Y-97194819D01*
X150206428Y-97194819D02*
X150063571Y-97147200D01*
X150063571Y-97147200D02*
X149968333Y-97051961D01*
X149968333Y-97051961D02*
X149920714Y-96956723D01*
X149920714Y-96956723D02*
X149873095Y-96766247D01*
X149873095Y-96766247D02*
X149873095Y-96623390D01*
X149873095Y-96623390D02*
X149920714Y-96432914D01*
X149920714Y-96432914D02*
X149968333Y-96337676D01*
X149968333Y-96337676D02*
X150063571Y-96242438D01*
X150063571Y-96242438D02*
X150206428Y-96194819D01*
X150206428Y-96194819D02*
X150301666Y-96194819D01*
X150301666Y-96194819D02*
X150444523Y-96242438D01*
X150444523Y-96242438D02*
X150492142Y-96290057D01*
X150825476Y-96194819D02*
X151444523Y-96194819D01*
X151444523Y-96194819D02*
X151111190Y-96575771D01*
X151111190Y-96575771D02*
X151254047Y-96575771D01*
X151254047Y-96575771D02*
X151349285Y-96623390D01*
X151349285Y-96623390D02*
X151396904Y-96671009D01*
X151396904Y-96671009D02*
X151444523Y-96766247D01*
X151444523Y-96766247D02*
X151444523Y-97004342D01*
X151444523Y-97004342D02*
X151396904Y-97099580D01*
X151396904Y-97099580D02*
X151349285Y-97147200D01*
X151349285Y-97147200D02*
X151254047Y-97194819D01*
X151254047Y-97194819D02*
X150968333Y-97194819D01*
X150968333Y-97194819D02*
X150873095Y-97147200D01*
X150873095Y-97147200D02*
X150825476Y-97099580D01*
X152396904Y-97194819D02*
X151825476Y-97194819D01*
X152111190Y-97194819D02*
X152111190Y-96194819D01*
X152111190Y-96194819D02*
X152015952Y-96337676D01*
X152015952Y-96337676D02*
X151920714Y-96432914D01*
X151920714Y-96432914D02*
X151825476Y-96480533D01*
X175472142Y-77619580D02*
X175424523Y-77667200D01*
X175424523Y-77667200D02*
X175281666Y-77714819D01*
X175281666Y-77714819D02*
X175186428Y-77714819D01*
X175186428Y-77714819D02*
X175043571Y-77667200D01*
X175043571Y-77667200D02*
X174948333Y-77571961D01*
X174948333Y-77571961D02*
X174900714Y-77476723D01*
X174900714Y-77476723D02*
X174853095Y-77286247D01*
X174853095Y-77286247D02*
X174853095Y-77143390D01*
X174853095Y-77143390D02*
X174900714Y-76952914D01*
X174900714Y-76952914D02*
X174948333Y-76857676D01*
X174948333Y-76857676D02*
X175043571Y-76762438D01*
X175043571Y-76762438D02*
X175186428Y-76714819D01*
X175186428Y-76714819D02*
X175281666Y-76714819D01*
X175281666Y-76714819D02*
X175424523Y-76762438D01*
X175424523Y-76762438D02*
X175472142Y-76810057D01*
X175805476Y-76714819D02*
X176424523Y-76714819D01*
X176424523Y-76714819D02*
X176091190Y-77095771D01*
X176091190Y-77095771D02*
X176234047Y-77095771D01*
X176234047Y-77095771D02*
X176329285Y-77143390D01*
X176329285Y-77143390D02*
X176376904Y-77191009D01*
X176376904Y-77191009D02*
X176424523Y-77286247D01*
X176424523Y-77286247D02*
X176424523Y-77524342D01*
X176424523Y-77524342D02*
X176376904Y-77619580D01*
X176376904Y-77619580D02*
X176329285Y-77667200D01*
X176329285Y-77667200D02*
X176234047Y-77714819D01*
X176234047Y-77714819D02*
X175948333Y-77714819D01*
X175948333Y-77714819D02*
X175853095Y-77667200D01*
X175853095Y-77667200D02*
X175805476Y-77619580D01*
X177281666Y-76714819D02*
X177091190Y-76714819D01*
X177091190Y-76714819D02*
X176995952Y-76762438D01*
X176995952Y-76762438D02*
X176948333Y-76810057D01*
X176948333Y-76810057D02*
X176853095Y-76952914D01*
X176853095Y-76952914D02*
X176805476Y-77143390D01*
X176805476Y-77143390D02*
X176805476Y-77524342D01*
X176805476Y-77524342D02*
X176853095Y-77619580D01*
X176853095Y-77619580D02*
X176900714Y-77667200D01*
X176900714Y-77667200D02*
X176995952Y-77714819D01*
X176995952Y-77714819D02*
X177186428Y-77714819D01*
X177186428Y-77714819D02*
X177281666Y-77667200D01*
X177281666Y-77667200D02*
X177329285Y-77619580D01*
X177329285Y-77619580D02*
X177376904Y-77524342D01*
X177376904Y-77524342D02*
X177376904Y-77286247D01*
X177376904Y-77286247D02*
X177329285Y-77191009D01*
X177329285Y-77191009D02*
X177281666Y-77143390D01*
X177281666Y-77143390D02*
X177186428Y-77095771D01*
X177186428Y-77095771D02*
X176995952Y-77095771D01*
X176995952Y-77095771D02*
X176900714Y-77143390D01*
X176900714Y-77143390D02*
X176853095Y-77191009D01*
X176853095Y-77191009D02*
X176805476Y-77286247D01*
X97859819Y-61733333D02*
X98574104Y-61733333D01*
X98574104Y-61733333D02*
X98716961Y-61780952D01*
X98716961Y-61780952D02*
X98812200Y-61876190D01*
X98812200Y-61876190D02*
X98859819Y-62019047D01*
X98859819Y-62019047D02*
X98859819Y-62114285D01*
X98193152Y-60828571D02*
X98859819Y-60828571D01*
X97812200Y-61066666D02*
X98526485Y-61304761D01*
X98526485Y-61304761D02*
X98526485Y-60685714D01*
X141617142Y-60419580D02*
X141569523Y-60467200D01*
X141569523Y-60467200D02*
X141426666Y-60514819D01*
X141426666Y-60514819D02*
X141331428Y-60514819D01*
X141331428Y-60514819D02*
X141188571Y-60467200D01*
X141188571Y-60467200D02*
X141093333Y-60371961D01*
X141093333Y-60371961D02*
X141045714Y-60276723D01*
X141045714Y-60276723D02*
X140998095Y-60086247D01*
X140998095Y-60086247D02*
X140998095Y-59943390D01*
X140998095Y-59943390D02*
X141045714Y-59752914D01*
X141045714Y-59752914D02*
X141093333Y-59657676D01*
X141093333Y-59657676D02*
X141188571Y-59562438D01*
X141188571Y-59562438D02*
X141331428Y-59514819D01*
X141331428Y-59514819D02*
X141426666Y-59514819D01*
X141426666Y-59514819D02*
X141569523Y-59562438D01*
X141569523Y-59562438D02*
X141617142Y-59610057D01*
X142474285Y-59848152D02*
X142474285Y-60514819D01*
X142236190Y-59467200D02*
X141998095Y-60181485D01*
X141998095Y-60181485D02*
X142617142Y-60181485D01*
X143521904Y-60514819D02*
X142950476Y-60514819D01*
X143236190Y-60514819D02*
X143236190Y-59514819D01*
X143236190Y-59514819D02*
X143140952Y-59657676D01*
X143140952Y-59657676D02*
X143045714Y-59752914D01*
X143045714Y-59752914D02*
X142950476Y-59800533D01*
X69637142Y-96339580D02*
X69589523Y-96387200D01*
X69589523Y-96387200D02*
X69446666Y-96434819D01*
X69446666Y-96434819D02*
X69351428Y-96434819D01*
X69351428Y-96434819D02*
X69208571Y-96387200D01*
X69208571Y-96387200D02*
X69113333Y-96291961D01*
X69113333Y-96291961D02*
X69065714Y-96196723D01*
X69065714Y-96196723D02*
X69018095Y-96006247D01*
X69018095Y-96006247D02*
X69018095Y-95863390D01*
X69018095Y-95863390D02*
X69065714Y-95672914D01*
X69065714Y-95672914D02*
X69113333Y-95577676D01*
X69113333Y-95577676D02*
X69208571Y-95482438D01*
X69208571Y-95482438D02*
X69351428Y-95434819D01*
X69351428Y-95434819D02*
X69446666Y-95434819D01*
X69446666Y-95434819D02*
X69589523Y-95482438D01*
X69589523Y-95482438D02*
X69637142Y-95530057D01*
X70018095Y-95530057D02*
X70065714Y-95482438D01*
X70065714Y-95482438D02*
X70160952Y-95434819D01*
X70160952Y-95434819D02*
X70399047Y-95434819D01*
X70399047Y-95434819D02*
X70494285Y-95482438D01*
X70494285Y-95482438D02*
X70541904Y-95530057D01*
X70541904Y-95530057D02*
X70589523Y-95625295D01*
X70589523Y-95625295D02*
X70589523Y-95720533D01*
X70589523Y-95720533D02*
X70541904Y-95863390D01*
X70541904Y-95863390D02*
X69970476Y-96434819D01*
X69970476Y-96434819D02*
X70589523Y-96434819D01*
X71208571Y-95434819D02*
X71303809Y-95434819D01*
X71303809Y-95434819D02*
X71399047Y-95482438D01*
X71399047Y-95482438D02*
X71446666Y-95530057D01*
X71446666Y-95530057D02*
X71494285Y-95625295D01*
X71494285Y-95625295D02*
X71541904Y-95815771D01*
X71541904Y-95815771D02*
X71541904Y-96053866D01*
X71541904Y-96053866D02*
X71494285Y-96244342D01*
X71494285Y-96244342D02*
X71446666Y-96339580D01*
X71446666Y-96339580D02*
X71399047Y-96387200D01*
X71399047Y-96387200D02*
X71303809Y-96434819D01*
X71303809Y-96434819D02*
X71208571Y-96434819D01*
X71208571Y-96434819D02*
X71113333Y-96387200D01*
X71113333Y-96387200D02*
X71065714Y-96339580D01*
X71065714Y-96339580D02*
X71018095Y-96244342D01*
X71018095Y-96244342D02*
X70970476Y-96053866D01*
X70970476Y-96053866D02*
X70970476Y-95815771D01*
X70970476Y-95815771D02*
X71018095Y-95625295D01*
X71018095Y-95625295D02*
X71065714Y-95530057D01*
X71065714Y-95530057D02*
X71113333Y-95482438D01*
X71113333Y-95482438D02*
X71208571Y-95434819D01*
X166714819Y-52878094D02*
X165714819Y-52878094D01*
X165714819Y-52878094D02*
X165714819Y-52639999D01*
X165714819Y-52639999D02*
X165762438Y-52497142D01*
X165762438Y-52497142D02*
X165857676Y-52401904D01*
X165857676Y-52401904D02*
X165952914Y-52354285D01*
X165952914Y-52354285D02*
X166143390Y-52306666D01*
X166143390Y-52306666D02*
X166286247Y-52306666D01*
X166286247Y-52306666D02*
X166476723Y-52354285D01*
X166476723Y-52354285D02*
X166571961Y-52401904D01*
X166571961Y-52401904D02*
X166667200Y-52497142D01*
X166667200Y-52497142D02*
X166714819Y-52639999D01*
X166714819Y-52639999D02*
X166714819Y-52878094D01*
X165714819Y-51973332D02*
X165714819Y-51306666D01*
X165714819Y-51306666D02*
X166714819Y-51735237D01*
X60297142Y-38999580D02*
X60249523Y-39047200D01*
X60249523Y-39047200D02*
X60106666Y-39094819D01*
X60106666Y-39094819D02*
X60011428Y-39094819D01*
X60011428Y-39094819D02*
X59868571Y-39047200D01*
X59868571Y-39047200D02*
X59773333Y-38951961D01*
X59773333Y-38951961D02*
X59725714Y-38856723D01*
X59725714Y-38856723D02*
X59678095Y-38666247D01*
X59678095Y-38666247D02*
X59678095Y-38523390D01*
X59678095Y-38523390D02*
X59725714Y-38332914D01*
X59725714Y-38332914D02*
X59773333Y-38237676D01*
X59773333Y-38237676D02*
X59868571Y-38142438D01*
X59868571Y-38142438D02*
X60011428Y-38094819D01*
X60011428Y-38094819D02*
X60106666Y-38094819D01*
X60106666Y-38094819D02*
X60249523Y-38142438D01*
X60249523Y-38142438D02*
X60297142Y-38190057D01*
X61249523Y-39094819D02*
X60678095Y-39094819D01*
X60963809Y-39094819D02*
X60963809Y-38094819D01*
X60963809Y-38094819D02*
X60868571Y-38237676D01*
X60868571Y-38237676D02*
X60773333Y-38332914D01*
X60773333Y-38332914D02*
X60678095Y-38380533D01*
X61582857Y-38094819D02*
X62249523Y-38094819D01*
X62249523Y-38094819D02*
X61820952Y-39094819D01*
X55289642Y-90229580D02*
X55242023Y-90277200D01*
X55242023Y-90277200D02*
X55099166Y-90324819D01*
X55099166Y-90324819D02*
X55003928Y-90324819D01*
X55003928Y-90324819D02*
X54861071Y-90277200D01*
X54861071Y-90277200D02*
X54765833Y-90181961D01*
X54765833Y-90181961D02*
X54718214Y-90086723D01*
X54718214Y-90086723D02*
X54670595Y-89896247D01*
X54670595Y-89896247D02*
X54670595Y-89753390D01*
X54670595Y-89753390D02*
X54718214Y-89562914D01*
X54718214Y-89562914D02*
X54765833Y-89467676D01*
X54765833Y-89467676D02*
X54861071Y-89372438D01*
X54861071Y-89372438D02*
X55003928Y-89324819D01*
X55003928Y-89324819D02*
X55099166Y-89324819D01*
X55099166Y-89324819D02*
X55242023Y-89372438D01*
X55242023Y-89372438D02*
X55289642Y-89420057D01*
X56242023Y-90324819D02*
X55670595Y-90324819D01*
X55956309Y-90324819D02*
X55956309Y-89324819D01*
X55956309Y-89324819D02*
X55861071Y-89467676D01*
X55861071Y-89467676D02*
X55765833Y-89562914D01*
X55765833Y-89562914D02*
X55670595Y-89610533D01*
X57099166Y-89658152D02*
X57099166Y-90324819D01*
X56861071Y-89277200D02*
X56622976Y-89991485D01*
X56622976Y-89991485D02*
X57242023Y-89991485D01*
X151482142Y-34694819D02*
X151148809Y-34218628D01*
X150910714Y-34694819D02*
X150910714Y-33694819D01*
X150910714Y-33694819D02*
X151291666Y-33694819D01*
X151291666Y-33694819D02*
X151386904Y-33742438D01*
X151386904Y-33742438D02*
X151434523Y-33790057D01*
X151434523Y-33790057D02*
X151482142Y-33885295D01*
X151482142Y-33885295D02*
X151482142Y-34028152D01*
X151482142Y-34028152D02*
X151434523Y-34123390D01*
X151434523Y-34123390D02*
X151386904Y-34171009D01*
X151386904Y-34171009D02*
X151291666Y-34218628D01*
X151291666Y-34218628D02*
X150910714Y-34218628D01*
X151863095Y-33790057D02*
X151910714Y-33742438D01*
X151910714Y-33742438D02*
X152005952Y-33694819D01*
X152005952Y-33694819D02*
X152244047Y-33694819D01*
X152244047Y-33694819D02*
X152339285Y-33742438D01*
X152339285Y-33742438D02*
X152386904Y-33790057D01*
X152386904Y-33790057D02*
X152434523Y-33885295D01*
X152434523Y-33885295D02*
X152434523Y-33980533D01*
X152434523Y-33980533D02*
X152386904Y-34123390D01*
X152386904Y-34123390D02*
X151815476Y-34694819D01*
X151815476Y-34694819D02*
X152434523Y-34694819D01*
X152767857Y-33694819D02*
X153386904Y-33694819D01*
X153386904Y-33694819D02*
X153053571Y-34075771D01*
X153053571Y-34075771D02*
X153196428Y-34075771D01*
X153196428Y-34075771D02*
X153291666Y-34123390D01*
X153291666Y-34123390D02*
X153339285Y-34171009D01*
X153339285Y-34171009D02*
X153386904Y-34266247D01*
X153386904Y-34266247D02*
X153386904Y-34504342D01*
X153386904Y-34504342D02*
X153339285Y-34599580D01*
X153339285Y-34599580D02*
X153291666Y-34647200D01*
X153291666Y-34647200D02*
X153196428Y-34694819D01*
X153196428Y-34694819D02*
X152910714Y-34694819D01*
X152910714Y-34694819D02*
X152815476Y-34647200D01*
X152815476Y-34647200D02*
X152767857Y-34599580D01*
X142598628Y-70106190D02*
X143074819Y-70106190D01*
X142074819Y-70439523D02*
X142598628Y-70106190D01*
X142598628Y-70106190D02*
X142074819Y-69772857D01*
X142074819Y-69534761D02*
X142074819Y-68915714D01*
X142074819Y-68915714D02*
X142455771Y-69249047D01*
X142455771Y-69249047D02*
X142455771Y-69106190D01*
X142455771Y-69106190D02*
X142503390Y-69010952D01*
X142503390Y-69010952D02*
X142551009Y-68963333D01*
X142551009Y-68963333D02*
X142646247Y-68915714D01*
X142646247Y-68915714D02*
X142884342Y-68915714D01*
X142884342Y-68915714D02*
X142979580Y-68963333D01*
X142979580Y-68963333D02*
X143027200Y-69010952D01*
X143027200Y-69010952D02*
X143074819Y-69106190D01*
X143074819Y-69106190D02*
X143074819Y-69391904D01*
X143074819Y-69391904D02*
X143027200Y-69487142D01*
X143027200Y-69487142D02*
X142979580Y-69534761D01*
X175887142Y-71689580D02*
X175839523Y-71737200D01*
X175839523Y-71737200D02*
X175696666Y-71784819D01*
X175696666Y-71784819D02*
X175601428Y-71784819D01*
X175601428Y-71784819D02*
X175458571Y-71737200D01*
X175458571Y-71737200D02*
X175363333Y-71641961D01*
X175363333Y-71641961D02*
X175315714Y-71546723D01*
X175315714Y-71546723D02*
X175268095Y-71356247D01*
X175268095Y-71356247D02*
X175268095Y-71213390D01*
X175268095Y-71213390D02*
X175315714Y-71022914D01*
X175315714Y-71022914D02*
X175363333Y-70927676D01*
X175363333Y-70927676D02*
X175458571Y-70832438D01*
X175458571Y-70832438D02*
X175601428Y-70784819D01*
X175601428Y-70784819D02*
X175696666Y-70784819D01*
X175696666Y-70784819D02*
X175839523Y-70832438D01*
X175839523Y-70832438D02*
X175887142Y-70880057D01*
X176268095Y-70880057D02*
X176315714Y-70832438D01*
X176315714Y-70832438D02*
X176410952Y-70784819D01*
X176410952Y-70784819D02*
X176649047Y-70784819D01*
X176649047Y-70784819D02*
X176744285Y-70832438D01*
X176744285Y-70832438D02*
X176791904Y-70880057D01*
X176791904Y-70880057D02*
X176839523Y-70975295D01*
X176839523Y-70975295D02*
X176839523Y-71070533D01*
X176839523Y-71070533D02*
X176791904Y-71213390D01*
X176791904Y-71213390D02*
X176220476Y-71784819D01*
X176220476Y-71784819D02*
X176839523Y-71784819D01*
X177744285Y-70784819D02*
X177268095Y-70784819D01*
X177268095Y-70784819D02*
X177220476Y-71261009D01*
X177220476Y-71261009D02*
X177268095Y-71213390D01*
X177268095Y-71213390D02*
X177363333Y-71165771D01*
X177363333Y-71165771D02*
X177601428Y-71165771D01*
X177601428Y-71165771D02*
X177696666Y-71213390D01*
X177696666Y-71213390D02*
X177744285Y-71261009D01*
X177744285Y-71261009D02*
X177791904Y-71356247D01*
X177791904Y-71356247D02*
X177791904Y-71594342D01*
X177791904Y-71594342D02*
X177744285Y-71689580D01*
X177744285Y-71689580D02*
X177696666Y-71737200D01*
X177696666Y-71737200D02*
X177601428Y-71784819D01*
X177601428Y-71784819D02*
X177363333Y-71784819D01*
X177363333Y-71784819D02*
X177268095Y-71737200D01*
X177268095Y-71737200D02*
X177220476Y-71689580D01*
X180051009Y-77463809D02*
X180051009Y-77797142D01*
X180574819Y-77797142D02*
X179574819Y-77797142D01*
X179574819Y-77797142D02*
X179574819Y-77320952D01*
X180574819Y-76939999D02*
X179908152Y-76939999D01*
X179574819Y-76939999D02*
X179622438Y-76987618D01*
X179622438Y-76987618D02*
X179670057Y-76939999D01*
X179670057Y-76939999D02*
X179622438Y-76892380D01*
X179622438Y-76892380D02*
X179574819Y-76939999D01*
X179574819Y-76939999D02*
X179670057Y-76939999D01*
X179908152Y-76463809D02*
X180574819Y-76463809D01*
X180003390Y-76463809D02*
X179955771Y-76416190D01*
X179955771Y-76416190D02*
X179908152Y-76320952D01*
X179908152Y-76320952D02*
X179908152Y-76178095D01*
X179908152Y-76178095D02*
X179955771Y-76082857D01*
X179955771Y-76082857D02*
X180051009Y-76035238D01*
X180051009Y-76035238D02*
X180574819Y-76035238D01*
X180574819Y-75130476D02*
X179574819Y-75130476D01*
X180527200Y-75130476D02*
X180574819Y-75225714D01*
X180574819Y-75225714D02*
X180574819Y-75416190D01*
X180574819Y-75416190D02*
X180527200Y-75511428D01*
X180527200Y-75511428D02*
X180479580Y-75559047D01*
X180479580Y-75559047D02*
X180384342Y-75606666D01*
X180384342Y-75606666D02*
X180098628Y-75606666D01*
X180098628Y-75606666D02*
X180003390Y-75559047D01*
X180003390Y-75559047D02*
X179955771Y-75511428D01*
X179955771Y-75511428D02*
X179908152Y-75416190D01*
X179908152Y-75416190D02*
X179908152Y-75225714D01*
X179908152Y-75225714D02*
X179955771Y-75130476D01*
X180670057Y-74892381D02*
X180670057Y-74130476D01*
X180574819Y-73892380D02*
X179574819Y-73892380D01*
X180051009Y-73892380D02*
X180051009Y-73320952D01*
X180574819Y-73320952D02*
X179574819Y-73320952D01*
X180574819Y-72701904D02*
X180527200Y-72797142D01*
X180527200Y-72797142D02*
X180479580Y-72844761D01*
X180479580Y-72844761D02*
X180384342Y-72892380D01*
X180384342Y-72892380D02*
X180098628Y-72892380D01*
X180098628Y-72892380D02*
X180003390Y-72844761D01*
X180003390Y-72844761D02*
X179955771Y-72797142D01*
X179955771Y-72797142D02*
X179908152Y-72701904D01*
X179908152Y-72701904D02*
X179908152Y-72559047D01*
X179908152Y-72559047D02*
X179955771Y-72463809D01*
X179955771Y-72463809D02*
X180003390Y-72416190D01*
X180003390Y-72416190D02*
X180098628Y-72368571D01*
X180098628Y-72368571D02*
X180384342Y-72368571D01*
X180384342Y-72368571D02*
X180479580Y-72416190D01*
X180479580Y-72416190D02*
X180527200Y-72463809D01*
X180527200Y-72463809D02*
X180574819Y-72559047D01*
X180574819Y-72559047D02*
X180574819Y-72701904D01*
X180527200Y-71987618D02*
X180574819Y-71892380D01*
X180574819Y-71892380D02*
X180574819Y-71701904D01*
X180574819Y-71701904D02*
X180527200Y-71606666D01*
X180527200Y-71606666D02*
X180431961Y-71559047D01*
X180431961Y-71559047D02*
X180384342Y-71559047D01*
X180384342Y-71559047D02*
X180289104Y-71606666D01*
X180289104Y-71606666D02*
X180241485Y-71701904D01*
X180241485Y-71701904D02*
X180241485Y-71844761D01*
X180241485Y-71844761D02*
X180193866Y-71939999D01*
X180193866Y-71939999D02*
X180098628Y-71987618D01*
X180098628Y-71987618D02*
X180051009Y-71987618D01*
X180051009Y-71987618D02*
X179955771Y-71939999D01*
X179955771Y-71939999D02*
X179908152Y-71844761D01*
X179908152Y-71844761D02*
X179908152Y-71701904D01*
X179908152Y-71701904D02*
X179955771Y-71606666D01*
X179908152Y-71273332D02*
X179908152Y-70892380D01*
X179574819Y-71130475D02*
X180431961Y-71130475D01*
X180431961Y-71130475D02*
X180527200Y-71082856D01*
X180527200Y-71082856D02*
X180574819Y-70987618D01*
X180574819Y-70987618D02*
X180574819Y-70892380D01*
X179670057Y-70606665D02*
X179622438Y-70559046D01*
X179622438Y-70559046D02*
X179574819Y-70463808D01*
X179574819Y-70463808D02*
X179574819Y-70225713D01*
X179574819Y-70225713D02*
X179622438Y-70130475D01*
X179622438Y-70130475D02*
X179670057Y-70082856D01*
X179670057Y-70082856D02*
X179765295Y-70035237D01*
X179765295Y-70035237D02*
X179860533Y-70035237D01*
X179860533Y-70035237D02*
X180003390Y-70082856D01*
X180003390Y-70082856D02*
X180574819Y-70654284D01*
X180574819Y-70654284D02*
X180574819Y-70035237D01*
X182797200Y-84461904D02*
X182844819Y-84319047D01*
X182844819Y-84319047D02*
X182844819Y-84080952D01*
X182844819Y-84080952D02*
X182797200Y-83985714D01*
X182797200Y-83985714D02*
X182749580Y-83938095D01*
X182749580Y-83938095D02*
X182654342Y-83890476D01*
X182654342Y-83890476D02*
X182559104Y-83890476D01*
X182559104Y-83890476D02*
X182463866Y-83938095D01*
X182463866Y-83938095D02*
X182416247Y-83985714D01*
X182416247Y-83985714D02*
X182368628Y-84080952D01*
X182368628Y-84080952D02*
X182321009Y-84271428D01*
X182321009Y-84271428D02*
X182273390Y-84366666D01*
X182273390Y-84366666D02*
X182225771Y-84414285D01*
X182225771Y-84414285D02*
X182130533Y-84461904D01*
X182130533Y-84461904D02*
X182035295Y-84461904D01*
X182035295Y-84461904D02*
X181940057Y-84414285D01*
X181940057Y-84414285D02*
X181892438Y-84366666D01*
X181892438Y-84366666D02*
X181844819Y-84271428D01*
X181844819Y-84271428D02*
X181844819Y-84033333D01*
X181844819Y-84033333D02*
X181892438Y-83890476D01*
X181940057Y-83509523D02*
X181892438Y-83461904D01*
X181892438Y-83461904D02*
X181844819Y-83366666D01*
X181844819Y-83366666D02*
X181844819Y-83128571D01*
X181844819Y-83128571D02*
X181892438Y-83033333D01*
X181892438Y-83033333D02*
X181940057Y-82985714D01*
X181940057Y-82985714D02*
X182035295Y-82938095D01*
X182035295Y-82938095D02*
X182130533Y-82938095D01*
X182130533Y-82938095D02*
X182273390Y-82985714D01*
X182273390Y-82985714D02*
X182844819Y-83557142D01*
X182844819Y-83557142D02*
X182844819Y-82938095D01*
X141617142Y-62199580D02*
X141569523Y-62247200D01*
X141569523Y-62247200D02*
X141426666Y-62294819D01*
X141426666Y-62294819D02*
X141331428Y-62294819D01*
X141331428Y-62294819D02*
X141188571Y-62247200D01*
X141188571Y-62247200D02*
X141093333Y-62151961D01*
X141093333Y-62151961D02*
X141045714Y-62056723D01*
X141045714Y-62056723D02*
X140998095Y-61866247D01*
X140998095Y-61866247D02*
X140998095Y-61723390D01*
X140998095Y-61723390D02*
X141045714Y-61532914D01*
X141045714Y-61532914D02*
X141093333Y-61437676D01*
X141093333Y-61437676D02*
X141188571Y-61342438D01*
X141188571Y-61342438D02*
X141331428Y-61294819D01*
X141331428Y-61294819D02*
X141426666Y-61294819D01*
X141426666Y-61294819D02*
X141569523Y-61342438D01*
X141569523Y-61342438D02*
X141617142Y-61390057D01*
X142474285Y-61628152D02*
X142474285Y-62294819D01*
X142236190Y-61247200D02*
X141998095Y-61961485D01*
X141998095Y-61961485D02*
X142617142Y-61961485D01*
X143188571Y-61294819D02*
X143283809Y-61294819D01*
X143283809Y-61294819D02*
X143379047Y-61342438D01*
X143379047Y-61342438D02*
X143426666Y-61390057D01*
X143426666Y-61390057D02*
X143474285Y-61485295D01*
X143474285Y-61485295D02*
X143521904Y-61675771D01*
X143521904Y-61675771D02*
X143521904Y-61913866D01*
X143521904Y-61913866D02*
X143474285Y-62104342D01*
X143474285Y-62104342D02*
X143426666Y-62199580D01*
X143426666Y-62199580D02*
X143379047Y-62247200D01*
X143379047Y-62247200D02*
X143283809Y-62294819D01*
X143283809Y-62294819D02*
X143188571Y-62294819D01*
X143188571Y-62294819D02*
X143093333Y-62247200D01*
X143093333Y-62247200D02*
X143045714Y-62199580D01*
X143045714Y-62199580D02*
X142998095Y-62104342D01*
X142998095Y-62104342D02*
X142950476Y-61913866D01*
X142950476Y-61913866D02*
X142950476Y-61675771D01*
X142950476Y-61675771D02*
X142998095Y-61485295D01*
X142998095Y-61485295D02*
X143045714Y-61390057D01*
X143045714Y-61390057D02*
X143093333Y-61342438D01*
X143093333Y-61342438D02*
X143188571Y-61294819D01*
X53723333Y-74839580D02*
X53675714Y-74887200D01*
X53675714Y-74887200D02*
X53532857Y-74934819D01*
X53532857Y-74934819D02*
X53437619Y-74934819D01*
X53437619Y-74934819D02*
X53294762Y-74887200D01*
X53294762Y-74887200D02*
X53199524Y-74791961D01*
X53199524Y-74791961D02*
X53151905Y-74696723D01*
X53151905Y-74696723D02*
X53104286Y-74506247D01*
X53104286Y-74506247D02*
X53104286Y-74363390D01*
X53104286Y-74363390D02*
X53151905Y-74172914D01*
X53151905Y-74172914D02*
X53199524Y-74077676D01*
X53199524Y-74077676D02*
X53294762Y-73982438D01*
X53294762Y-73982438D02*
X53437619Y-73934819D01*
X53437619Y-73934819D02*
X53532857Y-73934819D01*
X53532857Y-73934819D02*
X53675714Y-73982438D01*
X53675714Y-73982438D02*
X53723333Y-74030057D01*
X54104286Y-74030057D02*
X54151905Y-73982438D01*
X54151905Y-73982438D02*
X54247143Y-73934819D01*
X54247143Y-73934819D02*
X54485238Y-73934819D01*
X54485238Y-73934819D02*
X54580476Y-73982438D01*
X54580476Y-73982438D02*
X54628095Y-74030057D01*
X54628095Y-74030057D02*
X54675714Y-74125295D01*
X54675714Y-74125295D02*
X54675714Y-74220533D01*
X54675714Y-74220533D02*
X54628095Y-74363390D01*
X54628095Y-74363390D02*
X54056667Y-74934819D01*
X54056667Y-74934819D02*
X54675714Y-74934819D01*
X164854405Y-89824819D02*
X164854405Y-90634342D01*
X164854405Y-90634342D02*
X164902024Y-90729580D01*
X164902024Y-90729580D02*
X164949643Y-90777200D01*
X164949643Y-90777200D02*
X165044881Y-90824819D01*
X165044881Y-90824819D02*
X165235357Y-90824819D01*
X165235357Y-90824819D02*
X165330595Y-90777200D01*
X165330595Y-90777200D02*
X165378214Y-90729580D01*
X165378214Y-90729580D02*
X165425833Y-90634342D01*
X165425833Y-90634342D02*
X165425833Y-89824819D01*
X166425833Y-90824819D02*
X165854405Y-90824819D01*
X166140119Y-90824819D02*
X166140119Y-89824819D01*
X166140119Y-89824819D02*
X166044881Y-89967676D01*
X166044881Y-89967676D02*
X165949643Y-90062914D01*
X165949643Y-90062914D02*
X165854405Y-90110533D01*
X166759167Y-89824819D02*
X167378214Y-89824819D01*
X167378214Y-89824819D02*
X167044881Y-90205771D01*
X167044881Y-90205771D02*
X167187738Y-90205771D01*
X167187738Y-90205771D02*
X167282976Y-90253390D01*
X167282976Y-90253390D02*
X167330595Y-90301009D01*
X167330595Y-90301009D02*
X167378214Y-90396247D01*
X167378214Y-90396247D02*
X167378214Y-90634342D01*
X167378214Y-90634342D02*
X167330595Y-90729580D01*
X167330595Y-90729580D02*
X167282976Y-90777200D01*
X167282976Y-90777200D02*
X167187738Y-90824819D01*
X167187738Y-90824819D02*
X166902024Y-90824819D01*
X166902024Y-90824819D02*
X166806786Y-90777200D01*
X166806786Y-90777200D02*
X166759167Y-90729580D01*
X139211905Y-32154819D02*
X139211905Y-32964342D01*
X139211905Y-32964342D02*
X139259524Y-33059580D01*
X139259524Y-33059580D02*
X139307143Y-33107200D01*
X139307143Y-33107200D02*
X139402381Y-33154819D01*
X139402381Y-33154819D02*
X139592857Y-33154819D01*
X139592857Y-33154819D02*
X139688095Y-33107200D01*
X139688095Y-33107200D02*
X139735714Y-33059580D01*
X139735714Y-33059580D02*
X139783333Y-32964342D01*
X139783333Y-32964342D02*
X139783333Y-32154819D01*
X140783333Y-33154819D02*
X140211905Y-33154819D01*
X140497619Y-33154819D02*
X140497619Y-32154819D01*
X140497619Y-32154819D02*
X140402381Y-32297676D01*
X140402381Y-32297676D02*
X140307143Y-32392914D01*
X140307143Y-32392914D02*
X140211905Y-32440533D01*
X141402381Y-32154819D02*
X141497619Y-32154819D01*
X141497619Y-32154819D02*
X141592857Y-32202438D01*
X141592857Y-32202438D02*
X141640476Y-32250057D01*
X141640476Y-32250057D02*
X141688095Y-32345295D01*
X141688095Y-32345295D02*
X141735714Y-32535771D01*
X141735714Y-32535771D02*
X141735714Y-32773866D01*
X141735714Y-32773866D02*
X141688095Y-32964342D01*
X141688095Y-32964342D02*
X141640476Y-33059580D01*
X141640476Y-33059580D02*
X141592857Y-33107200D01*
X141592857Y-33107200D02*
X141497619Y-33154819D01*
X141497619Y-33154819D02*
X141402381Y-33154819D01*
X141402381Y-33154819D02*
X141307143Y-33107200D01*
X141307143Y-33107200D02*
X141259524Y-33059580D01*
X141259524Y-33059580D02*
X141211905Y-32964342D01*
X141211905Y-32964342D02*
X141164286Y-32773866D01*
X141164286Y-32773866D02*
X141164286Y-32535771D01*
X141164286Y-32535771D02*
X141211905Y-32345295D01*
X141211905Y-32345295D02*
X141259524Y-32250057D01*
X141259524Y-32250057D02*
X141307143Y-32202438D01*
X141307143Y-32202438D02*
X141402381Y-32154819D01*
X64909411Y-69654819D02*
X64909411Y-70464342D01*
X64909411Y-70464342D02*
X64957030Y-70559580D01*
X64957030Y-70559580D02*
X65004649Y-70607200D01*
X65004649Y-70607200D02*
X65099887Y-70654819D01*
X65099887Y-70654819D02*
X65290363Y-70654819D01*
X65290363Y-70654819D02*
X65385601Y-70607200D01*
X65385601Y-70607200D02*
X65433220Y-70559580D01*
X65433220Y-70559580D02*
X65480839Y-70464342D01*
X65480839Y-70464342D02*
X65480839Y-69654819D01*
X65909411Y-69750057D02*
X65957030Y-69702438D01*
X65957030Y-69702438D02*
X66052268Y-69654819D01*
X66052268Y-69654819D02*
X66290363Y-69654819D01*
X66290363Y-69654819D02*
X66385601Y-69702438D01*
X66385601Y-69702438D02*
X66433220Y-69750057D01*
X66433220Y-69750057D02*
X66480839Y-69845295D01*
X66480839Y-69845295D02*
X66480839Y-69940533D01*
X66480839Y-69940533D02*
X66433220Y-70083390D01*
X66433220Y-70083390D02*
X65861792Y-70654819D01*
X65861792Y-70654819D02*
X66480839Y-70654819D01*
X49826667Y-39156104D02*
X49788571Y-39194200D01*
X49788571Y-39194200D02*
X49674286Y-39232295D01*
X49674286Y-39232295D02*
X49598095Y-39232295D01*
X49598095Y-39232295D02*
X49483809Y-39194200D01*
X49483809Y-39194200D02*
X49407619Y-39118009D01*
X49407619Y-39118009D02*
X49369524Y-39041819D01*
X49369524Y-39041819D02*
X49331428Y-38889438D01*
X49331428Y-38889438D02*
X49331428Y-38775152D01*
X49331428Y-38775152D02*
X49369524Y-38622771D01*
X49369524Y-38622771D02*
X49407619Y-38546580D01*
X49407619Y-38546580D02*
X49483809Y-38470390D01*
X49483809Y-38470390D02*
X49598095Y-38432295D01*
X49598095Y-38432295D02*
X49674286Y-38432295D01*
X49674286Y-38432295D02*
X49788571Y-38470390D01*
X49788571Y-38470390D02*
X49826667Y-38508485D01*
X50550476Y-38432295D02*
X50169524Y-38432295D01*
X50169524Y-38432295D02*
X50131428Y-38813247D01*
X50131428Y-38813247D02*
X50169524Y-38775152D01*
X50169524Y-38775152D02*
X50245714Y-38737057D01*
X50245714Y-38737057D02*
X50436190Y-38737057D01*
X50436190Y-38737057D02*
X50512381Y-38775152D01*
X50512381Y-38775152D02*
X50550476Y-38813247D01*
X50550476Y-38813247D02*
X50588571Y-38889438D01*
X50588571Y-38889438D02*
X50588571Y-39079914D01*
X50588571Y-39079914D02*
X50550476Y-39156104D01*
X50550476Y-39156104D02*
X50512381Y-39194200D01*
X50512381Y-39194200D02*
X50436190Y-39232295D01*
X50436190Y-39232295D02*
X50245714Y-39232295D01*
X50245714Y-39232295D02*
X50169524Y-39194200D01*
X50169524Y-39194200D02*
X50131428Y-39156104D01*
X81833333Y-87114819D02*
X81357143Y-87114819D01*
X81357143Y-87114819D02*
X81357143Y-86114819D01*
X82690476Y-87114819D02*
X82119048Y-87114819D01*
X82404762Y-87114819D02*
X82404762Y-86114819D01*
X82404762Y-86114819D02*
X82309524Y-86257676D01*
X82309524Y-86257676D02*
X82214286Y-86352914D01*
X82214286Y-86352914D02*
X82119048Y-86400533D01*
X66841905Y-79894819D02*
X66841905Y-78894819D01*
X66841905Y-78894819D02*
X67080000Y-78894819D01*
X67080000Y-78894819D02*
X67222857Y-78942438D01*
X67222857Y-78942438D02*
X67318095Y-79037676D01*
X67318095Y-79037676D02*
X67365714Y-79132914D01*
X67365714Y-79132914D02*
X67413333Y-79323390D01*
X67413333Y-79323390D02*
X67413333Y-79466247D01*
X67413333Y-79466247D02*
X67365714Y-79656723D01*
X67365714Y-79656723D02*
X67318095Y-79751961D01*
X67318095Y-79751961D02*
X67222857Y-79847200D01*
X67222857Y-79847200D02*
X67080000Y-79894819D01*
X67080000Y-79894819D02*
X66841905Y-79894819D01*
X67746667Y-78894819D02*
X68365714Y-78894819D01*
X68365714Y-78894819D02*
X68032381Y-79275771D01*
X68032381Y-79275771D02*
X68175238Y-79275771D01*
X68175238Y-79275771D02*
X68270476Y-79323390D01*
X68270476Y-79323390D02*
X68318095Y-79371009D01*
X68318095Y-79371009D02*
X68365714Y-79466247D01*
X68365714Y-79466247D02*
X68365714Y-79704342D01*
X68365714Y-79704342D02*
X68318095Y-79799580D01*
X68318095Y-79799580D02*
X68270476Y-79847200D01*
X68270476Y-79847200D02*
X68175238Y-79894819D01*
X68175238Y-79894819D02*
X67889524Y-79894819D01*
X67889524Y-79894819D02*
X67794286Y-79847200D01*
X67794286Y-79847200D02*
X67746667Y-79799580D01*
X53753333Y-80204819D02*
X53420000Y-79728628D01*
X53181905Y-80204819D02*
X53181905Y-79204819D01*
X53181905Y-79204819D02*
X53562857Y-79204819D01*
X53562857Y-79204819D02*
X53658095Y-79252438D01*
X53658095Y-79252438D02*
X53705714Y-79300057D01*
X53705714Y-79300057D02*
X53753333Y-79395295D01*
X53753333Y-79395295D02*
X53753333Y-79538152D01*
X53753333Y-79538152D02*
X53705714Y-79633390D01*
X53705714Y-79633390D02*
X53658095Y-79681009D01*
X53658095Y-79681009D02*
X53562857Y-79728628D01*
X53562857Y-79728628D02*
X53181905Y-79728628D01*
X54658095Y-79204819D02*
X54181905Y-79204819D01*
X54181905Y-79204819D02*
X54134286Y-79681009D01*
X54134286Y-79681009D02*
X54181905Y-79633390D01*
X54181905Y-79633390D02*
X54277143Y-79585771D01*
X54277143Y-79585771D02*
X54515238Y-79585771D01*
X54515238Y-79585771D02*
X54610476Y-79633390D01*
X54610476Y-79633390D02*
X54658095Y-79681009D01*
X54658095Y-79681009D02*
X54705714Y-79776247D01*
X54705714Y-79776247D02*
X54705714Y-80014342D01*
X54705714Y-80014342D02*
X54658095Y-80109580D01*
X54658095Y-80109580D02*
X54610476Y-80157200D01*
X54610476Y-80157200D02*
X54515238Y-80204819D01*
X54515238Y-80204819D02*
X54277143Y-80204819D01*
X54277143Y-80204819D02*
X54181905Y-80157200D01*
X54181905Y-80157200D02*
X54134286Y-80109580D01*
X60637142Y-33234580D02*
X60589523Y-33282200D01*
X60589523Y-33282200D02*
X60446666Y-33329819D01*
X60446666Y-33329819D02*
X60351428Y-33329819D01*
X60351428Y-33329819D02*
X60208571Y-33282200D01*
X60208571Y-33282200D02*
X60113333Y-33186961D01*
X60113333Y-33186961D02*
X60065714Y-33091723D01*
X60065714Y-33091723D02*
X60018095Y-32901247D01*
X60018095Y-32901247D02*
X60018095Y-32758390D01*
X60018095Y-32758390D02*
X60065714Y-32567914D01*
X60065714Y-32567914D02*
X60113333Y-32472676D01*
X60113333Y-32472676D02*
X60208571Y-32377438D01*
X60208571Y-32377438D02*
X60351428Y-32329819D01*
X60351428Y-32329819D02*
X60446666Y-32329819D01*
X60446666Y-32329819D02*
X60589523Y-32377438D01*
X60589523Y-32377438D02*
X60637142Y-32425057D01*
X61589523Y-33329819D02*
X61018095Y-33329819D01*
X61303809Y-33329819D02*
X61303809Y-32329819D01*
X61303809Y-32329819D02*
X61208571Y-32472676D01*
X61208571Y-32472676D02*
X61113333Y-32567914D01*
X61113333Y-32567914D02*
X61018095Y-32615533D01*
X61970476Y-32425057D02*
X62018095Y-32377438D01*
X62018095Y-32377438D02*
X62113333Y-32329819D01*
X62113333Y-32329819D02*
X62351428Y-32329819D01*
X62351428Y-32329819D02*
X62446666Y-32377438D01*
X62446666Y-32377438D02*
X62494285Y-32425057D01*
X62494285Y-32425057D02*
X62541904Y-32520295D01*
X62541904Y-32520295D02*
X62541904Y-32615533D01*
X62541904Y-32615533D02*
X62494285Y-32758390D01*
X62494285Y-32758390D02*
X61922857Y-33329819D01*
X61922857Y-33329819D02*
X62541904Y-33329819D01*
X53707142Y-78349580D02*
X53659523Y-78397200D01*
X53659523Y-78397200D02*
X53516666Y-78444819D01*
X53516666Y-78444819D02*
X53421428Y-78444819D01*
X53421428Y-78444819D02*
X53278571Y-78397200D01*
X53278571Y-78397200D02*
X53183333Y-78301961D01*
X53183333Y-78301961D02*
X53135714Y-78206723D01*
X53135714Y-78206723D02*
X53088095Y-78016247D01*
X53088095Y-78016247D02*
X53088095Y-77873390D01*
X53088095Y-77873390D02*
X53135714Y-77682914D01*
X53135714Y-77682914D02*
X53183333Y-77587676D01*
X53183333Y-77587676D02*
X53278571Y-77492438D01*
X53278571Y-77492438D02*
X53421428Y-77444819D01*
X53421428Y-77444819D02*
X53516666Y-77444819D01*
X53516666Y-77444819D02*
X53659523Y-77492438D01*
X53659523Y-77492438D02*
X53707142Y-77540057D01*
X54659523Y-78444819D02*
X54088095Y-78444819D01*
X54373809Y-78444819D02*
X54373809Y-77444819D01*
X54373809Y-77444819D02*
X54278571Y-77587676D01*
X54278571Y-77587676D02*
X54183333Y-77682914D01*
X54183333Y-77682914D02*
X54088095Y-77730533D01*
X55278571Y-77444819D02*
X55373809Y-77444819D01*
X55373809Y-77444819D02*
X55469047Y-77492438D01*
X55469047Y-77492438D02*
X55516666Y-77540057D01*
X55516666Y-77540057D02*
X55564285Y-77635295D01*
X55564285Y-77635295D02*
X55611904Y-77825771D01*
X55611904Y-77825771D02*
X55611904Y-78063866D01*
X55611904Y-78063866D02*
X55564285Y-78254342D01*
X55564285Y-78254342D02*
X55516666Y-78349580D01*
X55516666Y-78349580D02*
X55469047Y-78397200D01*
X55469047Y-78397200D02*
X55373809Y-78444819D01*
X55373809Y-78444819D02*
X55278571Y-78444819D01*
X55278571Y-78444819D02*
X55183333Y-78397200D01*
X55183333Y-78397200D02*
X55135714Y-78349580D01*
X55135714Y-78349580D02*
X55088095Y-78254342D01*
X55088095Y-78254342D02*
X55040476Y-78063866D01*
X55040476Y-78063866D02*
X55040476Y-77825771D01*
X55040476Y-77825771D02*
X55088095Y-77635295D01*
X55088095Y-77635295D02*
X55135714Y-77540057D01*
X55135714Y-77540057D02*
X55183333Y-77492438D01*
X55183333Y-77492438D02*
X55278571Y-77444819D01*
X136260916Y-94140569D02*
X136260916Y-94854854D01*
X136260916Y-94854854D02*
X136213297Y-94997711D01*
X136213297Y-94997711D02*
X136118059Y-95092950D01*
X136118059Y-95092950D02*
X135975202Y-95140569D01*
X135975202Y-95140569D02*
X135879964Y-95140569D01*
X136784726Y-95140569D02*
X136975202Y-95140569D01*
X136975202Y-95140569D02*
X137070440Y-95092950D01*
X137070440Y-95092950D02*
X137118059Y-95045330D01*
X137118059Y-95045330D02*
X137213297Y-94902473D01*
X137213297Y-94902473D02*
X137260916Y-94711997D01*
X137260916Y-94711997D02*
X137260916Y-94331045D01*
X137260916Y-94331045D02*
X137213297Y-94235807D01*
X137213297Y-94235807D02*
X137165678Y-94188188D01*
X137165678Y-94188188D02*
X137070440Y-94140569D01*
X137070440Y-94140569D02*
X136879964Y-94140569D01*
X136879964Y-94140569D02*
X136784726Y-94188188D01*
X136784726Y-94188188D02*
X136737107Y-94235807D01*
X136737107Y-94235807D02*
X136689488Y-94331045D01*
X136689488Y-94331045D02*
X136689488Y-94569140D01*
X136689488Y-94569140D02*
X136737107Y-94664378D01*
X136737107Y-94664378D02*
X136784726Y-94711997D01*
X136784726Y-94711997D02*
X136879964Y-94759616D01*
X136879964Y-94759616D02*
X137070440Y-94759616D01*
X137070440Y-94759616D02*
X137165678Y-94711997D01*
X137165678Y-94711997D02*
X137213297Y-94664378D01*
X137213297Y-94664378D02*
X137260916Y-94569140D01*
X177518095Y-60454819D02*
X177518095Y-61264342D01*
X177518095Y-61264342D02*
X177565714Y-61359580D01*
X177565714Y-61359580D02*
X177613333Y-61407200D01*
X177613333Y-61407200D02*
X177708571Y-61454819D01*
X177708571Y-61454819D02*
X177899047Y-61454819D01*
X177899047Y-61454819D02*
X177994285Y-61407200D01*
X177994285Y-61407200D02*
X178041904Y-61359580D01*
X178041904Y-61359580D02*
X178089523Y-61264342D01*
X178089523Y-61264342D02*
X178089523Y-60454819D01*
X178708571Y-60883390D02*
X178613333Y-60835771D01*
X178613333Y-60835771D02*
X178565714Y-60788152D01*
X178565714Y-60788152D02*
X178518095Y-60692914D01*
X178518095Y-60692914D02*
X178518095Y-60645295D01*
X178518095Y-60645295D02*
X178565714Y-60550057D01*
X178565714Y-60550057D02*
X178613333Y-60502438D01*
X178613333Y-60502438D02*
X178708571Y-60454819D01*
X178708571Y-60454819D02*
X178899047Y-60454819D01*
X178899047Y-60454819D02*
X178994285Y-60502438D01*
X178994285Y-60502438D02*
X179041904Y-60550057D01*
X179041904Y-60550057D02*
X179089523Y-60645295D01*
X179089523Y-60645295D02*
X179089523Y-60692914D01*
X179089523Y-60692914D02*
X179041904Y-60788152D01*
X179041904Y-60788152D02*
X178994285Y-60835771D01*
X178994285Y-60835771D02*
X178899047Y-60883390D01*
X178899047Y-60883390D02*
X178708571Y-60883390D01*
X178708571Y-60883390D02*
X178613333Y-60931009D01*
X178613333Y-60931009D02*
X178565714Y-60978628D01*
X178565714Y-60978628D02*
X178518095Y-61073866D01*
X178518095Y-61073866D02*
X178518095Y-61264342D01*
X178518095Y-61264342D02*
X178565714Y-61359580D01*
X178565714Y-61359580D02*
X178613333Y-61407200D01*
X178613333Y-61407200D02*
X178708571Y-61454819D01*
X178708571Y-61454819D02*
X178899047Y-61454819D01*
X178899047Y-61454819D02*
X178994285Y-61407200D01*
X178994285Y-61407200D02*
X179041904Y-61359580D01*
X179041904Y-61359580D02*
X179089523Y-61264342D01*
X179089523Y-61264342D02*
X179089523Y-61073866D01*
X179089523Y-61073866D02*
X179041904Y-60978628D01*
X179041904Y-60978628D02*
X178994285Y-60931009D01*
X178994285Y-60931009D02*
X178899047Y-60883390D01*
X55782142Y-93489819D02*
X55448809Y-93013628D01*
X55210714Y-93489819D02*
X55210714Y-92489819D01*
X55210714Y-92489819D02*
X55591666Y-92489819D01*
X55591666Y-92489819D02*
X55686904Y-92537438D01*
X55686904Y-92537438D02*
X55734523Y-92585057D01*
X55734523Y-92585057D02*
X55782142Y-92680295D01*
X55782142Y-92680295D02*
X55782142Y-92823152D01*
X55782142Y-92823152D02*
X55734523Y-92918390D01*
X55734523Y-92918390D02*
X55686904Y-92966009D01*
X55686904Y-92966009D02*
X55591666Y-93013628D01*
X55591666Y-93013628D02*
X55210714Y-93013628D01*
X56734523Y-93489819D02*
X56163095Y-93489819D01*
X56448809Y-93489819D02*
X56448809Y-92489819D01*
X56448809Y-92489819D02*
X56353571Y-92632676D01*
X56353571Y-92632676D02*
X56258333Y-92727914D01*
X56258333Y-92727914D02*
X56163095Y-92775533D01*
X57686904Y-93489819D02*
X57115476Y-93489819D01*
X57401190Y-93489819D02*
X57401190Y-92489819D01*
X57401190Y-92489819D02*
X57305952Y-92632676D01*
X57305952Y-92632676D02*
X57210714Y-92727914D01*
X57210714Y-92727914D02*
X57115476Y-92775533D01*
X175884642Y-67394580D02*
X175837023Y-67442200D01*
X175837023Y-67442200D02*
X175694166Y-67489819D01*
X175694166Y-67489819D02*
X175598928Y-67489819D01*
X175598928Y-67489819D02*
X175456071Y-67442200D01*
X175456071Y-67442200D02*
X175360833Y-67346961D01*
X175360833Y-67346961D02*
X175313214Y-67251723D01*
X175313214Y-67251723D02*
X175265595Y-67061247D01*
X175265595Y-67061247D02*
X175265595Y-66918390D01*
X175265595Y-66918390D02*
X175313214Y-66727914D01*
X175313214Y-66727914D02*
X175360833Y-66632676D01*
X175360833Y-66632676D02*
X175456071Y-66537438D01*
X175456071Y-66537438D02*
X175598928Y-66489819D01*
X175598928Y-66489819D02*
X175694166Y-66489819D01*
X175694166Y-66489819D02*
X175837023Y-66537438D01*
X175837023Y-66537438D02*
X175884642Y-66585057D01*
X176265595Y-66585057D02*
X176313214Y-66537438D01*
X176313214Y-66537438D02*
X176408452Y-66489819D01*
X176408452Y-66489819D02*
X176646547Y-66489819D01*
X176646547Y-66489819D02*
X176741785Y-66537438D01*
X176741785Y-66537438D02*
X176789404Y-66585057D01*
X176789404Y-66585057D02*
X176837023Y-66680295D01*
X176837023Y-66680295D02*
X176837023Y-66775533D01*
X176837023Y-66775533D02*
X176789404Y-66918390D01*
X176789404Y-66918390D02*
X176217976Y-67489819D01*
X176217976Y-67489819D02*
X176837023Y-67489819D01*
X177170357Y-66489819D02*
X177837023Y-66489819D01*
X177837023Y-66489819D02*
X177408452Y-67489819D01*
X180402142Y-63544819D02*
X180068809Y-63068628D01*
X179830714Y-63544819D02*
X179830714Y-62544819D01*
X179830714Y-62544819D02*
X180211666Y-62544819D01*
X180211666Y-62544819D02*
X180306904Y-62592438D01*
X180306904Y-62592438D02*
X180354523Y-62640057D01*
X180354523Y-62640057D02*
X180402142Y-62735295D01*
X180402142Y-62735295D02*
X180402142Y-62878152D01*
X180402142Y-62878152D02*
X180354523Y-62973390D01*
X180354523Y-62973390D02*
X180306904Y-63021009D01*
X180306904Y-63021009D02*
X180211666Y-63068628D01*
X180211666Y-63068628D02*
X179830714Y-63068628D01*
X180783095Y-62640057D02*
X180830714Y-62592438D01*
X180830714Y-62592438D02*
X180925952Y-62544819D01*
X180925952Y-62544819D02*
X181164047Y-62544819D01*
X181164047Y-62544819D02*
X181259285Y-62592438D01*
X181259285Y-62592438D02*
X181306904Y-62640057D01*
X181306904Y-62640057D02*
X181354523Y-62735295D01*
X181354523Y-62735295D02*
X181354523Y-62830533D01*
X181354523Y-62830533D02*
X181306904Y-62973390D01*
X181306904Y-62973390D02*
X180735476Y-63544819D01*
X180735476Y-63544819D02*
X181354523Y-63544819D01*
X182306904Y-63544819D02*
X181735476Y-63544819D01*
X182021190Y-63544819D02*
X182021190Y-62544819D01*
X182021190Y-62544819D02*
X181925952Y-62687676D01*
X181925952Y-62687676D02*
X181830714Y-62782914D01*
X181830714Y-62782914D02*
X181735476Y-62830533D01*
X168727142Y-74644819D02*
X168393809Y-74168628D01*
X168155714Y-74644819D02*
X168155714Y-73644819D01*
X168155714Y-73644819D02*
X168536666Y-73644819D01*
X168536666Y-73644819D02*
X168631904Y-73692438D01*
X168631904Y-73692438D02*
X168679523Y-73740057D01*
X168679523Y-73740057D02*
X168727142Y-73835295D01*
X168727142Y-73835295D02*
X168727142Y-73978152D01*
X168727142Y-73978152D02*
X168679523Y-74073390D01*
X168679523Y-74073390D02*
X168631904Y-74121009D01*
X168631904Y-74121009D02*
X168536666Y-74168628D01*
X168536666Y-74168628D02*
X168155714Y-74168628D01*
X169108095Y-73740057D02*
X169155714Y-73692438D01*
X169155714Y-73692438D02*
X169250952Y-73644819D01*
X169250952Y-73644819D02*
X169489047Y-73644819D01*
X169489047Y-73644819D02*
X169584285Y-73692438D01*
X169584285Y-73692438D02*
X169631904Y-73740057D01*
X169631904Y-73740057D02*
X169679523Y-73835295D01*
X169679523Y-73835295D02*
X169679523Y-73930533D01*
X169679523Y-73930533D02*
X169631904Y-74073390D01*
X169631904Y-74073390D02*
X169060476Y-74644819D01*
X169060476Y-74644819D02*
X169679523Y-74644819D01*
X170536666Y-73978152D02*
X170536666Y-74644819D01*
X170298571Y-73597200D02*
X170060476Y-74311485D01*
X170060476Y-74311485D02*
X170679523Y-74311485D01*
X95262142Y-76284819D02*
X94928809Y-75808628D01*
X94690714Y-76284819D02*
X94690714Y-75284819D01*
X94690714Y-75284819D02*
X95071666Y-75284819D01*
X95071666Y-75284819D02*
X95166904Y-75332438D01*
X95166904Y-75332438D02*
X95214523Y-75380057D01*
X95214523Y-75380057D02*
X95262142Y-75475295D01*
X95262142Y-75475295D02*
X95262142Y-75618152D01*
X95262142Y-75618152D02*
X95214523Y-75713390D01*
X95214523Y-75713390D02*
X95166904Y-75761009D01*
X95166904Y-75761009D02*
X95071666Y-75808628D01*
X95071666Y-75808628D02*
X94690714Y-75808628D01*
X96214523Y-76284819D02*
X95643095Y-76284819D01*
X95928809Y-76284819D02*
X95928809Y-75284819D01*
X95928809Y-75284819D02*
X95833571Y-75427676D01*
X95833571Y-75427676D02*
X95738333Y-75522914D01*
X95738333Y-75522914D02*
X95643095Y-75570533D01*
X96785952Y-75713390D02*
X96690714Y-75665771D01*
X96690714Y-75665771D02*
X96643095Y-75618152D01*
X96643095Y-75618152D02*
X96595476Y-75522914D01*
X96595476Y-75522914D02*
X96595476Y-75475295D01*
X96595476Y-75475295D02*
X96643095Y-75380057D01*
X96643095Y-75380057D02*
X96690714Y-75332438D01*
X96690714Y-75332438D02*
X96785952Y-75284819D01*
X96785952Y-75284819D02*
X96976428Y-75284819D01*
X96976428Y-75284819D02*
X97071666Y-75332438D01*
X97071666Y-75332438D02*
X97119285Y-75380057D01*
X97119285Y-75380057D02*
X97166904Y-75475295D01*
X97166904Y-75475295D02*
X97166904Y-75522914D01*
X97166904Y-75522914D02*
X97119285Y-75618152D01*
X97119285Y-75618152D02*
X97071666Y-75665771D01*
X97071666Y-75665771D02*
X96976428Y-75713390D01*
X96976428Y-75713390D02*
X96785952Y-75713390D01*
X96785952Y-75713390D02*
X96690714Y-75761009D01*
X96690714Y-75761009D02*
X96643095Y-75808628D01*
X96643095Y-75808628D02*
X96595476Y-75903866D01*
X96595476Y-75903866D02*
X96595476Y-76094342D01*
X96595476Y-76094342D02*
X96643095Y-76189580D01*
X96643095Y-76189580D02*
X96690714Y-76237200D01*
X96690714Y-76237200D02*
X96785952Y-76284819D01*
X96785952Y-76284819D02*
X96976428Y-76284819D01*
X96976428Y-76284819D02*
X97071666Y-76237200D01*
X97071666Y-76237200D02*
X97119285Y-76189580D01*
X97119285Y-76189580D02*
X97166904Y-76094342D01*
X97166904Y-76094342D02*
X97166904Y-75903866D01*
X97166904Y-75903866D02*
X97119285Y-75808628D01*
X97119285Y-75808628D02*
X97071666Y-75761009D01*
X97071666Y-75761009D02*
X96976428Y-75713390D01*
X134077142Y-71179580D02*
X134029523Y-71227200D01*
X134029523Y-71227200D02*
X133886666Y-71274819D01*
X133886666Y-71274819D02*
X133791428Y-71274819D01*
X133791428Y-71274819D02*
X133648571Y-71227200D01*
X133648571Y-71227200D02*
X133553333Y-71131961D01*
X133553333Y-71131961D02*
X133505714Y-71036723D01*
X133505714Y-71036723D02*
X133458095Y-70846247D01*
X133458095Y-70846247D02*
X133458095Y-70703390D01*
X133458095Y-70703390D02*
X133505714Y-70512914D01*
X133505714Y-70512914D02*
X133553333Y-70417676D01*
X133553333Y-70417676D02*
X133648571Y-70322438D01*
X133648571Y-70322438D02*
X133791428Y-70274819D01*
X133791428Y-70274819D02*
X133886666Y-70274819D01*
X133886666Y-70274819D02*
X134029523Y-70322438D01*
X134029523Y-70322438D02*
X134077142Y-70370057D01*
X134410476Y-70274819D02*
X135029523Y-70274819D01*
X135029523Y-70274819D02*
X134696190Y-70655771D01*
X134696190Y-70655771D02*
X134839047Y-70655771D01*
X134839047Y-70655771D02*
X134934285Y-70703390D01*
X134934285Y-70703390D02*
X134981904Y-70751009D01*
X134981904Y-70751009D02*
X135029523Y-70846247D01*
X135029523Y-70846247D02*
X135029523Y-71084342D01*
X135029523Y-71084342D02*
X134981904Y-71179580D01*
X134981904Y-71179580D02*
X134934285Y-71227200D01*
X134934285Y-71227200D02*
X134839047Y-71274819D01*
X134839047Y-71274819D02*
X134553333Y-71274819D01*
X134553333Y-71274819D02*
X134458095Y-71227200D01*
X134458095Y-71227200D02*
X134410476Y-71179580D01*
X135505714Y-71274819D02*
X135696190Y-71274819D01*
X135696190Y-71274819D02*
X135791428Y-71227200D01*
X135791428Y-71227200D02*
X135839047Y-71179580D01*
X135839047Y-71179580D02*
X135934285Y-71036723D01*
X135934285Y-71036723D02*
X135981904Y-70846247D01*
X135981904Y-70846247D02*
X135981904Y-70465295D01*
X135981904Y-70465295D02*
X135934285Y-70370057D01*
X135934285Y-70370057D02*
X135886666Y-70322438D01*
X135886666Y-70322438D02*
X135791428Y-70274819D01*
X135791428Y-70274819D02*
X135600952Y-70274819D01*
X135600952Y-70274819D02*
X135505714Y-70322438D01*
X135505714Y-70322438D02*
X135458095Y-70370057D01*
X135458095Y-70370057D02*
X135410476Y-70465295D01*
X135410476Y-70465295D02*
X135410476Y-70703390D01*
X135410476Y-70703390D02*
X135458095Y-70798628D01*
X135458095Y-70798628D02*
X135505714Y-70846247D01*
X135505714Y-70846247D02*
X135600952Y-70893866D01*
X135600952Y-70893866D02*
X135791428Y-70893866D01*
X135791428Y-70893866D02*
X135886666Y-70846247D01*
X135886666Y-70846247D02*
X135934285Y-70798628D01*
X135934285Y-70798628D02*
X135981904Y-70703390D01*
X175487142Y-81079580D02*
X175439523Y-81127200D01*
X175439523Y-81127200D02*
X175296666Y-81174819D01*
X175296666Y-81174819D02*
X175201428Y-81174819D01*
X175201428Y-81174819D02*
X175058571Y-81127200D01*
X175058571Y-81127200D02*
X174963333Y-81031961D01*
X174963333Y-81031961D02*
X174915714Y-80936723D01*
X174915714Y-80936723D02*
X174868095Y-80746247D01*
X174868095Y-80746247D02*
X174868095Y-80603390D01*
X174868095Y-80603390D02*
X174915714Y-80412914D01*
X174915714Y-80412914D02*
X174963333Y-80317676D01*
X174963333Y-80317676D02*
X175058571Y-80222438D01*
X175058571Y-80222438D02*
X175201428Y-80174819D01*
X175201428Y-80174819D02*
X175296666Y-80174819D01*
X175296666Y-80174819D02*
X175439523Y-80222438D01*
X175439523Y-80222438D02*
X175487142Y-80270057D01*
X175820476Y-80174819D02*
X176439523Y-80174819D01*
X176439523Y-80174819D02*
X176106190Y-80555771D01*
X176106190Y-80555771D02*
X176249047Y-80555771D01*
X176249047Y-80555771D02*
X176344285Y-80603390D01*
X176344285Y-80603390D02*
X176391904Y-80651009D01*
X176391904Y-80651009D02*
X176439523Y-80746247D01*
X176439523Y-80746247D02*
X176439523Y-80984342D01*
X176439523Y-80984342D02*
X176391904Y-81079580D01*
X176391904Y-81079580D02*
X176344285Y-81127200D01*
X176344285Y-81127200D02*
X176249047Y-81174819D01*
X176249047Y-81174819D02*
X175963333Y-81174819D01*
X175963333Y-81174819D02*
X175868095Y-81127200D01*
X175868095Y-81127200D02*
X175820476Y-81079580D01*
X176772857Y-80174819D02*
X177391904Y-80174819D01*
X177391904Y-80174819D02*
X177058571Y-80555771D01*
X177058571Y-80555771D02*
X177201428Y-80555771D01*
X177201428Y-80555771D02*
X177296666Y-80603390D01*
X177296666Y-80603390D02*
X177344285Y-80651009D01*
X177344285Y-80651009D02*
X177391904Y-80746247D01*
X177391904Y-80746247D02*
X177391904Y-80984342D01*
X177391904Y-80984342D02*
X177344285Y-81079580D01*
X177344285Y-81079580D02*
X177296666Y-81127200D01*
X177296666Y-81127200D02*
X177201428Y-81174819D01*
X177201428Y-81174819D02*
X176915714Y-81174819D01*
X176915714Y-81174819D02*
X176820476Y-81127200D01*
X176820476Y-81127200D02*
X176772857Y-81079580D01*
X54993333Y-36519819D02*
X54660000Y-36043628D01*
X54421905Y-36519819D02*
X54421905Y-35519819D01*
X54421905Y-35519819D02*
X54802857Y-35519819D01*
X54802857Y-35519819D02*
X54898095Y-35567438D01*
X54898095Y-35567438D02*
X54945714Y-35615057D01*
X54945714Y-35615057D02*
X54993333Y-35710295D01*
X54993333Y-35710295D02*
X54993333Y-35853152D01*
X54993333Y-35853152D02*
X54945714Y-35948390D01*
X54945714Y-35948390D02*
X54898095Y-35996009D01*
X54898095Y-35996009D02*
X54802857Y-36043628D01*
X54802857Y-36043628D02*
X54421905Y-36043628D01*
X55945714Y-36519819D02*
X55374286Y-36519819D01*
X55660000Y-36519819D02*
X55660000Y-35519819D01*
X55660000Y-35519819D02*
X55564762Y-35662676D01*
X55564762Y-35662676D02*
X55469524Y-35757914D01*
X55469524Y-35757914D02*
X55374286Y-35805533D01*
X172387142Y-93419580D02*
X172339523Y-93467200D01*
X172339523Y-93467200D02*
X172196666Y-93514819D01*
X172196666Y-93514819D02*
X172101428Y-93514819D01*
X172101428Y-93514819D02*
X171958571Y-93467200D01*
X171958571Y-93467200D02*
X171863333Y-93371961D01*
X171863333Y-93371961D02*
X171815714Y-93276723D01*
X171815714Y-93276723D02*
X171768095Y-93086247D01*
X171768095Y-93086247D02*
X171768095Y-92943390D01*
X171768095Y-92943390D02*
X171815714Y-92752914D01*
X171815714Y-92752914D02*
X171863333Y-92657676D01*
X171863333Y-92657676D02*
X171958571Y-92562438D01*
X171958571Y-92562438D02*
X172101428Y-92514819D01*
X172101428Y-92514819D02*
X172196666Y-92514819D01*
X172196666Y-92514819D02*
X172339523Y-92562438D01*
X172339523Y-92562438D02*
X172387142Y-92610057D01*
X172720476Y-92514819D02*
X173339523Y-92514819D01*
X173339523Y-92514819D02*
X173006190Y-92895771D01*
X173006190Y-92895771D02*
X173149047Y-92895771D01*
X173149047Y-92895771D02*
X173244285Y-92943390D01*
X173244285Y-92943390D02*
X173291904Y-92991009D01*
X173291904Y-92991009D02*
X173339523Y-93086247D01*
X173339523Y-93086247D02*
X173339523Y-93324342D01*
X173339523Y-93324342D02*
X173291904Y-93419580D01*
X173291904Y-93419580D02*
X173244285Y-93467200D01*
X173244285Y-93467200D02*
X173149047Y-93514819D01*
X173149047Y-93514819D02*
X172863333Y-93514819D01*
X172863333Y-93514819D02*
X172768095Y-93467200D01*
X172768095Y-93467200D02*
X172720476Y-93419580D01*
X174244285Y-92514819D02*
X173768095Y-92514819D01*
X173768095Y-92514819D02*
X173720476Y-92991009D01*
X173720476Y-92991009D02*
X173768095Y-92943390D01*
X173768095Y-92943390D02*
X173863333Y-92895771D01*
X173863333Y-92895771D02*
X174101428Y-92895771D01*
X174101428Y-92895771D02*
X174196666Y-92943390D01*
X174196666Y-92943390D02*
X174244285Y-92991009D01*
X174244285Y-92991009D02*
X174291904Y-93086247D01*
X174291904Y-93086247D02*
X174291904Y-93324342D01*
X174291904Y-93324342D02*
X174244285Y-93419580D01*
X174244285Y-93419580D02*
X174196666Y-93467200D01*
X174196666Y-93467200D02*
X174101428Y-93514819D01*
X174101428Y-93514819D02*
X173863333Y-93514819D01*
X173863333Y-93514819D02*
X173768095Y-93467200D01*
X173768095Y-93467200D02*
X173720476Y-93419580D01*
X73507142Y-57544819D02*
X73173809Y-57068628D01*
X72935714Y-57544819D02*
X72935714Y-56544819D01*
X72935714Y-56544819D02*
X73316666Y-56544819D01*
X73316666Y-56544819D02*
X73411904Y-56592438D01*
X73411904Y-56592438D02*
X73459523Y-56640057D01*
X73459523Y-56640057D02*
X73507142Y-56735295D01*
X73507142Y-56735295D02*
X73507142Y-56878152D01*
X73507142Y-56878152D02*
X73459523Y-56973390D01*
X73459523Y-56973390D02*
X73411904Y-57021009D01*
X73411904Y-57021009D02*
X73316666Y-57068628D01*
X73316666Y-57068628D02*
X72935714Y-57068628D01*
X74459523Y-57544819D02*
X73888095Y-57544819D01*
X74173809Y-57544819D02*
X74173809Y-56544819D01*
X74173809Y-56544819D02*
X74078571Y-56687676D01*
X74078571Y-56687676D02*
X73983333Y-56782914D01*
X73983333Y-56782914D02*
X73888095Y-56830533D01*
X75078571Y-56544819D02*
X75173809Y-56544819D01*
X75173809Y-56544819D02*
X75269047Y-56592438D01*
X75269047Y-56592438D02*
X75316666Y-56640057D01*
X75316666Y-56640057D02*
X75364285Y-56735295D01*
X75364285Y-56735295D02*
X75411904Y-56925771D01*
X75411904Y-56925771D02*
X75411904Y-57163866D01*
X75411904Y-57163866D02*
X75364285Y-57354342D01*
X75364285Y-57354342D02*
X75316666Y-57449580D01*
X75316666Y-57449580D02*
X75269047Y-57497200D01*
X75269047Y-57497200D02*
X75173809Y-57544819D01*
X75173809Y-57544819D02*
X75078571Y-57544819D01*
X75078571Y-57544819D02*
X74983333Y-57497200D01*
X74983333Y-57497200D02*
X74935714Y-57449580D01*
X74935714Y-57449580D02*
X74888095Y-57354342D01*
X74888095Y-57354342D02*
X74840476Y-57163866D01*
X74840476Y-57163866D02*
X74840476Y-56925771D01*
X74840476Y-56925771D02*
X74888095Y-56735295D01*
X74888095Y-56735295D02*
X74935714Y-56640057D01*
X74935714Y-56640057D02*
X74983333Y-56592438D01*
X74983333Y-56592438D02*
X75078571Y-56544819D01*
X69607142Y-95059580D02*
X69559523Y-95107200D01*
X69559523Y-95107200D02*
X69416666Y-95154819D01*
X69416666Y-95154819D02*
X69321428Y-95154819D01*
X69321428Y-95154819D02*
X69178571Y-95107200D01*
X69178571Y-95107200D02*
X69083333Y-95011961D01*
X69083333Y-95011961D02*
X69035714Y-94916723D01*
X69035714Y-94916723D02*
X68988095Y-94726247D01*
X68988095Y-94726247D02*
X68988095Y-94583390D01*
X68988095Y-94583390D02*
X69035714Y-94392914D01*
X69035714Y-94392914D02*
X69083333Y-94297676D01*
X69083333Y-94297676D02*
X69178571Y-94202438D01*
X69178571Y-94202438D02*
X69321428Y-94154819D01*
X69321428Y-94154819D02*
X69416666Y-94154819D01*
X69416666Y-94154819D02*
X69559523Y-94202438D01*
X69559523Y-94202438D02*
X69607142Y-94250057D01*
X69988095Y-94250057D02*
X70035714Y-94202438D01*
X70035714Y-94202438D02*
X70130952Y-94154819D01*
X70130952Y-94154819D02*
X70369047Y-94154819D01*
X70369047Y-94154819D02*
X70464285Y-94202438D01*
X70464285Y-94202438D02*
X70511904Y-94250057D01*
X70511904Y-94250057D02*
X70559523Y-94345295D01*
X70559523Y-94345295D02*
X70559523Y-94440533D01*
X70559523Y-94440533D02*
X70511904Y-94583390D01*
X70511904Y-94583390D02*
X69940476Y-95154819D01*
X69940476Y-95154819D02*
X70559523Y-95154819D01*
X70940476Y-94250057D02*
X70988095Y-94202438D01*
X70988095Y-94202438D02*
X71083333Y-94154819D01*
X71083333Y-94154819D02*
X71321428Y-94154819D01*
X71321428Y-94154819D02*
X71416666Y-94202438D01*
X71416666Y-94202438D02*
X71464285Y-94250057D01*
X71464285Y-94250057D02*
X71511904Y-94345295D01*
X71511904Y-94345295D02*
X71511904Y-94440533D01*
X71511904Y-94440533D02*
X71464285Y-94583390D01*
X71464285Y-94583390D02*
X70892857Y-95154819D01*
X70892857Y-95154819D02*
X71511904Y-95154819D01*
X143843695Y-36004975D02*
X143043695Y-36004975D01*
X143043695Y-36004975D02*
X143043695Y-35814499D01*
X143043695Y-35814499D02*
X143081790Y-35700213D01*
X143081790Y-35700213D02*
X143157980Y-35624023D01*
X143157980Y-35624023D02*
X143234171Y-35585928D01*
X143234171Y-35585928D02*
X143386552Y-35547832D01*
X143386552Y-35547832D02*
X143500838Y-35547832D01*
X143500838Y-35547832D02*
X143653219Y-35585928D01*
X143653219Y-35585928D02*
X143729409Y-35624023D01*
X143729409Y-35624023D02*
X143805600Y-35700213D01*
X143805600Y-35700213D02*
X143843695Y-35814499D01*
X143843695Y-35814499D02*
X143843695Y-36004975D01*
X143043695Y-34824023D02*
X143043695Y-35204975D01*
X143043695Y-35204975D02*
X143424647Y-35243071D01*
X143424647Y-35243071D02*
X143386552Y-35204975D01*
X143386552Y-35204975D02*
X143348457Y-35128785D01*
X143348457Y-35128785D02*
X143348457Y-34938309D01*
X143348457Y-34938309D02*
X143386552Y-34862118D01*
X143386552Y-34862118D02*
X143424647Y-34824023D01*
X143424647Y-34824023D02*
X143500838Y-34785928D01*
X143500838Y-34785928D02*
X143691314Y-34785928D01*
X143691314Y-34785928D02*
X143767504Y-34824023D01*
X143767504Y-34824023D02*
X143805600Y-34862118D01*
X143805600Y-34862118D02*
X143843695Y-34938309D01*
X143843695Y-34938309D02*
X143843695Y-35128785D01*
X143843695Y-35128785D02*
X143805600Y-35204975D01*
X143805600Y-35204975D02*
X143767504Y-35243071D01*
X53603333Y-73339580D02*
X53555714Y-73387200D01*
X53555714Y-73387200D02*
X53412857Y-73434819D01*
X53412857Y-73434819D02*
X53317619Y-73434819D01*
X53317619Y-73434819D02*
X53174762Y-73387200D01*
X53174762Y-73387200D02*
X53079524Y-73291961D01*
X53079524Y-73291961D02*
X53031905Y-73196723D01*
X53031905Y-73196723D02*
X52984286Y-73006247D01*
X52984286Y-73006247D02*
X52984286Y-72863390D01*
X52984286Y-72863390D02*
X53031905Y-72672914D01*
X53031905Y-72672914D02*
X53079524Y-72577676D01*
X53079524Y-72577676D02*
X53174762Y-72482438D01*
X53174762Y-72482438D02*
X53317619Y-72434819D01*
X53317619Y-72434819D02*
X53412857Y-72434819D01*
X53412857Y-72434819D02*
X53555714Y-72482438D01*
X53555714Y-72482438D02*
X53603333Y-72530057D01*
X54555714Y-73434819D02*
X53984286Y-73434819D01*
X54270000Y-73434819D02*
X54270000Y-72434819D01*
X54270000Y-72434819D02*
X54174762Y-72577676D01*
X54174762Y-72577676D02*
X54079524Y-72672914D01*
X54079524Y-72672914D02*
X53984286Y-72720533D01*
X168792142Y-69454819D02*
X168458809Y-68978628D01*
X168220714Y-69454819D02*
X168220714Y-68454819D01*
X168220714Y-68454819D02*
X168601666Y-68454819D01*
X168601666Y-68454819D02*
X168696904Y-68502438D01*
X168696904Y-68502438D02*
X168744523Y-68550057D01*
X168744523Y-68550057D02*
X168792142Y-68645295D01*
X168792142Y-68645295D02*
X168792142Y-68788152D01*
X168792142Y-68788152D02*
X168744523Y-68883390D01*
X168744523Y-68883390D02*
X168696904Y-68931009D01*
X168696904Y-68931009D02*
X168601666Y-68978628D01*
X168601666Y-68978628D02*
X168220714Y-68978628D01*
X169173095Y-68550057D02*
X169220714Y-68502438D01*
X169220714Y-68502438D02*
X169315952Y-68454819D01*
X169315952Y-68454819D02*
X169554047Y-68454819D01*
X169554047Y-68454819D02*
X169649285Y-68502438D01*
X169649285Y-68502438D02*
X169696904Y-68550057D01*
X169696904Y-68550057D02*
X169744523Y-68645295D01*
X169744523Y-68645295D02*
X169744523Y-68740533D01*
X169744523Y-68740533D02*
X169696904Y-68883390D01*
X169696904Y-68883390D02*
X169125476Y-69454819D01*
X169125476Y-69454819D02*
X169744523Y-69454819D01*
X170601666Y-68454819D02*
X170411190Y-68454819D01*
X170411190Y-68454819D02*
X170315952Y-68502438D01*
X170315952Y-68502438D02*
X170268333Y-68550057D01*
X170268333Y-68550057D02*
X170173095Y-68692914D01*
X170173095Y-68692914D02*
X170125476Y-68883390D01*
X170125476Y-68883390D02*
X170125476Y-69264342D01*
X170125476Y-69264342D02*
X170173095Y-69359580D01*
X170173095Y-69359580D02*
X170220714Y-69407200D01*
X170220714Y-69407200D02*
X170315952Y-69454819D01*
X170315952Y-69454819D02*
X170506428Y-69454819D01*
X170506428Y-69454819D02*
X170601666Y-69407200D01*
X170601666Y-69407200D02*
X170649285Y-69359580D01*
X170649285Y-69359580D02*
X170696904Y-69264342D01*
X170696904Y-69264342D02*
X170696904Y-69026247D01*
X170696904Y-69026247D02*
X170649285Y-68931009D01*
X170649285Y-68931009D02*
X170601666Y-68883390D01*
X170601666Y-68883390D02*
X170506428Y-68835771D01*
X170506428Y-68835771D02*
X170315952Y-68835771D01*
X170315952Y-68835771D02*
X170220714Y-68883390D01*
X170220714Y-68883390D02*
X170173095Y-68931009D01*
X170173095Y-68931009D02*
X170125476Y-69026247D01*
X168972142Y-72934819D02*
X168638809Y-72458628D01*
X168400714Y-72934819D02*
X168400714Y-71934819D01*
X168400714Y-71934819D02*
X168781666Y-71934819D01*
X168781666Y-71934819D02*
X168876904Y-71982438D01*
X168876904Y-71982438D02*
X168924523Y-72030057D01*
X168924523Y-72030057D02*
X168972142Y-72125295D01*
X168972142Y-72125295D02*
X168972142Y-72268152D01*
X168972142Y-72268152D02*
X168924523Y-72363390D01*
X168924523Y-72363390D02*
X168876904Y-72411009D01*
X168876904Y-72411009D02*
X168781666Y-72458628D01*
X168781666Y-72458628D02*
X168400714Y-72458628D01*
X169353095Y-72030057D02*
X169400714Y-71982438D01*
X169400714Y-71982438D02*
X169495952Y-71934819D01*
X169495952Y-71934819D02*
X169734047Y-71934819D01*
X169734047Y-71934819D02*
X169829285Y-71982438D01*
X169829285Y-71982438D02*
X169876904Y-72030057D01*
X169876904Y-72030057D02*
X169924523Y-72125295D01*
X169924523Y-72125295D02*
X169924523Y-72220533D01*
X169924523Y-72220533D02*
X169876904Y-72363390D01*
X169876904Y-72363390D02*
X169305476Y-72934819D01*
X169305476Y-72934819D02*
X169924523Y-72934819D01*
X170400714Y-72934819D02*
X170591190Y-72934819D01*
X170591190Y-72934819D02*
X170686428Y-72887200D01*
X170686428Y-72887200D02*
X170734047Y-72839580D01*
X170734047Y-72839580D02*
X170829285Y-72696723D01*
X170829285Y-72696723D02*
X170876904Y-72506247D01*
X170876904Y-72506247D02*
X170876904Y-72125295D01*
X170876904Y-72125295D02*
X170829285Y-72030057D01*
X170829285Y-72030057D02*
X170781666Y-71982438D01*
X170781666Y-71982438D02*
X170686428Y-71934819D01*
X170686428Y-71934819D02*
X170495952Y-71934819D01*
X170495952Y-71934819D02*
X170400714Y-71982438D01*
X170400714Y-71982438D02*
X170353095Y-72030057D01*
X170353095Y-72030057D02*
X170305476Y-72125295D01*
X170305476Y-72125295D02*
X170305476Y-72363390D01*
X170305476Y-72363390D02*
X170353095Y-72458628D01*
X170353095Y-72458628D02*
X170400714Y-72506247D01*
X170400714Y-72506247D02*
X170495952Y-72553866D01*
X170495952Y-72553866D02*
X170686428Y-72553866D01*
X170686428Y-72553866D02*
X170781666Y-72506247D01*
X170781666Y-72506247D02*
X170829285Y-72458628D01*
X170829285Y-72458628D02*
X170876904Y-72363390D01*
X156038628Y-96626190D02*
X156514819Y-96626190D01*
X155514819Y-96959523D02*
X156038628Y-96626190D01*
X156038628Y-96626190D02*
X155514819Y-96292857D01*
X155610057Y-96007142D02*
X155562438Y-95959523D01*
X155562438Y-95959523D02*
X155514819Y-95864285D01*
X155514819Y-95864285D02*
X155514819Y-95626190D01*
X155514819Y-95626190D02*
X155562438Y-95530952D01*
X155562438Y-95530952D02*
X155610057Y-95483333D01*
X155610057Y-95483333D02*
X155705295Y-95435714D01*
X155705295Y-95435714D02*
X155800533Y-95435714D01*
X155800533Y-95435714D02*
X155943390Y-95483333D01*
X155943390Y-95483333D02*
X156514819Y-96054761D01*
X156514819Y-96054761D02*
X156514819Y-95435714D01*
X56486666Y-93774819D02*
X56486666Y-94489104D01*
X56486666Y-94489104D02*
X56439047Y-94631961D01*
X56439047Y-94631961D02*
X56343809Y-94727200D01*
X56343809Y-94727200D02*
X56200952Y-94774819D01*
X56200952Y-94774819D02*
X56105714Y-94774819D01*
X56915238Y-93870057D02*
X56962857Y-93822438D01*
X56962857Y-93822438D02*
X57058095Y-93774819D01*
X57058095Y-93774819D02*
X57296190Y-93774819D01*
X57296190Y-93774819D02*
X57391428Y-93822438D01*
X57391428Y-93822438D02*
X57439047Y-93870057D01*
X57439047Y-93870057D02*
X57486666Y-93965295D01*
X57486666Y-93965295D02*
X57486666Y-94060533D01*
X57486666Y-94060533D02*
X57439047Y-94203390D01*
X57439047Y-94203390D02*
X56867619Y-94774819D01*
X56867619Y-94774819D02*
X57486666Y-94774819D01*
X153233095Y-55459819D02*
X153233095Y-56269342D01*
X153233095Y-56269342D02*
X153280714Y-56364580D01*
X153280714Y-56364580D02*
X153328333Y-56412200D01*
X153328333Y-56412200D02*
X153423571Y-56459819D01*
X153423571Y-56459819D02*
X153614047Y-56459819D01*
X153614047Y-56459819D02*
X153709285Y-56412200D01*
X153709285Y-56412200D02*
X153756904Y-56364580D01*
X153756904Y-56364580D02*
X153804523Y-56269342D01*
X153804523Y-56269342D02*
X153804523Y-55459819D01*
X154328333Y-56459819D02*
X154518809Y-56459819D01*
X154518809Y-56459819D02*
X154614047Y-56412200D01*
X154614047Y-56412200D02*
X154661666Y-56364580D01*
X154661666Y-56364580D02*
X154756904Y-56221723D01*
X154756904Y-56221723D02*
X154804523Y-56031247D01*
X154804523Y-56031247D02*
X154804523Y-55650295D01*
X154804523Y-55650295D02*
X154756904Y-55555057D01*
X154756904Y-55555057D02*
X154709285Y-55507438D01*
X154709285Y-55507438D02*
X154614047Y-55459819D01*
X154614047Y-55459819D02*
X154423571Y-55459819D01*
X154423571Y-55459819D02*
X154328333Y-55507438D01*
X154328333Y-55507438D02*
X154280714Y-55555057D01*
X154280714Y-55555057D02*
X154233095Y-55650295D01*
X154233095Y-55650295D02*
X154233095Y-55888390D01*
X154233095Y-55888390D02*
X154280714Y-55983628D01*
X154280714Y-55983628D02*
X154328333Y-56031247D01*
X154328333Y-56031247D02*
X154423571Y-56078866D01*
X154423571Y-56078866D02*
X154614047Y-56078866D01*
X154614047Y-56078866D02*
X154709285Y-56031247D01*
X154709285Y-56031247D02*
X154756904Y-55983628D01*
X154756904Y-55983628D02*
X154804523Y-55888390D01*
X168977142Y-67754819D02*
X168643809Y-67278628D01*
X168405714Y-67754819D02*
X168405714Y-66754819D01*
X168405714Y-66754819D02*
X168786666Y-66754819D01*
X168786666Y-66754819D02*
X168881904Y-66802438D01*
X168881904Y-66802438D02*
X168929523Y-66850057D01*
X168929523Y-66850057D02*
X168977142Y-66945295D01*
X168977142Y-66945295D02*
X168977142Y-67088152D01*
X168977142Y-67088152D02*
X168929523Y-67183390D01*
X168929523Y-67183390D02*
X168881904Y-67231009D01*
X168881904Y-67231009D02*
X168786666Y-67278628D01*
X168786666Y-67278628D02*
X168405714Y-67278628D01*
X169358095Y-66850057D02*
X169405714Y-66802438D01*
X169405714Y-66802438D02*
X169500952Y-66754819D01*
X169500952Y-66754819D02*
X169739047Y-66754819D01*
X169739047Y-66754819D02*
X169834285Y-66802438D01*
X169834285Y-66802438D02*
X169881904Y-66850057D01*
X169881904Y-66850057D02*
X169929523Y-66945295D01*
X169929523Y-66945295D02*
X169929523Y-67040533D01*
X169929523Y-67040533D02*
X169881904Y-67183390D01*
X169881904Y-67183390D02*
X169310476Y-67754819D01*
X169310476Y-67754819D02*
X169929523Y-67754819D01*
X170834285Y-66754819D02*
X170358095Y-66754819D01*
X170358095Y-66754819D02*
X170310476Y-67231009D01*
X170310476Y-67231009D02*
X170358095Y-67183390D01*
X170358095Y-67183390D02*
X170453333Y-67135771D01*
X170453333Y-67135771D02*
X170691428Y-67135771D01*
X170691428Y-67135771D02*
X170786666Y-67183390D01*
X170786666Y-67183390D02*
X170834285Y-67231009D01*
X170834285Y-67231009D02*
X170881904Y-67326247D01*
X170881904Y-67326247D02*
X170881904Y-67564342D01*
X170881904Y-67564342D02*
X170834285Y-67659580D01*
X170834285Y-67659580D02*
X170786666Y-67707200D01*
X170786666Y-67707200D02*
X170691428Y-67754819D01*
X170691428Y-67754819D02*
X170453333Y-67754819D01*
X170453333Y-67754819D02*
X170358095Y-67707200D01*
X170358095Y-67707200D02*
X170310476Y-67659580D01*
X175887142Y-69579580D02*
X175839523Y-69627200D01*
X175839523Y-69627200D02*
X175696666Y-69674819D01*
X175696666Y-69674819D02*
X175601428Y-69674819D01*
X175601428Y-69674819D02*
X175458571Y-69627200D01*
X175458571Y-69627200D02*
X175363333Y-69531961D01*
X175363333Y-69531961D02*
X175315714Y-69436723D01*
X175315714Y-69436723D02*
X175268095Y-69246247D01*
X175268095Y-69246247D02*
X175268095Y-69103390D01*
X175268095Y-69103390D02*
X175315714Y-68912914D01*
X175315714Y-68912914D02*
X175363333Y-68817676D01*
X175363333Y-68817676D02*
X175458571Y-68722438D01*
X175458571Y-68722438D02*
X175601428Y-68674819D01*
X175601428Y-68674819D02*
X175696666Y-68674819D01*
X175696666Y-68674819D02*
X175839523Y-68722438D01*
X175839523Y-68722438D02*
X175887142Y-68770057D01*
X176268095Y-68770057D02*
X176315714Y-68722438D01*
X176315714Y-68722438D02*
X176410952Y-68674819D01*
X176410952Y-68674819D02*
X176649047Y-68674819D01*
X176649047Y-68674819D02*
X176744285Y-68722438D01*
X176744285Y-68722438D02*
X176791904Y-68770057D01*
X176791904Y-68770057D02*
X176839523Y-68865295D01*
X176839523Y-68865295D02*
X176839523Y-68960533D01*
X176839523Y-68960533D02*
X176791904Y-69103390D01*
X176791904Y-69103390D02*
X176220476Y-69674819D01*
X176220476Y-69674819D02*
X176839523Y-69674819D01*
X177315714Y-69674819D02*
X177506190Y-69674819D01*
X177506190Y-69674819D02*
X177601428Y-69627200D01*
X177601428Y-69627200D02*
X177649047Y-69579580D01*
X177649047Y-69579580D02*
X177744285Y-69436723D01*
X177744285Y-69436723D02*
X177791904Y-69246247D01*
X177791904Y-69246247D02*
X177791904Y-68865295D01*
X177791904Y-68865295D02*
X177744285Y-68770057D01*
X177744285Y-68770057D02*
X177696666Y-68722438D01*
X177696666Y-68722438D02*
X177601428Y-68674819D01*
X177601428Y-68674819D02*
X177410952Y-68674819D01*
X177410952Y-68674819D02*
X177315714Y-68722438D01*
X177315714Y-68722438D02*
X177268095Y-68770057D01*
X177268095Y-68770057D02*
X177220476Y-68865295D01*
X177220476Y-68865295D02*
X177220476Y-69103390D01*
X177220476Y-69103390D02*
X177268095Y-69198628D01*
X177268095Y-69198628D02*
X177315714Y-69246247D01*
X177315714Y-69246247D02*
X177410952Y-69293866D01*
X177410952Y-69293866D02*
X177601428Y-69293866D01*
X177601428Y-69293866D02*
X177696666Y-69246247D01*
X177696666Y-69246247D02*
X177744285Y-69198628D01*
X177744285Y-69198628D02*
X177791904Y-69103390D01*
X59399642Y-90104819D02*
X59066309Y-89628628D01*
X58828214Y-90104819D02*
X58828214Y-89104819D01*
X58828214Y-89104819D02*
X59209166Y-89104819D01*
X59209166Y-89104819D02*
X59304404Y-89152438D01*
X59304404Y-89152438D02*
X59352023Y-89200057D01*
X59352023Y-89200057D02*
X59399642Y-89295295D01*
X59399642Y-89295295D02*
X59399642Y-89438152D01*
X59399642Y-89438152D02*
X59352023Y-89533390D01*
X59352023Y-89533390D02*
X59304404Y-89581009D01*
X59304404Y-89581009D02*
X59209166Y-89628628D01*
X59209166Y-89628628D02*
X58828214Y-89628628D01*
X60352023Y-90104819D02*
X59780595Y-90104819D01*
X60066309Y-90104819D02*
X60066309Y-89104819D01*
X60066309Y-89104819D02*
X59971071Y-89247676D01*
X59971071Y-89247676D02*
X59875833Y-89342914D01*
X59875833Y-89342914D02*
X59780595Y-89390533D01*
X60732976Y-89200057D02*
X60780595Y-89152438D01*
X60780595Y-89152438D02*
X60875833Y-89104819D01*
X60875833Y-89104819D02*
X61113928Y-89104819D01*
X61113928Y-89104819D02*
X61209166Y-89152438D01*
X61209166Y-89152438D02*
X61256785Y-89200057D01*
X61256785Y-89200057D02*
X61304404Y-89295295D01*
X61304404Y-89295295D02*
X61304404Y-89390533D01*
X61304404Y-89390533D02*
X61256785Y-89533390D01*
X61256785Y-89533390D02*
X60685357Y-90104819D01*
X60685357Y-90104819D02*
X61304404Y-90104819D01*
X44021666Y-91769819D02*
X44021666Y-92484104D01*
X44021666Y-92484104D02*
X43974047Y-92626961D01*
X43974047Y-92626961D02*
X43878809Y-92722200D01*
X43878809Y-92722200D02*
X43735952Y-92769819D01*
X43735952Y-92769819D02*
X43640714Y-92769819D01*
X44402619Y-91769819D02*
X45021666Y-91769819D01*
X45021666Y-91769819D02*
X44688333Y-92150771D01*
X44688333Y-92150771D02*
X44831190Y-92150771D01*
X44831190Y-92150771D02*
X44926428Y-92198390D01*
X44926428Y-92198390D02*
X44974047Y-92246009D01*
X44974047Y-92246009D02*
X45021666Y-92341247D01*
X45021666Y-92341247D02*
X45021666Y-92579342D01*
X45021666Y-92579342D02*
X44974047Y-92674580D01*
X44974047Y-92674580D02*
X44926428Y-92722200D01*
X44926428Y-92722200D02*
X44831190Y-92769819D01*
X44831190Y-92769819D02*
X44545476Y-92769819D01*
X44545476Y-92769819D02*
X44450238Y-92722200D01*
X44450238Y-92722200D02*
X44402619Y-92674580D01*
X129449047Y-75761009D02*
X129591904Y-75808628D01*
X129591904Y-75808628D02*
X129639523Y-75856247D01*
X129639523Y-75856247D02*
X129687142Y-75951485D01*
X129687142Y-75951485D02*
X129687142Y-76094342D01*
X129687142Y-76094342D02*
X129639523Y-76189580D01*
X129639523Y-76189580D02*
X129591904Y-76237200D01*
X129591904Y-76237200D02*
X129496666Y-76284819D01*
X129496666Y-76284819D02*
X129115714Y-76284819D01*
X129115714Y-76284819D02*
X129115714Y-75284819D01*
X129115714Y-75284819D02*
X129449047Y-75284819D01*
X129449047Y-75284819D02*
X129544285Y-75332438D01*
X129544285Y-75332438D02*
X129591904Y-75380057D01*
X129591904Y-75380057D02*
X129639523Y-75475295D01*
X129639523Y-75475295D02*
X129639523Y-75570533D01*
X129639523Y-75570533D02*
X129591904Y-75665771D01*
X129591904Y-75665771D02*
X129544285Y-75713390D01*
X129544285Y-75713390D02*
X129449047Y-75761009D01*
X129449047Y-75761009D02*
X129115714Y-75761009D01*
X130020476Y-75284819D02*
X130687142Y-75284819D01*
X130687142Y-75284819D02*
X130020476Y-76284819D01*
X130020476Y-76284819D02*
X130687142Y-76284819D01*
X131591904Y-76284819D02*
X131020476Y-76284819D01*
X131306190Y-76284819D02*
X131306190Y-75284819D01*
X131306190Y-75284819D02*
X131210952Y-75427676D01*
X131210952Y-75427676D02*
X131115714Y-75522914D01*
X131115714Y-75522914D02*
X131020476Y-75570533D01*
X126139048Y-80563866D02*
X126900953Y-80563866D01*
X126520000Y-80944819D02*
X126520000Y-80182914D01*
X126612226Y-94210569D02*
X126612226Y-94924854D01*
X126612226Y-94924854D02*
X126564607Y-95067711D01*
X126564607Y-95067711D02*
X126469369Y-95162950D01*
X126469369Y-95162950D02*
X126326512Y-95210569D01*
X126326512Y-95210569D02*
X126231274Y-95210569D01*
X127612226Y-95210569D02*
X127040798Y-95210569D01*
X127326512Y-95210569D02*
X127326512Y-94210569D01*
X127326512Y-94210569D02*
X127231274Y-94353426D01*
X127231274Y-94353426D02*
X127136036Y-94448664D01*
X127136036Y-94448664D02*
X127040798Y-94496283D01*
X128231274Y-94210569D02*
X128326512Y-94210569D01*
X128326512Y-94210569D02*
X128421750Y-94258188D01*
X128421750Y-94258188D02*
X128469369Y-94305807D01*
X128469369Y-94305807D02*
X128516988Y-94401045D01*
X128516988Y-94401045D02*
X128564607Y-94591521D01*
X128564607Y-94591521D02*
X128564607Y-94829616D01*
X128564607Y-94829616D02*
X128516988Y-95020092D01*
X128516988Y-95020092D02*
X128469369Y-95115330D01*
X128469369Y-95115330D02*
X128421750Y-95162950D01*
X128421750Y-95162950D02*
X128326512Y-95210569D01*
X128326512Y-95210569D02*
X128231274Y-95210569D01*
X128231274Y-95210569D02*
X128136036Y-95162950D01*
X128136036Y-95162950D02*
X128088417Y-95115330D01*
X128088417Y-95115330D02*
X128040798Y-95020092D01*
X128040798Y-95020092D02*
X127993179Y-94829616D01*
X127993179Y-94829616D02*
X127993179Y-94591521D01*
X127993179Y-94591521D02*
X128040798Y-94401045D01*
X128040798Y-94401045D02*
X128088417Y-94305807D01*
X128088417Y-94305807D02*
X128136036Y-94258188D01*
X128136036Y-94258188D02*
X128231274Y-94210569D01*
X53873333Y-81724819D02*
X53540000Y-81248628D01*
X53301905Y-81724819D02*
X53301905Y-80724819D01*
X53301905Y-80724819D02*
X53682857Y-80724819D01*
X53682857Y-80724819D02*
X53778095Y-80772438D01*
X53778095Y-80772438D02*
X53825714Y-80820057D01*
X53825714Y-80820057D02*
X53873333Y-80915295D01*
X53873333Y-80915295D02*
X53873333Y-81058152D01*
X53873333Y-81058152D02*
X53825714Y-81153390D01*
X53825714Y-81153390D02*
X53778095Y-81201009D01*
X53778095Y-81201009D02*
X53682857Y-81248628D01*
X53682857Y-81248628D02*
X53301905Y-81248628D01*
X54730476Y-80724819D02*
X54540000Y-80724819D01*
X54540000Y-80724819D02*
X54444762Y-80772438D01*
X54444762Y-80772438D02*
X54397143Y-80820057D01*
X54397143Y-80820057D02*
X54301905Y-80962914D01*
X54301905Y-80962914D02*
X54254286Y-81153390D01*
X54254286Y-81153390D02*
X54254286Y-81534342D01*
X54254286Y-81534342D02*
X54301905Y-81629580D01*
X54301905Y-81629580D02*
X54349524Y-81677200D01*
X54349524Y-81677200D02*
X54444762Y-81724819D01*
X54444762Y-81724819D02*
X54635238Y-81724819D01*
X54635238Y-81724819D02*
X54730476Y-81677200D01*
X54730476Y-81677200D02*
X54778095Y-81629580D01*
X54778095Y-81629580D02*
X54825714Y-81534342D01*
X54825714Y-81534342D02*
X54825714Y-81296247D01*
X54825714Y-81296247D02*
X54778095Y-81201009D01*
X54778095Y-81201009D02*
X54730476Y-81153390D01*
X54730476Y-81153390D02*
X54635238Y-81105771D01*
X54635238Y-81105771D02*
X54444762Y-81105771D01*
X54444762Y-81105771D02*
X54349524Y-81153390D01*
X54349524Y-81153390D02*
X54301905Y-81201009D01*
X54301905Y-81201009D02*
X54254286Y-81296247D01*
X69782142Y-93294580D02*
X69734523Y-93342200D01*
X69734523Y-93342200D02*
X69591666Y-93389819D01*
X69591666Y-93389819D02*
X69496428Y-93389819D01*
X69496428Y-93389819D02*
X69353571Y-93342200D01*
X69353571Y-93342200D02*
X69258333Y-93246961D01*
X69258333Y-93246961D02*
X69210714Y-93151723D01*
X69210714Y-93151723D02*
X69163095Y-92961247D01*
X69163095Y-92961247D02*
X69163095Y-92818390D01*
X69163095Y-92818390D02*
X69210714Y-92627914D01*
X69210714Y-92627914D02*
X69258333Y-92532676D01*
X69258333Y-92532676D02*
X69353571Y-92437438D01*
X69353571Y-92437438D02*
X69496428Y-92389819D01*
X69496428Y-92389819D02*
X69591666Y-92389819D01*
X69591666Y-92389819D02*
X69734523Y-92437438D01*
X69734523Y-92437438D02*
X69782142Y-92485057D01*
X70163095Y-92485057D02*
X70210714Y-92437438D01*
X70210714Y-92437438D02*
X70305952Y-92389819D01*
X70305952Y-92389819D02*
X70544047Y-92389819D01*
X70544047Y-92389819D02*
X70639285Y-92437438D01*
X70639285Y-92437438D02*
X70686904Y-92485057D01*
X70686904Y-92485057D02*
X70734523Y-92580295D01*
X70734523Y-92580295D02*
X70734523Y-92675533D01*
X70734523Y-92675533D02*
X70686904Y-92818390D01*
X70686904Y-92818390D02*
X70115476Y-93389819D01*
X70115476Y-93389819D02*
X70734523Y-93389819D01*
X71067857Y-92389819D02*
X71686904Y-92389819D01*
X71686904Y-92389819D02*
X71353571Y-92770771D01*
X71353571Y-92770771D02*
X71496428Y-92770771D01*
X71496428Y-92770771D02*
X71591666Y-92818390D01*
X71591666Y-92818390D02*
X71639285Y-92866009D01*
X71639285Y-92866009D02*
X71686904Y-92961247D01*
X71686904Y-92961247D02*
X71686904Y-93199342D01*
X71686904Y-93199342D02*
X71639285Y-93294580D01*
X71639285Y-93294580D02*
X71591666Y-93342200D01*
X71591666Y-93342200D02*
X71496428Y-93389819D01*
X71496428Y-93389819D02*
X71210714Y-93389819D01*
X71210714Y-93389819D02*
X71115476Y-93342200D01*
X71115476Y-93342200D02*
X71067857Y-93294580D01*
X49266666Y-32184819D02*
X49266666Y-32899104D01*
X49266666Y-32899104D02*
X49219047Y-33041961D01*
X49219047Y-33041961D02*
X49123809Y-33137200D01*
X49123809Y-33137200D02*
X48980952Y-33184819D01*
X48980952Y-33184819D02*
X48885714Y-33184819D01*
X50266666Y-33184819D02*
X49695238Y-33184819D01*
X49980952Y-33184819D02*
X49980952Y-32184819D01*
X49980952Y-32184819D02*
X49885714Y-32327676D01*
X49885714Y-32327676D02*
X49790476Y-32422914D01*
X49790476Y-32422914D02*
X49695238Y-32470533D01*
X60728333Y-36639580D02*
X60680714Y-36687200D01*
X60680714Y-36687200D02*
X60537857Y-36734819D01*
X60537857Y-36734819D02*
X60442619Y-36734819D01*
X60442619Y-36734819D02*
X60299762Y-36687200D01*
X60299762Y-36687200D02*
X60204524Y-36591961D01*
X60204524Y-36591961D02*
X60156905Y-36496723D01*
X60156905Y-36496723D02*
X60109286Y-36306247D01*
X60109286Y-36306247D02*
X60109286Y-36163390D01*
X60109286Y-36163390D02*
X60156905Y-35972914D01*
X60156905Y-35972914D02*
X60204524Y-35877676D01*
X60204524Y-35877676D02*
X60299762Y-35782438D01*
X60299762Y-35782438D02*
X60442619Y-35734819D01*
X60442619Y-35734819D02*
X60537857Y-35734819D01*
X60537857Y-35734819D02*
X60680714Y-35782438D01*
X60680714Y-35782438D02*
X60728333Y-35830057D01*
X61204524Y-36734819D02*
X61395000Y-36734819D01*
X61395000Y-36734819D02*
X61490238Y-36687200D01*
X61490238Y-36687200D02*
X61537857Y-36639580D01*
X61537857Y-36639580D02*
X61633095Y-36496723D01*
X61633095Y-36496723D02*
X61680714Y-36306247D01*
X61680714Y-36306247D02*
X61680714Y-35925295D01*
X61680714Y-35925295D02*
X61633095Y-35830057D01*
X61633095Y-35830057D02*
X61585476Y-35782438D01*
X61585476Y-35782438D02*
X61490238Y-35734819D01*
X61490238Y-35734819D02*
X61299762Y-35734819D01*
X61299762Y-35734819D02*
X61204524Y-35782438D01*
X61204524Y-35782438D02*
X61156905Y-35830057D01*
X61156905Y-35830057D02*
X61109286Y-35925295D01*
X61109286Y-35925295D02*
X61109286Y-36163390D01*
X61109286Y-36163390D02*
X61156905Y-36258628D01*
X61156905Y-36258628D02*
X61204524Y-36306247D01*
X61204524Y-36306247D02*
X61299762Y-36353866D01*
X61299762Y-36353866D02*
X61490238Y-36353866D01*
X61490238Y-36353866D02*
X61585476Y-36306247D01*
X61585476Y-36306247D02*
X61633095Y-36258628D01*
X61633095Y-36258628D02*
X61680714Y-36163390D01*
X54993333Y-34949819D02*
X54660000Y-34473628D01*
X54421905Y-34949819D02*
X54421905Y-33949819D01*
X54421905Y-33949819D02*
X54802857Y-33949819D01*
X54802857Y-33949819D02*
X54898095Y-33997438D01*
X54898095Y-33997438D02*
X54945714Y-34045057D01*
X54945714Y-34045057D02*
X54993333Y-34140295D01*
X54993333Y-34140295D02*
X54993333Y-34283152D01*
X54993333Y-34283152D02*
X54945714Y-34378390D01*
X54945714Y-34378390D02*
X54898095Y-34426009D01*
X54898095Y-34426009D02*
X54802857Y-34473628D01*
X54802857Y-34473628D02*
X54421905Y-34473628D01*
X55374286Y-34045057D02*
X55421905Y-33997438D01*
X55421905Y-33997438D02*
X55517143Y-33949819D01*
X55517143Y-33949819D02*
X55755238Y-33949819D01*
X55755238Y-33949819D02*
X55850476Y-33997438D01*
X55850476Y-33997438D02*
X55898095Y-34045057D01*
X55898095Y-34045057D02*
X55945714Y-34140295D01*
X55945714Y-34140295D02*
X55945714Y-34235533D01*
X55945714Y-34235533D02*
X55898095Y-34378390D01*
X55898095Y-34378390D02*
X55326667Y-34949819D01*
X55326667Y-34949819D02*
X55945714Y-34949819D01*
X144648628Y-61196190D02*
X145124819Y-61196190D01*
X144124819Y-61529523D02*
X144648628Y-61196190D01*
X144648628Y-61196190D02*
X144124819Y-60862857D01*
X144458152Y-60100952D02*
X145124819Y-60100952D01*
X144077200Y-60339047D02*
X144791485Y-60577142D01*
X144791485Y-60577142D02*
X144791485Y-59958095D01*
X175877142Y-74019580D02*
X175829523Y-74067200D01*
X175829523Y-74067200D02*
X175686666Y-74114819D01*
X175686666Y-74114819D02*
X175591428Y-74114819D01*
X175591428Y-74114819D02*
X175448571Y-74067200D01*
X175448571Y-74067200D02*
X175353333Y-73971961D01*
X175353333Y-73971961D02*
X175305714Y-73876723D01*
X175305714Y-73876723D02*
X175258095Y-73686247D01*
X175258095Y-73686247D02*
X175258095Y-73543390D01*
X175258095Y-73543390D02*
X175305714Y-73352914D01*
X175305714Y-73352914D02*
X175353333Y-73257676D01*
X175353333Y-73257676D02*
X175448571Y-73162438D01*
X175448571Y-73162438D02*
X175591428Y-73114819D01*
X175591428Y-73114819D02*
X175686666Y-73114819D01*
X175686666Y-73114819D02*
X175829523Y-73162438D01*
X175829523Y-73162438D02*
X175877142Y-73210057D01*
X176258095Y-73210057D02*
X176305714Y-73162438D01*
X176305714Y-73162438D02*
X176400952Y-73114819D01*
X176400952Y-73114819D02*
X176639047Y-73114819D01*
X176639047Y-73114819D02*
X176734285Y-73162438D01*
X176734285Y-73162438D02*
X176781904Y-73210057D01*
X176781904Y-73210057D02*
X176829523Y-73305295D01*
X176829523Y-73305295D02*
X176829523Y-73400533D01*
X176829523Y-73400533D02*
X176781904Y-73543390D01*
X176781904Y-73543390D02*
X176210476Y-74114819D01*
X176210476Y-74114819D02*
X176829523Y-74114819D01*
X177686666Y-73114819D02*
X177496190Y-73114819D01*
X177496190Y-73114819D02*
X177400952Y-73162438D01*
X177400952Y-73162438D02*
X177353333Y-73210057D01*
X177353333Y-73210057D02*
X177258095Y-73352914D01*
X177258095Y-73352914D02*
X177210476Y-73543390D01*
X177210476Y-73543390D02*
X177210476Y-73924342D01*
X177210476Y-73924342D02*
X177258095Y-74019580D01*
X177258095Y-74019580D02*
X177305714Y-74067200D01*
X177305714Y-74067200D02*
X177400952Y-74114819D01*
X177400952Y-74114819D02*
X177591428Y-74114819D01*
X177591428Y-74114819D02*
X177686666Y-74067200D01*
X177686666Y-74067200D02*
X177734285Y-74019580D01*
X177734285Y-74019580D02*
X177781904Y-73924342D01*
X177781904Y-73924342D02*
X177781904Y-73686247D01*
X177781904Y-73686247D02*
X177734285Y-73591009D01*
X177734285Y-73591009D02*
X177686666Y-73543390D01*
X177686666Y-73543390D02*
X177591428Y-73495771D01*
X177591428Y-73495771D02*
X177400952Y-73495771D01*
X177400952Y-73495771D02*
X177305714Y-73543390D01*
X177305714Y-73543390D02*
X177258095Y-73591009D01*
X177258095Y-73591009D02*
X177210476Y-73686247D01*
X78787142Y-87069580D02*
X78739523Y-87117200D01*
X78739523Y-87117200D02*
X78596666Y-87164819D01*
X78596666Y-87164819D02*
X78501428Y-87164819D01*
X78501428Y-87164819D02*
X78358571Y-87117200D01*
X78358571Y-87117200D02*
X78263333Y-87021961D01*
X78263333Y-87021961D02*
X78215714Y-86926723D01*
X78215714Y-86926723D02*
X78168095Y-86736247D01*
X78168095Y-86736247D02*
X78168095Y-86593390D01*
X78168095Y-86593390D02*
X78215714Y-86402914D01*
X78215714Y-86402914D02*
X78263333Y-86307676D01*
X78263333Y-86307676D02*
X78358571Y-86212438D01*
X78358571Y-86212438D02*
X78501428Y-86164819D01*
X78501428Y-86164819D02*
X78596666Y-86164819D01*
X78596666Y-86164819D02*
X78739523Y-86212438D01*
X78739523Y-86212438D02*
X78787142Y-86260057D01*
X79168095Y-86260057D02*
X79215714Y-86212438D01*
X79215714Y-86212438D02*
X79310952Y-86164819D01*
X79310952Y-86164819D02*
X79549047Y-86164819D01*
X79549047Y-86164819D02*
X79644285Y-86212438D01*
X79644285Y-86212438D02*
X79691904Y-86260057D01*
X79691904Y-86260057D02*
X79739523Y-86355295D01*
X79739523Y-86355295D02*
X79739523Y-86450533D01*
X79739523Y-86450533D02*
X79691904Y-86593390D01*
X79691904Y-86593390D02*
X79120476Y-87164819D01*
X79120476Y-87164819D02*
X79739523Y-87164819D01*
X80691904Y-87164819D02*
X80120476Y-87164819D01*
X80406190Y-87164819D02*
X80406190Y-86164819D01*
X80406190Y-86164819D02*
X80310952Y-86307676D01*
X80310952Y-86307676D02*
X80215714Y-86402914D01*
X80215714Y-86402914D02*
X80120476Y-86450533D01*
X60512142Y-34899580D02*
X60464523Y-34947200D01*
X60464523Y-34947200D02*
X60321666Y-34994819D01*
X60321666Y-34994819D02*
X60226428Y-34994819D01*
X60226428Y-34994819D02*
X60083571Y-34947200D01*
X60083571Y-34947200D02*
X59988333Y-34851961D01*
X59988333Y-34851961D02*
X59940714Y-34756723D01*
X59940714Y-34756723D02*
X59893095Y-34566247D01*
X59893095Y-34566247D02*
X59893095Y-34423390D01*
X59893095Y-34423390D02*
X59940714Y-34232914D01*
X59940714Y-34232914D02*
X59988333Y-34137676D01*
X59988333Y-34137676D02*
X60083571Y-34042438D01*
X60083571Y-34042438D02*
X60226428Y-33994819D01*
X60226428Y-33994819D02*
X60321666Y-33994819D01*
X60321666Y-33994819D02*
X60464523Y-34042438D01*
X60464523Y-34042438D02*
X60512142Y-34090057D01*
X61464523Y-34994819D02*
X60893095Y-34994819D01*
X61178809Y-34994819D02*
X61178809Y-33994819D01*
X61178809Y-33994819D02*
X61083571Y-34137676D01*
X61083571Y-34137676D02*
X60988333Y-34232914D01*
X60988333Y-34232914D02*
X60893095Y-34280533D01*
X61797857Y-33994819D02*
X62416904Y-33994819D01*
X62416904Y-33994819D02*
X62083571Y-34375771D01*
X62083571Y-34375771D02*
X62226428Y-34375771D01*
X62226428Y-34375771D02*
X62321666Y-34423390D01*
X62321666Y-34423390D02*
X62369285Y-34471009D01*
X62369285Y-34471009D02*
X62416904Y-34566247D01*
X62416904Y-34566247D02*
X62416904Y-34804342D01*
X62416904Y-34804342D02*
X62369285Y-34899580D01*
X62369285Y-34899580D02*
X62321666Y-34947200D01*
X62321666Y-34947200D02*
X62226428Y-34994819D01*
X62226428Y-34994819D02*
X61940714Y-34994819D01*
X61940714Y-34994819D02*
X61845476Y-34947200D01*
X61845476Y-34947200D02*
X61797857Y-34899580D01*
X172557142Y-92059580D02*
X172509523Y-92107200D01*
X172509523Y-92107200D02*
X172366666Y-92154819D01*
X172366666Y-92154819D02*
X172271428Y-92154819D01*
X172271428Y-92154819D02*
X172128571Y-92107200D01*
X172128571Y-92107200D02*
X172033333Y-92011961D01*
X172033333Y-92011961D02*
X171985714Y-91916723D01*
X171985714Y-91916723D02*
X171938095Y-91726247D01*
X171938095Y-91726247D02*
X171938095Y-91583390D01*
X171938095Y-91583390D02*
X171985714Y-91392914D01*
X171985714Y-91392914D02*
X172033333Y-91297676D01*
X172033333Y-91297676D02*
X172128571Y-91202438D01*
X172128571Y-91202438D02*
X172271428Y-91154819D01*
X172271428Y-91154819D02*
X172366666Y-91154819D01*
X172366666Y-91154819D02*
X172509523Y-91202438D01*
X172509523Y-91202438D02*
X172557142Y-91250057D01*
X172890476Y-91154819D02*
X173509523Y-91154819D01*
X173509523Y-91154819D02*
X173176190Y-91535771D01*
X173176190Y-91535771D02*
X173319047Y-91535771D01*
X173319047Y-91535771D02*
X173414285Y-91583390D01*
X173414285Y-91583390D02*
X173461904Y-91631009D01*
X173461904Y-91631009D02*
X173509523Y-91726247D01*
X173509523Y-91726247D02*
X173509523Y-91964342D01*
X173509523Y-91964342D02*
X173461904Y-92059580D01*
X173461904Y-92059580D02*
X173414285Y-92107200D01*
X173414285Y-92107200D02*
X173319047Y-92154819D01*
X173319047Y-92154819D02*
X173033333Y-92154819D01*
X173033333Y-92154819D02*
X172938095Y-92107200D01*
X172938095Y-92107200D02*
X172890476Y-92059580D01*
X173890476Y-91250057D02*
X173938095Y-91202438D01*
X173938095Y-91202438D02*
X174033333Y-91154819D01*
X174033333Y-91154819D02*
X174271428Y-91154819D01*
X174271428Y-91154819D02*
X174366666Y-91202438D01*
X174366666Y-91202438D02*
X174414285Y-91250057D01*
X174414285Y-91250057D02*
X174461904Y-91345295D01*
X174461904Y-91345295D02*
X174461904Y-91440533D01*
X174461904Y-91440533D02*
X174414285Y-91583390D01*
X174414285Y-91583390D02*
X173842857Y-92154819D01*
X173842857Y-92154819D02*
X174461904Y-92154819D01*
X150544642Y-95859580D02*
X150497023Y-95907200D01*
X150497023Y-95907200D02*
X150354166Y-95954819D01*
X150354166Y-95954819D02*
X150258928Y-95954819D01*
X150258928Y-95954819D02*
X150116071Y-95907200D01*
X150116071Y-95907200D02*
X150020833Y-95811961D01*
X150020833Y-95811961D02*
X149973214Y-95716723D01*
X149973214Y-95716723D02*
X149925595Y-95526247D01*
X149925595Y-95526247D02*
X149925595Y-95383390D01*
X149925595Y-95383390D02*
X149973214Y-95192914D01*
X149973214Y-95192914D02*
X150020833Y-95097676D01*
X150020833Y-95097676D02*
X150116071Y-95002438D01*
X150116071Y-95002438D02*
X150258928Y-94954819D01*
X150258928Y-94954819D02*
X150354166Y-94954819D01*
X150354166Y-94954819D02*
X150497023Y-95002438D01*
X150497023Y-95002438D02*
X150544642Y-95050057D01*
X150877976Y-94954819D02*
X151497023Y-94954819D01*
X151497023Y-94954819D02*
X151163690Y-95335771D01*
X151163690Y-95335771D02*
X151306547Y-95335771D01*
X151306547Y-95335771D02*
X151401785Y-95383390D01*
X151401785Y-95383390D02*
X151449404Y-95431009D01*
X151449404Y-95431009D02*
X151497023Y-95526247D01*
X151497023Y-95526247D02*
X151497023Y-95764342D01*
X151497023Y-95764342D02*
X151449404Y-95859580D01*
X151449404Y-95859580D02*
X151401785Y-95907200D01*
X151401785Y-95907200D02*
X151306547Y-95954819D01*
X151306547Y-95954819D02*
X151020833Y-95954819D01*
X151020833Y-95954819D02*
X150925595Y-95907200D01*
X150925595Y-95907200D02*
X150877976Y-95859580D01*
X152116071Y-94954819D02*
X152211309Y-94954819D01*
X152211309Y-94954819D02*
X152306547Y-95002438D01*
X152306547Y-95002438D02*
X152354166Y-95050057D01*
X152354166Y-95050057D02*
X152401785Y-95145295D01*
X152401785Y-95145295D02*
X152449404Y-95335771D01*
X152449404Y-95335771D02*
X152449404Y-95573866D01*
X152449404Y-95573866D02*
X152401785Y-95764342D01*
X152401785Y-95764342D02*
X152354166Y-95859580D01*
X152354166Y-95859580D02*
X152306547Y-95907200D01*
X152306547Y-95907200D02*
X152211309Y-95954819D01*
X152211309Y-95954819D02*
X152116071Y-95954819D01*
X152116071Y-95954819D02*
X152020833Y-95907200D01*
X152020833Y-95907200D02*
X151973214Y-95859580D01*
X151973214Y-95859580D02*
X151925595Y-95764342D01*
X151925595Y-95764342D02*
X151877976Y-95573866D01*
X151877976Y-95573866D02*
X151877976Y-95335771D01*
X151877976Y-95335771D02*
X151925595Y-95145295D01*
X151925595Y-95145295D02*
X151973214Y-95050057D01*
X151973214Y-95050057D02*
X152020833Y-95002438D01*
X152020833Y-95002438D02*
X152116071Y-94954819D01*
X178700013Y-31963998D02*
X178700013Y-32774759D01*
X178700013Y-32774759D02*
X178747704Y-32870143D01*
X178747704Y-32870143D02*
X178795396Y-32917835D01*
X178795396Y-32917835D02*
X178890780Y-32965526D01*
X178890780Y-32965526D02*
X179081547Y-32965526D01*
X179081547Y-32965526D02*
X179176931Y-32917835D01*
X179176931Y-32917835D02*
X179224622Y-32870143D01*
X179224622Y-32870143D02*
X179272314Y-32774759D01*
X179272314Y-32774759D02*
X179272314Y-31963998D01*
X180273842Y-32965526D02*
X179701541Y-32965526D01*
X179987692Y-32965526D02*
X179987692Y-31963998D01*
X179987692Y-31963998D02*
X179892308Y-32107074D01*
X179892308Y-32107074D02*
X179796924Y-32202457D01*
X179796924Y-32202457D02*
X179701541Y-32250149D01*
X180655377Y-32059382D02*
X180703069Y-32011690D01*
X180703069Y-32011690D02*
X180798452Y-31963998D01*
X180798452Y-31963998D02*
X181036911Y-31963998D01*
X181036911Y-31963998D02*
X181132295Y-32011690D01*
X181132295Y-32011690D02*
X181179987Y-32059382D01*
X181179987Y-32059382D02*
X181227678Y-32154766D01*
X181227678Y-32154766D02*
X181227678Y-32250149D01*
X181227678Y-32250149D02*
X181179987Y-32393225D01*
X181179987Y-32393225D02*
X180607685Y-32965526D01*
X180607685Y-32965526D02*
X181227678Y-32965526D01*
X43229524Y-84752295D02*
X43229524Y-83952295D01*
X43229524Y-83952295D02*
X43420000Y-83952295D01*
X43420000Y-83952295D02*
X43534286Y-83990390D01*
X43534286Y-83990390D02*
X43610476Y-84066580D01*
X43610476Y-84066580D02*
X43648571Y-84142771D01*
X43648571Y-84142771D02*
X43686667Y-84295152D01*
X43686667Y-84295152D02*
X43686667Y-84409438D01*
X43686667Y-84409438D02*
X43648571Y-84561819D01*
X43648571Y-84561819D02*
X43610476Y-84638009D01*
X43610476Y-84638009D02*
X43534286Y-84714200D01*
X43534286Y-84714200D02*
X43420000Y-84752295D01*
X43420000Y-84752295D02*
X43229524Y-84752295D01*
X44448571Y-84752295D02*
X43991428Y-84752295D01*
X44220000Y-84752295D02*
X44220000Y-83952295D01*
X44220000Y-83952295D02*
X44143809Y-84066580D01*
X44143809Y-84066580D02*
X44067619Y-84142771D01*
X44067619Y-84142771D02*
X43991428Y-84180866D01*
X98871009Y-79683809D02*
X98871009Y-80017142D01*
X99394819Y-80017142D02*
X98394819Y-80017142D01*
X98394819Y-80017142D02*
X98394819Y-79540952D01*
X99394819Y-79159999D02*
X98728152Y-79159999D01*
X98394819Y-79159999D02*
X98442438Y-79207618D01*
X98442438Y-79207618D02*
X98490057Y-79159999D01*
X98490057Y-79159999D02*
X98442438Y-79112380D01*
X98442438Y-79112380D02*
X98394819Y-79159999D01*
X98394819Y-79159999D02*
X98490057Y-79159999D01*
X98728152Y-78683809D02*
X99394819Y-78683809D01*
X98823390Y-78683809D02*
X98775771Y-78636190D01*
X98775771Y-78636190D02*
X98728152Y-78540952D01*
X98728152Y-78540952D02*
X98728152Y-78398095D01*
X98728152Y-78398095D02*
X98775771Y-78302857D01*
X98775771Y-78302857D02*
X98871009Y-78255238D01*
X98871009Y-78255238D02*
X99394819Y-78255238D01*
X99394819Y-77350476D02*
X98394819Y-77350476D01*
X99347200Y-77350476D02*
X99394819Y-77445714D01*
X99394819Y-77445714D02*
X99394819Y-77636190D01*
X99394819Y-77636190D02*
X99347200Y-77731428D01*
X99347200Y-77731428D02*
X99299580Y-77779047D01*
X99299580Y-77779047D02*
X99204342Y-77826666D01*
X99204342Y-77826666D02*
X98918628Y-77826666D01*
X98918628Y-77826666D02*
X98823390Y-77779047D01*
X98823390Y-77779047D02*
X98775771Y-77731428D01*
X98775771Y-77731428D02*
X98728152Y-77636190D01*
X98728152Y-77636190D02*
X98728152Y-77445714D01*
X98728152Y-77445714D02*
X98775771Y-77350476D01*
X99490057Y-77112381D02*
X99490057Y-76350476D01*
X99394819Y-76112380D02*
X98394819Y-76112380D01*
X98871009Y-76112380D02*
X98871009Y-75540952D01*
X99394819Y-75540952D02*
X98394819Y-75540952D01*
X99394819Y-74921904D02*
X99347200Y-75017142D01*
X99347200Y-75017142D02*
X99299580Y-75064761D01*
X99299580Y-75064761D02*
X99204342Y-75112380D01*
X99204342Y-75112380D02*
X98918628Y-75112380D01*
X98918628Y-75112380D02*
X98823390Y-75064761D01*
X98823390Y-75064761D02*
X98775771Y-75017142D01*
X98775771Y-75017142D02*
X98728152Y-74921904D01*
X98728152Y-74921904D02*
X98728152Y-74779047D01*
X98728152Y-74779047D02*
X98775771Y-74683809D01*
X98775771Y-74683809D02*
X98823390Y-74636190D01*
X98823390Y-74636190D02*
X98918628Y-74588571D01*
X98918628Y-74588571D02*
X99204342Y-74588571D01*
X99204342Y-74588571D02*
X99299580Y-74636190D01*
X99299580Y-74636190D02*
X99347200Y-74683809D01*
X99347200Y-74683809D02*
X99394819Y-74779047D01*
X99394819Y-74779047D02*
X99394819Y-74921904D01*
X99347200Y-74207618D02*
X99394819Y-74112380D01*
X99394819Y-74112380D02*
X99394819Y-73921904D01*
X99394819Y-73921904D02*
X99347200Y-73826666D01*
X99347200Y-73826666D02*
X99251961Y-73779047D01*
X99251961Y-73779047D02*
X99204342Y-73779047D01*
X99204342Y-73779047D02*
X99109104Y-73826666D01*
X99109104Y-73826666D02*
X99061485Y-73921904D01*
X99061485Y-73921904D02*
X99061485Y-74064761D01*
X99061485Y-74064761D02*
X99013866Y-74159999D01*
X99013866Y-74159999D02*
X98918628Y-74207618D01*
X98918628Y-74207618D02*
X98871009Y-74207618D01*
X98871009Y-74207618D02*
X98775771Y-74159999D01*
X98775771Y-74159999D02*
X98728152Y-74064761D01*
X98728152Y-74064761D02*
X98728152Y-73921904D01*
X98728152Y-73921904D02*
X98775771Y-73826666D01*
X98728152Y-73493332D02*
X98728152Y-73112380D01*
X98394819Y-73350475D02*
X99251961Y-73350475D01*
X99251961Y-73350475D02*
X99347200Y-73302856D01*
X99347200Y-73302856D02*
X99394819Y-73207618D01*
X99394819Y-73207618D02*
X99394819Y-73112380D01*
X99394819Y-72255237D02*
X99394819Y-72826665D01*
X99394819Y-72540951D02*
X98394819Y-72540951D01*
X98394819Y-72540951D02*
X98537676Y-72636189D01*
X98537676Y-72636189D02*
X98632914Y-72731427D01*
X98632914Y-72731427D02*
X98680533Y-72826665D01*
X169019642Y-71269819D02*
X168686309Y-70793628D01*
X168448214Y-71269819D02*
X168448214Y-70269819D01*
X168448214Y-70269819D02*
X168829166Y-70269819D01*
X168829166Y-70269819D02*
X168924404Y-70317438D01*
X168924404Y-70317438D02*
X168972023Y-70365057D01*
X168972023Y-70365057D02*
X169019642Y-70460295D01*
X169019642Y-70460295D02*
X169019642Y-70603152D01*
X169019642Y-70603152D02*
X168972023Y-70698390D01*
X168972023Y-70698390D02*
X168924404Y-70746009D01*
X168924404Y-70746009D02*
X168829166Y-70793628D01*
X168829166Y-70793628D02*
X168448214Y-70793628D01*
X169400595Y-70365057D02*
X169448214Y-70317438D01*
X169448214Y-70317438D02*
X169543452Y-70269819D01*
X169543452Y-70269819D02*
X169781547Y-70269819D01*
X169781547Y-70269819D02*
X169876785Y-70317438D01*
X169876785Y-70317438D02*
X169924404Y-70365057D01*
X169924404Y-70365057D02*
X169972023Y-70460295D01*
X169972023Y-70460295D02*
X169972023Y-70555533D01*
X169972023Y-70555533D02*
X169924404Y-70698390D01*
X169924404Y-70698390D02*
X169352976Y-71269819D01*
X169352976Y-71269819D02*
X169972023Y-71269819D01*
X170543452Y-70698390D02*
X170448214Y-70650771D01*
X170448214Y-70650771D02*
X170400595Y-70603152D01*
X170400595Y-70603152D02*
X170352976Y-70507914D01*
X170352976Y-70507914D02*
X170352976Y-70460295D01*
X170352976Y-70460295D02*
X170400595Y-70365057D01*
X170400595Y-70365057D02*
X170448214Y-70317438D01*
X170448214Y-70317438D02*
X170543452Y-70269819D01*
X170543452Y-70269819D02*
X170733928Y-70269819D01*
X170733928Y-70269819D02*
X170829166Y-70317438D01*
X170829166Y-70317438D02*
X170876785Y-70365057D01*
X170876785Y-70365057D02*
X170924404Y-70460295D01*
X170924404Y-70460295D02*
X170924404Y-70507914D01*
X170924404Y-70507914D02*
X170876785Y-70603152D01*
X170876785Y-70603152D02*
X170829166Y-70650771D01*
X170829166Y-70650771D02*
X170733928Y-70698390D01*
X170733928Y-70698390D02*
X170543452Y-70698390D01*
X170543452Y-70698390D02*
X170448214Y-70746009D01*
X170448214Y-70746009D02*
X170400595Y-70793628D01*
X170400595Y-70793628D02*
X170352976Y-70888866D01*
X170352976Y-70888866D02*
X170352976Y-71079342D01*
X170352976Y-71079342D02*
X170400595Y-71174580D01*
X170400595Y-71174580D02*
X170448214Y-71222200D01*
X170448214Y-71222200D02*
X170543452Y-71269819D01*
X170543452Y-71269819D02*
X170733928Y-71269819D01*
X170733928Y-71269819D02*
X170829166Y-71222200D01*
X170829166Y-71222200D02*
X170876785Y-71174580D01*
X170876785Y-71174580D02*
X170924404Y-71079342D01*
X170924404Y-71079342D02*
X170924404Y-70888866D01*
X170924404Y-70888866D02*
X170876785Y-70793628D01*
X170876785Y-70793628D02*
X170829166Y-70746009D01*
X170829166Y-70746009D02*
X170733928Y-70698390D01*
X170811905Y-60954819D02*
X170811905Y-61764342D01*
X170811905Y-61764342D02*
X170859524Y-61859580D01*
X170859524Y-61859580D02*
X170907143Y-61907200D01*
X170907143Y-61907200D02*
X171002381Y-61954819D01*
X171002381Y-61954819D02*
X171192857Y-61954819D01*
X171192857Y-61954819D02*
X171288095Y-61907200D01*
X171288095Y-61907200D02*
X171335714Y-61859580D01*
X171335714Y-61859580D02*
X171383333Y-61764342D01*
X171383333Y-61764342D02*
X171383333Y-60954819D01*
X172383333Y-61954819D02*
X171811905Y-61954819D01*
X172097619Y-61954819D02*
X172097619Y-60954819D01*
X172097619Y-60954819D02*
X172002381Y-61097676D01*
X172002381Y-61097676D02*
X171907143Y-61192914D01*
X171907143Y-61192914D02*
X171811905Y-61240533D01*
X173240476Y-61288152D02*
X173240476Y-61954819D01*
X173002381Y-60907200D02*
X172764286Y-61621485D01*
X172764286Y-61621485D02*
X173383333Y-61621485D01*
D12*
%TO.C,C43*%
X174218748Y-62065000D02*
X174741252Y-62065000D01*
X174218748Y-63535000D02*
X174741252Y-63535000D01*
%TO.C,U4*%
X82480000Y-56977500D02*
X82480000Y-57452500D01*
X82480000Y-61197500D02*
X82480000Y-60722500D01*
X82955000Y-56977500D02*
X82480000Y-56977500D01*
X82955000Y-61197500D02*
X82480000Y-61197500D01*
X86225000Y-56977500D02*
X86700000Y-56977500D01*
X86225000Y-61197500D02*
X86400000Y-61197500D01*
X86700000Y-56977500D02*
X86700000Y-57452500D01*
X86700000Y-60722500D02*
X86700000Y-60957500D01*
X86940000Y-61527500D02*
X86460000Y-61527500D01*
X86700000Y-61197500D01*
X86940000Y-61527500D01*
G36*
X86940000Y-61527500D02*
G01*
X86460000Y-61527500D01*
X86700000Y-61197500D01*
X86940000Y-61527500D01*
G37*
%TO.C,R3*%
X57922258Y-32387500D02*
X57447742Y-32387500D01*
X57922258Y-33432500D02*
X57447742Y-33432500D01*
%TO.C,U6*%
X93160000Y-57812500D02*
X94460000Y-57812500D01*
X93160000Y-59792500D02*
X94210000Y-59792500D01*
X94580000Y-60072500D02*
X94580000Y-59792500D01*
X94860000Y-59792500D01*
X94580000Y-60072500D01*
G36*
X94580000Y-60072500D02*
G01*
X94580000Y-59792500D01*
X94860000Y-59792500D01*
X94580000Y-60072500D01*
G37*
%TO.C,C24*%
X79312164Y-88700000D02*
X79527836Y-88700000D01*
X79312164Y-89420000D02*
X79527836Y-89420000D01*
%TO.C,D4*%
X61905000Y-76800000D02*
X61905000Y-78720000D01*
X61905000Y-78720000D02*
X64590000Y-78720000D01*
X64590000Y-76800000D02*
X61905000Y-76800000D01*
%TO.C,R20*%
X178242258Y-64257500D02*
X177767742Y-64257500D01*
X178242258Y-65302500D02*
X177767742Y-65302500D01*
%TO.C,C38*%
X137162164Y-68420000D02*
X137377836Y-68420000D01*
X137162164Y-69140000D02*
X137377836Y-69140000D01*
%TO.C,C18*%
X59946248Y-73840000D02*
X60468752Y-73840000D01*
X59946248Y-75310000D02*
X60468752Y-75310000D01*
%TO.C,R7*%
X59762742Y-85077500D02*
X60237258Y-85077500D01*
X59762742Y-86122500D02*
X60237258Y-86122500D01*
%TO.C,U7*%
X77240000Y-92432500D02*
X77240000Y-91922500D01*
X77240000Y-97902500D02*
X77240000Y-97152500D01*
X77990000Y-91682500D02*
X77540000Y-91682500D01*
X77990000Y-97902500D02*
X77240000Y-97902500D01*
X82710000Y-91682500D02*
X83460000Y-91682500D01*
X82710000Y-97902500D02*
X83460000Y-97902500D01*
X83460000Y-91682500D02*
X83460000Y-92432500D01*
X83460000Y-97902500D02*
X83460000Y-97152500D01*
X77240000Y-91682500D02*
X77000000Y-91352500D01*
X77480000Y-91352500D01*
X77240000Y-91682500D01*
G36*
X77240000Y-91682500D02*
G01*
X77000000Y-91352500D01*
X77480000Y-91352500D01*
X77240000Y-91682500D01*
G37*
%TO.C,R16*%
X98598641Y-63925000D02*
X98291359Y-63925000D01*
X98598641Y-64685000D02*
X98291359Y-64685000D01*
D13*
%TO.C,S1*%
X104131500Y-79240000D02*
X106591500Y-79240000D01*
X104131500Y-82440000D02*
X106591500Y-82440000D01*
D14*
X102243500Y-79710000D02*
G75*
G02*
X102043500Y-79710000I-100000J0D01*
G01*
X102043500Y-79710000D02*
G75*
G02*
X102243500Y-79710000I100000J0D01*
G01*
D12*
%TO.C,C42*%
X172958748Y-84085000D02*
X173481252Y-84085000D01*
X172958748Y-85555000D02*
X173481252Y-85555000D01*
D13*
%TO.C,J7*%
X123140000Y-30790000D02*
X129040000Y-30790000D01*
X123140000Y-35290000D02*
X123140000Y-30790000D01*
X129040000Y-30790000D02*
X129040000Y-35290000D01*
X129040000Y-35290000D02*
X123140000Y-35290000D01*
D14*
X125190000Y-30090000D02*
G75*
G02*
X124990000Y-30090000I-100000J0D01*
G01*
X124990000Y-30090000D02*
G75*
G02*
X125190000Y-30090000I100000J0D01*
G01*
D12*
%TO.C,R8*%
X59222742Y-90887500D02*
X59697258Y-90887500D01*
X59222742Y-91932500D02*
X59697258Y-91932500D01*
%TO.C,R27*%
X139267500Y-69507742D02*
X139267500Y-69982258D01*
X140312500Y-69507742D02*
X140312500Y-69982258D01*
D13*
%TO.C,U1*%
X90640000Y-33530000D02*
X106640000Y-33530000D01*
X90640000Y-34630000D02*
X90640000Y-33530000D01*
X90640000Y-49330000D02*
X90640000Y-49530000D01*
X90640000Y-49530000D02*
X106640000Y-49530000D01*
X106640000Y-33530000D02*
X106640000Y-34630000D01*
X106640000Y-49530000D02*
X106640000Y-49330000D01*
D14*
X89990000Y-34530000D02*
G75*
G02*
X89790000Y-34530000I-100000J0D01*
G01*
X89790000Y-34530000D02*
G75*
G02*
X89990000Y-34530000I100000J0D01*
G01*
D12*
%TO.C,R14*%
X67767258Y-75307500D02*
X67292742Y-75307500D01*
X67767258Y-76352500D02*
X67292742Y-76352500D01*
D13*
%TO.C,ID1*%
X186185000Y-77205000D02*
X188645000Y-77205000D01*
X186185000Y-80405000D02*
X188645000Y-80405000D01*
D14*
X184297000Y-77675000D02*
G75*
G02*
X184097000Y-77675000I-100000J0D01*
G01*
X184097000Y-77675000D02*
G75*
G02*
X184297000Y-77675000I100000J0D01*
G01*
D12*
%TO.C,R17*%
X98583641Y-62630000D02*
X98276359Y-62630000D01*
X98583641Y-63390000D02*
X98276359Y-63390000D01*
%TO.C,R22*%
X148667742Y-32047500D02*
X149142258Y-32047500D01*
X148667742Y-33092500D02*
X149142258Y-33092500D01*
%TO.C,C37*%
X125530580Y-75380000D02*
X125249420Y-75380000D01*
X125530580Y-76400000D02*
X125249420Y-76400000D01*
D14*
%TO.C,Q1*%
X47380000Y-88865000D02*
X48480000Y-88865000D01*
X48830000Y-88950000D02*
X49130000Y-88950000D01*
X48830000Y-91850000D02*
X48830000Y-88950000D01*
X49130000Y-88950000D02*
X49130000Y-91850000D01*
X49130000Y-91850000D02*
X48830000Y-91850000D01*
D12*
%TO.C,R13*%
X60373641Y-70820000D02*
X60066359Y-70820000D01*
X60373641Y-71580000D02*
X60066359Y-71580000D01*
%TO.C,C8*%
X51159420Y-75600000D02*
X51440580Y-75600000D01*
X51159420Y-76620000D02*
X51440580Y-76620000D01*
D13*
%TO.C,Ctrl1*%
X104131500Y-69740000D02*
X106591500Y-69740000D01*
X104131500Y-72940000D02*
X106591500Y-72940000D01*
D14*
X102243500Y-70210000D02*
G75*
G02*
X102043500Y-70210000I-100000J0D01*
G01*
X102043500Y-70210000D02*
G75*
G02*
X102243500Y-70210000I100000J0D01*
G01*
D12*
%TO.C,U3*%
X49167500Y-85060000D02*
X48367500Y-85060000D01*
X49167500Y-85060000D02*
X49967500Y-85060000D01*
X49167500Y-88180000D02*
X48367500Y-88180000D01*
X49167500Y-88180000D02*
X49967500Y-88180000D01*
X47867500Y-85110000D02*
X47627500Y-84780000D01*
X48107500Y-84780000D01*
X47867500Y-85110000D01*
G36*
X47867500Y-85110000D02*
G01*
X47627500Y-84780000D01*
X48107500Y-84780000D01*
X47867500Y-85110000D01*
G37*
%TO.C,Q2*%
X77710000Y-60250000D02*
X77710000Y-58840000D01*
X80030000Y-60240000D02*
X80030000Y-58840000D01*
X77760000Y-60620000D02*
X77430000Y-60860000D01*
X77430000Y-60380000D01*
X77760000Y-60620000D01*
G36*
X77760000Y-60620000D02*
G01*
X77430000Y-60860000D01*
X77430000Y-60380000D01*
X77760000Y-60620000D01*
G37*
%TO.C,C19*%
X67742164Y-96830000D02*
X67957836Y-96830000D01*
X67742164Y-97550000D02*
X67957836Y-97550000D01*
%TO.C,C34*%
X172938748Y-81875000D02*
X173461252Y-81875000D01*
X172938748Y-83345000D02*
X173461252Y-83345000D01*
%TO.C,U11*%
X136552500Y-36960000D02*
X135752500Y-36960000D01*
X136552500Y-36960000D02*
X137352500Y-36960000D01*
X136552500Y-40080000D02*
X135752500Y-40080000D01*
X136552500Y-40080000D02*
X137352500Y-40080000D01*
X135252500Y-37010000D02*
X135012500Y-36680000D01*
X135492500Y-36680000D01*
X135252500Y-37010000D01*
G36*
X135252500Y-37010000D02*
G01*
X135012500Y-36680000D01*
X135492500Y-36680000D01*
X135252500Y-37010000D01*
G37*
%TO.C,C7*%
X64044420Y-30885000D02*
X64325580Y-30885000D01*
X64044420Y-31905000D02*
X64325580Y-31905000D01*
%TO.C,L2*%
X81992164Y-88570000D02*
X82207836Y-88570000D01*
X81992164Y-89290000D02*
X82207836Y-89290000D01*
%TO.C,R4*%
X57927258Y-30822500D02*
X57452742Y-30822500D01*
X57927258Y-31867500D02*
X57452742Y-31867500D01*
D13*
%TO.C,J6*%
X186070000Y-55060000D02*
X187660000Y-55060000D01*
X186070000Y-64000000D02*
X187660000Y-64000000D01*
X191480000Y-55060000D02*
X190100000Y-55060000D01*
X191480000Y-55060000D02*
X191480000Y-64000000D01*
X191480000Y-64000000D02*
X190100000Y-64000000D01*
D14*
%TO.C,J5*%
X101160000Y-96090000D02*
X101160000Y-93690000D01*
X103460000Y-91390000D02*
X105860000Y-91390000D01*
X105860000Y-98390000D02*
X103460000Y-98390000D01*
X108160000Y-96090000D02*
X108160000Y-93690000D01*
D12*
%TO.C,U5*%
X58770000Y-77080000D02*
X57970000Y-77080000D01*
X58770000Y-77080000D02*
X59570000Y-77080000D01*
X58770000Y-80200000D02*
X57970000Y-80200000D01*
X58770000Y-80200000D02*
X59570000Y-80200000D01*
X57470000Y-77130000D02*
X57230000Y-76800000D01*
X57710000Y-76800000D01*
X57470000Y-77130000D01*
G36*
X57470000Y-77130000D02*
G01*
X57230000Y-76800000D01*
X57710000Y-76800000D01*
X57470000Y-77130000D01*
G37*
%TO.C,R9*%
X74397258Y-59657500D02*
X73922742Y-59657500D01*
X74397258Y-60702500D02*
X73922742Y-60702500D01*
%TO.C,C28*%
X173350580Y-75080000D02*
X173069420Y-75080000D01*
X173350580Y-76100000D02*
X173069420Y-76100000D01*
%TO.C,R19*%
X93072258Y-77817500D02*
X92597742Y-77817500D01*
X93072258Y-78862500D02*
X92597742Y-78862500D01*
D14*
%TO.C,J8*%
X183500000Y-95990000D02*
X183500000Y-93590000D01*
X185800000Y-91290000D02*
X188200000Y-91290000D01*
X188200000Y-98290000D02*
X185800000Y-98290000D01*
X190500000Y-95990000D02*
X190500000Y-93590000D01*
D12*
%TO.C,C16*%
X55711248Y-84805000D02*
X56233752Y-84805000D01*
X55711248Y-86275000D02*
X56233752Y-86275000D01*
%TO.C,Y1*%
X72460000Y-94620000D02*
X72460000Y-96920000D01*
X72460000Y-96920000D02*
X75160000Y-96920000D01*
%TO.C,R15*%
X59982742Y-72157500D02*
X60457258Y-72157500D01*
X59982742Y-73202500D02*
X60457258Y-73202500D01*
%TO.C,C31*%
X153549664Y-96355000D02*
X153765336Y-96355000D01*
X153549664Y-97075000D02*
X153765336Y-97075000D01*
%TO.C,C36*%
X173054420Y-76750000D02*
X173335580Y-76750000D01*
X173054420Y-77770000D02*
X173335580Y-77770000D01*
D13*
%TO.C,J4*%
X104000000Y-55310000D02*
X105590000Y-55310000D01*
X104000000Y-64250000D02*
X105590000Y-64250000D01*
X109410000Y-55310000D02*
X108030000Y-55310000D01*
X109410000Y-55310000D02*
X109410000Y-64250000D01*
X109410000Y-64250000D02*
X108030000Y-64250000D01*
D12*
%TO.C,C41*%
X139510580Y-59620000D02*
X139229420Y-59620000D01*
X139510580Y-60640000D02*
X139229420Y-60640000D01*
%TO.C,C20*%
X67727164Y-95675000D02*
X67942836Y-95675000D01*
X67727164Y-96395000D02*
X67942836Y-96395000D01*
%TO.C,D7*%
X165300000Y-53265000D02*
X165300000Y-55950000D01*
X167220000Y-53265000D02*
X165300000Y-53265000D01*
X167220000Y-55950000D02*
X167220000Y-53265000D01*
%TO.C,C17*%
X63873748Y-37800000D02*
X64396252Y-37800000D01*
X63873748Y-39270000D02*
X64396252Y-39270000D01*
%TO.C,C14*%
X55731248Y-87415000D02*
X56253752Y-87415000D01*
X55731248Y-88885000D02*
X56253752Y-88885000D01*
%TO.C,R23*%
X148637742Y-33657500D02*
X149112258Y-33657500D01*
X148637742Y-34702500D02*
X149112258Y-34702500D01*
D13*
%TO.C,Y3*%
X144000000Y-70650000D02*
X144000000Y-69090000D01*
X145880000Y-67370000D02*
X145320000Y-67370000D01*
X145880000Y-72370000D02*
X145320000Y-72370000D01*
X147200000Y-70650000D02*
X147200000Y-69090000D01*
D14*
X148250000Y-71870000D02*
G75*
G02*
X148050000Y-71870000I-100000J0D01*
G01*
X148050000Y-71870000D02*
G75*
G02*
X148250000Y-71870000I100000J0D01*
G01*
D12*
%TO.C,C25*%
X173018748Y-70785000D02*
X173541252Y-70785000D01*
X173018748Y-72255000D02*
X173541252Y-72255000D01*
D13*
%TO.C,Find_Host2*%
X186185000Y-72455000D02*
X188645000Y-72455000D01*
X186185000Y-75655000D02*
X188645000Y-75655000D01*
D14*
X184297000Y-72925000D02*
G75*
G02*
X184097000Y-72925000I-100000J0D01*
G01*
X184097000Y-72925000D02*
G75*
G02*
X184297000Y-72925000I100000J0D01*
G01*
D13*
%TO.C,S2*%
X186185000Y-81955000D02*
X188645000Y-81955000D01*
X186185000Y-85155000D02*
X188645000Y-85155000D01*
D14*
X184297000Y-82425000D02*
G75*
G02*
X184097000Y-82425000I-100000J0D01*
G01*
X184097000Y-82425000D02*
G75*
G02*
X184297000Y-82425000I100000J0D01*
G01*
D12*
%TO.C,C40*%
X139510580Y-61220000D02*
X139229420Y-61220000D01*
X139510580Y-62240000D02*
X139229420Y-62240000D01*
%TO.C,C2*%
X51440580Y-73990000D02*
X51159420Y-73990000D01*
X51440580Y-75010000D02*
X51159420Y-75010000D01*
%TO.C,U13*%
X162982500Y-92340000D02*
X162982500Y-91830000D01*
X162982500Y-97810000D02*
X162982500Y-97060000D01*
X163732500Y-91590000D02*
X163282500Y-91590000D01*
X163732500Y-97810000D02*
X162982500Y-97810000D01*
X168452500Y-91590000D02*
X169202500Y-91590000D01*
X168452500Y-97810000D02*
X169202500Y-97810000D01*
X169202500Y-91590000D02*
X169202500Y-92340000D01*
X169202500Y-97810000D02*
X169202500Y-97060000D01*
X162982500Y-91590000D02*
X162742500Y-91260000D01*
X163222500Y-91260000D01*
X162982500Y-91590000D01*
G36*
X162982500Y-91590000D02*
G01*
X162742500Y-91260000D01*
X163222500Y-91260000D01*
X162982500Y-91590000D01*
G37*
%TO.C,U10*%
X136652500Y-30940000D02*
X135852500Y-30940000D01*
X136652500Y-30940000D02*
X137452500Y-30940000D01*
X136652500Y-34060000D02*
X135852500Y-34060000D01*
X136652500Y-34060000D02*
X137452500Y-34060000D01*
X135352500Y-30990000D02*
X135112500Y-30660000D01*
X135592500Y-30660000D01*
X135352500Y-30990000D01*
G36*
X135352500Y-30990000D02*
G01*
X135112500Y-30660000D01*
X135592500Y-30660000D01*
X135352500Y-30990000D01*
G37*
%TO.C,U2*%
X66220000Y-50500000D02*
X65270000Y-50500000D01*
X66220000Y-51900000D02*
X66220000Y-50500000D01*
X66220000Y-67500000D02*
X66220000Y-68900000D01*
X66220000Y-68900000D02*
X65270000Y-68900000D01*
X47270000Y-69400000D02*
X46770000Y-68900000D01*
X47270000Y-68900000D01*
X47270000Y-69400000D01*
G36*
X47270000Y-69400000D02*
G01*
X46770000Y-68900000D01*
X47270000Y-68900000D01*
X47270000Y-69400000D01*
G37*
%TO.C,D3*%
X66550000Y-78670000D02*
X69235000Y-78670000D01*
X69235000Y-76750000D02*
X66550000Y-76750000D01*
X69235000Y-78670000D02*
X69235000Y-76750000D01*
%TO.C,R5*%
X51493641Y-79330000D02*
X51186359Y-79330000D01*
X51493641Y-80090000D02*
X51186359Y-80090000D01*
%TO.C,C12*%
X64044420Y-32445000D02*
X64325580Y-32445000D01*
X64044420Y-33465000D02*
X64325580Y-33465000D01*
%TO.C,C10*%
X51008748Y-77235000D02*
X51531252Y-77235000D01*
X51008748Y-78705000D02*
X51531252Y-78705000D01*
D13*
%TO.C,J9*%
X133359250Y-95800750D02*
X140979250Y-95800750D01*
X133359250Y-98340750D02*
X133359250Y-95800750D01*
X140979250Y-95800750D02*
X140979250Y-98340750D01*
X140979250Y-98340750D02*
X133359250Y-98340750D01*
D14*
X132919250Y-97070750D02*
G75*
G02*
X132719250Y-97070750I-100000J0D01*
G01*
X132719250Y-97070750D02*
G75*
G02*
X132919250Y-97070750I100000J0D01*
G01*
D12*
%TO.C,U8*%
X177690000Y-58197500D02*
X178990000Y-58197500D01*
X177690000Y-60177500D02*
X178740000Y-60177500D01*
X179110000Y-60457500D02*
X179110000Y-60177500D01*
X179390000Y-60177500D01*
X179110000Y-60457500D01*
G36*
X179110000Y-60457500D02*
G01*
X179110000Y-60177500D01*
X179390000Y-60177500D01*
X179110000Y-60457500D01*
G37*
%TO.C,R11*%
X59257742Y-92432500D02*
X59732258Y-92432500D01*
X59257742Y-93477500D02*
X59732258Y-93477500D01*
%TO.C,C27*%
X172988748Y-66295000D02*
X173511252Y-66295000D01*
X172988748Y-67765000D02*
X173511252Y-67765000D01*
%TO.C,R21*%
X178237258Y-62537500D02*
X177762742Y-62537500D01*
X178237258Y-63582500D02*
X177762742Y-63582500D01*
%TO.C,R24*%
X166813641Y-73740000D02*
X166506359Y-73740000D01*
X166813641Y-74500000D02*
X166506359Y-74500000D01*
%TO.C,R18*%
X93072258Y-75307500D02*
X92597742Y-75307500D01*
X93072258Y-76352500D02*
X92597742Y-76352500D01*
%TO.C,C39*%
X137162164Y-70390000D02*
X137377836Y-70390000D01*
X137162164Y-71110000D02*
X137377836Y-71110000D01*
%TO.C,C33*%
X173255580Y-80210000D02*
X172974420Y-80210000D01*
X173255580Y-81230000D02*
X172974420Y-81230000D01*
%TO.C,R1*%
X57922258Y-35507500D02*
X57447742Y-35507500D01*
X57922258Y-36552500D02*
X57447742Y-36552500D01*
%TO.C,C35*%
X175542164Y-92800000D02*
X175757836Y-92800000D01*
X175542164Y-93520000D02*
X175757836Y-93520000D01*
%TO.C,R10*%
X74392258Y-57977500D02*
X73917742Y-57977500D01*
X74392258Y-59022500D02*
X73917742Y-59022500D01*
%TO.C,C22*%
X67405580Y-94205000D02*
X67124420Y-94205000D01*
X67405580Y-95225000D02*
X67124420Y-95225000D01*
D13*
%TO.C,D5*%
X140925000Y-35632500D02*
X140925000Y-36452500D01*
X142575000Y-35632500D02*
X142575000Y-36452500D01*
D14*
X141850000Y-33132500D02*
G75*
G02*
X141650000Y-33132500I-100000J0D01*
G01*
X141650000Y-33132500D02*
G75*
G02*
X141850000Y-33132500I100000J0D01*
G01*
D12*
%TO.C,C1*%
X51179420Y-72410000D02*
X51460580Y-72410000D01*
X51179420Y-73430000D02*
X51460580Y-73430000D01*
%TO.C,R26*%
X166380242Y-68472500D02*
X166854758Y-68472500D01*
X166380242Y-69517500D02*
X166854758Y-69517500D01*
%TO.C,R29*%
X166447742Y-71987500D02*
X166922258Y-71987500D01*
X166447742Y-73032500D02*
X166922258Y-73032500D01*
%TO.C,Y2*%
X156910000Y-97500000D02*
X159210000Y-97500000D01*
X159210000Y-97500000D02*
X159210000Y-94800000D01*
D14*
%TO.C,J2*%
X51510000Y-98614500D02*
X51510000Y-96125500D01*
X61670000Y-96125500D02*
X51510000Y-96125500D01*
X61670000Y-96125500D02*
X61670000Y-98614500D01*
X61670000Y-98614500D02*
X51510000Y-98614500D01*
X62420000Y-97370000D02*
G75*
G02*
X62220000Y-97370000I-100000J0D01*
G01*
X62220000Y-97370000D02*
G75*
G02*
X62420000Y-97370000I100000J0D01*
G01*
D13*
%TO.C,U9*%
X152720000Y-58540000D02*
X152720000Y-58930000D01*
X152720000Y-65350000D02*
X152720000Y-65740000D01*
X152720000Y-65740000D02*
X153110000Y-65740000D01*
X153110000Y-58540000D02*
X152720000Y-58540000D01*
X159530000Y-65740000D02*
X159920000Y-65740000D01*
X159920000Y-58540000D02*
X159530000Y-58540000D01*
X159920000Y-58930000D02*
X159920000Y-58540000D01*
X159920000Y-65740000D02*
X159920000Y-65350000D01*
D14*
X150470000Y-59190000D02*
G75*
G02*
X150170000Y-59190000I-150000J0D01*
G01*
X150170000Y-59190000D02*
G75*
G02*
X150470000Y-59190000I150000J0D01*
G01*
D12*
%TO.C,R25*%
X166395242Y-66742500D02*
X166869758Y-66742500D01*
X166395242Y-67787500D02*
X166869758Y-67787500D01*
%TO.C,C29*%
X172998748Y-68505000D02*
X173521252Y-68505000D01*
X172998748Y-69975000D02*
X173521252Y-69975000D01*
%TO.C,R12*%
X59762742Y-87587500D02*
X60237258Y-87587500D01*
X59762742Y-88632500D02*
X60237258Y-88632500D01*
D13*
%TO.C,J3*%
X41430000Y-93650000D02*
X47330000Y-93650000D01*
X41430000Y-98150000D02*
X41430000Y-93650000D01*
X47330000Y-93650000D02*
X47330000Y-98150000D01*
X47330000Y-98150000D02*
X41430000Y-98150000D01*
D14*
X45480000Y-98850000D02*
G75*
G02*
X45280000Y-98850000I-100000J0D01*
G01*
X45280000Y-98850000D02*
G75*
G02*
X45480000Y-98850000I100000J0D01*
G01*
D12*
%TO.C,BZ1*%
X136430000Y-83030000D02*
G75*
G02*
X124230000Y-83030000I-6100000J0D01*
G01*
X124230000Y-83030000D02*
G75*
G02*
X136430000Y-83030000I6100000J0D01*
G01*
D13*
%TO.C,J10*%
X124186750Y-95870750D02*
X131806750Y-95870750D01*
X124186750Y-98410750D02*
X124186750Y-95870750D01*
X131806750Y-95870750D02*
X131806750Y-98410750D01*
X131806750Y-98410750D02*
X124186750Y-98410750D01*
D14*
X123746750Y-97140750D02*
G75*
G02*
X123546750Y-97140750I-100000J0D01*
G01*
X123546750Y-97140750D02*
G75*
G02*
X123746750Y-97140750I100000J0D01*
G01*
D12*
%TO.C,R6*%
X51102742Y-80657500D02*
X51577258Y-80657500D01*
X51102742Y-81702500D02*
X51577258Y-81702500D01*
%TO.C,C23*%
X66933748Y-92120000D02*
X67456252Y-92120000D01*
X66933748Y-93590000D02*
X67456252Y-93590000D01*
D13*
%TO.C,J1*%
X41415000Y-31025000D02*
X41415000Y-31245000D01*
X41415000Y-31025000D02*
X47765000Y-31025000D01*
X41415000Y-34425000D02*
X41415000Y-34205000D01*
X47765000Y-31025000D02*
X47765000Y-31245000D01*
X47765000Y-34205000D02*
X47765000Y-34425000D01*
X47765000Y-34425000D02*
X41415000Y-34425000D01*
D14*
X48440000Y-32090000D02*
G75*
G02*
X48240000Y-32090000I-100000J0D01*
G01*
X48240000Y-32090000D02*
G75*
G02*
X48440000Y-32090000I100000J0D01*
G01*
D12*
%TO.C,C9*%
X63858748Y-35625000D02*
X64381252Y-35625000D01*
X63858748Y-37095000D02*
X64381252Y-37095000D01*
%TO.C,R2*%
X57922258Y-33947500D02*
X57447742Y-33947500D01*
X57922258Y-34992500D02*
X57447742Y-34992500D01*
%TO.C,Y4*%
X145795000Y-61395000D02*
X145795000Y-60045000D01*
X147545000Y-61395000D02*
X147545000Y-60045000D01*
%TO.C,C26*%
X173008748Y-72925000D02*
X173531252Y-72925000D01*
X173008748Y-74395000D02*
X173531252Y-74395000D01*
%TO.C,C21*%
X79322164Y-87510000D02*
X79537836Y-87510000D01*
X79322164Y-88230000D02*
X79537836Y-88230000D01*
%TO.C,C13*%
X64049420Y-34030000D02*
X64330580Y-34030000D01*
X64049420Y-35050000D02*
X64330580Y-35050000D01*
%TO.C,C32*%
X175562164Y-91400000D02*
X175777836Y-91400000D01*
X175562164Y-92120000D02*
X175777836Y-92120000D01*
%TO.C,C30*%
X153532164Y-95140000D02*
X153747836Y-95140000D01*
X153532164Y-95860000D02*
X153747836Y-95860000D01*
D13*
%TO.C,U12*%
X172230000Y-33680000D02*
X188230000Y-33680000D01*
X172230000Y-34780000D02*
X172230000Y-33680000D01*
X172230000Y-49480000D02*
X172230000Y-49680000D01*
X172230000Y-49680000D02*
X188230000Y-49680000D01*
X188230000Y-33680000D02*
X188230000Y-34780000D01*
X188230000Y-49680000D02*
X188230000Y-49480000D01*
D14*
X171580000Y-34680000D02*
G75*
G02*
X171380000Y-34680000I-100000J0D01*
G01*
X171380000Y-34680000D02*
G75*
G02*
X171580000Y-34680000I100000J0D01*
G01*
D13*
%TO.C,D1*%
X43400000Y-85135000D02*
X44220000Y-85135000D01*
X43400000Y-86785000D02*
X44220000Y-86785000D01*
D14*
X41000000Y-85960000D02*
G75*
G02*
X40800000Y-85960000I-100000J0D01*
G01*
X40800000Y-85960000D02*
G75*
G02*
X41000000Y-85960000I100000J0D01*
G01*
D13*
%TO.C,Find_Host1*%
X104131500Y-74490000D02*
X106591500Y-74490000D01*
X104131500Y-77690000D02*
X106591500Y-77690000D01*
D14*
X102243500Y-74960000D02*
G75*
G02*
X102043500Y-74960000I-100000J0D01*
G01*
X102043500Y-74960000D02*
G75*
G02*
X102243500Y-74960000I100000J0D01*
G01*
D12*
%TO.C,R28*%
X166447742Y-70247500D02*
X166922258Y-70247500D01*
X166447742Y-71292500D02*
X166922258Y-71292500D01*
%TO.C,U14*%
X174740000Y-59807500D02*
X174740000Y-60042500D01*
X174740000Y-56062500D02*
X174740000Y-56537500D01*
X174265000Y-60282500D02*
X174440000Y-60282500D01*
X174265000Y-56062500D02*
X174740000Y-56062500D01*
X170995000Y-60282500D02*
X170520000Y-60282500D01*
X170995000Y-56062500D02*
X170520000Y-56062500D01*
X170520000Y-60282500D02*
X170520000Y-59807500D01*
X170520000Y-56062500D02*
X170520000Y-56537500D01*
X174980000Y-60612500D02*
X174500000Y-60612500D01*
X174740000Y-60282500D01*
X174980000Y-60612500D01*
G36*
X174980000Y-60612500D02*
G01*
X174500000Y-60612500D01*
X174740000Y-60282500D01*
X174980000Y-60612500D01*
G37*
%TD*%
M02*
