%TF.GenerationSoftware,KiCad,Pcbnew,9.0.0*%
%TF.CreationDate,2025-09-24T11:45:30+09:00*%
%TF.ProjectId,FLP_PCB_set,464c505f-5043-4425-9f73-65742e6b6963,rev?*%
%TF.SameCoordinates,Original*%
%TF.FileFunction,Profile,NP*%
%FSLAX46Y46*%
G04 Gerber Fmt 4.6, Leading zero omitted, Abs format (unit mm)*
G04 Created by KiCad (PCBNEW 9.0.0) date 2025-09-24 11:45:30*
%MOMM*%
%LPD*%
G01*
G04 APERTURE LIST*
%TA.AperFunction,Profile*%
%ADD10C,0.050000*%
%TD*%
G04 APERTURE END LIST*
D10*
X110000000Y-30000000D02*
X110000000Y-53500000D01*
X110000000Y-30000000D02*
X40000000Y-30000000D01*
X192110000Y-29890000D02*
X122110000Y-29890000D01*
X110000000Y-66240000D02*
X110000000Y-100000000D01*
X122110000Y-29890000D02*
X122110000Y-99890000D01*
X110000000Y-53500000D02*
G75*
G02*
X109000000Y-54500000I-1000000J0D01*
G01*
X109000000Y-65240000D02*
G75*
G02*
X108000000Y-64240000I0J1000000D01*
G01*
X191110000Y-65130000D02*
G75*
G02*
X190110000Y-64130000I0J1000000D01*
G01*
X40000000Y-30000000D02*
X40000000Y-100000000D01*
X192110000Y-53390000D02*
G75*
G02*
X191110000Y-54390000I-1000000J0D01*
G01*
X108000000Y-55500000D02*
G75*
G02*
X109000000Y-54500000I1000000J0D01*
G01*
X190110000Y-55390000D02*
G75*
G02*
X191110000Y-54390000I1000000J0D01*
G01*
X108000000Y-55500000D02*
X108000000Y-64240000D01*
X190110000Y-55390000D02*
X190110000Y-64130000D01*
X192110000Y-99890000D02*
X122110000Y-99890000D01*
X109000000Y-65240000D02*
G75*
G02*
X110000000Y-66240000I0J-1000000D01*
G01*
X110000000Y-100000000D02*
X40000000Y-100000000D01*
X191110000Y-65130000D02*
G75*
G02*
X192110000Y-66130000I0J-1000000D01*
G01*
X192110000Y-66130000D02*
X192110000Y-99890000D01*
X192110000Y-29890000D02*
X192110000Y-53390000D01*
M02*
