%TF.GenerationSoftware,KiCad,Pcbnew,9.0.0*%
%TF.CreationDate,2025-09-24T11:45:30+09:00*%
%TF.ProjectId,FLP_PCB_set,464c505f-5043-4425-9f73-65742e6b6963,rev?*%
%TF.SameCoordinates,Original*%
%TF.FileFunction,Soldermask,Top*%
%TF.FilePolarity,Negative*%
%FSLAX46Y46*%
G04 Gerber Fmt 4.6, Leading zero omitted, Abs format (unit mm)*
G04 Created by KiCad (PCBNEW 9.0.0) date 2025-09-24 11:45:30*
%MOMM*%
%LPD*%
G01*
G04 APERTURE LIST*
G04 Aperture macros list*
%AMRoundRect*
0 Rectangle with rounded corners*
0 $1 Rounding radius*
0 $2 $3 $4 $5 $6 $7 $8 $9 X,Y pos of 4 corners*
0 Add a 4 corners polygon primitive as box body*
4,1,4,$2,$3,$4,$5,$6,$7,$8,$9,$2,$3,0*
0 Add four circle primitives for the rounded corners*
1,1,$1+$1,$2,$3*
1,1,$1+$1,$4,$5*
1,1,$1+$1,$6,$7*
1,1,$1+$1,$8,$9*
0 Add four rect primitives between the rounded corners*
20,1,$1+$1,$2,$3,$4,$5,0*
20,1,$1+$1,$4,$5,$6,$7,0*
20,1,$1+$1,$6,$7,$8,$9,0*
20,1,$1+$1,$8,$9,$2,$3,0*%
G04 Aperture macros list end*
%ADD10RoundRect,0.250000X-0.250000X-0.475000X0.250000X-0.475000X0.250000X0.475000X-0.250000X0.475000X0*%
%ADD11RoundRect,0.062500X0.350000X0.062500X-0.350000X0.062500X-0.350000X-0.062500X0.350000X-0.062500X0*%
%ADD12RoundRect,0.062500X0.062500X0.350000X-0.062500X0.350000X-0.062500X-0.350000X0.062500X-0.350000X0*%
%ADD13R,2.600000X2.600000*%
%ADD14RoundRect,0.200000X0.200000X0.275000X-0.200000X0.275000X-0.200000X-0.275000X0.200000X-0.275000X0*%
%ADD15RoundRect,0.093750X0.156250X0.093750X-0.156250X0.093750X-0.156250X-0.093750X0.156250X-0.093750X0*%
%ADD16RoundRect,0.075000X0.250000X0.075000X-0.250000X0.075000X-0.250000X-0.075000X0.250000X-0.075000X0*%
%ADD17RoundRect,0.147500X-0.147500X-0.172500X0.147500X-0.172500X0.147500X0.172500X-0.147500X0.172500X0*%
%ADD18RoundRect,0.102000X-0.245000X-0.300000X0.245000X-0.300000X0.245000X0.300000X-0.245000X0.300000X0*%
%ADD19RoundRect,0.140000X-0.140000X-0.170000X0.140000X-0.170000X0.140000X0.170000X-0.140000X0.170000X0*%
%ADD20RoundRect,0.243750X-0.243750X-0.456250X0.243750X-0.456250X0.243750X0.456250X-0.243750X0.456250X0*%
%ADD21RoundRect,0.147500X0.147500X0.172500X-0.147500X0.172500X-0.147500X-0.172500X0.147500X-0.172500X0*%
%ADD22RoundRect,0.200000X-0.200000X-0.275000X0.200000X-0.275000X0.200000X0.275000X-0.200000X0.275000X0*%
%ADD23RoundRect,0.075000X-0.312500X-0.075000X0.312500X-0.075000X0.312500X0.075000X-0.312500X0.075000X0*%
%ADD24RoundRect,0.075000X-0.075000X-0.312500X0.075000X-0.312500X0.075000X0.312500X-0.075000X0.312500X0*%
%ADD25R,4.800000X4.800000*%
%ADD26RoundRect,0.135000X0.135000X0.185000X-0.135000X0.185000X-0.135000X-0.185000X0.135000X-0.185000X0*%
%ADD27RoundRect,0.102000X-0.525000X-0.325000X0.525000X-0.325000X0.525000X0.325000X-0.525000X0.325000X0*%
%ADD28RoundRect,0.102000X0.654000X0.654000X-0.654000X0.654000X-0.654000X-0.654000X0.654000X-0.654000X0*%
%ADD29C,1.512000*%
%ADD30RoundRect,0.200000X-0.275000X0.200000X-0.275000X-0.200000X0.275000X-0.200000X0.275000X0.200000X0*%
%ADD31O,2.704000X1.204000*%
%ADD32RoundRect,0.225000X0.225000X0.250000X-0.225000X0.250000X-0.225000X-0.250000X0.225000X-0.250000X0*%
%ADD33R,1.100000X0.650000*%
%ADD34RoundRect,0.225000X-0.225000X-0.250000X0.225000X-0.250000X0.225000X0.250000X-0.225000X0.250000X0*%
%ADD35RoundRect,0.150000X-0.512500X-0.150000X0.512500X-0.150000X0.512500X0.150000X-0.512500X0.150000X0*%
%ADD36RoundRect,0.100000X0.100000X-0.225000X0.100000X0.225000X-0.100000X0.225000X-0.100000X-0.225000X0*%
%ADD37C,0.650000*%
%ADD38RoundRect,0.090000X0.490000X-0.300000X0.490000X0.300000X-0.490000X0.300000X-0.490000X-0.300000X0*%
%ADD39RoundRect,0.090000X0.500000X-0.300000X0.500000X0.300000X-0.500000X0.300000X-0.500000X-0.300000X0*%
%ADD40RoundRect,0.090000X0.570000X-0.150000X0.570000X0.150000X-0.570000X0.150000X-0.570000X-0.150000X0*%
%ADD41O,2.304000X1.254000*%
%ADD42O,2.004000X1.104000*%
%ADD43C,2.604000*%
%ADD44RoundRect,0.102000X0.245000X0.300000X-0.245000X0.300000X-0.245000X-0.300000X0.245000X-0.300000X0*%
%ADD45R,0.900000X0.800000*%
%ADD46RoundRect,0.243750X-0.456250X0.243750X-0.456250X-0.243750X0.456250X-0.243750X0.456250X0.243750X0*%
%ADD47RoundRect,0.102000X0.600000X0.900000X-0.600000X0.900000X-0.600000X-0.900000X0.600000X-0.900000X0*%
%ADD48R,0.900000X1.500000*%
%ADD49R,1.500000X0.900000*%
%ADD50R,0.900000X0.900000*%
%ADD51C,0.600000*%
%ADD52RoundRect,0.243750X0.243750X0.456250X-0.243750X0.456250X-0.243750X-0.456250X0.243750X-0.456250X0*%
%ADD53RoundRect,0.102000X-0.937500X-0.937500X0.937500X-0.937500X0.937500X0.937500X-0.937500X0.937500X0*%
%ADD54C,2.079000*%
%ADD55RoundRect,0.102000X-0.505000X0.840000X-0.505000X-0.840000X0.505000X-0.840000X0.505000X0.840000X0*%
%ADD56R,0.800000X0.900000*%
%ADD57RoundRect,0.102000X-0.685000X-0.685000X0.685000X-0.685000X0.685000X0.685000X-0.685000X0.685000X0*%
%ADD58C,1.574000*%
%ADD59RoundRect,0.121000X-0.761000X-0.121000X0.761000X-0.121000X0.761000X0.121000X-0.761000X0.121000X0*%
%ADD60RoundRect,0.121000X-0.121000X-0.761000X0.121000X-0.761000X0.121000X0.761000X-0.121000X0.761000X0*%
%ADD61RoundRect,0.102000X-0.654000X-0.654000X0.654000X-0.654000X0.654000X0.654000X-0.654000X0.654000X0*%
%ADD62R,2.000000X2.000000*%
%ADD63C,2.000000*%
%ADD64RoundRect,0.102000X0.525000X0.525000X-0.525000X0.525000X-0.525000X-0.525000X0.525000X-0.525000X0*%
%ADD65C,1.254000*%
%ADD66R,1.800000X1.000000*%
%ADD67RoundRect,0.102000X-0.840000X-0.505000X0.840000X-0.505000X0.840000X0.505000X-0.840000X0.505000X0*%
G04 APERTURE END LIST*
D10*
%TO.C,C43*%
X173530000Y-62800000D03*
X175430000Y-62800000D03*
%TD*%
D11*
%TO.C,U4*%
X86527500Y-60337500D03*
X86527500Y-59837500D03*
X86527500Y-59337500D03*
X86527500Y-58837500D03*
X86527500Y-58337500D03*
X86527500Y-57837500D03*
D12*
X85840000Y-57150000D03*
X85340000Y-57150000D03*
X84840000Y-57150000D03*
X84340000Y-57150000D03*
X83840000Y-57150000D03*
X83340000Y-57150000D03*
D11*
X82652500Y-57837500D03*
X82652500Y-58337500D03*
X82652500Y-58837500D03*
X82652500Y-59337500D03*
X82652500Y-59837500D03*
X82652500Y-60337500D03*
D12*
X83340000Y-61025000D03*
X83840000Y-61025000D03*
X84340000Y-61025000D03*
X84840000Y-61025000D03*
X85340000Y-61025000D03*
X85840000Y-61025000D03*
D13*
X84590000Y-59087500D03*
%TD*%
D14*
%TO.C,R3*%
X58510000Y-32910000D03*
X56860000Y-32910000D03*
%TD*%
D15*
%TO.C,U6*%
X94660000Y-59340000D03*
D16*
X94735000Y-58802500D03*
D15*
X94660000Y-58265000D03*
X92960000Y-58265000D03*
D16*
X92885000Y-58802500D03*
D15*
X92960000Y-59340000D03*
%TD*%
D17*
%TO.C,L4*%
X175225000Y-95730000D03*
X176195000Y-95730000D03*
%TD*%
D18*
%TO.C,C11*%
X61923000Y-91450000D03*
X62837000Y-91450000D03*
%TD*%
D19*
%TO.C,C24*%
X78940000Y-89060000D03*
X79900000Y-89060000D03*
%TD*%
D20*
%TO.C,D4*%
X62652500Y-77760000D03*
X64527500Y-77760000D03*
%TD*%
D14*
%TO.C,R20*%
X178830000Y-64780000D03*
X177180000Y-64780000D03*
%TD*%
D19*
%TO.C,C38*%
X136790000Y-68780000D03*
X137750000Y-68780000D03*
%TD*%
D21*
%TO.C,L3*%
X176155000Y-94420000D03*
X175185000Y-94420000D03*
%TD*%
D10*
%TO.C,C18*%
X59257500Y-74575000D03*
X61157500Y-74575000D03*
%TD*%
D22*
%TO.C,R7*%
X59175000Y-85600000D03*
X60825000Y-85600000D03*
%TD*%
D23*
%TO.C,U7*%
X77362500Y-92842500D03*
X77362500Y-93492500D03*
X77362500Y-94142500D03*
X77362500Y-94792500D03*
X77362500Y-95442500D03*
X77362500Y-96092500D03*
X77362500Y-96742500D03*
D24*
X78400000Y-97780000D03*
X79050000Y-97780000D03*
X79700000Y-97780000D03*
X80350000Y-97780000D03*
X81000000Y-97780000D03*
X81650000Y-97780000D03*
X82300000Y-97780000D03*
D23*
X83337500Y-96742500D03*
X83337500Y-96092500D03*
X83337500Y-95442500D03*
X83337500Y-94792500D03*
X83337500Y-94142500D03*
X83337500Y-93492500D03*
X83337500Y-92842500D03*
D24*
X82300000Y-91805000D03*
X81650000Y-91805000D03*
X81000000Y-91805000D03*
X80350000Y-91805000D03*
X79700000Y-91805000D03*
X79050000Y-91805000D03*
X78400000Y-91805000D03*
D25*
X80350000Y-94792500D03*
%TD*%
D26*
%TO.C,R16*%
X98955000Y-64305000D03*
X97935000Y-64305000D03*
%TD*%
D27*
%TO.C,S1*%
X103286500Y-79765000D03*
X107436500Y-79765000D03*
X103286500Y-81915000D03*
X107436500Y-81915000D03*
%TD*%
D10*
%TO.C,C42*%
X172270000Y-84820000D03*
X174170000Y-84820000D03*
%TD*%
D28*
%TO.C,J7*%
X125090000Y-32490000D03*
D29*
X127090000Y-32490000D03*
%TD*%
D22*
%TO.C,R8*%
X58635000Y-91410000D03*
X60285000Y-91410000D03*
%TD*%
D30*
%TO.C,R27*%
X139790000Y-68920000D03*
X139790000Y-70570000D03*
%TD*%
D31*
%TO.C,U1*%
X90890000Y-35680000D03*
X90890000Y-38220000D03*
X90890000Y-40760000D03*
X90890000Y-43300000D03*
X90890000Y-45840000D03*
X90890000Y-48380000D03*
X106390000Y-48380000D03*
X106390000Y-45840000D03*
X106390000Y-43300000D03*
X106390000Y-40760000D03*
X106390000Y-38220000D03*
X106390000Y-35680000D03*
%TD*%
D14*
%TO.C,R14*%
X68355000Y-75830000D03*
X66705000Y-75830000D03*
%TD*%
D27*
%TO.C,ID1*%
X185340000Y-77730000D03*
X189490000Y-77730000D03*
X185340000Y-79880000D03*
X189490000Y-79880000D03*
%TD*%
D26*
%TO.C,R17*%
X98940000Y-63010000D03*
X97920000Y-63010000D03*
%TD*%
D22*
%TO.C,R22*%
X148080000Y-32570000D03*
X149730000Y-32570000D03*
%TD*%
D32*
%TO.C,C37*%
X126165000Y-75890000D03*
X124615000Y-75890000D03*
%TD*%
D33*
%TO.C,Q1*%
X47930000Y-89440000D03*
X47930000Y-91360000D03*
X50030000Y-90400000D03*
%TD*%
D26*
%TO.C,R13*%
X60730000Y-71200000D03*
X59710000Y-71200000D03*
%TD*%
D34*
%TO.C,C8*%
X50525000Y-76110000D03*
X52075000Y-76110000D03*
%TD*%
D27*
%TO.C,Ctrl1*%
X103286500Y-70265000D03*
X107436500Y-70265000D03*
X103286500Y-72415000D03*
X107436500Y-72415000D03*
%TD*%
D18*
%TO.C,C4*%
X51266000Y-37620000D03*
X52180000Y-37620000D03*
%TD*%
D35*
%TO.C,U3*%
X48030000Y-85670000D03*
X48030000Y-86620000D03*
X48030000Y-87570000D03*
X50305000Y-87570000D03*
X50305000Y-85670000D03*
%TD*%
D36*
%TO.C,Q2*%
X78220000Y-60490000D03*
X78870000Y-60490000D03*
X79520000Y-60490000D03*
X79520000Y-58590000D03*
X78870000Y-58590000D03*
X78220000Y-58590000D03*
%TD*%
D19*
%TO.C,C19*%
X67370000Y-97190000D03*
X68330000Y-97190000D03*
%TD*%
D10*
%TO.C,C34*%
X172250000Y-82610000D03*
X174150000Y-82610000D03*
%TD*%
D35*
%TO.C,U11*%
X135415000Y-37570000D03*
X135415000Y-38520000D03*
X135415000Y-39470000D03*
X137690000Y-39470000D03*
X137690000Y-37570000D03*
%TD*%
D34*
%TO.C,C7*%
X63410000Y-31395000D03*
X64960000Y-31395000D03*
%TD*%
D19*
%TO.C,L2*%
X81620000Y-88930000D03*
X82580000Y-88930000D03*
%TD*%
D18*
%TO.C,C15*%
X61893000Y-92690000D03*
X62807000Y-92690000D03*
%TD*%
D14*
%TO.C,R4*%
X58515000Y-31345000D03*
X56865000Y-31345000D03*
%TD*%
D37*
%TO.C,J6*%
X185200000Y-62420000D03*
X185200000Y-56640000D03*
D38*
X184130000Y-62730000D03*
D39*
X184130000Y-61930000D03*
D40*
X184130000Y-60780000D03*
X184130000Y-59780000D03*
X184130000Y-59280000D03*
X184130000Y-58280000D03*
D38*
X184130000Y-56330000D03*
D39*
X184130000Y-57130000D03*
D40*
X184130000Y-57780000D03*
X184130000Y-58780000D03*
X184130000Y-60280000D03*
X184130000Y-61280000D03*
D41*
X184700000Y-63850000D03*
X184700000Y-55210000D03*
D42*
X188880000Y-63850000D03*
X188880000Y-55210000D03*
%TD*%
D43*
%TO.C,J5*%
X104660000Y-94890000D03*
X107200000Y-97430000D03*
X107200000Y-92350000D03*
X102120000Y-92350000D03*
X102120000Y-97430000D03*
%TD*%
D35*
%TO.C,U5*%
X57632500Y-77690000D03*
X57632500Y-78640000D03*
X57632500Y-79590000D03*
X59907500Y-79590000D03*
X59907500Y-77690000D03*
%TD*%
D14*
%TO.C,R9*%
X74985000Y-60180000D03*
X73335000Y-60180000D03*
%TD*%
D32*
%TO.C,C28*%
X173985000Y-75590000D03*
X172435000Y-75590000D03*
%TD*%
D44*
%TO.C,C3*%
X52150000Y-36430000D03*
X51236000Y-36430000D03*
%TD*%
D14*
%TO.C,R19*%
X93660000Y-78340000D03*
X92010000Y-78340000D03*
%TD*%
D43*
%TO.C,J8*%
X187000000Y-94790000D03*
X189540000Y-97330000D03*
X189540000Y-92250000D03*
X184460000Y-92250000D03*
X184460000Y-97330000D03*
%TD*%
D10*
%TO.C,C16*%
X55022500Y-85540000D03*
X56922500Y-85540000D03*
%TD*%
D45*
%TO.C,Y1*%
X73110000Y-96320000D03*
X74510000Y-96320000D03*
X74510000Y-95220000D03*
X73110000Y-95220000D03*
%TD*%
D44*
%TO.C,C6*%
X52117000Y-39980000D03*
X51203000Y-39980000D03*
%TD*%
D22*
%TO.C,R15*%
X59395000Y-72680000D03*
X61045000Y-72680000D03*
%TD*%
D19*
%TO.C,C31*%
X153177500Y-96715000D03*
X154137500Y-96715000D03*
%TD*%
D34*
%TO.C,C36*%
X172420000Y-77260000D03*
X173970000Y-77260000D03*
%TD*%
D37*
%TO.C,J4*%
X103130000Y-62670000D03*
X103130000Y-56890000D03*
D38*
X102060000Y-62980000D03*
D39*
X102060000Y-62180000D03*
D40*
X102060000Y-61030000D03*
X102060000Y-60030000D03*
X102060000Y-59530000D03*
X102060000Y-58530000D03*
D38*
X102060000Y-56580000D03*
D39*
X102060000Y-57380000D03*
D40*
X102060000Y-58030000D03*
X102060000Y-59030000D03*
X102060000Y-60530000D03*
X102060000Y-61530000D03*
D41*
X102630000Y-64100000D03*
X102630000Y-55460000D03*
D42*
X106810000Y-64100000D03*
X106810000Y-55460000D03*
%TD*%
D32*
%TO.C,C41*%
X140145000Y-60130000D03*
X138595000Y-60130000D03*
%TD*%
D19*
%TO.C,C20*%
X67355000Y-96035000D03*
X68315000Y-96035000D03*
%TD*%
D46*
%TO.C,D7*%
X166260000Y-54012500D03*
X166260000Y-55887500D03*
%TD*%
D10*
%TO.C,C17*%
X63185000Y-38535000D03*
X65085000Y-38535000D03*
%TD*%
%TO.C,C14*%
X55042500Y-88150000D03*
X56942500Y-88150000D03*
%TD*%
D22*
%TO.C,R23*%
X148050000Y-34180000D03*
X149700000Y-34180000D03*
%TD*%
D47*
%TO.C,Y3*%
X146800000Y-71870000D03*
X146800000Y-67870000D03*
X144400000Y-67870000D03*
X144400000Y-71870000D03*
%TD*%
D10*
%TO.C,C25*%
X172330000Y-71520000D03*
X174230000Y-71520000D03*
%TD*%
D27*
%TO.C,Find_Host2*%
X185340000Y-72980000D03*
X189490000Y-72980000D03*
X185340000Y-75130000D03*
X189490000Y-75130000D03*
%TD*%
%TO.C,S2*%
X185340000Y-82480000D03*
X189490000Y-82480000D03*
X185340000Y-84630000D03*
X189490000Y-84630000D03*
%TD*%
D32*
%TO.C,C40*%
X140145000Y-61730000D03*
X138595000Y-61730000D03*
%TD*%
%TO.C,C2*%
X52075000Y-74500000D03*
X50525000Y-74500000D03*
%TD*%
D23*
%TO.C,U13*%
X163105000Y-92750000D03*
X163105000Y-93400000D03*
X163105000Y-94050000D03*
X163105000Y-94700000D03*
X163105000Y-95350000D03*
X163105000Y-96000000D03*
X163105000Y-96650000D03*
D24*
X164142500Y-97687500D03*
X164792500Y-97687500D03*
X165442500Y-97687500D03*
X166092500Y-97687500D03*
X166742500Y-97687500D03*
X167392500Y-97687500D03*
X168042500Y-97687500D03*
D23*
X169080000Y-96650000D03*
X169080000Y-96000000D03*
X169080000Y-95350000D03*
X169080000Y-94700000D03*
X169080000Y-94050000D03*
X169080000Y-93400000D03*
X169080000Y-92750000D03*
D24*
X168042500Y-91712500D03*
X167392500Y-91712500D03*
X166742500Y-91712500D03*
X166092500Y-91712500D03*
X165442500Y-91712500D03*
X164792500Y-91712500D03*
X164142500Y-91712500D03*
D25*
X166092500Y-94700000D03*
%TD*%
D35*
%TO.C,U10*%
X135515000Y-31550000D03*
X135515000Y-32500000D03*
X135515000Y-33450000D03*
X137790000Y-33450000D03*
X137790000Y-31550000D03*
%TD*%
D48*
%TO.C,U2*%
X48010000Y-68450000D03*
X49280000Y-68450000D03*
X50550000Y-68450000D03*
X51820000Y-68450000D03*
X53090000Y-68450000D03*
X54360000Y-68450000D03*
X55630000Y-68450000D03*
X56900000Y-68450000D03*
X58170000Y-68450000D03*
X59440000Y-68450000D03*
X60710000Y-68450000D03*
X61980000Y-68450000D03*
X63250000Y-68450000D03*
X64520000Y-68450000D03*
D49*
X65770000Y-65415000D03*
X65770000Y-64145000D03*
X65770000Y-62875000D03*
X65770000Y-61605000D03*
X65770000Y-60335000D03*
X65770000Y-59065000D03*
X65770000Y-57795000D03*
X65770000Y-56525000D03*
X65770000Y-55255000D03*
X65770000Y-53985000D03*
D48*
X64520000Y-50950000D03*
X63250000Y-50950000D03*
X61980000Y-50950000D03*
X60710000Y-50950000D03*
X59440000Y-50950000D03*
X58170000Y-50950000D03*
X56900000Y-50950000D03*
X55630000Y-50950000D03*
X54360000Y-50950000D03*
X53090000Y-50950000D03*
X51820000Y-50950000D03*
X50550000Y-50950000D03*
X49280000Y-50950000D03*
X48010000Y-50950000D03*
D50*
X54330000Y-62600000D03*
D51*
X55030000Y-62600000D03*
D50*
X55730000Y-62600000D03*
D51*
X56430000Y-62600000D03*
D50*
X57130000Y-62600000D03*
D51*
X54330000Y-61900000D03*
X55730000Y-61900000D03*
X57130000Y-61900000D03*
D50*
X54330000Y-61200000D03*
D51*
X55030000Y-61200000D03*
D50*
X55730000Y-61200000D03*
D51*
X56430000Y-61200000D03*
D50*
X57130000Y-61200000D03*
D51*
X54330000Y-60500000D03*
X55730000Y-60500000D03*
X57130000Y-60500000D03*
D50*
X54330000Y-59800000D03*
D51*
X55030000Y-59800000D03*
D50*
X55730000Y-59800000D03*
D51*
X56430000Y-59800000D03*
D50*
X57130000Y-59800000D03*
%TD*%
D18*
%TO.C,C5*%
X51226000Y-38790000D03*
X52140000Y-38790000D03*
%TD*%
D17*
%TO.C,L1*%
X81515000Y-87830000D03*
X82485000Y-87830000D03*
%TD*%
D52*
%TO.C,D3*%
X68487500Y-77710000D03*
X66612500Y-77710000D03*
%TD*%
D26*
%TO.C,R5*%
X51850000Y-79710000D03*
X50830000Y-79710000D03*
%TD*%
D34*
%TO.C,C12*%
X63410000Y-32955000D03*
X64960000Y-32955000D03*
%TD*%
D10*
%TO.C,C10*%
X50320000Y-77970000D03*
X52220000Y-77970000D03*
%TD*%
D53*
%TO.C,J9*%
X134629250Y-97070750D03*
D54*
X137169250Y-97070750D03*
X139709250Y-97070750D03*
%TD*%
D15*
%TO.C,U8*%
X179190000Y-59725000D03*
D16*
X179265000Y-59187500D03*
D15*
X179190000Y-58650000D03*
X177490000Y-58650000D03*
D16*
X177415000Y-59187500D03*
D15*
X177490000Y-59725000D03*
%TD*%
D22*
%TO.C,R11*%
X58670000Y-92955000D03*
X60320000Y-92955000D03*
%TD*%
D10*
%TO.C,C27*%
X172300000Y-67030000D03*
X174200000Y-67030000D03*
%TD*%
D14*
%TO.C,R21*%
X178825000Y-63060000D03*
X177175000Y-63060000D03*
%TD*%
D26*
%TO.C,R24*%
X167170000Y-74120000D03*
X166150000Y-74120000D03*
%TD*%
D14*
%TO.C,R18*%
X93660000Y-75830000D03*
X92010000Y-75830000D03*
%TD*%
D19*
%TO.C,C39*%
X136790000Y-70750000D03*
X137750000Y-70750000D03*
%TD*%
D32*
%TO.C,C33*%
X173890000Y-80720000D03*
X172340000Y-80720000D03*
%TD*%
D14*
%TO.C,R1*%
X58510000Y-36030000D03*
X56860000Y-36030000D03*
%TD*%
D19*
%TO.C,C35*%
X175170000Y-93160000D03*
X176130000Y-93160000D03*
%TD*%
D14*
%TO.C,R10*%
X74980000Y-58500000D03*
X73330000Y-58500000D03*
%TD*%
D32*
%TO.C,C22*%
X68040000Y-94715000D03*
X66490000Y-94715000D03*
%TD*%
D55*
%TO.C,D5*%
X141750000Y-34472500D03*
X141750000Y-37612500D03*
%TD*%
D34*
%TO.C,C1*%
X50545000Y-72920000D03*
X52095000Y-72920000D03*
%TD*%
D22*
%TO.C,R26*%
X165792500Y-68995000D03*
X167442500Y-68995000D03*
%TD*%
%TO.C,R29*%
X165860000Y-72510000D03*
X167510000Y-72510000D03*
%TD*%
D56*
%TO.C,Y2*%
X158610000Y-96850000D03*
X158610000Y-95450000D03*
X157510000Y-95450000D03*
X157510000Y-96850000D03*
%TD*%
D57*
%TO.C,J2*%
X60400000Y-97370000D03*
D58*
X57860000Y-97370000D03*
X55320000Y-97370000D03*
X52780000Y-97370000D03*
%TD*%
D59*
%TO.C,U9*%
X152140000Y-59390000D03*
X152140000Y-59890000D03*
X152140000Y-60390000D03*
X152140000Y-60890000D03*
X152140000Y-61390000D03*
X152140000Y-61890000D03*
X152140000Y-62390000D03*
X152140000Y-62890000D03*
X152140000Y-63390000D03*
X152140000Y-63890000D03*
X152140000Y-64390000D03*
X152140000Y-64890000D03*
D60*
X153570000Y-66320000D03*
X154070000Y-66320000D03*
X154570000Y-66320000D03*
X155070000Y-66320000D03*
X155570000Y-66320000D03*
X156070000Y-66320000D03*
X156570000Y-66320000D03*
X157070000Y-66320000D03*
X157570000Y-66320000D03*
X158070000Y-66320000D03*
X158570000Y-66320000D03*
X159070000Y-66320000D03*
D59*
X160500000Y-64890000D03*
X160500000Y-64390000D03*
X160500000Y-63890000D03*
X160500000Y-63390000D03*
X160500000Y-62890000D03*
X160500000Y-62390000D03*
X160500000Y-61890000D03*
X160500000Y-61390000D03*
X160500000Y-60890000D03*
X160500000Y-60390000D03*
X160500000Y-59890000D03*
X160500000Y-59390000D03*
D60*
X159070000Y-57960000D03*
X158570000Y-57960000D03*
X158070000Y-57960000D03*
X157570000Y-57960000D03*
X157070000Y-57960000D03*
X156570000Y-57960000D03*
X156070000Y-57960000D03*
X155570000Y-57960000D03*
X155070000Y-57960000D03*
X154570000Y-57960000D03*
X154070000Y-57960000D03*
X153570000Y-57960000D03*
%TD*%
D22*
%TO.C,R25*%
X165807500Y-67265000D03*
X167457500Y-67265000D03*
%TD*%
D10*
%TO.C,C29*%
X172310000Y-69240000D03*
X174210000Y-69240000D03*
%TD*%
D22*
%TO.C,R12*%
X59175000Y-88110000D03*
X60825000Y-88110000D03*
%TD*%
D61*
%TO.C,J3*%
X45380000Y-96450000D03*
D29*
X43380000Y-96450000D03*
%TD*%
D62*
%TO.C,BZ1*%
X126530000Y-83030000D03*
D63*
X134130000Y-83030000D03*
%TD*%
D53*
%TO.C,J10*%
X125456750Y-97140750D03*
D54*
X127996750Y-97140750D03*
X130536750Y-97140750D03*
%TD*%
D22*
%TO.C,R6*%
X50515000Y-81180000D03*
X52165000Y-81180000D03*
%TD*%
D10*
%TO.C,C23*%
X66245000Y-92855000D03*
X68145000Y-92855000D03*
%TD*%
D64*
%TO.C,J1*%
X47130000Y-32090000D03*
D65*
X47130000Y-33360000D03*
X45860000Y-32090000D03*
X45860000Y-33360000D03*
X44590000Y-32090000D03*
X44590000Y-33360000D03*
X43320000Y-32090000D03*
X43320000Y-33360000D03*
X42050000Y-32090000D03*
X42050000Y-33360000D03*
%TD*%
D10*
%TO.C,C9*%
X63170000Y-36360000D03*
X65070000Y-36360000D03*
%TD*%
D14*
%TO.C,R2*%
X58510000Y-34470000D03*
X56860000Y-34470000D03*
%TD*%
D66*
%TO.C,Y4*%
X146670000Y-59470000D03*
X146670000Y-61970000D03*
%TD*%
D10*
%TO.C,C26*%
X172320000Y-73660000D03*
X174220000Y-73660000D03*
%TD*%
D19*
%TO.C,C21*%
X78950000Y-87870000D03*
X79910000Y-87870000D03*
%TD*%
D34*
%TO.C,C13*%
X63415000Y-34540000D03*
X64965000Y-34540000D03*
%TD*%
D19*
%TO.C,C32*%
X175190000Y-91760000D03*
X176150000Y-91760000D03*
%TD*%
%TO.C,C30*%
X153160000Y-95500000D03*
X154120000Y-95500000D03*
%TD*%
D31*
%TO.C,U12*%
X172480000Y-35830000D03*
X172480000Y-38370000D03*
X172480000Y-40910000D03*
X172480000Y-43450000D03*
X172480000Y-45990000D03*
X172480000Y-48530000D03*
X187980000Y-48530000D03*
X187980000Y-45990000D03*
X187980000Y-43450000D03*
X187980000Y-40910000D03*
X187980000Y-38370000D03*
X187980000Y-35830000D03*
%TD*%
D67*
%TO.C,D1*%
X42240000Y-85960000D03*
X45380000Y-85960000D03*
%TD*%
D27*
%TO.C,Find_Host1*%
X103286500Y-75015000D03*
X107436500Y-75015000D03*
X103286500Y-77165000D03*
X107436500Y-77165000D03*
%TD*%
D22*
%TO.C,R28*%
X165860000Y-70770000D03*
X167510000Y-70770000D03*
%TD*%
D11*
%TO.C,U14*%
X174567500Y-59422500D03*
X174567500Y-58922500D03*
X174567500Y-58422500D03*
X174567500Y-57922500D03*
X174567500Y-57422500D03*
X174567500Y-56922500D03*
D12*
X173880000Y-56235000D03*
X173380000Y-56235000D03*
X172880000Y-56235000D03*
X172380000Y-56235000D03*
X171880000Y-56235000D03*
X171380000Y-56235000D03*
D11*
X170692500Y-56922500D03*
X170692500Y-57422500D03*
X170692500Y-57922500D03*
X170692500Y-58422500D03*
X170692500Y-58922500D03*
X170692500Y-59422500D03*
D12*
X171380000Y-60110000D03*
X171880000Y-60110000D03*
X172380000Y-60110000D03*
X172880000Y-60110000D03*
X173380000Y-60110000D03*
X173880000Y-60110000D03*
D13*
X172630000Y-58172500D03*
%TD*%
M02*
