M48
; DRILL file {KiCad 9.0.0} date 2025-09-24T11:45:36+0900
; FORMAT={-:-/ absolute / metric / decimal}
; #@! TF.CreationDate,2025-09-24T11:45:36+09:00
; #@! TF.GenerationSoftware,Kicad,Pcbnew,9.0.0
; #@! TF.FileFunction,Plated,1,2,PTH
FMAT,2
METRIC
; #@! TA.AperFunction,Plated,PTH,ViaDrill
T1C0.300
; #@! TA.AperFunction,Plated,PTH,ComponentDrill
T2C0.300
; #@! TA.AperFunction,Plated,PTH,ComponentDrill
T3C0.600
; #@! TA.AperFunction,Plated,PTH,ComponentDrill
T4C0.750
; #@! TA.AperFunction,Plated,PTH,ComponentDrill
T5C0.800
; #@! TA.AperFunction,Plated,PTH,ComponentDrill
T6C1.000
; #@! TA.AperFunction,Plated,PTH,ComponentDrill
T7C1.020
; #@! TA.AperFunction,Plated,PTH,ComponentDrill
T8C1.250
; #@! TA.AperFunction,Plated,PTH,ComponentDrill
T9C1.600
%
G90
G05
T1
X45.38Y-86.89
X46.834Y-87.496
X46.878Y-86.697
X48.01Y-48.47
X48.01Y-70.56
X48.33Y-46.689
X48.98Y-35.98
X49.193Y-73.423
X49.31Y-70.56
X49.37Y-49.31
X49.39Y-75.5
X49.532Y-48.469
X49.89Y-31.19
X49.89Y-31.99
X50.32Y-84.17
X50.36Y-40.87
X50.55Y-50.95
X50.65Y-67.16
X51.083Y-49.463
X51.82Y-89.174
X51.82Y-90.374
X52.1Y-71.81
X52.16Y-82.29
X52.71Y-79.7
X52.78Y-95.38
X53.399Y-33.87
X53.76Y-38.82
X53.89Y-36.43
X53.89Y-37.64
X54.516Y-34.542
X55.01Y-84.13
X55.12Y-33.09
X55.29Y-95.63
X56.3Y-78.65
X56.88Y-70.23
X56.92Y-83.7
X56.942Y-88.15
X57.5Y-91.39
X58.15Y-85.56
X58.16Y-70.18
X58.51Y-34.47
X58.59Y-65.12
X58.759Y-48.569
X58.84Y-56.72
X58.85Y-71.22
X59.12Y-87.0
X59.19Y-62.57
X59.44Y-47.89
X59.87Y-76.19
X60.084Y-66.934
X60.71Y-69.94
X61.097Y-91.473
X61.19Y-76.0
X61.731Y-60.06
X61.92Y-48.02
X61.934Y-61.536
X62.11Y-85.56
X62.32Y-64.815
X62.506Y-62.096
X63.21Y-40.18
X63.23Y-48.92
X63.32Y-64.7
X63.76Y-56.74
X64.03Y-63.32
X64.03Y-90.75
X64.405Y-62.613
X64.52Y-68.45
X64.71Y-93.26
X64.73Y-81.36
X64.803Y-45.307
X64.899Y-53.05
X65.351Y-74.899
X65.69Y-82.56
X65.759Y-81.36
X65.83Y-45.486
X66.539Y-82.56
X66.69Y-81.36
X67.2Y-56.74
X67.387Y-82.56
X67.57Y-81.36
X67.586Y-54.864
X68.12Y-91.49
X68.37Y-82.56
X68.53Y-81.26
X68.616Y-55.894
X68.63Y-66.3
X69.05Y-58.73
X69.13Y-73.412
X69.43Y-82.56
X69.97Y-61.12
X70.981Y-53.621
X71.0Y-62.62
X71.53Y-57.02
X71.566Y-58.844
X71.6Y-67.534
X71.744Y-55.274
X72.2Y-59.479
X72.576Y-50.326
X72.85Y-62.44
X72.85Y-67.534
X72.91Y-72.52
X73.27Y-70.95
X73.53Y-51.07
X73.81Y-67.534
X74.479Y-94.321
X74.48Y-97.51
X74.61Y-67.534
X74.8Y-65.7
X75.134Y-52.674
X75.646Y-48.956
X76.04Y-96.73
X76.16Y-94.12
X76.52Y-60.11
X76.522Y-96.091
X77.05Y-47.13
X77.62Y-62.54
X77.69Y-97.84
X77.86Y-87.89
X77.884Y-49.134
X77.94Y-89.7
X78.82Y-62.58
X79.54Y-90.2
X79.57Y-61.72
X79.666Y-44.936
X80.26Y-59.33
X80.551Y-71.691
X80.682Y-87.819
X81.0Y-90.95
X81.639Y-59.861
X81.714Y-52.674
X81.841Y-86.779
X82.28Y-98.75
X82.701Y-45.779
X82.794Y-86.036
X82.87Y-63.3
X82.974Y-48.316
X83.484Y-50.056
X83.85Y-63.26
X83.89Y-88.95
X84.485Y-95.301
X84.5Y-93.701
X84.502Y-94.501
X84.53Y-96.1
X85.71Y-48.534
X85.911Y-71.581
X86.656Y-49.734
X87.22Y-38.23
X87.649Y-55.921
X87.68Y-56.72
X87.91Y-59.85
X88.16Y-40.79
X88.31Y-35.69
X88.38Y-45.83
X89.0Y-81.36
X89.36Y-59.35
X90.21Y-75.78
X90.734Y-59.991
X90.768Y-58.791
X91.79Y-58.791
X91.81Y-57.98
X94.62Y-65.05
X95.08Y-68.18
X95.85Y-58.81
X98.34Y-57.38
X98.99Y-58.13
X99.0Y-61.081
X100.18Y-94.96
X100.66Y-63.0
X100.82Y-55.67
X100.99Y-79.77
X101.32Y-70.25
X101.51Y-74.99
X101.65Y-77.38
X101.83Y-81.96
X101.97Y-72.45
X104.15Y-40.9
X108.78Y-35.68
X124.55Y-73.86
X133.78Y-37.49
X133.87Y-31.79
X133.99Y-33.52
X136.79Y-41.2
X137.69Y-36.78
X137.867Y-94.961
X137.97Y-82.97
X138.52Y-62.91
X139.34Y-31.56
X139.717Y-94.671
X140.5Y-72.129
X142.82Y-71.87
X143.47Y-34.4
X146.171Y-54.269
X146.85Y-55.56
X146.929Y-56.76
X146.99Y-34.66
X146.99Y-66.15
X147.049Y-53.451
X147.615Y-54.016
X147.729Y-56.76
X149.64Y-31.19
X149.7Y-35.47
X149.85Y-64.89
X149.934Y-63.23
X149.952Y-64.097
X150.414Y-56.816
X150.64Y-63.607
X152.9Y-57.37
X153.14Y-94.6
X153.37Y-59.39
X153.717Y-61.286
X153.996Y-63.995
X154.054Y-71.964
X154.854Y-71.945
X155.54Y-63.385
X155.62Y-56.16
X155.67Y-70.57
X156.278Y-67.968
X156.372Y-61.1
X156.428Y-62.005
X156.469Y-69.549
X156.932Y-63.358
X156.944Y-59.253
X157.07Y-68.08
X157.35Y-52.45
X157.544Y-60.576
X157.57Y-56.22
X158.19Y-52.97
X158.24Y-86.47
X158.36Y-56.348
X158.384Y-61.416
X158.44Y-51.22
X158.85Y-53.7
X159.209Y-51.991
X159.401Y-55.499
X159.523Y-56.699
X159.8Y-66.31
X159.801Y-95.4
X159.869Y-52.651
X159.92Y-46.98
X160.15Y-88.89
X160.71Y-87.15
X160.746Y-55.224
X160.76Y-43.68
X160.77Y-58.68
X160.841Y-71.849
X161.07Y-56.699
X161.58Y-87.639
X161.787Y-68.213
X161.86Y-84.5
X161.93Y-96.68
X162.08Y-94.05
X162.16Y-66.04
X162.201Y-88.239
X162.369Y-47.291
X162.49Y-59.93
X163.034Y-47.956
X163.04Y-66.92
X163.13Y-97.73
X163.42Y-63.72
X163.56Y-86.438
X163.56Y-88.75
X163.74Y-54.07
X163.83Y-70.79
X164.03Y-47.356
X164.28Y-64.84
X164.43Y-72.49
X164.49Y-58.24
X164.63Y-67.08
X164.76Y-85.73
X165.36Y-89.48
X165.79Y-64.84
X166.66Y-68.213
X166.76Y-90.84
X167.07Y-59.78
X167.56Y-64.84
X168.88Y-97.61
X169.18Y-38.3
X169.32Y-41.16
X169.36Y-35.78
X169.42Y-43.47
X170.05Y-64.84
X170.05Y-96.62
X170.65Y-60.44
X170.81Y-95.4
X170.86Y-75.77
X170.89Y-94.09
X171.02Y-84.69
X171.17Y-73.63
X171.19Y-69.21
X171.51Y-94.77
X171.528Y-92.142
X171.55Y-91.13
X171.73Y-61.28
X171.928Y-62.49
X172.08Y-89.68
X172.105Y-90.554
X172.28Y-96.35
X172.32Y-65.44
X173.51Y-64.02
X175.06Y-77.26
X175.43Y-82.62
X175.89Y-57.27
X175.98Y-60.32
X176.03Y-72.62
X177.125Y-61.465
X177.14Y-94.41
X180.48Y-59.25
X182.408Y-60.831
X182.47Y-57.73
X182.62Y-56.28
X182.9Y-63.21
X183.89Y-75.13
X183.89Y-79.96
X184.09Y-81.32
X185.27Y-71.85
X185.35Y-86.01
X185.46Y-76.63
X185.76Y-40.85
T2
X54.33Y-60.5
X54.33Y-61.9
X55.03Y-59.8
X55.03Y-61.2
X55.03Y-62.6
X55.73Y-60.5
X55.73Y-61.9
X56.43Y-59.8
X56.43Y-61.2
X56.43Y-62.6
X57.13Y-60.5
X57.13Y-61.9
T4
X42.05Y-32.09
X42.05Y-33.36
X43.32Y-32.09
X43.32Y-33.36
X44.59Y-32.09
X44.59Y-33.36
X45.86Y-32.09
X45.86Y-33.36
X47.13Y-32.09
X47.13Y-33.36
T5
X43.38Y-96.45
X45.38Y-96.45
X125.09Y-32.49
X127.09Y-32.49
T6
X126.53Y-83.03
X134.13Y-83.03
T7
X52.78Y-97.37
X55.32Y-97.37
X57.86Y-97.37
X60.4Y-97.37
T8
X125.457Y-97.141
X127.997Y-97.141
X130.537Y-97.141
X134.629Y-97.071
X137.169Y-97.071
X139.709Y-97.071
T9
X102.12Y-92.35
X102.12Y-97.43
X104.66Y-94.89
X107.2Y-92.35
X107.2Y-97.43
X184.46Y-92.25
X184.46Y-97.33
X187.0Y-94.79
X189.54Y-92.25
X189.54Y-97.33
T3
G00X102.08Y-55.46
M15
G01X103.18Y-55.46
M16
G05
G00X102.08Y-64.1
M15
G01X103.18Y-64.1
M16
G05
G00X106.41Y-55.46
M15
G01X107.21Y-55.46
M16
G05
G00X106.41Y-64.1
M15
G01X107.21Y-64.1
M16
G05
G00X184.15Y-55.21
M15
G01X185.25Y-55.21
M16
G05
G00X184.15Y-63.85
M15
G01X185.25Y-63.85
M16
G05
G00X188.48Y-55.21
M15
G01X189.28Y-55.21
M16
G05
G00X188.48Y-63.85
M15
G01X189.28Y-63.85
M16
G05
M30
