%TF.GenerationSoftware,KiCad,Pcbnew,9.0.0*%
%TF.CreationDate,2025-06-19T18:13:14+09:00*%
%TF.ProjectId,FLP_PCB_terminal,464c505f-5043-4425-9f74-65726d696e61,rev?*%
%TF.SameCoordinates,Original*%
%TF.FileFunction,Profile,NP*%
%FSLAX46Y46*%
G04 Gerber Fmt 4.6, Leading zero omitted, Abs format (unit mm)*
G04 Created by KiCad (PCBNEW 9.0.0) date 2025-06-19 18:13:14*
%MOMM*%
%LPD*%
G01*
G04 APERTURE LIST*
%TA.AperFunction,Profile*%
%ADD10C,0.050000*%
%TD*%
G04 APERTURE END LIST*
D10*
X122500000Y-111500000D02*
X123500000Y-111500000D01*
X122500000Y-120500000D02*
X123500000Y-120500000D01*
X121000000Y-113000000D02*
X121000000Y-119000000D01*
X122500000Y-120500000D02*
G75*
G02*
X121000000Y-119000000I0J1500000D01*
G01*
X121000000Y-113000000D02*
G75*
G02*
X122500000Y-111500000I1500000J0D01*
G01*
X124000000Y-159000000D02*
G75*
G02*
X122500000Y-157500000I0J1500000D01*
G01*
X125000000Y-148500000D02*
X125000000Y-122000000D01*
X125000000Y-148500000D02*
G75*
G02*
X124000000Y-149500000I-1000000J0D01*
G01*
X122500000Y-151000000D02*
G75*
G02*
X124000000Y-149500000I1500000J0D01*
G01*
X124000000Y-159000000D02*
G75*
G02*
X125000000Y-160000000I0J-1000000D01*
G01*
X125000000Y-110000000D02*
X125000000Y-90000000D01*
X125000000Y-110000000D02*
G75*
G02*
X123500000Y-111500000I-1500000J0D01*
G01*
X123500000Y-120500000D02*
G75*
G02*
X125000000Y-122000000I0J-1500000D01*
G01*
X50000000Y-165000000D02*
G75*
G02*
X45000000Y-160000000I0J5000000D01*
G01*
X120000000Y-85000000D02*
G75*
G02*
X125000000Y-90000000I0J-5000000D01*
G01*
X45000000Y-90000000D02*
G75*
G02*
X50000000Y-85000000I5000000J0D01*
G01*
X125000000Y-160000000D02*
G75*
G02*
X120000000Y-165000000I-5000000J0D01*
G01*
X50000000Y-165000000D02*
X120000000Y-165000000D01*
X45000000Y-90000000D02*
X45000000Y-160000000D01*
X50000000Y-85000000D02*
X120000000Y-85000000D01*
X122500000Y-151000000D02*
X122500000Y-157500000D01*
M02*
