%TF.GenerationSoftware,KiCad,Pcbnew,9.0.0*%
%TF.CreationDate,2025-06-19T18:13:14+09:00*%
%TF.ProjectId,FLP_PCB_terminal,464c505f-5043-4425-9f74-65726d696e61,rev?*%
%TF.SameCoordinates,Original*%
%TF.FileFunction,Legend,Top*%
%TF.FilePolarity,Positive*%
%FSLAX46Y46*%
G04 Gerber Fmt 4.6, Leading zero omitted, Abs format (unit mm)*
G04 Created by KiCad (PCBNEW 9.0.0) date 2025-06-19 18:13:14*
%MOMM*%
%LPD*%
G01*
G04 APERTURE LIST*
%ADD10C,0.150000*%
%ADD11C,0.120000*%
%ADD12C,0.127000*%
%ADD13C,0.200000*%
%ADD14C,0.152400*%
%ADD15C,0.100000*%
G04 APERTURE END LIST*
D10*
X75223333Y-141799580D02*
X75175714Y-141847200D01*
X75175714Y-141847200D02*
X75032857Y-141894819D01*
X75032857Y-141894819D02*
X74937619Y-141894819D01*
X74937619Y-141894819D02*
X74794762Y-141847200D01*
X74794762Y-141847200D02*
X74699524Y-141751961D01*
X74699524Y-141751961D02*
X74651905Y-141656723D01*
X74651905Y-141656723D02*
X74604286Y-141466247D01*
X74604286Y-141466247D02*
X74604286Y-141323390D01*
X74604286Y-141323390D02*
X74651905Y-141132914D01*
X74651905Y-141132914D02*
X74699524Y-141037676D01*
X74699524Y-141037676D02*
X74794762Y-140942438D01*
X74794762Y-140942438D02*
X74937619Y-140894819D01*
X74937619Y-140894819D02*
X75032857Y-140894819D01*
X75032857Y-140894819D02*
X75175714Y-140942438D01*
X75175714Y-140942438D02*
X75223333Y-140990057D01*
X76080476Y-140894819D02*
X75890000Y-140894819D01*
X75890000Y-140894819D02*
X75794762Y-140942438D01*
X75794762Y-140942438D02*
X75747143Y-140990057D01*
X75747143Y-140990057D02*
X75651905Y-141132914D01*
X75651905Y-141132914D02*
X75604286Y-141323390D01*
X75604286Y-141323390D02*
X75604286Y-141704342D01*
X75604286Y-141704342D02*
X75651905Y-141799580D01*
X75651905Y-141799580D02*
X75699524Y-141847200D01*
X75699524Y-141847200D02*
X75794762Y-141894819D01*
X75794762Y-141894819D02*
X75985238Y-141894819D01*
X75985238Y-141894819D02*
X76080476Y-141847200D01*
X76080476Y-141847200D02*
X76128095Y-141799580D01*
X76128095Y-141799580D02*
X76175714Y-141704342D01*
X76175714Y-141704342D02*
X76175714Y-141466247D01*
X76175714Y-141466247D02*
X76128095Y-141371009D01*
X76128095Y-141371009D02*
X76080476Y-141323390D01*
X76080476Y-141323390D02*
X75985238Y-141275771D01*
X75985238Y-141275771D02*
X75794762Y-141275771D01*
X75794762Y-141275771D02*
X75699524Y-141323390D01*
X75699524Y-141323390D02*
X75651905Y-141371009D01*
X75651905Y-141371009D02*
X75604286Y-141466247D01*
X92927142Y-122719580D02*
X92879523Y-122767200D01*
X92879523Y-122767200D02*
X92736666Y-122814819D01*
X92736666Y-122814819D02*
X92641428Y-122814819D01*
X92641428Y-122814819D02*
X92498571Y-122767200D01*
X92498571Y-122767200D02*
X92403333Y-122671961D01*
X92403333Y-122671961D02*
X92355714Y-122576723D01*
X92355714Y-122576723D02*
X92308095Y-122386247D01*
X92308095Y-122386247D02*
X92308095Y-122243390D01*
X92308095Y-122243390D02*
X92355714Y-122052914D01*
X92355714Y-122052914D02*
X92403333Y-121957676D01*
X92403333Y-121957676D02*
X92498571Y-121862438D01*
X92498571Y-121862438D02*
X92641428Y-121814819D01*
X92641428Y-121814819D02*
X92736666Y-121814819D01*
X92736666Y-121814819D02*
X92879523Y-121862438D01*
X92879523Y-121862438D02*
X92927142Y-121910057D01*
X93879523Y-122814819D02*
X93308095Y-122814819D01*
X93593809Y-122814819D02*
X93593809Y-121814819D01*
X93593809Y-121814819D02*
X93498571Y-121957676D01*
X93498571Y-121957676D02*
X93403333Y-122052914D01*
X93403333Y-122052914D02*
X93308095Y-122100533D01*
X94355714Y-122814819D02*
X94546190Y-122814819D01*
X94546190Y-122814819D02*
X94641428Y-122767200D01*
X94641428Y-122767200D02*
X94689047Y-122719580D01*
X94689047Y-122719580D02*
X94784285Y-122576723D01*
X94784285Y-122576723D02*
X94831904Y-122386247D01*
X94831904Y-122386247D02*
X94831904Y-122005295D01*
X94831904Y-122005295D02*
X94784285Y-121910057D01*
X94784285Y-121910057D02*
X94736666Y-121862438D01*
X94736666Y-121862438D02*
X94641428Y-121814819D01*
X94641428Y-121814819D02*
X94450952Y-121814819D01*
X94450952Y-121814819D02*
X94355714Y-121862438D01*
X94355714Y-121862438D02*
X94308095Y-121910057D01*
X94308095Y-121910057D02*
X94260476Y-122005295D01*
X94260476Y-122005295D02*
X94260476Y-122243390D01*
X94260476Y-122243390D02*
X94308095Y-122338628D01*
X94308095Y-122338628D02*
X94355714Y-122386247D01*
X94355714Y-122386247D02*
X94450952Y-122433866D01*
X94450952Y-122433866D02*
X94641428Y-122433866D01*
X94641428Y-122433866D02*
X94736666Y-122386247D01*
X94736666Y-122386247D02*
X94784285Y-122338628D01*
X94784285Y-122338628D02*
X94831904Y-122243390D01*
X77642142Y-160349580D02*
X77594523Y-160397200D01*
X77594523Y-160397200D02*
X77451666Y-160444819D01*
X77451666Y-160444819D02*
X77356428Y-160444819D01*
X77356428Y-160444819D02*
X77213571Y-160397200D01*
X77213571Y-160397200D02*
X77118333Y-160301961D01*
X77118333Y-160301961D02*
X77070714Y-160206723D01*
X77070714Y-160206723D02*
X77023095Y-160016247D01*
X77023095Y-160016247D02*
X77023095Y-159873390D01*
X77023095Y-159873390D02*
X77070714Y-159682914D01*
X77070714Y-159682914D02*
X77118333Y-159587676D01*
X77118333Y-159587676D02*
X77213571Y-159492438D01*
X77213571Y-159492438D02*
X77356428Y-159444819D01*
X77356428Y-159444819D02*
X77451666Y-159444819D01*
X77451666Y-159444819D02*
X77594523Y-159492438D01*
X77594523Y-159492438D02*
X77642142Y-159540057D01*
X77975476Y-159444819D02*
X78594523Y-159444819D01*
X78594523Y-159444819D02*
X78261190Y-159825771D01*
X78261190Y-159825771D02*
X78404047Y-159825771D01*
X78404047Y-159825771D02*
X78499285Y-159873390D01*
X78499285Y-159873390D02*
X78546904Y-159921009D01*
X78546904Y-159921009D02*
X78594523Y-160016247D01*
X78594523Y-160016247D02*
X78594523Y-160254342D01*
X78594523Y-160254342D02*
X78546904Y-160349580D01*
X78546904Y-160349580D02*
X78499285Y-160397200D01*
X78499285Y-160397200D02*
X78404047Y-160444819D01*
X78404047Y-160444819D02*
X78118333Y-160444819D01*
X78118333Y-160444819D02*
X78023095Y-160397200D01*
X78023095Y-160397200D02*
X77975476Y-160349580D01*
X79546904Y-160444819D02*
X78975476Y-160444819D01*
X79261190Y-160444819D02*
X79261190Y-159444819D01*
X79261190Y-159444819D02*
X79165952Y-159587676D01*
X79165952Y-159587676D02*
X79070714Y-159682914D01*
X79070714Y-159682914D02*
X78975476Y-159730533D01*
X57156931Y-160993998D02*
X57156931Y-161804759D01*
X57156931Y-161804759D02*
X57204622Y-161900143D01*
X57204622Y-161900143D02*
X57252314Y-161947835D01*
X57252314Y-161947835D02*
X57347698Y-161995526D01*
X57347698Y-161995526D02*
X57538465Y-161995526D01*
X57538465Y-161995526D02*
X57633849Y-161947835D01*
X57633849Y-161947835D02*
X57681540Y-161900143D01*
X57681540Y-161900143D02*
X57729232Y-161804759D01*
X57729232Y-161804759D02*
X57729232Y-160993998D01*
X58110767Y-160993998D02*
X58730760Y-160993998D01*
X58730760Y-160993998D02*
X58396918Y-161375533D01*
X58396918Y-161375533D02*
X58539993Y-161375533D01*
X58539993Y-161375533D02*
X58635377Y-161423225D01*
X58635377Y-161423225D02*
X58683069Y-161470916D01*
X58683069Y-161470916D02*
X58730760Y-161566300D01*
X58730760Y-161566300D02*
X58730760Y-161804759D01*
X58730760Y-161804759D02*
X58683069Y-161900143D01*
X58683069Y-161900143D02*
X58635377Y-161947835D01*
X58635377Y-161947835D02*
X58539993Y-161995526D01*
X58539993Y-161995526D02*
X58253842Y-161995526D01*
X58253842Y-161995526D02*
X58158459Y-161947835D01*
X58158459Y-161947835D02*
X58110767Y-161900143D01*
X109633333Y-121684819D02*
X109157143Y-121684819D01*
X109157143Y-121684819D02*
X109157143Y-120684819D01*
X110490476Y-121684819D02*
X109919048Y-121684819D01*
X110204762Y-121684819D02*
X110204762Y-120684819D01*
X110204762Y-120684819D02*
X110109524Y-120827676D01*
X110109524Y-120827676D02*
X110014286Y-120922914D01*
X110014286Y-120922914D02*
X109919048Y-120970533D01*
X62487142Y-134659580D02*
X62439523Y-134707200D01*
X62439523Y-134707200D02*
X62296666Y-134754819D01*
X62296666Y-134754819D02*
X62201428Y-134754819D01*
X62201428Y-134754819D02*
X62058571Y-134707200D01*
X62058571Y-134707200D02*
X61963333Y-134611961D01*
X61963333Y-134611961D02*
X61915714Y-134516723D01*
X61915714Y-134516723D02*
X61868095Y-134326247D01*
X61868095Y-134326247D02*
X61868095Y-134183390D01*
X61868095Y-134183390D02*
X61915714Y-133992914D01*
X61915714Y-133992914D02*
X61963333Y-133897676D01*
X61963333Y-133897676D02*
X62058571Y-133802438D01*
X62058571Y-133802438D02*
X62201428Y-133754819D01*
X62201428Y-133754819D02*
X62296666Y-133754819D01*
X62296666Y-133754819D02*
X62439523Y-133802438D01*
X62439523Y-133802438D02*
X62487142Y-133850057D01*
X62868095Y-133850057D02*
X62915714Y-133802438D01*
X62915714Y-133802438D02*
X63010952Y-133754819D01*
X63010952Y-133754819D02*
X63249047Y-133754819D01*
X63249047Y-133754819D02*
X63344285Y-133802438D01*
X63344285Y-133802438D02*
X63391904Y-133850057D01*
X63391904Y-133850057D02*
X63439523Y-133945295D01*
X63439523Y-133945295D02*
X63439523Y-134040533D01*
X63439523Y-134040533D02*
X63391904Y-134183390D01*
X63391904Y-134183390D02*
X62820476Y-134754819D01*
X62820476Y-134754819D02*
X63439523Y-134754819D01*
X64010952Y-134183390D02*
X63915714Y-134135771D01*
X63915714Y-134135771D02*
X63868095Y-134088152D01*
X63868095Y-134088152D02*
X63820476Y-133992914D01*
X63820476Y-133992914D02*
X63820476Y-133945295D01*
X63820476Y-133945295D02*
X63868095Y-133850057D01*
X63868095Y-133850057D02*
X63915714Y-133802438D01*
X63915714Y-133802438D02*
X64010952Y-133754819D01*
X64010952Y-133754819D02*
X64201428Y-133754819D01*
X64201428Y-133754819D02*
X64296666Y-133802438D01*
X64296666Y-133802438D02*
X64344285Y-133850057D01*
X64344285Y-133850057D02*
X64391904Y-133945295D01*
X64391904Y-133945295D02*
X64391904Y-133992914D01*
X64391904Y-133992914D02*
X64344285Y-134088152D01*
X64344285Y-134088152D02*
X64296666Y-134135771D01*
X64296666Y-134135771D02*
X64201428Y-134183390D01*
X64201428Y-134183390D02*
X64010952Y-134183390D01*
X64010952Y-134183390D02*
X63915714Y-134231009D01*
X63915714Y-134231009D02*
X63868095Y-134278628D01*
X63868095Y-134278628D02*
X63820476Y-134373866D01*
X63820476Y-134373866D02*
X63820476Y-134564342D01*
X63820476Y-134564342D02*
X63868095Y-134659580D01*
X63868095Y-134659580D02*
X63915714Y-134707200D01*
X63915714Y-134707200D02*
X64010952Y-134754819D01*
X64010952Y-134754819D02*
X64201428Y-134754819D01*
X64201428Y-134754819D02*
X64296666Y-134707200D01*
X64296666Y-134707200D02*
X64344285Y-134659580D01*
X64344285Y-134659580D02*
X64391904Y-134564342D01*
X64391904Y-134564342D02*
X64391904Y-134373866D01*
X64391904Y-134373866D02*
X64344285Y-134278628D01*
X64344285Y-134278628D02*
X64296666Y-134231009D01*
X64296666Y-134231009D02*
X64201428Y-134183390D01*
X92567142Y-118179580D02*
X92519523Y-118227200D01*
X92519523Y-118227200D02*
X92376666Y-118274819D01*
X92376666Y-118274819D02*
X92281428Y-118274819D01*
X92281428Y-118274819D02*
X92138571Y-118227200D01*
X92138571Y-118227200D02*
X92043333Y-118131961D01*
X92043333Y-118131961D02*
X91995714Y-118036723D01*
X91995714Y-118036723D02*
X91948095Y-117846247D01*
X91948095Y-117846247D02*
X91948095Y-117703390D01*
X91948095Y-117703390D02*
X91995714Y-117512914D01*
X91995714Y-117512914D02*
X92043333Y-117417676D01*
X92043333Y-117417676D02*
X92138571Y-117322438D01*
X92138571Y-117322438D02*
X92281428Y-117274819D01*
X92281428Y-117274819D02*
X92376666Y-117274819D01*
X92376666Y-117274819D02*
X92519523Y-117322438D01*
X92519523Y-117322438D02*
X92567142Y-117370057D01*
X92948095Y-117370057D02*
X92995714Y-117322438D01*
X92995714Y-117322438D02*
X93090952Y-117274819D01*
X93090952Y-117274819D02*
X93329047Y-117274819D01*
X93329047Y-117274819D02*
X93424285Y-117322438D01*
X93424285Y-117322438D02*
X93471904Y-117370057D01*
X93471904Y-117370057D02*
X93519523Y-117465295D01*
X93519523Y-117465295D02*
X93519523Y-117560533D01*
X93519523Y-117560533D02*
X93471904Y-117703390D01*
X93471904Y-117703390D02*
X92900476Y-118274819D01*
X92900476Y-118274819D02*
X93519523Y-118274819D01*
X94138571Y-117274819D02*
X94233809Y-117274819D01*
X94233809Y-117274819D02*
X94329047Y-117322438D01*
X94329047Y-117322438D02*
X94376666Y-117370057D01*
X94376666Y-117370057D02*
X94424285Y-117465295D01*
X94424285Y-117465295D02*
X94471904Y-117655771D01*
X94471904Y-117655771D02*
X94471904Y-117893866D01*
X94471904Y-117893866D02*
X94424285Y-118084342D01*
X94424285Y-118084342D02*
X94376666Y-118179580D01*
X94376666Y-118179580D02*
X94329047Y-118227200D01*
X94329047Y-118227200D02*
X94233809Y-118274819D01*
X94233809Y-118274819D02*
X94138571Y-118274819D01*
X94138571Y-118274819D02*
X94043333Y-118227200D01*
X94043333Y-118227200D02*
X93995714Y-118179580D01*
X93995714Y-118179580D02*
X93948095Y-118084342D01*
X93948095Y-118084342D02*
X93900476Y-117893866D01*
X93900476Y-117893866D02*
X93900476Y-117655771D01*
X93900476Y-117655771D02*
X93948095Y-117465295D01*
X93948095Y-117465295D02*
X93995714Y-117370057D01*
X93995714Y-117370057D02*
X94043333Y-117322438D01*
X94043333Y-117322438D02*
X94138571Y-117274819D01*
X92927142Y-124719580D02*
X92879523Y-124767200D01*
X92879523Y-124767200D02*
X92736666Y-124814819D01*
X92736666Y-124814819D02*
X92641428Y-124814819D01*
X92641428Y-124814819D02*
X92498571Y-124767200D01*
X92498571Y-124767200D02*
X92403333Y-124671961D01*
X92403333Y-124671961D02*
X92355714Y-124576723D01*
X92355714Y-124576723D02*
X92308095Y-124386247D01*
X92308095Y-124386247D02*
X92308095Y-124243390D01*
X92308095Y-124243390D02*
X92355714Y-124052914D01*
X92355714Y-124052914D02*
X92403333Y-123957676D01*
X92403333Y-123957676D02*
X92498571Y-123862438D01*
X92498571Y-123862438D02*
X92641428Y-123814819D01*
X92641428Y-123814819D02*
X92736666Y-123814819D01*
X92736666Y-123814819D02*
X92879523Y-123862438D01*
X92879523Y-123862438D02*
X92927142Y-123910057D01*
X93879523Y-124814819D02*
X93308095Y-124814819D01*
X93593809Y-124814819D02*
X93593809Y-123814819D01*
X93593809Y-123814819D02*
X93498571Y-123957676D01*
X93498571Y-123957676D02*
X93403333Y-124052914D01*
X93403333Y-124052914D02*
X93308095Y-124100533D01*
X94831904Y-124814819D02*
X94260476Y-124814819D01*
X94546190Y-124814819D02*
X94546190Y-123814819D01*
X94546190Y-123814819D02*
X94450952Y-123957676D01*
X94450952Y-123957676D02*
X94355714Y-124052914D01*
X94355714Y-124052914D02*
X94260476Y-124100533D01*
X96617142Y-155984819D02*
X96283809Y-155508628D01*
X96045714Y-155984819D02*
X96045714Y-154984819D01*
X96045714Y-154984819D02*
X96426666Y-154984819D01*
X96426666Y-154984819D02*
X96521904Y-155032438D01*
X96521904Y-155032438D02*
X96569523Y-155080057D01*
X96569523Y-155080057D02*
X96617142Y-155175295D01*
X96617142Y-155175295D02*
X96617142Y-155318152D01*
X96617142Y-155318152D02*
X96569523Y-155413390D01*
X96569523Y-155413390D02*
X96521904Y-155461009D01*
X96521904Y-155461009D02*
X96426666Y-155508628D01*
X96426666Y-155508628D02*
X96045714Y-155508628D01*
X97569523Y-155984819D02*
X96998095Y-155984819D01*
X97283809Y-155984819D02*
X97283809Y-154984819D01*
X97283809Y-154984819D02*
X97188571Y-155127676D01*
X97188571Y-155127676D02*
X97093333Y-155222914D01*
X97093333Y-155222914D02*
X96998095Y-155270533D01*
X98426666Y-154984819D02*
X98236190Y-154984819D01*
X98236190Y-154984819D02*
X98140952Y-155032438D01*
X98140952Y-155032438D02*
X98093333Y-155080057D01*
X98093333Y-155080057D02*
X97998095Y-155222914D01*
X97998095Y-155222914D02*
X97950476Y-155413390D01*
X97950476Y-155413390D02*
X97950476Y-155794342D01*
X97950476Y-155794342D02*
X97998095Y-155889580D01*
X97998095Y-155889580D02*
X98045714Y-155937200D01*
X98045714Y-155937200D02*
X98140952Y-155984819D01*
X98140952Y-155984819D02*
X98331428Y-155984819D01*
X98331428Y-155984819D02*
X98426666Y-155937200D01*
X98426666Y-155937200D02*
X98474285Y-155889580D01*
X98474285Y-155889580D02*
X98521904Y-155794342D01*
X98521904Y-155794342D02*
X98521904Y-155556247D01*
X98521904Y-155556247D02*
X98474285Y-155461009D01*
X98474285Y-155461009D02*
X98426666Y-155413390D01*
X98426666Y-155413390D02*
X98331428Y-155365771D01*
X98331428Y-155365771D02*
X98140952Y-155365771D01*
X98140952Y-155365771D02*
X98045714Y-155413390D01*
X98045714Y-155413390D02*
X97998095Y-155461009D01*
X97998095Y-155461009D02*
X97950476Y-155556247D01*
X122384819Y-141146189D02*
X121384819Y-141146189D01*
X122384819Y-140669999D02*
X121384819Y-140669999D01*
X121384819Y-140669999D02*
X121384819Y-140431904D01*
X121384819Y-140431904D02*
X121432438Y-140289047D01*
X121432438Y-140289047D02*
X121527676Y-140193809D01*
X121527676Y-140193809D02*
X121622914Y-140146190D01*
X121622914Y-140146190D02*
X121813390Y-140098571D01*
X121813390Y-140098571D02*
X121956247Y-140098571D01*
X121956247Y-140098571D02*
X122146723Y-140146190D01*
X122146723Y-140146190D02*
X122241961Y-140193809D01*
X122241961Y-140193809D02*
X122337200Y-140289047D01*
X122337200Y-140289047D02*
X122384819Y-140431904D01*
X122384819Y-140431904D02*
X122384819Y-140669999D01*
X122384819Y-139146190D02*
X122384819Y-139717618D01*
X122384819Y-139431904D02*
X121384819Y-139431904D01*
X121384819Y-139431904D02*
X121527676Y-139527142D01*
X121527676Y-139527142D02*
X121622914Y-139622380D01*
X121622914Y-139622380D02*
X121670533Y-139717618D01*
X111282142Y-141674819D02*
X110948809Y-141198628D01*
X110710714Y-141674819D02*
X110710714Y-140674819D01*
X110710714Y-140674819D02*
X111091666Y-140674819D01*
X111091666Y-140674819D02*
X111186904Y-140722438D01*
X111186904Y-140722438D02*
X111234523Y-140770057D01*
X111234523Y-140770057D02*
X111282142Y-140865295D01*
X111282142Y-140865295D02*
X111282142Y-141008152D01*
X111282142Y-141008152D02*
X111234523Y-141103390D01*
X111234523Y-141103390D02*
X111186904Y-141151009D01*
X111186904Y-141151009D02*
X111091666Y-141198628D01*
X111091666Y-141198628D02*
X110710714Y-141198628D01*
X112234523Y-141674819D02*
X111663095Y-141674819D01*
X111948809Y-141674819D02*
X111948809Y-140674819D01*
X111948809Y-140674819D02*
X111853571Y-140817676D01*
X111853571Y-140817676D02*
X111758333Y-140912914D01*
X111758333Y-140912914D02*
X111663095Y-140960533D01*
X112710714Y-141674819D02*
X112901190Y-141674819D01*
X112901190Y-141674819D02*
X112996428Y-141627200D01*
X112996428Y-141627200D02*
X113044047Y-141579580D01*
X113044047Y-141579580D02*
X113139285Y-141436723D01*
X113139285Y-141436723D02*
X113186904Y-141246247D01*
X113186904Y-141246247D02*
X113186904Y-140865295D01*
X113186904Y-140865295D02*
X113139285Y-140770057D01*
X113139285Y-140770057D02*
X113091666Y-140722438D01*
X113091666Y-140722438D02*
X112996428Y-140674819D01*
X112996428Y-140674819D02*
X112805952Y-140674819D01*
X112805952Y-140674819D02*
X112710714Y-140722438D01*
X112710714Y-140722438D02*
X112663095Y-140770057D01*
X112663095Y-140770057D02*
X112615476Y-140865295D01*
X112615476Y-140865295D02*
X112615476Y-141103390D01*
X112615476Y-141103390D02*
X112663095Y-141198628D01*
X112663095Y-141198628D02*
X112710714Y-141246247D01*
X112710714Y-141246247D02*
X112805952Y-141293866D01*
X112805952Y-141293866D02*
X112996428Y-141293866D01*
X112996428Y-141293866D02*
X113091666Y-141246247D01*
X113091666Y-141246247D02*
X113139285Y-141198628D01*
X113139285Y-141198628D02*
X113186904Y-141103390D01*
X55945714Y-119556104D02*
X55907618Y-119594200D01*
X55907618Y-119594200D02*
X55793333Y-119632295D01*
X55793333Y-119632295D02*
X55717142Y-119632295D01*
X55717142Y-119632295D02*
X55602856Y-119594200D01*
X55602856Y-119594200D02*
X55526666Y-119518009D01*
X55526666Y-119518009D02*
X55488571Y-119441819D01*
X55488571Y-119441819D02*
X55450475Y-119289438D01*
X55450475Y-119289438D02*
X55450475Y-119175152D01*
X55450475Y-119175152D02*
X55488571Y-119022771D01*
X55488571Y-119022771D02*
X55526666Y-118946580D01*
X55526666Y-118946580D02*
X55602856Y-118870390D01*
X55602856Y-118870390D02*
X55717142Y-118832295D01*
X55717142Y-118832295D02*
X55793333Y-118832295D01*
X55793333Y-118832295D02*
X55907618Y-118870390D01*
X55907618Y-118870390D02*
X55945714Y-118908485D01*
X56250475Y-118908485D02*
X56288571Y-118870390D01*
X56288571Y-118870390D02*
X56364761Y-118832295D01*
X56364761Y-118832295D02*
X56555237Y-118832295D01*
X56555237Y-118832295D02*
X56631428Y-118870390D01*
X56631428Y-118870390D02*
X56669523Y-118908485D01*
X56669523Y-118908485D02*
X56707618Y-118984676D01*
X56707618Y-118984676D02*
X56707618Y-119060866D01*
X56707618Y-119060866D02*
X56669523Y-119175152D01*
X56669523Y-119175152D02*
X56212380Y-119632295D01*
X56212380Y-119632295D02*
X56707618Y-119632295D01*
X57012380Y-118908485D02*
X57050476Y-118870390D01*
X57050476Y-118870390D02*
X57126666Y-118832295D01*
X57126666Y-118832295D02*
X57317142Y-118832295D01*
X57317142Y-118832295D02*
X57393333Y-118870390D01*
X57393333Y-118870390D02*
X57431428Y-118908485D01*
X57431428Y-118908485D02*
X57469523Y-118984676D01*
X57469523Y-118984676D02*
X57469523Y-119060866D01*
X57469523Y-119060866D02*
X57431428Y-119175152D01*
X57431428Y-119175152D02*
X56974285Y-119632295D01*
X56974285Y-119632295D02*
X57469523Y-119632295D01*
X96583333Y-153564819D02*
X96250000Y-153088628D01*
X96011905Y-153564819D02*
X96011905Y-152564819D01*
X96011905Y-152564819D02*
X96392857Y-152564819D01*
X96392857Y-152564819D02*
X96488095Y-152612438D01*
X96488095Y-152612438D02*
X96535714Y-152660057D01*
X96535714Y-152660057D02*
X96583333Y-152755295D01*
X96583333Y-152755295D02*
X96583333Y-152898152D01*
X96583333Y-152898152D02*
X96535714Y-152993390D01*
X96535714Y-152993390D02*
X96488095Y-153041009D01*
X96488095Y-153041009D02*
X96392857Y-153088628D01*
X96392857Y-153088628D02*
X96011905Y-153088628D01*
X97059524Y-153564819D02*
X97250000Y-153564819D01*
X97250000Y-153564819D02*
X97345238Y-153517200D01*
X97345238Y-153517200D02*
X97392857Y-153469580D01*
X97392857Y-153469580D02*
X97488095Y-153326723D01*
X97488095Y-153326723D02*
X97535714Y-153136247D01*
X97535714Y-153136247D02*
X97535714Y-152755295D01*
X97535714Y-152755295D02*
X97488095Y-152660057D01*
X97488095Y-152660057D02*
X97440476Y-152612438D01*
X97440476Y-152612438D02*
X97345238Y-152564819D01*
X97345238Y-152564819D02*
X97154762Y-152564819D01*
X97154762Y-152564819D02*
X97059524Y-152612438D01*
X97059524Y-152612438D02*
X97011905Y-152660057D01*
X97011905Y-152660057D02*
X96964286Y-152755295D01*
X96964286Y-152755295D02*
X96964286Y-152993390D01*
X96964286Y-152993390D02*
X97011905Y-153088628D01*
X97011905Y-153088628D02*
X97059524Y-153136247D01*
X97059524Y-153136247D02*
X97154762Y-153183866D01*
X97154762Y-153183866D02*
X97345238Y-153183866D01*
X97345238Y-153183866D02*
X97440476Y-153136247D01*
X97440476Y-153136247D02*
X97488095Y-153088628D01*
X97488095Y-153088628D02*
X97535714Y-152993390D01*
X100557142Y-120634819D02*
X100223809Y-120158628D01*
X99985714Y-120634819D02*
X99985714Y-119634819D01*
X99985714Y-119634819D02*
X100366666Y-119634819D01*
X100366666Y-119634819D02*
X100461904Y-119682438D01*
X100461904Y-119682438D02*
X100509523Y-119730057D01*
X100509523Y-119730057D02*
X100557142Y-119825295D01*
X100557142Y-119825295D02*
X100557142Y-119968152D01*
X100557142Y-119968152D02*
X100509523Y-120063390D01*
X100509523Y-120063390D02*
X100461904Y-120111009D01*
X100461904Y-120111009D02*
X100366666Y-120158628D01*
X100366666Y-120158628D02*
X99985714Y-120158628D01*
X101509523Y-120634819D02*
X100938095Y-120634819D01*
X101223809Y-120634819D02*
X101223809Y-119634819D01*
X101223809Y-119634819D02*
X101128571Y-119777676D01*
X101128571Y-119777676D02*
X101033333Y-119872914D01*
X101033333Y-119872914D02*
X100938095Y-119920533D01*
X101842857Y-119634819D02*
X102461904Y-119634819D01*
X102461904Y-119634819D02*
X102128571Y-120015771D01*
X102128571Y-120015771D02*
X102271428Y-120015771D01*
X102271428Y-120015771D02*
X102366666Y-120063390D01*
X102366666Y-120063390D02*
X102414285Y-120111009D01*
X102414285Y-120111009D02*
X102461904Y-120206247D01*
X102461904Y-120206247D02*
X102461904Y-120444342D01*
X102461904Y-120444342D02*
X102414285Y-120539580D01*
X102414285Y-120539580D02*
X102366666Y-120587200D01*
X102366666Y-120587200D02*
X102271428Y-120634819D01*
X102271428Y-120634819D02*
X101985714Y-120634819D01*
X101985714Y-120634819D02*
X101890476Y-120587200D01*
X101890476Y-120587200D02*
X101842857Y-120539580D01*
X105256238Y-126727283D02*
X105256238Y-125725858D01*
X105256238Y-125725858D02*
X105494673Y-125725858D01*
X105494673Y-125725858D02*
X105637733Y-125773545D01*
X105637733Y-125773545D02*
X105733107Y-125868919D01*
X105733107Y-125868919D02*
X105780794Y-125964293D01*
X105780794Y-125964293D02*
X105828481Y-126155041D01*
X105828481Y-126155041D02*
X105828481Y-126298101D01*
X105828481Y-126298101D02*
X105780794Y-126488849D01*
X105780794Y-126488849D02*
X105733107Y-126584223D01*
X105733107Y-126584223D02*
X105637733Y-126679597D01*
X105637733Y-126679597D02*
X105494673Y-126727283D01*
X105494673Y-126727283D02*
X105256238Y-126727283D01*
X106782219Y-126727283D02*
X106209976Y-126727283D01*
X106496098Y-126727283D02*
X106496098Y-125725858D01*
X106496098Y-125725858D02*
X106400724Y-125868919D01*
X106400724Y-125868919D02*
X106305350Y-125964293D01*
X106305350Y-125964293D02*
X106209976Y-126011980D01*
X70328628Y-161636190D02*
X70804819Y-161636190D01*
X69804819Y-161969523D02*
X70328628Y-161636190D01*
X70328628Y-161636190D02*
X69804819Y-161302857D01*
X69804819Y-161064761D02*
X69804819Y-160445714D01*
X69804819Y-160445714D02*
X70185771Y-160779047D01*
X70185771Y-160779047D02*
X70185771Y-160636190D01*
X70185771Y-160636190D02*
X70233390Y-160540952D01*
X70233390Y-160540952D02*
X70281009Y-160493333D01*
X70281009Y-160493333D02*
X70376247Y-160445714D01*
X70376247Y-160445714D02*
X70614342Y-160445714D01*
X70614342Y-160445714D02*
X70709580Y-160493333D01*
X70709580Y-160493333D02*
X70757200Y-160540952D01*
X70757200Y-160540952D02*
X70804819Y-160636190D01*
X70804819Y-160636190D02*
X70804819Y-160921904D01*
X70804819Y-160921904D02*
X70757200Y-161017142D01*
X70757200Y-161017142D02*
X70709580Y-161064761D01*
X92563333Y-130019580D02*
X92515714Y-130067200D01*
X92515714Y-130067200D02*
X92372857Y-130114819D01*
X92372857Y-130114819D02*
X92277619Y-130114819D01*
X92277619Y-130114819D02*
X92134762Y-130067200D01*
X92134762Y-130067200D02*
X92039524Y-129971961D01*
X92039524Y-129971961D02*
X91991905Y-129876723D01*
X91991905Y-129876723D02*
X91944286Y-129686247D01*
X91944286Y-129686247D02*
X91944286Y-129543390D01*
X91944286Y-129543390D02*
X91991905Y-129352914D01*
X91991905Y-129352914D02*
X92039524Y-129257676D01*
X92039524Y-129257676D02*
X92134762Y-129162438D01*
X92134762Y-129162438D02*
X92277619Y-129114819D01*
X92277619Y-129114819D02*
X92372857Y-129114819D01*
X92372857Y-129114819D02*
X92515714Y-129162438D01*
X92515714Y-129162438D02*
X92563333Y-129210057D01*
X93134762Y-129543390D02*
X93039524Y-129495771D01*
X93039524Y-129495771D02*
X92991905Y-129448152D01*
X92991905Y-129448152D02*
X92944286Y-129352914D01*
X92944286Y-129352914D02*
X92944286Y-129305295D01*
X92944286Y-129305295D02*
X92991905Y-129210057D01*
X92991905Y-129210057D02*
X93039524Y-129162438D01*
X93039524Y-129162438D02*
X93134762Y-129114819D01*
X93134762Y-129114819D02*
X93325238Y-129114819D01*
X93325238Y-129114819D02*
X93420476Y-129162438D01*
X93420476Y-129162438D02*
X93468095Y-129210057D01*
X93468095Y-129210057D02*
X93515714Y-129305295D01*
X93515714Y-129305295D02*
X93515714Y-129352914D01*
X93515714Y-129352914D02*
X93468095Y-129448152D01*
X93468095Y-129448152D02*
X93420476Y-129495771D01*
X93420476Y-129495771D02*
X93325238Y-129543390D01*
X93325238Y-129543390D02*
X93134762Y-129543390D01*
X93134762Y-129543390D02*
X93039524Y-129591009D01*
X93039524Y-129591009D02*
X92991905Y-129638628D01*
X92991905Y-129638628D02*
X92944286Y-129733866D01*
X92944286Y-129733866D02*
X92944286Y-129924342D01*
X92944286Y-129924342D02*
X92991905Y-130019580D01*
X92991905Y-130019580D02*
X93039524Y-130067200D01*
X93039524Y-130067200D02*
X93134762Y-130114819D01*
X93134762Y-130114819D02*
X93325238Y-130114819D01*
X93325238Y-130114819D02*
X93420476Y-130067200D01*
X93420476Y-130067200D02*
X93468095Y-130019580D01*
X93468095Y-130019580D02*
X93515714Y-129924342D01*
X93515714Y-129924342D02*
X93515714Y-129733866D01*
X93515714Y-129733866D02*
X93468095Y-129638628D01*
X93468095Y-129638628D02*
X93420476Y-129591009D01*
X93420476Y-129591009D02*
X93325238Y-129543390D01*
X71493333Y-128719580D02*
X71445714Y-128767200D01*
X71445714Y-128767200D02*
X71302857Y-128814819D01*
X71302857Y-128814819D02*
X71207619Y-128814819D01*
X71207619Y-128814819D02*
X71064762Y-128767200D01*
X71064762Y-128767200D02*
X70969524Y-128671961D01*
X70969524Y-128671961D02*
X70921905Y-128576723D01*
X70921905Y-128576723D02*
X70874286Y-128386247D01*
X70874286Y-128386247D02*
X70874286Y-128243390D01*
X70874286Y-128243390D02*
X70921905Y-128052914D01*
X70921905Y-128052914D02*
X70969524Y-127957676D01*
X70969524Y-127957676D02*
X71064762Y-127862438D01*
X71064762Y-127862438D02*
X71207619Y-127814819D01*
X71207619Y-127814819D02*
X71302857Y-127814819D01*
X71302857Y-127814819D02*
X71445714Y-127862438D01*
X71445714Y-127862438D02*
X71493333Y-127910057D01*
X71969524Y-128814819D02*
X72160000Y-128814819D01*
X72160000Y-128814819D02*
X72255238Y-128767200D01*
X72255238Y-128767200D02*
X72302857Y-128719580D01*
X72302857Y-128719580D02*
X72398095Y-128576723D01*
X72398095Y-128576723D02*
X72445714Y-128386247D01*
X72445714Y-128386247D02*
X72445714Y-128005295D01*
X72445714Y-128005295D02*
X72398095Y-127910057D01*
X72398095Y-127910057D02*
X72350476Y-127862438D01*
X72350476Y-127862438D02*
X72255238Y-127814819D01*
X72255238Y-127814819D02*
X72064762Y-127814819D01*
X72064762Y-127814819D02*
X71969524Y-127862438D01*
X71969524Y-127862438D02*
X71921905Y-127910057D01*
X71921905Y-127910057D02*
X71874286Y-128005295D01*
X71874286Y-128005295D02*
X71874286Y-128243390D01*
X71874286Y-128243390D02*
X71921905Y-128338628D01*
X71921905Y-128338628D02*
X71969524Y-128386247D01*
X71969524Y-128386247D02*
X72064762Y-128433866D01*
X72064762Y-128433866D02*
X72255238Y-128433866D01*
X72255238Y-128433866D02*
X72350476Y-128386247D01*
X72350476Y-128386247D02*
X72398095Y-128338628D01*
X72398095Y-128338628D02*
X72445714Y-128243390D01*
X62637142Y-137189580D02*
X62589523Y-137237200D01*
X62589523Y-137237200D02*
X62446666Y-137284819D01*
X62446666Y-137284819D02*
X62351428Y-137284819D01*
X62351428Y-137284819D02*
X62208571Y-137237200D01*
X62208571Y-137237200D02*
X62113333Y-137141961D01*
X62113333Y-137141961D02*
X62065714Y-137046723D01*
X62065714Y-137046723D02*
X62018095Y-136856247D01*
X62018095Y-136856247D02*
X62018095Y-136713390D01*
X62018095Y-136713390D02*
X62065714Y-136522914D01*
X62065714Y-136522914D02*
X62113333Y-136427676D01*
X62113333Y-136427676D02*
X62208571Y-136332438D01*
X62208571Y-136332438D02*
X62351428Y-136284819D01*
X62351428Y-136284819D02*
X62446666Y-136284819D01*
X62446666Y-136284819D02*
X62589523Y-136332438D01*
X62589523Y-136332438D02*
X62637142Y-136380057D01*
X63018095Y-136380057D02*
X63065714Y-136332438D01*
X63065714Y-136332438D02*
X63160952Y-136284819D01*
X63160952Y-136284819D02*
X63399047Y-136284819D01*
X63399047Y-136284819D02*
X63494285Y-136332438D01*
X63494285Y-136332438D02*
X63541904Y-136380057D01*
X63541904Y-136380057D02*
X63589523Y-136475295D01*
X63589523Y-136475295D02*
X63589523Y-136570533D01*
X63589523Y-136570533D02*
X63541904Y-136713390D01*
X63541904Y-136713390D02*
X62970476Y-137284819D01*
X62970476Y-137284819D02*
X63589523Y-137284819D01*
X64446666Y-136284819D02*
X64256190Y-136284819D01*
X64256190Y-136284819D02*
X64160952Y-136332438D01*
X64160952Y-136332438D02*
X64113333Y-136380057D01*
X64113333Y-136380057D02*
X64018095Y-136522914D01*
X64018095Y-136522914D02*
X63970476Y-136713390D01*
X63970476Y-136713390D02*
X63970476Y-137094342D01*
X63970476Y-137094342D02*
X64018095Y-137189580D01*
X64018095Y-137189580D02*
X64065714Y-137237200D01*
X64065714Y-137237200D02*
X64160952Y-137284819D01*
X64160952Y-137284819D02*
X64351428Y-137284819D01*
X64351428Y-137284819D02*
X64446666Y-137237200D01*
X64446666Y-137237200D02*
X64494285Y-137189580D01*
X64494285Y-137189580D02*
X64541904Y-137094342D01*
X64541904Y-137094342D02*
X64541904Y-136856247D01*
X64541904Y-136856247D02*
X64494285Y-136761009D01*
X64494285Y-136761009D02*
X64446666Y-136713390D01*
X64446666Y-136713390D02*
X64351428Y-136665771D01*
X64351428Y-136665771D02*
X64160952Y-136665771D01*
X64160952Y-136665771D02*
X64065714Y-136713390D01*
X64065714Y-136713390D02*
X64018095Y-136761009D01*
X64018095Y-136761009D02*
X63970476Y-136856247D01*
X106454819Y-116761904D02*
X107264342Y-116761904D01*
X107264342Y-116761904D02*
X107359580Y-116714285D01*
X107359580Y-116714285D02*
X107407200Y-116666666D01*
X107407200Y-116666666D02*
X107454819Y-116571428D01*
X107454819Y-116571428D02*
X107454819Y-116380952D01*
X107454819Y-116380952D02*
X107407200Y-116285714D01*
X107407200Y-116285714D02*
X107359580Y-116238095D01*
X107359580Y-116238095D02*
X107264342Y-116190476D01*
X107264342Y-116190476D02*
X106454819Y-116190476D01*
X106788152Y-115285714D02*
X107454819Y-115285714D01*
X106407200Y-115523809D02*
X107121485Y-115761904D01*
X107121485Y-115761904D02*
X107121485Y-115142857D01*
X98267142Y-148079580D02*
X98219523Y-148127200D01*
X98219523Y-148127200D02*
X98076666Y-148174819D01*
X98076666Y-148174819D02*
X97981428Y-148174819D01*
X97981428Y-148174819D02*
X97838571Y-148127200D01*
X97838571Y-148127200D02*
X97743333Y-148031961D01*
X97743333Y-148031961D02*
X97695714Y-147936723D01*
X97695714Y-147936723D02*
X97648095Y-147746247D01*
X97648095Y-147746247D02*
X97648095Y-147603390D01*
X97648095Y-147603390D02*
X97695714Y-147412914D01*
X97695714Y-147412914D02*
X97743333Y-147317676D01*
X97743333Y-147317676D02*
X97838571Y-147222438D01*
X97838571Y-147222438D02*
X97981428Y-147174819D01*
X97981428Y-147174819D02*
X98076666Y-147174819D01*
X98076666Y-147174819D02*
X98219523Y-147222438D01*
X98219523Y-147222438D02*
X98267142Y-147270057D01*
X99219523Y-148174819D02*
X98648095Y-148174819D01*
X98933809Y-148174819D02*
X98933809Y-147174819D01*
X98933809Y-147174819D02*
X98838571Y-147317676D01*
X98838571Y-147317676D02*
X98743333Y-147412914D01*
X98743333Y-147412914D02*
X98648095Y-147460533D01*
X99790952Y-147603390D02*
X99695714Y-147555771D01*
X99695714Y-147555771D02*
X99648095Y-147508152D01*
X99648095Y-147508152D02*
X99600476Y-147412914D01*
X99600476Y-147412914D02*
X99600476Y-147365295D01*
X99600476Y-147365295D02*
X99648095Y-147270057D01*
X99648095Y-147270057D02*
X99695714Y-147222438D01*
X99695714Y-147222438D02*
X99790952Y-147174819D01*
X99790952Y-147174819D02*
X99981428Y-147174819D01*
X99981428Y-147174819D02*
X100076666Y-147222438D01*
X100076666Y-147222438D02*
X100124285Y-147270057D01*
X100124285Y-147270057D02*
X100171904Y-147365295D01*
X100171904Y-147365295D02*
X100171904Y-147412914D01*
X100171904Y-147412914D02*
X100124285Y-147508152D01*
X100124285Y-147508152D02*
X100076666Y-147555771D01*
X100076666Y-147555771D02*
X99981428Y-147603390D01*
X99981428Y-147603390D02*
X99790952Y-147603390D01*
X99790952Y-147603390D02*
X99695714Y-147651009D01*
X99695714Y-147651009D02*
X99648095Y-147698628D01*
X99648095Y-147698628D02*
X99600476Y-147793866D01*
X99600476Y-147793866D02*
X99600476Y-147984342D01*
X99600476Y-147984342D02*
X99648095Y-148079580D01*
X99648095Y-148079580D02*
X99695714Y-148127200D01*
X99695714Y-148127200D02*
X99790952Y-148174819D01*
X99790952Y-148174819D02*
X99981428Y-148174819D01*
X99981428Y-148174819D02*
X100076666Y-148127200D01*
X100076666Y-148127200D02*
X100124285Y-148079580D01*
X100124285Y-148079580D02*
X100171904Y-147984342D01*
X100171904Y-147984342D02*
X100171904Y-147793866D01*
X100171904Y-147793866D02*
X100124285Y-147698628D01*
X100124285Y-147698628D02*
X100076666Y-147651009D01*
X100076666Y-147651009D02*
X99981428Y-147603390D01*
X110268095Y-156094819D02*
X110268095Y-156904342D01*
X110268095Y-156904342D02*
X110315714Y-156999580D01*
X110315714Y-156999580D02*
X110363333Y-157047200D01*
X110363333Y-157047200D02*
X110458571Y-157094819D01*
X110458571Y-157094819D02*
X110649047Y-157094819D01*
X110649047Y-157094819D02*
X110744285Y-157047200D01*
X110744285Y-157047200D02*
X110791904Y-156999580D01*
X110791904Y-156999580D02*
X110839523Y-156904342D01*
X110839523Y-156904342D02*
X110839523Y-156094819D01*
X111220476Y-156094819D02*
X111887142Y-156094819D01*
X111887142Y-156094819D02*
X111458571Y-157094819D01*
X62617142Y-138789580D02*
X62569523Y-138837200D01*
X62569523Y-138837200D02*
X62426666Y-138884819D01*
X62426666Y-138884819D02*
X62331428Y-138884819D01*
X62331428Y-138884819D02*
X62188571Y-138837200D01*
X62188571Y-138837200D02*
X62093333Y-138741961D01*
X62093333Y-138741961D02*
X62045714Y-138646723D01*
X62045714Y-138646723D02*
X61998095Y-138456247D01*
X61998095Y-138456247D02*
X61998095Y-138313390D01*
X61998095Y-138313390D02*
X62045714Y-138122914D01*
X62045714Y-138122914D02*
X62093333Y-138027676D01*
X62093333Y-138027676D02*
X62188571Y-137932438D01*
X62188571Y-137932438D02*
X62331428Y-137884819D01*
X62331428Y-137884819D02*
X62426666Y-137884819D01*
X62426666Y-137884819D02*
X62569523Y-137932438D01*
X62569523Y-137932438D02*
X62617142Y-137980057D01*
X62998095Y-137980057D02*
X63045714Y-137932438D01*
X63045714Y-137932438D02*
X63140952Y-137884819D01*
X63140952Y-137884819D02*
X63379047Y-137884819D01*
X63379047Y-137884819D02*
X63474285Y-137932438D01*
X63474285Y-137932438D02*
X63521904Y-137980057D01*
X63521904Y-137980057D02*
X63569523Y-138075295D01*
X63569523Y-138075295D02*
X63569523Y-138170533D01*
X63569523Y-138170533D02*
X63521904Y-138313390D01*
X63521904Y-138313390D02*
X62950476Y-138884819D01*
X62950476Y-138884819D02*
X63569523Y-138884819D01*
X64045714Y-138884819D02*
X64236190Y-138884819D01*
X64236190Y-138884819D02*
X64331428Y-138837200D01*
X64331428Y-138837200D02*
X64379047Y-138789580D01*
X64379047Y-138789580D02*
X64474285Y-138646723D01*
X64474285Y-138646723D02*
X64521904Y-138456247D01*
X64521904Y-138456247D02*
X64521904Y-138075295D01*
X64521904Y-138075295D02*
X64474285Y-137980057D01*
X64474285Y-137980057D02*
X64426666Y-137932438D01*
X64426666Y-137932438D02*
X64331428Y-137884819D01*
X64331428Y-137884819D02*
X64140952Y-137884819D01*
X64140952Y-137884819D02*
X64045714Y-137932438D01*
X64045714Y-137932438D02*
X63998095Y-137980057D01*
X63998095Y-137980057D02*
X63950476Y-138075295D01*
X63950476Y-138075295D02*
X63950476Y-138313390D01*
X63950476Y-138313390D02*
X63998095Y-138408628D01*
X63998095Y-138408628D02*
X64045714Y-138456247D01*
X64045714Y-138456247D02*
X64140952Y-138503866D01*
X64140952Y-138503866D02*
X64331428Y-138503866D01*
X64331428Y-138503866D02*
X64426666Y-138456247D01*
X64426666Y-138456247D02*
X64474285Y-138408628D01*
X64474285Y-138408628D02*
X64521904Y-138313390D01*
X96563333Y-154794819D02*
X96230000Y-154318628D01*
X95991905Y-154794819D02*
X95991905Y-153794819D01*
X95991905Y-153794819D02*
X96372857Y-153794819D01*
X96372857Y-153794819D02*
X96468095Y-153842438D01*
X96468095Y-153842438D02*
X96515714Y-153890057D01*
X96515714Y-153890057D02*
X96563333Y-153985295D01*
X96563333Y-153985295D02*
X96563333Y-154128152D01*
X96563333Y-154128152D02*
X96515714Y-154223390D01*
X96515714Y-154223390D02*
X96468095Y-154271009D01*
X96468095Y-154271009D02*
X96372857Y-154318628D01*
X96372857Y-154318628D02*
X95991905Y-154318628D01*
X97134762Y-154223390D02*
X97039524Y-154175771D01*
X97039524Y-154175771D02*
X96991905Y-154128152D01*
X96991905Y-154128152D02*
X96944286Y-154032914D01*
X96944286Y-154032914D02*
X96944286Y-153985295D01*
X96944286Y-153985295D02*
X96991905Y-153890057D01*
X96991905Y-153890057D02*
X97039524Y-153842438D01*
X97039524Y-153842438D02*
X97134762Y-153794819D01*
X97134762Y-153794819D02*
X97325238Y-153794819D01*
X97325238Y-153794819D02*
X97420476Y-153842438D01*
X97420476Y-153842438D02*
X97468095Y-153890057D01*
X97468095Y-153890057D02*
X97515714Y-153985295D01*
X97515714Y-153985295D02*
X97515714Y-154032914D01*
X97515714Y-154032914D02*
X97468095Y-154128152D01*
X97468095Y-154128152D02*
X97420476Y-154175771D01*
X97420476Y-154175771D02*
X97325238Y-154223390D01*
X97325238Y-154223390D02*
X97134762Y-154223390D01*
X97134762Y-154223390D02*
X97039524Y-154271009D01*
X97039524Y-154271009D02*
X96991905Y-154318628D01*
X96991905Y-154318628D02*
X96944286Y-154413866D01*
X96944286Y-154413866D02*
X96944286Y-154604342D01*
X96944286Y-154604342D02*
X96991905Y-154699580D01*
X96991905Y-154699580D02*
X97039524Y-154747200D01*
X97039524Y-154747200D02*
X97134762Y-154794819D01*
X97134762Y-154794819D02*
X97325238Y-154794819D01*
X97325238Y-154794819D02*
X97420476Y-154747200D01*
X97420476Y-154747200D02*
X97468095Y-154699580D01*
X97468095Y-154699580D02*
X97515714Y-154604342D01*
X97515714Y-154604342D02*
X97515714Y-154413866D01*
X97515714Y-154413866D02*
X97468095Y-154318628D01*
X97468095Y-154318628D02*
X97420476Y-154271009D01*
X97420476Y-154271009D02*
X97325238Y-154223390D01*
X98267142Y-149779580D02*
X98219523Y-149827200D01*
X98219523Y-149827200D02*
X98076666Y-149874819D01*
X98076666Y-149874819D02*
X97981428Y-149874819D01*
X97981428Y-149874819D02*
X97838571Y-149827200D01*
X97838571Y-149827200D02*
X97743333Y-149731961D01*
X97743333Y-149731961D02*
X97695714Y-149636723D01*
X97695714Y-149636723D02*
X97648095Y-149446247D01*
X97648095Y-149446247D02*
X97648095Y-149303390D01*
X97648095Y-149303390D02*
X97695714Y-149112914D01*
X97695714Y-149112914D02*
X97743333Y-149017676D01*
X97743333Y-149017676D02*
X97838571Y-148922438D01*
X97838571Y-148922438D02*
X97981428Y-148874819D01*
X97981428Y-148874819D02*
X98076666Y-148874819D01*
X98076666Y-148874819D02*
X98219523Y-148922438D01*
X98219523Y-148922438D02*
X98267142Y-148970057D01*
X99219523Y-149874819D02*
X98648095Y-149874819D01*
X98933809Y-149874819D02*
X98933809Y-148874819D01*
X98933809Y-148874819D02*
X98838571Y-149017676D01*
X98838571Y-149017676D02*
X98743333Y-149112914D01*
X98743333Y-149112914D02*
X98648095Y-149160533D01*
X99552857Y-148874819D02*
X100219523Y-148874819D01*
X100219523Y-148874819D02*
X99790952Y-149874819D01*
X81908095Y-134034819D02*
X81908095Y-134844342D01*
X81908095Y-134844342D02*
X81955714Y-134939580D01*
X81955714Y-134939580D02*
X82003333Y-134987200D01*
X82003333Y-134987200D02*
X82098571Y-135034819D01*
X82098571Y-135034819D02*
X82289047Y-135034819D01*
X82289047Y-135034819D02*
X82384285Y-134987200D01*
X82384285Y-134987200D02*
X82431904Y-134939580D01*
X82431904Y-134939580D02*
X82479523Y-134844342D01*
X82479523Y-134844342D02*
X82479523Y-134034819D01*
X83098571Y-134463390D02*
X83003333Y-134415771D01*
X83003333Y-134415771D02*
X82955714Y-134368152D01*
X82955714Y-134368152D02*
X82908095Y-134272914D01*
X82908095Y-134272914D02*
X82908095Y-134225295D01*
X82908095Y-134225295D02*
X82955714Y-134130057D01*
X82955714Y-134130057D02*
X83003333Y-134082438D01*
X83003333Y-134082438D02*
X83098571Y-134034819D01*
X83098571Y-134034819D02*
X83289047Y-134034819D01*
X83289047Y-134034819D02*
X83384285Y-134082438D01*
X83384285Y-134082438D02*
X83431904Y-134130057D01*
X83431904Y-134130057D02*
X83479523Y-134225295D01*
X83479523Y-134225295D02*
X83479523Y-134272914D01*
X83479523Y-134272914D02*
X83431904Y-134368152D01*
X83431904Y-134368152D02*
X83384285Y-134415771D01*
X83384285Y-134415771D02*
X83289047Y-134463390D01*
X83289047Y-134463390D02*
X83098571Y-134463390D01*
X83098571Y-134463390D02*
X83003333Y-134511009D01*
X83003333Y-134511009D02*
X82955714Y-134558628D01*
X82955714Y-134558628D02*
X82908095Y-134653866D01*
X82908095Y-134653866D02*
X82908095Y-134844342D01*
X82908095Y-134844342D02*
X82955714Y-134939580D01*
X82955714Y-134939580D02*
X83003333Y-134987200D01*
X83003333Y-134987200D02*
X83098571Y-135034819D01*
X83098571Y-135034819D02*
X83289047Y-135034819D01*
X83289047Y-135034819D02*
X83384285Y-134987200D01*
X83384285Y-134987200D02*
X83431904Y-134939580D01*
X83431904Y-134939580D02*
X83479523Y-134844342D01*
X83479523Y-134844342D02*
X83479523Y-134653866D01*
X83479523Y-134653866D02*
X83431904Y-134558628D01*
X83431904Y-134558628D02*
X83384285Y-134511009D01*
X83384285Y-134511009D02*
X83289047Y-134463390D01*
X56969580Y-112462857D02*
X57017200Y-112510476D01*
X57017200Y-112510476D02*
X57064819Y-112653333D01*
X57064819Y-112653333D02*
X57064819Y-112748571D01*
X57064819Y-112748571D02*
X57017200Y-112891428D01*
X57017200Y-112891428D02*
X56921961Y-112986666D01*
X56921961Y-112986666D02*
X56826723Y-113034285D01*
X56826723Y-113034285D02*
X56636247Y-113081904D01*
X56636247Y-113081904D02*
X56493390Y-113081904D01*
X56493390Y-113081904D02*
X56302914Y-113034285D01*
X56302914Y-113034285D02*
X56207676Y-112986666D01*
X56207676Y-112986666D02*
X56112438Y-112891428D01*
X56112438Y-112891428D02*
X56064819Y-112748571D01*
X56064819Y-112748571D02*
X56064819Y-112653333D01*
X56064819Y-112653333D02*
X56112438Y-112510476D01*
X56112438Y-112510476D02*
X56160057Y-112462857D01*
X56160057Y-112081904D02*
X56112438Y-112034285D01*
X56112438Y-112034285D02*
X56064819Y-111939047D01*
X56064819Y-111939047D02*
X56064819Y-111700952D01*
X56064819Y-111700952D02*
X56112438Y-111605714D01*
X56112438Y-111605714D02*
X56160057Y-111558095D01*
X56160057Y-111558095D02*
X56255295Y-111510476D01*
X56255295Y-111510476D02*
X56350533Y-111510476D01*
X56350533Y-111510476D02*
X56493390Y-111558095D01*
X56493390Y-111558095D02*
X57064819Y-112129523D01*
X57064819Y-112129523D02*
X57064819Y-111510476D01*
X56398152Y-110653333D02*
X57064819Y-110653333D01*
X56017200Y-110891428D02*
X56731485Y-111129523D01*
X56731485Y-111129523D02*
X56731485Y-110510476D01*
X92763333Y-113609580D02*
X92715714Y-113657200D01*
X92715714Y-113657200D02*
X92572857Y-113704819D01*
X92572857Y-113704819D02*
X92477619Y-113704819D01*
X92477619Y-113704819D02*
X92334762Y-113657200D01*
X92334762Y-113657200D02*
X92239524Y-113561961D01*
X92239524Y-113561961D02*
X92191905Y-113466723D01*
X92191905Y-113466723D02*
X92144286Y-113276247D01*
X92144286Y-113276247D02*
X92144286Y-113133390D01*
X92144286Y-113133390D02*
X92191905Y-112942914D01*
X92191905Y-112942914D02*
X92239524Y-112847676D01*
X92239524Y-112847676D02*
X92334762Y-112752438D01*
X92334762Y-112752438D02*
X92477619Y-112704819D01*
X92477619Y-112704819D02*
X92572857Y-112704819D01*
X92572857Y-112704819D02*
X92715714Y-112752438D01*
X92715714Y-112752438D02*
X92763333Y-112800057D01*
X93715714Y-113704819D02*
X93144286Y-113704819D01*
X93430000Y-113704819D02*
X93430000Y-112704819D01*
X93430000Y-112704819D02*
X93334762Y-112847676D01*
X93334762Y-112847676D02*
X93239524Y-112942914D01*
X93239524Y-112942914D02*
X93144286Y-112990533D01*
X100332142Y-130454819D02*
X99998809Y-129978628D01*
X99760714Y-130454819D02*
X99760714Y-129454819D01*
X99760714Y-129454819D02*
X100141666Y-129454819D01*
X100141666Y-129454819D02*
X100236904Y-129502438D01*
X100236904Y-129502438D02*
X100284523Y-129550057D01*
X100284523Y-129550057D02*
X100332142Y-129645295D01*
X100332142Y-129645295D02*
X100332142Y-129788152D01*
X100332142Y-129788152D02*
X100284523Y-129883390D01*
X100284523Y-129883390D02*
X100236904Y-129931009D01*
X100236904Y-129931009D02*
X100141666Y-129978628D01*
X100141666Y-129978628D02*
X99760714Y-129978628D01*
X101284523Y-130454819D02*
X100713095Y-130454819D01*
X100998809Y-130454819D02*
X100998809Y-129454819D01*
X100998809Y-129454819D02*
X100903571Y-129597676D01*
X100903571Y-129597676D02*
X100808333Y-129692914D01*
X100808333Y-129692914D02*
X100713095Y-129740533D01*
X101903571Y-129454819D02*
X101998809Y-129454819D01*
X101998809Y-129454819D02*
X102094047Y-129502438D01*
X102094047Y-129502438D02*
X102141666Y-129550057D01*
X102141666Y-129550057D02*
X102189285Y-129645295D01*
X102189285Y-129645295D02*
X102236904Y-129835771D01*
X102236904Y-129835771D02*
X102236904Y-130073866D01*
X102236904Y-130073866D02*
X102189285Y-130264342D01*
X102189285Y-130264342D02*
X102141666Y-130359580D01*
X102141666Y-130359580D02*
X102094047Y-130407200D01*
X102094047Y-130407200D02*
X101998809Y-130454819D01*
X101998809Y-130454819D02*
X101903571Y-130454819D01*
X101903571Y-130454819D02*
X101808333Y-130407200D01*
X101808333Y-130407200D02*
X101760714Y-130359580D01*
X101760714Y-130359580D02*
X101713095Y-130264342D01*
X101713095Y-130264342D02*
X101665476Y-130073866D01*
X101665476Y-130073866D02*
X101665476Y-129835771D01*
X101665476Y-129835771D02*
X101713095Y-129645295D01*
X101713095Y-129645295D02*
X101760714Y-129550057D01*
X101760714Y-129550057D02*
X101808333Y-129502438D01*
X101808333Y-129502438D02*
X101903571Y-129454819D01*
X106881666Y-145771009D02*
X106548333Y-145771009D01*
X106548333Y-146294819D02*
X106548333Y-145294819D01*
X106548333Y-145294819D02*
X107024523Y-145294819D01*
X107929285Y-146294819D02*
X107357857Y-146294819D01*
X107643571Y-146294819D02*
X107643571Y-145294819D01*
X107643571Y-145294819D02*
X107548333Y-145437676D01*
X107548333Y-145437676D02*
X107453095Y-145532914D01*
X107453095Y-145532914D02*
X107357857Y-145580533D01*
X52494595Y-124982200D02*
X52637452Y-125029819D01*
X52637452Y-125029819D02*
X52875547Y-125029819D01*
X52875547Y-125029819D02*
X52970785Y-124982200D01*
X52970785Y-124982200D02*
X53018404Y-124934580D01*
X53018404Y-124934580D02*
X53066023Y-124839342D01*
X53066023Y-124839342D02*
X53066023Y-124744104D01*
X53066023Y-124744104D02*
X53018404Y-124648866D01*
X53018404Y-124648866D02*
X52970785Y-124601247D01*
X52970785Y-124601247D02*
X52875547Y-124553628D01*
X52875547Y-124553628D02*
X52685071Y-124506009D01*
X52685071Y-124506009D02*
X52589833Y-124458390D01*
X52589833Y-124458390D02*
X52542214Y-124410771D01*
X52542214Y-124410771D02*
X52494595Y-124315533D01*
X52494595Y-124315533D02*
X52494595Y-124220295D01*
X52494595Y-124220295D02*
X52542214Y-124125057D01*
X52542214Y-124125057D02*
X52589833Y-124077438D01*
X52589833Y-124077438D02*
X52685071Y-124029819D01*
X52685071Y-124029819D02*
X52923166Y-124029819D01*
X52923166Y-124029819D02*
X53066023Y-124077438D01*
X54018404Y-125029819D02*
X53446976Y-125029819D01*
X53732690Y-125029819D02*
X53732690Y-124029819D01*
X53732690Y-124029819D02*
X53637452Y-124172676D01*
X53637452Y-124172676D02*
X53542214Y-124267914D01*
X53542214Y-124267914D02*
X53446976Y-124315533D01*
X69783628Y-146321190D02*
X70259819Y-146321190D01*
X69259819Y-146654523D02*
X69783628Y-146321190D01*
X69783628Y-146321190D02*
X69259819Y-145987857D01*
X70259819Y-145130714D02*
X70259819Y-145702142D01*
X70259819Y-145416428D02*
X69259819Y-145416428D01*
X69259819Y-145416428D02*
X69402676Y-145511666D01*
X69402676Y-145511666D02*
X69497914Y-145606904D01*
X69497914Y-145606904D02*
X69545533Y-145702142D01*
X103039523Y-145673247D02*
X102772857Y-145673247D01*
X102772857Y-146092295D02*
X102772857Y-145292295D01*
X102772857Y-145292295D02*
X103153809Y-145292295D01*
X103839523Y-146092295D02*
X103458571Y-146092295D01*
X103458571Y-146092295D02*
X103458571Y-145292295D01*
X104525237Y-146092295D02*
X104068094Y-146092295D01*
X104296666Y-146092295D02*
X104296666Y-145292295D01*
X104296666Y-145292295D02*
X104220475Y-145406580D01*
X104220475Y-145406580D02*
X104144285Y-145482771D01*
X104144285Y-145482771D02*
X104068094Y-145520866D01*
X100523333Y-127964819D02*
X100190000Y-127488628D01*
X99951905Y-127964819D02*
X99951905Y-126964819D01*
X99951905Y-126964819D02*
X100332857Y-126964819D01*
X100332857Y-126964819D02*
X100428095Y-127012438D01*
X100428095Y-127012438D02*
X100475714Y-127060057D01*
X100475714Y-127060057D02*
X100523333Y-127155295D01*
X100523333Y-127155295D02*
X100523333Y-127298152D01*
X100523333Y-127298152D02*
X100475714Y-127393390D01*
X100475714Y-127393390D02*
X100428095Y-127441009D01*
X100428095Y-127441009D02*
X100332857Y-127488628D01*
X100332857Y-127488628D02*
X99951905Y-127488628D01*
X100856667Y-126964819D02*
X101523333Y-126964819D01*
X101523333Y-126964819D02*
X101094762Y-127964819D01*
X75547142Y-140254819D02*
X75213809Y-139778628D01*
X74975714Y-140254819D02*
X74975714Y-139254819D01*
X74975714Y-139254819D02*
X75356666Y-139254819D01*
X75356666Y-139254819D02*
X75451904Y-139302438D01*
X75451904Y-139302438D02*
X75499523Y-139350057D01*
X75499523Y-139350057D02*
X75547142Y-139445295D01*
X75547142Y-139445295D02*
X75547142Y-139588152D01*
X75547142Y-139588152D02*
X75499523Y-139683390D01*
X75499523Y-139683390D02*
X75451904Y-139731009D01*
X75451904Y-139731009D02*
X75356666Y-139778628D01*
X75356666Y-139778628D02*
X74975714Y-139778628D01*
X76499523Y-140254819D02*
X75928095Y-140254819D01*
X76213809Y-140254819D02*
X76213809Y-139254819D01*
X76213809Y-139254819D02*
X76118571Y-139397676D01*
X76118571Y-139397676D02*
X76023333Y-139492914D01*
X76023333Y-139492914D02*
X75928095Y-139540533D01*
X77451904Y-140254819D02*
X76880476Y-140254819D01*
X77166190Y-140254819D02*
X77166190Y-139254819D01*
X77166190Y-139254819D02*
X77070952Y-139397676D01*
X77070952Y-139397676D02*
X76975714Y-139492914D01*
X76975714Y-139492914D02*
X76880476Y-139540533D01*
X98357142Y-144679580D02*
X98309523Y-144727200D01*
X98309523Y-144727200D02*
X98166666Y-144774819D01*
X98166666Y-144774819D02*
X98071428Y-144774819D01*
X98071428Y-144774819D02*
X97928571Y-144727200D01*
X97928571Y-144727200D02*
X97833333Y-144631961D01*
X97833333Y-144631961D02*
X97785714Y-144536723D01*
X97785714Y-144536723D02*
X97738095Y-144346247D01*
X97738095Y-144346247D02*
X97738095Y-144203390D01*
X97738095Y-144203390D02*
X97785714Y-144012914D01*
X97785714Y-144012914D02*
X97833333Y-143917676D01*
X97833333Y-143917676D02*
X97928571Y-143822438D01*
X97928571Y-143822438D02*
X98071428Y-143774819D01*
X98071428Y-143774819D02*
X98166666Y-143774819D01*
X98166666Y-143774819D02*
X98309523Y-143822438D01*
X98309523Y-143822438D02*
X98357142Y-143870057D01*
X99309523Y-144774819D02*
X98738095Y-144774819D01*
X99023809Y-144774819D02*
X99023809Y-143774819D01*
X99023809Y-143774819D02*
X98928571Y-143917676D01*
X98928571Y-143917676D02*
X98833333Y-144012914D01*
X98833333Y-144012914D02*
X98738095Y-144060533D01*
X99690476Y-143870057D02*
X99738095Y-143822438D01*
X99738095Y-143822438D02*
X99833333Y-143774819D01*
X99833333Y-143774819D02*
X100071428Y-143774819D01*
X100071428Y-143774819D02*
X100166666Y-143822438D01*
X100166666Y-143822438D02*
X100214285Y-143870057D01*
X100214285Y-143870057D02*
X100261904Y-143965295D01*
X100261904Y-143965295D02*
X100261904Y-144060533D01*
X100261904Y-144060533D02*
X100214285Y-144203390D01*
X100214285Y-144203390D02*
X99642857Y-144774819D01*
X99642857Y-144774819D02*
X100261904Y-144774819D01*
X74023333Y-153404819D02*
X73690000Y-152928628D01*
X73451905Y-153404819D02*
X73451905Y-152404819D01*
X73451905Y-152404819D02*
X73832857Y-152404819D01*
X73832857Y-152404819D02*
X73928095Y-152452438D01*
X73928095Y-152452438D02*
X73975714Y-152500057D01*
X73975714Y-152500057D02*
X74023333Y-152595295D01*
X74023333Y-152595295D02*
X74023333Y-152738152D01*
X74023333Y-152738152D02*
X73975714Y-152833390D01*
X73975714Y-152833390D02*
X73928095Y-152881009D01*
X73928095Y-152881009D02*
X73832857Y-152928628D01*
X73832857Y-152928628D02*
X73451905Y-152928628D01*
X74880476Y-152738152D02*
X74880476Y-153404819D01*
X74642381Y-152357200D02*
X74404286Y-153071485D01*
X74404286Y-153071485D02*
X75023333Y-153071485D01*
X96647142Y-157284819D02*
X96313809Y-156808628D01*
X96075714Y-157284819D02*
X96075714Y-156284819D01*
X96075714Y-156284819D02*
X96456666Y-156284819D01*
X96456666Y-156284819D02*
X96551904Y-156332438D01*
X96551904Y-156332438D02*
X96599523Y-156380057D01*
X96599523Y-156380057D02*
X96647142Y-156475295D01*
X96647142Y-156475295D02*
X96647142Y-156618152D01*
X96647142Y-156618152D02*
X96599523Y-156713390D01*
X96599523Y-156713390D02*
X96551904Y-156761009D01*
X96551904Y-156761009D02*
X96456666Y-156808628D01*
X96456666Y-156808628D02*
X96075714Y-156808628D01*
X97599523Y-157284819D02*
X97028095Y-157284819D01*
X97313809Y-157284819D02*
X97313809Y-156284819D01*
X97313809Y-156284819D02*
X97218571Y-156427676D01*
X97218571Y-156427676D02*
X97123333Y-156522914D01*
X97123333Y-156522914D02*
X97028095Y-156570533D01*
X97932857Y-156284819D02*
X98599523Y-156284819D01*
X98599523Y-156284819D02*
X98170952Y-157284819D01*
X123381009Y-139203809D02*
X123381009Y-139537142D01*
X123904819Y-139537142D02*
X122904819Y-139537142D01*
X122904819Y-139537142D02*
X122904819Y-139060952D01*
X123904819Y-138679999D02*
X123238152Y-138679999D01*
X122904819Y-138679999D02*
X122952438Y-138727618D01*
X122952438Y-138727618D02*
X123000057Y-138679999D01*
X123000057Y-138679999D02*
X122952438Y-138632380D01*
X122952438Y-138632380D02*
X122904819Y-138679999D01*
X122904819Y-138679999D02*
X123000057Y-138679999D01*
X123238152Y-138203809D02*
X123904819Y-138203809D01*
X123333390Y-138203809D02*
X123285771Y-138156190D01*
X123285771Y-138156190D02*
X123238152Y-138060952D01*
X123238152Y-138060952D02*
X123238152Y-137918095D01*
X123238152Y-137918095D02*
X123285771Y-137822857D01*
X123285771Y-137822857D02*
X123381009Y-137775238D01*
X123381009Y-137775238D02*
X123904819Y-137775238D01*
X123904819Y-136870476D02*
X122904819Y-136870476D01*
X123857200Y-136870476D02*
X123904819Y-136965714D01*
X123904819Y-136965714D02*
X123904819Y-137156190D01*
X123904819Y-137156190D02*
X123857200Y-137251428D01*
X123857200Y-137251428D02*
X123809580Y-137299047D01*
X123809580Y-137299047D02*
X123714342Y-137346666D01*
X123714342Y-137346666D02*
X123428628Y-137346666D01*
X123428628Y-137346666D02*
X123333390Y-137299047D01*
X123333390Y-137299047D02*
X123285771Y-137251428D01*
X123285771Y-137251428D02*
X123238152Y-137156190D01*
X123238152Y-137156190D02*
X123238152Y-136965714D01*
X123238152Y-136965714D02*
X123285771Y-136870476D01*
X124000057Y-136632381D02*
X124000057Y-135870476D01*
X123904819Y-135632380D02*
X122904819Y-135632380D01*
X123381009Y-135632380D02*
X123381009Y-135060952D01*
X123904819Y-135060952D02*
X122904819Y-135060952D01*
X123904819Y-134441904D02*
X123857200Y-134537142D01*
X123857200Y-134537142D02*
X123809580Y-134584761D01*
X123809580Y-134584761D02*
X123714342Y-134632380D01*
X123714342Y-134632380D02*
X123428628Y-134632380D01*
X123428628Y-134632380D02*
X123333390Y-134584761D01*
X123333390Y-134584761D02*
X123285771Y-134537142D01*
X123285771Y-134537142D02*
X123238152Y-134441904D01*
X123238152Y-134441904D02*
X123238152Y-134299047D01*
X123238152Y-134299047D02*
X123285771Y-134203809D01*
X123285771Y-134203809D02*
X123333390Y-134156190D01*
X123333390Y-134156190D02*
X123428628Y-134108571D01*
X123428628Y-134108571D02*
X123714342Y-134108571D01*
X123714342Y-134108571D02*
X123809580Y-134156190D01*
X123809580Y-134156190D02*
X123857200Y-134203809D01*
X123857200Y-134203809D02*
X123904819Y-134299047D01*
X123904819Y-134299047D02*
X123904819Y-134441904D01*
X123857200Y-133727618D02*
X123904819Y-133632380D01*
X123904819Y-133632380D02*
X123904819Y-133441904D01*
X123904819Y-133441904D02*
X123857200Y-133346666D01*
X123857200Y-133346666D02*
X123761961Y-133299047D01*
X123761961Y-133299047D02*
X123714342Y-133299047D01*
X123714342Y-133299047D02*
X123619104Y-133346666D01*
X123619104Y-133346666D02*
X123571485Y-133441904D01*
X123571485Y-133441904D02*
X123571485Y-133584761D01*
X123571485Y-133584761D02*
X123523866Y-133679999D01*
X123523866Y-133679999D02*
X123428628Y-133727618D01*
X123428628Y-133727618D02*
X123381009Y-133727618D01*
X123381009Y-133727618D02*
X123285771Y-133679999D01*
X123285771Y-133679999D02*
X123238152Y-133584761D01*
X123238152Y-133584761D02*
X123238152Y-133441904D01*
X123238152Y-133441904D02*
X123285771Y-133346666D01*
X123238152Y-133013332D02*
X123238152Y-132632380D01*
X122904819Y-132870475D02*
X123761961Y-132870475D01*
X123761961Y-132870475D02*
X123857200Y-132822856D01*
X123857200Y-132822856D02*
X123904819Y-132727618D01*
X123904819Y-132727618D02*
X123904819Y-132632380D01*
X123904819Y-131775237D02*
X123904819Y-132346665D01*
X123904819Y-132060951D02*
X122904819Y-132060951D01*
X122904819Y-132060951D02*
X123047676Y-132156189D01*
X123047676Y-132156189D02*
X123142914Y-132251427D01*
X123142914Y-132251427D02*
X123190533Y-132346665D01*
X96857142Y-115174819D02*
X96523809Y-114698628D01*
X96285714Y-115174819D02*
X96285714Y-114174819D01*
X96285714Y-114174819D02*
X96666666Y-114174819D01*
X96666666Y-114174819D02*
X96761904Y-114222438D01*
X96761904Y-114222438D02*
X96809523Y-114270057D01*
X96809523Y-114270057D02*
X96857142Y-114365295D01*
X96857142Y-114365295D02*
X96857142Y-114508152D01*
X96857142Y-114508152D02*
X96809523Y-114603390D01*
X96809523Y-114603390D02*
X96761904Y-114651009D01*
X96761904Y-114651009D02*
X96666666Y-114698628D01*
X96666666Y-114698628D02*
X96285714Y-114698628D01*
X97809523Y-115174819D02*
X97238095Y-115174819D01*
X97523809Y-115174819D02*
X97523809Y-114174819D01*
X97523809Y-114174819D02*
X97428571Y-114317676D01*
X97428571Y-114317676D02*
X97333333Y-114412914D01*
X97333333Y-114412914D02*
X97238095Y-114460533D01*
X98190476Y-114270057D02*
X98238095Y-114222438D01*
X98238095Y-114222438D02*
X98333333Y-114174819D01*
X98333333Y-114174819D02*
X98571428Y-114174819D01*
X98571428Y-114174819D02*
X98666666Y-114222438D01*
X98666666Y-114222438D02*
X98714285Y-114270057D01*
X98714285Y-114270057D02*
X98761904Y-114365295D01*
X98761904Y-114365295D02*
X98761904Y-114460533D01*
X98761904Y-114460533D02*
X98714285Y-114603390D01*
X98714285Y-114603390D02*
X98142857Y-115174819D01*
X98142857Y-115174819D02*
X98761904Y-115174819D01*
X80343095Y-146839819D02*
X80343095Y-147649342D01*
X80343095Y-147649342D02*
X80390714Y-147744580D01*
X80390714Y-147744580D02*
X80438333Y-147792200D01*
X80438333Y-147792200D02*
X80533571Y-147839819D01*
X80533571Y-147839819D02*
X80724047Y-147839819D01*
X80724047Y-147839819D02*
X80819285Y-147792200D01*
X80819285Y-147792200D02*
X80866904Y-147744580D01*
X80866904Y-147744580D02*
X80914523Y-147649342D01*
X80914523Y-147649342D02*
X80914523Y-146839819D01*
X81343095Y-146935057D02*
X81390714Y-146887438D01*
X81390714Y-146887438D02*
X81485952Y-146839819D01*
X81485952Y-146839819D02*
X81724047Y-146839819D01*
X81724047Y-146839819D02*
X81819285Y-146887438D01*
X81819285Y-146887438D02*
X81866904Y-146935057D01*
X81866904Y-146935057D02*
X81914523Y-147030295D01*
X81914523Y-147030295D02*
X81914523Y-147125533D01*
X81914523Y-147125533D02*
X81866904Y-147268390D01*
X81866904Y-147268390D02*
X81295476Y-147839819D01*
X81295476Y-147839819D02*
X81914523Y-147839819D01*
X66283809Y-134168628D02*
X66283809Y-134644819D01*
X65950476Y-133644819D02*
X66283809Y-134168628D01*
X66283809Y-134168628D02*
X66617142Y-133644819D01*
X66902857Y-133740057D02*
X66950476Y-133692438D01*
X66950476Y-133692438D02*
X67045714Y-133644819D01*
X67045714Y-133644819D02*
X67283809Y-133644819D01*
X67283809Y-133644819D02*
X67379047Y-133692438D01*
X67379047Y-133692438D02*
X67426666Y-133740057D01*
X67426666Y-133740057D02*
X67474285Y-133835295D01*
X67474285Y-133835295D02*
X67474285Y-133930533D01*
X67474285Y-133930533D02*
X67426666Y-134073390D01*
X67426666Y-134073390D02*
X66855238Y-134644819D01*
X66855238Y-134644819D02*
X67474285Y-134644819D01*
X100473333Y-125474819D02*
X100140000Y-124998628D01*
X99901905Y-125474819D02*
X99901905Y-124474819D01*
X99901905Y-124474819D02*
X100282857Y-124474819D01*
X100282857Y-124474819D02*
X100378095Y-124522438D01*
X100378095Y-124522438D02*
X100425714Y-124570057D01*
X100425714Y-124570057D02*
X100473333Y-124665295D01*
X100473333Y-124665295D02*
X100473333Y-124808152D01*
X100473333Y-124808152D02*
X100425714Y-124903390D01*
X100425714Y-124903390D02*
X100378095Y-124951009D01*
X100378095Y-124951009D02*
X100282857Y-124998628D01*
X100282857Y-124998628D02*
X99901905Y-124998628D01*
X101330476Y-124474819D02*
X101140000Y-124474819D01*
X101140000Y-124474819D02*
X101044762Y-124522438D01*
X101044762Y-124522438D02*
X100997143Y-124570057D01*
X100997143Y-124570057D02*
X100901905Y-124712914D01*
X100901905Y-124712914D02*
X100854286Y-124903390D01*
X100854286Y-124903390D02*
X100854286Y-125284342D01*
X100854286Y-125284342D02*
X100901905Y-125379580D01*
X100901905Y-125379580D02*
X100949524Y-125427200D01*
X100949524Y-125427200D02*
X101044762Y-125474819D01*
X101044762Y-125474819D02*
X101235238Y-125474819D01*
X101235238Y-125474819D02*
X101330476Y-125427200D01*
X101330476Y-125427200D02*
X101378095Y-125379580D01*
X101378095Y-125379580D02*
X101425714Y-125284342D01*
X101425714Y-125284342D02*
X101425714Y-125046247D01*
X101425714Y-125046247D02*
X101378095Y-124951009D01*
X101378095Y-124951009D02*
X101330476Y-124903390D01*
X101330476Y-124903390D02*
X101235238Y-124855771D01*
X101235238Y-124855771D02*
X101044762Y-124855771D01*
X101044762Y-124855771D02*
X100949524Y-124903390D01*
X100949524Y-124903390D02*
X100901905Y-124951009D01*
X100901905Y-124951009D02*
X100854286Y-125046247D01*
X116238095Y-120842319D02*
X116238095Y-121651842D01*
X116238095Y-121651842D02*
X116285714Y-121747080D01*
X116285714Y-121747080D02*
X116333333Y-121794700D01*
X116333333Y-121794700D02*
X116428571Y-121842319D01*
X116428571Y-121842319D02*
X116619047Y-121842319D01*
X116619047Y-121842319D02*
X116714285Y-121794700D01*
X116714285Y-121794700D02*
X116761904Y-121747080D01*
X116761904Y-121747080D02*
X116809523Y-121651842D01*
X116809523Y-121651842D02*
X116809523Y-120842319D01*
X117809523Y-121842319D02*
X117238095Y-121842319D01*
X117523809Y-121842319D02*
X117523809Y-120842319D01*
X117523809Y-120842319D02*
X117428571Y-120985176D01*
X117428571Y-120985176D02*
X117333333Y-121080414D01*
X117333333Y-121080414D02*
X117238095Y-121128033D01*
X122359580Y-119031429D02*
X122407200Y-119079048D01*
X122407200Y-119079048D02*
X122454819Y-119221905D01*
X122454819Y-119221905D02*
X122454819Y-119317143D01*
X122454819Y-119317143D02*
X122407200Y-119460000D01*
X122407200Y-119460000D02*
X122311961Y-119555238D01*
X122311961Y-119555238D02*
X122216723Y-119602857D01*
X122216723Y-119602857D02*
X122026247Y-119650476D01*
X122026247Y-119650476D02*
X121883390Y-119650476D01*
X121883390Y-119650476D02*
X121692914Y-119602857D01*
X121692914Y-119602857D02*
X121597676Y-119555238D01*
X121597676Y-119555238D02*
X121502438Y-119460000D01*
X121502438Y-119460000D02*
X121454819Y-119317143D01*
X121454819Y-119317143D02*
X121454819Y-119221905D01*
X121454819Y-119221905D02*
X121502438Y-119079048D01*
X121502438Y-119079048D02*
X121550057Y-119031429D01*
X122454819Y-118602857D02*
X121454819Y-118602857D01*
X122454819Y-118174286D02*
X121931009Y-118174286D01*
X121931009Y-118174286D02*
X121835771Y-118221905D01*
X121835771Y-118221905D02*
X121788152Y-118317143D01*
X121788152Y-118317143D02*
X121788152Y-118460000D01*
X121788152Y-118460000D02*
X121835771Y-118555238D01*
X121835771Y-118555238D02*
X121883390Y-118602857D01*
X122454819Y-117269524D02*
X121931009Y-117269524D01*
X121931009Y-117269524D02*
X121835771Y-117317143D01*
X121835771Y-117317143D02*
X121788152Y-117412381D01*
X121788152Y-117412381D02*
X121788152Y-117602857D01*
X121788152Y-117602857D02*
X121835771Y-117698095D01*
X122407200Y-117269524D02*
X122454819Y-117364762D01*
X122454819Y-117364762D02*
X122454819Y-117602857D01*
X122454819Y-117602857D02*
X122407200Y-117698095D01*
X122407200Y-117698095D02*
X122311961Y-117745714D01*
X122311961Y-117745714D02*
X122216723Y-117745714D01*
X122216723Y-117745714D02*
X122121485Y-117698095D01*
X122121485Y-117698095D02*
X122073866Y-117602857D01*
X122073866Y-117602857D02*
X122073866Y-117364762D01*
X122073866Y-117364762D02*
X122026247Y-117269524D01*
X122454819Y-116793333D02*
X121788152Y-116793333D01*
X121978628Y-116793333D02*
X121883390Y-116745714D01*
X121883390Y-116745714D02*
X121835771Y-116698095D01*
X121835771Y-116698095D02*
X121788152Y-116602857D01*
X121788152Y-116602857D02*
X121788152Y-116507619D01*
X121788152Y-115745714D02*
X122597676Y-115745714D01*
X122597676Y-115745714D02*
X122692914Y-115793333D01*
X122692914Y-115793333D02*
X122740533Y-115840952D01*
X122740533Y-115840952D02*
X122788152Y-115936190D01*
X122788152Y-115936190D02*
X122788152Y-116079047D01*
X122788152Y-116079047D02*
X122740533Y-116174285D01*
X122407200Y-115745714D02*
X122454819Y-115840952D01*
X122454819Y-115840952D02*
X122454819Y-116031428D01*
X122454819Y-116031428D02*
X122407200Y-116126666D01*
X122407200Y-116126666D02*
X122359580Y-116174285D01*
X122359580Y-116174285D02*
X122264342Y-116221904D01*
X122264342Y-116221904D02*
X121978628Y-116221904D01*
X121978628Y-116221904D02*
X121883390Y-116174285D01*
X121883390Y-116174285D02*
X121835771Y-116126666D01*
X121835771Y-116126666D02*
X121788152Y-116031428D01*
X121788152Y-116031428D02*
X121788152Y-115840952D01*
X121788152Y-115840952D02*
X121835771Y-115745714D01*
X122407200Y-114888571D02*
X122454819Y-114983809D01*
X122454819Y-114983809D02*
X122454819Y-115174285D01*
X122454819Y-115174285D02*
X122407200Y-115269523D01*
X122407200Y-115269523D02*
X122311961Y-115317142D01*
X122311961Y-115317142D02*
X121931009Y-115317142D01*
X121931009Y-115317142D02*
X121835771Y-115269523D01*
X121835771Y-115269523D02*
X121788152Y-115174285D01*
X121788152Y-115174285D02*
X121788152Y-114983809D01*
X121788152Y-114983809D02*
X121835771Y-114888571D01*
X121835771Y-114888571D02*
X121931009Y-114840952D01*
X121931009Y-114840952D02*
X122026247Y-114840952D01*
X122026247Y-114840952D02*
X122121485Y-115317142D01*
X122454819Y-114412380D02*
X121788152Y-114412380D01*
X121978628Y-114412380D02*
X121883390Y-114364761D01*
X121883390Y-114364761D02*
X121835771Y-114317142D01*
X121835771Y-114317142D02*
X121788152Y-114221904D01*
X121788152Y-114221904D02*
X121788152Y-114126666D01*
X122454819Y-113269523D02*
X122454819Y-113840951D01*
X122454819Y-113555237D02*
X121454819Y-113555237D01*
X121454819Y-113555237D02*
X121597676Y-113650475D01*
X121597676Y-113650475D02*
X121692914Y-113745713D01*
X121692914Y-113745713D02*
X121740533Y-113840951D01*
X73186666Y-130132295D02*
X72805714Y-130132295D01*
X72805714Y-130132295D02*
X72805714Y-129332295D01*
X73415237Y-129408485D02*
X73453333Y-129370390D01*
X73453333Y-129370390D02*
X73529523Y-129332295D01*
X73529523Y-129332295D02*
X73719999Y-129332295D01*
X73719999Y-129332295D02*
X73796190Y-129370390D01*
X73796190Y-129370390D02*
X73834285Y-129408485D01*
X73834285Y-129408485D02*
X73872380Y-129484676D01*
X73872380Y-129484676D02*
X73872380Y-129560866D01*
X73872380Y-129560866D02*
X73834285Y-129675152D01*
X73834285Y-129675152D02*
X73377142Y-130132295D01*
X73377142Y-130132295D02*
X73872380Y-130132295D01*
X62467142Y-133179580D02*
X62419523Y-133227200D01*
X62419523Y-133227200D02*
X62276666Y-133274819D01*
X62276666Y-133274819D02*
X62181428Y-133274819D01*
X62181428Y-133274819D02*
X62038571Y-133227200D01*
X62038571Y-133227200D02*
X61943333Y-133131961D01*
X61943333Y-133131961D02*
X61895714Y-133036723D01*
X61895714Y-133036723D02*
X61848095Y-132846247D01*
X61848095Y-132846247D02*
X61848095Y-132703390D01*
X61848095Y-132703390D02*
X61895714Y-132512914D01*
X61895714Y-132512914D02*
X61943333Y-132417676D01*
X61943333Y-132417676D02*
X62038571Y-132322438D01*
X62038571Y-132322438D02*
X62181428Y-132274819D01*
X62181428Y-132274819D02*
X62276666Y-132274819D01*
X62276666Y-132274819D02*
X62419523Y-132322438D01*
X62419523Y-132322438D02*
X62467142Y-132370057D01*
X62848095Y-132370057D02*
X62895714Y-132322438D01*
X62895714Y-132322438D02*
X62990952Y-132274819D01*
X62990952Y-132274819D02*
X63229047Y-132274819D01*
X63229047Y-132274819D02*
X63324285Y-132322438D01*
X63324285Y-132322438D02*
X63371904Y-132370057D01*
X63371904Y-132370057D02*
X63419523Y-132465295D01*
X63419523Y-132465295D02*
X63419523Y-132560533D01*
X63419523Y-132560533D02*
X63371904Y-132703390D01*
X63371904Y-132703390D02*
X62800476Y-133274819D01*
X62800476Y-133274819D02*
X63419523Y-133274819D01*
X63752857Y-132274819D02*
X64419523Y-132274819D01*
X64419523Y-132274819D02*
X63990952Y-133274819D01*
X98577142Y-142739580D02*
X98529523Y-142787200D01*
X98529523Y-142787200D02*
X98386666Y-142834819D01*
X98386666Y-142834819D02*
X98291428Y-142834819D01*
X98291428Y-142834819D02*
X98148571Y-142787200D01*
X98148571Y-142787200D02*
X98053333Y-142691961D01*
X98053333Y-142691961D02*
X98005714Y-142596723D01*
X98005714Y-142596723D02*
X97958095Y-142406247D01*
X97958095Y-142406247D02*
X97958095Y-142263390D01*
X97958095Y-142263390D02*
X98005714Y-142072914D01*
X98005714Y-142072914D02*
X98053333Y-141977676D01*
X98053333Y-141977676D02*
X98148571Y-141882438D01*
X98148571Y-141882438D02*
X98291428Y-141834819D01*
X98291428Y-141834819D02*
X98386666Y-141834819D01*
X98386666Y-141834819D02*
X98529523Y-141882438D01*
X98529523Y-141882438D02*
X98577142Y-141930057D01*
X99529523Y-142834819D02*
X98958095Y-142834819D01*
X99243809Y-142834819D02*
X99243809Y-141834819D01*
X99243809Y-141834819D02*
X99148571Y-141977676D01*
X99148571Y-141977676D02*
X99053333Y-142072914D01*
X99053333Y-142072914D02*
X98958095Y-142120533D01*
X100386666Y-141834819D02*
X100196190Y-141834819D01*
X100196190Y-141834819D02*
X100100952Y-141882438D01*
X100100952Y-141882438D02*
X100053333Y-141930057D01*
X100053333Y-141930057D02*
X99958095Y-142072914D01*
X99958095Y-142072914D02*
X99910476Y-142263390D01*
X99910476Y-142263390D02*
X99910476Y-142644342D01*
X99910476Y-142644342D02*
X99958095Y-142739580D01*
X99958095Y-142739580D02*
X100005714Y-142787200D01*
X100005714Y-142787200D02*
X100100952Y-142834819D01*
X100100952Y-142834819D02*
X100291428Y-142834819D01*
X100291428Y-142834819D02*
X100386666Y-142787200D01*
X100386666Y-142787200D02*
X100434285Y-142739580D01*
X100434285Y-142739580D02*
X100481904Y-142644342D01*
X100481904Y-142644342D02*
X100481904Y-142406247D01*
X100481904Y-142406247D02*
X100434285Y-142311009D01*
X100434285Y-142311009D02*
X100386666Y-142263390D01*
X100386666Y-142263390D02*
X100291428Y-142215771D01*
X100291428Y-142215771D02*
X100100952Y-142215771D01*
X100100952Y-142215771D02*
X100005714Y-142263390D01*
X100005714Y-142263390D02*
X99958095Y-142311009D01*
X99958095Y-142311009D02*
X99910476Y-142406247D01*
X73573333Y-154914819D02*
X73240000Y-154438628D01*
X73001905Y-154914819D02*
X73001905Y-153914819D01*
X73001905Y-153914819D02*
X73382857Y-153914819D01*
X73382857Y-153914819D02*
X73478095Y-153962438D01*
X73478095Y-153962438D02*
X73525714Y-154010057D01*
X73525714Y-154010057D02*
X73573333Y-154105295D01*
X73573333Y-154105295D02*
X73573333Y-154248152D01*
X73573333Y-154248152D02*
X73525714Y-154343390D01*
X73525714Y-154343390D02*
X73478095Y-154391009D01*
X73478095Y-154391009D02*
X73382857Y-154438628D01*
X73382857Y-154438628D02*
X73001905Y-154438628D01*
X73906667Y-153914819D02*
X74525714Y-153914819D01*
X74525714Y-153914819D02*
X74192381Y-154295771D01*
X74192381Y-154295771D02*
X74335238Y-154295771D01*
X74335238Y-154295771D02*
X74430476Y-154343390D01*
X74430476Y-154343390D02*
X74478095Y-154391009D01*
X74478095Y-154391009D02*
X74525714Y-154486247D01*
X74525714Y-154486247D02*
X74525714Y-154724342D01*
X74525714Y-154724342D02*
X74478095Y-154819580D01*
X74478095Y-154819580D02*
X74430476Y-154867200D01*
X74430476Y-154867200D02*
X74335238Y-154914819D01*
X74335238Y-154914819D02*
X74049524Y-154914819D01*
X74049524Y-154914819D02*
X73954286Y-154867200D01*
X73954286Y-154867200D02*
X73906667Y-154819580D01*
X52664595Y-129762200D02*
X52807452Y-129809819D01*
X52807452Y-129809819D02*
X53045547Y-129809819D01*
X53045547Y-129809819D02*
X53140785Y-129762200D01*
X53140785Y-129762200D02*
X53188404Y-129714580D01*
X53188404Y-129714580D02*
X53236023Y-129619342D01*
X53236023Y-129619342D02*
X53236023Y-129524104D01*
X53236023Y-129524104D02*
X53188404Y-129428866D01*
X53188404Y-129428866D02*
X53140785Y-129381247D01*
X53140785Y-129381247D02*
X53045547Y-129333628D01*
X53045547Y-129333628D02*
X52855071Y-129286009D01*
X52855071Y-129286009D02*
X52759833Y-129238390D01*
X52759833Y-129238390D02*
X52712214Y-129190771D01*
X52712214Y-129190771D02*
X52664595Y-129095533D01*
X52664595Y-129095533D02*
X52664595Y-129000295D01*
X52664595Y-129000295D02*
X52712214Y-128905057D01*
X52712214Y-128905057D02*
X52759833Y-128857438D01*
X52759833Y-128857438D02*
X52855071Y-128809819D01*
X52855071Y-128809819D02*
X53093166Y-128809819D01*
X53093166Y-128809819D02*
X53236023Y-128857438D01*
X53616976Y-128905057D02*
X53664595Y-128857438D01*
X53664595Y-128857438D02*
X53759833Y-128809819D01*
X53759833Y-128809819D02*
X53997928Y-128809819D01*
X53997928Y-128809819D02*
X54093166Y-128857438D01*
X54093166Y-128857438D02*
X54140785Y-128905057D01*
X54140785Y-128905057D02*
X54188404Y-129000295D01*
X54188404Y-129000295D02*
X54188404Y-129095533D01*
X54188404Y-129095533D02*
X54140785Y-129238390D01*
X54140785Y-129238390D02*
X53569357Y-129809819D01*
X53569357Y-129809819D02*
X54188404Y-129809819D01*
X98247142Y-146459580D02*
X98199523Y-146507200D01*
X98199523Y-146507200D02*
X98056666Y-146554819D01*
X98056666Y-146554819D02*
X97961428Y-146554819D01*
X97961428Y-146554819D02*
X97818571Y-146507200D01*
X97818571Y-146507200D02*
X97723333Y-146411961D01*
X97723333Y-146411961D02*
X97675714Y-146316723D01*
X97675714Y-146316723D02*
X97628095Y-146126247D01*
X97628095Y-146126247D02*
X97628095Y-145983390D01*
X97628095Y-145983390D02*
X97675714Y-145792914D01*
X97675714Y-145792914D02*
X97723333Y-145697676D01*
X97723333Y-145697676D02*
X97818571Y-145602438D01*
X97818571Y-145602438D02*
X97961428Y-145554819D01*
X97961428Y-145554819D02*
X98056666Y-145554819D01*
X98056666Y-145554819D02*
X98199523Y-145602438D01*
X98199523Y-145602438D02*
X98247142Y-145650057D01*
X99199523Y-146554819D02*
X98628095Y-146554819D01*
X98913809Y-146554819D02*
X98913809Y-145554819D01*
X98913809Y-145554819D02*
X98818571Y-145697676D01*
X98818571Y-145697676D02*
X98723333Y-145792914D01*
X98723333Y-145792914D02*
X98628095Y-145840533D01*
X100056666Y-145888152D02*
X100056666Y-146554819D01*
X99818571Y-145507200D02*
X99580476Y-146221485D01*
X99580476Y-146221485D02*
X100199523Y-146221485D01*
X84214285Y-100931009D02*
X84357142Y-100978628D01*
X84357142Y-100978628D02*
X84404761Y-101026247D01*
X84404761Y-101026247D02*
X84452380Y-101121485D01*
X84452380Y-101121485D02*
X84452380Y-101264342D01*
X84452380Y-101264342D02*
X84404761Y-101359580D01*
X84404761Y-101359580D02*
X84357142Y-101407200D01*
X84357142Y-101407200D02*
X84261904Y-101454819D01*
X84261904Y-101454819D02*
X83880952Y-101454819D01*
X83880952Y-101454819D02*
X83880952Y-100454819D01*
X83880952Y-100454819D02*
X84214285Y-100454819D01*
X84214285Y-100454819D02*
X84309523Y-100502438D01*
X84309523Y-100502438D02*
X84357142Y-100550057D01*
X84357142Y-100550057D02*
X84404761Y-100645295D01*
X84404761Y-100645295D02*
X84404761Y-100740533D01*
X84404761Y-100740533D02*
X84357142Y-100835771D01*
X84357142Y-100835771D02*
X84309523Y-100883390D01*
X84309523Y-100883390D02*
X84214285Y-100931009D01*
X84214285Y-100931009D02*
X83880952Y-100931009D01*
X84738095Y-100454819D02*
X85309523Y-100454819D01*
X85023809Y-101454819D02*
X85023809Y-100454819D01*
X86166666Y-101454819D02*
X85595238Y-101454819D01*
X85880952Y-101454819D02*
X85880952Y-100454819D01*
X85880952Y-100454819D02*
X85785714Y-100597676D01*
X85785714Y-100597676D02*
X85690476Y-100692914D01*
X85690476Y-100692914D02*
X85595238Y-100740533D01*
X100134819Y-123731904D02*
X100944342Y-123731904D01*
X100944342Y-123731904D02*
X101039580Y-123684285D01*
X101039580Y-123684285D02*
X101087200Y-123636666D01*
X101087200Y-123636666D02*
X101134819Y-123541428D01*
X101134819Y-123541428D02*
X101134819Y-123350952D01*
X101134819Y-123350952D02*
X101087200Y-123255714D01*
X101087200Y-123255714D02*
X101039580Y-123208095D01*
X101039580Y-123208095D02*
X100944342Y-123160476D01*
X100944342Y-123160476D02*
X100134819Y-123160476D01*
X100134819Y-122255714D02*
X100134819Y-122446190D01*
X100134819Y-122446190D02*
X100182438Y-122541428D01*
X100182438Y-122541428D02*
X100230057Y-122589047D01*
X100230057Y-122589047D02*
X100372914Y-122684285D01*
X100372914Y-122684285D02*
X100563390Y-122731904D01*
X100563390Y-122731904D02*
X100944342Y-122731904D01*
X100944342Y-122731904D02*
X101039580Y-122684285D01*
X101039580Y-122684285D02*
X101087200Y-122636666D01*
X101087200Y-122636666D02*
X101134819Y-122541428D01*
X101134819Y-122541428D02*
X101134819Y-122350952D01*
X101134819Y-122350952D02*
X101087200Y-122255714D01*
X101087200Y-122255714D02*
X101039580Y-122208095D01*
X101039580Y-122208095D02*
X100944342Y-122160476D01*
X100944342Y-122160476D02*
X100706247Y-122160476D01*
X100706247Y-122160476D02*
X100611009Y-122208095D01*
X100611009Y-122208095D02*
X100563390Y-122255714D01*
X100563390Y-122255714D02*
X100515771Y-122350952D01*
X100515771Y-122350952D02*
X100515771Y-122541428D01*
X100515771Y-122541428D02*
X100563390Y-122636666D01*
X100563390Y-122636666D02*
X100611009Y-122684285D01*
X100611009Y-122684285D02*
X100706247Y-122731904D01*
X104578095Y-158394819D02*
X104578095Y-159204342D01*
X104578095Y-159204342D02*
X104625714Y-159299580D01*
X104625714Y-159299580D02*
X104673333Y-159347200D01*
X104673333Y-159347200D02*
X104768571Y-159394819D01*
X104768571Y-159394819D02*
X104959047Y-159394819D01*
X104959047Y-159394819D02*
X105054285Y-159347200D01*
X105054285Y-159347200D02*
X105101904Y-159299580D01*
X105101904Y-159299580D02*
X105149523Y-159204342D01*
X105149523Y-159204342D02*
X105149523Y-158394819D01*
X106101904Y-158394819D02*
X105625714Y-158394819D01*
X105625714Y-158394819D02*
X105578095Y-158871009D01*
X105578095Y-158871009D02*
X105625714Y-158823390D01*
X105625714Y-158823390D02*
X105720952Y-158775771D01*
X105720952Y-158775771D02*
X105959047Y-158775771D01*
X105959047Y-158775771D02*
X106054285Y-158823390D01*
X106054285Y-158823390D02*
X106101904Y-158871009D01*
X106101904Y-158871009D02*
X106149523Y-158966247D01*
X106149523Y-158966247D02*
X106149523Y-159204342D01*
X106149523Y-159204342D02*
X106101904Y-159299580D01*
X106101904Y-159299580D02*
X106054285Y-159347200D01*
X106054285Y-159347200D02*
X105959047Y-159394819D01*
X105959047Y-159394819D02*
X105720952Y-159394819D01*
X105720952Y-159394819D02*
X105625714Y-159347200D01*
X105625714Y-159347200D02*
X105578095Y-159299580D01*
X123454819Y-156321428D02*
X124264342Y-156321428D01*
X124264342Y-156321428D02*
X124359580Y-156273809D01*
X124359580Y-156273809D02*
X124407200Y-156226190D01*
X124407200Y-156226190D02*
X124454819Y-156130952D01*
X124454819Y-156130952D02*
X124454819Y-155940476D01*
X124454819Y-155940476D02*
X124407200Y-155845238D01*
X124407200Y-155845238D02*
X124359580Y-155797619D01*
X124359580Y-155797619D02*
X124264342Y-155750000D01*
X124264342Y-155750000D02*
X123454819Y-155750000D01*
X124169104Y-155321428D02*
X124169104Y-154845238D01*
X124454819Y-155416666D02*
X123454819Y-155083333D01*
X123454819Y-155083333D02*
X124454819Y-154750000D01*
X124454819Y-153845238D02*
X123978628Y-154178571D01*
X124454819Y-154416666D02*
X123454819Y-154416666D01*
X123454819Y-154416666D02*
X123454819Y-154035714D01*
X123454819Y-154035714D02*
X123502438Y-153940476D01*
X123502438Y-153940476D02*
X123550057Y-153892857D01*
X123550057Y-153892857D02*
X123645295Y-153845238D01*
X123645295Y-153845238D02*
X123788152Y-153845238D01*
X123788152Y-153845238D02*
X123883390Y-153892857D01*
X123883390Y-153892857D02*
X123931009Y-153940476D01*
X123931009Y-153940476D02*
X123978628Y-154035714D01*
X123978628Y-154035714D02*
X123978628Y-154416666D01*
X123454819Y-153559523D02*
X123454819Y-152988095D01*
X124454819Y-153273809D02*
X123454819Y-153273809D01*
X124454819Y-152130952D02*
X124454819Y-152702380D01*
X124454819Y-152416666D02*
X123454819Y-152416666D01*
X123454819Y-152416666D02*
X123597676Y-152511904D01*
X123597676Y-152511904D02*
X123692914Y-152607142D01*
X123692914Y-152607142D02*
X123740533Y-152702380D01*
X98627142Y-140499580D02*
X98579523Y-140547200D01*
X98579523Y-140547200D02*
X98436666Y-140594819D01*
X98436666Y-140594819D02*
X98341428Y-140594819D01*
X98341428Y-140594819D02*
X98198571Y-140547200D01*
X98198571Y-140547200D02*
X98103333Y-140451961D01*
X98103333Y-140451961D02*
X98055714Y-140356723D01*
X98055714Y-140356723D02*
X98008095Y-140166247D01*
X98008095Y-140166247D02*
X98008095Y-140023390D01*
X98008095Y-140023390D02*
X98055714Y-139832914D01*
X98055714Y-139832914D02*
X98103333Y-139737676D01*
X98103333Y-139737676D02*
X98198571Y-139642438D01*
X98198571Y-139642438D02*
X98341428Y-139594819D01*
X98341428Y-139594819D02*
X98436666Y-139594819D01*
X98436666Y-139594819D02*
X98579523Y-139642438D01*
X98579523Y-139642438D02*
X98627142Y-139690057D01*
X99579523Y-140594819D02*
X99008095Y-140594819D01*
X99293809Y-140594819D02*
X99293809Y-139594819D01*
X99293809Y-139594819D02*
X99198571Y-139737676D01*
X99198571Y-139737676D02*
X99103333Y-139832914D01*
X99103333Y-139832914D02*
X99008095Y-139880533D01*
X99912857Y-139594819D02*
X100531904Y-139594819D01*
X100531904Y-139594819D02*
X100198571Y-139975771D01*
X100198571Y-139975771D02*
X100341428Y-139975771D01*
X100341428Y-139975771D02*
X100436666Y-140023390D01*
X100436666Y-140023390D02*
X100484285Y-140071009D01*
X100484285Y-140071009D02*
X100531904Y-140166247D01*
X100531904Y-140166247D02*
X100531904Y-140404342D01*
X100531904Y-140404342D02*
X100484285Y-140499580D01*
X100484285Y-140499580D02*
X100436666Y-140547200D01*
X100436666Y-140547200D02*
X100341428Y-140594819D01*
X100341428Y-140594819D02*
X100055714Y-140594819D01*
X100055714Y-140594819D02*
X99960476Y-140547200D01*
X99960476Y-140547200D02*
X99912857Y-140499580D01*
X74199047Y-110981009D02*
X74341904Y-111028628D01*
X74341904Y-111028628D02*
X74389523Y-111076247D01*
X74389523Y-111076247D02*
X74437142Y-111171485D01*
X74437142Y-111171485D02*
X74437142Y-111314342D01*
X74437142Y-111314342D02*
X74389523Y-111409580D01*
X74389523Y-111409580D02*
X74341904Y-111457200D01*
X74341904Y-111457200D02*
X74246666Y-111504819D01*
X74246666Y-111504819D02*
X73865714Y-111504819D01*
X73865714Y-111504819D02*
X73865714Y-110504819D01*
X73865714Y-110504819D02*
X74199047Y-110504819D01*
X74199047Y-110504819D02*
X74294285Y-110552438D01*
X74294285Y-110552438D02*
X74341904Y-110600057D01*
X74341904Y-110600057D02*
X74389523Y-110695295D01*
X74389523Y-110695295D02*
X74389523Y-110790533D01*
X74389523Y-110790533D02*
X74341904Y-110885771D01*
X74341904Y-110885771D02*
X74294285Y-110933390D01*
X74294285Y-110933390D02*
X74199047Y-110981009D01*
X74199047Y-110981009D02*
X73865714Y-110981009D01*
X74770476Y-110504819D02*
X75437142Y-110504819D01*
X75437142Y-110504819D02*
X74770476Y-111504819D01*
X74770476Y-111504819D02*
X75437142Y-111504819D01*
X76341904Y-111504819D02*
X75770476Y-111504819D01*
X76056190Y-111504819D02*
X76056190Y-110504819D01*
X76056190Y-110504819D02*
X75960952Y-110647676D01*
X75960952Y-110647676D02*
X75865714Y-110742914D01*
X75865714Y-110742914D02*
X75770476Y-110790533D01*
X70889048Y-115783866D02*
X71650953Y-115783866D01*
X71270000Y-116164819D02*
X71270000Y-115402914D01*
X75093333Y-143159580D02*
X75045714Y-143207200D01*
X75045714Y-143207200D02*
X74902857Y-143254819D01*
X74902857Y-143254819D02*
X74807619Y-143254819D01*
X74807619Y-143254819D02*
X74664762Y-143207200D01*
X74664762Y-143207200D02*
X74569524Y-143111961D01*
X74569524Y-143111961D02*
X74521905Y-143016723D01*
X74521905Y-143016723D02*
X74474286Y-142826247D01*
X74474286Y-142826247D02*
X74474286Y-142683390D01*
X74474286Y-142683390D02*
X74521905Y-142492914D01*
X74521905Y-142492914D02*
X74569524Y-142397676D01*
X74569524Y-142397676D02*
X74664762Y-142302438D01*
X74664762Y-142302438D02*
X74807619Y-142254819D01*
X74807619Y-142254819D02*
X74902857Y-142254819D01*
X74902857Y-142254819D02*
X75045714Y-142302438D01*
X75045714Y-142302438D02*
X75093333Y-142350057D01*
X75426667Y-142254819D02*
X76093333Y-142254819D01*
X76093333Y-142254819D02*
X75664762Y-143254819D01*
X93583333Y-126719580D02*
X93535714Y-126767200D01*
X93535714Y-126767200D02*
X93392857Y-126814819D01*
X93392857Y-126814819D02*
X93297619Y-126814819D01*
X93297619Y-126814819D02*
X93154762Y-126767200D01*
X93154762Y-126767200D02*
X93059524Y-126671961D01*
X93059524Y-126671961D02*
X93011905Y-126576723D01*
X93011905Y-126576723D02*
X92964286Y-126386247D01*
X92964286Y-126386247D02*
X92964286Y-126243390D01*
X92964286Y-126243390D02*
X93011905Y-126052914D01*
X93011905Y-126052914D02*
X93059524Y-125957676D01*
X93059524Y-125957676D02*
X93154762Y-125862438D01*
X93154762Y-125862438D02*
X93297619Y-125814819D01*
X93297619Y-125814819D02*
X93392857Y-125814819D01*
X93392857Y-125814819D02*
X93535714Y-125862438D01*
X93535714Y-125862438D02*
X93583333Y-125910057D01*
X93916667Y-125814819D02*
X94535714Y-125814819D01*
X94535714Y-125814819D02*
X94202381Y-126195771D01*
X94202381Y-126195771D02*
X94345238Y-126195771D01*
X94345238Y-126195771D02*
X94440476Y-126243390D01*
X94440476Y-126243390D02*
X94488095Y-126291009D01*
X94488095Y-126291009D02*
X94535714Y-126386247D01*
X94535714Y-126386247D02*
X94535714Y-126624342D01*
X94535714Y-126624342D02*
X94488095Y-126719580D01*
X94488095Y-126719580D02*
X94440476Y-126767200D01*
X94440476Y-126767200D02*
X94345238Y-126814819D01*
X94345238Y-126814819D02*
X94059524Y-126814819D01*
X94059524Y-126814819D02*
X93964286Y-126767200D01*
X93964286Y-126767200D02*
X93916667Y-126719580D01*
X62587142Y-135939580D02*
X62539523Y-135987200D01*
X62539523Y-135987200D02*
X62396666Y-136034819D01*
X62396666Y-136034819D02*
X62301428Y-136034819D01*
X62301428Y-136034819D02*
X62158571Y-135987200D01*
X62158571Y-135987200D02*
X62063333Y-135891961D01*
X62063333Y-135891961D02*
X62015714Y-135796723D01*
X62015714Y-135796723D02*
X61968095Y-135606247D01*
X61968095Y-135606247D02*
X61968095Y-135463390D01*
X61968095Y-135463390D02*
X62015714Y-135272914D01*
X62015714Y-135272914D02*
X62063333Y-135177676D01*
X62063333Y-135177676D02*
X62158571Y-135082438D01*
X62158571Y-135082438D02*
X62301428Y-135034819D01*
X62301428Y-135034819D02*
X62396666Y-135034819D01*
X62396666Y-135034819D02*
X62539523Y-135082438D01*
X62539523Y-135082438D02*
X62587142Y-135130057D01*
X62968095Y-135130057D02*
X63015714Y-135082438D01*
X63015714Y-135082438D02*
X63110952Y-135034819D01*
X63110952Y-135034819D02*
X63349047Y-135034819D01*
X63349047Y-135034819D02*
X63444285Y-135082438D01*
X63444285Y-135082438D02*
X63491904Y-135130057D01*
X63491904Y-135130057D02*
X63539523Y-135225295D01*
X63539523Y-135225295D02*
X63539523Y-135320533D01*
X63539523Y-135320533D02*
X63491904Y-135463390D01*
X63491904Y-135463390D02*
X62920476Y-136034819D01*
X62920476Y-136034819D02*
X63539523Y-136034819D01*
X64444285Y-135034819D02*
X63968095Y-135034819D01*
X63968095Y-135034819D02*
X63920476Y-135511009D01*
X63920476Y-135511009D02*
X63968095Y-135463390D01*
X63968095Y-135463390D02*
X64063333Y-135415771D01*
X64063333Y-135415771D02*
X64301428Y-135415771D01*
X64301428Y-135415771D02*
X64396666Y-135463390D01*
X64396666Y-135463390D02*
X64444285Y-135511009D01*
X64444285Y-135511009D02*
X64491904Y-135606247D01*
X64491904Y-135606247D02*
X64491904Y-135844342D01*
X64491904Y-135844342D02*
X64444285Y-135939580D01*
X64444285Y-135939580D02*
X64396666Y-135987200D01*
X64396666Y-135987200D02*
X64301428Y-136034819D01*
X64301428Y-136034819D02*
X64063333Y-136034819D01*
X64063333Y-136034819D02*
X63968095Y-135987200D01*
X63968095Y-135987200D02*
X63920476Y-135939580D01*
X51225714Y-119556104D02*
X51187618Y-119594200D01*
X51187618Y-119594200D02*
X51073333Y-119632295D01*
X51073333Y-119632295D02*
X50997142Y-119632295D01*
X50997142Y-119632295D02*
X50882856Y-119594200D01*
X50882856Y-119594200D02*
X50806666Y-119518009D01*
X50806666Y-119518009D02*
X50768571Y-119441819D01*
X50768571Y-119441819D02*
X50730475Y-119289438D01*
X50730475Y-119289438D02*
X50730475Y-119175152D01*
X50730475Y-119175152D02*
X50768571Y-119022771D01*
X50768571Y-119022771D02*
X50806666Y-118946580D01*
X50806666Y-118946580D02*
X50882856Y-118870390D01*
X50882856Y-118870390D02*
X50997142Y-118832295D01*
X50997142Y-118832295D02*
X51073333Y-118832295D01*
X51073333Y-118832295D02*
X51187618Y-118870390D01*
X51187618Y-118870390D02*
X51225714Y-118908485D01*
X51530475Y-118908485D02*
X51568571Y-118870390D01*
X51568571Y-118870390D02*
X51644761Y-118832295D01*
X51644761Y-118832295D02*
X51835237Y-118832295D01*
X51835237Y-118832295D02*
X51911428Y-118870390D01*
X51911428Y-118870390D02*
X51949523Y-118908485D01*
X51949523Y-118908485D02*
X51987618Y-118984676D01*
X51987618Y-118984676D02*
X51987618Y-119060866D01*
X51987618Y-119060866D02*
X51949523Y-119175152D01*
X51949523Y-119175152D02*
X51492380Y-119632295D01*
X51492380Y-119632295D02*
X51987618Y-119632295D01*
X52749523Y-119632295D02*
X52292380Y-119632295D01*
X52520952Y-119632295D02*
X52520952Y-118832295D01*
X52520952Y-118832295D02*
X52444761Y-118946580D01*
X52444761Y-118946580D02*
X52368571Y-119022771D01*
X52368571Y-119022771D02*
X52292380Y-119060866D01*
X53894819Y-112582857D02*
X53418628Y-112916190D01*
X53894819Y-113154285D02*
X52894819Y-113154285D01*
X52894819Y-113154285D02*
X52894819Y-112773333D01*
X52894819Y-112773333D02*
X52942438Y-112678095D01*
X52942438Y-112678095D02*
X52990057Y-112630476D01*
X52990057Y-112630476D02*
X53085295Y-112582857D01*
X53085295Y-112582857D02*
X53228152Y-112582857D01*
X53228152Y-112582857D02*
X53323390Y-112630476D01*
X53323390Y-112630476D02*
X53371009Y-112678095D01*
X53371009Y-112678095D02*
X53418628Y-112773333D01*
X53418628Y-112773333D02*
X53418628Y-113154285D01*
X53894819Y-111630476D02*
X53894819Y-112201904D01*
X53894819Y-111916190D02*
X52894819Y-111916190D01*
X52894819Y-111916190D02*
X53037676Y-112011428D01*
X53037676Y-112011428D02*
X53132914Y-112106666D01*
X53132914Y-112106666D02*
X53180533Y-112201904D01*
X52894819Y-110725714D02*
X52894819Y-111201904D01*
X52894819Y-111201904D02*
X53371009Y-111249523D01*
X53371009Y-111249523D02*
X53323390Y-111201904D01*
X53323390Y-111201904D02*
X53275771Y-111106666D01*
X53275771Y-111106666D02*
X53275771Y-110868571D01*
X53275771Y-110868571D02*
X53323390Y-110773333D01*
X53323390Y-110773333D02*
X53371009Y-110725714D01*
X53371009Y-110725714D02*
X53466247Y-110678095D01*
X53466247Y-110678095D02*
X53704342Y-110678095D01*
X53704342Y-110678095D02*
X53799580Y-110725714D01*
X53799580Y-110725714D02*
X53847200Y-110773333D01*
X53847200Y-110773333D02*
X53894819Y-110868571D01*
X53894819Y-110868571D02*
X53894819Y-111106666D01*
X53894819Y-111106666D02*
X53847200Y-111201904D01*
X53847200Y-111201904D02*
X53799580Y-111249523D01*
X45654819Y-136543333D02*
X46369104Y-136543333D01*
X46369104Y-136543333D02*
X46511961Y-136590952D01*
X46511961Y-136590952D02*
X46607200Y-136686190D01*
X46607200Y-136686190D02*
X46654819Y-136829047D01*
X46654819Y-136829047D02*
X46654819Y-136924285D01*
X46654819Y-135543333D02*
X46654819Y-136114761D01*
X46654819Y-135829047D02*
X45654819Y-135829047D01*
X45654819Y-135829047D02*
X45797676Y-135924285D01*
X45797676Y-135924285D02*
X45892914Y-136019523D01*
X45892914Y-136019523D02*
X45940533Y-136114761D01*
X92437142Y-133959580D02*
X92389523Y-134007200D01*
X92389523Y-134007200D02*
X92246666Y-134054819D01*
X92246666Y-134054819D02*
X92151428Y-134054819D01*
X92151428Y-134054819D02*
X92008571Y-134007200D01*
X92008571Y-134007200D02*
X91913333Y-133911961D01*
X91913333Y-133911961D02*
X91865714Y-133816723D01*
X91865714Y-133816723D02*
X91818095Y-133626247D01*
X91818095Y-133626247D02*
X91818095Y-133483390D01*
X91818095Y-133483390D02*
X91865714Y-133292914D01*
X91865714Y-133292914D02*
X91913333Y-133197676D01*
X91913333Y-133197676D02*
X92008571Y-133102438D01*
X92008571Y-133102438D02*
X92151428Y-133054819D01*
X92151428Y-133054819D02*
X92246666Y-133054819D01*
X92246666Y-133054819D02*
X92389523Y-133102438D01*
X92389523Y-133102438D02*
X92437142Y-133150057D01*
X93389523Y-134054819D02*
X92818095Y-134054819D01*
X93103809Y-134054819D02*
X93103809Y-133054819D01*
X93103809Y-133054819D02*
X93008571Y-133197676D01*
X93008571Y-133197676D02*
X92913333Y-133292914D01*
X92913333Y-133292914D02*
X92818095Y-133340533D01*
X94008571Y-133054819D02*
X94103809Y-133054819D01*
X94103809Y-133054819D02*
X94199047Y-133102438D01*
X94199047Y-133102438D02*
X94246666Y-133150057D01*
X94246666Y-133150057D02*
X94294285Y-133245295D01*
X94294285Y-133245295D02*
X94341904Y-133435771D01*
X94341904Y-133435771D02*
X94341904Y-133673866D01*
X94341904Y-133673866D02*
X94294285Y-133864342D01*
X94294285Y-133864342D02*
X94246666Y-133959580D01*
X94246666Y-133959580D02*
X94199047Y-134007200D01*
X94199047Y-134007200D02*
X94103809Y-134054819D01*
X94103809Y-134054819D02*
X94008571Y-134054819D01*
X94008571Y-134054819D02*
X93913333Y-134007200D01*
X93913333Y-134007200D02*
X93865714Y-133959580D01*
X93865714Y-133959580D02*
X93818095Y-133864342D01*
X93818095Y-133864342D02*
X93770476Y-133673866D01*
X93770476Y-133673866D02*
X93770476Y-133435771D01*
X93770476Y-133435771D02*
X93818095Y-133245295D01*
X93818095Y-133245295D02*
X93865714Y-133150057D01*
X93865714Y-133150057D02*
X93913333Y-133102438D01*
X93913333Y-133102438D02*
X94008571Y-133054819D01*
X59797142Y-127639580D02*
X59749523Y-127687200D01*
X59749523Y-127687200D02*
X59606666Y-127734819D01*
X59606666Y-127734819D02*
X59511428Y-127734819D01*
X59511428Y-127734819D02*
X59368571Y-127687200D01*
X59368571Y-127687200D02*
X59273333Y-127591961D01*
X59273333Y-127591961D02*
X59225714Y-127496723D01*
X59225714Y-127496723D02*
X59178095Y-127306247D01*
X59178095Y-127306247D02*
X59178095Y-127163390D01*
X59178095Y-127163390D02*
X59225714Y-126972914D01*
X59225714Y-126972914D02*
X59273333Y-126877676D01*
X59273333Y-126877676D02*
X59368571Y-126782438D01*
X59368571Y-126782438D02*
X59511428Y-126734819D01*
X59511428Y-126734819D02*
X59606666Y-126734819D01*
X59606666Y-126734819D02*
X59749523Y-126782438D01*
X59749523Y-126782438D02*
X59797142Y-126830057D01*
X60130476Y-126734819D02*
X60749523Y-126734819D01*
X60749523Y-126734819D02*
X60416190Y-127115771D01*
X60416190Y-127115771D02*
X60559047Y-127115771D01*
X60559047Y-127115771D02*
X60654285Y-127163390D01*
X60654285Y-127163390D02*
X60701904Y-127211009D01*
X60701904Y-127211009D02*
X60749523Y-127306247D01*
X60749523Y-127306247D02*
X60749523Y-127544342D01*
X60749523Y-127544342D02*
X60701904Y-127639580D01*
X60701904Y-127639580D02*
X60654285Y-127687200D01*
X60654285Y-127687200D02*
X60559047Y-127734819D01*
X60559047Y-127734819D02*
X60273333Y-127734819D01*
X60273333Y-127734819D02*
X60178095Y-127687200D01*
X60178095Y-127687200D02*
X60130476Y-127639580D01*
X61130476Y-126830057D02*
X61178095Y-126782438D01*
X61178095Y-126782438D02*
X61273333Y-126734819D01*
X61273333Y-126734819D02*
X61511428Y-126734819D01*
X61511428Y-126734819D02*
X61606666Y-126782438D01*
X61606666Y-126782438D02*
X61654285Y-126830057D01*
X61654285Y-126830057D02*
X61701904Y-126925295D01*
X61701904Y-126925295D02*
X61701904Y-127020533D01*
X61701904Y-127020533D02*
X61654285Y-127163390D01*
X61654285Y-127163390D02*
X61082857Y-127734819D01*
X61082857Y-127734819D02*
X61701904Y-127734819D01*
X74033333Y-151714819D02*
X73700000Y-151238628D01*
X73461905Y-151714819D02*
X73461905Y-150714819D01*
X73461905Y-150714819D02*
X73842857Y-150714819D01*
X73842857Y-150714819D02*
X73938095Y-150762438D01*
X73938095Y-150762438D02*
X73985714Y-150810057D01*
X73985714Y-150810057D02*
X74033333Y-150905295D01*
X74033333Y-150905295D02*
X74033333Y-151048152D01*
X74033333Y-151048152D02*
X73985714Y-151143390D01*
X73985714Y-151143390D02*
X73938095Y-151191009D01*
X73938095Y-151191009D02*
X73842857Y-151238628D01*
X73842857Y-151238628D02*
X73461905Y-151238628D01*
X74938095Y-150714819D02*
X74461905Y-150714819D01*
X74461905Y-150714819D02*
X74414286Y-151191009D01*
X74414286Y-151191009D02*
X74461905Y-151143390D01*
X74461905Y-151143390D02*
X74557143Y-151095771D01*
X74557143Y-151095771D02*
X74795238Y-151095771D01*
X74795238Y-151095771D02*
X74890476Y-151143390D01*
X74890476Y-151143390D02*
X74938095Y-151191009D01*
X74938095Y-151191009D02*
X74985714Y-151286247D01*
X74985714Y-151286247D02*
X74985714Y-151524342D01*
X74985714Y-151524342D02*
X74938095Y-151619580D01*
X74938095Y-151619580D02*
X74890476Y-151667200D01*
X74890476Y-151667200D02*
X74795238Y-151714819D01*
X74795238Y-151714819D02*
X74557143Y-151714819D01*
X74557143Y-151714819D02*
X74461905Y-151667200D01*
X74461905Y-151667200D02*
X74414286Y-151619580D01*
X60023333Y-124264819D02*
X59690000Y-123788628D01*
X59451905Y-124264819D02*
X59451905Y-123264819D01*
X59451905Y-123264819D02*
X59832857Y-123264819D01*
X59832857Y-123264819D02*
X59928095Y-123312438D01*
X59928095Y-123312438D02*
X59975714Y-123360057D01*
X59975714Y-123360057D02*
X60023333Y-123455295D01*
X60023333Y-123455295D02*
X60023333Y-123598152D01*
X60023333Y-123598152D02*
X59975714Y-123693390D01*
X59975714Y-123693390D02*
X59928095Y-123741009D01*
X59928095Y-123741009D02*
X59832857Y-123788628D01*
X59832857Y-123788628D02*
X59451905Y-123788628D01*
X60975714Y-124264819D02*
X60404286Y-124264819D01*
X60690000Y-124264819D02*
X60690000Y-123264819D01*
X60690000Y-123264819D02*
X60594762Y-123407676D01*
X60594762Y-123407676D02*
X60499524Y-123502914D01*
X60499524Y-123502914D02*
X60404286Y-123550533D01*
X96977142Y-151934819D02*
X96643809Y-151458628D01*
X96405714Y-151934819D02*
X96405714Y-150934819D01*
X96405714Y-150934819D02*
X96786666Y-150934819D01*
X96786666Y-150934819D02*
X96881904Y-150982438D01*
X96881904Y-150982438D02*
X96929523Y-151030057D01*
X96929523Y-151030057D02*
X96977142Y-151125295D01*
X96977142Y-151125295D02*
X96977142Y-151268152D01*
X96977142Y-151268152D02*
X96929523Y-151363390D01*
X96929523Y-151363390D02*
X96881904Y-151411009D01*
X96881904Y-151411009D02*
X96786666Y-151458628D01*
X96786666Y-151458628D02*
X96405714Y-151458628D01*
X97929523Y-151934819D02*
X97358095Y-151934819D01*
X97643809Y-151934819D02*
X97643809Y-150934819D01*
X97643809Y-150934819D02*
X97548571Y-151077676D01*
X97548571Y-151077676D02*
X97453333Y-151172914D01*
X97453333Y-151172914D02*
X97358095Y-151220533D01*
X98786666Y-151268152D02*
X98786666Y-151934819D01*
X98548571Y-150887200D02*
X98310476Y-151601485D01*
X98310476Y-151601485D02*
X98929523Y-151601485D01*
X49404819Y-116753333D02*
X50119104Y-116753333D01*
X50119104Y-116753333D02*
X50261961Y-116800952D01*
X50261961Y-116800952D02*
X50357200Y-116896190D01*
X50357200Y-116896190D02*
X50404819Y-117039047D01*
X50404819Y-117039047D02*
X50404819Y-117134285D01*
X49500057Y-116324761D02*
X49452438Y-116277142D01*
X49452438Y-116277142D02*
X49404819Y-116181904D01*
X49404819Y-116181904D02*
X49404819Y-115943809D01*
X49404819Y-115943809D02*
X49452438Y-115848571D01*
X49452438Y-115848571D02*
X49500057Y-115800952D01*
X49500057Y-115800952D02*
X49595295Y-115753333D01*
X49595295Y-115753333D02*
X49690533Y-115753333D01*
X49690533Y-115753333D02*
X49833390Y-115800952D01*
X49833390Y-115800952D02*
X50404819Y-116372380D01*
X50404819Y-116372380D02*
X50404819Y-115753333D01*
X111252142Y-139944819D02*
X110918809Y-139468628D01*
X110680714Y-139944819D02*
X110680714Y-138944819D01*
X110680714Y-138944819D02*
X111061666Y-138944819D01*
X111061666Y-138944819D02*
X111156904Y-138992438D01*
X111156904Y-138992438D02*
X111204523Y-139040057D01*
X111204523Y-139040057D02*
X111252142Y-139135295D01*
X111252142Y-139135295D02*
X111252142Y-139278152D01*
X111252142Y-139278152D02*
X111204523Y-139373390D01*
X111204523Y-139373390D02*
X111156904Y-139421009D01*
X111156904Y-139421009D02*
X111061666Y-139468628D01*
X111061666Y-139468628D02*
X110680714Y-139468628D01*
X111633095Y-139040057D02*
X111680714Y-138992438D01*
X111680714Y-138992438D02*
X111775952Y-138944819D01*
X111775952Y-138944819D02*
X112014047Y-138944819D01*
X112014047Y-138944819D02*
X112109285Y-138992438D01*
X112109285Y-138992438D02*
X112156904Y-139040057D01*
X112156904Y-139040057D02*
X112204523Y-139135295D01*
X112204523Y-139135295D02*
X112204523Y-139230533D01*
X112204523Y-139230533D02*
X112156904Y-139373390D01*
X112156904Y-139373390D02*
X111585476Y-139944819D01*
X111585476Y-139944819D02*
X112204523Y-139944819D01*
X112823571Y-138944819D02*
X112918809Y-138944819D01*
X112918809Y-138944819D02*
X113014047Y-138992438D01*
X113014047Y-138992438D02*
X113061666Y-139040057D01*
X113061666Y-139040057D02*
X113109285Y-139135295D01*
X113109285Y-139135295D02*
X113156904Y-139325771D01*
X113156904Y-139325771D02*
X113156904Y-139563866D01*
X113156904Y-139563866D02*
X113109285Y-139754342D01*
X113109285Y-139754342D02*
X113061666Y-139849580D01*
X113061666Y-139849580D02*
X113014047Y-139897200D01*
X113014047Y-139897200D02*
X112918809Y-139944819D01*
X112918809Y-139944819D02*
X112823571Y-139944819D01*
X112823571Y-139944819D02*
X112728333Y-139897200D01*
X112728333Y-139897200D02*
X112680714Y-139849580D01*
X112680714Y-139849580D02*
X112633095Y-139754342D01*
X112633095Y-139754342D02*
X112585476Y-139563866D01*
X112585476Y-139563866D02*
X112585476Y-139325771D01*
X112585476Y-139325771D02*
X112633095Y-139135295D01*
X112633095Y-139135295D02*
X112680714Y-139040057D01*
X112680714Y-139040057D02*
X112728333Y-138992438D01*
X112728333Y-138992438D02*
X112823571Y-138944819D01*
X77522142Y-162759580D02*
X77474523Y-162807200D01*
X77474523Y-162807200D02*
X77331666Y-162854819D01*
X77331666Y-162854819D02*
X77236428Y-162854819D01*
X77236428Y-162854819D02*
X77093571Y-162807200D01*
X77093571Y-162807200D02*
X76998333Y-162711961D01*
X76998333Y-162711961D02*
X76950714Y-162616723D01*
X76950714Y-162616723D02*
X76903095Y-162426247D01*
X76903095Y-162426247D02*
X76903095Y-162283390D01*
X76903095Y-162283390D02*
X76950714Y-162092914D01*
X76950714Y-162092914D02*
X76998333Y-161997676D01*
X76998333Y-161997676D02*
X77093571Y-161902438D01*
X77093571Y-161902438D02*
X77236428Y-161854819D01*
X77236428Y-161854819D02*
X77331666Y-161854819D01*
X77331666Y-161854819D02*
X77474523Y-161902438D01*
X77474523Y-161902438D02*
X77522142Y-161950057D01*
X77855476Y-161854819D02*
X78474523Y-161854819D01*
X78474523Y-161854819D02*
X78141190Y-162235771D01*
X78141190Y-162235771D02*
X78284047Y-162235771D01*
X78284047Y-162235771D02*
X78379285Y-162283390D01*
X78379285Y-162283390D02*
X78426904Y-162331009D01*
X78426904Y-162331009D02*
X78474523Y-162426247D01*
X78474523Y-162426247D02*
X78474523Y-162664342D01*
X78474523Y-162664342D02*
X78426904Y-162759580D01*
X78426904Y-162759580D02*
X78379285Y-162807200D01*
X78379285Y-162807200D02*
X78284047Y-162854819D01*
X78284047Y-162854819D02*
X77998333Y-162854819D01*
X77998333Y-162854819D02*
X77903095Y-162807200D01*
X77903095Y-162807200D02*
X77855476Y-162759580D01*
X79093571Y-161854819D02*
X79188809Y-161854819D01*
X79188809Y-161854819D02*
X79284047Y-161902438D01*
X79284047Y-161902438D02*
X79331666Y-161950057D01*
X79331666Y-161950057D02*
X79379285Y-162045295D01*
X79379285Y-162045295D02*
X79426904Y-162235771D01*
X79426904Y-162235771D02*
X79426904Y-162473866D01*
X79426904Y-162473866D02*
X79379285Y-162664342D01*
X79379285Y-162664342D02*
X79331666Y-162759580D01*
X79331666Y-162759580D02*
X79284047Y-162807200D01*
X79284047Y-162807200D02*
X79188809Y-162854819D01*
X79188809Y-162854819D02*
X79093571Y-162854819D01*
X79093571Y-162854819D02*
X78998333Y-162807200D01*
X78998333Y-162807200D02*
X78950714Y-162759580D01*
X78950714Y-162759580D02*
X78903095Y-162664342D01*
X78903095Y-162664342D02*
X78855476Y-162473866D01*
X78855476Y-162473866D02*
X78855476Y-162235771D01*
X78855476Y-162235771D02*
X78903095Y-162045295D01*
X78903095Y-162045295D02*
X78950714Y-161950057D01*
X78950714Y-161950057D02*
X78998333Y-161902438D01*
X78998333Y-161902438D02*
X79093571Y-161854819D01*
X60023333Y-126074819D02*
X59690000Y-125598628D01*
X59451905Y-126074819D02*
X59451905Y-125074819D01*
X59451905Y-125074819D02*
X59832857Y-125074819D01*
X59832857Y-125074819D02*
X59928095Y-125122438D01*
X59928095Y-125122438D02*
X59975714Y-125170057D01*
X59975714Y-125170057D02*
X60023333Y-125265295D01*
X60023333Y-125265295D02*
X60023333Y-125408152D01*
X60023333Y-125408152D02*
X59975714Y-125503390D01*
X59975714Y-125503390D02*
X59928095Y-125551009D01*
X59928095Y-125551009D02*
X59832857Y-125598628D01*
X59832857Y-125598628D02*
X59451905Y-125598628D01*
X60404286Y-125170057D02*
X60451905Y-125122438D01*
X60451905Y-125122438D02*
X60547143Y-125074819D01*
X60547143Y-125074819D02*
X60785238Y-125074819D01*
X60785238Y-125074819D02*
X60880476Y-125122438D01*
X60880476Y-125122438D02*
X60928095Y-125170057D01*
X60928095Y-125170057D02*
X60975714Y-125265295D01*
X60975714Y-125265295D02*
X60975714Y-125360533D01*
X60975714Y-125360533D02*
X60928095Y-125503390D01*
X60928095Y-125503390D02*
X60356667Y-126074819D01*
X60356667Y-126074819D02*
X60975714Y-126074819D01*
X103423809Y-113868485D02*
X103347619Y-113830390D01*
X103347619Y-113830390D02*
X103271428Y-113754200D01*
X103271428Y-113754200D02*
X103157142Y-113639914D01*
X103157142Y-113639914D02*
X103080952Y-113601819D01*
X103080952Y-113601819D02*
X103004761Y-113601819D01*
X103042857Y-113792295D02*
X102966666Y-113754200D01*
X102966666Y-113754200D02*
X102890476Y-113678009D01*
X102890476Y-113678009D02*
X102852380Y-113525628D01*
X102852380Y-113525628D02*
X102852380Y-113258961D01*
X102852380Y-113258961D02*
X102890476Y-113106580D01*
X102890476Y-113106580D02*
X102966666Y-113030390D01*
X102966666Y-113030390D02*
X103042857Y-112992295D01*
X103042857Y-112992295D02*
X103195238Y-112992295D01*
X103195238Y-112992295D02*
X103271428Y-113030390D01*
X103271428Y-113030390D02*
X103347619Y-113106580D01*
X103347619Y-113106580D02*
X103385714Y-113258961D01*
X103385714Y-113258961D02*
X103385714Y-113525628D01*
X103385714Y-113525628D02*
X103347619Y-113678009D01*
X103347619Y-113678009D02*
X103271428Y-113754200D01*
X103271428Y-113754200D02*
X103195238Y-113792295D01*
X103195238Y-113792295D02*
X103042857Y-113792295D01*
X104147618Y-113792295D02*
X103690475Y-113792295D01*
X103919047Y-113792295D02*
X103919047Y-112992295D01*
X103919047Y-112992295D02*
X103842856Y-113106580D01*
X103842856Y-113106580D02*
X103766666Y-113182771D01*
X103766666Y-113182771D02*
X103690475Y-113220866D01*
X92783333Y-115789580D02*
X92735714Y-115837200D01*
X92735714Y-115837200D02*
X92592857Y-115884819D01*
X92592857Y-115884819D02*
X92497619Y-115884819D01*
X92497619Y-115884819D02*
X92354762Y-115837200D01*
X92354762Y-115837200D02*
X92259524Y-115741961D01*
X92259524Y-115741961D02*
X92211905Y-115646723D01*
X92211905Y-115646723D02*
X92164286Y-115456247D01*
X92164286Y-115456247D02*
X92164286Y-115313390D01*
X92164286Y-115313390D02*
X92211905Y-115122914D01*
X92211905Y-115122914D02*
X92259524Y-115027676D01*
X92259524Y-115027676D02*
X92354762Y-114932438D01*
X92354762Y-114932438D02*
X92497619Y-114884819D01*
X92497619Y-114884819D02*
X92592857Y-114884819D01*
X92592857Y-114884819D02*
X92735714Y-114932438D01*
X92735714Y-114932438D02*
X92783333Y-114980057D01*
X93164286Y-114980057D02*
X93211905Y-114932438D01*
X93211905Y-114932438D02*
X93307143Y-114884819D01*
X93307143Y-114884819D02*
X93545238Y-114884819D01*
X93545238Y-114884819D02*
X93640476Y-114932438D01*
X93640476Y-114932438D02*
X93688095Y-114980057D01*
X93688095Y-114980057D02*
X93735714Y-115075295D01*
X93735714Y-115075295D02*
X93735714Y-115170533D01*
X93735714Y-115170533D02*
X93688095Y-115313390D01*
X93688095Y-115313390D02*
X93116667Y-115884819D01*
X93116667Y-115884819D02*
X93735714Y-115884819D01*
X58619580Y-112422857D02*
X58667200Y-112470476D01*
X58667200Y-112470476D02*
X58714819Y-112613333D01*
X58714819Y-112613333D02*
X58714819Y-112708571D01*
X58714819Y-112708571D02*
X58667200Y-112851428D01*
X58667200Y-112851428D02*
X58571961Y-112946666D01*
X58571961Y-112946666D02*
X58476723Y-112994285D01*
X58476723Y-112994285D02*
X58286247Y-113041904D01*
X58286247Y-113041904D02*
X58143390Y-113041904D01*
X58143390Y-113041904D02*
X57952914Y-112994285D01*
X57952914Y-112994285D02*
X57857676Y-112946666D01*
X57857676Y-112946666D02*
X57762438Y-112851428D01*
X57762438Y-112851428D02*
X57714819Y-112708571D01*
X57714819Y-112708571D02*
X57714819Y-112613333D01*
X57714819Y-112613333D02*
X57762438Y-112470476D01*
X57762438Y-112470476D02*
X57810057Y-112422857D01*
X57810057Y-112041904D02*
X57762438Y-111994285D01*
X57762438Y-111994285D02*
X57714819Y-111899047D01*
X57714819Y-111899047D02*
X57714819Y-111660952D01*
X57714819Y-111660952D02*
X57762438Y-111565714D01*
X57762438Y-111565714D02*
X57810057Y-111518095D01*
X57810057Y-111518095D02*
X57905295Y-111470476D01*
X57905295Y-111470476D02*
X58000533Y-111470476D01*
X58000533Y-111470476D02*
X58143390Y-111518095D01*
X58143390Y-111518095D02*
X58714819Y-112089523D01*
X58714819Y-112089523D02*
X58714819Y-111470476D01*
X57714819Y-111137142D02*
X57714819Y-110518095D01*
X57714819Y-110518095D02*
X58095771Y-110851428D01*
X58095771Y-110851428D02*
X58095771Y-110708571D01*
X58095771Y-110708571D02*
X58143390Y-110613333D01*
X58143390Y-110613333D02*
X58191009Y-110565714D01*
X58191009Y-110565714D02*
X58286247Y-110518095D01*
X58286247Y-110518095D02*
X58524342Y-110518095D01*
X58524342Y-110518095D02*
X58619580Y-110565714D01*
X58619580Y-110565714D02*
X58667200Y-110613333D01*
X58667200Y-110613333D02*
X58714819Y-110708571D01*
X58714819Y-110708571D02*
X58714819Y-110994285D01*
X58714819Y-110994285D02*
X58667200Y-111089523D01*
X58667200Y-111089523D02*
X58619580Y-111137142D01*
X92607142Y-120729580D02*
X92559523Y-120777200D01*
X92559523Y-120777200D02*
X92416666Y-120824819D01*
X92416666Y-120824819D02*
X92321428Y-120824819D01*
X92321428Y-120824819D02*
X92178571Y-120777200D01*
X92178571Y-120777200D02*
X92083333Y-120681961D01*
X92083333Y-120681961D02*
X92035714Y-120586723D01*
X92035714Y-120586723D02*
X91988095Y-120396247D01*
X91988095Y-120396247D02*
X91988095Y-120253390D01*
X91988095Y-120253390D02*
X92035714Y-120062914D01*
X92035714Y-120062914D02*
X92083333Y-119967676D01*
X92083333Y-119967676D02*
X92178571Y-119872438D01*
X92178571Y-119872438D02*
X92321428Y-119824819D01*
X92321428Y-119824819D02*
X92416666Y-119824819D01*
X92416666Y-119824819D02*
X92559523Y-119872438D01*
X92559523Y-119872438D02*
X92607142Y-119920057D01*
X93559523Y-120824819D02*
X92988095Y-120824819D01*
X93273809Y-120824819D02*
X93273809Y-119824819D01*
X93273809Y-119824819D02*
X93178571Y-119967676D01*
X93178571Y-119967676D02*
X93083333Y-120062914D01*
X93083333Y-120062914D02*
X92988095Y-120110533D01*
X94464285Y-119824819D02*
X93988095Y-119824819D01*
X93988095Y-119824819D02*
X93940476Y-120301009D01*
X93940476Y-120301009D02*
X93988095Y-120253390D01*
X93988095Y-120253390D02*
X94083333Y-120205771D01*
X94083333Y-120205771D02*
X94321428Y-120205771D01*
X94321428Y-120205771D02*
X94416666Y-120253390D01*
X94416666Y-120253390D02*
X94464285Y-120301009D01*
X94464285Y-120301009D02*
X94511904Y-120396247D01*
X94511904Y-120396247D02*
X94511904Y-120634342D01*
X94511904Y-120634342D02*
X94464285Y-120729580D01*
X94464285Y-120729580D02*
X94416666Y-120777200D01*
X94416666Y-120777200D02*
X94321428Y-120824819D01*
X94321428Y-120824819D02*
X94083333Y-120824819D01*
X94083333Y-120824819D02*
X93988095Y-120777200D01*
X93988095Y-120777200D02*
X93940476Y-120729580D01*
X92443333Y-131829580D02*
X92395714Y-131877200D01*
X92395714Y-131877200D02*
X92252857Y-131924819D01*
X92252857Y-131924819D02*
X92157619Y-131924819D01*
X92157619Y-131924819D02*
X92014762Y-131877200D01*
X92014762Y-131877200D02*
X91919524Y-131781961D01*
X91919524Y-131781961D02*
X91871905Y-131686723D01*
X91871905Y-131686723D02*
X91824286Y-131496247D01*
X91824286Y-131496247D02*
X91824286Y-131353390D01*
X91824286Y-131353390D02*
X91871905Y-131162914D01*
X91871905Y-131162914D02*
X91919524Y-131067676D01*
X91919524Y-131067676D02*
X92014762Y-130972438D01*
X92014762Y-130972438D02*
X92157619Y-130924819D01*
X92157619Y-130924819D02*
X92252857Y-130924819D01*
X92252857Y-130924819D02*
X92395714Y-130972438D01*
X92395714Y-130972438D02*
X92443333Y-131020057D01*
X93348095Y-130924819D02*
X92871905Y-130924819D01*
X92871905Y-130924819D02*
X92824286Y-131401009D01*
X92824286Y-131401009D02*
X92871905Y-131353390D01*
X92871905Y-131353390D02*
X92967143Y-131305771D01*
X92967143Y-131305771D02*
X93205238Y-131305771D01*
X93205238Y-131305771D02*
X93300476Y-131353390D01*
X93300476Y-131353390D02*
X93348095Y-131401009D01*
X93348095Y-131401009D02*
X93395714Y-131496247D01*
X93395714Y-131496247D02*
X93395714Y-131734342D01*
X93395714Y-131734342D02*
X93348095Y-131829580D01*
X93348095Y-131829580D02*
X93300476Y-131877200D01*
X93300476Y-131877200D02*
X93205238Y-131924819D01*
X93205238Y-131924819D02*
X92967143Y-131924819D01*
X92967143Y-131924819D02*
X92871905Y-131877200D01*
X92871905Y-131877200D02*
X92824286Y-131829580D01*
X55454819Y-112482857D02*
X54978628Y-112816190D01*
X55454819Y-113054285D02*
X54454819Y-113054285D01*
X54454819Y-113054285D02*
X54454819Y-112673333D01*
X54454819Y-112673333D02*
X54502438Y-112578095D01*
X54502438Y-112578095D02*
X54550057Y-112530476D01*
X54550057Y-112530476D02*
X54645295Y-112482857D01*
X54645295Y-112482857D02*
X54788152Y-112482857D01*
X54788152Y-112482857D02*
X54883390Y-112530476D01*
X54883390Y-112530476D02*
X54931009Y-112578095D01*
X54931009Y-112578095D02*
X54978628Y-112673333D01*
X54978628Y-112673333D02*
X54978628Y-113054285D01*
X55454819Y-111530476D02*
X55454819Y-112101904D01*
X55454819Y-111816190D02*
X54454819Y-111816190D01*
X54454819Y-111816190D02*
X54597676Y-111911428D01*
X54597676Y-111911428D02*
X54692914Y-112006666D01*
X54692914Y-112006666D02*
X54740533Y-112101904D01*
X54883390Y-110959047D02*
X54835771Y-111054285D01*
X54835771Y-111054285D02*
X54788152Y-111101904D01*
X54788152Y-111101904D02*
X54692914Y-111149523D01*
X54692914Y-111149523D02*
X54645295Y-111149523D01*
X54645295Y-111149523D02*
X54550057Y-111101904D01*
X54550057Y-111101904D02*
X54502438Y-111054285D01*
X54502438Y-111054285D02*
X54454819Y-110959047D01*
X54454819Y-110959047D02*
X54454819Y-110768571D01*
X54454819Y-110768571D02*
X54502438Y-110673333D01*
X54502438Y-110673333D02*
X54550057Y-110625714D01*
X54550057Y-110625714D02*
X54645295Y-110578095D01*
X54645295Y-110578095D02*
X54692914Y-110578095D01*
X54692914Y-110578095D02*
X54788152Y-110625714D01*
X54788152Y-110625714D02*
X54835771Y-110673333D01*
X54835771Y-110673333D02*
X54883390Y-110768571D01*
X54883390Y-110768571D02*
X54883390Y-110959047D01*
X54883390Y-110959047D02*
X54931009Y-111054285D01*
X54931009Y-111054285D02*
X54978628Y-111101904D01*
X54978628Y-111101904D02*
X55073866Y-111149523D01*
X55073866Y-111149523D02*
X55264342Y-111149523D01*
X55264342Y-111149523D02*
X55359580Y-111101904D01*
X55359580Y-111101904D02*
X55407200Y-111054285D01*
X55407200Y-111054285D02*
X55454819Y-110959047D01*
X55454819Y-110959047D02*
X55454819Y-110768571D01*
X55454819Y-110768571D02*
X55407200Y-110673333D01*
X55407200Y-110673333D02*
X55359580Y-110625714D01*
X55359580Y-110625714D02*
X55264342Y-110578095D01*
X55264342Y-110578095D02*
X55073866Y-110578095D01*
X55073866Y-110578095D02*
X54978628Y-110625714D01*
X54978628Y-110625714D02*
X54931009Y-110673333D01*
X54931009Y-110673333D02*
X54883390Y-110768571D01*
X92353333Y-128359580D02*
X92305714Y-128407200D01*
X92305714Y-128407200D02*
X92162857Y-128454819D01*
X92162857Y-128454819D02*
X92067619Y-128454819D01*
X92067619Y-128454819D02*
X91924762Y-128407200D01*
X91924762Y-128407200D02*
X91829524Y-128311961D01*
X91829524Y-128311961D02*
X91781905Y-128216723D01*
X91781905Y-128216723D02*
X91734286Y-128026247D01*
X91734286Y-128026247D02*
X91734286Y-127883390D01*
X91734286Y-127883390D02*
X91781905Y-127692914D01*
X91781905Y-127692914D02*
X91829524Y-127597676D01*
X91829524Y-127597676D02*
X91924762Y-127502438D01*
X91924762Y-127502438D02*
X92067619Y-127454819D01*
X92067619Y-127454819D02*
X92162857Y-127454819D01*
X92162857Y-127454819D02*
X92305714Y-127502438D01*
X92305714Y-127502438D02*
X92353333Y-127550057D01*
X93210476Y-127788152D02*
X93210476Y-128454819D01*
X92972381Y-127407200D02*
X92734286Y-128121485D01*
X92734286Y-128121485D02*
X93353333Y-128121485D01*
D11*
%TO.C,C6*%
X73082164Y-141070000D02*
X73297836Y-141070000D01*
X73082164Y-141790000D02*
X73297836Y-141790000D01*
%TO.C,C19*%
X90110580Y-121810000D02*
X89829420Y-121810000D01*
X90110580Y-122830000D02*
X89829420Y-122830000D01*
%TO.C,C31*%
X75114420Y-159460000D02*
X75395580Y-159460000D01*
X75114420Y-160480000D02*
X75395580Y-160480000D01*
D12*
%TO.C,U3*%
X50270000Y-144340000D02*
X50270000Y-144540000D01*
X50270000Y-160340000D02*
X50270000Y-159240000D01*
X66270000Y-144340000D02*
X50270000Y-144340000D01*
X66270000Y-144540000D02*
X66270000Y-144340000D01*
X66270000Y-159240000D02*
X66270000Y-160340000D01*
X66270000Y-160340000D02*
X50270000Y-160340000D01*
D13*
X67120000Y-159340000D02*
G75*
G02*
X66920000Y-159340000I-100000J0D01*
G01*
X66920000Y-159340000D02*
G75*
G02*
X67120000Y-159340000I100000J0D01*
G01*
D11*
%TO.C,L1*%
X108410000Y-123767936D02*
X108410000Y-124972064D01*
X111130000Y-123767936D02*
X111130000Y-124972064D01*
%TO.C,C28*%
X59849420Y-133800000D02*
X60130580Y-133800000D01*
X59849420Y-134820000D02*
X60130580Y-134820000D01*
%TO.C,C20*%
X90281252Y-117085000D02*
X89758748Y-117085000D01*
X90281252Y-118555000D02*
X89758748Y-118555000D01*
%TO.C,C11*%
X90110580Y-123830000D02*
X89829420Y-123830000D01*
X90110580Y-124850000D02*
X89829420Y-124850000D01*
%TO.C,R16*%
X94536359Y-155150000D02*
X94843641Y-155150000D01*
X94536359Y-155910000D02*
X94843641Y-155910000D01*
D12*
%TO.C,ID1*%
X116920000Y-138570000D02*
X119380000Y-138570000D01*
X116920000Y-141770000D02*
X119380000Y-141770000D01*
D13*
X115032000Y-139040000D02*
G75*
G02*
X114832000Y-139040000I-100000J0D01*
G01*
X114832000Y-139040000D02*
G75*
G02*
X115032000Y-139040000I100000J0D01*
G01*
D11*
%TO.C,R19*%
X108507742Y-140707500D02*
X108982258Y-140707500D01*
X108507742Y-141752500D02*
X108982258Y-141752500D01*
%TO.C,R9*%
X94526359Y-152720000D02*
X94833641Y-152720000D01*
X94526359Y-153480000D02*
X94833641Y-153480000D01*
%TO.C,R13*%
X96776263Y-119855000D02*
X98223737Y-119855000D01*
X96776263Y-122565000D02*
X98223737Y-122565000D01*
D13*
%TO.C,D1*%
X103120000Y-127210000D02*
X108320000Y-127210000D01*
X103120000Y-129810000D02*
X108320000Y-129810000D01*
X101620000Y-128510000D02*
G75*
G02*
X101420000Y-128510000I-100000J0D01*
G01*
X101420000Y-128510000D02*
G75*
G02*
X101620000Y-128510000I100000J0D01*
G01*
X101661419Y-128510000D02*
G75*
G02*
X101378581Y-128510000I-141419J0D01*
G01*
X101378581Y-128510000D02*
G75*
G02*
X101661419Y-128510000I141419J0D01*
G01*
X101802841Y-128510000D02*
G75*
G02*
X101237159Y-128510000I-282841J0D01*
G01*
X101237159Y-128510000D02*
G75*
G02*
X101802841Y-128510000I282841J0D01*
G01*
X101944262Y-128510000D02*
G75*
G02*
X101095738Y-128510000I-424262J0D01*
G01*
X101095738Y-128510000D02*
G75*
G02*
X101944262Y-128510000I424262J0D01*
G01*
D11*
%TO.C,Y3*%
X71475000Y-161835000D02*
X71475000Y-160485000D01*
X73225000Y-161835000D02*
X73225000Y-160485000D01*
%TO.C,C8*%
X89794420Y-129150000D02*
X90075580Y-129150000D01*
X89794420Y-130170000D02*
X90075580Y-130170000D01*
%TO.C,C9*%
X74289420Y-127700000D02*
X74570580Y-127700000D01*
X74289420Y-128720000D02*
X74570580Y-128720000D01*
%TO.C,C26*%
X59882164Y-136420000D02*
X60097836Y-136420000D01*
X59882164Y-137140000D02*
X60097836Y-137140000D01*
D14*
%TO.C,U4*%
X107950600Y-115390400D02*
X107950600Y-115695200D01*
X107950600Y-115695200D02*
X107950600Y-116304800D01*
X107950600Y-116304800D02*
X107950600Y-116609600D01*
D15*
X107950600Y-115695200D02*
G75*
G02*
X107950600Y-116304800I0J-304800D01*
G01*
D11*
%TO.C,C18*%
X94584420Y-147250000D02*
X94865580Y-147250000D01*
X94584420Y-148270000D02*
X94865580Y-148270000D01*
%TO.C,U7*%
X110380000Y-153457500D02*
X111680000Y-153457500D01*
X110380000Y-155437500D02*
X111430000Y-155437500D01*
X111800000Y-155717500D02*
X111800000Y-155437500D01*
X112080000Y-155437500D01*
X111800000Y-155717500D01*
G36*
X111800000Y-155717500D02*
G01*
X111800000Y-155437500D01*
X112080000Y-155437500D01*
X111800000Y-155717500D01*
G37*
%TO.C,C29*%
X59808748Y-137685000D02*
X60331252Y-137685000D01*
X59808748Y-139155000D02*
X60331252Y-139155000D01*
%TO.C,R8*%
X94536359Y-154000000D02*
X94843641Y-154000000D01*
X94536359Y-154760000D02*
X94843641Y-154760000D01*
%TO.C,C17*%
X94835580Y-148910000D02*
X94554420Y-148910000D01*
X94835580Y-149930000D02*
X94554420Y-149930000D01*
%TO.C,U8*%
X79640000Y-135940000D02*
X80390000Y-135940000D01*
X79640000Y-136690000D02*
X79640000Y-135940000D01*
X79640000Y-141410000D02*
X79640000Y-142160000D01*
X79640000Y-142160000D02*
X80390000Y-142160000D01*
X85110000Y-135940000D02*
X85620000Y-135940000D01*
X85860000Y-136690000D02*
X85860000Y-136240000D01*
X85860000Y-141410000D02*
X85860000Y-142160000D01*
X85860000Y-142160000D02*
X85110000Y-142160000D01*
X86190000Y-136180000D02*
X85860000Y-135940000D01*
X86190000Y-135700000D01*
X86190000Y-136180000D01*
G36*
X86190000Y-136180000D02*
G01*
X85860000Y-135940000D01*
X86190000Y-135700000D01*
X86190000Y-136180000D01*
G37*
%TO.C,C24*%
X56100000Y-114699420D02*
X56100000Y-114980580D01*
X57120000Y-114699420D02*
X57120000Y-114980580D01*
%TO.C,C1*%
X89718748Y-112485000D02*
X90241252Y-112485000D01*
X89718748Y-113955000D02*
X90241252Y-113955000D01*
%TO.C,R10*%
X97437742Y-129487500D02*
X97912258Y-129487500D01*
X97437742Y-130532500D02*
X97912258Y-130532500D01*
%TO.C,F1*%
X107452258Y-146827500D02*
X106977742Y-146827500D01*
X107452258Y-147872500D02*
X106977742Y-147872500D01*
D12*
%TO.C,S1*%
X47791500Y-122930000D02*
X50251500Y-122930000D01*
X47791500Y-126130000D02*
X50251500Y-126130000D01*
D13*
X45903500Y-123400000D02*
G75*
G02*
X45703500Y-123400000I-100000J0D01*
G01*
X45703500Y-123400000D02*
G75*
G02*
X45903500Y-123400000I100000J0D01*
G01*
D12*
%TO.C,Y1*%
X71290000Y-147250000D02*
X71290000Y-146690000D01*
X73010000Y-145370000D02*
X74570000Y-145370000D01*
X73010000Y-148570000D02*
X74570000Y-148570000D01*
X76290000Y-147250000D02*
X76290000Y-146690000D01*
D13*
X71890000Y-149520000D02*
G75*
G02*
X71690000Y-149520000I-100000J0D01*
G01*
X71690000Y-149520000D02*
G75*
G02*
X71890000Y-149520000I100000J0D01*
G01*
D11*
%TO.C,R7*%
X97437742Y-126977500D02*
X97912258Y-126977500D01*
X97437742Y-128022500D02*
X97912258Y-128022500D01*
%TO.C,R11*%
X73042742Y-139347500D02*
X73517258Y-139347500D01*
X73042742Y-140392500D02*
X73517258Y-140392500D01*
%TO.C,C12*%
X94634420Y-143870000D02*
X94915580Y-143870000D01*
X94634420Y-144890000D02*
X94915580Y-144890000D01*
%TO.C,R4*%
X71282742Y-152427500D02*
X71757258Y-152427500D01*
X71282742Y-153472500D02*
X71757258Y-153472500D01*
%TO.C,R17*%
X94516359Y-156360000D02*
X94823641Y-156360000D01*
X94516359Y-157120000D02*
X94823641Y-157120000D01*
D12*
%TO.C,Find_Host1*%
X116920000Y-133820000D02*
X119380000Y-133820000D01*
X116920000Y-137020000D02*
X119380000Y-137020000D01*
D13*
X115032000Y-134290000D02*
G75*
G02*
X114832000Y-134290000I-100000J0D01*
G01*
X114832000Y-134290000D02*
G75*
G02*
X115032000Y-134290000I100000J0D01*
G01*
D11*
%TO.C,R12*%
X96776263Y-115645000D02*
X98223737Y-115645000D01*
X96776263Y-118355000D02*
X98223737Y-118355000D01*
D12*
%TO.C,U2*%
X79830000Y-149920000D02*
X79830000Y-150310000D01*
X79830000Y-156730000D02*
X79830000Y-157120000D01*
X79830000Y-157120000D02*
X80220000Y-157120000D01*
X80220000Y-149920000D02*
X79830000Y-149920000D01*
X86640000Y-157120000D02*
X87030000Y-157120000D01*
X87030000Y-149920000D02*
X86640000Y-149920000D01*
X87030000Y-150310000D02*
X87030000Y-149920000D01*
X87030000Y-157120000D02*
X87030000Y-156730000D01*
D13*
X77580000Y-150570000D02*
G75*
G02*
X77280000Y-150570000I-150000J0D01*
G01*
X77280000Y-150570000D02*
G75*
G02*
X77580000Y-150570000I150000J0D01*
G01*
D11*
%TO.C,Y2*%
X65410000Y-135040000D02*
X65410000Y-137340000D01*
X65410000Y-137340000D02*
X68110000Y-137340000D01*
%TO.C,R6*%
X97437742Y-124467500D02*
X97912258Y-124467500D01*
X97437742Y-125512500D02*
X97912258Y-125512500D01*
%TO.C,U1*%
X115150000Y-122477500D02*
X118910000Y-122477500D01*
X115150000Y-129297500D02*
X118910000Y-129297500D01*
X118910000Y-122477500D02*
X118910000Y-123737500D01*
X118910000Y-129297500D02*
X118910000Y-128037500D01*
X113870000Y-122577500D02*
X113630000Y-122247500D01*
X114110000Y-122247500D01*
X113870000Y-122577500D01*
G36*
X113870000Y-122577500D02*
G01*
X113630000Y-122247500D01*
X114110000Y-122247500D01*
X113870000Y-122577500D01*
G37*
%TO.C,Charger1*%
X114070000Y-117130000D02*
X114520000Y-117530000D01*
X114070000Y-117930000D02*
X114070000Y-117130000D01*
X114520000Y-117530000D02*
X114070000Y-117930000D01*
X117320000Y-112080000D02*
X115770000Y-112080000D01*
X117320000Y-112380000D02*
X117320000Y-112080000D01*
X117320000Y-120380000D02*
X115770000Y-120380000D01*
X117320000Y-120380000D02*
X117320000Y-120080000D01*
X120120000Y-112380000D02*
X117320000Y-112380000D01*
X120120000Y-120080000D02*
X117320000Y-120080000D01*
D13*
%TO.C,L2*%
X72950000Y-131240000D02*
X73550000Y-131240000D01*
X72950000Y-134240000D02*
X73550000Y-134240000D01*
D11*
%TO.C,C27*%
X59869420Y-132170000D02*
X60150580Y-132170000D01*
X59869420Y-133190000D02*
X60150580Y-133190000D01*
%TO.C,C16*%
X94763748Y-141615000D02*
X95286252Y-141615000D01*
X94763748Y-143085000D02*
X95286252Y-143085000D01*
%TO.C,R3*%
X71346359Y-154100000D02*
X71653641Y-154100000D01*
X71346359Y-154860000D02*
X71653641Y-154860000D01*
D12*
%TO.C,S2*%
X47791500Y-127680000D02*
X50251500Y-127680000D01*
X47791500Y-130880000D02*
X50251500Y-130880000D01*
D13*
X45903500Y-128150000D02*
G75*
G02*
X45703500Y-128150000I-100000J0D01*
G01*
X45703500Y-128150000D02*
G75*
G02*
X45903500Y-128150000I100000J0D01*
G01*
D11*
%TO.C,C14*%
X94594420Y-145570000D02*
X94875580Y-145570000D01*
X94594420Y-146590000D02*
X94875580Y-146590000D01*
%TO.C,BT1*%
X46000000Y-89950000D02*
X124000000Y-89950000D01*
X46000000Y-110050000D02*
X46000000Y-89950000D01*
X124000000Y-89950000D02*
X124000000Y-110050000D01*
X124000000Y-110050000D02*
X46000000Y-110050000D01*
%TO.C,U6*%
X102375000Y-122350000D02*
X102375000Y-121375000D01*
X102375000Y-124320000D02*
X102375000Y-123650000D01*
X102600000Y-121375000D02*
X102375000Y-121375000D01*
X105400000Y-121375000D02*
X105625000Y-121375000D01*
X105625000Y-122350000D02*
X105625000Y-121375000D01*
X105625000Y-124625000D02*
X105400000Y-124625000D01*
X105625000Y-124625000D02*
X105625000Y-123650000D01*
X102580000Y-124840000D02*
X102250000Y-125080000D01*
X102250000Y-124600000D01*
X102580000Y-124840000D01*
G36*
X102580000Y-124840000D02*
G01*
X102250000Y-125080000D01*
X102250000Y-124600000D01*
X102580000Y-124840000D01*
G37*
%TO.C,U5*%
X103287500Y-152220000D02*
X103287500Y-152695000D01*
X103287500Y-156440000D02*
X103287500Y-155965000D01*
X103762500Y-152220000D02*
X103287500Y-152220000D01*
X103762500Y-156440000D02*
X103287500Y-156440000D01*
X107032500Y-152220000D02*
X107507500Y-152220000D01*
X107032500Y-156440000D02*
X107207500Y-156440000D01*
X107507500Y-152220000D02*
X107507500Y-152695000D01*
X107507500Y-155965000D02*
X107507500Y-156200000D01*
X107747500Y-156770000D02*
X107267500Y-156770000D01*
X107507500Y-156440000D01*
X107747500Y-156770000D01*
G36*
X107747500Y-156770000D02*
G01*
X107267500Y-156770000D01*
X107507500Y-156440000D01*
X107747500Y-156770000D01*
G37*
D12*
%TO.C,UART1*%
X117190000Y-149780000D02*
X118780000Y-149780000D01*
X117190000Y-158720000D02*
X118780000Y-158720000D01*
X122600000Y-149780000D02*
X121220000Y-149780000D01*
X122600000Y-149780000D02*
X122600000Y-158720000D01*
X122600000Y-158720000D02*
X121220000Y-158720000D01*
D11*
%TO.C,C13*%
X95266252Y-139405000D02*
X94743748Y-139405000D01*
X95266252Y-140875000D02*
X94743748Y-140875000D01*
%TO.C,BZ1*%
X81180000Y-118250000D02*
G75*
G02*
X68980000Y-118250000I-6100000J0D01*
G01*
X68980000Y-118250000D02*
G75*
G02*
X81180000Y-118250000I6100000J0D01*
G01*
%TO.C,C7*%
X73082164Y-142380000D02*
X73297836Y-142380000D01*
X73082164Y-143100000D02*
X73297836Y-143100000D01*
%TO.C,C3*%
X90110580Y-125810000D02*
X89829420Y-125810000D01*
X90110580Y-126830000D02*
X89829420Y-126830000D01*
%TO.C,C25*%
X59882164Y-135280000D02*
X60097836Y-135280000D01*
X59882164Y-136000000D02*
X60097836Y-136000000D01*
%TO.C,R15*%
X52857500Y-115122258D02*
X52857500Y-114647742D01*
X53902500Y-115122258D02*
X53902500Y-114647742D01*
D13*
%TO.C,J1*%
X47340000Y-137540000D02*
X47340000Y-135140000D01*
X49640000Y-132840000D02*
X52040000Y-132840000D01*
X52040000Y-139840000D02*
X49640000Y-139840000D01*
X54340000Y-137540000D02*
X54340000Y-135140000D01*
D11*
%TO.C,C10*%
X89658748Y-132915000D02*
X90181252Y-132915000D01*
X89658748Y-134385000D02*
X90181252Y-134385000D01*
%TO.C,C32*%
X57545580Y-126790000D02*
X57264420Y-126790000D01*
X57545580Y-127810000D02*
X57264420Y-127810000D01*
%TO.C,R5*%
X71372742Y-150677500D02*
X71847258Y-150677500D01*
X71372742Y-151722500D02*
X71847258Y-151722500D01*
%TO.C,R1*%
X57642258Y-123217500D02*
X57167742Y-123217500D01*
X57642258Y-124262500D02*
X57167742Y-124262500D01*
%TO.C,R14*%
X94422742Y-151037500D02*
X94897258Y-151037500D01*
X94422742Y-152082500D02*
X94897258Y-152082500D01*
D13*
%TO.C,J2*%
X46025500Y-111110000D02*
X46025500Y-121270000D01*
X46025500Y-111110000D02*
X48514500Y-111110000D01*
X48514500Y-111110000D02*
X48514500Y-121270000D01*
X48514500Y-121270000D02*
X46025500Y-121270000D01*
X47370000Y-110460000D02*
G75*
G02*
X47170000Y-110460000I-100000J0D01*
G01*
X47170000Y-110460000D02*
G75*
G02*
X47370000Y-110460000I100000J0D01*
G01*
D11*
%TO.C,R20*%
X108527742Y-138937500D02*
X109002258Y-138937500D01*
X108527742Y-139982500D02*
X109002258Y-139982500D01*
%TO.C,C30*%
X75154420Y-161820000D02*
X75435580Y-161820000D01*
X75154420Y-162840000D02*
X75435580Y-162840000D01*
%TO.C,R2*%
X57632258Y-125017500D02*
X57157742Y-125017500D01*
X57632258Y-126062500D02*
X57157742Y-126062500D01*
D12*
%TO.C,Q1*%
X102850000Y-114540000D02*
X103500000Y-114540000D01*
X102850000Y-115336400D02*
X102850000Y-114540000D01*
X102850000Y-117460000D02*
X102850000Y-116663600D01*
X103500000Y-117460000D02*
X102850000Y-117460000D01*
D13*
X105790000Y-116950000D02*
G75*
G02*
X105590000Y-116950000I-100000J0D01*
G01*
X105590000Y-116950000D02*
G75*
G02*
X105790000Y-116950000I100000J0D01*
G01*
D11*
%TO.C,C2*%
X89708748Y-114625000D02*
X90231252Y-114625000D01*
X89708748Y-116095000D02*
X90231252Y-116095000D01*
%TO.C,C23*%
X57750000Y-114686420D02*
X57750000Y-114967580D01*
X58770000Y-114686420D02*
X58770000Y-114967580D01*
%TO.C,C15*%
X90110580Y-119810000D02*
X89829420Y-119810000D01*
X90110580Y-120830000D02*
X89829420Y-120830000D01*
%TO.C,C5*%
X89638748Y-130755000D02*
X90161252Y-130755000D01*
X89638748Y-132225000D02*
X90161252Y-132225000D01*
%TO.C,R18*%
X54497500Y-115087258D02*
X54497500Y-114612742D01*
X55542500Y-115087258D02*
X55542500Y-114612742D01*
%TO.C,C4*%
X89849420Y-127530000D02*
X90130580Y-127530000D01*
X89849420Y-128550000D02*
X90130580Y-128550000D01*
%TD*%
M02*
