M48
; DRILL file {KiCad 9.0.0} date 2025-06-11T08:44:55+0900
; FORMAT={-:-/ absolute / metric / decimal}
; #@! TF.CreationDate,2025-06-11T08:44:55+09:00
; #@! TF.GenerationSoftware,Kicad,Pcbnew,9.0.0
; #@! TF.FileFunction,Plated,1,2,Blind
FMAT,2
METRIC
; #@! TA.AperFunction,Plated,Buried,ViaDrill
T1C0.300
%
G90
G05
T1
X49.48Y-114.9
X52.4Y-125.63
X53.44Y-112.99
X54.96Y-112.92
X56.59Y-112.92
X58.22Y-112.85
X59.71Y-125.56
X62.01Y-134.33
X62.21Y-138.42
X69.62Y-149.29
X77.16Y-155.07
X78.58Y-141.01
X80.41Y-147.85
X83.41Y-134.88
X86.469Y-159.244
X86.98Y-139.71
X87.75Y-115.35
X89.24Y-150.46
X92.12Y-129.56
X92.15Y-131.55
X92.16Y-128.07
X92.27Y-133.64
X92.64Y-144.38
X92.65Y-140.16
X96.67Y-151.53
X108.33Y-153.32
X112.09Y-125.83
X114.17Y-139.09
X114.38Y-134.32
M30
