%TF.GenerationSoftware,KiCad,Pcbnew,9.0.0*%
%TF.CreationDate,2025-06-11T08:44:37+09:00*%
%TF.ProjectId,FLP_PCB_terminal,464c505f-5043-4425-9f74-65726d696e61,rev?*%
%TF.SameCoordinates,Original*%
%TF.FileFunction,Paste,Top*%
%TF.FilePolarity,Positive*%
%FSLAX46Y46*%
G04 Gerber Fmt 4.6, Leading zero omitted, Abs format (unit mm)*
G04 Created by KiCad (PCBNEW 9.0.0) date 2025-06-11 08:44:37*
%MOMM*%
%LPD*%
G01*
G04 APERTURE LIST*
G04 Aperture macros list*
%AMRoundRect*
0 Rectangle with rounded corners*
0 $1 Rounding radius*
0 $2 $3 $4 $5 $6 $7 $8 $9 X,Y pos of 4 corners*
0 Add a 4 corners polygon primitive as box body*
4,1,4,$2,$3,$4,$5,$6,$7,$8,$9,$2,$3,0*
0 Add four circle primitives for the rounded corners*
1,1,$1+$1,$2,$3*
1,1,$1+$1,$4,$5*
1,1,$1+$1,$6,$7*
1,1,$1+$1,$8,$9*
0 Add four rect primitives between the rounded corners*
20,1,$1+$1,$2,$3,$4,$5,0*
20,1,$1+$1,$4,$5,$6,$7,0*
20,1,$1+$1,$6,$7,$8,$9,0*
20,1,$1+$1,$8,$9,$2,$3,0*%
G04 Aperture macros list end*
%ADD10C,0.010000*%
%ADD11RoundRect,0.140000X-0.140000X-0.170000X0.140000X-0.170000X0.140000X0.170000X-0.140000X0.170000X0*%
%ADD12RoundRect,0.225000X0.225000X0.250000X-0.225000X0.250000X-0.225000X-0.250000X0.225000X-0.250000X0*%
%ADD13RoundRect,0.225000X-0.225000X-0.250000X0.225000X-0.250000X0.225000X0.250000X-0.225000X0.250000X0*%
%ADD14RoundRect,0.250000X-1.075000X0.375000X-1.075000X-0.375000X1.075000X-0.375000X1.075000X0.375000X0*%
%ADD15RoundRect,0.250000X0.250000X0.475000X-0.250000X0.475000X-0.250000X-0.475000X0.250000X-0.475000X0*%
%ADD16RoundRect,0.135000X-0.135000X-0.185000X0.135000X-0.185000X0.135000X0.185000X-0.135000X0.185000X0*%
%ADD17R,1.050000X0.650000*%
%ADD18RoundRect,0.200000X-0.200000X-0.275000X0.200000X-0.275000X0.200000X0.275000X-0.200000X0.275000X0*%
%ADD19R,0.600000X0.490000*%
%ADD20RoundRect,0.250000X-0.312500X-1.075000X0.312500X-1.075000X0.312500X1.075000X-0.312500X1.075000X0*%
%ADD21R,2.300000X1.550000*%
%ADD22R,1.800000X1.000000*%
%ADD23R,0.558800X1.270000*%
%ADD24RoundRect,0.093750X0.156250X0.093750X-0.156250X0.093750X-0.156250X-0.093750X0.156250X-0.093750X0*%
%ADD25RoundRect,0.075000X0.250000X0.075000X-0.250000X0.075000X-0.250000X-0.075000X0.250000X-0.075000X0*%
%ADD26RoundRect,0.250000X-0.250000X-0.475000X0.250000X-0.475000X0.250000X0.475000X-0.250000X0.475000X0*%
%ADD27RoundRect,0.249999X-0.395001X0.395001X-0.395001X-0.395001X0.395001X-0.395001X0.395001X0.395001X0*%
%ADD28RoundRect,0.075000X-0.075000X0.312500X-0.075000X-0.312500X0.075000X-0.312500X0.075000X0.312500X0*%
%ADD29RoundRect,0.075000X-0.312500X0.075000X-0.312500X-0.075000X0.312500X-0.075000X0.312500X0.075000X0*%
%ADD30RoundRect,0.225000X-0.250000X0.225000X-0.250000X-0.225000X0.250000X-0.225000X0.250000X0.225000X0*%
%ADD31RoundRect,0.200000X0.200000X0.275000X-0.200000X0.275000X-0.200000X-0.275000X0.200000X-0.275000X0*%
%ADD32R,1.800000X1.200000*%
%ADD33R,1.140000X1.470000*%
%ADD34RoundRect,0.070000X-0.710000X-0.070000X0.710000X-0.070000X0.710000X0.070000X-0.710000X0.070000X0*%
%ADD35RoundRect,0.070000X-0.070000X-0.710000X0.070000X-0.710000X0.070000X0.710000X-0.070000X0.710000X0*%
%ADD36R,0.900000X0.800000*%
%ADD37RoundRect,0.375000X-0.625000X-0.375000X0.625000X-0.375000X0.625000X0.375000X-0.625000X0.375000X0*%
%ADD38RoundRect,0.500000X-0.500000X-1.400000X0.500000X-1.400000X0.500000X1.400000X-0.500000X1.400000X0*%
%ADD39R,1.650000X0.400000*%
%ADD40R,0.700000X1.825000*%
%ADD41R,1.500000X2.000000*%
%ADD42R,2.000000X1.350000*%
%ADD43R,2.500000X1.430000*%
%ADD44R,1.000000X3.200000*%
%ADD45R,0.230000X0.230000*%
%ADD46O,0.230000X0.800000*%
%ADD47R,1.050000X0.680000*%
%ADD48R,0.500000X0.260000*%
%ADD49RoundRect,0.250000X0.275000X0.275000X-0.275000X0.275000X-0.275000X-0.275000X0.275000X-0.275000X0*%
%ADD50RoundRect,0.062500X0.350000X0.062500X-0.350000X0.062500X-0.350000X-0.062500X0.350000X-0.062500X0*%
%ADD51RoundRect,0.062500X0.062500X0.350000X-0.062500X0.350000X-0.062500X-0.350000X0.062500X-0.350000X0*%
%ADD52R,0.980000X0.600000*%
%ADD53R,1.000000X0.600000*%
%ADD54R,1.140000X0.300000*%
%ADD55RoundRect,0.200000X0.275000X-0.200000X0.275000X0.200000X-0.275000X0.200000X-0.275000X-0.200000X0*%
%ADD56RoundRect,0.075000X0.575000X0.225000X-0.575000X0.225000X-0.575000X-0.225000X0.575000X-0.225000X0*%
G04 APERTURE END LIST*
D10*
%TO.C,U3*%
X51222000Y-144993000D02*
X51274000Y-145001000D01*
X51325000Y-145014000D01*
X51373000Y-145033000D01*
X51420000Y-145057000D01*
X51464000Y-145085000D01*
X51505000Y-145118000D01*
X51542000Y-145155000D01*
X51575000Y-145196000D01*
X51603000Y-145240000D01*
X51627000Y-145287000D01*
X51646000Y-145335000D01*
X51659000Y-145386000D01*
X51667000Y-145438000D01*
X51670000Y-145490000D01*
X51667000Y-145542000D01*
X51659000Y-145594000D01*
X51646000Y-145645000D01*
X51627000Y-145693000D01*
X51603000Y-145740000D01*
X51575000Y-145784000D01*
X51542000Y-145825000D01*
X51505000Y-145862000D01*
X51464000Y-145895000D01*
X51420000Y-145923000D01*
X51373000Y-145947000D01*
X51325000Y-145966000D01*
X51274000Y-145979000D01*
X51222000Y-145987000D01*
X51170000Y-145990000D01*
X49370000Y-145990000D01*
X49318000Y-145987000D01*
X49266000Y-145979000D01*
X49215000Y-145966000D01*
X49167000Y-145947000D01*
X49120000Y-145923000D01*
X49076000Y-145895000D01*
X49035000Y-145862000D01*
X48998000Y-145825000D01*
X48965000Y-145784000D01*
X48937000Y-145740000D01*
X48913000Y-145693000D01*
X48894000Y-145645000D01*
X48881000Y-145594000D01*
X48873000Y-145542000D01*
X48870000Y-145490000D01*
X48873000Y-145438000D01*
X48881000Y-145386000D01*
X48894000Y-145335000D01*
X48913000Y-145287000D01*
X48937000Y-145240000D01*
X48965000Y-145196000D01*
X48998000Y-145155000D01*
X49035000Y-145118000D01*
X49076000Y-145085000D01*
X49120000Y-145057000D01*
X49167000Y-145033000D01*
X49215000Y-145014000D01*
X49266000Y-145001000D01*
X49318000Y-144993000D01*
X49370000Y-144990000D01*
X51170000Y-144990000D01*
X51222000Y-144993000D01*
G36*
X51222000Y-144993000D02*
G01*
X51274000Y-145001000D01*
X51325000Y-145014000D01*
X51373000Y-145033000D01*
X51420000Y-145057000D01*
X51464000Y-145085000D01*
X51505000Y-145118000D01*
X51542000Y-145155000D01*
X51575000Y-145196000D01*
X51603000Y-145240000D01*
X51627000Y-145287000D01*
X51646000Y-145335000D01*
X51659000Y-145386000D01*
X51667000Y-145438000D01*
X51670000Y-145490000D01*
X51667000Y-145542000D01*
X51659000Y-145594000D01*
X51646000Y-145645000D01*
X51627000Y-145693000D01*
X51603000Y-145740000D01*
X51575000Y-145784000D01*
X51542000Y-145825000D01*
X51505000Y-145862000D01*
X51464000Y-145895000D01*
X51420000Y-145923000D01*
X51373000Y-145947000D01*
X51325000Y-145966000D01*
X51274000Y-145979000D01*
X51222000Y-145987000D01*
X51170000Y-145990000D01*
X49370000Y-145990000D01*
X49318000Y-145987000D01*
X49266000Y-145979000D01*
X49215000Y-145966000D01*
X49167000Y-145947000D01*
X49120000Y-145923000D01*
X49076000Y-145895000D01*
X49035000Y-145862000D01*
X48998000Y-145825000D01*
X48965000Y-145784000D01*
X48937000Y-145740000D01*
X48913000Y-145693000D01*
X48894000Y-145645000D01*
X48881000Y-145594000D01*
X48873000Y-145542000D01*
X48870000Y-145490000D01*
X48873000Y-145438000D01*
X48881000Y-145386000D01*
X48894000Y-145335000D01*
X48913000Y-145287000D01*
X48937000Y-145240000D01*
X48965000Y-145196000D01*
X48998000Y-145155000D01*
X49035000Y-145118000D01*
X49076000Y-145085000D01*
X49120000Y-145057000D01*
X49167000Y-145033000D01*
X49215000Y-145014000D01*
X49266000Y-145001000D01*
X49318000Y-144993000D01*
X49370000Y-144990000D01*
X51170000Y-144990000D01*
X51222000Y-144993000D01*
G37*
X51222000Y-147533000D02*
X51274000Y-147541000D01*
X51325000Y-147554000D01*
X51373000Y-147573000D01*
X51420000Y-147597000D01*
X51464000Y-147625000D01*
X51505000Y-147658000D01*
X51542000Y-147695000D01*
X51575000Y-147736000D01*
X51603000Y-147780000D01*
X51627000Y-147827000D01*
X51646000Y-147875000D01*
X51659000Y-147926000D01*
X51667000Y-147978000D01*
X51670000Y-148030000D01*
X51667000Y-148082000D01*
X51659000Y-148134000D01*
X51646000Y-148185000D01*
X51627000Y-148233000D01*
X51603000Y-148280000D01*
X51575000Y-148324000D01*
X51542000Y-148365000D01*
X51505000Y-148402000D01*
X51464000Y-148435000D01*
X51420000Y-148463000D01*
X51373000Y-148487000D01*
X51325000Y-148506000D01*
X51274000Y-148519000D01*
X51222000Y-148527000D01*
X51170000Y-148530000D01*
X49370000Y-148530000D01*
X49318000Y-148527000D01*
X49266000Y-148519000D01*
X49215000Y-148506000D01*
X49167000Y-148487000D01*
X49120000Y-148463000D01*
X49076000Y-148435000D01*
X49035000Y-148402000D01*
X48998000Y-148365000D01*
X48965000Y-148324000D01*
X48937000Y-148280000D01*
X48913000Y-148233000D01*
X48894000Y-148185000D01*
X48881000Y-148134000D01*
X48873000Y-148082000D01*
X48870000Y-148030000D01*
X48873000Y-147978000D01*
X48881000Y-147926000D01*
X48894000Y-147875000D01*
X48913000Y-147827000D01*
X48937000Y-147780000D01*
X48965000Y-147736000D01*
X48998000Y-147695000D01*
X49035000Y-147658000D01*
X49076000Y-147625000D01*
X49120000Y-147597000D01*
X49167000Y-147573000D01*
X49215000Y-147554000D01*
X49266000Y-147541000D01*
X49318000Y-147533000D01*
X49370000Y-147530000D01*
X51170000Y-147530000D01*
X51222000Y-147533000D01*
G36*
X51222000Y-147533000D02*
G01*
X51274000Y-147541000D01*
X51325000Y-147554000D01*
X51373000Y-147573000D01*
X51420000Y-147597000D01*
X51464000Y-147625000D01*
X51505000Y-147658000D01*
X51542000Y-147695000D01*
X51575000Y-147736000D01*
X51603000Y-147780000D01*
X51627000Y-147827000D01*
X51646000Y-147875000D01*
X51659000Y-147926000D01*
X51667000Y-147978000D01*
X51670000Y-148030000D01*
X51667000Y-148082000D01*
X51659000Y-148134000D01*
X51646000Y-148185000D01*
X51627000Y-148233000D01*
X51603000Y-148280000D01*
X51575000Y-148324000D01*
X51542000Y-148365000D01*
X51505000Y-148402000D01*
X51464000Y-148435000D01*
X51420000Y-148463000D01*
X51373000Y-148487000D01*
X51325000Y-148506000D01*
X51274000Y-148519000D01*
X51222000Y-148527000D01*
X51170000Y-148530000D01*
X49370000Y-148530000D01*
X49318000Y-148527000D01*
X49266000Y-148519000D01*
X49215000Y-148506000D01*
X49167000Y-148487000D01*
X49120000Y-148463000D01*
X49076000Y-148435000D01*
X49035000Y-148402000D01*
X48998000Y-148365000D01*
X48965000Y-148324000D01*
X48937000Y-148280000D01*
X48913000Y-148233000D01*
X48894000Y-148185000D01*
X48881000Y-148134000D01*
X48873000Y-148082000D01*
X48870000Y-148030000D01*
X48873000Y-147978000D01*
X48881000Y-147926000D01*
X48894000Y-147875000D01*
X48913000Y-147827000D01*
X48937000Y-147780000D01*
X48965000Y-147736000D01*
X48998000Y-147695000D01*
X49035000Y-147658000D01*
X49076000Y-147625000D01*
X49120000Y-147597000D01*
X49167000Y-147573000D01*
X49215000Y-147554000D01*
X49266000Y-147541000D01*
X49318000Y-147533000D01*
X49370000Y-147530000D01*
X51170000Y-147530000D01*
X51222000Y-147533000D01*
G37*
X51222000Y-150073000D02*
X51274000Y-150081000D01*
X51325000Y-150094000D01*
X51373000Y-150113000D01*
X51420000Y-150137000D01*
X51464000Y-150165000D01*
X51505000Y-150198000D01*
X51542000Y-150235000D01*
X51575000Y-150276000D01*
X51603000Y-150320000D01*
X51627000Y-150367000D01*
X51646000Y-150415000D01*
X51659000Y-150466000D01*
X51667000Y-150518000D01*
X51670000Y-150570000D01*
X51667000Y-150622000D01*
X51659000Y-150674000D01*
X51646000Y-150725000D01*
X51627000Y-150773000D01*
X51603000Y-150820000D01*
X51575000Y-150864000D01*
X51542000Y-150905000D01*
X51505000Y-150942000D01*
X51464000Y-150975000D01*
X51420000Y-151003000D01*
X51373000Y-151027000D01*
X51325000Y-151046000D01*
X51274000Y-151059000D01*
X51222000Y-151067000D01*
X51170000Y-151070000D01*
X49370000Y-151070000D01*
X49318000Y-151067000D01*
X49266000Y-151059000D01*
X49215000Y-151046000D01*
X49167000Y-151027000D01*
X49120000Y-151003000D01*
X49076000Y-150975000D01*
X49035000Y-150942000D01*
X48998000Y-150905000D01*
X48965000Y-150864000D01*
X48937000Y-150820000D01*
X48913000Y-150773000D01*
X48894000Y-150725000D01*
X48881000Y-150674000D01*
X48873000Y-150622000D01*
X48870000Y-150570000D01*
X48873000Y-150518000D01*
X48881000Y-150466000D01*
X48894000Y-150415000D01*
X48913000Y-150367000D01*
X48937000Y-150320000D01*
X48965000Y-150276000D01*
X48998000Y-150235000D01*
X49035000Y-150198000D01*
X49076000Y-150165000D01*
X49120000Y-150137000D01*
X49167000Y-150113000D01*
X49215000Y-150094000D01*
X49266000Y-150081000D01*
X49318000Y-150073000D01*
X49370000Y-150070000D01*
X51170000Y-150070000D01*
X51222000Y-150073000D01*
G36*
X51222000Y-150073000D02*
G01*
X51274000Y-150081000D01*
X51325000Y-150094000D01*
X51373000Y-150113000D01*
X51420000Y-150137000D01*
X51464000Y-150165000D01*
X51505000Y-150198000D01*
X51542000Y-150235000D01*
X51575000Y-150276000D01*
X51603000Y-150320000D01*
X51627000Y-150367000D01*
X51646000Y-150415000D01*
X51659000Y-150466000D01*
X51667000Y-150518000D01*
X51670000Y-150570000D01*
X51667000Y-150622000D01*
X51659000Y-150674000D01*
X51646000Y-150725000D01*
X51627000Y-150773000D01*
X51603000Y-150820000D01*
X51575000Y-150864000D01*
X51542000Y-150905000D01*
X51505000Y-150942000D01*
X51464000Y-150975000D01*
X51420000Y-151003000D01*
X51373000Y-151027000D01*
X51325000Y-151046000D01*
X51274000Y-151059000D01*
X51222000Y-151067000D01*
X51170000Y-151070000D01*
X49370000Y-151070000D01*
X49318000Y-151067000D01*
X49266000Y-151059000D01*
X49215000Y-151046000D01*
X49167000Y-151027000D01*
X49120000Y-151003000D01*
X49076000Y-150975000D01*
X49035000Y-150942000D01*
X48998000Y-150905000D01*
X48965000Y-150864000D01*
X48937000Y-150820000D01*
X48913000Y-150773000D01*
X48894000Y-150725000D01*
X48881000Y-150674000D01*
X48873000Y-150622000D01*
X48870000Y-150570000D01*
X48873000Y-150518000D01*
X48881000Y-150466000D01*
X48894000Y-150415000D01*
X48913000Y-150367000D01*
X48937000Y-150320000D01*
X48965000Y-150276000D01*
X48998000Y-150235000D01*
X49035000Y-150198000D01*
X49076000Y-150165000D01*
X49120000Y-150137000D01*
X49167000Y-150113000D01*
X49215000Y-150094000D01*
X49266000Y-150081000D01*
X49318000Y-150073000D01*
X49370000Y-150070000D01*
X51170000Y-150070000D01*
X51222000Y-150073000D01*
G37*
X51222000Y-152613000D02*
X51274000Y-152621000D01*
X51325000Y-152634000D01*
X51373000Y-152653000D01*
X51420000Y-152677000D01*
X51464000Y-152705000D01*
X51505000Y-152738000D01*
X51542000Y-152775000D01*
X51575000Y-152816000D01*
X51603000Y-152860000D01*
X51627000Y-152907000D01*
X51646000Y-152955000D01*
X51659000Y-153006000D01*
X51667000Y-153058000D01*
X51670000Y-153110000D01*
X51667000Y-153162000D01*
X51659000Y-153214000D01*
X51646000Y-153265000D01*
X51627000Y-153313000D01*
X51603000Y-153360000D01*
X51575000Y-153404000D01*
X51542000Y-153445000D01*
X51505000Y-153482000D01*
X51464000Y-153515000D01*
X51420000Y-153543000D01*
X51373000Y-153567000D01*
X51325000Y-153586000D01*
X51274000Y-153599000D01*
X51222000Y-153607000D01*
X51170000Y-153610000D01*
X49370000Y-153610000D01*
X49318000Y-153607000D01*
X49266000Y-153599000D01*
X49215000Y-153586000D01*
X49167000Y-153567000D01*
X49120000Y-153543000D01*
X49076000Y-153515000D01*
X49035000Y-153482000D01*
X48998000Y-153445000D01*
X48965000Y-153404000D01*
X48937000Y-153360000D01*
X48913000Y-153313000D01*
X48894000Y-153265000D01*
X48881000Y-153214000D01*
X48873000Y-153162000D01*
X48870000Y-153110000D01*
X48873000Y-153058000D01*
X48881000Y-153006000D01*
X48894000Y-152955000D01*
X48913000Y-152907000D01*
X48937000Y-152860000D01*
X48965000Y-152816000D01*
X48998000Y-152775000D01*
X49035000Y-152738000D01*
X49076000Y-152705000D01*
X49120000Y-152677000D01*
X49167000Y-152653000D01*
X49215000Y-152634000D01*
X49266000Y-152621000D01*
X49318000Y-152613000D01*
X49370000Y-152610000D01*
X51170000Y-152610000D01*
X51222000Y-152613000D01*
G36*
X51222000Y-152613000D02*
G01*
X51274000Y-152621000D01*
X51325000Y-152634000D01*
X51373000Y-152653000D01*
X51420000Y-152677000D01*
X51464000Y-152705000D01*
X51505000Y-152738000D01*
X51542000Y-152775000D01*
X51575000Y-152816000D01*
X51603000Y-152860000D01*
X51627000Y-152907000D01*
X51646000Y-152955000D01*
X51659000Y-153006000D01*
X51667000Y-153058000D01*
X51670000Y-153110000D01*
X51667000Y-153162000D01*
X51659000Y-153214000D01*
X51646000Y-153265000D01*
X51627000Y-153313000D01*
X51603000Y-153360000D01*
X51575000Y-153404000D01*
X51542000Y-153445000D01*
X51505000Y-153482000D01*
X51464000Y-153515000D01*
X51420000Y-153543000D01*
X51373000Y-153567000D01*
X51325000Y-153586000D01*
X51274000Y-153599000D01*
X51222000Y-153607000D01*
X51170000Y-153610000D01*
X49370000Y-153610000D01*
X49318000Y-153607000D01*
X49266000Y-153599000D01*
X49215000Y-153586000D01*
X49167000Y-153567000D01*
X49120000Y-153543000D01*
X49076000Y-153515000D01*
X49035000Y-153482000D01*
X48998000Y-153445000D01*
X48965000Y-153404000D01*
X48937000Y-153360000D01*
X48913000Y-153313000D01*
X48894000Y-153265000D01*
X48881000Y-153214000D01*
X48873000Y-153162000D01*
X48870000Y-153110000D01*
X48873000Y-153058000D01*
X48881000Y-153006000D01*
X48894000Y-152955000D01*
X48913000Y-152907000D01*
X48937000Y-152860000D01*
X48965000Y-152816000D01*
X48998000Y-152775000D01*
X49035000Y-152738000D01*
X49076000Y-152705000D01*
X49120000Y-152677000D01*
X49167000Y-152653000D01*
X49215000Y-152634000D01*
X49266000Y-152621000D01*
X49318000Y-152613000D01*
X49370000Y-152610000D01*
X51170000Y-152610000D01*
X51222000Y-152613000D01*
G37*
X51222000Y-155153000D02*
X51274000Y-155161000D01*
X51325000Y-155174000D01*
X51373000Y-155193000D01*
X51420000Y-155217000D01*
X51464000Y-155245000D01*
X51505000Y-155278000D01*
X51542000Y-155315000D01*
X51575000Y-155356000D01*
X51603000Y-155400000D01*
X51627000Y-155447000D01*
X51646000Y-155495000D01*
X51659000Y-155546000D01*
X51667000Y-155598000D01*
X51670000Y-155650000D01*
X51667000Y-155702000D01*
X51659000Y-155754000D01*
X51646000Y-155805000D01*
X51627000Y-155853000D01*
X51603000Y-155900000D01*
X51575000Y-155944000D01*
X51542000Y-155985000D01*
X51505000Y-156022000D01*
X51464000Y-156055000D01*
X51420000Y-156083000D01*
X51373000Y-156107000D01*
X51325000Y-156126000D01*
X51274000Y-156139000D01*
X51222000Y-156147000D01*
X51170000Y-156150000D01*
X49370000Y-156150000D01*
X49318000Y-156147000D01*
X49266000Y-156139000D01*
X49215000Y-156126000D01*
X49167000Y-156107000D01*
X49120000Y-156083000D01*
X49076000Y-156055000D01*
X49035000Y-156022000D01*
X48998000Y-155985000D01*
X48965000Y-155944000D01*
X48937000Y-155900000D01*
X48913000Y-155853000D01*
X48894000Y-155805000D01*
X48881000Y-155754000D01*
X48873000Y-155702000D01*
X48870000Y-155650000D01*
X48873000Y-155598000D01*
X48881000Y-155546000D01*
X48894000Y-155495000D01*
X48913000Y-155447000D01*
X48937000Y-155400000D01*
X48965000Y-155356000D01*
X48998000Y-155315000D01*
X49035000Y-155278000D01*
X49076000Y-155245000D01*
X49120000Y-155217000D01*
X49167000Y-155193000D01*
X49215000Y-155174000D01*
X49266000Y-155161000D01*
X49318000Y-155153000D01*
X49370000Y-155150000D01*
X51170000Y-155150000D01*
X51222000Y-155153000D01*
G36*
X51222000Y-155153000D02*
G01*
X51274000Y-155161000D01*
X51325000Y-155174000D01*
X51373000Y-155193000D01*
X51420000Y-155217000D01*
X51464000Y-155245000D01*
X51505000Y-155278000D01*
X51542000Y-155315000D01*
X51575000Y-155356000D01*
X51603000Y-155400000D01*
X51627000Y-155447000D01*
X51646000Y-155495000D01*
X51659000Y-155546000D01*
X51667000Y-155598000D01*
X51670000Y-155650000D01*
X51667000Y-155702000D01*
X51659000Y-155754000D01*
X51646000Y-155805000D01*
X51627000Y-155853000D01*
X51603000Y-155900000D01*
X51575000Y-155944000D01*
X51542000Y-155985000D01*
X51505000Y-156022000D01*
X51464000Y-156055000D01*
X51420000Y-156083000D01*
X51373000Y-156107000D01*
X51325000Y-156126000D01*
X51274000Y-156139000D01*
X51222000Y-156147000D01*
X51170000Y-156150000D01*
X49370000Y-156150000D01*
X49318000Y-156147000D01*
X49266000Y-156139000D01*
X49215000Y-156126000D01*
X49167000Y-156107000D01*
X49120000Y-156083000D01*
X49076000Y-156055000D01*
X49035000Y-156022000D01*
X48998000Y-155985000D01*
X48965000Y-155944000D01*
X48937000Y-155900000D01*
X48913000Y-155853000D01*
X48894000Y-155805000D01*
X48881000Y-155754000D01*
X48873000Y-155702000D01*
X48870000Y-155650000D01*
X48873000Y-155598000D01*
X48881000Y-155546000D01*
X48894000Y-155495000D01*
X48913000Y-155447000D01*
X48937000Y-155400000D01*
X48965000Y-155356000D01*
X48998000Y-155315000D01*
X49035000Y-155278000D01*
X49076000Y-155245000D01*
X49120000Y-155217000D01*
X49167000Y-155193000D01*
X49215000Y-155174000D01*
X49266000Y-155161000D01*
X49318000Y-155153000D01*
X49370000Y-155150000D01*
X51170000Y-155150000D01*
X51222000Y-155153000D01*
G37*
X51222000Y-157693000D02*
X51274000Y-157701000D01*
X51325000Y-157714000D01*
X51373000Y-157733000D01*
X51420000Y-157757000D01*
X51464000Y-157785000D01*
X51505000Y-157818000D01*
X51542000Y-157855000D01*
X51575000Y-157896000D01*
X51603000Y-157940000D01*
X51627000Y-157987000D01*
X51646000Y-158035000D01*
X51659000Y-158086000D01*
X51667000Y-158138000D01*
X51670000Y-158190000D01*
X51667000Y-158242000D01*
X51659000Y-158294000D01*
X51646000Y-158345000D01*
X51627000Y-158393000D01*
X51603000Y-158440000D01*
X51575000Y-158484000D01*
X51542000Y-158525000D01*
X51505000Y-158562000D01*
X51464000Y-158595000D01*
X51420000Y-158623000D01*
X51373000Y-158647000D01*
X51325000Y-158666000D01*
X51274000Y-158679000D01*
X51222000Y-158687000D01*
X51170000Y-158690000D01*
X49370000Y-158690000D01*
X49318000Y-158687000D01*
X49266000Y-158679000D01*
X49215000Y-158666000D01*
X49167000Y-158647000D01*
X49120000Y-158623000D01*
X49076000Y-158595000D01*
X49035000Y-158562000D01*
X48998000Y-158525000D01*
X48965000Y-158484000D01*
X48937000Y-158440000D01*
X48913000Y-158393000D01*
X48894000Y-158345000D01*
X48881000Y-158294000D01*
X48873000Y-158242000D01*
X48870000Y-158190000D01*
X48873000Y-158138000D01*
X48881000Y-158086000D01*
X48894000Y-158035000D01*
X48913000Y-157987000D01*
X48937000Y-157940000D01*
X48965000Y-157896000D01*
X48998000Y-157855000D01*
X49035000Y-157818000D01*
X49076000Y-157785000D01*
X49120000Y-157757000D01*
X49167000Y-157733000D01*
X49215000Y-157714000D01*
X49266000Y-157701000D01*
X49318000Y-157693000D01*
X49370000Y-157690000D01*
X51170000Y-157690000D01*
X51222000Y-157693000D01*
G36*
X51222000Y-157693000D02*
G01*
X51274000Y-157701000D01*
X51325000Y-157714000D01*
X51373000Y-157733000D01*
X51420000Y-157757000D01*
X51464000Y-157785000D01*
X51505000Y-157818000D01*
X51542000Y-157855000D01*
X51575000Y-157896000D01*
X51603000Y-157940000D01*
X51627000Y-157987000D01*
X51646000Y-158035000D01*
X51659000Y-158086000D01*
X51667000Y-158138000D01*
X51670000Y-158190000D01*
X51667000Y-158242000D01*
X51659000Y-158294000D01*
X51646000Y-158345000D01*
X51627000Y-158393000D01*
X51603000Y-158440000D01*
X51575000Y-158484000D01*
X51542000Y-158525000D01*
X51505000Y-158562000D01*
X51464000Y-158595000D01*
X51420000Y-158623000D01*
X51373000Y-158647000D01*
X51325000Y-158666000D01*
X51274000Y-158679000D01*
X51222000Y-158687000D01*
X51170000Y-158690000D01*
X49370000Y-158690000D01*
X49318000Y-158687000D01*
X49266000Y-158679000D01*
X49215000Y-158666000D01*
X49167000Y-158647000D01*
X49120000Y-158623000D01*
X49076000Y-158595000D01*
X49035000Y-158562000D01*
X48998000Y-158525000D01*
X48965000Y-158484000D01*
X48937000Y-158440000D01*
X48913000Y-158393000D01*
X48894000Y-158345000D01*
X48881000Y-158294000D01*
X48873000Y-158242000D01*
X48870000Y-158190000D01*
X48873000Y-158138000D01*
X48881000Y-158086000D01*
X48894000Y-158035000D01*
X48913000Y-157987000D01*
X48937000Y-157940000D01*
X48965000Y-157896000D01*
X48998000Y-157855000D01*
X49035000Y-157818000D01*
X49076000Y-157785000D01*
X49120000Y-157757000D01*
X49167000Y-157733000D01*
X49215000Y-157714000D01*
X49266000Y-157701000D01*
X49318000Y-157693000D01*
X49370000Y-157690000D01*
X51170000Y-157690000D01*
X51222000Y-157693000D01*
G37*
X67222000Y-144993000D02*
X67274000Y-145001000D01*
X67325000Y-145014000D01*
X67373000Y-145033000D01*
X67420000Y-145057000D01*
X67464000Y-145085000D01*
X67505000Y-145118000D01*
X67542000Y-145155000D01*
X67575000Y-145196000D01*
X67603000Y-145240000D01*
X67627000Y-145287000D01*
X67646000Y-145335000D01*
X67659000Y-145386000D01*
X67667000Y-145438000D01*
X67670000Y-145490000D01*
X67667000Y-145542000D01*
X67659000Y-145594000D01*
X67646000Y-145645000D01*
X67627000Y-145693000D01*
X67603000Y-145740000D01*
X67575000Y-145784000D01*
X67542000Y-145825000D01*
X67505000Y-145862000D01*
X67464000Y-145895000D01*
X67420000Y-145923000D01*
X67373000Y-145947000D01*
X67325000Y-145966000D01*
X67274000Y-145979000D01*
X67222000Y-145987000D01*
X67170000Y-145990000D01*
X66270000Y-145990000D01*
X65470000Y-145990000D01*
X65370000Y-145990000D01*
X65318000Y-145987000D01*
X65266000Y-145979000D01*
X65215000Y-145966000D01*
X65167000Y-145947000D01*
X65120000Y-145923000D01*
X65076000Y-145895000D01*
X65035000Y-145862000D01*
X64998000Y-145825000D01*
X64965000Y-145784000D01*
X64937000Y-145740000D01*
X64913000Y-145693000D01*
X64894000Y-145645000D01*
X64881000Y-145594000D01*
X64873000Y-145542000D01*
X64870000Y-145490000D01*
X64873000Y-145438000D01*
X64881000Y-145386000D01*
X64894000Y-145335000D01*
X64913000Y-145287000D01*
X64937000Y-145240000D01*
X64965000Y-145196000D01*
X64998000Y-145155000D01*
X65035000Y-145118000D01*
X65076000Y-145085000D01*
X65120000Y-145057000D01*
X65167000Y-145033000D01*
X65215000Y-145014000D01*
X65266000Y-145001000D01*
X65318000Y-144993000D01*
X65370000Y-144990000D01*
X67170000Y-144990000D01*
X67222000Y-144993000D01*
G36*
X67222000Y-144993000D02*
G01*
X67274000Y-145001000D01*
X67325000Y-145014000D01*
X67373000Y-145033000D01*
X67420000Y-145057000D01*
X67464000Y-145085000D01*
X67505000Y-145118000D01*
X67542000Y-145155000D01*
X67575000Y-145196000D01*
X67603000Y-145240000D01*
X67627000Y-145287000D01*
X67646000Y-145335000D01*
X67659000Y-145386000D01*
X67667000Y-145438000D01*
X67670000Y-145490000D01*
X67667000Y-145542000D01*
X67659000Y-145594000D01*
X67646000Y-145645000D01*
X67627000Y-145693000D01*
X67603000Y-145740000D01*
X67575000Y-145784000D01*
X67542000Y-145825000D01*
X67505000Y-145862000D01*
X67464000Y-145895000D01*
X67420000Y-145923000D01*
X67373000Y-145947000D01*
X67325000Y-145966000D01*
X67274000Y-145979000D01*
X67222000Y-145987000D01*
X67170000Y-145990000D01*
X66270000Y-145990000D01*
X65470000Y-145990000D01*
X65370000Y-145990000D01*
X65318000Y-145987000D01*
X65266000Y-145979000D01*
X65215000Y-145966000D01*
X65167000Y-145947000D01*
X65120000Y-145923000D01*
X65076000Y-145895000D01*
X65035000Y-145862000D01*
X64998000Y-145825000D01*
X64965000Y-145784000D01*
X64937000Y-145740000D01*
X64913000Y-145693000D01*
X64894000Y-145645000D01*
X64881000Y-145594000D01*
X64873000Y-145542000D01*
X64870000Y-145490000D01*
X64873000Y-145438000D01*
X64881000Y-145386000D01*
X64894000Y-145335000D01*
X64913000Y-145287000D01*
X64937000Y-145240000D01*
X64965000Y-145196000D01*
X64998000Y-145155000D01*
X65035000Y-145118000D01*
X65076000Y-145085000D01*
X65120000Y-145057000D01*
X65167000Y-145033000D01*
X65215000Y-145014000D01*
X65266000Y-145001000D01*
X65318000Y-144993000D01*
X65370000Y-144990000D01*
X67170000Y-144990000D01*
X67222000Y-144993000D01*
G37*
X67222000Y-147533000D02*
X67274000Y-147541000D01*
X67325000Y-147554000D01*
X67373000Y-147573000D01*
X67420000Y-147597000D01*
X67464000Y-147625000D01*
X67505000Y-147658000D01*
X67542000Y-147695000D01*
X67575000Y-147736000D01*
X67603000Y-147780000D01*
X67627000Y-147827000D01*
X67646000Y-147875000D01*
X67659000Y-147926000D01*
X67667000Y-147978000D01*
X67670000Y-148030000D01*
X67667000Y-148082000D01*
X67659000Y-148134000D01*
X67646000Y-148185000D01*
X67627000Y-148233000D01*
X67603000Y-148280000D01*
X67575000Y-148324000D01*
X67542000Y-148365000D01*
X67505000Y-148402000D01*
X67464000Y-148435000D01*
X67420000Y-148463000D01*
X67373000Y-148487000D01*
X67325000Y-148506000D01*
X67274000Y-148519000D01*
X67222000Y-148527000D01*
X67170000Y-148530000D01*
X66270000Y-148530000D01*
X65470000Y-148530000D01*
X65370000Y-148530000D01*
X65318000Y-148527000D01*
X65266000Y-148519000D01*
X65215000Y-148506000D01*
X65167000Y-148487000D01*
X65120000Y-148463000D01*
X65076000Y-148435000D01*
X65035000Y-148402000D01*
X64998000Y-148365000D01*
X64965000Y-148324000D01*
X64937000Y-148280000D01*
X64913000Y-148233000D01*
X64894000Y-148185000D01*
X64881000Y-148134000D01*
X64873000Y-148082000D01*
X64870000Y-148030000D01*
X64873000Y-147978000D01*
X64881000Y-147926000D01*
X64894000Y-147875000D01*
X64913000Y-147827000D01*
X64937000Y-147780000D01*
X64965000Y-147736000D01*
X64998000Y-147695000D01*
X65035000Y-147658000D01*
X65076000Y-147625000D01*
X65120000Y-147597000D01*
X65167000Y-147573000D01*
X65215000Y-147554000D01*
X65266000Y-147541000D01*
X65318000Y-147533000D01*
X65370000Y-147530000D01*
X67170000Y-147530000D01*
X67222000Y-147533000D01*
G36*
X67222000Y-147533000D02*
G01*
X67274000Y-147541000D01*
X67325000Y-147554000D01*
X67373000Y-147573000D01*
X67420000Y-147597000D01*
X67464000Y-147625000D01*
X67505000Y-147658000D01*
X67542000Y-147695000D01*
X67575000Y-147736000D01*
X67603000Y-147780000D01*
X67627000Y-147827000D01*
X67646000Y-147875000D01*
X67659000Y-147926000D01*
X67667000Y-147978000D01*
X67670000Y-148030000D01*
X67667000Y-148082000D01*
X67659000Y-148134000D01*
X67646000Y-148185000D01*
X67627000Y-148233000D01*
X67603000Y-148280000D01*
X67575000Y-148324000D01*
X67542000Y-148365000D01*
X67505000Y-148402000D01*
X67464000Y-148435000D01*
X67420000Y-148463000D01*
X67373000Y-148487000D01*
X67325000Y-148506000D01*
X67274000Y-148519000D01*
X67222000Y-148527000D01*
X67170000Y-148530000D01*
X66270000Y-148530000D01*
X65470000Y-148530000D01*
X65370000Y-148530000D01*
X65318000Y-148527000D01*
X65266000Y-148519000D01*
X65215000Y-148506000D01*
X65167000Y-148487000D01*
X65120000Y-148463000D01*
X65076000Y-148435000D01*
X65035000Y-148402000D01*
X64998000Y-148365000D01*
X64965000Y-148324000D01*
X64937000Y-148280000D01*
X64913000Y-148233000D01*
X64894000Y-148185000D01*
X64881000Y-148134000D01*
X64873000Y-148082000D01*
X64870000Y-148030000D01*
X64873000Y-147978000D01*
X64881000Y-147926000D01*
X64894000Y-147875000D01*
X64913000Y-147827000D01*
X64937000Y-147780000D01*
X64965000Y-147736000D01*
X64998000Y-147695000D01*
X65035000Y-147658000D01*
X65076000Y-147625000D01*
X65120000Y-147597000D01*
X65167000Y-147573000D01*
X65215000Y-147554000D01*
X65266000Y-147541000D01*
X65318000Y-147533000D01*
X65370000Y-147530000D01*
X67170000Y-147530000D01*
X67222000Y-147533000D01*
G37*
X67222000Y-150073000D02*
X67274000Y-150081000D01*
X67325000Y-150094000D01*
X67373000Y-150113000D01*
X67420000Y-150137000D01*
X67464000Y-150165000D01*
X67505000Y-150198000D01*
X67542000Y-150235000D01*
X67575000Y-150276000D01*
X67603000Y-150320000D01*
X67627000Y-150367000D01*
X67646000Y-150415000D01*
X67659000Y-150466000D01*
X67667000Y-150518000D01*
X67670000Y-150570000D01*
X67667000Y-150622000D01*
X67659000Y-150674000D01*
X67646000Y-150725000D01*
X67627000Y-150773000D01*
X67603000Y-150820000D01*
X67575000Y-150864000D01*
X67542000Y-150905000D01*
X67505000Y-150942000D01*
X67464000Y-150975000D01*
X67420000Y-151003000D01*
X67373000Y-151027000D01*
X67325000Y-151046000D01*
X67274000Y-151059000D01*
X67222000Y-151067000D01*
X67170000Y-151070000D01*
X66270000Y-151070000D01*
X65470000Y-151070000D01*
X65370000Y-151070000D01*
X65318000Y-151067000D01*
X65266000Y-151059000D01*
X65215000Y-151046000D01*
X65167000Y-151027000D01*
X65120000Y-151003000D01*
X65076000Y-150975000D01*
X65035000Y-150942000D01*
X64998000Y-150905000D01*
X64965000Y-150864000D01*
X64937000Y-150820000D01*
X64913000Y-150773000D01*
X64894000Y-150725000D01*
X64881000Y-150674000D01*
X64873000Y-150622000D01*
X64870000Y-150570000D01*
X64873000Y-150518000D01*
X64881000Y-150466000D01*
X64894000Y-150415000D01*
X64913000Y-150367000D01*
X64937000Y-150320000D01*
X64965000Y-150276000D01*
X64998000Y-150235000D01*
X65035000Y-150198000D01*
X65076000Y-150165000D01*
X65120000Y-150137000D01*
X65167000Y-150113000D01*
X65215000Y-150094000D01*
X65266000Y-150081000D01*
X65318000Y-150073000D01*
X65370000Y-150070000D01*
X67170000Y-150070000D01*
X67222000Y-150073000D01*
G36*
X67222000Y-150073000D02*
G01*
X67274000Y-150081000D01*
X67325000Y-150094000D01*
X67373000Y-150113000D01*
X67420000Y-150137000D01*
X67464000Y-150165000D01*
X67505000Y-150198000D01*
X67542000Y-150235000D01*
X67575000Y-150276000D01*
X67603000Y-150320000D01*
X67627000Y-150367000D01*
X67646000Y-150415000D01*
X67659000Y-150466000D01*
X67667000Y-150518000D01*
X67670000Y-150570000D01*
X67667000Y-150622000D01*
X67659000Y-150674000D01*
X67646000Y-150725000D01*
X67627000Y-150773000D01*
X67603000Y-150820000D01*
X67575000Y-150864000D01*
X67542000Y-150905000D01*
X67505000Y-150942000D01*
X67464000Y-150975000D01*
X67420000Y-151003000D01*
X67373000Y-151027000D01*
X67325000Y-151046000D01*
X67274000Y-151059000D01*
X67222000Y-151067000D01*
X67170000Y-151070000D01*
X66270000Y-151070000D01*
X65470000Y-151070000D01*
X65370000Y-151070000D01*
X65318000Y-151067000D01*
X65266000Y-151059000D01*
X65215000Y-151046000D01*
X65167000Y-151027000D01*
X65120000Y-151003000D01*
X65076000Y-150975000D01*
X65035000Y-150942000D01*
X64998000Y-150905000D01*
X64965000Y-150864000D01*
X64937000Y-150820000D01*
X64913000Y-150773000D01*
X64894000Y-150725000D01*
X64881000Y-150674000D01*
X64873000Y-150622000D01*
X64870000Y-150570000D01*
X64873000Y-150518000D01*
X64881000Y-150466000D01*
X64894000Y-150415000D01*
X64913000Y-150367000D01*
X64937000Y-150320000D01*
X64965000Y-150276000D01*
X64998000Y-150235000D01*
X65035000Y-150198000D01*
X65076000Y-150165000D01*
X65120000Y-150137000D01*
X65167000Y-150113000D01*
X65215000Y-150094000D01*
X65266000Y-150081000D01*
X65318000Y-150073000D01*
X65370000Y-150070000D01*
X67170000Y-150070000D01*
X67222000Y-150073000D01*
G37*
X67222000Y-152613000D02*
X67274000Y-152621000D01*
X67325000Y-152634000D01*
X67373000Y-152653000D01*
X67420000Y-152677000D01*
X67464000Y-152705000D01*
X67505000Y-152738000D01*
X67542000Y-152775000D01*
X67575000Y-152816000D01*
X67603000Y-152860000D01*
X67627000Y-152907000D01*
X67646000Y-152955000D01*
X67659000Y-153006000D01*
X67667000Y-153058000D01*
X67670000Y-153110000D01*
X67667000Y-153162000D01*
X67659000Y-153214000D01*
X67646000Y-153265000D01*
X67627000Y-153313000D01*
X67603000Y-153360000D01*
X67575000Y-153404000D01*
X67542000Y-153445000D01*
X67505000Y-153482000D01*
X67464000Y-153515000D01*
X67420000Y-153543000D01*
X67373000Y-153567000D01*
X67325000Y-153586000D01*
X67274000Y-153599000D01*
X67222000Y-153607000D01*
X67170000Y-153610000D01*
X66270000Y-153610000D01*
X65470000Y-153610000D01*
X65370000Y-153610000D01*
X65318000Y-153607000D01*
X65266000Y-153599000D01*
X65215000Y-153586000D01*
X65167000Y-153567000D01*
X65120000Y-153543000D01*
X65076000Y-153515000D01*
X65035000Y-153482000D01*
X64998000Y-153445000D01*
X64965000Y-153404000D01*
X64937000Y-153360000D01*
X64913000Y-153313000D01*
X64894000Y-153265000D01*
X64881000Y-153214000D01*
X64873000Y-153162000D01*
X64870000Y-153110000D01*
X64873000Y-153058000D01*
X64881000Y-153006000D01*
X64894000Y-152955000D01*
X64913000Y-152907000D01*
X64937000Y-152860000D01*
X64965000Y-152816000D01*
X64998000Y-152775000D01*
X65035000Y-152738000D01*
X65076000Y-152705000D01*
X65120000Y-152677000D01*
X65167000Y-152653000D01*
X65215000Y-152634000D01*
X65266000Y-152621000D01*
X65318000Y-152613000D01*
X65370000Y-152610000D01*
X67170000Y-152610000D01*
X67222000Y-152613000D01*
G36*
X67222000Y-152613000D02*
G01*
X67274000Y-152621000D01*
X67325000Y-152634000D01*
X67373000Y-152653000D01*
X67420000Y-152677000D01*
X67464000Y-152705000D01*
X67505000Y-152738000D01*
X67542000Y-152775000D01*
X67575000Y-152816000D01*
X67603000Y-152860000D01*
X67627000Y-152907000D01*
X67646000Y-152955000D01*
X67659000Y-153006000D01*
X67667000Y-153058000D01*
X67670000Y-153110000D01*
X67667000Y-153162000D01*
X67659000Y-153214000D01*
X67646000Y-153265000D01*
X67627000Y-153313000D01*
X67603000Y-153360000D01*
X67575000Y-153404000D01*
X67542000Y-153445000D01*
X67505000Y-153482000D01*
X67464000Y-153515000D01*
X67420000Y-153543000D01*
X67373000Y-153567000D01*
X67325000Y-153586000D01*
X67274000Y-153599000D01*
X67222000Y-153607000D01*
X67170000Y-153610000D01*
X66270000Y-153610000D01*
X65470000Y-153610000D01*
X65370000Y-153610000D01*
X65318000Y-153607000D01*
X65266000Y-153599000D01*
X65215000Y-153586000D01*
X65167000Y-153567000D01*
X65120000Y-153543000D01*
X65076000Y-153515000D01*
X65035000Y-153482000D01*
X64998000Y-153445000D01*
X64965000Y-153404000D01*
X64937000Y-153360000D01*
X64913000Y-153313000D01*
X64894000Y-153265000D01*
X64881000Y-153214000D01*
X64873000Y-153162000D01*
X64870000Y-153110000D01*
X64873000Y-153058000D01*
X64881000Y-153006000D01*
X64894000Y-152955000D01*
X64913000Y-152907000D01*
X64937000Y-152860000D01*
X64965000Y-152816000D01*
X64998000Y-152775000D01*
X65035000Y-152738000D01*
X65076000Y-152705000D01*
X65120000Y-152677000D01*
X65167000Y-152653000D01*
X65215000Y-152634000D01*
X65266000Y-152621000D01*
X65318000Y-152613000D01*
X65370000Y-152610000D01*
X67170000Y-152610000D01*
X67222000Y-152613000D01*
G37*
X67222000Y-155153000D02*
X67274000Y-155161000D01*
X67325000Y-155174000D01*
X67373000Y-155193000D01*
X67420000Y-155217000D01*
X67464000Y-155245000D01*
X67505000Y-155278000D01*
X67542000Y-155315000D01*
X67575000Y-155356000D01*
X67603000Y-155400000D01*
X67627000Y-155447000D01*
X67646000Y-155495000D01*
X67659000Y-155546000D01*
X67667000Y-155598000D01*
X67670000Y-155650000D01*
X67667000Y-155702000D01*
X67659000Y-155754000D01*
X67646000Y-155805000D01*
X67627000Y-155853000D01*
X67603000Y-155900000D01*
X67575000Y-155944000D01*
X67542000Y-155985000D01*
X67505000Y-156022000D01*
X67464000Y-156055000D01*
X67420000Y-156083000D01*
X67373000Y-156107000D01*
X67325000Y-156126000D01*
X67274000Y-156139000D01*
X67222000Y-156147000D01*
X67170000Y-156150000D01*
X66270000Y-156150000D01*
X65470000Y-156150000D01*
X65370000Y-156150000D01*
X65318000Y-156147000D01*
X65266000Y-156139000D01*
X65215000Y-156126000D01*
X65167000Y-156107000D01*
X65120000Y-156083000D01*
X65076000Y-156055000D01*
X65035000Y-156022000D01*
X64998000Y-155985000D01*
X64965000Y-155944000D01*
X64937000Y-155900000D01*
X64913000Y-155853000D01*
X64894000Y-155805000D01*
X64881000Y-155754000D01*
X64873000Y-155702000D01*
X64870000Y-155650000D01*
X64873000Y-155598000D01*
X64881000Y-155546000D01*
X64894000Y-155495000D01*
X64913000Y-155447000D01*
X64937000Y-155400000D01*
X64965000Y-155356000D01*
X64998000Y-155315000D01*
X65035000Y-155278000D01*
X65076000Y-155245000D01*
X65120000Y-155217000D01*
X65167000Y-155193000D01*
X65215000Y-155174000D01*
X65266000Y-155161000D01*
X65318000Y-155153000D01*
X65370000Y-155150000D01*
X67170000Y-155150000D01*
X67222000Y-155153000D01*
G36*
X67222000Y-155153000D02*
G01*
X67274000Y-155161000D01*
X67325000Y-155174000D01*
X67373000Y-155193000D01*
X67420000Y-155217000D01*
X67464000Y-155245000D01*
X67505000Y-155278000D01*
X67542000Y-155315000D01*
X67575000Y-155356000D01*
X67603000Y-155400000D01*
X67627000Y-155447000D01*
X67646000Y-155495000D01*
X67659000Y-155546000D01*
X67667000Y-155598000D01*
X67670000Y-155650000D01*
X67667000Y-155702000D01*
X67659000Y-155754000D01*
X67646000Y-155805000D01*
X67627000Y-155853000D01*
X67603000Y-155900000D01*
X67575000Y-155944000D01*
X67542000Y-155985000D01*
X67505000Y-156022000D01*
X67464000Y-156055000D01*
X67420000Y-156083000D01*
X67373000Y-156107000D01*
X67325000Y-156126000D01*
X67274000Y-156139000D01*
X67222000Y-156147000D01*
X67170000Y-156150000D01*
X66270000Y-156150000D01*
X65470000Y-156150000D01*
X65370000Y-156150000D01*
X65318000Y-156147000D01*
X65266000Y-156139000D01*
X65215000Y-156126000D01*
X65167000Y-156107000D01*
X65120000Y-156083000D01*
X65076000Y-156055000D01*
X65035000Y-156022000D01*
X64998000Y-155985000D01*
X64965000Y-155944000D01*
X64937000Y-155900000D01*
X64913000Y-155853000D01*
X64894000Y-155805000D01*
X64881000Y-155754000D01*
X64873000Y-155702000D01*
X64870000Y-155650000D01*
X64873000Y-155598000D01*
X64881000Y-155546000D01*
X64894000Y-155495000D01*
X64913000Y-155447000D01*
X64937000Y-155400000D01*
X64965000Y-155356000D01*
X64998000Y-155315000D01*
X65035000Y-155278000D01*
X65076000Y-155245000D01*
X65120000Y-155217000D01*
X65167000Y-155193000D01*
X65215000Y-155174000D01*
X65266000Y-155161000D01*
X65318000Y-155153000D01*
X65370000Y-155150000D01*
X67170000Y-155150000D01*
X67222000Y-155153000D01*
G37*
X67222000Y-157693000D02*
X67274000Y-157701000D01*
X67325000Y-157714000D01*
X67373000Y-157733000D01*
X67420000Y-157757000D01*
X67464000Y-157785000D01*
X67505000Y-157818000D01*
X67542000Y-157855000D01*
X67575000Y-157896000D01*
X67603000Y-157940000D01*
X67627000Y-157987000D01*
X67646000Y-158035000D01*
X67659000Y-158086000D01*
X67667000Y-158138000D01*
X67670000Y-158190000D01*
X67667000Y-158242000D01*
X67659000Y-158294000D01*
X67646000Y-158345000D01*
X67627000Y-158393000D01*
X67603000Y-158440000D01*
X67575000Y-158484000D01*
X67542000Y-158525000D01*
X67505000Y-158562000D01*
X67464000Y-158595000D01*
X67420000Y-158623000D01*
X67373000Y-158647000D01*
X67325000Y-158666000D01*
X67274000Y-158679000D01*
X67222000Y-158687000D01*
X67170000Y-158690000D01*
X66270000Y-158690000D01*
X65470000Y-158690000D01*
X65370000Y-158690000D01*
X65318000Y-158687000D01*
X65266000Y-158679000D01*
X65215000Y-158666000D01*
X65167000Y-158647000D01*
X65120000Y-158623000D01*
X65076000Y-158595000D01*
X65035000Y-158562000D01*
X64998000Y-158525000D01*
X64965000Y-158484000D01*
X64937000Y-158440000D01*
X64913000Y-158393000D01*
X64894000Y-158345000D01*
X64881000Y-158294000D01*
X64873000Y-158242000D01*
X64870000Y-158190000D01*
X64873000Y-158138000D01*
X64881000Y-158086000D01*
X64894000Y-158035000D01*
X64913000Y-157987000D01*
X64937000Y-157940000D01*
X64965000Y-157896000D01*
X64998000Y-157855000D01*
X65035000Y-157818000D01*
X65076000Y-157785000D01*
X65120000Y-157757000D01*
X65167000Y-157733000D01*
X65215000Y-157714000D01*
X65266000Y-157701000D01*
X65318000Y-157693000D01*
X65370000Y-157690000D01*
X67170000Y-157690000D01*
X67222000Y-157693000D01*
G36*
X67222000Y-157693000D02*
G01*
X67274000Y-157701000D01*
X67325000Y-157714000D01*
X67373000Y-157733000D01*
X67420000Y-157757000D01*
X67464000Y-157785000D01*
X67505000Y-157818000D01*
X67542000Y-157855000D01*
X67575000Y-157896000D01*
X67603000Y-157940000D01*
X67627000Y-157987000D01*
X67646000Y-158035000D01*
X67659000Y-158086000D01*
X67667000Y-158138000D01*
X67670000Y-158190000D01*
X67667000Y-158242000D01*
X67659000Y-158294000D01*
X67646000Y-158345000D01*
X67627000Y-158393000D01*
X67603000Y-158440000D01*
X67575000Y-158484000D01*
X67542000Y-158525000D01*
X67505000Y-158562000D01*
X67464000Y-158595000D01*
X67420000Y-158623000D01*
X67373000Y-158647000D01*
X67325000Y-158666000D01*
X67274000Y-158679000D01*
X67222000Y-158687000D01*
X67170000Y-158690000D01*
X66270000Y-158690000D01*
X65470000Y-158690000D01*
X65370000Y-158690000D01*
X65318000Y-158687000D01*
X65266000Y-158679000D01*
X65215000Y-158666000D01*
X65167000Y-158647000D01*
X65120000Y-158623000D01*
X65076000Y-158595000D01*
X65035000Y-158562000D01*
X64998000Y-158525000D01*
X64965000Y-158484000D01*
X64937000Y-158440000D01*
X64913000Y-158393000D01*
X64894000Y-158345000D01*
X64881000Y-158294000D01*
X64873000Y-158242000D01*
X64870000Y-158190000D01*
X64873000Y-158138000D01*
X64881000Y-158086000D01*
X64894000Y-158035000D01*
X64913000Y-157987000D01*
X64937000Y-157940000D01*
X64965000Y-157896000D01*
X64998000Y-157855000D01*
X65035000Y-157818000D01*
X65076000Y-157785000D01*
X65120000Y-157757000D01*
X65167000Y-157733000D01*
X65215000Y-157714000D01*
X65266000Y-157701000D01*
X65318000Y-157693000D01*
X65370000Y-157690000D01*
X67170000Y-157690000D01*
X67222000Y-157693000D01*
G37*
%TD*%
D11*
%TO.C,C6*%
X72710000Y-141430000D03*
X73670000Y-141430000D03*
%TD*%
D12*
%TO.C,C19*%
X90745000Y-122320000D03*
X89195000Y-122320000D03*
%TD*%
D13*
%TO.C,C31*%
X74480000Y-159970000D03*
X76030000Y-159970000D03*
%TD*%
D14*
%TO.C,L1*%
X109770000Y-122970000D03*
X109770000Y-125770000D03*
%TD*%
D13*
%TO.C,C28*%
X59215000Y-134310000D03*
X60765000Y-134310000D03*
%TD*%
D15*
%TO.C,C20*%
X90970000Y-117820000D03*
X89070000Y-117820000D03*
%TD*%
D12*
%TO.C,C11*%
X90745000Y-124340000D03*
X89195000Y-124340000D03*
%TD*%
D16*
%TO.C,R16*%
X94180000Y-155530000D03*
X95200000Y-155530000D03*
%TD*%
D17*
%TO.C,ID1*%
X116075000Y-139095000D03*
X120225000Y-139095000D03*
X116075000Y-141245000D03*
X120225000Y-141245000D03*
%TD*%
D18*
%TO.C,R19*%
X107920000Y-141230000D03*
X109570000Y-141230000D03*
%TD*%
D19*
%TO.C,C22*%
X54720000Y-118356000D03*
X54720000Y-119270000D03*
%TD*%
D16*
%TO.C,R9*%
X94170000Y-153100000D03*
X95190000Y-153100000D03*
%TD*%
D20*
%TO.C,R13*%
X96037500Y-121210000D03*
X98962500Y-121210000D03*
%TD*%
D21*
%TO.C,D1*%
X107870000Y-128510000D03*
X103570000Y-128510000D03*
%TD*%
D22*
%TO.C,Y3*%
X72350000Y-159910000D03*
X72350000Y-162410000D03*
%TD*%
D13*
%TO.C,C8*%
X89160000Y-129660000D03*
X90710000Y-129660000D03*
%TD*%
%TO.C,C9*%
X73655000Y-128210000D03*
X75205000Y-128210000D03*
%TD*%
D11*
%TO.C,C26*%
X59510000Y-136780000D03*
X60470000Y-136780000D03*
%TD*%
D23*
%TO.C,U4*%
X108560200Y-117295400D03*
X109500000Y-117295400D03*
X110439800Y-117295400D03*
X110439800Y-114704600D03*
X108560200Y-114704600D03*
%TD*%
D13*
%TO.C,C18*%
X93950000Y-147760000D03*
X95500000Y-147760000D03*
%TD*%
D24*
%TO.C,U7*%
X111880000Y-154985000D03*
D25*
X111955000Y-154447500D03*
D24*
X111880000Y-153910000D03*
X110180000Y-153910000D03*
D25*
X110105000Y-154447500D03*
D24*
X110180000Y-154985000D03*
%TD*%
D26*
%TO.C,C29*%
X59120000Y-138420000D03*
X61020000Y-138420000D03*
%TD*%
D16*
%TO.C,R8*%
X94180000Y-154380000D03*
X95200000Y-154380000D03*
%TD*%
D12*
%TO.C,C17*%
X95470000Y-149420000D03*
X93920000Y-149420000D03*
%TD*%
D27*
%TO.C,U8*%
X84350000Y-137450000D03*
X82750000Y-137450000D03*
X81150000Y-137450000D03*
X84350000Y-139050000D03*
X82750000Y-139050000D03*
X81150000Y-139050000D03*
X84350000Y-140650000D03*
X82750000Y-140650000D03*
X81150000Y-140650000D03*
D28*
X84700000Y-136062500D03*
X84050000Y-136062500D03*
X83400000Y-136062500D03*
X82750000Y-136062500D03*
X82100000Y-136062500D03*
X81450000Y-136062500D03*
X80800000Y-136062500D03*
D29*
X79762500Y-137100000D03*
X79762500Y-137750000D03*
X79762500Y-138400000D03*
X79762500Y-139050000D03*
X79762500Y-139700000D03*
X79762500Y-140350000D03*
X79762500Y-141000000D03*
D28*
X80800000Y-142037500D03*
X81450000Y-142037500D03*
X82100000Y-142037500D03*
X82750000Y-142037500D03*
X83400000Y-142037500D03*
X84050000Y-142037500D03*
X84700000Y-142037500D03*
D29*
X85737500Y-141000000D03*
X85737500Y-140350000D03*
X85737500Y-139700000D03*
X85737500Y-139050000D03*
X85737500Y-138400000D03*
X85737500Y-137750000D03*
X85737500Y-137100000D03*
%TD*%
D30*
%TO.C,C24*%
X56610000Y-114065000D03*
X56610000Y-115615000D03*
%TD*%
D26*
%TO.C,C1*%
X89030000Y-113220000D03*
X90930000Y-113220000D03*
%TD*%
D18*
%TO.C,R10*%
X96850000Y-130010000D03*
X98500000Y-130010000D03*
%TD*%
D31*
%TO.C,F1*%
X108040000Y-147350000D03*
X106390000Y-147350000D03*
%TD*%
D17*
%TO.C,S1*%
X46946500Y-123455000D03*
X51096500Y-123455000D03*
X46946500Y-125605000D03*
X51096500Y-125605000D03*
%TD*%
D32*
%TO.C,Y1*%
X71790000Y-148170000D03*
X75790000Y-148170000D03*
X75790000Y-145770000D03*
X71790000Y-145770000D03*
%TD*%
D33*
%TO.C,FL1*%
X103973000Y-147383000D03*
X102193000Y-147383000D03*
%TD*%
D18*
%TO.C,R7*%
X96850000Y-127500000D03*
X98500000Y-127500000D03*
%TD*%
%TO.C,R11*%
X72455000Y-139870000D03*
X74105000Y-139870000D03*
%TD*%
D13*
%TO.C,C12*%
X94000000Y-144380000D03*
X95550000Y-144380000D03*
%TD*%
D18*
%TO.C,R4*%
X70695000Y-152950000D03*
X72345000Y-152950000D03*
%TD*%
D16*
%TO.C,R17*%
X94160000Y-156740000D03*
X95180000Y-156740000D03*
%TD*%
D17*
%TO.C,Find_Host1*%
X116075000Y-134345000D03*
X120225000Y-134345000D03*
X116075000Y-136495000D03*
X120225000Y-136495000D03*
%TD*%
D20*
%TO.C,R12*%
X96037500Y-117000000D03*
X98962500Y-117000000D03*
%TD*%
D34*
%TO.C,U2*%
X79250000Y-150770000D03*
X79250000Y-151270000D03*
X79250000Y-151770000D03*
X79250000Y-152270000D03*
X79250000Y-152770000D03*
X79250000Y-153270000D03*
X79250000Y-153770000D03*
X79250000Y-154270000D03*
X79250000Y-154770000D03*
X79250000Y-155270000D03*
X79250000Y-155770000D03*
X79250000Y-156270000D03*
D35*
X80680000Y-157700000D03*
X81180000Y-157700000D03*
X81680000Y-157700000D03*
X82180000Y-157700000D03*
X82680000Y-157700000D03*
X83180000Y-157700000D03*
X83680000Y-157700000D03*
X84180000Y-157700000D03*
X84680000Y-157700000D03*
X85180000Y-157700000D03*
X85680000Y-157700000D03*
X86180000Y-157700000D03*
D34*
X87610000Y-156270000D03*
X87610000Y-155770000D03*
X87610000Y-155270000D03*
X87610000Y-154770000D03*
X87610000Y-154270000D03*
X87610000Y-153770000D03*
X87610000Y-153270000D03*
X87610000Y-152770000D03*
X87610000Y-152270000D03*
X87610000Y-151770000D03*
X87610000Y-151270000D03*
X87610000Y-150770000D03*
D35*
X86180000Y-149340000D03*
X85680000Y-149340000D03*
X85180000Y-149340000D03*
X84680000Y-149340000D03*
X84180000Y-149340000D03*
X83680000Y-149340000D03*
X83180000Y-149340000D03*
X82680000Y-149340000D03*
X82180000Y-149340000D03*
X81680000Y-149340000D03*
X81180000Y-149340000D03*
X80680000Y-149340000D03*
%TD*%
D36*
%TO.C,Y2*%
X66060000Y-136740000D03*
X67460000Y-136740000D03*
X67460000Y-135640000D03*
X66060000Y-135640000D03*
%TD*%
D18*
%TO.C,R6*%
X96850000Y-124990000D03*
X98500000Y-124990000D03*
%TD*%
D37*
%TO.C,U1*%
X113850000Y-123587500D03*
X113850000Y-125887500D03*
D38*
X120150000Y-125887500D03*
D37*
X113850000Y-128187500D03*
%TD*%
D39*
%TO.C,Charger1*%
X115620000Y-117530000D03*
X115620000Y-116880000D03*
X115620000Y-116230000D03*
X115620000Y-115580000D03*
X115620000Y-114930000D03*
D40*
X116820000Y-119180000D03*
D41*
X115520000Y-119080000D03*
D42*
X117570000Y-118960000D03*
D43*
X118770000Y-117190000D03*
X118770000Y-115270000D03*
D42*
X117570000Y-113480000D03*
D41*
X115500000Y-113330000D03*
D40*
X116820000Y-113230000D03*
%TD*%
D44*
%TO.C,L2*%
X72150000Y-132740000D03*
X74350000Y-132740000D03*
%TD*%
D13*
%TO.C,C27*%
X59235000Y-132680000D03*
X60785000Y-132680000D03*
%TD*%
D26*
%TO.C,C16*%
X94075000Y-142350000D03*
X95975000Y-142350000D03*
%TD*%
D16*
%TO.C,R3*%
X70990000Y-154480000D03*
X72010000Y-154480000D03*
%TD*%
D17*
%TO.C,S2*%
X46946500Y-128205000D03*
X51096500Y-128205000D03*
X46946500Y-130355000D03*
X51096500Y-130355000D03*
%TD*%
D13*
%TO.C,C14*%
X93960000Y-146080000D03*
X95510000Y-146080000D03*
%TD*%
D45*
%TO.C,U6*%
X103000000Y-124760000D03*
D46*
X103000000Y-124475000D03*
D45*
X103500000Y-124760000D03*
D46*
X103500000Y-124475000D03*
D45*
X104000000Y-124760000D03*
D46*
X104000000Y-124475000D03*
D45*
X104500000Y-124760000D03*
D46*
X104500000Y-124475000D03*
D45*
X105000000Y-124760000D03*
D46*
X105000000Y-124475000D03*
X105000000Y-121525000D03*
D45*
X105000000Y-121240000D03*
D46*
X104500000Y-121525000D03*
D45*
X104500000Y-121240000D03*
D46*
X104000000Y-121525000D03*
D45*
X104000000Y-121240000D03*
D46*
X103500000Y-121525000D03*
D45*
X103500000Y-121240000D03*
D46*
X103000000Y-121525000D03*
D45*
X103000000Y-121240000D03*
D47*
X103365000Y-123450000D03*
X104635000Y-123450000D03*
D48*
X102370000Y-123250000D03*
X105630000Y-123250000D03*
X102370000Y-122750000D03*
X105630000Y-122750000D03*
D47*
X103365000Y-122550000D03*
X104635000Y-122550000D03*
%TD*%
D49*
%TO.C,U5*%
X106047500Y-154980000D03*
X106047500Y-153680000D03*
X104747500Y-154980000D03*
X104747500Y-153680000D03*
D50*
X107335000Y-155580000D03*
X107335000Y-155080000D03*
X107335000Y-154580000D03*
X107335000Y-154080000D03*
X107335000Y-153580000D03*
X107335000Y-153080000D03*
D51*
X106647500Y-152392500D03*
X106147500Y-152392500D03*
X105647500Y-152392500D03*
X105147500Y-152392500D03*
X104647500Y-152392500D03*
X104147500Y-152392500D03*
D50*
X103460000Y-153080000D03*
X103460000Y-153580000D03*
X103460000Y-154080000D03*
X103460000Y-154580000D03*
X103460000Y-155080000D03*
X103460000Y-155580000D03*
D51*
X104147500Y-156267500D03*
X104647500Y-156267500D03*
X105147500Y-156267500D03*
X105647500Y-156267500D03*
X106147500Y-156267500D03*
X106647500Y-156267500D03*
%TD*%
D52*
%TO.C,UART1*%
X115250000Y-157450000D03*
D53*
X115250000Y-156650000D03*
D54*
X115250000Y-155500000D03*
X115250000Y-154500000D03*
X115250000Y-154000000D03*
X115250000Y-153000000D03*
D52*
X115250000Y-151050000D03*
D53*
X115250000Y-151850000D03*
D54*
X115250000Y-152500000D03*
X115250000Y-153500000D03*
X115250000Y-155000000D03*
X115250000Y-156000000D03*
%TD*%
D15*
%TO.C,C13*%
X95955000Y-140140000D03*
X94055000Y-140140000D03*
%TD*%
D11*
%TO.C,C7*%
X72710000Y-142740000D03*
X73670000Y-142740000D03*
%TD*%
D12*
%TO.C,C3*%
X90745000Y-126320000D03*
X89195000Y-126320000D03*
%TD*%
D11*
%TO.C,C25*%
X59510000Y-135640000D03*
X60470000Y-135640000D03*
%TD*%
D19*
%TO.C,C21*%
X53470000Y-118356000D03*
X53470000Y-119270000D03*
%TD*%
D55*
%TO.C,R15*%
X53380000Y-115710000D03*
X53380000Y-114060000D03*
%TD*%
D26*
%TO.C,C10*%
X88970000Y-133650000D03*
X90870000Y-133650000D03*
%TD*%
D12*
%TO.C,C32*%
X58180000Y-127300000D03*
X56630000Y-127300000D03*
%TD*%
D18*
%TO.C,R5*%
X70785000Y-151200000D03*
X72435000Y-151200000D03*
%TD*%
D31*
%TO.C,R1*%
X58230000Y-123740000D03*
X56580000Y-123740000D03*
%TD*%
D18*
%TO.C,R14*%
X93835000Y-151560000D03*
X95485000Y-151560000D03*
%TD*%
%TO.C,R20*%
X107940000Y-139460000D03*
X109590000Y-139460000D03*
%TD*%
D13*
%TO.C,C30*%
X74520000Y-162330000D03*
X76070000Y-162330000D03*
%TD*%
D31*
%TO.C,R2*%
X58220000Y-125540000D03*
X56570000Y-125540000D03*
%TD*%
D56*
%TO.C,Q1*%
X104525000Y-116950000D03*
X104525000Y-115050000D03*
X102475000Y-116000000D03*
%TD*%
D26*
%TO.C,C2*%
X89020000Y-115360000D03*
X90920000Y-115360000D03*
%TD*%
D30*
%TO.C,C23*%
X58260000Y-114052000D03*
X58260000Y-115602000D03*
%TD*%
D12*
%TO.C,C15*%
X90745000Y-120320000D03*
X89195000Y-120320000D03*
%TD*%
D26*
%TO.C,C5*%
X88950000Y-131490000D03*
X90850000Y-131490000D03*
%TD*%
D55*
%TO.C,R18*%
X55020000Y-115675000D03*
X55020000Y-114025000D03*
%TD*%
D13*
%TO.C,C4*%
X89215000Y-128040000D03*
X90765000Y-128040000D03*
%TD*%
M02*
