M48
; DRILL file {KiCad 9.0.0} date 2025-06-11T08:44:55+0900
; FORMAT={-:-/ absolute / metric / decimal}
; #@! TF.CreationDate,2025-06-11T08:44:55+09:00
; #@! TF.GenerationSoftware,Kicad,Pcbnew,9.0.0
; #@! TF.FileFunction,Plated,1,4,PTH
FMAT,2
METRIC
; #@! TA.AperFunction,Plated,PTH,ViaDrill
T1C0.300
; #@! TA.AperFunction,Plated,PTH,ComponentDrill
T2C0.300
; #@! TA.AperFunction,Plated,PTH,ComponentDrill
T3C0.600
; #@! TA.AperFunction,Plated,PTH,ComponentDrill
T4C0.650
; #@! TA.AperFunction,Plated,PTH,ComponentDrill
T5C0.700
; #@! TA.AperFunction,Plated,PTH,ComponentDrill
T6C1.000
; #@! TA.AperFunction,Plated,PTH,ComponentDrill
T7C1.020
; #@! TA.AperFunction,Plated,PTH,ComponentDrill
T8C1.600
; #@! TA.AperFunction,Plated,PTH,ComponentDrill
T9C2.000
%
G90
G05
T1
X53.38Y-117.01
X57.81Y-128.5
X58.97Y-122.61
X61.406Y-136.814
X65.04Y-135.7
X71.81Y-120.62
X71.85Y-122.72
X73.24Y-147.95
X73.37Y-144.2
X73.45Y-151.25
X74.045Y-129.335
X74.53Y-161.21
X77.133Y-153.47
X77.506Y-157.166
X77.79Y-152.35
X78.344Y-158.024
X78.46Y-136.04
X78.51Y-137.11
X80.64Y-153.33
X81.0Y-146.31
X81.0Y-150.76
X81.2Y-159.24
X81.47Y-156.09
X81.6Y-143.195
X82.264Y-155.99
X82.399Y-143.168
X83.033Y-156.208
X83.199Y-143.157
X83.66Y-159.25
X83.999Y-143.147
X84.52Y-159.281
X85.2Y-154.27
X85.8Y-147.232
X86.46Y-146.51
X88.09Y-147.832
X88.14Y-145.73
X88.98Y-152.67
X92.2Y-117.8
X92.21Y-123.436
X92.34Y-151.68
X92.77Y-149.42
X93.41Y-122.236
X95.92Y-154.38
X96.04Y-115.1
X96.12Y-153.1
X96.85Y-126.41
X96.88Y-123.72
X99.45Y-130.01
X100.17Y-118.19
X100.515Y-129.795
X102.0Y-152.7
X102.1Y-122.009
X102.7Y-117.59
X103.35Y-116.97
X103.5Y-125.42
X103.56Y-157.977
X104.514Y-120.095
X104.58Y-157.94
X105.379Y-157.976
X106.647Y-150.857
X108.54Y-113.44
X109.279Y-113.133
X109.49Y-142.1
X109.59Y-138.34
X109.66Y-114.448
X110.45Y-113.42
X110.93Y-154.49
X113.02Y-153.269
X116.52Y-155.149
X116.55Y-153.949
T2
X103.25Y-122.5
X103.25Y-123.5
X104.0Y-123.0
X104.75Y-122.5
X104.75Y-123.5
T6
X71.28Y-118.25
X78.88Y-118.25
T7
X47.27Y-112.38
X47.27Y-114.92
X47.27Y-117.46
X47.27Y-120.0
T8
X48.3Y-133.8
X48.3Y-138.88
X50.84Y-136.34
X53.38Y-133.8
X53.38Y-138.88
T9
X49.0Y-100.0
X121.0Y-100.0
T3
G00X115.27Y-149.93
M15
G01X116.37Y-149.93
M16
G05
G00X115.27Y-158.57
M15
G01X116.37Y-158.57
M16
G05
G00X119.6Y-149.93
M15
G01X120.4Y-149.93
M16
G05
G00X119.6Y-158.57
M15
G01X120.4Y-158.57
M16
G05
T4
G00X115.7Y-113.81
M15
G01X115.3Y-113.81
M16
G05
G00X115.7Y-118.65
M15
G01X115.3Y-118.65
M16
G05
T5
G00X118.75Y-113.5
M15
G01X118.25Y-113.5
M16
G05
G00X118.75Y-118.96
M15
G01X118.25Y-118.96
M16
G05
M30
