M48
; DRILL file {KiCad 9.0.0} date 2025-06-11T08:44:55+0900
; FORMAT={-:-/ absolute / metric / decimal}
; #@! TF.CreationDate,2025-06-11T08:44:55+09:00
; #@! TF.GenerationSoftware,Kicad,Pcbnew,9.0.0
; #@! TF.FileFunction,Plated,1,3,Blind
FMAT,2
METRIC
; #@! TA.AperFunction,Plated,Buried,ViaDrill
T1C0.300
%
G90
G05
T1
X48.08Y-158.2
X49.44Y-112.36
X52.67Y-130.37
X53.48Y-120.93
X54.71Y-120.95
X56.65Y-116.86
X57.6Y-138.42
X58.102Y-134.662
X58.18Y-136.73
X58.189Y-135.657
X58.23Y-116.77
X59.68Y-127.27
X59.78Y-123.76
X68.78Y-153.13
X71.38Y-144.41
X75.77Y-149.72
X76.54Y-128.24
X77.16Y-154.27
X77.36Y-162.34
X77.46Y-159.95
X80.8Y-143.17
X81.21Y-147.83
X84.89Y-143.14
X85.67Y-159.28
X86.94Y-138.39
X86.97Y-140.74
X87.52Y-133.61
X87.57Y-131.44
X87.66Y-129.6
X87.755Y-127.997
X87.82Y-126.33
X87.86Y-124.34
X87.88Y-120.31
X87.89Y-122.25
X87.94Y-117.79
X89.26Y-151.29
X92.18Y-115.35
X92.296Y-113.287
X96.94Y-149.39
X96.98Y-147.8
X97.06Y-146.03
X97.12Y-144.37
X97.32Y-142.34
X97.39Y-140.16
X99.49Y-125.0
X99.53Y-127.5
X100.19Y-121.23
X101.5Y-123.02
X103.51Y-119.4
X105.04Y-125.68
X106.46Y-141.27
X106.58Y-139.58
X108.48Y-155.1
X109.51Y-118.65
X112.98Y-154.47
X113.74Y-157.43
X113.88Y-121.57
X113.92Y-118.61
X114.01Y-151.07
X114.09Y-113.78
M30
