%TF.GenerationSoftware,KiCad,Pcbnew,9.0.0*%
%TF.CreationDate,2025-06-11T08:44:37+09:00*%
%TF.ProjectId,FLP_PCB_terminal,464c505f-5043-4425-9f74-65726d696e61,rev?*%
%TF.SameCoordinates,Original*%
%TF.FileFunction,Copper,L3,Inr*%
%TF.FilePolarity,Positive*%
%FSLAX46Y46*%
G04 Gerber Fmt 4.6, Leading zero omitted, Abs format (unit mm)*
G04 Created by KiCad (PCBNEW 9.0.0) date 2025-06-11 08:44:37*
%MOMM*%
%LPD*%
G01*
G04 APERTURE LIST*
%TA.AperFunction,HeatsinkPad*%
%ADD10O,1.700000X1.350000*%
%TD*%
%TA.AperFunction,HeatsinkPad*%
%ADD11O,1.500000X1.100000*%
%TD*%
%TA.AperFunction,ComponentPad*%
%ADD12R,3.500000X3.500000*%
%TD*%
%TA.AperFunction,ComponentPad*%
%ADD13C,3.500000*%
%TD*%
%TA.AperFunction,ComponentPad*%
%ADD14C,0.600000*%
%TD*%
%TA.AperFunction,ComponentPad*%
%ADD15O,2.100000X1.050000*%
%TD*%
%TA.AperFunction,ComponentPad*%
%ADD16O,1.800000X0.900000*%
%TD*%
%TA.AperFunction,ComponentPad*%
%ADD17R,2.000000X2.000000*%
%TD*%
%TA.AperFunction,ComponentPad*%
%ADD18C,2.000000*%
%TD*%
%TA.AperFunction,ComponentPad*%
%ADD19C,2.400000*%
%TD*%
%TA.AperFunction,ComponentPad*%
%ADD20R,1.370000X1.370000*%
%TD*%
%TA.AperFunction,ComponentPad*%
%ADD21C,1.370000*%
%TD*%
%TA.AperFunction,ViaPad*%
%ADD22C,0.600000*%
%TD*%
G04 APERTURE END LIST*
D10*
%TO.N,GND*%
%TO.C,Charger1*%
X118500000Y-118960000D03*
D11*
X115500000Y-118650000D03*
X115500000Y-113810000D03*
D10*
X118500000Y-113500000D03*
%TD*%
D12*
%TO.N,Net-(BT1-+)*%
%TO.C,BT1*%
X49000000Y-100000000D03*
D13*
%TO.N,GND*%
X121000000Y-100000000D03*
%TD*%
D14*
%TO.N,GND*%
%TO.C,U6*%
X103250000Y-123500000D03*
X104750000Y-123500000D03*
X104000000Y-123000000D03*
X103250000Y-122500000D03*
X104750000Y-122500000D03*
%TD*%
D15*
%TO.N,N/C*%
%TO.C,UART1*%
X115820000Y-158570000D03*
X115820000Y-149930000D03*
D16*
X120000000Y-158570000D03*
X120000000Y-149930000D03*
%TD*%
D17*
%TO.N,Buzzer*%
%TO.C,BZ1*%
X71280000Y-118250000D03*
D18*
%TO.N,GND*%
X78880000Y-118250000D03*
%TD*%
D19*
%TO.N,Net-(C27-Pad1)*%
%TO.C,J1*%
X50840000Y-136340000D03*
%TO.N,GND*%
X53380000Y-138880000D03*
X53380000Y-133800000D03*
X48300000Y-133800000D03*
X48300000Y-138880000D03*
%TD*%
D20*
%TO.N,GND*%
%TO.C,J2*%
X47270000Y-112380000D03*
D21*
%TO.N,3.3V OUT*%
X47270000Y-114920000D03*
%TO.N,I2C SCL*%
X47270000Y-117460000D03*
%TO.N,I2C SDL*%
X47270000Y-120000000D03*
%TD*%
D22*
%TO.N,Net-(BT1-+)*%
X93410000Y-122236000D03*
X92210000Y-123436000D03*
%TO.N,GND*%
X68780000Y-153130000D03*
X87940000Y-117790000D03*
X56650000Y-116860000D03*
X86970000Y-140740000D03*
X99490000Y-125000000D03*
X76540000Y-128240000D03*
X108480000Y-155100000D03*
X89260000Y-151290000D03*
X58180000Y-136730000D03*
X113880000Y-121570000D03*
X114090000Y-113780000D03*
X106580000Y-139580000D03*
X80800000Y-143170000D03*
X113920000Y-118610000D03*
X97390000Y-140160000D03*
X81210000Y-147830000D03*
X97120000Y-144370000D03*
X48080000Y-158200000D03*
X97320000Y-142340000D03*
X87820000Y-126330000D03*
X87890000Y-122250000D03*
X100190000Y-121230000D03*
X103510000Y-119400000D03*
X99530000Y-127500000D03*
X112980000Y-154470000D03*
X77460000Y-159950000D03*
X87570000Y-131440000D03*
X52670000Y-130370000D03*
X75770000Y-149720000D03*
X71380000Y-144410000D03*
X87660000Y-129600000D03*
X109510000Y-118650000D03*
X87860000Y-124340000D03*
X53480000Y-120930000D03*
X85670000Y-159280000D03*
X59680000Y-127270000D03*
X84890000Y-143140000D03*
X54710000Y-120950000D03*
X57600000Y-138420000D03*
X86940000Y-138390000D03*
X77160000Y-154270000D03*
X113740000Y-157430000D03*
X58230000Y-116770000D03*
X87755388Y-127997190D03*
X114010000Y-151070000D03*
X101500000Y-123020000D03*
X96980000Y-147800000D03*
X77360000Y-162340000D03*
X87880000Y-120310000D03*
X59780000Y-123760000D03*
X106460000Y-141270000D03*
X97060000Y-146030000D03*
X105040000Y-125680000D03*
X87520000Y-133610000D03*
X58188971Y-135656854D03*
X49440000Y-112360000D03*
X96940000Y-149390000D03*
X58101765Y-134661765D03*
X92295930Y-113287108D03*
X92180000Y-115350000D03*
%TO.N,Buzzer*%
X88140000Y-145730000D03*
X74045000Y-129335000D03*
X88090000Y-147831959D03*
X88980000Y-152670000D03*
X71850000Y-122720000D03*
X71810000Y-120620000D03*
%TO.N,5v OUT*%
X100514972Y-129794972D03*
X92200000Y-117800000D03*
X103500000Y-125419943D03*
X102700000Y-117590000D03*
%TO.N,Net-(Charger1-VBUS)*%
X110450000Y-113420000D03*
X96850000Y-126410000D03*
%TO.N,OSC_OUT*%
X73240000Y-147950000D03*
X80640000Y-153330000D03*
X73370000Y-144200000D03*
%TO.N,Net-(U5-REGIN)*%
X106647500Y-150857500D03*
X110930000Y-154490000D03*
X92770000Y-149420000D03*
%TO.N,Net-(Q1-D)*%
X103350000Y-116970000D03*
X96040000Y-115100000D03*
%TO.N,Net-(U8-XTB)*%
X61405735Y-136814265D03*
X65040000Y-135700000D03*
%TO.N,I2C SDL*%
X53380000Y-117010000D03*
X80999624Y-146310000D03*
%TO.N,PC_OSC_OUT*%
X74530000Y-161210000D03*
X77790000Y-152350000D03*
%TO.N,NRST*%
X77132897Y-153470456D03*
X57810000Y-128500000D03*
%TO.N,BOOT0*%
X80999624Y-150760000D03*
X58970000Y-122610000D03*
%TO.N,Net-(U4-PROG)*%
X108540000Y-113440000D03*
X96880000Y-123720000D03*
%TO.N,Find_Host*%
X109590000Y-138340000D03*
X86460000Y-146510000D03*
%TO.N,ID*%
X85800053Y-147231959D03*
X109490000Y-142100000D03*
%TO.N,Net-(U5-RXD)*%
X95920000Y-154380000D03*
X104580000Y-157940000D03*
%TO.N,Net-(U5-TXD)*%
X105379202Y-157975785D03*
X96120000Y-153100000D03*
%TO.N,Net-(U6-UVLO)*%
X109660401Y-114448128D03*
X100170000Y-118190000D03*
X109278669Y-113132801D03*
X104513736Y-120094736D03*
%TO.N,Net-(U5-~{RST})*%
X92340000Y-151680000D03*
X102000116Y-152699884D03*
%TO.N,Net-(UART1-CC2)*%
X103560000Y-157976785D03*
X113020000Y-153269000D03*
%TO.N,Net-(Q1-G)*%
X102100000Y-122008530D03*
X99450000Y-130010000D03*
%TO.N,Net-(U2-PB2)*%
X84520000Y-159281000D03*
X73450000Y-151250000D03*
%TO.N,GPS_TX*%
X78344265Y-158024265D03*
X77505735Y-157165735D03*
%TO.N,SCK*%
X81470000Y-156090000D03*
X81599624Y-143194603D03*
%TO.N,MISO*%
X82399187Y-143168089D03*
X82263692Y-155989718D03*
%TO.N,NSS(CS)*%
X83999053Y-143147039D03*
X81200000Y-159240000D03*
%TO.N,DIO0(IRQ)*%
X78510000Y-137110000D03*
X83660000Y-159250000D03*
%TO.N,RESET*%
X85200053Y-154270000D03*
X78460000Y-136040000D03*
%TO.N,MOSI*%
X83199107Y-143156551D03*
X83033327Y-156208041D03*
%TO.N,Net-(U7-I{slash}O2-Pad3)*%
X116520000Y-155149000D03*
X116550000Y-153949000D03*
%TD*%
%TA.AperFunction,Conductor*%
%TO.N,GND*%
G36*
X120002702Y-85500617D02*
G01*
X120386771Y-85517386D01*
X120397506Y-85518326D01*
X120775971Y-85568152D01*
X120786597Y-85570025D01*
X121159284Y-85652648D01*
X121169710Y-85655442D01*
X121533765Y-85770227D01*
X121543911Y-85773920D01*
X121896578Y-85920000D01*
X121906369Y-85924566D01*
X122244942Y-86100816D01*
X122254310Y-86106224D01*
X122576244Y-86311318D01*
X122585105Y-86317523D01*
X122887930Y-86549889D01*
X122896217Y-86556843D01*
X123177635Y-86814715D01*
X123185284Y-86822364D01*
X123443156Y-87103782D01*
X123450110Y-87112069D01*
X123682476Y-87414894D01*
X123688681Y-87423755D01*
X123893775Y-87745689D01*
X123899183Y-87755057D01*
X124075430Y-88093623D01*
X124080002Y-88103427D01*
X124226075Y-88456078D01*
X124229775Y-88466244D01*
X124344554Y-88830278D01*
X124347354Y-88840727D01*
X124429971Y-89213389D01*
X124431849Y-89224042D01*
X124481671Y-89602473D01*
X124482614Y-89613249D01*
X124499382Y-89997297D01*
X124499500Y-90002706D01*
X124499500Y-159997293D01*
X124499382Y-160002702D01*
X124482614Y-160386750D01*
X124481671Y-160397526D01*
X124431849Y-160775957D01*
X124429971Y-160786610D01*
X124347354Y-161159272D01*
X124344554Y-161169721D01*
X124229775Y-161533755D01*
X124226075Y-161543921D01*
X124080002Y-161896572D01*
X124075430Y-161906376D01*
X123899183Y-162244942D01*
X123893775Y-162254310D01*
X123688681Y-162576244D01*
X123682476Y-162585105D01*
X123450110Y-162887930D01*
X123443156Y-162896217D01*
X123185284Y-163177635D01*
X123177635Y-163185284D01*
X122896217Y-163443156D01*
X122887930Y-163450110D01*
X122585105Y-163682476D01*
X122576244Y-163688681D01*
X122254310Y-163893775D01*
X122244942Y-163899183D01*
X121906376Y-164075430D01*
X121896572Y-164080002D01*
X121543921Y-164226075D01*
X121533755Y-164229775D01*
X121169721Y-164344554D01*
X121159272Y-164347354D01*
X120786610Y-164429971D01*
X120775957Y-164431849D01*
X120397526Y-164481671D01*
X120386750Y-164482614D01*
X120002703Y-164499382D01*
X119997294Y-164499500D01*
X50002706Y-164499500D01*
X49997297Y-164499382D01*
X49613249Y-164482614D01*
X49602473Y-164481671D01*
X49224042Y-164431849D01*
X49213389Y-164429971D01*
X48840727Y-164347354D01*
X48830278Y-164344554D01*
X48466244Y-164229775D01*
X48456078Y-164226075D01*
X48103427Y-164080002D01*
X48093623Y-164075430D01*
X47755057Y-163899183D01*
X47745689Y-163893775D01*
X47423755Y-163688681D01*
X47414894Y-163682476D01*
X47112069Y-163450110D01*
X47103782Y-163443156D01*
X46822364Y-163185284D01*
X46814715Y-163177635D01*
X46556843Y-162896217D01*
X46549889Y-162887930D01*
X46317523Y-162585105D01*
X46311318Y-162576244D01*
X46106224Y-162254310D01*
X46100816Y-162244942D01*
X45962759Y-161979738D01*
X45924566Y-161906369D01*
X45919997Y-161896572D01*
X45893162Y-161831786D01*
X45773920Y-161543911D01*
X45770224Y-161533755D01*
X45655442Y-161169710D01*
X45652644Y-161159266D01*
X45651013Y-161151909D01*
X45651012Y-161151905D01*
X45646411Y-161131153D01*
X73729500Y-161131153D01*
X73729500Y-161288846D01*
X73760261Y-161443489D01*
X73760264Y-161443501D01*
X73820602Y-161589172D01*
X73820609Y-161589185D01*
X73908210Y-161720288D01*
X73908213Y-161720292D01*
X74019707Y-161831786D01*
X74019711Y-161831789D01*
X74150814Y-161919390D01*
X74150827Y-161919397D01*
X74296498Y-161979735D01*
X74296503Y-161979737D01*
X74404329Y-162001185D01*
X74451153Y-162010499D01*
X74451156Y-162010500D01*
X74451158Y-162010500D01*
X74608844Y-162010500D01*
X74608845Y-162010499D01*
X74763497Y-161979737D01*
X74909179Y-161919394D01*
X75040289Y-161831789D01*
X75151789Y-161720289D01*
X75239394Y-161589179D01*
X75299737Y-161443497D01*
X75330500Y-161288842D01*
X75330500Y-161131158D01*
X75330500Y-161131155D01*
X75330499Y-161131153D01*
X75299738Y-160976510D01*
X75299737Y-160976503D01*
X75299735Y-160976498D01*
X75239397Y-160830827D01*
X75239390Y-160830814D01*
X75151789Y-160699711D01*
X75151786Y-160699707D01*
X75040292Y-160588213D01*
X75040288Y-160588210D01*
X74909185Y-160500609D01*
X74909172Y-160500602D01*
X74763501Y-160440264D01*
X74763489Y-160440261D01*
X74608845Y-160409500D01*
X74608842Y-160409500D01*
X74451158Y-160409500D01*
X74451155Y-160409500D01*
X74296510Y-160440261D01*
X74296498Y-160440264D01*
X74150827Y-160500602D01*
X74150814Y-160500609D01*
X74019711Y-160588210D01*
X74019707Y-160588213D01*
X73908213Y-160699707D01*
X73908210Y-160699711D01*
X73820609Y-160830814D01*
X73820602Y-160830827D01*
X73760264Y-160976498D01*
X73760261Y-160976510D01*
X73729500Y-161131153D01*
X45646411Y-161131153D01*
X45570025Y-160786594D01*
X45568152Y-160775971D01*
X45518326Y-160397506D01*
X45517386Y-160386771D01*
X45500618Y-160002702D01*
X45500500Y-159997293D01*
X45500500Y-159161153D01*
X80399500Y-159161153D01*
X80399500Y-159318846D01*
X80430261Y-159473489D01*
X80430264Y-159473501D01*
X80490602Y-159619172D01*
X80490609Y-159619185D01*
X80578210Y-159750288D01*
X80578213Y-159750292D01*
X80689707Y-159861786D01*
X80689711Y-159861789D01*
X80820814Y-159949390D01*
X80820827Y-159949397D01*
X80949519Y-160002702D01*
X80966503Y-160009737D01*
X81121153Y-160040499D01*
X81121156Y-160040500D01*
X81121158Y-160040500D01*
X81278844Y-160040500D01*
X81278845Y-160040499D01*
X81433497Y-160009737D01*
X81546166Y-159963067D01*
X81579172Y-159949397D01*
X81579172Y-159949396D01*
X81579179Y-159949394D01*
X81710289Y-159861789D01*
X81821789Y-159750289D01*
X81909394Y-159619179D01*
X81969737Y-159473497D01*
X82000500Y-159318842D01*
X82000500Y-159171153D01*
X82859500Y-159171153D01*
X82859500Y-159328846D01*
X82890261Y-159483489D01*
X82890264Y-159483501D01*
X82950602Y-159629172D01*
X82950609Y-159629185D01*
X83038210Y-159760288D01*
X83038213Y-159760292D01*
X83149707Y-159871786D01*
X83149711Y-159871789D01*
X83280814Y-159959390D01*
X83280827Y-159959397D01*
X83402363Y-160009738D01*
X83426503Y-160019737D01*
X83581153Y-160050499D01*
X83581156Y-160050500D01*
X83581158Y-160050500D01*
X83738844Y-160050500D01*
X83738845Y-160050499D01*
X83893497Y-160019737D01*
X84012050Y-159970630D01*
X84081519Y-159963162D01*
X84128394Y-159982090D01*
X84140821Y-159990394D01*
X84140823Y-159990394D01*
X84140827Y-159990397D01*
X84285928Y-160050499D01*
X84286503Y-160050737D01*
X84441153Y-160081499D01*
X84441156Y-160081500D01*
X84441158Y-160081500D01*
X84598844Y-160081500D01*
X84598845Y-160081499D01*
X84753497Y-160050737D01*
X84899179Y-159990394D01*
X85030289Y-159902789D01*
X85141789Y-159791289D01*
X85229394Y-159660179D01*
X85289737Y-159514497D01*
X85320500Y-159359842D01*
X85320500Y-159202158D01*
X85320500Y-159202155D01*
X85320499Y-159202153D01*
X85315279Y-159175911D01*
X85289737Y-159047503D01*
X85278441Y-159020231D01*
X85229397Y-158901827D01*
X85229390Y-158901814D01*
X85141789Y-158770711D01*
X85141786Y-158770707D01*
X85030292Y-158659213D01*
X85030288Y-158659210D01*
X84899185Y-158571609D01*
X84899172Y-158571602D01*
X84753501Y-158511264D01*
X84753489Y-158511261D01*
X84598845Y-158480500D01*
X84598842Y-158480500D01*
X84441158Y-158480500D01*
X84441155Y-158480500D01*
X84286510Y-158511261D01*
X84286507Y-158511262D01*
X84286506Y-158511262D01*
X84286503Y-158511263D01*
X84230266Y-158534557D01*
X84167949Y-158560369D01*
X84098479Y-158567837D01*
X84051608Y-158548910D01*
X84039187Y-158540611D01*
X84039183Y-158540609D01*
X84039179Y-158540606D01*
X84039175Y-158540604D01*
X84039171Y-158540602D01*
X83893501Y-158480264D01*
X83893489Y-158480261D01*
X83738845Y-158449500D01*
X83738842Y-158449500D01*
X83581158Y-158449500D01*
X83581155Y-158449500D01*
X83426510Y-158480261D01*
X83426498Y-158480264D01*
X83280827Y-158540602D01*
X83280814Y-158540609D01*
X83149711Y-158628210D01*
X83149707Y-158628213D01*
X83038213Y-158739707D01*
X83038210Y-158739711D01*
X82950609Y-158870814D01*
X82950602Y-158870827D01*
X82890264Y-159016498D01*
X82890261Y-159016510D01*
X82859500Y-159171153D01*
X82000500Y-159171153D01*
X82000500Y-159161158D01*
X82000500Y-159161155D01*
X82000499Y-159161153D01*
X81972469Y-159020237D01*
X81969737Y-159006503D01*
X81969735Y-159006498D01*
X81909397Y-158860827D01*
X81909390Y-158860814D01*
X81821789Y-158729711D01*
X81821786Y-158729707D01*
X81710292Y-158618213D01*
X81710288Y-158618210D01*
X81579185Y-158530609D01*
X81579172Y-158530602D01*
X81433501Y-158470264D01*
X81433489Y-158470261D01*
X81278845Y-158439500D01*
X81278842Y-158439500D01*
X81121158Y-158439500D01*
X81121155Y-158439500D01*
X80966510Y-158470261D01*
X80966498Y-158470264D01*
X80820827Y-158530602D01*
X80820814Y-158530609D01*
X80689711Y-158618210D01*
X80689707Y-158618213D01*
X80578213Y-158729707D01*
X80578210Y-158729711D01*
X80490609Y-158860814D01*
X80490602Y-158860827D01*
X80430264Y-159006498D01*
X80430261Y-159006510D01*
X80399500Y-159161153D01*
X45500500Y-159161153D01*
X45500500Y-157086888D01*
X76705235Y-157086888D01*
X76705235Y-157244581D01*
X76735996Y-157399224D01*
X76735999Y-157399236D01*
X76796337Y-157544907D01*
X76796344Y-157544920D01*
X76883945Y-157676023D01*
X76883948Y-157676027D01*
X76995442Y-157787521D01*
X76995446Y-157787524D01*
X77126549Y-157875125D01*
X77126562Y-157875132D01*
X77272233Y-157935470D01*
X77272238Y-157935472D01*
X77426893Y-157966235D01*
X77426904Y-157966235D01*
X77431906Y-157966728D01*
X77496696Y-157992882D01*
X77537061Y-158049912D01*
X77543765Y-158090132D01*
X77543765Y-158103111D01*
X77574526Y-158257754D01*
X77574529Y-158257766D01*
X77634867Y-158403437D01*
X77634874Y-158403450D01*
X77722475Y-158534553D01*
X77722478Y-158534557D01*
X77833972Y-158646051D01*
X77833976Y-158646054D01*
X77965079Y-158733655D01*
X77965092Y-158733662D01*
X78070409Y-158777285D01*
X78110768Y-158794002D01*
X78265418Y-158824764D01*
X78265421Y-158824765D01*
X78265423Y-158824765D01*
X78423109Y-158824765D01*
X78423110Y-158824764D01*
X78577762Y-158794002D01*
X78723444Y-158733659D01*
X78854554Y-158646054D01*
X78966054Y-158534554D01*
X79053659Y-158403444D01*
X79114002Y-158257762D01*
X79144765Y-158103107D01*
X79144765Y-157945423D01*
X79135320Y-157897938D01*
X102759500Y-157897938D01*
X102759500Y-158055631D01*
X102790261Y-158210274D01*
X102790264Y-158210286D01*
X102850602Y-158355957D01*
X102850609Y-158355970D01*
X102938210Y-158487073D01*
X102938213Y-158487077D01*
X103049707Y-158598571D01*
X103049711Y-158598574D01*
X103180814Y-158686175D01*
X103180827Y-158686182D01*
X103311962Y-158740499D01*
X103326503Y-158746522D01*
X103476126Y-158776284D01*
X103481153Y-158777284D01*
X103481156Y-158777285D01*
X103481158Y-158777285D01*
X103638844Y-158777285D01*
X103638845Y-158777284D01*
X103793497Y-158746522D01*
X103939179Y-158686179D01*
X103939184Y-158686175D01*
X103939187Y-158686174D01*
X103979541Y-158659210D01*
X104028634Y-158626406D01*
X104095310Y-158605528D01*
X104162690Y-158624012D01*
X104166416Y-158626406D01*
X104200814Y-158649390D01*
X104200827Y-158649397D01*
X104346498Y-158709735D01*
X104346503Y-158709737D01*
X104501153Y-158740499D01*
X104501156Y-158740500D01*
X104501158Y-158740500D01*
X104658844Y-158740500D01*
X104658845Y-158740499D01*
X104813497Y-158709737D01*
X104890288Y-158677928D01*
X104959755Y-158670460D01*
X104996191Y-158683131D01*
X105000018Y-158685175D01*
X105000023Y-158685179D01*
X105145705Y-158745522D01*
X105272318Y-158770707D01*
X105300355Y-158776284D01*
X105300358Y-158776285D01*
X105300360Y-158776285D01*
X105458046Y-158776285D01*
X105458047Y-158776284D01*
X105612699Y-158745522D01*
X105755967Y-158686179D01*
X105758374Y-158685182D01*
X105758374Y-158685181D01*
X105758381Y-158685179D01*
X105889491Y-158597574D01*
X106000991Y-158486074D01*
X106012405Y-158468992D01*
X114269500Y-158468992D01*
X114269500Y-158671007D01*
X114308907Y-158869119D01*
X114308909Y-158869127D01*
X114386212Y-159055752D01*
X114386217Y-159055762D01*
X114498441Y-159223718D01*
X114641281Y-159366558D01*
X114809237Y-159478782D01*
X114809241Y-159478784D01*
X114809244Y-159478786D01*
X114995873Y-159556091D01*
X115193992Y-159595499D01*
X115193996Y-159595500D01*
X115193997Y-159595500D01*
X116446004Y-159595500D01*
X116446005Y-159595499D01*
X116644127Y-159556091D01*
X116830756Y-159478786D01*
X116998718Y-159366558D01*
X117141558Y-159223718D01*
X117253786Y-159055756D01*
X117331091Y-158869127D01*
X117370500Y-158671003D01*
X117370500Y-158476379D01*
X118599500Y-158476379D01*
X118599500Y-158663620D01*
X118636025Y-158847243D01*
X118636027Y-158847251D01*
X118707676Y-159020228D01*
X118707681Y-159020237D01*
X118811697Y-159175907D01*
X118811700Y-159175911D01*
X118944088Y-159308299D01*
X118944092Y-159308302D01*
X119099762Y-159412318D01*
X119099768Y-159412321D01*
X119099769Y-159412322D01*
X119272749Y-159483973D01*
X119426205Y-159514497D01*
X119456379Y-159520499D01*
X119456383Y-159520500D01*
X119456384Y-159520500D01*
X120543617Y-159520500D01*
X120543618Y-159520499D01*
X120727251Y-159483973D01*
X120900231Y-159412322D01*
X121055908Y-159308302D01*
X121188302Y-159175908D01*
X121292322Y-159020231D01*
X121363973Y-158847251D01*
X121400500Y-158663616D01*
X121400500Y-158476384D01*
X121363973Y-158292749D01*
X121292322Y-158119769D01*
X121292321Y-158119768D01*
X121292318Y-158119762D01*
X121188302Y-157964092D01*
X121188299Y-157964088D01*
X121055911Y-157831700D01*
X121055907Y-157831697D01*
X120900237Y-157727681D01*
X120900228Y-157727676D01*
X120727251Y-157656027D01*
X120727243Y-157656025D01*
X120543620Y-157619500D01*
X120543616Y-157619500D01*
X119456384Y-157619500D01*
X119456379Y-157619500D01*
X119272756Y-157656025D01*
X119272748Y-157656027D01*
X119099771Y-157727676D01*
X119099762Y-157727681D01*
X118944092Y-157831697D01*
X118944088Y-157831700D01*
X118811700Y-157964088D01*
X118811697Y-157964092D01*
X118707681Y-158119762D01*
X118707676Y-158119771D01*
X118636027Y-158292748D01*
X118636025Y-158292756D01*
X118599500Y-158476379D01*
X117370500Y-158476379D01*
X117370500Y-158468997D01*
X117331091Y-158270873D01*
X117253786Y-158084244D01*
X117253784Y-158084241D01*
X117253782Y-158084237D01*
X117141558Y-157916281D01*
X116998718Y-157773441D01*
X116825691Y-157657829D01*
X116826432Y-157656718D01*
X116781465Y-157612553D01*
X116765999Y-157544417D01*
X116782369Y-157490152D01*
X116856281Y-157362135D01*
X116895500Y-157215766D01*
X116895500Y-157064234D01*
X116856281Y-156917865D01*
X116856034Y-156917438D01*
X116822721Y-156859738D01*
X116780515Y-156786635D01*
X116673365Y-156679485D01*
X116607750Y-156641602D01*
X116542136Y-156603719D01*
X116468950Y-156584109D01*
X116395766Y-156564500D01*
X116244234Y-156564500D01*
X116097863Y-156603719D01*
X115966635Y-156679485D01*
X115966632Y-156679487D01*
X115859487Y-156786632D01*
X115859485Y-156786635D01*
X115783719Y-156917863D01*
X115767665Y-156977779D01*
X115744500Y-157064234D01*
X115744500Y-157215766D01*
X115781806Y-157354996D01*
X115783720Y-157362137D01*
X115786831Y-157369649D01*
X115784552Y-157370592D01*
X115798093Y-157426393D01*
X115775245Y-157492421D01*
X115720326Y-157535615D01*
X115674233Y-157544500D01*
X115193992Y-157544500D01*
X114995880Y-157583907D01*
X114995872Y-157583909D01*
X114809247Y-157661212D01*
X114809237Y-157661217D01*
X114641281Y-157773441D01*
X114498441Y-157916281D01*
X114386217Y-158084237D01*
X114386212Y-158084247D01*
X114308909Y-158270872D01*
X114308907Y-158270880D01*
X114269500Y-158468992D01*
X106012405Y-158468992D01*
X106056203Y-158403444D01*
X106062504Y-158394014D01*
X106088592Y-158354970D01*
X106088592Y-158354969D01*
X106088596Y-158354964D01*
X106148939Y-158209282D01*
X106179702Y-158054627D01*
X106179702Y-157896943D01*
X106179702Y-157896940D01*
X106179701Y-157896938D01*
X106166724Y-157831697D01*
X106148939Y-157742288D01*
X106142889Y-157727681D01*
X106088599Y-157596612D01*
X106088592Y-157596599D01*
X106000991Y-157465496D01*
X106000988Y-157465492D01*
X105889494Y-157353998D01*
X105889490Y-157353995D01*
X105758387Y-157266394D01*
X105758374Y-157266387D01*
X105612703Y-157206049D01*
X105612691Y-157206046D01*
X105458047Y-157175285D01*
X105458044Y-157175285D01*
X105300360Y-157175285D01*
X105300357Y-157175285D01*
X105145713Y-157206045D01*
X105145708Y-157206047D01*
X105145706Y-157206047D01*
X105145705Y-157206048D01*
X105104127Y-157223270D01*
X105068912Y-157237856D01*
X104999443Y-157245323D01*
X104963013Y-157232655D01*
X104959178Y-157230605D01*
X104813501Y-157170264D01*
X104813489Y-157170261D01*
X104658845Y-157139500D01*
X104658842Y-157139500D01*
X104501158Y-157139500D01*
X104501155Y-157139500D01*
X104346510Y-157170261D01*
X104346498Y-157170264D01*
X104200827Y-157230602D01*
X104200814Y-157230609D01*
X104111365Y-157290378D01*
X104044687Y-157311256D01*
X103977307Y-157292771D01*
X103973584Y-157290379D01*
X103939183Y-157267393D01*
X103939172Y-157267387D01*
X103793501Y-157207049D01*
X103793489Y-157207046D01*
X103638845Y-157176285D01*
X103638842Y-157176285D01*
X103481158Y-157176285D01*
X103481155Y-157176285D01*
X103326510Y-157207046D01*
X103326498Y-157207049D01*
X103180827Y-157267387D01*
X103180814Y-157267394D01*
X103049711Y-157354995D01*
X103049707Y-157354998D01*
X102938213Y-157466492D01*
X102938210Y-157466496D01*
X102850609Y-157597599D01*
X102850602Y-157597612D01*
X102790264Y-157743283D01*
X102790261Y-157743295D01*
X102759500Y-157897938D01*
X79135320Y-157897938D01*
X79114002Y-157790768D01*
X79112657Y-157787521D01*
X79053662Y-157645092D01*
X79053655Y-157645079D01*
X78966054Y-157513976D01*
X78966051Y-157513972D01*
X78854557Y-157402478D01*
X78854553Y-157402475D01*
X78723450Y-157314874D01*
X78723437Y-157314867D01*
X78577766Y-157254529D01*
X78577754Y-157254526D01*
X78423111Y-157223765D01*
X78418083Y-157223270D01*
X78353295Y-157197110D01*
X78312935Y-157140076D01*
X78306235Y-157099867D01*
X78306235Y-157086890D01*
X78306234Y-157086888D01*
X78290650Y-157008541D01*
X78275472Y-156932238D01*
X78269342Y-156917438D01*
X78215132Y-156786562D01*
X78215125Y-156786549D01*
X78127524Y-156655446D01*
X78127521Y-156655442D01*
X78016027Y-156543948D01*
X78016023Y-156543945D01*
X77884920Y-156456344D01*
X77884907Y-156456337D01*
X77739236Y-156395999D01*
X77739224Y-156395996D01*
X77584580Y-156365235D01*
X77584577Y-156365235D01*
X77426893Y-156365235D01*
X77426890Y-156365235D01*
X77272245Y-156395996D01*
X77272233Y-156395999D01*
X77126562Y-156456337D01*
X77126549Y-156456344D01*
X76995446Y-156543945D01*
X76995442Y-156543948D01*
X76883948Y-156655442D01*
X76883945Y-156655446D01*
X76796344Y-156786549D01*
X76796337Y-156786562D01*
X76735999Y-156932233D01*
X76735996Y-156932245D01*
X76705235Y-157086888D01*
X45500500Y-157086888D01*
X45500500Y-156011153D01*
X80669500Y-156011153D01*
X80669500Y-156168846D01*
X80700261Y-156323489D01*
X80700264Y-156323501D01*
X80760602Y-156469172D01*
X80760609Y-156469185D01*
X80848210Y-156600288D01*
X80848213Y-156600292D01*
X80959707Y-156711786D01*
X80959711Y-156711789D01*
X81090814Y-156799390D01*
X81090827Y-156799397D01*
X81236498Y-156859735D01*
X81236503Y-156859737D01*
X81391153Y-156890499D01*
X81391156Y-156890500D01*
X81391158Y-156890500D01*
X81548844Y-156890500D01*
X81548845Y-156890499D01*
X81703497Y-156859737D01*
X81849179Y-156799394D01*
X81900240Y-156765275D01*
X81966916Y-156744398D01*
X82016583Y-156753817D01*
X82030190Y-156759453D01*
X82030195Y-156759455D01*
X82132340Y-156779773D01*
X82184845Y-156790217D01*
X82184848Y-156790218D01*
X82184850Y-156790218D01*
X82342535Y-156790218D01*
X82366607Y-156785429D01*
X82395042Y-156779773D01*
X82464634Y-156786000D01*
X82506916Y-156813709D01*
X82523034Y-156829827D01*
X82523038Y-156829830D01*
X82654141Y-156917431D01*
X82654154Y-156917438D01*
X82799825Y-156977776D01*
X82799830Y-156977778D01*
X82954480Y-157008540D01*
X82954483Y-157008541D01*
X82954485Y-157008541D01*
X83112171Y-157008541D01*
X83112172Y-157008540D01*
X83266824Y-156977778D01*
X83412506Y-156917435D01*
X83543616Y-156829830D01*
X83655116Y-156718330D01*
X83742721Y-156587220D01*
X83803064Y-156441538D01*
X83833827Y-156286883D01*
X83833827Y-156129199D01*
X83833827Y-156129196D01*
X83833826Y-156129194D01*
X83803065Y-155974551D01*
X83803064Y-155974544D01*
X83779948Y-155918737D01*
X83742724Y-155828868D01*
X83742717Y-155828855D01*
X83655116Y-155697752D01*
X83655113Y-155697748D01*
X83543619Y-155586254D01*
X83543615Y-155586251D01*
X83412512Y-155498650D01*
X83412499Y-155498643D01*
X83266828Y-155438305D01*
X83266816Y-155438302D01*
X83112172Y-155407541D01*
X83112169Y-155407541D01*
X82954485Y-155407541D01*
X82901973Y-155417986D01*
X82832381Y-155411757D01*
X82790102Y-155384049D01*
X82773984Y-155367931D01*
X82773980Y-155367928D01*
X82642877Y-155280327D01*
X82642864Y-155280320D01*
X82497193Y-155219982D01*
X82497181Y-155219979D01*
X82342537Y-155189218D01*
X82342534Y-155189218D01*
X82184850Y-155189218D01*
X82184847Y-155189218D01*
X82030202Y-155219979D01*
X82030190Y-155219982D01*
X81884520Y-155280320D01*
X81884511Y-155280325D01*
X81833449Y-155314443D01*
X81766771Y-155335319D01*
X81717108Y-155325900D01*
X81703502Y-155320264D01*
X81703494Y-155320261D01*
X81548845Y-155289500D01*
X81548842Y-155289500D01*
X81391158Y-155289500D01*
X81391155Y-155289500D01*
X81236510Y-155320261D01*
X81236498Y-155320264D01*
X81090827Y-155380602D01*
X81090814Y-155380609D01*
X80959711Y-155468210D01*
X80959707Y-155468213D01*
X80848213Y-155579707D01*
X80848210Y-155579711D01*
X80760609Y-155710814D01*
X80760602Y-155710827D01*
X80700264Y-155856498D01*
X80700261Y-155856510D01*
X80669500Y-156011153D01*
X45500500Y-156011153D01*
X45500500Y-153391609D01*
X76332397Y-153391609D01*
X76332397Y-153549302D01*
X76363158Y-153703945D01*
X76363161Y-153703957D01*
X76423499Y-153849628D01*
X76423506Y-153849641D01*
X76511107Y-153980744D01*
X76511110Y-153980748D01*
X76622604Y-154092242D01*
X76622608Y-154092245D01*
X76753711Y-154179846D01*
X76753724Y-154179853D01*
X76899395Y-154240191D01*
X76899400Y-154240193D01*
X76981431Y-154256510D01*
X77054050Y-154270955D01*
X77054053Y-154270956D01*
X77054055Y-154270956D01*
X77211741Y-154270956D01*
X77211742Y-154270955D01*
X77366394Y-154240193D01*
X77484788Y-154191153D01*
X84399553Y-154191153D01*
X84399553Y-154348846D01*
X84430314Y-154503489D01*
X84430317Y-154503501D01*
X84490655Y-154649172D01*
X84490662Y-154649185D01*
X84578263Y-154780288D01*
X84578266Y-154780292D01*
X84689760Y-154891786D01*
X84689764Y-154891789D01*
X84820867Y-154979390D01*
X84820880Y-154979397D01*
X84966551Y-155039735D01*
X84966556Y-155039737D01*
X85119467Y-155070153D01*
X85121206Y-155070499D01*
X85121209Y-155070500D01*
X85121211Y-155070500D01*
X85278897Y-155070500D01*
X85278898Y-155070499D01*
X85433550Y-155039737D01*
X85579232Y-154979394D01*
X85710342Y-154891789D01*
X85821842Y-154780289D01*
X85909447Y-154649179D01*
X85969790Y-154503497D01*
X86000553Y-154348842D01*
X86000553Y-154301153D01*
X95119500Y-154301153D01*
X95119500Y-154458846D01*
X95150261Y-154613489D01*
X95150264Y-154613501D01*
X95210602Y-154759172D01*
X95210609Y-154759185D01*
X95298210Y-154890288D01*
X95298213Y-154890292D01*
X95409707Y-155001786D01*
X95409711Y-155001789D01*
X95540814Y-155089390D01*
X95540827Y-155089397D01*
X95686498Y-155149735D01*
X95686503Y-155149737D01*
X95841153Y-155180499D01*
X95841156Y-155180500D01*
X95841158Y-155180500D01*
X95998844Y-155180500D01*
X95998845Y-155180499D01*
X96153497Y-155149737D01*
X96299179Y-155089394D01*
X96430289Y-155001789D01*
X96541789Y-154890289D01*
X96629394Y-154759179D01*
X96689737Y-154613497D01*
X96720500Y-154458842D01*
X96720500Y-154411153D01*
X110129500Y-154411153D01*
X110129500Y-154568846D01*
X110160261Y-154723489D01*
X110160264Y-154723501D01*
X110220602Y-154869172D01*
X110220609Y-154869185D01*
X110308210Y-155000288D01*
X110308213Y-155000292D01*
X110419707Y-155111786D01*
X110419711Y-155111789D01*
X110550814Y-155199390D01*
X110550827Y-155199397D01*
X110696498Y-155259735D01*
X110696503Y-155259737D01*
X110846131Y-155289500D01*
X110851153Y-155290499D01*
X110851156Y-155290500D01*
X110851158Y-155290500D01*
X111008844Y-155290500D01*
X111008845Y-155290499D01*
X111163497Y-155259737D01*
X111309179Y-155199394D01*
X111440289Y-155111789D01*
X111481925Y-155070153D01*
X115719500Y-155070153D01*
X115719500Y-155227846D01*
X115750261Y-155382489D01*
X115750264Y-155382501D01*
X115810602Y-155528172D01*
X115810609Y-155528185D01*
X115898210Y-155659288D01*
X115898213Y-155659292D01*
X116009707Y-155770786D01*
X116009711Y-155770789D01*
X116140814Y-155858390D01*
X116140827Y-155858397D01*
X116286498Y-155918735D01*
X116286503Y-155918737D01*
X116441153Y-155949499D01*
X116441156Y-155949500D01*
X116441158Y-155949500D01*
X116598844Y-155949500D01*
X116598845Y-155949499D01*
X116753497Y-155918737D01*
X116899179Y-155858394D01*
X117030289Y-155770789D01*
X117141789Y-155659289D01*
X117229394Y-155528179D01*
X117289737Y-155382497D01*
X117320500Y-155227842D01*
X117320500Y-155070158D01*
X117320500Y-155070155D01*
X117320499Y-155070153D01*
X117289738Y-154915510D01*
X117289737Y-154915503D01*
X117289735Y-154915498D01*
X117229397Y-154769827D01*
X117229390Y-154769814D01*
X117156422Y-154660612D01*
X117141789Y-154638711D01*
X117141788Y-154638710D01*
X117138476Y-154633753D01*
X117117598Y-154567076D01*
X117136082Y-154499696D01*
X117153899Y-154477179D01*
X117171787Y-154459291D01*
X117171789Y-154459289D01*
X117259394Y-154328179D01*
X117319737Y-154182497D01*
X117350500Y-154027842D01*
X117350500Y-153870158D01*
X117350500Y-153870155D01*
X117350499Y-153870153D01*
X117332686Y-153780602D01*
X117319737Y-153715503D01*
X117276158Y-153610292D01*
X117259397Y-153569827D01*
X117259390Y-153569814D01*
X117171789Y-153438711D01*
X117171786Y-153438707D01*
X117060292Y-153327213D01*
X117060288Y-153327210D01*
X116929185Y-153239609D01*
X116929172Y-153239602D01*
X116783501Y-153179264D01*
X116783489Y-153179261D01*
X116628845Y-153148500D01*
X116628842Y-153148500D01*
X116471158Y-153148500D01*
X116471155Y-153148500D01*
X116316510Y-153179261D01*
X116316498Y-153179264D01*
X116170827Y-153239602D01*
X116170814Y-153239609D01*
X116039711Y-153327210D01*
X116039707Y-153327213D01*
X115928213Y-153438707D01*
X115928210Y-153438711D01*
X115840609Y-153569814D01*
X115840602Y-153569827D01*
X115780264Y-153715498D01*
X115780261Y-153715510D01*
X115749500Y-153870153D01*
X115749500Y-154027846D01*
X115780261Y-154182489D01*
X115780264Y-154182501D01*
X115840602Y-154328172D01*
X115840609Y-154328185D01*
X115931523Y-154464246D01*
X115952401Y-154530923D01*
X115933917Y-154598304D01*
X115916104Y-154620816D01*
X115898214Y-154638706D01*
X115898210Y-154638711D01*
X115810609Y-154769814D01*
X115810602Y-154769827D01*
X115750264Y-154915498D01*
X115750261Y-154915510D01*
X115719500Y-155070153D01*
X111481925Y-155070153D01*
X111551789Y-155000289D01*
X111639394Y-154869179D01*
X111699737Y-154723497D01*
X111730500Y-154568842D01*
X111730500Y-154411158D01*
X111730500Y-154411155D01*
X111730499Y-154411153D01*
X111718104Y-154348842D01*
X111699737Y-154256503D01*
X111692981Y-154240193D01*
X111639397Y-154110827D01*
X111639390Y-154110814D01*
X111551789Y-153979711D01*
X111551786Y-153979707D01*
X111440292Y-153868213D01*
X111440288Y-153868210D01*
X111309185Y-153780609D01*
X111309172Y-153780602D01*
X111163501Y-153720264D01*
X111163489Y-153720261D01*
X111008845Y-153689500D01*
X111008842Y-153689500D01*
X110851158Y-153689500D01*
X110851155Y-153689500D01*
X110696510Y-153720261D01*
X110696498Y-153720264D01*
X110550827Y-153780602D01*
X110550814Y-153780609D01*
X110419711Y-153868210D01*
X110419707Y-153868213D01*
X110308213Y-153979707D01*
X110308210Y-153979711D01*
X110220609Y-154110814D01*
X110220602Y-154110827D01*
X110160264Y-154256498D01*
X110160261Y-154256510D01*
X110129500Y-154411153D01*
X96720500Y-154411153D01*
X96720500Y-154301158D01*
X96720500Y-154301155D01*
X96720499Y-154301153D01*
X96711619Y-154256510D01*
X96689737Y-154146503D01*
X96689735Y-154146498D01*
X96629397Y-154000827D01*
X96629390Y-154000814D01*
X96569665Y-153911430D01*
X96548787Y-153844753D01*
X96567271Y-153777373D01*
X96603874Y-153739438D01*
X96630289Y-153721789D01*
X96741789Y-153610289D01*
X96829394Y-153479179D01*
X96889737Y-153333497D01*
X96920500Y-153178842D01*
X96920500Y-153021158D01*
X96920500Y-153021155D01*
X96920499Y-153021153D01*
X96906509Y-152950821D01*
X96889737Y-152866503D01*
X96853379Y-152778726D01*
X96829397Y-152720827D01*
X96829395Y-152720823D01*
X96829394Y-152720821D01*
X96815962Y-152700718D01*
X96804685Y-152683841D01*
X96762720Y-152621037D01*
X101199616Y-152621037D01*
X101199616Y-152778730D01*
X101230377Y-152933373D01*
X101230380Y-152933385D01*
X101290718Y-153079056D01*
X101290725Y-153079069D01*
X101378326Y-153210172D01*
X101378329Y-153210176D01*
X101489823Y-153321670D01*
X101489827Y-153321673D01*
X101620930Y-153409274D01*
X101620943Y-153409281D01*
X101766327Y-153469500D01*
X101766619Y-153469621D01*
X101920656Y-153500261D01*
X101921269Y-153500383D01*
X101921272Y-153500384D01*
X101921274Y-153500384D01*
X102078960Y-153500384D01*
X102078961Y-153500383D01*
X102233613Y-153469621D01*
X102379295Y-153409278D01*
X102510405Y-153321673D01*
X102621905Y-153210173D01*
X102635282Y-153190153D01*
X112219500Y-153190153D01*
X112219500Y-153347846D01*
X112250261Y-153502489D01*
X112250264Y-153502501D01*
X112310602Y-153648172D01*
X112310609Y-153648185D01*
X112398210Y-153779288D01*
X112398213Y-153779292D01*
X112509707Y-153890786D01*
X112509711Y-153890789D01*
X112640814Y-153978390D01*
X112640827Y-153978397D01*
X112786498Y-154038735D01*
X112786503Y-154038737D01*
X112941153Y-154069499D01*
X112941156Y-154069500D01*
X112941158Y-154069500D01*
X113098844Y-154069500D01*
X113098845Y-154069499D01*
X113253497Y-154038737D01*
X113393506Y-153980744D01*
X113399172Y-153978397D01*
X113399172Y-153978396D01*
X113399179Y-153978394D01*
X113530289Y-153890789D01*
X113641789Y-153779289D01*
X113729394Y-153648179D01*
X113789737Y-153502497D01*
X113820500Y-153347842D01*
X113820500Y-153190158D01*
X113820500Y-153190155D01*
X113820499Y-153190153D01*
X113789737Y-153035503D01*
X113758532Y-152960167D01*
X113729397Y-152889827D01*
X113729390Y-152889814D01*
X113641789Y-152758711D01*
X113641786Y-152758707D01*
X113530292Y-152647213D01*
X113530288Y-152647210D01*
X113399185Y-152559609D01*
X113399172Y-152559602D01*
X113253501Y-152499264D01*
X113253489Y-152499261D01*
X113098845Y-152468500D01*
X113098842Y-152468500D01*
X112941158Y-152468500D01*
X112941155Y-152468500D01*
X112786510Y-152499261D01*
X112786498Y-152499264D01*
X112640827Y-152559602D01*
X112640814Y-152559609D01*
X112509711Y-152647210D01*
X112509707Y-152647213D01*
X112398213Y-152758707D01*
X112398210Y-152758711D01*
X112310609Y-152889814D01*
X112310602Y-152889827D01*
X112250264Y-153035498D01*
X112250261Y-153035510D01*
X112219500Y-153190153D01*
X102635282Y-153190153D01*
X102682332Y-153119738D01*
X102685381Y-153115175D01*
X102701349Y-153091277D01*
X102709510Y-153079063D01*
X102769853Y-152933381D01*
X102800616Y-152778726D01*
X102800616Y-152621042D01*
X102800616Y-152621039D01*
X102800615Y-152621037D01*
X102794383Y-152589707D01*
X102769853Y-152466387D01*
X102762957Y-152449738D01*
X102709513Y-152320711D01*
X102709506Y-152320698D01*
X102621905Y-152189595D01*
X102621902Y-152189591D01*
X102510408Y-152078097D01*
X102510404Y-152078094D01*
X102379301Y-151990493D01*
X102379288Y-151990486D01*
X102233617Y-151930148D01*
X102233605Y-151930145D01*
X102078961Y-151899384D01*
X102078958Y-151899384D01*
X101921274Y-151899384D01*
X101921271Y-151899384D01*
X101766626Y-151930145D01*
X101766614Y-151930148D01*
X101620943Y-151990486D01*
X101620930Y-151990493D01*
X101489827Y-152078094D01*
X101489823Y-152078097D01*
X101378329Y-152189591D01*
X101378326Y-152189595D01*
X101290725Y-152320698D01*
X101290718Y-152320711D01*
X101230380Y-152466382D01*
X101230377Y-152466394D01*
X101199616Y-152621037D01*
X96762720Y-152621037D01*
X96741789Y-152589711D01*
X96741786Y-152589707D01*
X96630292Y-152478213D01*
X96630288Y-152478210D01*
X96499185Y-152390609D01*
X96499172Y-152390602D01*
X96353501Y-152330264D01*
X96353489Y-152330261D01*
X96198845Y-152299500D01*
X96198842Y-152299500D01*
X96041158Y-152299500D01*
X96041155Y-152299500D01*
X95886510Y-152330261D01*
X95886498Y-152330264D01*
X95740827Y-152390602D01*
X95740814Y-152390609D01*
X95609711Y-152478210D01*
X95609707Y-152478213D01*
X95498213Y-152589707D01*
X95498210Y-152589711D01*
X95410609Y-152720814D01*
X95410602Y-152720827D01*
X95350264Y-152866498D01*
X95350261Y-152866510D01*
X95319500Y-153021153D01*
X95319500Y-153178846D01*
X95350261Y-153333489D01*
X95350264Y-153333501D01*
X95410602Y-153479172D01*
X95410609Y-153479185D01*
X95470334Y-153568569D01*
X95491212Y-153635247D01*
X95472727Y-153702627D01*
X95436124Y-153740561D01*
X95409713Y-153758208D01*
X95409707Y-153758213D01*
X95298213Y-153869707D01*
X95298210Y-153869711D01*
X95210609Y-154000814D01*
X95210602Y-154000827D01*
X95150264Y-154146498D01*
X95150261Y-154146510D01*
X95119500Y-154301153D01*
X86000553Y-154301153D01*
X86000553Y-154191158D01*
X86000553Y-154191155D01*
X86000552Y-154191153D01*
X85991672Y-154146510D01*
X85969790Y-154036503D01*
X85946696Y-153980748D01*
X85909450Y-153890827D01*
X85909443Y-153890814D01*
X85821842Y-153759711D01*
X85821839Y-153759707D01*
X85710345Y-153648213D01*
X85710341Y-153648210D01*
X85579238Y-153560609D01*
X85579225Y-153560602D01*
X85433554Y-153500264D01*
X85433542Y-153500261D01*
X85278898Y-153469500D01*
X85278895Y-153469500D01*
X85121211Y-153469500D01*
X85121208Y-153469500D01*
X84966563Y-153500261D01*
X84966551Y-153500264D01*
X84820880Y-153560602D01*
X84820867Y-153560609D01*
X84689764Y-153648210D01*
X84689760Y-153648213D01*
X84578266Y-153759707D01*
X84578263Y-153759711D01*
X84490662Y-153890814D01*
X84490655Y-153890827D01*
X84430317Y-154036498D01*
X84430314Y-154036510D01*
X84399553Y-154191153D01*
X77484788Y-154191153D01*
X77512076Y-154179850D01*
X77643186Y-154092245D01*
X77754686Y-153980745D01*
X77842291Y-153849635D01*
X77902634Y-153703953D01*
X77933397Y-153549298D01*
X77933397Y-153391614D01*
X77933397Y-153391611D01*
X77909069Y-153269310D01*
X77909006Y-153268994D01*
X77910595Y-153251153D01*
X79839500Y-153251153D01*
X79839500Y-153408846D01*
X79870261Y-153563489D01*
X79870264Y-153563501D01*
X79930602Y-153709172D01*
X79930609Y-153709185D01*
X80018210Y-153840288D01*
X80018213Y-153840292D01*
X80129707Y-153951786D01*
X80129711Y-153951789D01*
X80260814Y-154039390D01*
X80260827Y-154039397D01*
X80406498Y-154099735D01*
X80406503Y-154099737D01*
X80561153Y-154130499D01*
X80561156Y-154130500D01*
X80561158Y-154130500D01*
X80718844Y-154130500D01*
X80718845Y-154130499D01*
X80873497Y-154099737D01*
X80902742Y-154087623D01*
X80944071Y-154070505D01*
X81019172Y-154039397D01*
X81019172Y-154039396D01*
X81019179Y-154039394D01*
X81150289Y-153951789D01*
X81261789Y-153840289D01*
X81349394Y-153709179D01*
X81409737Y-153563497D01*
X81440500Y-153408842D01*
X81440500Y-153251158D01*
X81440500Y-153251155D01*
X81440499Y-153251153D01*
X81432348Y-153210176D01*
X81409737Y-153096503D01*
X81407572Y-153091277D01*
X81349397Y-152950827D01*
X81349390Y-152950814D01*
X81261789Y-152819711D01*
X81261786Y-152819707D01*
X81150292Y-152708213D01*
X81150288Y-152708210D01*
X81120293Y-152688168D01*
X81019185Y-152620609D01*
X81019172Y-152620602D01*
X80948075Y-152591153D01*
X88179500Y-152591153D01*
X88179500Y-152748846D01*
X88210261Y-152903489D01*
X88210264Y-152903501D01*
X88270602Y-153049172D01*
X88270609Y-153049185D01*
X88358210Y-153180288D01*
X88358213Y-153180292D01*
X88469707Y-153291786D01*
X88469711Y-153291789D01*
X88600814Y-153379390D01*
X88600827Y-153379397D01*
X88744016Y-153438707D01*
X88746503Y-153439737D01*
X88896131Y-153469500D01*
X88901153Y-153470499D01*
X88901156Y-153470500D01*
X88901158Y-153470500D01*
X89058844Y-153470500D01*
X89058845Y-153470499D01*
X89213497Y-153439737D01*
X89359179Y-153379394D01*
X89490289Y-153291789D01*
X89601789Y-153180289D01*
X89689394Y-153049179D01*
X89749737Y-152903497D01*
X89780500Y-152748842D01*
X89780500Y-152591158D01*
X89780500Y-152591155D01*
X89780499Y-152591153D01*
X89774355Y-152560264D01*
X89749737Y-152436503D01*
X89730726Y-152390606D01*
X89689397Y-152290827D01*
X89689390Y-152290814D01*
X89601789Y-152159711D01*
X89601786Y-152159707D01*
X89490292Y-152048213D01*
X89490288Y-152048210D01*
X89359185Y-151960609D01*
X89359172Y-151960602D01*
X89213501Y-151900264D01*
X89213489Y-151900261D01*
X89058845Y-151869500D01*
X89058842Y-151869500D01*
X88901158Y-151869500D01*
X88901155Y-151869500D01*
X88746510Y-151900261D01*
X88746498Y-151900264D01*
X88600827Y-151960602D01*
X88600814Y-151960609D01*
X88469711Y-152048210D01*
X88469707Y-152048213D01*
X88358213Y-152159707D01*
X88358210Y-152159711D01*
X88270609Y-152290814D01*
X88270602Y-152290827D01*
X88210264Y-152436498D01*
X88210261Y-152436510D01*
X88179500Y-152591153D01*
X80948075Y-152591153D01*
X80873501Y-152560264D01*
X80873489Y-152560261D01*
X80718845Y-152529500D01*
X80718842Y-152529500D01*
X80561158Y-152529500D01*
X80561155Y-152529500D01*
X80406510Y-152560261D01*
X80406498Y-152560264D01*
X80260827Y-152620602D01*
X80260814Y-152620609D01*
X80129711Y-152708210D01*
X80129707Y-152708213D01*
X80018213Y-152819707D01*
X80018210Y-152819711D01*
X79930609Y-152950814D01*
X79930602Y-152950827D01*
X79870264Y-153096498D01*
X79870261Y-153096510D01*
X79839500Y-153251153D01*
X77910595Y-153251153D01*
X77915203Y-153199400D01*
X77958042Y-153144204D01*
X78006425Y-153123132D01*
X78023497Y-153119737D01*
X78169179Y-153059394D01*
X78300289Y-152971789D01*
X78411789Y-152860289D01*
X78499394Y-152729179D01*
X78502854Y-152720827D01*
X78544185Y-152621042D01*
X78559737Y-152583497D01*
X78590500Y-152428842D01*
X78590500Y-152271158D01*
X78590500Y-152271155D01*
X78590499Y-152271153D01*
X78559737Y-152116503D01*
X78543828Y-152078094D01*
X78499397Y-151970827D01*
X78499390Y-151970814D01*
X78411789Y-151839711D01*
X78411786Y-151839707D01*
X78300292Y-151728213D01*
X78300288Y-151728210D01*
X78169185Y-151640609D01*
X78169172Y-151640602D01*
X78073932Y-151601153D01*
X91539500Y-151601153D01*
X91539500Y-151758846D01*
X91570261Y-151913489D01*
X91570264Y-151913501D01*
X91630602Y-152059172D01*
X91630609Y-152059185D01*
X91718210Y-152190288D01*
X91718213Y-152190292D01*
X91829707Y-152301786D01*
X91829711Y-152301789D01*
X91960814Y-152389390D01*
X91960827Y-152389397D01*
X92056062Y-152428844D01*
X92106503Y-152449737D01*
X92249661Y-152478213D01*
X92261153Y-152480499D01*
X92261156Y-152480500D01*
X92261158Y-152480500D01*
X92418844Y-152480500D01*
X92418845Y-152480499D01*
X92573497Y-152449737D01*
X92719179Y-152389394D01*
X92850289Y-152301789D01*
X92961789Y-152190289D01*
X93049394Y-152059179D01*
X93053938Y-152048210D01*
X93090224Y-151960606D01*
X93109737Y-151913497D01*
X93140500Y-151758842D01*
X93140500Y-151601158D01*
X93140500Y-151601155D01*
X93140499Y-151601153D01*
X93133684Y-151566890D01*
X93109737Y-151446503D01*
X93077133Y-151367789D01*
X93049397Y-151300827D01*
X93049390Y-151300814D01*
X92961789Y-151169711D01*
X92961786Y-151169707D01*
X92850292Y-151058213D01*
X92850288Y-151058210D01*
X92719185Y-150970609D01*
X92719172Y-150970602D01*
X92573501Y-150910264D01*
X92573489Y-150910261D01*
X92492661Y-150894183D01*
X92418845Y-150879500D01*
X92418842Y-150879500D01*
X92261158Y-150879500D01*
X92261155Y-150879500D01*
X92106510Y-150910261D01*
X92106498Y-150910264D01*
X91960827Y-150970602D01*
X91960814Y-150970609D01*
X91829711Y-151058210D01*
X91829707Y-151058213D01*
X91718213Y-151169707D01*
X91718210Y-151169711D01*
X91630609Y-151300814D01*
X91630602Y-151300827D01*
X91570264Y-151446498D01*
X91570261Y-151446510D01*
X91539500Y-151601153D01*
X78073932Y-151601153D01*
X78023501Y-151580264D01*
X78023489Y-151580261D01*
X77868845Y-151549500D01*
X77868842Y-151549500D01*
X77711158Y-151549500D01*
X77711155Y-151549500D01*
X77556510Y-151580261D01*
X77556498Y-151580264D01*
X77410827Y-151640602D01*
X77410814Y-151640609D01*
X77279711Y-151728210D01*
X77279707Y-151728213D01*
X77168213Y-151839707D01*
X77168210Y-151839711D01*
X77080609Y-151970814D01*
X77080602Y-151970827D01*
X77020264Y-152116498D01*
X77020261Y-152116510D01*
X76989500Y-152271153D01*
X76989500Y-152428846D01*
X77013900Y-152551514D01*
X77007673Y-152621106D01*
X76964810Y-152676283D01*
X76916476Y-152697322D01*
X76899404Y-152700718D01*
X76899395Y-152700720D01*
X76753724Y-152761058D01*
X76753711Y-152761065D01*
X76622608Y-152848666D01*
X76622604Y-152848669D01*
X76511110Y-152960163D01*
X76511107Y-152960167D01*
X76423506Y-153091270D01*
X76423499Y-153091283D01*
X76363161Y-153236954D01*
X76363158Y-153236966D01*
X76332397Y-153391609D01*
X45500500Y-153391609D01*
X45500500Y-151171153D01*
X72649500Y-151171153D01*
X72649500Y-151328846D01*
X72680261Y-151483489D01*
X72680264Y-151483501D01*
X72740602Y-151629172D01*
X72740609Y-151629185D01*
X72828210Y-151760288D01*
X72828213Y-151760292D01*
X72939707Y-151871786D01*
X72939711Y-151871789D01*
X73070814Y-151959390D01*
X73070827Y-151959397D01*
X73145901Y-151990493D01*
X73216503Y-152019737D01*
X73359661Y-152048213D01*
X73371153Y-152050499D01*
X73371156Y-152050500D01*
X73371158Y-152050500D01*
X73528844Y-152050500D01*
X73528845Y-152050499D01*
X73683497Y-152019737D01*
X73801592Y-151970821D01*
X73829172Y-151959397D01*
X73829172Y-151959396D01*
X73829179Y-151959394D01*
X73960289Y-151871789D01*
X74071789Y-151760289D01*
X74159394Y-151629179D01*
X74219737Y-151483497D01*
X74250500Y-151328842D01*
X74250500Y-151171158D01*
X74250500Y-151171155D01*
X74250499Y-151171153D01*
X74244139Y-151139179D01*
X74219737Y-151016503D01*
X74210208Y-150993497D01*
X74159397Y-150870827D01*
X74159390Y-150870814D01*
X74074626Y-150743957D01*
X74074625Y-150743955D01*
X74074624Y-150743954D01*
X74071788Y-150739709D01*
X74013232Y-150681153D01*
X80199124Y-150681153D01*
X80199124Y-150838846D01*
X80229885Y-150993489D01*
X80229888Y-150993501D01*
X80290226Y-151139172D01*
X80290233Y-151139185D01*
X80377834Y-151270288D01*
X80377837Y-151270292D01*
X80489331Y-151381786D01*
X80489335Y-151381789D01*
X80620438Y-151469390D01*
X80620451Y-151469397D01*
X80766122Y-151529735D01*
X80766127Y-151529737D01*
X80865482Y-151549500D01*
X80920777Y-151560499D01*
X80920780Y-151560500D01*
X80920782Y-151560500D01*
X81078468Y-151560500D01*
X81078469Y-151560499D01*
X81233121Y-151529737D01*
X81351978Y-151480505D01*
X81351979Y-151480505D01*
X81364737Y-151475220D01*
X81378803Y-151469394D01*
X81509913Y-151381789D01*
X81621413Y-151270289D01*
X81709018Y-151139179D01*
X81769361Y-150993497D01*
X81800124Y-150838842D01*
X81800124Y-150778653D01*
X105847000Y-150778653D01*
X105847000Y-150936346D01*
X105877761Y-151090989D01*
X105877764Y-151091001D01*
X105938102Y-151236672D01*
X105938109Y-151236685D01*
X106025710Y-151367788D01*
X106025713Y-151367792D01*
X106137207Y-151479286D01*
X106137211Y-151479289D01*
X106268314Y-151566890D01*
X106268327Y-151566897D01*
X106351042Y-151601158D01*
X106414003Y-151627237D01*
X106568653Y-151657999D01*
X106568656Y-151658000D01*
X106568658Y-151658000D01*
X106726344Y-151658000D01*
X106726345Y-151657999D01*
X106880997Y-151627237D01*
X107026679Y-151566894D01*
X107157789Y-151479289D01*
X107269289Y-151367789D01*
X107356894Y-151236679D01*
X107417237Y-151090997D01*
X107448000Y-150936342D01*
X107448000Y-150778658D01*
X107448000Y-150778655D01*
X107447999Y-150778653D01*
X107440253Y-150739711D01*
X107417237Y-150624003D01*
X107400551Y-150583718D01*
X107356897Y-150478327D01*
X107356890Y-150478314D01*
X107269289Y-150347211D01*
X107269286Y-150347207D01*
X107157792Y-150235713D01*
X107157788Y-150235710D01*
X107026685Y-150148109D01*
X107026672Y-150148102D01*
X106881001Y-150087764D01*
X106880989Y-150087761D01*
X106726345Y-150057000D01*
X106726342Y-150057000D01*
X106568658Y-150057000D01*
X106568655Y-150057000D01*
X106414010Y-150087761D01*
X106413998Y-150087764D01*
X106268327Y-150148102D01*
X106268314Y-150148109D01*
X106137211Y-150235710D01*
X106137207Y-150235713D01*
X106025713Y-150347207D01*
X106025710Y-150347211D01*
X105938109Y-150478314D01*
X105938102Y-150478327D01*
X105877764Y-150623998D01*
X105877761Y-150624010D01*
X105847000Y-150778653D01*
X81800124Y-150778653D01*
X81800124Y-150681158D01*
X81800124Y-150681155D01*
X81800123Y-150681153D01*
X81797566Y-150668299D01*
X81769361Y-150526503D01*
X81769359Y-150526498D01*
X81709021Y-150380827D01*
X81709014Y-150380814D01*
X81621413Y-150249711D01*
X81621410Y-150249707D01*
X81509916Y-150138213D01*
X81509912Y-150138210D01*
X81378809Y-150050609D01*
X81378796Y-150050602D01*
X81233125Y-149990264D01*
X81233113Y-149990261D01*
X81078469Y-149959500D01*
X81078466Y-149959500D01*
X80920782Y-149959500D01*
X80920779Y-149959500D01*
X80766134Y-149990261D01*
X80766122Y-149990264D01*
X80620451Y-150050602D01*
X80620438Y-150050609D01*
X80489335Y-150138210D01*
X80489331Y-150138213D01*
X80377837Y-150249707D01*
X80377834Y-150249711D01*
X80290233Y-150380814D01*
X80290226Y-150380827D01*
X80229888Y-150526498D01*
X80229885Y-150526510D01*
X80199124Y-150681153D01*
X74013232Y-150681153D01*
X73960292Y-150628213D01*
X73960288Y-150628210D01*
X73829185Y-150540609D01*
X73829172Y-150540602D01*
X73683501Y-150480264D01*
X73683489Y-150480261D01*
X73528845Y-150449500D01*
X73528842Y-150449500D01*
X73371158Y-150449500D01*
X73371155Y-150449500D01*
X73216510Y-150480261D01*
X73216498Y-150480264D01*
X73070827Y-150540602D01*
X73070814Y-150540609D01*
X72939711Y-150628210D01*
X72939707Y-150628213D01*
X72828213Y-150739707D01*
X72828210Y-150739711D01*
X72740609Y-150870814D01*
X72740602Y-150870827D01*
X72680264Y-151016498D01*
X72680261Y-151016510D01*
X72649500Y-151171153D01*
X45500500Y-151171153D01*
X45500500Y-149341153D01*
X91969500Y-149341153D01*
X91969500Y-149498846D01*
X92000261Y-149653489D01*
X92000264Y-149653501D01*
X92060602Y-149799172D01*
X92060609Y-149799185D01*
X92148210Y-149930288D01*
X92148213Y-149930292D01*
X92259707Y-150041786D01*
X92259711Y-150041789D01*
X92390814Y-150129390D01*
X92390827Y-150129397D01*
X92536498Y-150189735D01*
X92536503Y-150189737D01*
X92691153Y-150220499D01*
X92691156Y-150220500D01*
X92691158Y-150220500D01*
X92848844Y-150220500D01*
X92848845Y-150220499D01*
X93003497Y-150189737D01*
X93149179Y-150129394D01*
X93280289Y-150041789D01*
X93391789Y-149930289D01*
X93459474Y-149828992D01*
X114269500Y-149828992D01*
X114269500Y-150031007D01*
X114308907Y-150229119D01*
X114308909Y-150229127D01*
X114386212Y-150415752D01*
X114386217Y-150415762D01*
X114498441Y-150583718D01*
X114641281Y-150726558D01*
X114809237Y-150838782D01*
X114809241Y-150838784D01*
X114809244Y-150838786D01*
X114995873Y-150916091D01*
X115193992Y-150955499D01*
X115193996Y-150955500D01*
X115193997Y-150955500D01*
X115674233Y-150955500D01*
X115741272Y-150975185D01*
X115787027Y-151027989D01*
X115796971Y-151097147D01*
X115785647Y-151129860D01*
X115786831Y-151130351D01*
X115783720Y-151137862D01*
X115783720Y-151137863D01*
X115783719Y-151137865D01*
X115744500Y-151284234D01*
X115744500Y-151435766D01*
X115753511Y-151469395D01*
X115783719Y-151582136D01*
X115809759Y-151627237D01*
X115859485Y-151713365D01*
X115966635Y-151820515D01*
X116097865Y-151896281D01*
X116244234Y-151935500D01*
X116244236Y-151935500D01*
X116395764Y-151935500D01*
X116395766Y-151935500D01*
X116542135Y-151896281D01*
X116673365Y-151820515D01*
X116780515Y-151713365D01*
X116856281Y-151582135D01*
X116895500Y-151435766D01*
X116895500Y-151284234D01*
X116856281Y-151137865D01*
X116782370Y-151009848D01*
X116765898Y-150941951D01*
X116788750Y-150875924D01*
X116826223Y-150842967D01*
X116825691Y-150842171D01*
X116979039Y-150739707D01*
X116998718Y-150726558D01*
X117141558Y-150583718D01*
X117253786Y-150415756D01*
X117331091Y-150229127D01*
X117370500Y-150031003D01*
X117370500Y-149836379D01*
X118599500Y-149836379D01*
X118599500Y-150023620D01*
X118636025Y-150207243D01*
X118636027Y-150207251D01*
X118707676Y-150380228D01*
X118707681Y-150380237D01*
X118811697Y-150535907D01*
X118811700Y-150535911D01*
X118944088Y-150668299D01*
X118944092Y-150668302D01*
X119099762Y-150772318D01*
X119099768Y-150772321D01*
X119099769Y-150772322D01*
X119272749Y-150843973D01*
X119433379Y-150875924D01*
X119456379Y-150880499D01*
X119456383Y-150880500D01*
X119456384Y-150880500D01*
X120543617Y-150880500D01*
X120543618Y-150880499D01*
X120727251Y-150843973D01*
X120900231Y-150772322D01*
X121055908Y-150668302D01*
X121188302Y-150535908D01*
X121292322Y-150380231D01*
X121363973Y-150207251D01*
X121400500Y-150023616D01*
X121400500Y-149836384D01*
X121363973Y-149652749D01*
X121292322Y-149479769D01*
X121292321Y-149479768D01*
X121292318Y-149479762D01*
X121188302Y-149324092D01*
X121188299Y-149324088D01*
X121055911Y-149191700D01*
X121055907Y-149191697D01*
X120900237Y-149087681D01*
X120900228Y-149087676D01*
X120727251Y-149016027D01*
X120727243Y-149016025D01*
X120543620Y-148979500D01*
X120543616Y-148979500D01*
X119456384Y-148979500D01*
X119456379Y-148979500D01*
X119272756Y-149016025D01*
X119272748Y-149016027D01*
X119099771Y-149087676D01*
X119099762Y-149087681D01*
X118944092Y-149191697D01*
X118944088Y-149191700D01*
X118811700Y-149324088D01*
X118811697Y-149324092D01*
X118707681Y-149479762D01*
X118707676Y-149479771D01*
X118636027Y-149652748D01*
X118636025Y-149652756D01*
X118599500Y-149836379D01*
X117370500Y-149836379D01*
X117370500Y-149828997D01*
X117331091Y-149630873D01*
X117253786Y-149444244D01*
X117253784Y-149444241D01*
X117253782Y-149444237D01*
X117141558Y-149276281D01*
X116998718Y-149133441D01*
X116830762Y-149021217D01*
X116830752Y-149021212D01*
X116644127Y-148943909D01*
X116644119Y-148943907D01*
X116446007Y-148904500D01*
X116446003Y-148904500D01*
X115193997Y-148904500D01*
X115193992Y-148904500D01*
X114995880Y-148943907D01*
X114995872Y-148943909D01*
X114809247Y-149021212D01*
X114809237Y-149021217D01*
X114641281Y-149133441D01*
X114498441Y-149276281D01*
X114386217Y-149444237D01*
X114386212Y-149444247D01*
X114308909Y-149630872D01*
X114308907Y-149630880D01*
X114269500Y-149828992D01*
X93459474Y-149828992D01*
X93479394Y-149799179D01*
X93539737Y-149653497D01*
X93570500Y-149498842D01*
X93570500Y-149341158D01*
X93570500Y-149341155D01*
X93570499Y-149341153D01*
X93567105Y-149324092D01*
X93539737Y-149186503D01*
X93498802Y-149087676D01*
X93479397Y-149040827D01*
X93479390Y-149040814D01*
X93391789Y-148909711D01*
X93391786Y-148909707D01*
X93280292Y-148798213D01*
X93280288Y-148798210D01*
X93149185Y-148710609D01*
X93149172Y-148710602D01*
X93003501Y-148650264D01*
X93003489Y-148650261D01*
X92848845Y-148619500D01*
X92848842Y-148619500D01*
X92691158Y-148619500D01*
X92691155Y-148619500D01*
X92536510Y-148650261D01*
X92536498Y-148650264D01*
X92390827Y-148710602D01*
X92390814Y-148710609D01*
X92259711Y-148798210D01*
X92259707Y-148798213D01*
X92148213Y-148909707D01*
X92148210Y-148909711D01*
X92060609Y-149040814D01*
X92060602Y-149040827D01*
X92000264Y-149186498D01*
X92000261Y-149186510D01*
X91969500Y-149341153D01*
X45500500Y-149341153D01*
X45500500Y-147871153D01*
X72439500Y-147871153D01*
X72439500Y-148028846D01*
X72470261Y-148183489D01*
X72470264Y-148183501D01*
X72530602Y-148329172D01*
X72530609Y-148329185D01*
X72618210Y-148460288D01*
X72618213Y-148460292D01*
X72729707Y-148571786D01*
X72729711Y-148571789D01*
X72860814Y-148659390D01*
X72860827Y-148659397D01*
X72984466Y-148710609D01*
X73006503Y-148719737D01*
X73161153Y-148750499D01*
X73161156Y-148750500D01*
X73161158Y-148750500D01*
X73318844Y-148750500D01*
X73318845Y-148750499D01*
X73473497Y-148719737D01*
X73619179Y-148659394D01*
X73750289Y-148571789D01*
X73861789Y-148460289D01*
X73949394Y-148329179D01*
X74009737Y-148183497D01*
X74040500Y-148028842D01*
X74040500Y-147871158D01*
X74040500Y-147871155D01*
X74040499Y-147871153D01*
X74017019Y-147753112D01*
X74009737Y-147716503D01*
X73993844Y-147678134D01*
X73949397Y-147570827D01*
X73949390Y-147570814D01*
X73861789Y-147439711D01*
X73861786Y-147439707D01*
X73750292Y-147328213D01*
X73750288Y-147328210D01*
X73619185Y-147240609D01*
X73619172Y-147240602D01*
X73473501Y-147180264D01*
X73473489Y-147180261D01*
X73337004Y-147153112D01*
X84999553Y-147153112D01*
X84999553Y-147310805D01*
X85030314Y-147465448D01*
X85030317Y-147465460D01*
X85090655Y-147611131D01*
X85090662Y-147611144D01*
X85178263Y-147742247D01*
X85178266Y-147742251D01*
X85289760Y-147853745D01*
X85289764Y-147853748D01*
X85420867Y-147941349D01*
X85420880Y-147941356D01*
X85566551Y-148001694D01*
X85566556Y-148001696D01*
X85721206Y-148032458D01*
X85721209Y-148032459D01*
X85721211Y-148032459D01*
X85878897Y-148032459D01*
X85878898Y-148032458D01*
X86033550Y-148001696D01*
X86179232Y-147941353D01*
X86310342Y-147853748D01*
X86410978Y-147753112D01*
X87289500Y-147753112D01*
X87289500Y-147910805D01*
X87320261Y-148065448D01*
X87320264Y-148065460D01*
X87380602Y-148211131D01*
X87380609Y-148211144D01*
X87468210Y-148342247D01*
X87468213Y-148342251D01*
X87579707Y-148453745D01*
X87579711Y-148453748D01*
X87710814Y-148541349D01*
X87710827Y-148541356D01*
X87856498Y-148601694D01*
X87856503Y-148601696D01*
X88011153Y-148632458D01*
X88011156Y-148632459D01*
X88011158Y-148632459D01*
X88168844Y-148632459D01*
X88168845Y-148632458D01*
X88323497Y-148601696D01*
X88469179Y-148541353D01*
X88600289Y-148453748D01*
X88711789Y-148342248D01*
X88799394Y-148211138D01*
X88859737Y-148065456D01*
X88890500Y-147910801D01*
X88890500Y-147753117D01*
X88890500Y-147753114D01*
X88890499Y-147753112D01*
X88875585Y-147678134D01*
X88859737Y-147598462D01*
X88848285Y-147570814D01*
X88799397Y-147452786D01*
X88799390Y-147452773D01*
X88711789Y-147321670D01*
X88711786Y-147321666D01*
X88600292Y-147210172D01*
X88600288Y-147210169D01*
X88469185Y-147122568D01*
X88469172Y-147122561D01*
X88323501Y-147062223D01*
X88323489Y-147062220D01*
X88168845Y-147031459D01*
X88168842Y-147031459D01*
X88011158Y-147031459D01*
X88011155Y-147031459D01*
X87856510Y-147062220D01*
X87856498Y-147062223D01*
X87710827Y-147122561D01*
X87710814Y-147122568D01*
X87579711Y-147210169D01*
X87579707Y-147210172D01*
X87468213Y-147321666D01*
X87468210Y-147321670D01*
X87380609Y-147452773D01*
X87380602Y-147452786D01*
X87320264Y-147598457D01*
X87320261Y-147598469D01*
X87289500Y-147753112D01*
X86410978Y-147753112D01*
X86421842Y-147742248D01*
X86509447Y-147611138D01*
X86569790Y-147465456D01*
X86586994Y-147378968D01*
X86619379Y-147317057D01*
X86680094Y-147282483D01*
X86684358Y-147281554D01*
X86693497Y-147279737D01*
X86839179Y-147219394D01*
X86970289Y-147131789D01*
X87081789Y-147020289D01*
X87169394Y-146889179D01*
X87229737Y-146743497D01*
X87260500Y-146588842D01*
X87260500Y-146431158D01*
X87260500Y-146431155D01*
X87260499Y-146431153D01*
X87259256Y-146424902D01*
X87229737Y-146276503D01*
X87214737Y-146240289D01*
X87169397Y-146130827D01*
X87169390Y-146130814D01*
X87081789Y-145999711D01*
X87081786Y-145999707D01*
X86970292Y-145888213D01*
X86970288Y-145888210D01*
X86839185Y-145800609D01*
X86839172Y-145800602D01*
X86740247Y-145759627D01*
X86693501Y-145740264D01*
X86693489Y-145740261D01*
X86538845Y-145709500D01*
X86538842Y-145709500D01*
X86381158Y-145709500D01*
X86381155Y-145709500D01*
X86226510Y-145740261D01*
X86226498Y-145740264D01*
X86080827Y-145800602D01*
X86080814Y-145800609D01*
X85949711Y-145888210D01*
X85949707Y-145888213D01*
X85838213Y-145999707D01*
X85838210Y-145999711D01*
X85750609Y-146130814D01*
X85750602Y-146130827D01*
X85690264Y-146276498D01*
X85690261Y-146276507D01*
X85673058Y-146362991D01*
X85640672Y-146424902D01*
X85579956Y-146459475D01*
X85575641Y-146460414D01*
X85566560Y-146462220D01*
X85566551Y-146462223D01*
X85420880Y-146522561D01*
X85420867Y-146522568D01*
X85289764Y-146610169D01*
X85289760Y-146610172D01*
X85178266Y-146721666D01*
X85178263Y-146721670D01*
X85090662Y-146852773D01*
X85090655Y-146852786D01*
X85030317Y-146998457D01*
X85030314Y-146998469D01*
X84999553Y-147153112D01*
X73337004Y-147153112D01*
X73318845Y-147149500D01*
X73318842Y-147149500D01*
X73161158Y-147149500D01*
X73161155Y-147149500D01*
X73006510Y-147180261D01*
X73006498Y-147180264D01*
X72860827Y-147240602D01*
X72860814Y-147240609D01*
X72729711Y-147328210D01*
X72729707Y-147328213D01*
X72618213Y-147439707D01*
X72618210Y-147439711D01*
X72530609Y-147570814D01*
X72530602Y-147570827D01*
X72470264Y-147716498D01*
X72470261Y-147716510D01*
X72439500Y-147871153D01*
X45500500Y-147871153D01*
X45500500Y-146231153D01*
X80199124Y-146231153D01*
X80199124Y-146388846D01*
X80229885Y-146543489D01*
X80229888Y-146543501D01*
X80290226Y-146689172D01*
X80290233Y-146689185D01*
X80377834Y-146820288D01*
X80377837Y-146820292D01*
X80489331Y-146931786D01*
X80489335Y-146931789D01*
X80620438Y-147019390D01*
X80620451Y-147019397D01*
X80723844Y-147062223D01*
X80766127Y-147079737D01*
X80920777Y-147110499D01*
X80920780Y-147110500D01*
X80920782Y-147110500D01*
X81078468Y-147110500D01*
X81078469Y-147110499D01*
X81233121Y-147079737D01*
X81284499Y-147058455D01*
X81347250Y-147032464D01*
X81378796Y-147019397D01*
X81378796Y-147019396D01*
X81378803Y-147019394D01*
X81509913Y-146931789D01*
X81621413Y-146820289D01*
X81709018Y-146689179D01*
X81769361Y-146543497D01*
X81800124Y-146388842D01*
X81800124Y-146231158D01*
X81800124Y-146231155D01*
X81800123Y-146231153D01*
X81780167Y-146130827D01*
X81769361Y-146076503D01*
X81737553Y-145999711D01*
X81709021Y-145930827D01*
X81709014Y-145930814D01*
X81621413Y-145799711D01*
X81621410Y-145799707D01*
X81509916Y-145688213D01*
X81509912Y-145688210D01*
X81454453Y-145651153D01*
X87339500Y-145651153D01*
X87339500Y-145808846D01*
X87370261Y-145963489D01*
X87370264Y-145963501D01*
X87430602Y-146109172D01*
X87430609Y-146109185D01*
X87518210Y-146240288D01*
X87518213Y-146240292D01*
X87629707Y-146351786D01*
X87629711Y-146351789D01*
X87760814Y-146439390D01*
X87760827Y-146439397D01*
X87906498Y-146499735D01*
X87906503Y-146499737D01*
X88061153Y-146530499D01*
X88061156Y-146530500D01*
X88061158Y-146530500D01*
X88218844Y-146530500D01*
X88218845Y-146530499D01*
X88373497Y-146499737D01*
X88519179Y-146439394D01*
X88650289Y-146351789D01*
X88761789Y-146240289D01*
X88849394Y-146109179D01*
X88909737Y-145963497D01*
X88940500Y-145808842D01*
X88940500Y-145651158D01*
X88940500Y-145651155D01*
X88940499Y-145651153D01*
X88930445Y-145600609D01*
X88909737Y-145496503D01*
X88909735Y-145496498D01*
X88849397Y-145350827D01*
X88849390Y-145350814D01*
X88761789Y-145219711D01*
X88761786Y-145219707D01*
X88650292Y-145108213D01*
X88650288Y-145108210D01*
X88519185Y-145020609D01*
X88519172Y-145020602D01*
X88373501Y-144960264D01*
X88373489Y-144960261D01*
X88218845Y-144929500D01*
X88218842Y-144929500D01*
X88061158Y-144929500D01*
X88061155Y-144929500D01*
X87906510Y-144960261D01*
X87906498Y-144960264D01*
X87760827Y-145020602D01*
X87760814Y-145020609D01*
X87629711Y-145108210D01*
X87629707Y-145108213D01*
X87518213Y-145219707D01*
X87518210Y-145219711D01*
X87430609Y-145350814D01*
X87430602Y-145350827D01*
X87370264Y-145496498D01*
X87370261Y-145496510D01*
X87339500Y-145651153D01*
X81454453Y-145651153D01*
X81378809Y-145600609D01*
X81378796Y-145600602D01*
X81233125Y-145540264D01*
X81233113Y-145540261D01*
X81078469Y-145509500D01*
X81078466Y-145509500D01*
X80920782Y-145509500D01*
X80920779Y-145509500D01*
X80766134Y-145540261D01*
X80766122Y-145540264D01*
X80620451Y-145600602D01*
X80620438Y-145600609D01*
X80489335Y-145688210D01*
X80489331Y-145688213D01*
X80377837Y-145799707D01*
X80377834Y-145799711D01*
X80290233Y-145930814D01*
X80290226Y-145930827D01*
X80229888Y-146076498D01*
X80229885Y-146076510D01*
X80199124Y-146231153D01*
X45500500Y-146231153D01*
X45500500Y-144121153D01*
X72569500Y-144121153D01*
X72569500Y-144278846D01*
X72600261Y-144433489D01*
X72600264Y-144433501D01*
X72660602Y-144579172D01*
X72660609Y-144579185D01*
X72748210Y-144710288D01*
X72748213Y-144710292D01*
X72859707Y-144821786D01*
X72859711Y-144821789D01*
X72990814Y-144909390D01*
X72990827Y-144909397D01*
X73113633Y-144960264D01*
X73136503Y-144969737D01*
X73291153Y-145000499D01*
X73291156Y-145000500D01*
X73291158Y-145000500D01*
X73448844Y-145000500D01*
X73448845Y-145000499D01*
X73603497Y-144969737D01*
X73749179Y-144909394D01*
X73880289Y-144821789D01*
X73991789Y-144710289D01*
X74079394Y-144579179D01*
X74139737Y-144433497D01*
X74170500Y-144278842D01*
X74170500Y-144121158D01*
X74170500Y-144121155D01*
X74170499Y-144121153D01*
X74145426Y-143995103D01*
X74139737Y-143966503D01*
X74139735Y-143966498D01*
X74079397Y-143820827D01*
X74079390Y-143820814D01*
X73991789Y-143689711D01*
X73991786Y-143689707D01*
X73880292Y-143578213D01*
X73880288Y-143578210D01*
X73749185Y-143490609D01*
X73749172Y-143490602D01*
X73603501Y-143430264D01*
X73603489Y-143430261D01*
X73448845Y-143399500D01*
X73448842Y-143399500D01*
X73291158Y-143399500D01*
X73291155Y-143399500D01*
X73136510Y-143430261D01*
X73136498Y-143430264D01*
X72990827Y-143490602D01*
X72990814Y-143490609D01*
X72859711Y-143578210D01*
X72859707Y-143578213D01*
X72748213Y-143689707D01*
X72748210Y-143689711D01*
X72660609Y-143820814D01*
X72660602Y-143820827D01*
X72600264Y-143966498D01*
X72600261Y-143966510D01*
X72569500Y-144121153D01*
X45500500Y-144121153D01*
X45500500Y-143115756D01*
X80799124Y-143115756D01*
X80799124Y-143273449D01*
X80829885Y-143428092D01*
X80829888Y-143428104D01*
X80890226Y-143573775D01*
X80890233Y-143573788D01*
X80977834Y-143704891D01*
X80977837Y-143704895D01*
X81089331Y-143816389D01*
X81089335Y-143816392D01*
X81220438Y-143903993D01*
X81220451Y-143904000D01*
X81366122Y-143964338D01*
X81366127Y-143964340D01*
X81520777Y-143995102D01*
X81520780Y-143995103D01*
X81520782Y-143995103D01*
X81678468Y-143995103D01*
X81678469Y-143995102D01*
X81833121Y-143964340D01*
X81978803Y-143903997D01*
X81978805Y-143903995D01*
X81983958Y-143901861D01*
X82053428Y-143894392D01*
X82078857Y-143901859D01*
X82165690Y-143937826D01*
X82298974Y-143964338D01*
X82320340Y-143968588D01*
X82320343Y-143968589D01*
X82320345Y-143968589D01*
X82478031Y-143968589D01*
X82478032Y-143968588D01*
X82632684Y-143937826D01*
X82765624Y-143882760D01*
X82835092Y-143875292D01*
X82860520Y-143882758D01*
X82965610Y-143926288D01*
X83120260Y-143957050D01*
X83120263Y-143957051D01*
X83120265Y-143957051D01*
X83277951Y-143957051D01*
X83277952Y-143957050D01*
X83432604Y-143926288D01*
X83563110Y-143872230D01*
X83632579Y-143864762D01*
X83658011Y-143872230D01*
X83765556Y-143916776D01*
X83871376Y-143937825D01*
X83920206Y-143947538D01*
X83920209Y-143947539D01*
X83920211Y-143947539D01*
X84077897Y-143947539D01*
X84077898Y-143947538D01*
X84232550Y-143916776D01*
X84378232Y-143856433D01*
X84509342Y-143768828D01*
X84620842Y-143657328D01*
X84708447Y-143526218D01*
X84768790Y-143380536D01*
X84799553Y-143225881D01*
X84799553Y-143068197D01*
X84799553Y-143068194D01*
X84799552Y-143068192D01*
X84768790Y-142913542D01*
X84763388Y-142900500D01*
X84708450Y-142767866D01*
X84708443Y-142767853D01*
X84620842Y-142636750D01*
X84620839Y-142636746D01*
X84509345Y-142525252D01*
X84509341Y-142525249D01*
X84378238Y-142437648D01*
X84378225Y-142437641D01*
X84232554Y-142377303D01*
X84232542Y-142377300D01*
X84077898Y-142346539D01*
X84077895Y-142346539D01*
X83920211Y-142346539D01*
X83920208Y-142346539D01*
X83765563Y-142377300D01*
X83765551Y-142377303D01*
X83635050Y-142431358D01*
X83565581Y-142438827D01*
X83540146Y-142431358D01*
X83432608Y-142386815D01*
X83432596Y-142386812D01*
X83277952Y-142356051D01*
X83277949Y-142356051D01*
X83120265Y-142356051D01*
X83120262Y-142356051D01*
X82965617Y-142386812D01*
X82965605Y-142386815D01*
X82832671Y-142441878D01*
X82763202Y-142449347D01*
X82737767Y-142441878D01*
X82632688Y-142398353D01*
X82632676Y-142398350D01*
X82478032Y-142367589D01*
X82478029Y-142367589D01*
X82320345Y-142367589D01*
X82320342Y-142367589D01*
X82165697Y-142398350D01*
X82165685Y-142398353D01*
X82014852Y-142460830D01*
X81945383Y-142468299D01*
X81919948Y-142460830D01*
X81833125Y-142424867D01*
X81833113Y-142424864D01*
X81678469Y-142394103D01*
X81678466Y-142394103D01*
X81520782Y-142394103D01*
X81520779Y-142394103D01*
X81366134Y-142424864D01*
X81366122Y-142424867D01*
X81220451Y-142485205D01*
X81220438Y-142485212D01*
X81089335Y-142572813D01*
X81089331Y-142572816D01*
X80977837Y-142684310D01*
X80977834Y-142684314D01*
X80890233Y-142815417D01*
X80890226Y-142815430D01*
X80829888Y-142961101D01*
X80829885Y-142961113D01*
X80799124Y-143115756D01*
X45500500Y-143115756D01*
X45500500Y-142021153D01*
X108689500Y-142021153D01*
X108689500Y-142178846D01*
X108720261Y-142333489D01*
X108720264Y-142333501D01*
X108780602Y-142479172D01*
X108780609Y-142479185D01*
X108868210Y-142610288D01*
X108868213Y-142610292D01*
X108979707Y-142721786D01*
X108979711Y-142721789D01*
X109110814Y-142809390D01*
X109110827Y-142809397D01*
X109256498Y-142869735D01*
X109256503Y-142869737D01*
X109411153Y-142900499D01*
X109411156Y-142900500D01*
X109411158Y-142900500D01*
X109568844Y-142900500D01*
X109568845Y-142900499D01*
X109723497Y-142869737D01*
X109869179Y-142809394D01*
X110000289Y-142721789D01*
X110111789Y-142610289D01*
X110199394Y-142479179D01*
X110259737Y-142333497D01*
X110290500Y-142178842D01*
X110290500Y-142021158D01*
X110290500Y-142021155D01*
X110290499Y-142021153D01*
X110259738Y-141866510D01*
X110259737Y-141866503D01*
X110259735Y-141866498D01*
X110199397Y-141720827D01*
X110199390Y-141720814D01*
X110111789Y-141589711D01*
X110111786Y-141589707D01*
X110000292Y-141478213D01*
X110000288Y-141478210D01*
X109869185Y-141390609D01*
X109869172Y-141390602D01*
X109723501Y-141330264D01*
X109723489Y-141330261D01*
X109568845Y-141299500D01*
X109568842Y-141299500D01*
X109411158Y-141299500D01*
X109411155Y-141299500D01*
X109256510Y-141330261D01*
X109256498Y-141330264D01*
X109110827Y-141390602D01*
X109110814Y-141390609D01*
X108979711Y-141478210D01*
X108979707Y-141478213D01*
X108868213Y-141589707D01*
X108868210Y-141589711D01*
X108780609Y-141720814D01*
X108780602Y-141720827D01*
X108720264Y-141866498D01*
X108720261Y-141866510D01*
X108689500Y-142021153D01*
X45500500Y-142021153D01*
X45500500Y-133688575D01*
X46600000Y-133688575D01*
X46600000Y-133911424D01*
X46629085Y-134132354D01*
X46629088Y-134132367D01*
X46686763Y-134347618D01*
X46772045Y-134553502D01*
X46772054Y-134553520D01*
X46883464Y-134746491D01*
X46883473Y-134746504D01*
X46934040Y-134812403D01*
X46934043Y-134812403D01*
X47584152Y-134162293D01*
X47591049Y-134178942D01*
X47678599Y-134309970D01*
X47790030Y-134421401D01*
X47921058Y-134508951D01*
X47937705Y-134515846D01*
X47287595Y-135165955D01*
X47287595Y-135165956D01*
X47353507Y-135216533D01*
X47546485Y-135327949D01*
X47546497Y-135327954D01*
X47752381Y-135413236D01*
X47967632Y-135470911D01*
X47967645Y-135470914D01*
X48188575Y-135500000D01*
X48411425Y-135500000D01*
X48632354Y-135470914D01*
X48632367Y-135470911D01*
X48847618Y-135413236D01*
X49053502Y-135327954D01*
X49053520Y-135327945D01*
X49246490Y-135216535D01*
X49258327Y-135207453D01*
X49323495Y-135182256D01*
X49391941Y-135196292D01*
X49441932Y-135245104D01*
X49457598Y-135313195D01*
X49433964Y-135378946D01*
X49432195Y-135381309D01*
X49423061Y-135393212D01*
X49423052Y-135393226D01*
X49311595Y-135586273D01*
X49311593Y-135586277D01*
X49226293Y-135792209D01*
X49226290Y-135792219D01*
X49181025Y-135961153D01*
X49168597Y-136007534D01*
X49168594Y-136007547D01*
X49139501Y-136228533D01*
X49139500Y-136228549D01*
X49139500Y-136451450D01*
X49139501Y-136451466D01*
X49168594Y-136672452D01*
X49168595Y-136672457D01*
X49168596Y-136672463D01*
X49185466Y-136735423D01*
X49226290Y-136887780D01*
X49226293Y-136887790D01*
X49311593Y-137093722D01*
X49311595Y-137093726D01*
X49423052Y-137286774D01*
X49432193Y-137298687D01*
X49457387Y-137363856D01*
X49443349Y-137432300D01*
X49394535Y-137482290D01*
X49326444Y-137497954D01*
X49260693Y-137474317D01*
X49258331Y-137472549D01*
X49246493Y-137463465D01*
X49246491Y-137463464D01*
X49053520Y-137352054D01*
X49053502Y-137352045D01*
X48847618Y-137266763D01*
X48632367Y-137209088D01*
X48632354Y-137209085D01*
X48411425Y-137180000D01*
X48188575Y-137180000D01*
X47967645Y-137209085D01*
X47967632Y-137209088D01*
X47752381Y-137266763D01*
X47546497Y-137352045D01*
X47546479Y-137352054D01*
X47353511Y-137463462D01*
X47287595Y-137514042D01*
X47937706Y-138164152D01*
X47921058Y-138171049D01*
X47790030Y-138258599D01*
X47678599Y-138370030D01*
X47591049Y-138501058D01*
X47584153Y-138517706D01*
X46934042Y-137867595D01*
X46883462Y-137933511D01*
X46772054Y-138126479D01*
X46772045Y-138126497D01*
X46686763Y-138332381D01*
X46629088Y-138547632D01*
X46629085Y-138547645D01*
X46600000Y-138768575D01*
X46600000Y-138991424D01*
X46629085Y-139212354D01*
X46629088Y-139212367D01*
X46686763Y-139427618D01*
X46772045Y-139633502D01*
X46772054Y-139633520D01*
X46883464Y-139826491D01*
X46883473Y-139826504D01*
X46934040Y-139892403D01*
X46934043Y-139892403D01*
X47584152Y-139242293D01*
X47591049Y-139258942D01*
X47678599Y-139389970D01*
X47790030Y-139501401D01*
X47921058Y-139588951D01*
X47937705Y-139595846D01*
X47287595Y-140245955D01*
X47287595Y-140245956D01*
X47353507Y-140296533D01*
X47546485Y-140407949D01*
X47546497Y-140407954D01*
X47752381Y-140493236D01*
X47967632Y-140550911D01*
X47967645Y-140550914D01*
X48188575Y-140580000D01*
X48411425Y-140580000D01*
X48632354Y-140550914D01*
X48632367Y-140550911D01*
X48847618Y-140493236D01*
X49053502Y-140407954D01*
X49053514Y-140407949D01*
X49246498Y-140296530D01*
X49312403Y-140245957D01*
X49312404Y-140245956D01*
X48662294Y-139595846D01*
X48678942Y-139588951D01*
X48809970Y-139501401D01*
X48921401Y-139389970D01*
X49008951Y-139258942D01*
X49015846Y-139242293D01*
X49665956Y-139892404D01*
X49665957Y-139892403D01*
X49716530Y-139826498D01*
X49827949Y-139633514D01*
X49827954Y-139633502D01*
X49913236Y-139427618D01*
X49970911Y-139212367D01*
X49970914Y-139212354D01*
X50000000Y-138991424D01*
X50000000Y-138768575D01*
X49970914Y-138547645D01*
X49970911Y-138547632D01*
X49913236Y-138332381D01*
X49827954Y-138126497D01*
X49827945Y-138126479D01*
X49716535Y-137933508D01*
X49716533Y-137933504D01*
X49707451Y-137921669D01*
X49682256Y-137856500D01*
X49696294Y-137788055D01*
X49745108Y-137738065D01*
X49813199Y-137722401D01*
X49878949Y-137746037D01*
X49881279Y-137747781D01*
X49893226Y-137756948D01*
X50086274Y-137868405D01*
X50187898Y-137910499D01*
X50243444Y-137933507D01*
X50292219Y-137953710D01*
X50507537Y-138011404D01*
X50728543Y-138040500D01*
X50728550Y-138040500D01*
X50951450Y-138040500D01*
X50951457Y-138040500D01*
X51172463Y-138011404D01*
X51387781Y-137953710D01*
X51593726Y-137868405D01*
X51786774Y-137756948D01*
X51798686Y-137747807D01*
X51863850Y-137722612D01*
X51932296Y-137736648D01*
X51982288Y-137785460D01*
X51997954Y-137853550D01*
X51974321Y-137919302D01*
X51972552Y-137921665D01*
X51963463Y-137933510D01*
X51852054Y-138126479D01*
X51852045Y-138126497D01*
X51766763Y-138332381D01*
X51709088Y-138547632D01*
X51709085Y-138547645D01*
X51680000Y-138768575D01*
X51680000Y-138991424D01*
X51709085Y-139212354D01*
X51709088Y-139212367D01*
X51766763Y-139427618D01*
X51852045Y-139633502D01*
X51852054Y-139633520D01*
X51963464Y-139826491D01*
X51963473Y-139826504D01*
X52014040Y-139892403D01*
X52014043Y-139892403D01*
X52664152Y-139242293D01*
X52671049Y-139258942D01*
X52758599Y-139389970D01*
X52870030Y-139501401D01*
X53001058Y-139588951D01*
X53017705Y-139595846D01*
X52367595Y-140245955D01*
X52367595Y-140245956D01*
X52433507Y-140296533D01*
X52626485Y-140407949D01*
X52626497Y-140407954D01*
X52832381Y-140493236D01*
X53047632Y-140550911D01*
X53047645Y-140550914D01*
X53268575Y-140580000D01*
X53491425Y-140580000D01*
X53712354Y-140550914D01*
X53712367Y-140550911D01*
X53927618Y-140493236D01*
X54133502Y-140407954D01*
X54133514Y-140407949D01*
X54326498Y-140296530D01*
X54392403Y-140245957D01*
X54392404Y-140245956D01*
X53742294Y-139595846D01*
X53758942Y-139588951D01*
X53889970Y-139501401D01*
X54001401Y-139389970D01*
X54088951Y-139258942D01*
X54095846Y-139242294D01*
X54745956Y-139892404D01*
X54745957Y-139892403D01*
X54796530Y-139826498D01*
X54907949Y-139633514D01*
X54907954Y-139633502D01*
X54993236Y-139427618D01*
X55050911Y-139212367D01*
X55050914Y-139212354D01*
X55080000Y-138991424D01*
X55080000Y-138768575D01*
X55050914Y-138547645D01*
X55050911Y-138547632D01*
X54993235Y-138332378D01*
X54980883Y-138302558D01*
X54980867Y-138302520D01*
X54963732Y-138261153D01*
X108789500Y-138261153D01*
X108789500Y-138418846D01*
X108820261Y-138573489D01*
X108820264Y-138573501D01*
X108880602Y-138719172D01*
X108880609Y-138719185D01*
X108968210Y-138850288D01*
X108968213Y-138850292D01*
X109079707Y-138961786D01*
X109079711Y-138961789D01*
X109210814Y-139049390D01*
X109210827Y-139049397D01*
X109356498Y-139109735D01*
X109356503Y-139109737D01*
X109511153Y-139140499D01*
X109511156Y-139140500D01*
X109511158Y-139140500D01*
X109668844Y-139140500D01*
X109668845Y-139140499D01*
X109823497Y-139109737D01*
X109969179Y-139049394D01*
X110100289Y-138961789D01*
X110211789Y-138850289D01*
X110299394Y-138719179D01*
X110359737Y-138573497D01*
X110390500Y-138418842D01*
X110390500Y-138261158D01*
X110390500Y-138261155D01*
X110390499Y-138261153D01*
X110363713Y-138126492D01*
X110359737Y-138106503D01*
X110332397Y-138040498D01*
X110299397Y-137960827D01*
X110299390Y-137960814D01*
X110211789Y-137829711D01*
X110211786Y-137829707D01*
X110100292Y-137718213D01*
X110100288Y-137718210D01*
X109969185Y-137630609D01*
X109969172Y-137630602D01*
X109823501Y-137570264D01*
X109823489Y-137570261D01*
X109668845Y-137539500D01*
X109668842Y-137539500D01*
X109511158Y-137539500D01*
X109511155Y-137539500D01*
X109356510Y-137570261D01*
X109356498Y-137570264D01*
X109210827Y-137630602D01*
X109210814Y-137630609D01*
X109079711Y-137718210D01*
X109079707Y-137718213D01*
X108968213Y-137829707D01*
X108968210Y-137829711D01*
X108880609Y-137960814D01*
X108880602Y-137960827D01*
X108820264Y-138106498D01*
X108820261Y-138106510D01*
X108789500Y-138261153D01*
X54963732Y-138261153D01*
X54907952Y-138126492D01*
X54907949Y-138126485D01*
X54796533Y-137933507D01*
X54745956Y-137867595D01*
X54745955Y-137867595D01*
X54095846Y-138517704D01*
X54088951Y-138501058D01*
X54001401Y-138370030D01*
X53889970Y-138258599D01*
X53758942Y-138171049D01*
X53742293Y-138164152D01*
X54392403Y-137514043D01*
X54392403Y-137514040D01*
X54326504Y-137463473D01*
X54326491Y-137463464D01*
X54133520Y-137352054D01*
X54133502Y-137352045D01*
X53927618Y-137266763D01*
X53712367Y-137209088D01*
X53712354Y-137209085D01*
X53491425Y-137180000D01*
X53268575Y-137180000D01*
X53047645Y-137209085D01*
X53047632Y-137209088D01*
X52832381Y-137266763D01*
X52626497Y-137352045D01*
X52626479Y-137352054D01*
X52433510Y-137463463D01*
X52421665Y-137472552D01*
X52356495Y-137497743D01*
X52288050Y-137483703D01*
X52238062Y-137434887D01*
X52222402Y-137366795D01*
X52246040Y-137301045D01*
X52247740Y-137298774D01*
X52256948Y-137286774D01*
X52368405Y-137093726D01*
X52453710Y-136887781D01*
X52494535Y-136735418D01*
X60605235Y-136735418D01*
X60605235Y-136893111D01*
X60635996Y-137047754D01*
X60635999Y-137047766D01*
X60696337Y-137193437D01*
X60696344Y-137193450D01*
X60783945Y-137324553D01*
X60783948Y-137324557D01*
X60895442Y-137436051D01*
X60895446Y-137436054D01*
X61026549Y-137523655D01*
X61026562Y-137523662D01*
X61139071Y-137570264D01*
X61172238Y-137584002D01*
X61326888Y-137614764D01*
X61326891Y-137614765D01*
X61326893Y-137614765D01*
X61484579Y-137614765D01*
X61484580Y-137614764D01*
X61639232Y-137584002D01*
X61784914Y-137523659D01*
X61916024Y-137436054D01*
X62027524Y-137324554D01*
X62115129Y-137193444D01*
X62175472Y-137047762D01*
X62206235Y-136893107D01*
X62206235Y-136735423D01*
X62206235Y-136735420D01*
X62206234Y-136735418D01*
X62195470Y-136681305D01*
X62175472Y-136580768D01*
X62160045Y-136543524D01*
X62115132Y-136435092D01*
X62115125Y-136435079D01*
X62027524Y-136303976D01*
X62027521Y-136303972D01*
X61916027Y-136192478D01*
X61916023Y-136192475D01*
X61784920Y-136104874D01*
X61784907Y-136104867D01*
X61639236Y-136044529D01*
X61639224Y-136044526D01*
X61484580Y-136013765D01*
X61484577Y-136013765D01*
X61326893Y-136013765D01*
X61326890Y-136013765D01*
X61172245Y-136044526D01*
X61172233Y-136044529D01*
X61026562Y-136104867D01*
X61026549Y-136104874D01*
X60895446Y-136192475D01*
X60895442Y-136192478D01*
X60783948Y-136303972D01*
X60783945Y-136303976D01*
X60696344Y-136435079D01*
X60696337Y-136435092D01*
X60635999Y-136580763D01*
X60635996Y-136580775D01*
X60605235Y-136735418D01*
X52494535Y-136735418D01*
X52511404Y-136672463D01*
X52540500Y-136451457D01*
X52540500Y-136228543D01*
X52511404Y-136007537D01*
X52453710Y-135792219D01*
X52382852Y-135621153D01*
X64239500Y-135621153D01*
X64239500Y-135778846D01*
X64270261Y-135933489D01*
X64270264Y-135933501D01*
X64330602Y-136079172D01*
X64330609Y-136079185D01*
X64418210Y-136210288D01*
X64418213Y-136210292D01*
X64529707Y-136321786D01*
X64529711Y-136321789D01*
X64660814Y-136409390D01*
X64660827Y-136409397D01*
X64806498Y-136469735D01*
X64806503Y-136469737D01*
X64961153Y-136500499D01*
X64961156Y-136500500D01*
X64961158Y-136500500D01*
X65118844Y-136500500D01*
X65118845Y-136500499D01*
X65273497Y-136469737D01*
X65419179Y-136409394D01*
X65550289Y-136321789D01*
X65661789Y-136210289D01*
X65749394Y-136079179D01*
X65798282Y-135961153D01*
X77659500Y-135961153D01*
X77659500Y-136118846D01*
X77690261Y-136273489D01*
X77690264Y-136273501D01*
X77750602Y-136419172D01*
X77750609Y-136419185D01*
X77833690Y-136543524D01*
X77854568Y-136610202D01*
X77836083Y-136677582D01*
X77833691Y-136681305D01*
X77800608Y-136730817D01*
X77800602Y-136730828D01*
X77740264Y-136876498D01*
X77740261Y-136876510D01*
X77709500Y-137031153D01*
X77709500Y-137188846D01*
X77740261Y-137343489D01*
X77740264Y-137343501D01*
X77800602Y-137489172D01*
X77800609Y-137489185D01*
X77888210Y-137620288D01*
X77888213Y-137620292D01*
X77999707Y-137731786D01*
X77999711Y-137731789D01*
X78130814Y-137819390D01*
X78130827Y-137819397D01*
X78249145Y-137868405D01*
X78276503Y-137879737D01*
X78431153Y-137910499D01*
X78431156Y-137910500D01*
X78431158Y-137910500D01*
X78588844Y-137910500D01*
X78588845Y-137910499D01*
X78743497Y-137879737D01*
X78889179Y-137819394D01*
X79020289Y-137731789D01*
X79131789Y-137620289D01*
X79219394Y-137489179D01*
X79222248Y-137482290D01*
X79242954Y-137432300D01*
X79279737Y-137343497D01*
X79310500Y-137188842D01*
X79310500Y-137031158D01*
X79310500Y-137031155D01*
X79310499Y-137031153D01*
X79279737Y-136876503D01*
X79279735Y-136876498D01*
X79219397Y-136730827D01*
X79219390Y-136730814D01*
X79136309Y-136606475D01*
X79115431Y-136539797D01*
X79133915Y-136472417D01*
X79136309Y-136468693D01*
X79169394Y-136419179D01*
X79229737Y-136273497D01*
X79260500Y-136118842D01*
X79260500Y-135961158D01*
X79260500Y-135961155D01*
X79260499Y-135961153D01*
X79229738Y-135806510D01*
X79229737Y-135806503D01*
X79229735Y-135806498D01*
X79169397Y-135660827D01*
X79169390Y-135660814D01*
X79081789Y-135529711D01*
X79081786Y-135529707D01*
X78970292Y-135418213D01*
X78970288Y-135418210D01*
X78839185Y-135330609D01*
X78839172Y-135330602D01*
X78693501Y-135270264D01*
X78693489Y-135270261D01*
X78538845Y-135239500D01*
X78538842Y-135239500D01*
X78381158Y-135239500D01*
X78381155Y-135239500D01*
X78226510Y-135270261D01*
X78226498Y-135270264D01*
X78080827Y-135330602D01*
X78080814Y-135330609D01*
X77949711Y-135418210D01*
X77949707Y-135418213D01*
X77838213Y-135529707D01*
X77838210Y-135529711D01*
X77750609Y-135660814D01*
X77750602Y-135660827D01*
X77690264Y-135806498D01*
X77690261Y-135806510D01*
X77659500Y-135961153D01*
X65798282Y-135961153D01*
X65809737Y-135933497D01*
X65818478Y-135889550D01*
X65840500Y-135778844D01*
X65840500Y-135621155D01*
X65840499Y-135621153D01*
X65810614Y-135470914D01*
X65809737Y-135466503D01*
X65773470Y-135378946D01*
X65749397Y-135320827D01*
X65749390Y-135320814D01*
X65661789Y-135189711D01*
X65661786Y-135189707D01*
X65550292Y-135078213D01*
X65550288Y-135078210D01*
X65419185Y-134990609D01*
X65419172Y-134990602D01*
X65273501Y-134930264D01*
X65273489Y-134930261D01*
X65118845Y-134899500D01*
X65118842Y-134899500D01*
X64961158Y-134899500D01*
X64961155Y-134899500D01*
X64806510Y-134930261D01*
X64806498Y-134930264D01*
X64660827Y-134990602D01*
X64660814Y-134990609D01*
X64529711Y-135078210D01*
X64529707Y-135078213D01*
X64418213Y-135189707D01*
X64418210Y-135189711D01*
X64330609Y-135320814D01*
X64330602Y-135320827D01*
X64270264Y-135466498D01*
X64270261Y-135466510D01*
X64239500Y-135621153D01*
X52382852Y-135621153D01*
X52368405Y-135586274D01*
X52256948Y-135393226D01*
X52247806Y-135381312D01*
X52222612Y-135316145D01*
X52236650Y-135247700D01*
X52285463Y-135197709D01*
X52353554Y-135182045D01*
X52419305Y-135205681D01*
X52421669Y-135207451D01*
X52433504Y-135216533D01*
X52433508Y-135216535D01*
X52626479Y-135327945D01*
X52626497Y-135327954D01*
X52832381Y-135413236D01*
X53047632Y-135470911D01*
X53047645Y-135470914D01*
X53268575Y-135500000D01*
X53491425Y-135500000D01*
X53551227Y-135492127D01*
X53712354Y-135470914D01*
X53712367Y-135470911D01*
X53927618Y-135413236D01*
X54133502Y-135327954D01*
X54133514Y-135327949D01*
X54326498Y-135216530D01*
X54392403Y-135165957D01*
X54392404Y-135165956D01*
X53742293Y-134515846D01*
X53758942Y-134508951D01*
X53889970Y-134421401D01*
X54001401Y-134309970D01*
X54088951Y-134178942D01*
X54095846Y-134162294D01*
X54745956Y-134812404D01*
X54745957Y-134812403D01*
X54796530Y-134746498D01*
X54907949Y-134553514D01*
X54907954Y-134553502D01*
X54993236Y-134347618D01*
X55050911Y-134132367D01*
X55050914Y-134132354D01*
X55080000Y-133911424D01*
X55080000Y-133688575D01*
X55050914Y-133467645D01*
X55050911Y-133467632D01*
X54993236Y-133252381D01*
X54907954Y-133046497D01*
X54907949Y-133046485D01*
X54796533Y-132853507D01*
X54745956Y-132787595D01*
X54745955Y-132787595D01*
X54095846Y-133437704D01*
X54088951Y-133421058D01*
X54001401Y-133290030D01*
X53889970Y-133178599D01*
X53758942Y-133091049D01*
X53742293Y-133084152D01*
X54392403Y-132434043D01*
X54392403Y-132434040D01*
X54326504Y-132383473D01*
X54326491Y-132383464D01*
X54133520Y-132272054D01*
X54133502Y-132272045D01*
X53927618Y-132186763D01*
X53712367Y-132129088D01*
X53712354Y-132129085D01*
X53491425Y-132100000D01*
X53268575Y-132100000D01*
X53047645Y-132129085D01*
X53047632Y-132129088D01*
X52832381Y-132186763D01*
X52626497Y-132272045D01*
X52626479Y-132272054D01*
X52433511Y-132383462D01*
X52367595Y-132434042D01*
X53017706Y-133084152D01*
X53001058Y-133091049D01*
X52870030Y-133178599D01*
X52758599Y-133290030D01*
X52671049Y-133421058D01*
X52664152Y-133437706D01*
X52014042Y-132787595D01*
X51963462Y-132853511D01*
X51852054Y-133046479D01*
X51852045Y-133046497D01*
X51766763Y-133252381D01*
X51709088Y-133467632D01*
X51709085Y-133467645D01*
X51680000Y-133688575D01*
X51680000Y-133911424D01*
X51709085Y-134132354D01*
X51709088Y-134132367D01*
X51766763Y-134347618D01*
X51852045Y-134553502D01*
X51852054Y-134553520D01*
X51963464Y-134746491D01*
X51963465Y-134746493D01*
X51972549Y-134758331D01*
X51997743Y-134823500D01*
X51983704Y-134891945D01*
X51934890Y-134941935D01*
X51866799Y-134957598D01*
X51801049Y-134933961D01*
X51798689Y-134932195D01*
X51786774Y-134923052D01*
X51593726Y-134811595D01*
X51593722Y-134811593D01*
X51387790Y-134726293D01*
X51387783Y-134726291D01*
X51387781Y-134726290D01*
X51172463Y-134668596D01*
X51172457Y-134668595D01*
X51172452Y-134668594D01*
X50951466Y-134639501D01*
X50951463Y-134639500D01*
X50951457Y-134639500D01*
X50728543Y-134639500D01*
X50728537Y-134639500D01*
X50728533Y-134639501D01*
X50507547Y-134668594D01*
X50507540Y-134668595D01*
X50507537Y-134668596D01*
X50292219Y-134726290D01*
X50292209Y-134726293D01*
X50086277Y-134811593D01*
X50086273Y-134811595D01*
X49893226Y-134923052D01*
X49893212Y-134923061D01*
X49881309Y-134932195D01*
X49816140Y-134957387D01*
X49747695Y-134943347D01*
X49697707Y-134894531D01*
X49682046Y-134826440D01*
X49705684Y-134760690D01*
X49707453Y-134758327D01*
X49716535Y-134746490D01*
X49827945Y-134553520D01*
X49827954Y-134553502D01*
X49913236Y-134347618D01*
X49970911Y-134132367D01*
X49970914Y-134132354D01*
X50000000Y-133911424D01*
X50000000Y-133688575D01*
X49970914Y-133467645D01*
X49970911Y-133467632D01*
X49913236Y-133252381D01*
X49827954Y-133046497D01*
X49827949Y-133046485D01*
X49716533Y-132853507D01*
X49665956Y-132787595D01*
X49665955Y-132787595D01*
X49015846Y-133437705D01*
X49008951Y-133421058D01*
X48921401Y-133290030D01*
X48809970Y-133178599D01*
X48678942Y-133091049D01*
X48662293Y-133084152D01*
X49312403Y-132434043D01*
X49312403Y-132434041D01*
X49246504Y-132383473D01*
X49246491Y-132383464D01*
X49053520Y-132272054D01*
X49053502Y-132272045D01*
X48847618Y-132186763D01*
X48632367Y-132129088D01*
X48632354Y-132129085D01*
X48411425Y-132100000D01*
X48188575Y-132100000D01*
X47967645Y-132129085D01*
X47967632Y-132129088D01*
X47752381Y-132186763D01*
X47546497Y-132272045D01*
X47546479Y-132272054D01*
X47353511Y-132383462D01*
X47287595Y-132434042D01*
X47937706Y-133084152D01*
X47921058Y-133091049D01*
X47790030Y-133178599D01*
X47678599Y-133290030D01*
X47591049Y-133421058D01*
X47584153Y-133437706D01*
X46934042Y-132787595D01*
X46883462Y-132853511D01*
X46772054Y-133046479D01*
X46772045Y-133046497D01*
X46686763Y-133252381D01*
X46629088Y-133467632D01*
X46629085Y-133467645D01*
X46600000Y-133688575D01*
X45500500Y-133688575D01*
X45500500Y-128421153D01*
X57009500Y-128421153D01*
X57009500Y-128578846D01*
X57040261Y-128733489D01*
X57040264Y-128733501D01*
X57100602Y-128879172D01*
X57100609Y-128879185D01*
X57188210Y-129010288D01*
X57188213Y-129010292D01*
X57299707Y-129121786D01*
X57299711Y-129121789D01*
X57430814Y-129209390D01*
X57430827Y-129209397D01*
X57543720Y-129256158D01*
X57576503Y-129269737D01*
X57731153Y-129300499D01*
X57731156Y-129300500D01*
X57731158Y-129300500D01*
X57888844Y-129300500D01*
X57888845Y-129300499D01*
X58043497Y-129269737D01*
X58076292Y-129256153D01*
X73244500Y-129256153D01*
X73244500Y-129413846D01*
X73275261Y-129568489D01*
X73275264Y-129568501D01*
X73335602Y-129714172D01*
X73335609Y-129714185D01*
X73423210Y-129845288D01*
X73423213Y-129845292D01*
X73534707Y-129956786D01*
X73534711Y-129956789D01*
X73665814Y-130044390D01*
X73665827Y-130044397D01*
X73773138Y-130088846D01*
X73811503Y-130104737D01*
X73966153Y-130135499D01*
X73966156Y-130135500D01*
X73966158Y-130135500D01*
X74123844Y-130135500D01*
X74123845Y-130135499D01*
X74278497Y-130104737D01*
X74424179Y-130044394D01*
X74555289Y-129956789D01*
X74580925Y-129931153D01*
X98649500Y-129931153D01*
X98649500Y-130088846D01*
X98680261Y-130243489D01*
X98680264Y-130243501D01*
X98740602Y-130389172D01*
X98740609Y-130389185D01*
X98828210Y-130520288D01*
X98828213Y-130520292D01*
X98939707Y-130631786D01*
X98939711Y-130631789D01*
X99070814Y-130719390D01*
X99070827Y-130719397D01*
X99216498Y-130779735D01*
X99216503Y-130779737D01*
X99371153Y-130810499D01*
X99371156Y-130810500D01*
X99371158Y-130810500D01*
X99528844Y-130810500D01*
X99528845Y-130810499D01*
X99683497Y-130779737D01*
X99829179Y-130719394D01*
X99960289Y-130631789D01*
X100043208Y-130548869D01*
X100104529Y-130515385D01*
X100174220Y-130520369D01*
X100178340Y-130521990D01*
X100243238Y-130548871D01*
X100281475Y-130564709D01*
X100436125Y-130595471D01*
X100436128Y-130595472D01*
X100436130Y-130595472D01*
X100593816Y-130595472D01*
X100593817Y-130595471D01*
X100748469Y-130564709D01*
X100894151Y-130504366D01*
X101025261Y-130416761D01*
X101136761Y-130305261D01*
X101224366Y-130174151D01*
X101284709Y-130028469D01*
X101315472Y-129873814D01*
X101315472Y-129716130D01*
X101315472Y-129716127D01*
X101315471Y-129716125D01*
X101298501Y-129630814D01*
X101284709Y-129561475D01*
X101259124Y-129499707D01*
X101224369Y-129415799D01*
X101224362Y-129415786D01*
X101136761Y-129284683D01*
X101136758Y-129284679D01*
X101025264Y-129173185D01*
X101025260Y-129173182D01*
X100894157Y-129085581D01*
X100894144Y-129085574D01*
X100748473Y-129025236D01*
X100748461Y-129025233D01*
X100593817Y-128994472D01*
X100593814Y-128994472D01*
X100436130Y-128994472D01*
X100436127Y-128994472D01*
X100281482Y-129025233D01*
X100281470Y-129025236D01*
X100135799Y-129085574D01*
X100135786Y-129085581D01*
X100004683Y-129173182D01*
X99921763Y-129256102D01*
X99860439Y-129289586D01*
X99790748Y-129284602D01*
X99786630Y-129282981D01*
X99683501Y-129240264D01*
X99683489Y-129240261D01*
X99528845Y-129209500D01*
X99528842Y-129209500D01*
X99371158Y-129209500D01*
X99371155Y-129209500D01*
X99216510Y-129240261D01*
X99216498Y-129240264D01*
X99070827Y-129300602D01*
X99070814Y-129300609D01*
X98939711Y-129388210D01*
X98939707Y-129388213D01*
X98828213Y-129499707D01*
X98828210Y-129499711D01*
X98740609Y-129630814D01*
X98740602Y-129630827D01*
X98680264Y-129776498D01*
X98680261Y-129776510D01*
X98649500Y-129931153D01*
X74580925Y-129931153D01*
X74666789Y-129845289D01*
X74754394Y-129714179D01*
X74814737Y-129568497D01*
X74845500Y-129413842D01*
X74845500Y-129256158D01*
X74845500Y-129256155D01*
X74845499Y-129256153D01*
X74836219Y-129209500D01*
X74814737Y-129101503D01*
X74808139Y-129085574D01*
X74754397Y-128955827D01*
X74754390Y-128955814D01*
X74666789Y-128824711D01*
X74666786Y-128824707D01*
X74555292Y-128713213D01*
X74555288Y-128713210D01*
X74424185Y-128625609D01*
X74424172Y-128625602D01*
X74278501Y-128565264D01*
X74278489Y-128565261D01*
X74123845Y-128534500D01*
X74123842Y-128534500D01*
X73966158Y-128534500D01*
X73966155Y-128534500D01*
X73811510Y-128565261D01*
X73811498Y-128565264D01*
X73665827Y-128625602D01*
X73665814Y-128625609D01*
X73534711Y-128713210D01*
X73534707Y-128713213D01*
X73423213Y-128824707D01*
X73423210Y-128824711D01*
X73335609Y-128955814D01*
X73335602Y-128955827D01*
X73275264Y-129101498D01*
X73275261Y-129101510D01*
X73244500Y-129256153D01*
X58076292Y-129256153D01*
X58189179Y-129209394D01*
X58243373Y-129173183D01*
X58282613Y-129146964D01*
X58301521Y-129134328D01*
X58320289Y-129121789D01*
X58431789Y-129010289D01*
X58519394Y-128879179D01*
X58579737Y-128733497D01*
X58610500Y-128578842D01*
X58610500Y-128421158D01*
X58610500Y-128421155D01*
X58610499Y-128421153D01*
X58579738Y-128266510D01*
X58579737Y-128266503D01*
X58579735Y-128266498D01*
X58519397Y-128120827D01*
X58519390Y-128120814D01*
X58431789Y-127989711D01*
X58431786Y-127989707D01*
X58320292Y-127878213D01*
X58320288Y-127878210D01*
X58189185Y-127790609D01*
X58189172Y-127790602D01*
X58043501Y-127730264D01*
X58043489Y-127730261D01*
X57888845Y-127699500D01*
X57888842Y-127699500D01*
X57731158Y-127699500D01*
X57731155Y-127699500D01*
X57576510Y-127730261D01*
X57576498Y-127730264D01*
X57430827Y-127790602D01*
X57430814Y-127790609D01*
X57299711Y-127878210D01*
X57299707Y-127878213D01*
X57188213Y-127989707D01*
X57188210Y-127989711D01*
X57100609Y-128120814D01*
X57100602Y-128120827D01*
X57040264Y-128266498D01*
X57040261Y-128266510D01*
X57009500Y-128421153D01*
X45500500Y-128421153D01*
X45500500Y-126331153D01*
X96049500Y-126331153D01*
X96049500Y-126488846D01*
X96080261Y-126643489D01*
X96080264Y-126643501D01*
X96140602Y-126789172D01*
X96140609Y-126789185D01*
X96228210Y-126920288D01*
X96228213Y-126920292D01*
X96339707Y-127031786D01*
X96339711Y-127031789D01*
X96470814Y-127119390D01*
X96470827Y-127119397D01*
X96616498Y-127179735D01*
X96616503Y-127179737D01*
X96771153Y-127210499D01*
X96771156Y-127210500D01*
X96771158Y-127210500D01*
X96928844Y-127210500D01*
X96928845Y-127210499D01*
X97083497Y-127179737D01*
X97229179Y-127119394D01*
X97360289Y-127031789D01*
X97471789Y-126920289D01*
X97559394Y-126789179D01*
X97619737Y-126643497D01*
X97650500Y-126488842D01*
X97650500Y-126331158D01*
X97650500Y-126331155D01*
X97650499Y-126331153D01*
X97622358Y-126189680D01*
X97619737Y-126176503D01*
X97600202Y-126129340D01*
X97559397Y-126030827D01*
X97559390Y-126030814D01*
X97471789Y-125899711D01*
X97471786Y-125899707D01*
X97360292Y-125788213D01*
X97360288Y-125788210D01*
X97229185Y-125700609D01*
X97229172Y-125700602D01*
X97083501Y-125640264D01*
X97083489Y-125640261D01*
X96928845Y-125609500D01*
X96928842Y-125609500D01*
X96771158Y-125609500D01*
X96771155Y-125609500D01*
X96616510Y-125640261D01*
X96616498Y-125640264D01*
X96470827Y-125700602D01*
X96470814Y-125700609D01*
X96339711Y-125788210D01*
X96339707Y-125788213D01*
X96228213Y-125899707D01*
X96228210Y-125899711D01*
X96140609Y-126030814D01*
X96140602Y-126030827D01*
X96080264Y-126176498D01*
X96080261Y-126176510D01*
X96049500Y-126331153D01*
X45500500Y-126331153D01*
X45500500Y-125341096D01*
X102699500Y-125341096D01*
X102699500Y-125498789D01*
X102730261Y-125653432D01*
X102730264Y-125653444D01*
X102790602Y-125799115D01*
X102790609Y-125799128D01*
X102878210Y-125930231D01*
X102878213Y-125930235D01*
X102989707Y-126041729D01*
X102989711Y-126041732D01*
X103120814Y-126129333D01*
X103120827Y-126129340D01*
X103266498Y-126189678D01*
X103266503Y-126189680D01*
X103421153Y-126220442D01*
X103421156Y-126220443D01*
X103421158Y-126220443D01*
X103578844Y-126220443D01*
X103578845Y-126220442D01*
X103733497Y-126189680D01*
X103879179Y-126129337D01*
X104010289Y-126041732D01*
X104121789Y-125930232D01*
X104209394Y-125799122D01*
X104213914Y-125788211D01*
X104269735Y-125653444D01*
X104269737Y-125653440D01*
X104300500Y-125498785D01*
X104300500Y-125341101D01*
X104300500Y-125341098D01*
X104300499Y-125341096D01*
X104269738Y-125186453D01*
X104269737Y-125186446D01*
X104269735Y-125186441D01*
X104209397Y-125040770D01*
X104209390Y-125040757D01*
X104121789Y-124909654D01*
X104121786Y-124909650D01*
X104010292Y-124798156D01*
X104010288Y-124798153D01*
X103879185Y-124710552D01*
X103879172Y-124710545D01*
X103733501Y-124650207D01*
X103733489Y-124650204D01*
X103578845Y-124619443D01*
X103578842Y-124619443D01*
X103421158Y-124619443D01*
X103421155Y-124619443D01*
X103266510Y-124650204D01*
X103266498Y-124650207D01*
X103120827Y-124710545D01*
X103120814Y-124710552D01*
X102989711Y-124798153D01*
X102989707Y-124798156D01*
X102878213Y-124909650D01*
X102878210Y-124909654D01*
X102790609Y-125040757D01*
X102790602Y-125040770D01*
X102730264Y-125186441D01*
X102730261Y-125186453D01*
X102699500Y-125341096D01*
X45500500Y-125341096D01*
X45500500Y-122531153D01*
X58169500Y-122531153D01*
X58169500Y-122688846D01*
X58200261Y-122843489D01*
X58200264Y-122843501D01*
X58260602Y-122989172D01*
X58260609Y-122989185D01*
X58348210Y-123120288D01*
X58348213Y-123120292D01*
X58459707Y-123231786D01*
X58459711Y-123231789D01*
X58590814Y-123319390D01*
X58590827Y-123319397D01*
X58719842Y-123372836D01*
X58736503Y-123379737D01*
X58891153Y-123410499D01*
X58891156Y-123410500D01*
X58891158Y-123410500D01*
X59048844Y-123410500D01*
X59048845Y-123410499D01*
X59203497Y-123379737D01*
X59349179Y-123319394D01*
X59480289Y-123231789D01*
X59591789Y-123120289D01*
X59679394Y-122989179D01*
X59739737Y-122843497D01*
X59770500Y-122688842D01*
X59770500Y-122641153D01*
X71049500Y-122641153D01*
X71049500Y-122798846D01*
X71080261Y-122953489D01*
X71080264Y-122953501D01*
X71140602Y-123099172D01*
X71140609Y-123099185D01*
X71228210Y-123230288D01*
X71228213Y-123230292D01*
X71339707Y-123341786D01*
X71339711Y-123341789D01*
X71470814Y-123429390D01*
X71470827Y-123429397D01*
X71608683Y-123486498D01*
X71616503Y-123489737D01*
X71742714Y-123514842D01*
X71771153Y-123520499D01*
X71771156Y-123520500D01*
X71771158Y-123520500D01*
X71928844Y-123520500D01*
X71928845Y-123520499D01*
X72083497Y-123489737D01*
X72229179Y-123429394D01*
X72337295Y-123357153D01*
X91409500Y-123357153D01*
X91409500Y-123514846D01*
X91440261Y-123669489D01*
X91440264Y-123669501D01*
X91500602Y-123815172D01*
X91500609Y-123815185D01*
X91588210Y-123946288D01*
X91588213Y-123946292D01*
X91699707Y-124057786D01*
X91699711Y-124057789D01*
X91830814Y-124145390D01*
X91830827Y-124145397D01*
X91976498Y-124205735D01*
X91976503Y-124205737D01*
X92131153Y-124236499D01*
X92131156Y-124236500D01*
X92131158Y-124236500D01*
X92288844Y-124236500D01*
X92288845Y-124236499D01*
X92443497Y-124205737D01*
X92589179Y-124145394D01*
X92720289Y-124057789D01*
X92831789Y-123946289D01*
X92919394Y-123815179D01*
X92979737Y-123669497D01*
X92985375Y-123641153D01*
X96079500Y-123641153D01*
X96079500Y-123798846D01*
X96110261Y-123953489D01*
X96110264Y-123953501D01*
X96170602Y-124099172D01*
X96170609Y-124099185D01*
X96258210Y-124230288D01*
X96258213Y-124230292D01*
X96369707Y-124341786D01*
X96369711Y-124341789D01*
X96500814Y-124429390D01*
X96500827Y-124429397D01*
X96646498Y-124489735D01*
X96646503Y-124489737D01*
X96801153Y-124520499D01*
X96801156Y-124520500D01*
X96801158Y-124520500D01*
X96958844Y-124520500D01*
X96958845Y-124520499D01*
X97113497Y-124489737D01*
X97259179Y-124429394D01*
X97390289Y-124341789D01*
X97501789Y-124230289D01*
X97511440Y-124215845D01*
X102887706Y-124215845D01*
X103016652Y-124269257D01*
X103016656Y-124269258D01*
X103171202Y-124299999D01*
X103171206Y-124300000D01*
X103328794Y-124300000D01*
X103328797Y-124299999D01*
X103483343Y-124269258D01*
X103483347Y-124269257D01*
X103612293Y-124215845D01*
X104387706Y-124215845D01*
X104516652Y-124269257D01*
X104516656Y-124269258D01*
X104671202Y-124299999D01*
X104671206Y-124300000D01*
X104828794Y-124300000D01*
X104828797Y-124299999D01*
X104983343Y-124269258D01*
X104983347Y-124269257D01*
X105112293Y-124215845D01*
X104750001Y-123853553D01*
X104750000Y-123853553D01*
X104387706Y-124215845D01*
X103612293Y-124215845D01*
X103250001Y-123853553D01*
X103250000Y-123853553D01*
X102887706Y-124215845D01*
X97511440Y-124215845D01*
X97589394Y-124099179D01*
X97649737Y-123953497D01*
X97680500Y-123798842D01*
X97680500Y-123641158D01*
X97680500Y-123641155D01*
X97680499Y-123641153D01*
X97669323Y-123584968D01*
X97649737Y-123486503D01*
X97622689Y-123421202D01*
X102450000Y-123421202D01*
X102450000Y-123578797D01*
X102480741Y-123733343D01*
X102480743Y-123733351D01*
X102534153Y-123862293D01*
X102896446Y-123500001D01*
X102896446Y-123499999D01*
X102866610Y-123470163D01*
X103100000Y-123470163D01*
X103100000Y-123529837D01*
X103122836Y-123584968D01*
X103165032Y-123627164D01*
X103220163Y-123650000D01*
X103279837Y-123650000D01*
X103334968Y-123627164D01*
X103377164Y-123584968D01*
X103400000Y-123529837D01*
X103400000Y-123470163D01*
X103377164Y-123415032D01*
X103334968Y-123372836D01*
X103279837Y-123350000D01*
X103220163Y-123350000D01*
X103165032Y-123372836D01*
X103122836Y-123415032D01*
X103100000Y-123470163D01*
X102866610Y-123470163D01*
X102534153Y-123137705D01*
X102480743Y-123266648D01*
X102480741Y-123266656D01*
X102450000Y-123421202D01*
X97622689Y-123421202D01*
X97605514Y-123379738D01*
X97589397Y-123340827D01*
X97589390Y-123340814D01*
X97501789Y-123209711D01*
X97501786Y-123209707D01*
X97390292Y-123098213D01*
X97390288Y-123098210D01*
X97259185Y-123010609D01*
X97259172Y-123010602D01*
X97233574Y-122999999D01*
X103103553Y-122999999D01*
X103250000Y-123146446D01*
X103396446Y-123000001D01*
X103396446Y-123000000D01*
X103250000Y-122853553D01*
X103103553Y-122999999D01*
X97233574Y-122999999D01*
X97113501Y-122950264D01*
X97113489Y-122950261D01*
X96958845Y-122919500D01*
X96958842Y-122919500D01*
X96801158Y-122919500D01*
X96801155Y-122919500D01*
X96646510Y-122950261D01*
X96646498Y-122950264D01*
X96500827Y-123010602D01*
X96500814Y-123010609D01*
X96369711Y-123098210D01*
X96369707Y-123098213D01*
X96258213Y-123209707D01*
X96258210Y-123209711D01*
X96170609Y-123340814D01*
X96170602Y-123340827D01*
X96110264Y-123486498D01*
X96110261Y-123486510D01*
X96079500Y-123641153D01*
X92985375Y-123641153D01*
X92996551Y-123584968D01*
X93010500Y-123514844D01*
X93010500Y-123357155D01*
X93010499Y-123357153D01*
X93007442Y-123341786D01*
X92979737Y-123202503D01*
X92955162Y-123143175D01*
X92947694Y-123073708D01*
X92978969Y-123011228D01*
X93039058Y-122975576D01*
X93108883Y-122978069D01*
X93117163Y-122981157D01*
X93176503Y-123005737D01*
X93331153Y-123036499D01*
X93331156Y-123036500D01*
X93331158Y-123036500D01*
X93488844Y-123036500D01*
X93488845Y-123036499D01*
X93643497Y-123005737D01*
X93769607Y-122953501D01*
X93789172Y-122945397D01*
X93789172Y-122945396D01*
X93789179Y-122945394D01*
X93920289Y-122857789D01*
X94031789Y-122746289D01*
X94119394Y-122615179D01*
X94179737Y-122469497D01*
X94210500Y-122314842D01*
X94210500Y-122157158D01*
X94210500Y-122157155D01*
X94210499Y-122157153D01*
X94206631Y-122137706D01*
X94179737Y-122002503D01*
X94149574Y-121929683D01*
X101299500Y-121929683D01*
X101299500Y-122087376D01*
X101330261Y-122242019D01*
X101330264Y-122242031D01*
X101390602Y-122387702D01*
X101390609Y-122387715D01*
X101478210Y-122518818D01*
X101478213Y-122518822D01*
X101589707Y-122630316D01*
X101589711Y-122630319D01*
X101720814Y-122717920D01*
X101720827Y-122717927D01*
X101830241Y-122763247D01*
X101866503Y-122778267D01*
X102015824Y-122807969D01*
X102021153Y-122809029D01*
X102021156Y-122809030D01*
X102021158Y-122809030D01*
X102178844Y-122809030D01*
X102178845Y-122809029D01*
X102333497Y-122778267D01*
X102360498Y-122767082D01*
X102429966Y-122759613D01*
X102444806Y-122763247D01*
X102588477Y-122807969D01*
X102926283Y-122470163D01*
X103100000Y-122470163D01*
X103100000Y-122529837D01*
X103122836Y-122584968D01*
X103165032Y-122627164D01*
X103220163Y-122650000D01*
X103279837Y-122650000D01*
X103334968Y-122627164D01*
X103377164Y-122584968D01*
X103400000Y-122529837D01*
X103400000Y-122499999D01*
X103603553Y-122499999D01*
X103603553Y-122500000D01*
X103958417Y-122854864D01*
X103915032Y-122872836D01*
X103872836Y-122915032D01*
X103850000Y-122970163D01*
X103850000Y-123029837D01*
X103872836Y-123084968D01*
X103915032Y-123127164D01*
X103958416Y-123145134D01*
X103603553Y-123499999D01*
X103603553Y-123500000D01*
X103965845Y-123862292D01*
X103975808Y-123860311D01*
X104024191Y-123860311D01*
X104034154Y-123862292D01*
X104396446Y-123500001D01*
X104396446Y-123499999D01*
X104366610Y-123470163D01*
X104600000Y-123470163D01*
X104600000Y-123529837D01*
X104622836Y-123584968D01*
X104665032Y-123627164D01*
X104720163Y-123650000D01*
X104779837Y-123650000D01*
X104834968Y-123627164D01*
X104877164Y-123584968D01*
X104900000Y-123529837D01*
X104900000Y-123499999D01*
X105103553Y-123499999D01*
X105103553Y-123500001D01*
X105465845Y-123862293D01*
X105519257Y-123733347D01*
X105519258Y-123733343D01*
X105549999Y-123578797D01*
X105550000Y-123578794D01*
X105550000Y-123421206D01*
X105549999Y-123421202D01*
X105519258Y-123266656D01*
X105519257Y-123266652D01*
X105465845Y-123137706D01*
X105103553Y-123499999D01*
X104900000Y-123499999D01*
X104900000Y-123470163D01*
X104877164Y-123415032D01*
X104834968Y-123372836D01*
X104779837Y-123350000D01*
X104720163Y-123350000D01*
X104665032Y-123372836D01*
X104622836Y-123415032D01*
X104600000Y-123470163D01*
X104366610Y-123470163D01*
X104041582Y-123145135D01*
X104084968Y-123127164D01*
X104127164Y-123084968D01*
X104150000Y-123029837D01*
X104150000Y-122999999D01*
X104603553Y-122999999D01*
X104750000Y-123146446D01*
X104896446Y-123000001D01*
X104896446Y-123000000D01*
X104750000Y-122853553D01*
X104603553Y-122999999D01*
X104150000Y-122999999D01*
X104150000Y-122970163D01*
X104127164Y-122915032D01*
X104084968Y-122872836D01*
X104041581Y-122854864D01*
X104396446Y-122500000D01*
X104396446Y-122499999D01*
X104366610Y-122470163D01*
X104600000Y-122470163D01*
X104600000Y-122529837D01*
X104622836Y-122584968D01*
X104665032Y-122627164D01*
X104720163Y-122650000D01*
X104779837Y-122650000D01*
X104834968Y-122627164D01*
X104877164Y-122584968D01*
X104900000Y-122529837D01*
X104900000Y-122499999D01*
X105103553Y-122499999D01*
X105103553Y-122500001D01*
X105465845Y-122862293D01*
X105519257Y-122733347D01*
X105519258Y-122733343D01*
X105549999Y-122578797D01*
X105550000Y-122578794D01*
X105550000Y-122421206D01*
X105549999Y-122421202D01*
X105519258Y-122266656D01*
X105519257Y-122266652D01*
X105465845Y-122137706D01*
X105103553Y-122499999D01*
X104900000Y-122499999D01*
X104900000Y-122470163D01*
X104877164Y-122415032D01*
X104834968Y-122372836D01*
X104779837Y-122350000D01*
X104720163Y-122350000D01*
X104665032Y-122372836D01*
X104622836Y-122415032D01*
X104600000Y-122470163D01*
X104366610Y-122470163D01*
X104034153Y-122137705D01*
X104024190Y-122139687D01*
X103975809Y-122139688D01*
X103965845Y-122137706D01*
X103603553Y-122499999D01*
X103400000Y-122499999D01*
X103400000Y-122470163D01*
X103377164Y-122415032D01*
X103334968Y-122372836D01*
X103279837Y-122350000D01*
X103220163Y-122350000D01*
X103165032Y-122372836D01*
X103122836Y-122415032D01*
X103100000Y-122470163D01*
X102926283Y-122470163D01*
X103612293Y-121784153D01*
X104387705Y-121784153D01*
X104750000Y-122146446D01*
X104750001Y-122146446D01*
X105112293Y-121784153D01*
X104983351Y-121730743D01*
X104983343Y-121730741D01*
X104828797Y-121700000D01*
X104671202Y-121700000D01*
X104516656Y-121730741D01*
X104516648Y-121730743D01*
X104387705Y-121784153D01*
X103612293Y-121784153D01*
X103483351Y-121730743D01*
X103483343Y-121730741D01*
X103328797Y-121700000D01*
X103171202Y-121700000D01*
X103016656Y-121730740D01*
X103016652Y-121730742D01*
X102990150Y-121741719D01*
X102920681Y-121749185D01*
X102858202Y-121717908D01*
X102828140Y-121674608D01*
X102809394Y-121629351D01*
X102809390Y-121629344D01*
X102721789Y-121498241D01*
X102721786Y-121498237D01*
X102610292Y-121386743D01*
X102610288Y-121386740D01*
X102479185Y-121299139D01*
X102479172Y-121299132D01*
X102333501Y-121238794D01*
X102333489Y-121238791D01*
X102178845Y-121208030D01*
X102178842Y-121208030D01*
X102021158Y-121208030D01*
X102021155Y-121208030D01*
X101866510Y-121238791D01*
X101866498Y-121238794D01*
X101720827Y-121299132D01*
X101720814Y-121299139D01*
X101589711Y-121386740D01*
X101589707Y-121386743D01*
X101478213Y-121498237D01*
X101478210Y-121498241D01*
X101390609Y-121629344D01*
X101390602Y-121629357D01*
X101330264Y-121775028D01*
X101330261Y-121775040D01*
X101299500Y-121929683D01*
X94149574Y-121929683D01*
X94141290Y-121909685D01*
X94119397Y-121856827D01*
X94119390Y-121856814D01*
X94031789Y-121725711D01*
X94031786Y-121725707D01*
X93920292Y-121614213D01*
X93920288Y-121614210D01*
X93789185Y-121526609D01*
X93789172Y-121526602D01*
X93643501Y-121466264D01*
X93643489Y-121466261D01*
X93488845Y-121435500D01*
X93488842Y-121435500D01*
X93331158Y-121435500D01*
X93331155Y-121435500D01*
X93176510Y-121466261D01*
X93176498Y-121466264D01*
X93030827Y-121526602D01*
X93030814Y-121526609D01*
X92899711Y-121614210D01*
X92899707Y-121614213D01*
X92788213Y-121725707D01*
X92788210Y-121725711D01*
X92700609Y-121856814D01*
X92700602Y-121856827D01*
X92640264Y-122002498D01*
X92640261Y-122002510D01*
X92609500Y-122157153D01*
X92609500Y-122314846D01*
X92640261Y-122469489D01*
X92640264Y-122469501D01*
X92664836Y-122528823D01*
X92672305Y-122598292D01*
X92641029Y-122660771D01*
X92580940Y-122696423D01*
X92511115Y-122693929D01*
X92502823Y-122690836D01*
X92443501Y-122666264D01*
X92443489Y-122666261D01*
X92288845Y-122635500D01*
X92288842Y-122635500D01*
X92131158Y-122635500D01*
X92131155Y-122635500D01*
X91976510Y-122666261D01*
X91976498Y-122666264D01*
X91830827Y-122726602D01*
X91830814Y-122726609D01*
X91699711Y-122814210D01*
X91699707Y-122814213D01*
X91588213Y-122925707D01*
X91588210Y-122925711D01*
X91500609Y-123056814D01*
X91500602Y-123056827D01*
X91440264Y-123202498D01*
X91440261Y-123202510D01*
X91409500Y-123357153D01*
X72337295Y-123357153D01*
X72360289Y-123341789D01*
X72382688Y-123319390D01*
X72438694Y-123263385D01*
X72471786Y-123230292D01*
X72471789Y-123230289D01*
X72559394Y-123099179D01*
X72619737Y-122953497D01*
X72650500Y-122798842D01*
X72650500Y-122641158D01*
X72650500Y-122641155D01*
X72650499Y-122641153D01*
X72639323Y-122584968D01*
X72619737Y-122486503D01*
X72612690Y-122469489D01*
X72559397Y-122340827D01*
X72559390Y-122340814D01*
X72471789Y-122209711D01*
X72471786Y-122209707D01*
X72360292Y-122098213D01*
X72360288Y-122098210D01*
X72229185Y-122010609D01*
X72229172Y-122010602D01*
X72083501Y-121950264D01*
X72083489Y-121950261D01*
X71928845Y-121919500D01*
X71928842Y-121919500D01*
X71771158Y-121919500D01*
X71771155Y-121919500D01*
X71616510Y-121950261D01*
X71616498Y-121950264D01*
X71470827Y-122010602D01*
X71470814Y-122010609D01*
X71339711Y-122098210D01*
X71339707Y-122098213D01*
X71228213Y-122209707D01*
X71228210Y-122209711D01*
X71140609Y-122340814D01*
X71140602Y-122340827D01*
X71080264Y-122486498D01*
X71080261Y-122486510D01*
X71049500Y-122641153D01*
X59770500Y-122641153D01*
X59770500Y-122531158D01*
X59770500Y-122531155D01*
X59770499Y-122531153D01*
X59761619Y-122486510D01*
X59739737Y-122376503D01*
X59714197Y-122314844D01*
X59679397Y-122230827D01*
X59679390Y-122230814D01*
X59591789Y-122099711D01*
X59591786Y-122099707D01*
X59480292Y-121988213D01*
X59480288Y-121988210D01*
X59349185Y-121900609D01*
X59349172Y-121900602D01*
X59203501Y-121840264D01*
X59203489Y-121840261D01*
X59048845Y-121809500D01*
X59048842Y-121809500D01*
X58891158Y-121809500D01*
X58891155Y-121809500D01*
X58736510Y-121840261D01*
X58736498Y-121840264D01*
X58590827Y-121900602D01*
X58590814Y-121900609D01*
X58459711Y-121988210D01*
X58459707Y-121988213D01*
X58348213Y-122099707D01*
X58348210Y-122099711D01*
X58260609Y-122230814D01*
X58260602Y-122230827D01*
X58200264Y-122376498D01*
X58200261Y-122376510D01*
X58169500Y-122531153D01*
X45500500Y-122531153D01*
X45500500Y-114826699D01*
X46084500Y-114826699D01*
X46084500Y-115013301D01*
X46093467Y-115069914D01*
X46113691Y-115197606D01*
X46113691Y-115197609D01*
X46171352Y-115375071D01*
X46171354Y-115375074D01*
X46256069Y-115541338D01*
X46365751Y-115692302D01*
X46497698Y-115824249D01*
X46648662Y-115933931D01*
X46814926Y-116018646D01*
X46814928Y-116018647D01*
X46979343Y-116072069D01*
X47037019Y-116111507D01*
X47064217Y-116175865D01*
X47052302Y-116244712D01*
X47005058Y-116296187D01*
X46979343Y-116307931D01*
X46814928Y-116361352D01*
X46814925Y-116361354D01*
X46648661Y-116446069D01*
X46629885Y-116459711D01*
X46497698Y-116555751D01*
X46497696Y-116555753D01*
X46497695Y-116555753D01*
X46365753Y-116687695D01*
X46365753Y-116687696D01*
X46365751Y-116687698D01*
X46330296Y-116736498D01*
X46256069Y-116838661D01*
X46171354Y-117004925D01*
X46171352Y-117004928D01*
X46113691Y-117182390D01*
X46113691Y-117182393D01*
X46104013Y-117243497D01*
X46084500Y-117366699D01*
X46084500Y-117553301D01*
X46096931Y-117631786D01*
X46113691Y-117737606D01*
X46113691Y-117737609D01*
X46171352Y-117915071D01*
X46171354Y-117915074D01*
X46256069Y-118081338D01*
X46365751Y-118232302D01*
X46497698Y-118364249D01*
X46648662Y-118473931D01*
X46814926Y-118558646D01*
X46814928Y-118558647D01*
X46979343Y-118612069D01*
X47037019Y-118651507D01*
X47064217Y-118715865D01*
X47052302Y-118784712D01*
X47005058Y-118836187D01*
X46979343Y-118847931D01*
X46814928Y-118901352D01*
X46814925Y-118901354D01*
X46648661Y-118986069D01*
X46562531Y-119048646D01*
X46497698Y-119095751D01*
X46497696Y-119095753D01*
X46497695Y-119095753D01*
X46365753Y-119227695D01*
X46365753Y-119227696D01*
X46365751Y-119227698D01*
X46318646Y-119292531D01*
X46256069Y-119378661D01*
X46171354Y-119544925D01*
X46171352Y-119544928D01*
X46113691Y-119722390D01*
X46113691Y-119722393D01*
X46094410Y-119844129D01*
X46084500Y-119906699D01*
X46084500Y-120093301D01*
X46097215Y-120173578D01*
X46113691Y-120277606D01*
X46113691Y-120277609D01*
X46171352Y-120455071D01*
X46171354Y-120455074D01*
X46256069Y-120621338D01*
X46365751Y-120772302D01*
X46497698Y-120904249D01*
X46648662Y-121013931D01*
X46814926Y-121098646D01*
X46814928Y-121098647D01*
X46992391Y-121156308D01*
X46992392Y-121156308D01*
X46992395Y-121156309D01*
X47176699Y-121185500D01*
X47176700Y-121185500D01*
X47363300Y-121185500D01*
X47363301Y-121185500D01*
X47547605Y-121156309D01*
X47547608Y-121156308D01*
X47547609Y-121156308D01*
X47725071Y-121098647D01*
X47725071Y-121098646D01*
X47725074Y-121098646D01*
X47891338Y-121013931D01*
X48042302Y-120904249D01*
X48174249Y-120772302D01*
X48283931Y-120621338D01*
X48368646Y-120455074D01*
X48426309Y-120277605D01*
X48455500Y-120093301D01*
X48455500Y-119906699D01*
X48426309Y-119722395D01*
X48426308Y-119722391D01*
X48426308Y-119722390D01*
X48368647Y-119544928D01*
X48368645Y-119544925D01*
X48362528Y-119532918D01*
X48283931Y-119378662D01*
X48174249Y-119227698D01*
X48042302Y-119095751D01*
X47891338Y-118986069D01*
X47725074Y-118901354D01*
X47725071Y-118901352D01*
X47560656Y-118847931D01*
X47502980Y-118808494D01*
X47475782Y-118744135D01*
X47487697Y-118675289D01*
X47534941Y-118623813D01*
X47560656Y-118612069D01*
X47725071Y-118558647D01*
X47725071Y-118558646D01*
X47725074Y-118558646D01*
X47891338Y-118473931D01*
X48042302Y-118364249D01*
X48174249Y-118232302D01*
X48283931Y-118081338D01*
X48368646Y-117915074D01*
X48380418Y-117878844D01*
X48426308Y-117737609D01*
X48426308Y-117737608D01*
X48426309Y-117737605D01*
X48455500Y-117553301D01*
X48455500Y-117366699D01*
X48426309Y-117182395D01*
X48426308Y-117182391D01*
X48426308Y-117182390D01*
X48368647Y-117004928D01*
X48368646Y-117004925D01*
X48356639Y-116981361D01*
X48356638Y-116981359D01*
X48331057Y-116931153D01*
X52579500Y-116931153D01*
X52579500Y-117088846D01*
X52610261Y-117243489D01*
X52610264Y-117243501D01*
X52670602Y-117389172D01*
X52670609Y-117389185D01*
X52758210Y-117520288D01*
X52758213Y-117520292D01*
X52869707Y-117631786D01*
X52869711Y-117631789D01*
X53000814Y-117719390D01*
X53000827Y-117719397D01*
X53107805Y-117763708D01*
X53146503Y-117779737D01*
X53301153Y-117810499D01*
X53301156Y-117810500D01*
X53301158Y-117810500D01*
X53458844Y-117810500D01*
X53458845Y-117810499D01*
X53613497Y-117779737D01*
X53726166Y-117733067D01*
X53759172Y-117719397D01*
X53759172Y-117719396D01*
X53759179Y-117719394D01*
X53890289Y-117631789D01*
X54001789Y-117520289D01*
X54089394Y-117389179D01*
X54149737Y-117243497D01*
X54157964Y-117202135D01*
X69779500Y-117202135D01*
X69779500Y-119297870D01*
X69779501Y-119297876D01*
X69785908Y-119357483D01*
X69836202Y-119492328D01*
X69836206Y-119492335D01*
X69922452Y-119607544D01*
X69922455Y-119607547D01*
X70037664Y-119693793D01*
X70037671Y-119693797D01*
X70172517Y-119744091D01*
X70172516Y-119744091D01*
X70179444Y-119744835D01*
X70232127Y-119750500D01*
X71261664Y-119750499D01*
X71328702Y-119770183D01*
X71374457Y-119822987D01*
X71384401Y-119892146D01*
X71355376Y-119955702D01*
X71330556Y-119977600D01*
X71299709Y-119998211D01*
X71188213Y-120109707D01*
X71188210Y-120109711D01*
X71100609Y-120240814D01*
X71100602Y-120240827D01*
X71040264Y-120386498D01*
X71040261Y-120386510D01*
X71009500Y-120541153D01*
X71009500Y-120698846D01*
X71040261Y-120853489D01*
X71040264Y-120853501D01*
X71100602Y-120999172D01*
X71100609Y-120999185D01*
X71188210Y-121130288D01*
X71188213Y-121130292D01*
X71299707Y-121241786D01*
X71299711Y-121241789D01*
X71430814Y-121329390D01*
X71430827Y-121329397D01*
X71569270Y-121386741D01*
X71576503Y-121389737D01*
X71731153Y-121420499D01*
X71731156Y-121420500D01*
X71731158Y-121420500D01*
X71888844Y-121420500D01*
X71888845Y-121420499D01*
X72043497Y-121389737D01*
X72189179Y-121329394D01*
X72320289Y-121241789D01*
X72431789Y-121130289D01*
X72519394Y-120999179D01*
X72579737Y-120853497D01*
X72610500Y-120698842D01*
X72610500Y-120541158D01*
X72610500Y-120541155D01*
X72610499Y-120541153D01*
X72579737Y-120386503D01*
X72534631Y-120277606D01*
X72519397Y-120240827D01*
X72519390Y-120240814D01*
X72431789Y-120109711D01*
X72431786Y-120109707D01*
X72421787Y-120099708D01*
X72421776Y-120099698D01*
X72337967Y-120015889D01*
X103713236Y-120015889D01*
X103713236Y-120173582D01*
X103743997Y-120328225D01*
X103744000Y-120328237D01*
X103804338Y-120473908D01*
X103804345Y-120473921D01*
X103891946Y-120605024D01*
X103891949Y-120605028D01*
X104003443Y-120716522D01*
X104003447Y-120716525D01*
X104134550Y-120804126D01*
X104134563Y-120804133D01*
X104253721Y-120853489D01*
X104280239Y-120864473D01*
X104434889Y-120895235D01*
X104434892Y-120895236D01*
X104434894Y-120895236D01*
X104592580Y-120895236D01*
X104592581Y-120895235D01*
X104747233Y-120864473D01*
X104892915Y-120804130D01*
X105024025Y-120716525D01*
X105135525Y-120605025D01*
X105223130Y-120473915D01*
X105283473Y-120328233D01*
X105314236Y-120173578D01*
X105314236Y-120015894D01*
X105314236Y-120015891D01*
X105314235Y-120015889D01*
X105293293Y-119910606D01*
X105283473Y-119861239D01*
X105283471Y-119861234D01*
X105223133Y-119715563D01*
X105223126Y-119715550D01*
X105135525Y-119584447D01*
X105135522Y-119584443D01*
X105024028Y-119472949D01*
X105024024Y-119472946D01*
X104892921Y-119385345D01*
X104892908Y-119385338D01*
X104747237Y-119325000D01*
X104747225Y-119324997D01*
X104592581Y-119294236D01*
X104592578Y-119294236D01*
X104434894Y-119294236D01*
X104434891Y-119294236D01*
X104280246Y-119324997D01*
X104280234Y-119325000D01*
X104134563Y-119385338D01*
X104134550Y-119385345D01*
X104003447Y-119472946D01*
X104003443Y-119472949D01*
X103891949Y-119584443D01*
X103891946Y-119584447D01*
X103804345Y-119715550D01*
X103804338Y-119715563D01*
X103744000Y-119861234D01*
X103743997Y-119861246D01*
X103713236Y-120015889D01*
X72337967Y-120015889D01*
X72320289Y-119998211D01*
X72278627Y-119970373D01*
X72271909Y-119964304D01*
X72258174Y-119941927D01*
X72241339Y-119921782D01*
X72240188Y-119912624D01*
X72235360Y-119904757D01*
X72235903Y-119878506D01*
X72232632Y-119852456D01*
X72236615Y-119844129D01*
X72236807Y-119834902D01*
X72251453Y-119813116D01*
X72262787Y-119789429D01*
X72270640Y-119784577D01*
X72275790Y-119776919D01*
X72299892Y-119766509D01*
X72322231Y-119752711D01*
X72339363Y-119749462D01*
X72339933Y-119749216D01*
X72340322Y-119749280D01*
X72341777Y-119749004D01*
X72387483Y-119744091D01*
X72522331Y-119693796D01*
X72637546Y-119607546D01*
X72723796Y-119492331D01*
X72774091Y-119357483D01*
X72780500Y-119297873D01*
X72780499Y-118131947D01*
X77380000Y-118131947D01*
X77380000Y-118368052D01*
X77416934Y-118601247D01*
X77489897Y-118825802D01*
X77597087Y-119036174D01*
X77657338Y-119119104D01*
X77657340Y-119119105D01*
X78397037Y-118379408D01*
X78414075Y-118442993D01*
X78479901Y-118557007D01*
X78572993Y-118650099D01*
X78687007Y-118715925D01*
X78750590Y-118732962D01*
X78010893Y-119472658D01*
X78093828Y-119532914D01*
X78304197Y-119640102D01*
X78528752Y-119713065D01*
X78528751Y-119713065D01*
X78761948Y-119750000D01*
X78998052Y-119750000D01*
X79231247Y-119713065D01*
X79455802Y-119640102D01*
X79666163Y-119532918D01*
X79666169Y-119532914D01*
X79749104Y-119472658D01*
X79749105Y-119472658D01*
X79009408Y-118732962D01*
X79072993Y-118715925D01*
X79187007Y-118650099D01*
X79280099Y-118557007D01*
X79345925Y-118442993D01*
X79362962Y-118379409D01*
X80102658Y-119119105D01*
X80102658Y-119119104D01*
X80162914Y-119036169D01*
X80162918Y-119036163D01*
X80270102Y-118825802D01*
X80343065Y-118601247D01*
X80380000Y-118368052D01*
X80380000Y-118131947D01*
X80343065Y-117898754D01*
X80295832Y-117753385D01*
X80295831Y-117753383D01*
X80285359Y-117721153D01*
X91399500Y-117721153D01*
X91399500Y-117878846D01*
X91430261Y-118033489D01*
X91430264Y-118033501D01*
X91490602Y-118179172D01*
X91490609Y-118179185D01*
X91578210Y-118310288D01*
X91578213Y-118310292D01*
X91689707Y-118421786D01*
X91689711Y-118421789D01*
X91820814Y-118509390D01*
X91820827Y-118509397D01*
X91939729Y-118558647D01*
X91966503Y-118569737D01*
X92121153Y-118600499D01*
X92121156Y-118600500D01*
X92121158Y-118600500D01*
X92278844Y-118600500D01*
X92278845Y-118600499D01*
X92433497Y-118569737D01*
X92579179Y-118509394D01*
X92710289Y-118421789D01*
X92821789Y-118310289D01*
X92909394Y-118179179D01*
X92920386Y-118152641D01*
X92937571Y-118111153D01*
X99369500Y-118111153D01*
X99369500Y-118268846D01*
X99400261Y-118423489D01*
X99400264Y-118423501D01*
X99460602Y-118569172D01*
X99460609Y-118569185D01*
X99548210Y-118700288D01*
X99548213Y-118700292D01*
X99659707Y-118811786D01*
X99659711Y-118811789D01*
X99790814Y-118899390D01*
X99790827Y-118899397D01*
X99928147Y-118956276D01*
X99936503Y-118959737D01*
X100068882Y-118986069D01*
X100091153Y-118990499D01*
X100091156Y-118990500D01*
X100091158Y-118990500D01*
X100248844Y-118990500D01*
X100248845Y-118990499D01*
X100403497Y-118959737D01*
X100549179Y-118899394D01*
X100680289Y-118811789D01*
X100791789Y-118700289D01*
X100879394Y-118569179D01*
X100883757Y-118558647D01*
X100904156Y-118509397D01*
X100939737Y-118423497D01*
X100944411Y-118400000D01*
X114279157Y-118400000D01*
X115090382Y-118400000D01*
X115039936Y-118450446D01*
X114997149Y-118524555D01*
X114975000Y-118607213D01*
X114975000Y-118692787D01*
X114997149Y-118775445D01*
X115039936Y-118849554D01*
X115090382Y-118900000D01*
X114279157Y-118900000D01*
X114290350Y-118956274D01*
X114290351Y-118956276D01*
X114369500Y-119147358D01*
X114369505Y-119147368D01*
X114484410Y-119319335D01*
X114484413Y-119319339D01*
X114630660Y-119465586D01*
X114630664Y-119465589D01*
X114802631Y-119580494D01*
X114802641Y-119580499D01*
X114993725Y-119659649D01*
X114993733Y-119659651D01*
X115196579Y-119699999D01*
X115196583Y-119700000D01*
X115250000Y-119700000D01*
X115250000Y-118973067D01*
X115257213Y-118975000D01*
X115742787Y-118975000D01*
X115750000Y-118973067D01*
X115750000Y-119700000D01*
X115803417Y-119700000D01*
X115803420Y-119699999D01*
X116006266Y-119659651D01*
X116006274Y-119659649D01*
X116197358Y-119580499D01*
X116197368Y-119580494D01*
X116369335Y-119465589D01*
X116369339Y-119465586D01*
X116515586Y-119319339D01*
X116515589Y-119319335D01*
X116630494Y-119147368D01*
X116630499Y-119147358D01*
X116639560Y-119125485D01*
X116709648Y-118956276D01*
X116709649Y-118956274D01*
X116720843Y-118900000D01*
X115909618Y-118900000D01*
X115960064Y-118849554D01*
X116002851Y-118775445D01*
X116020388Y-118709999D01*
X117174950Y-118709999D01*
X117174950Y-118710000D01*
X118005025Y-118710000D01*
X117969930Y-118745095D01*
X117923852Y-118824905D01*
X117900000Y-118913922D01*
X117900000Y-119006078D01*
X117923852Y-119095095D01*
X117969930Y-119174905D01*
X118005025Y-119210000D01*
X117174950Y-119210000D01*
X117178932Y-119235144D01*
X117236082Y-119411037D01*
X117236084Y-119411043D01*
X117320052Y-119575837D01*
X117428754Y-119725454D01*
X117428758Y-119725459D01*
X117559540Y-119856241D01*
X117559545Y-119856245D01*
X117709162Y-119964947D01*
X117873956Y-120048915D01*
X117873959Y-120048916D01*
X118049852Y-120106066D01*
X118232527Y-120135000D01*
X118250000Y-120135000D01*
X118250000Y-119310000D01*
X118750000Y-119310000D01*
X118750000Y-120135000D01*
X118767473Y-120135000D01*
X118950147Y-120106066D01*
X119126040Y-120048916D01*
X119126043Y-120048915D01*
X119290837Y-119964947D01*
X119440454Y-119856245D01*
X119440459Y-119856241D01*
X119571241Y-119725459D01*
X119571245Y-119725454D01*
X119679947Y-119575837D01*
X119763915Y-119411043D01*
X119763917Y-119411037D01*
X119821067Y-119235144D01*
X119825049Y-119210000D01*
X118994975Y-119210000D01*
X119030070Y-119174905D01*
X119076148Y-119095095D01*
X119100000Y-119006078D01*
X119100000Y-118913922D01*
X119076148Y-118824905D01*
X119030070Y-118745095D01*
X118994975Y-118710000D01*
X119825050Y-118710000D01*
X119825049Y-118709999D01*
X119821067Y-118684855D01*
X119763917Y-118508962D01*
X119763915Y-118508956D01*
X119679947Y-118344162D01*
X119571245Y-118194545D01*
X119571241Y-118194540D01*
X119440459Y-118063758D01*
X119440454Y-118063754D01*
X119290837Y-117955052D01*
X119126043Y-117871084D01*
X119126040Y-117871083D01*
X118950147Y-117813933D01*
X118767473Y-117785000D01*
X118750000Y-117785000D01*
X118750000Y-118610000D01*
X118250000Y-118610000D01*
X118250000Y-117785000D01*
X118232527Y-117785000D01*
X118049852Y-117813933D01*
X117873959Y-117871083D01*
X117873956Y-117871084D01*
X117709162Y-117955052D01*
X117559545Y-118063754D01*
X117559540Y-118063758D01*
X117428758Y-118194540D01*
X117428754Y-118194545D01*
X117320052Y-118344162D01*
X117236084Y-118508956D01*
X117236082Y-118508962D01*
X117178932Y-118684855D01*
X117174950Y-118709999D01*
X116020388Y-118709999D01*
X116025000Y-118692787D01*
X116025000Y-118607213D01*
X116002851Y-118524555D01*
X115960064Y-118450446D01*
X115909618Y-118400000D01*
X116720843Y-118400000D01*
X116709649Y-118343725D01*
X116709648Y-118343723D01*
X116630499Y-118152641D01*
X116630494Y-118152631D01*
X116515589Y-117980664D01*
X116515586Y-117980660D01*
X116369339Y-117834413D01*
X116369335Y-117834410D01*
X116197368Y-117719505D01*
X116197358Y-117719500D01*
X116006274Y-117640350D01*
X116006266Y-117640348D01*
X115803420Y-117600000D01*
X115750000Y-117600000D01*
X115750000Y-118326932D01*
X115742787Y-118325000D01*
X115257213Y-118325000D01*
X115250000Y-118326932D01*
X115250000Y-117600000D01*
X115196579Y-117600000D01*
X114993733Y-117640348D01*
X114993725Y-117640350D01*
X114802641Y-117719500D01*
X114802631Y-117719505D01*
X114630664Y-117834410D01*
X114630660Y-117834413D01*
X114484413Y-117980660D01*
X114484410Y-117980664D01*
X114369505Y-118152631D01*
X114369500Y-118152641D01*
X114290351Y-118343723D01*
X114290350Y-118343725D01*
X114279157Y-118400000D01*
X100944411Y-118400000D01*
X100970500Y-118268842D01*
X100970500Y-118111158D01*
X100970500Y-118111155D01*
X100970499Y-118111153D01*
X100959849Y-118057614D01*
X100939737Y-117956503D01*
X100922577Y-117915074D01*
X100879397Y-117810827D01*
X100879390Y-117810814D01*
X100791789Y-117679711D01*
X100791786Y-117679707D01*
X100680292Y-117568213D01*
X100680288Y-117568210D01*
X100594897Y-117511153D01*
X101899500Y-117511153D01*
X101899500Y-117668846D01*
X101930261Y-117823489D01*
X101930264Y-117823501D01*
X101990602Y-117969172D01*
X101990609Y-117969185D01*
X102078210Y-118100288D01*
X102078213Y-118100292D01*
X102189707Y-118211786D01*
X102189711Y-118211789D01*
X102320814Y-118299390D01*
X102320827Y-118299397D01*
X102466498Y-118359735D01*
X102466503Y-118359737D01*
X102618323Y-118389936D01*
X102621153Y-118390499D01*
X102621156Y-118390500D01*
X102621158Y-118390500D01*
X102778844Y-118390500D01*
X102778845Y-118390499D01*
X102933497Y-118359737D01*
X102974733Y-118342656D01*
X103032402Y-118318770D01*
X103079172Y-118299397D01*
X103079172Y-118299396D01*
X103079179Y-118299394D01*
X103210289Y-118211789D01*
X103321789Y-118100289D01*
X103409394Y-117969179D01*
X103469737Y-117823497D01*
X103469739Y-117823489D01*
X103471966Y-117818112D01*
X103515807Y-117763708D01*
X103562336Y-117743946D01*
X103583497Y-117739737D01*
X103728414Y-117679711D01*
X103729172Y-117679397D01*
X103729172Y-117679396D01*
X103729179Y-117679394D01*
X103860289Y-117591789D01*
X103971789Y-117480289D01*
X104059394Y-117349179D01*
X104119737Y-117203497D01*
X104150500Y-117048842D01*
X104150500Y-116891158D01*
X104150500Y-116891155D01*
X104150499Y-116891153D01*
X104140058Y-116838662D01*
X104119737Y-116736503D01*
X104119735Y-116736498D01*
X104059397Y-116590827D01*
X104059390Y-116590814D01*
X103971789Y-116459711D01*
X103971786Y-116459707D01*
X103860292Y-116348213D01*
X103860288Y-116348210D01*
X103729185Y-116260609D01*
X103729172Y-116260602D01*
X103583501Y-116200264D01*
X103583489Y-116200261D01*
X103428845Y-116169500D01*
X103428842Y-116169500D01*
X103271158Y-116169500D01*
X103271155Y-116169500D01*
X103116510Y-116200261D01*
X103116498Y-116200264D01*
X102970827Y-116260602D01*
X102970814Y-116260609D01*
X102839711Y-116348210D01*
X102839707Y-116348213D01*
X102728213Y-116459707D01*
X102728210Y-116459711D01*
X102640609Y-116590814D01*
X102640602Y-116590827D01*
X102578032Y-116741888D01*
X102534191Y-116796292D01*
X102487664Y-116816053D01*
X102466507Y-116820261D01*
X102466500Y-116820263D01*
X102320827Y-116880602D01*
X102320814Y-116880609D01*
X102189711Y-116968210D01*
X102189707Y-116968213D01*
X102078213Y-117079707D01*
X102078210Y-117079711D01*
X101990609Y-117210814D01*
X101990602Y-117210827D01*
X101930264Y-117356498D01*
X101930261Y-117356510D01*
X101899500Y-117511153D01*
X100594897Y-117511153D01*
X100549185Y-117480609D01*
X100549172Y-117480602D01*
X100403501Y-117420264D01*
X100403489Y-117420261D01*
X100248845Y-117389500D01*
X100248842Y-117389500D01*
X100091158Y-117389500D01*
X100091155Y-117389500D01*
X99936510Y-117420261D01*
X99936498Y-117420264D01*
X99790827Y-117480602D01*
X99790814Y-117480609D01*
X99659711Y-117568210D01*
X99659707Y-117568213D01*
X99548213Y-117679707D01*
X99548210Y-117679711D01*
X99460609Y-117810814D01*
X99460602Y-117810827D01*
X99400264Y-117956498D01*
X99400261Y-117956510D01*
X99369500Y-118111153D01*
X92937571Y-118111153D01*
X92959745Y-118057621D01*
X92959747Y-118057614D01*
X92969737Y-118033497D01*
X93000500Y-117878842D01*
X93000500Y-117721158D01*
X93000500Y-117721155D01*
X93000499Y-117721153D01*
X92992193Y-117679397D01*
X92969737Y-117566503D01*
X92946813Y-117511158D01*
X92909397Y-117420827D01*
X92909390Y-117420814D01*
X92821789Y-117289711D01*
X92821786Y-117289707D01*
X92710292Y-117178213D01*
X92710288Y-117178210D01*
X92579185Y-117090609D01*
X92579172Y-117090602D01*
X92433501Y-117030264D01*
X92433489Y-117030261D01*
X92278845Y-116999500D01*
X92278842Y-116999500D01*
X92121158Y-116999500D01*
X92121155Y-116999500D01*
X91966510Y-117030261D01*
X91966498Y-117030264D01*
X91820827Y-117090602D01*
X91820814Y-117090609D01*
X91689711Y-117178210D01*
X91689707Y-117178213D01*
X91578213Y-117289707D01*
X91578210Y-117289711D01*
X91490609Y-117420814D01*
X91490602Y-117420827D01*
X91430264Y-117566498D01*
X91430261Y-117566510D01*
X91399500Y-117721153D01*
X80285359Y-117721153D01*
X80270102Y-117674197D01*
X80162914Y-117463828D01*
X80102658Y-117380894D01*
X80102658Y-117380893D01*
X79362962Y-118120590D01*
X79345925Y-118057007D01*
X79280099Y-117942993D01*
X79187007Y-117849901D01*
X79072993Y-117784075D01*
X79009409Y-117767037D01*
X79749105Y-117027340D01*
X79749104Y-117027338D01*
X79666174Y-116967087D01*
X79455802Y-116859897D01*
X79231247Y-116786934D01*
X79231248Y-116786934D01*
X78998052Y-116750000D01*
X78761948Y-116750000D01*
X78528752Y-116786934D01*
X78304197Y-116859897D01*
X78093830Y-116967084D01*
X78010894Y-117027340D01*
X78750591Y-117767037D01*
X78687007Y-117784075D01*
X78572993Y-117849901D01*
X78479901Y-117942993D01*
X78414075Y-118057007D01*
X78397037Y-118120591D01*
X77657340Y-117380894D01*
X77597084Y-117463830D01*
X77489897Y-117674197D01*
X77416934Y-117898752D01*
X77380000Y-118131947D01*
X72780499Y-118131947D01*
X72780499Y-117202128D01*
X72774091Y-117142517D01*
X72774090Y-117142514D01*
X72764922Y-117117931D01*
X72723797Y-117007671D01*
X72723793Y-117007664D01*
X72637547Y-116892455D01*
X72637544Y-116892452D01*
X72522335Y-116806206D01*
X72522328Y-116806202D01*
X72387482Y-116755908D01*
X72387483Y-116755908D01*
X72327883Y-116749501D01*
X72327881Y-116749500D01*
X72327873Y-116749500D01*
X72327864Y-116749500D01*
X70232129Y-116749500D01*
X70232123Y-116749501D01*
X70172516Y-116755908D01*
X70037671Y-116806202D01*
X70037664Y-116806206D01*
X69922455Y-116892452D01*
X69922452Y-116892455D01*
X69836206Y-117007664D01*
X69836202Y-117007671D01*
X69785908Y-117142517D01*
X69781621Y-117182395D01*
X69779501Y-117202123D01*
X69779500Y-117202135D01*
X54157964Y-117202135D01*
X54161891Y-117182395D01*
X54163439Y-117174615D01*
X54163439Y-117174614D01*
X54180500Y-117088844D01*
X54180500Y-116931155D01*
X54180499Y-116931153D01*
X54170445Y-116880609D01*
X54149737Y-116776503D01*
X54138759Y-116750000D01*
X54089397Y-116630827D01*
X54089390Y-116630814D01*
X54001789Y-116499711D01*
X54001786Y-116499707D01*
X53890292Y-116388213D01*
X53890288Y-116388210D01*
X53759185Y-116300609D01*
X53759172Y-116300602D01*
X53613501Y-116240264D01*
X53613489Y-116240261D01*
X53458845Y-116209500D01*
X53458842Y-116209500D01*
X53301158Y-116209500D01*
X53301155Y-116209500D01*
X53146510Y-116240261D01*
X53146498Y-116240264D01*
X53000827Y-116300602D01*
X53000814Y-116300609D01*
X52869711Y-116388210D01*
X52869707Y-116388213D01*
X52758213Y-116499707D01*
X52758210Y-116499711D01*
X52670609Y-116630814D01*
X52670602Y-116630827D01*
X52610264Y-116776498D01*
X52610261Y-116776510D01*
X52579500Y-116931153D01*
X48331057Y-116931153D01*
X48283932Y-116838663D01*
X48246348Y-116786934D01*
X48174249Y-116687698D01*
X48042302Y-116555751D01*
X47891338Y-116446069D01*
X47725074Y-116361354D01*
X47725071Y-116361352D01*
X47560656Y-116307931D01*
X47502980Y-116268494D01*
X47475782Y-116204135D01*
X47487697Y-116135289D01*
X47534941Y-116083813D01*
X47560656Y-116072069D01*
X47725071Y-116018647D01*
X47725071Y-116018646D01*
X47725074Y-116018646D01*
X47891338Y-115933931D01*
X48042302Y-115824249D01*
X48174249Y-115692302D01*
X48283931Y-115541338D01*
X48368646Y-115375074D01*
X48426309Y-115197605D01*
X48454256Y-115021153D01*
X95239500Y-115021153D01*
X95239500Y-115178846D01*
X95270261Y-115333489D01*
X95270264Y-115333501D01*
X95330602Y-115479172D01*
X95330609Y-115479185D01*
X95418210Y-115610288D01*
X95418213Y-115610292D01*
X95529707Y-115721786D01*
X95529711Y-115721789D01*
X95660814Y-115809390D01*
X95660827Y-115809397D01*
X95806498Y-115869735D01*
X95806503Y-115869737D01*
X95961153Y-115900499D01*
X95961156Y-115900500D01*
X95961158Y-115900500D01*
X96118844Y-115900500D01*
X96118845Y-115900499D01*
X96273497Y-115869737D01*
X96419179Y-115809394D01*
X96550289Y-115721789D01*
X96661789Y-115610289D01*
X96749394Y-115479179D01*
X96809737Y-115333497D01*
X96840500Y-115178842D01*
X96840500Y-115021158D01*
X96840500Y-115021155D01*
X96840499Y-115021153D01*
X96838937Y-115013300D01*
X96809737Y-114866503D01*
X96793250Y-114826699D01*
X96749397Y-114720827D01*
X96749390Y-114720814D01*
X96661789Y-114589711D01*
X96661786Y-114589707D01*
X96550292Y-114478213D01*
X96550288Y-114478210D01*
X96419185Y-114390609D01*
X96419172Y-114390602D01*
X96273501Y-114330264D01*
X96273489Y-114330261D01*
X96118845Y-114299500D01*
X96118842Y-114299500D01*
X95961158Y-114299500D01*
X95961155Y-114299500D01*
X95806510Y-114330261D01*
X95806498Y-114330264D01*
X95660827Y-114390602D01*
X95660814Y-114390609D01*
X95529711Y-114478210D01*
X95529707Y-114478213D01*
X95418213Y-114589707D01*
X95418210Y-114589711D01*
X95330609Y-114720814D01*
X95330602Y-114720827D01*
X95270264Y-114866498D01*
X95270261Y-114866510D01*
X95239500Y-115021153D01*
X48454256Y-115021153D01*
X48455500Y-115013301D01*
X48455500Y-114826699D01*
X48426309Y-114642395D01*
X48426308Y-114642391D01*
X48426308Y-114642390D01*
X48368647Y-114464928D01*
X48368645Y-114464925D01*
X48333652Y-114396245D01*
X48283931Y-114298662D01*
X48174249Y-114147698D01*
X48042302Y-114015751D01*
X47891338Y-113906069D01*
X47725074Y-113821354D01*
X47725071Y-113821352D01*
X47680686Y-113806931D01*
X47623010Y-113767493D01*
X47595812Y-113703135D01*
X47607727Y-113634288D01*
X47654971Y-113582813D01*
X47719004Y-113565000D01*
X48002828Y-113565000D01*
X48002844Y-113564999D01*
X48062372Y-113558598D01*
X48062379Y-113558596D01*
X48197086Y-113508354D01*
X48197093Y-113508350D01*
X48312187Y-113422190D01*
X48312190Y-113422187D01*
X48357880Y-113361153D01*
X107739500Y-113361153D01*
X107739500Y-113518846D01*
X107770261Y-113673489D01*
X107770264Y-113673501D01*
X107830602Y-113819172D01*
X107830609Y-113819185D01*
X107918210Y-113950288D01*
X107918213Y-113950292D01*
X108029707Y-114061786D01*
X108029711Y-114061789D01*
X108160814Y-114149390D01*
X108160827Y-114149397D01*
X108306498Y-114209735D01*
X108306503Y-114209737D01*
X108396814Y-114227701D01*
X108461153Y-114240499D01*
X108461156Y-114240500D01*
X108461158Y-114240500D01*
X108618843Y-114240500D01*
X108646053Y-114235087D01*
X108714490Y-114221474D01*
X108784080Y-114227701D01*
X108839258Y-114270563D01*
X108862503Y-114336453D01*
X108860301Y-114367269D01*
X108859901Y-114369278D01*
X108859901Y-114526974D01*
X108890662Y-114681617D01*
X108890665Y-114681629D01*
X108951003Y-114827300D01*
X108951010Y-114827313D01*
X109038611Y-114958416D01*
X109038614Y-114958420D01*
X109150108Y-115069914D01*
X109150112Y-115069917D01*
X109281215Y-115157518D01*
X109281228Y-115157525D01*
X109377994Y-115197606D01*
X109426904Y-115217865D01*
X109581554Y-115248627D01*
X109581557Y-115248628D01*
X109581559Y-115248628D01*
X109739245Y-115248628D01*
X109739246Y-115248627D01*
X109893898Y-115217865D01*
X110039580Y-115157522D01*
X110170690Y-115069917D01*
X110282190Y-114958417D01*
X110369795Y-114827307D01*
X110430138Y-114681625D01*
X110460901Y-114526970D01*
X110460901Y-114369286D01*
X110460899Y-114369278D01*
X110459210Y-114360786D01*
X110465434Y-114291194D01*
X110508294Y-114236015D01*
X110556635Y-114214972D01*
X110608485Y-114204657D01*
X110683497Y-114189737D01*
X110829179Y-114129394D01*
X110960289Y-114041789D01*
X110992524Y-114009554D01*
X111063091Y-113938988D01*
X111071786Y-113930292D01*
X111071789Y-113930289D01*
X111159394Y-113799179D01*
X111219737Y-113653497D01*
X111238335Y-113560000D01*
X114279157Y-113560000D01*
X115090382Y-113560000D01*
X115039936Y-113610446D01*
X114997149Y-113684555D01*
X114975000Y-113767213D01*
X114975000Y-113852787D01*
X114997149Y-113935445D01*
X115039936Y-114009554D01*
X115090382Y-114060000D01*
X114279157Y-114060000D01*
X114290350Y-114116274D01*
X114290351Y-114116276D01*
X114369500Y-114307358D01*
X114369505Y-114307368D01*
X114484410Y-114479335D01*
X114484413Y-114479339D01*
X114630660Y-114625586D01*
X114630664Y-114625589D01*
X114802631Y-114740494D01*
X114802641Y-114740499D01*
X114993725Y-114819649D01*
X114993733Y-114819651D01*
X115196579Y-114859999D01*
X115196583Y-114860000D01*
X115250000Y-114860000D01*
X115250000Y-114133067D01*
X115257213Y-114135000D01*
X115742787Y-114135000D01*
X115750000Y-114133067D01*
X115750000Y-114860000D01*
X115803417Y-114860000D01*
X115803420Y-114859999D01*
X116006266Y-114819651D01*
X116006274Y-114819649D01*
X116197358Y-114740499D01*
X116197368Y-114740494D01*
X116369335Y-114625589D01*
X116369339Y-114625586D01*
X116515586Y-114479339D01*
X116515589Y-114479335D01*
X116630494Y-114307368D01*
X116630499Y-114307358D01*
X116709648Y-114116276D01*
X116709649Y-114116274D01*
X116720843Y-114060000D01*
X115909618Y-114060000D01*
X115960064Y-114009554D01*
X116002851Y-113935445D01*
X116025000Y-113852787D01*
X116025000Y-113767213D01*
X116002851Y-113684555D01*
X115960064Y-113610446D01*
X115909618Y-113560000D01*
X116720843Y-113560000D01*
X116709649Y-113503725D01*
X116709648Y-113503723D01*
X116639560Y-113334515D01*
X116630499Y-113312641D01*
X116630494Y-113312631D01*
X116588645Y-113249999D01*
X117174950Y-113249999D01*
X117174950Y-113250000D01*
X118005025Y-113250000D01*
X117969930Y-113285095D01*
X117923852Y-113364905D01*
X117900000Y-113453922D01*
X117900000Y-113546078D01*
X117923852Y-113635095D01*
X117969930Y-113714905D01*
X118005025Y-113750000D01*
X117174950Y-113750000D01*
X117178932Y-113775144D01*
X117236082Y-113951037D01*
X117236084Y-113951043D01*
X117320052Y-114115837D01*
X117428754Y-114265454D01*
X117428758Y-114265459D01*
X117559540Y-114396241D01*
X117559545Y-114396245D01*
X117709162Y-114504947D01*
X117873956Y-114588915D01*
X117873959Y-114588916D01*
X118049852Y-114646066D01*
X118232527Y-114675000D01*
X118250000Y-114675000D01*
X118250000Y-113850000D01*
X118750000Y-113850000D01*
X118750000Y-114675000D01*
X118767473Y-114675000D01*
X118950147Y-114646066D01*
X119126040Y-114588916D01*
X119126043Y-114588915D01*
X119290837Y-114504947D01*
X119440454Y-114396245D01*
X119440459Y-114396241D01*
X119571241Y-114265459D01*
X119571245Y-114265454D01*
X119679947Y-114115837D01*
X119763915Y-113951043D01*
X119763917Y-113951037D01*
X119821067Y-113775144D01*
X119825049Y-113750000D01*
X118994975Y-113750000D01*
X119030070Y-113714905D01*
X119076148Y-113635095D01*
X119100000Y-113546078D01*
X119100000Y-113453922D01*
X119076148Y-113364905D01*
X119030070Y-113285095D01*
X118994975Y-113250000D01*
X119825050Y-113250000D01*
X119825049Y-113249999D01*
X119821067Y-113224855D01*
X119763917Y-113048962D01*
X119763915Y-113048956D01*
X119679947Y-112884162D01*
X119571245Y-112734545D01*
X119571241Y-112734540D01*
X119440459Y-112603758D01*
X119440454Y-112603754D01*
X119290837Y-112495052D01*
X119126043Y-112411084D01*
X119126040Y-112411083D01*
X118950147Y-112353933D01*
X118767473Y-112325000D01*
X118750000Y-112325000D01*
X118750000Y-113150000D01*
X118250000Y-113150000D01*
X118250000Y-112325000D01*
X118232527Y-112325000D01*
X118049852Y-112353933D01*
X117873959Y-112411083D01*
X117873956Y-112411084D01*
X117709162Y-112495052D01*
X117559545Y-112603754D01*
X117559540Y-112603758D01*
X117428758Y-112734540D01*
X117428754Y-112734545D01*
X117320052Y-112884162D01*
X117236084Y-113048956D01*
X117236082Y-113048962D01*
X117178932Y-113224855D01*
X117174950Y-113249999D01*
X116588645Y-113249999D01*
X116515589Y-113140664D01*
X116515586Y-113140660D01*
X116369339Y-112994413D01*
X116369335Y-112994410D01*
X116197368Y-112879505D01*
X116197358Y-112879500D01*
X116006274Y-112800350D01*
X116006266Y-112800348D01*
X115803420Y-112760000D01*
X115750000Y-112760000D01*
X115750000Y-113486932D01*
X115742787Y-113485000D01*
X115257213Y-113485000D01*
X115250000Y-113486932D01*
X115250000Y-112760000D01*
X115196579Y-112760000D01*
X114993733Y-112800348D01*
X114993725Y-112800350D01*
X114802641Y-112879500D01*
X114802631Y-112879505D01*
X114630664Y-112994410D01*
X114630660Y-112994413D01*
X114484413Y-113140660D01*
X114484410Y-113140664D01*
X114369505Y-113312631D01*
X114369500Y-113312641D01*
X114290351Y-113503723D01*
X114290350Y-113503725D01*
X114279157Y-113560000D01*
X111238335Y-113560000D01*
X111250500Y-113498842D01*
X111250500Y-113341158D01*
X111250500Y-113341155D01*
X111250499Y-113341153D01*
X111232367Y-113249999D01*
X111219737Y-113186503D01*
X111200750Y-113140664D01*
X111159397Y-113040827D01*
X111159390Y-113040814D01*
X111071789Y-112909711D01*
X111071786Y-112909707D01*
X110960292Y-112798213D01*
X110960288Y-112798210D01*
X110829185Y-112710609D01*
X110829172Y-112710602D01*
X110683501Y-112650264D01*
X110683489Y-112650261D01*
X110528845Y-112619500D01*
X110528842Y-112619500D01*
X110371158Y-112619500D01*
X110371155Y-112619500D01*
X110216510Y-112650261D01*
X110216498Y-112650264D01*
X110077508Y-112707835D01*
X110008038Y-112715304D01*
X109945559Y-112684028D01*
X109926954Y-112662165D01*
X109900458Y-112622512D01*
X109900455Y-112622508D01*
X109788961Y-112511014D01*
X109788957Y-112511011D01*
X109657854Y-112423410D01*
X109657841Y-112423403D01*
X109512170Y-112363065D01*
X109512158Y-112363062D01*
X109357514Y-112332301D01*
X109357511Y-112332301D01*
X109199827Y-112332301D01*
X109199824Y-112332301D01*
X109045179Y-112363062D01*
X109045167Y-112363065D01*
X108899496Y-112423403D01*
X108899483Y-112423410D01*
X108768381Y-112511010D01*
X108722296Y-112557095D01*
X108676209Y-112603182D01*
X108614889Y-112636666D01*
X108588530Y-112639500D01*
X108461155Y-112639500D01*
X108306510Y-112670261D01*
X108306498Y-112670264D01*
X108160827Y-112730602D01*
X108160814Y-112730609D01*
X108029711Y-112818210D01*
X108029707Y-112818213D01*
X107918213Y-112929707D01*
X107918210Y-112929711D01*
X107830609Y-113060814D01*
X107830602Y-113060827D01*
X107770264Y-113206498D01*
X107770261Y-113206510D01*
X107739500Y-113361153D01*
X48357880Y-113361153D01*
X48398350Y-113307093D01*
X48398353Y-113307088D01*
X48448596Y-113172379D01*
X48448598Y-113172372D01*
X48454999Y-113112844D01*
X48455000Y-113112827D01*
X48455000Y-112630000D01*
X47714560Y-112630000D01*
X47745245Y-112576853D01*
X47780000Y-112447143D01*
X47780000Y-112312857D01*
X47745245Y-112183147D01*
X47714560Y-112130000D01*
X48455000Y-112130000D01*
X48455000Y-111647172D01*
X48454999Y-111647155D01*
X48448598Y-111587627D01*
X48448596Y-111587620D01*
X48398354Y-111452913D01*
X48398350Y-111452906D01*
X48312190Y-111337812D01*
X48312187Y-111337809D01*
X48197093Y-111251649D01*
X48197086Y-111251645D01*
X48062379Y-111201403D01*
X48062372Y-111201401D01*
X48002844Y-111195000D01*
X47520000Y-111195000D01*
X47520000Y-111935439D01*
X47466853Y-111904755D01*
X47337143Y-111870000D01*
X47202857Y-111870000D01*
X47073147Y-111904755D01*
X47020000Y-111935439D01*
X47020000Y-111195000D01*
X46537155Y-111195000D01*
X46477627Y-111201401D01*
X46477620Y-111201403D01*
X46342913Y-111251645D01*
X46342906Y-111251649D01*
X46227812Y-111337809D01*
X46227809Y-111337812D01*
X46141649Y-111452906D01*
X46141645Y-111452913D01*
X46091403Y-111587620D01*
X46091401Y-111587627D01*
X46085000Y-111647155D01*
X46085000Y-112130000D01*
X46825440Y-112130000D01*
X46794755Y-112183147D01*
X46760000Y-112312857D01*
X46760000Y-112447143D01*
X46794755Y-112576853D01*
X46825440Y-112630000D01*
X46085000Y-112630000D01*
X46085000Y-113112844D01*
X46091401Y-113172372D01*
X46091403Y-113172379D01*
X46141645Y-113307086D01*
X46141649Y-113307093D01*
X46227809Y-113422187D01*
X46227812Y-113422190D01*
X46342906Y-113508350D01*
X46342913Y-113508354D01*
X46477620Y-113558596D01*
X46477627Y-113558598D01*
X46537155Y-113564999D01*
X46537172Y-113565000D01*
X46820996Y-113565000D01*
X46888035Y-113584685D01*
X46933790Y-113637489D01*
X46943734Y-113706647D01*
X46914709Y-113770203D01*
X46859314Y-113806931D01*
X46814928Y-113821352D01*
X46814925Y-113821354D01*
X46648661Y-113906069D01*
X46562531Y-113968646D01*
X46497698Y-114015751D01*
X46497696Y-114015753D01*
X46497695Y-114015753D01*
X46365753Y-114147695D01*
X46365753Y-114147696D01*
X46365751Y-114147698D01*
X46364522Y-114149390D01*
X46256069Y-114298661D01*
X46171354Y-114464925D01*
X46171352Y-114464928D01*
X46113691Y-114642390D01*
X46113691Y-114642393D01*
X46098153Y-114740499D01*
X46084500Y-114826699D01*
X45500500Y-114826699D01*
X45500500Y-98202135D01*
X46749500Y-98202135D01*
X46749500Y-101797870D01*
X46749501Y-101797876D01*
X46755908Y-101857483D01*
X46806202Y-101992328D01*
X46806206Y-101992335D01*
X46892452Y-102107544D01*
X46892455Y-102107547D01*
X47007664Y-102193793D01*
X47007671Y-102193797D01*
X47142517Y-102244091D01*
X47142516Y-102244091D01*
X47149444Y-102244835D01*
X47202127Y-102250500D01*
X50797872Y-102250499D01*
X50857483Y-102244091D01*
X50992331Y-102193796D01*
X51107546Y-102107546D01*
X51193796Y-101992331D01*
X51244091Y-101857483D01*
X51250500Y-101797873D01*
X51250499Y-99878711D01*
X55794500Y-99878711D01*
X55794500Y-100121288D01*
X55826161Y-100361785D01*
X55888947Y-100596104D01*
X55906079Y-100637463D01*
X55981776Y-100820212D01*
X56103064Y-101030289D01*
X56103066Y-101030292D01*
X56103067Y-101030293D01*
X56250733Y-101222736D01*
X56250739Y-101222743D01*
X56422256Y-101394260D01*
X56422262Y-101394265D01*
X56614711Y-101541936D01*
X56824788Y-101663224D01*
X57048900Y-101756054D01*
X57283211Y-101818838D01*
X57463586Y-101842584D01*
X57523711Y-101850500D01*
X57523712Y-101850500D01*
X57766289Y-101850500D01*
X57814388Y-101844167D01*
X58006789Y-101818838D01*
X58241100Y-101756054D01*
X58465212Y-101663224D01*
X58675289Y-101541936D01*
X58867738Y-101394265D01*
X59039265Y-101222738D01*
X59186936Y-101030289D01*
X59308224Y-100820212D01*
X59401054Y-100596100D01*
X59463838Y-100361789D01*
X59495500Y-100121288D01*
X59495500Y-99878712D01*
X59495500Y-99878711D01*
X111404500Y-99878711D01*
X111404500Y-100121288D01*
X111436161Y-100361785D01*
X111498947Y-100596104D01*
X111516079Y-100637463D01*
X111591776Y-100820212D01*
X111713064Y-101030289D01*
X111713066Y-101030292D01*
X111713067Y-101030293D01*
X111860733Y-101222736D01*
X111860739Y-101222743D01*
X112032256Y-101394260D01*
X112032262Y-101394265D01*
X112224711Y-101541936D01*
X112434788Y-101663224D01*
X112658900Y-101756054D01*
X112893211Y-101818838D01*
X113073586Y-101842584D01*
X113133711Y-101850500D01*
X113133712Y-101850500D01*
X113376289Y-101850500D01*
X113424388Y-101844167D01*
X113616789Y-101818838D01*
X113851100Y-101756054D01*
X114075212Y-101663224D01*
X114285289Y-101541936D01*
X114477738Y-101394265D01*
X114649265Y-101222738D01*
X114796936Y-101030289D01*
X114918224Y-100820212D01*
X115011054Y-100596100D01*
X115073838Y-100361789D01*
X115105500Y-100121288D01*
X115105500Y-99878712D01*
X115102054Y-99852533D01*
X118750000Y-99852533D01*
X118750000Y-100147466D01*
X118750001Y-100147483D01*
X118788496Y-100439884D01*
X118788499Y-100439897D01*
X118864835Y-100724790D01*
X118864838Y-100724800D01*
X118977704Y-100997281D01*
X118977709Y-100997292D01*
X119125174Y-101252707D01*
X119125180Y-101252715D01*
X119241777Y-101404667D01*
X120137425Y-100509019D01*
X120223249Y-100637463D01*
X120362537Y-100776751D01*
X120490979Y-100862573D01*
X119595331Y-101758221D01*
X119747284Y-101874819D01*
X119747292Y-101874825D01*
X120002707Y-102022290D01*
X120002718Y-102022295D01*
X120275199Y-102135161D01*
X120275209Y-102135164D01*
X120560102Y-102211500D01*
X120560115Y-102211503D01*
X120852516Y-102249998D01*
X120852534Y-102250000D01*
X121147466Y-102250000D01*
X121147483Y-102249998D01*
X121439884Y-102211503D01*
X121439897Y-102211500D01*
X121724790Y-102135164D01*
X121724800Y-102135161D01*
X121997281Y-102022295D01*
X121997292Y-102022290D01*
X122252707Y-101874825D01*
X122252725Y-101874813D01*
X122404667Y-101758222D01*
X122404667Y-101758220D01*
X121509020Y-100862573D01*
X121637463Y-100776751D01*
X121776751Y-100637463D01*
X121862573Y-100509020D01*
X122758220Y-101404667D01*
X122758222Y-101404667D01*
X122874813Y-101252725D01*
X122874825Y-101252707D01*
X123022290Y-100997292D01*
X123022295Y-100997281D01*
X123135161Y-100724800D01*
X123135164Y-100724790D01*
X123211500Y-100439897D01*
X123211503Y-100439884D01*
X123249998Y-100147483D01*
X123250000Y-100147466D01*
X123250000Y-99852533D01*
X123249998Y-99852516D01*
X123211503Y-99560115D01*
X123211500Y-99560102D01*
X123135164Y-99275209D01*
X123135161Y-99275199D01*
X123022295Y-99002718D01*
X123022290Y-99002707D01*
X122874825Y-98747292D01*
X122874819Y-98747284D01*
X122758221Y-98595331D01*
X121862573Y-99490979D01*
X121776751Y-99362537D01*
X121637463Y-99223249D01*
X121509020Y-99137425D01*
X122404667Y-98241777D01*
X122252715Y-98125180D01*
X122252707Y-98125174D01*
X121997292Y-97977709D01*
X121997281Y-97977704D01*
X121724800Y-97864838D01*
X121724790Y-97864835D01*
X121439897Y-97788499D01*
X121439884Y-97788496D01*
X121147483Y-97750001D01*
X121147466Y-97750000D01*
X120852534Y-97750000D01*
X120852516Y-97750001D01*
X120560115Y-97788496D01*
X120560102Y-97788499D01*
X120275209Y-97864835D01*
X120275199Y-97864838D01*
X120002718Y-97977704D01*
X120002707Y-97977709D01*
X119747292Y-98125174D01*
X119747276Y-98125185D01*
X119595331Y-98241775D01*
X119595331Y-98241777D01*
X120490979Y-99137425D01*
X120362537Y-99223249D01*
X120223249Y-99362537D01*
X120137425Y-99490979D01*
X119241777Y-98595331D01*
X119241775Y-98595331D01*
X119125185Y-98747276D01*
X119125174Y-98747292D01*
X118977709Y-99002707D01*
X118977704Y-99002718D01*
X118864838Y-99275199D01*
X118864835Y-99275209D01*
X118788499Y-99560102D01*
X118788496Y-99560115D01*
X118750001Y-99852516D01*
X118750000Y-99852533D01*
X115102054Y-99852533D01*
X115073838Y-99638211D01*
X115011054Y-99403900D01*
X114918224Y-99179788D01*
X114796936Y-98969711D01*
X114649265Y-98777262D01*
X114649260Y-98777256D01*
X114477743Y-98605739D01*
X114477736Y-98605733D01*
X114285293Y-98458067D01*
X114285292Y-98458066D01*
X114285289Y-98458064D01*
X114075212Y-98336776D01*
X114075205Y-98336773D01*
X113851104Y-98243947D01*
X113616785Y-98181161D01*
X113376289Y-98149500D01*
X113376288Y-98149500D01*
X113133712Y-98149500D01*
X113133711Y-98149500D01*
X112893214Y-98181161D01*
X112658895Y-98243947D01*
X112434794Y-98336773D01*
X112434785Y-98336777D01*
X112224706Y-98458067D01*
X112032263Y-98605733D01*
X112032256Y-98605739D01*
X111860739Y-98777256D01*
X111860733Y-98777263D01*
X111713067Y-98969706D01*
X111591777Y-99179785D01*
X111591773Y-99179794D01*
X111498947Y-99403895D01*
X111436161Y-99638214D01*
X111404500Y-99878711D01*
X59495500Y-99878711D01*
X59463838Y-99638211D01*
X59401054Y-99403900D01*
X59308224Y-99179788D01*
X59186936Y-98969711D01*
X59039265Y-98777262D01*
X59039260Y-98777256D01*
X58867743Y-98605739D01*
X58867736Y-98605733D01*
X58675293Y-98458067D01*
X58675292Y-98458066D01*
X58675289Y-98458064D01*
X58465212Y-98336776D01*
X58465205Y-98336773D01*
X58241104Y-98243947D01*
X58006785Y-98181161D01*
X57766289Y-98149500D01*
X57766288Y-98149500D01*
X57523712Y-98149500D01*
X57523711Y-98149500D01*
X57283214Y-98181161D01*
X57048895Y-98243947D01*
X56824794Y-98336773D01*
X56824785Y-98336777D01*
X56614706Y-98458067D01*
X56422263Y-98605733D01*
X56422256Y-98605739D01*
X56250739Y-98777256D01*
X56250733Y-98777263D01*
X56103067Y-98969706D01*
X55981777Y-99179785D01*
X55981773Y-99179794D01*
X55888947Y-99403895D01*
X55826161Y-99638214D01*
X55794500Y-99878711D01*
X51250499Y-99878711D01*
X51250499Y-98202128D01*
X51244091Y-98142517D01*
X51237622Y-98125174D01*
X51193797Y-98007671D01*
X51193793Y-98007664D01*
X51107547Y-97892455D01*
X51107544Y-97892452D01*
X50992335Y-97806206D01*
X50992328Y-97806202D01*
X50857482Y-97755908D01*
X50857483Y-97755908D01*
X50797883Y-97749501D01*
X50797881Y-97749500D01*
X50797873Y-97749500D01*
X50797864Y-97749500D01*
X47202129Y-97749500D01*
X47202123Y-97749501D01*
X47142516Y-97755908D01*
X47007671Y-97806202D01*
X47007664Y-97806206D01*
X46892455Y-97892452D01*
X46892452Y-97892455D01*
X46806206Y-98007664D01*
X46806202Y-98007671D01*
X46755908Y-98142517D01*
X46751754Y-98181161D01*
X46749501Y-98202123D01*
X46749500Y-98202135D01*
X45500500Y-98202135D01*
X45500500Y-90002706D01*
X45500618Y-89997297D01*
X45503377Y-89934108D01*
X45517386Y-89613226D01*
X45518326Y-89602495D01*
X45568152Y-89224025D01*
X45570025Y-89213405D01*
X45652649Y-88840709D01*
X45655440Y-88830295D01*
X45770230Y-88466227D01*
X45773917Y-88456095D01*
X45920003Y-88103412D01*
X45924561Y-88093638D01*
X46100822Y-87755045D01*
X46106217Y-87745700D01*
X46311325Y-87423744D01*
X46317515Y-87414905D01*
X46549896Y-87112060D01*
X46556834Y-87103791D01*
X46814726Y-86822352D01*
X46822352Y-86814726D01*
X47103791Y-86556834D01*
X47112060Y-86549896D01*
X47414905Y-86317515D01*
X47423744Y-86311325D01*
X47745700Y-86106217D01*
X47755045Y-86100822D01*
X48093638Y-85924561D01*
X48103412Y-85920003D01*
X48456095Y-85773917D01*
X48466227Y-85770230D01*
X48830295Y-85655440D01*
X48840709Y-85652649D01*
X49213405Y-85570025D01*
X49224025Y-85568152D01*
X49602495Y-85518326D01*
X49613226Y-85517386D01*
X49997297Y-85500617D01*
X50002706Y-85500500D01*
X50065892Y-85500500D01*
X119934108Y-85500500D01*
X119997294Y-85500500D01*
X120002702Y-85500617D01*
G37*
%TD.AperFunction*%
%TD*%
M02*
