%TF.GenerationSoftware,KiCad,Pcbnew,9.0.0*%
%TF.CreationDate,2025-06-11T08:44:37+09:00*%
%TF.ProjectId,FLP_PCB_terminal,464c505f-5043-4425-9f74-65726d696e61,rev?*%
%TF.SameCoordinates,Original*%
%TF.FileFunction,Soldermask,Top*%
%TF.FilePolarity,Negative*%
%FSLAX46Y46*%
G04 Gerber Fmt 4.6, Leading zero omitted, Abs format (unit mm)*
G04 Created by KiCad (PCBNEW 9.0.0) date 2025-06-11 08:44:37*
%MOMM*%
%LPD*%
G01*
G04 APERTURE LIST*
G04 Aperture macros list*
%AMRoundRect*
0 Rectangle with rounded corners*
0 $1 Rounding radius*
0 $2 $3 $4 $5 $6 $7 $8 $9 X,Y pos of 4 corners*
0 Add a 4 corners polygon primitive as box body*
4,1,4,$2,$3,$4,$5,$6,$7,$8,$9,$2,$3,0*
0 Add four circle primitives for the rounded corners*
1,1,$1+$1,$2,$3*
1,1,$1+$1,$4,$5*
1,1,$1+$1,$6,$7*
1,1,$1+$1,$8,$9*
0 Add four rect primitives between the rounded corners*
20,1,$1+$1,$2,$3,$4,$5,0*
20,1,$1+$1,$4,$5,$6,$7,0*
20,1,$1+$1,$6,$7,$8,$9,0*
20,1,$1+$1,$8,$9,$2,$3,0*%
G04 Aperture macros list end*
%ADD10RoundRect,0.140000X-0.140000X-0.170000X0.140000X-0.170000X0.140000X0.170000X-0.140000X0.170000X0*%
%ADD11RoundRect,0.225000X0.225000X0.250000X-0.225000X0.250000X-0.225000X-0.250000X0.225000X-0.250000X0*%
%ADD12RoundRect,0.225000X-0.225000X-0.250000X0.225000X-0.250000X0.225000X0.250000X-0.225000X0.250000X0*%
%ADD13O,2.704000X1.204000*%
%ADD14RoundRect,0.250000X-1.075000X0.375000X-1.075000X-0.375000X1.075000X-0.375000X1.075000X0.375000X0*%
%ADD15RoundRect,0.250000X0.250000X0.475000X-0.250000X0.475000X-0.250000X-0.475000X0.250000X-0.475000X0*%
%ADD16RoundRect,0.135000X-0.135000X-0.185000X0.135000X-0.185000X0.135000X0.185000X-0.135000X0.185000X0*%
%ADD17RoundRect,0.102000X-0.525000X-0.325000X0.525000X-0.325000X0.525000X0.325000X-0.525000X0.325000X0*%
%ADD18RoundRect,0.200000X-0.200000X-0.275000X0.200000X-0.275000X0.200000X0.275000X-0.200000X0.275000X0*%
%ADD19RoundRect,0.102000X-0.300000X0.245000X-0.300000X-0.245000X0.300000X-0.245000X0.300000X0.245000X0*%
%ADD20RoundRect,0.250000X-0.312500X-1.075000X0.312500X-1.075000X0.312500X1.075000X-0.312500X1.075000X0*%
%ADD21RoundRect,0.102000X-1.150000X-0.775000X1.150000X-0.775000X1.150000X0.775000X-1.150000X0.775000X0*%
%ADD22R,1.800000X1.000000*%
%ADD23RoundRect,0.102000X0.279400X-0.635000X0.279400X0.635000X-0.279400X0.635000X-0.279400X-0.635000X0*%
%ADD24RoundRect,0.093750X0.156250X0.093750X-0.156250X0.093750X-0.156250X-0.093750X0.156250X-0.093750X0*%
%ADD25RoundRect,0.075000X0.250000X0.075000X-0.250000X0.075000X-0.250000X-0.075000X0.250000X-0.075000X0*%
%ADD26RoundRect,0.250000X-0.250000X-0.475000X0.250000X-0.475000X0.250000X0.475000X-0.250000X0.475000X0*%
%ADD27RoundRect,0.075000X-0.075000X0.312500X-0.075000X-0.312500X0.075000X-0.312500X0.075000X0.312500X0*%
%ADD28RoundRect,0.075000X-0.312500X0.075000X-0.312500X-0.075000X0.312500X-0.075000X0.312500X0.075000X0*%
%ADD29R,4.800000X4.800000*%
%ADD30RoundRect,0.225000X-0.250000X0.225000X-0.250000X-0.225000X0.250000X-0.225000X0.250000X0.225000X0*%
%ADD31RoundRect,0.200000X0.200000X0.275000X-0.200000X0.275000X-0.200000X-0.275000X0.200000X-0.275000X0*%
%ADD32RoundRect,0.102000X0.900000X-0.600000X0.900000X0.600000X-0.900000X0.600000X-0.900000X-0.600000X0*%
%ADD33RoundRect,0.102000X0.570000X0.735000X-0.570000X0.735000X-0.570000X-0.735000X0.570000X-0.735000X0*%
%ADD34RoundRect,0.121000X-0.761000X-0.121000X0.761000X-0.121000X0.761000X0.121000X-0.761000X0.121000X0*%
%ADD35RoundRect,0.121000X-0.121000X-0.761000X0.121000X-0.761000X0.121000X0.761000X-0.121000X0.761000X0*%
%ADD36R,0.900000X0.800000*%
%ADD37RoundRect,0.375000X-0.625000X-0.375000X0.625000X-0.375000X0.625000X0.375000X-0.625000X0.375000X0*%
%ADD38RoundRect,0.500000X-0.500000X-1.400000X0.500000X-1.400000X0.500000X1.400000X-0.500000X1.400000X0*%
%ADD39R,1.650000X0.400000*%
%ADD40R,0.700000X1.825000*%
%ADD41R,1.500000X2.000000*%
%ADD42R,2.000000X1.350000*%
%ADD43O,1.700000X1.350000*%
%ADD44O,1.500000X1.100000*%
%ADD45R,2.500000X1.430000*%
%ADD46RoundRect,0.102000X0.500000X-1.600000X0.500000X1.600000X-0.500000X1.600000X-0.500000X-1.600000X0*%
%ADD47C,3.200000*%
%ADD48R,3.500000X3.500000*%
%ADD49C,3.500000*%
%ADD50R,0.280000X0.280000*%
%ADD51O,0.280000X0.850000*%
%ADD52C,0.600000*%
%ADD53R,1.050000X0.680000*%
%ADD54R,0.500000X0.260000*%
%ADD55R,0.700000X0.280000*%
%ADD56R,2.400000X1.650000*%
%ADD57RoundRect,0.062500X0.350000X0.062500X-0.350000X0.062500X-0.350000X-0.062500X0.350000X-0.062500X0*%
%ADD58RoundRect,0.062500X0.062500X0.350000X-0.062500X0.350000X-0.062500X-0.350000X0.062500X-0.350000X0*%
%ADD59R,2.600000X2.600000*%
%ADD60C,0.650000*%
%ADD61RoundRect,0.090000X0.490000X-0.300000X0.490000X0.300000X-0.490000X0.300000X-0.490000X-0.300000X0*%
%ADD62RoundRect,0.090000X0.500000X-0.300000X0.500000X0.300000X-0.500000X0.300000X-0.500000X-0.300000X0*%
%ADD63RoundRect,0.090000X0.570000X-0.150000X0.570000X0.150000X-0.570000X0.150000X-0.570000X-0.150000X0*%
%ADD64O,2.304000X1.254000*%
%ADD65O,2.004000X1.104000*%
%ADD66R,2.000000X2.000000*%
%ADD67C,2.000000*%
%ADD68RoundRect,0.200000X0.275000X-0.200000X0.275000X0.200000X-0.275000X0.200000X-0.275000X-0.200000X0*%
%ADD69C,2.604000*%
%ADD70RoundRect,0.102000X0.685000X-0.685000X0.685000X0.685000X-0.685000X0.685000X-0.685000X-0.685000X0*%
%ADD71C,1.574000*%
%ADD72RoundRect,0.100500X0.651500X0.301500X-0.651500X0.301500X-0.651500X-0.301500X0.651500X-0.301500X0*%
G04 APERTURE END LIST*
D10*
%TO.C,C6*%
X72710000Y-141430000D03*
X73670000Y-141430000D03*
%TD*%
D11*
%TO.C,C19*%
X90745000Y-122320000D03*
X89195000Y-122320000D03*
%TD*%
D12*
%TO.C,C31*%
X74480000Y-159970000D03*
X76030000Y-159970000D03*
%TD*%
D13*
%TO.C,U3*%
X66020000Y-158190000D03*
X66020000Y-155650000D03*
X66020000Y-153110000D03*
X66020000Y-150570000D03*
X66020000Y-148030000D03*
X66020000Y-145490000D03*
X50520000Y-145490000D03*
X50520000Y-148030000D03*
X50520000Y-150570000D03*
X50520000Y-153110000D03*
X50520000Y-155650000D03*
X50520000Y-158190000D03*
%TD*%
D14*
%TO.C,L1*%
X109770000Y-122970000D03*
X109770000Y-125770000D03*
%TD*%
D12*
%TO.C,C28*%
X59215000Y-134310000D03*
X60765000Y-134310000D03*
%TD*%
D15*
%TO.C,C20*%
X90970000Y-117820000D03*
X89070000Y-117820000D03*
%TD*%
D11*
%TO.C,C11*%
X90745000Y-124340000D03*
X89195000Y-124340000D03*
%TD*%
D16*
%TO.C,R16*%
X94180000Y-155530000D03*
X95200000Y-155530000D03*
%TD*%
D17*
%TO.C,ID1*%
X116075000Y-139095000D03*
X120225000Y-139095000D03*
X116075000Y-141245000D03*
X120225000Y-141245000D03*
%TD*%
D18*
%TO.C,R19*%
X107920000Y-141230000D03*
X109570000Y-141230000D03*
%TD*%
D19*
%TO.C,C22*%
X54720000Y-118356000D03*
X54720000Y-119270000D03*
%TD*%
D16*
%TO.C,R9*%
X94170000Y-153100000D03*
X95190000Y-153100000D03*
%TD*%
D20*
%TO.C,R13*%
X96037500Y-121210000D03*
X98962500Y-121210000D03*
%TD*%
D21*
%TO.C,D1*%
X107870000Y-128510000D03*
X103570000Y-128510000D03*
%TD*%
D22*
%TO.C,Y3*%
X72350000Y-159910000D03*
X72350000Y-162410000D03*
%TD*%
D12*
%TO.C,C8*%
X89160000Y-129660000D03*
X90710000Y-129660000D03*
%TD*%
%TO.C,C9*%
X73655000Y-128210000D03*
X75205000Y-128210000D03*
%TD*%
D10*
%TO.C,C26*%
X59510000Y-136780000D03*
X60470000Y-136780000D03*
%TD*%
D23*
%TO.C,U4*%
X108560200Y-117295400D03*
X109500000Y-117295400D03*
X110439800Y-117295400D03*
X110439800Y-114704600D03*
X108560200Y-114704600D03*
%TD*%
D12*
%TO.C,C18*%
X93950000Y-147760000D03*
X95500000Y-147760000D03*
%TD*%
D24*
%TO.C,U7*%
X111880000Y-154985000D03*
D25*
X111955000Y-154447500D03*
D24*
X111880000Y-153910000D03*
X110180000Y-153910000D03*
D25*
X110105000Y-154447500D03*
D24*
X110180000Y-154985000D03*
%TD*%
D26*
%TO.C,C29*%
X59120000Y-138420000D03*
X61020000Y-138420000D03*
%TD*%
D16*
%TO.C,R8*%
X94180000Y-154380000D03*
X95200000Y-154380000D03*
%TD*%
D11*
%TO.C,C17*%
X95470000Y-149420000D03*
X93920000Y-149420000D03*
%TD*%
D27*
%TO.C,U8*%
X84700000Y-136062500D03*
X84050000Y-136062500D03*
X83400000Y-136062500D03*
X82750000Y-136062500D03*
X82100000Y-136062500D03*
X81450000Y-136062500D03*
X80800000Y-136062500D03*
D28*
X79762500Y-137100000D03*
X79762500Y-137750000D03*
X79762500Y-138400000D03*
X79762500Y-139050000D03*
X79762500Y-139700000D03*
X79762500Y-140350000D03*
X79762500Y-141000000D03*
D27*
X80800000Y-142037500D03*
X81450000Y-142037500D03*
X82100000Y-142037500D03*
X82750000Y-142037500D03*
X83400000Y-142037500D03*
X84050000Y-142037500D03*
X84700000Y-142037500D03*
D28*
X85737500Y-141000000D03*
X85737500Y-140350000D03*
X85737500Y-139700000D03*
X85737500Y-139050000D03*
X85737500Y-138400000D03*
X85737500Y-137750000D03*
X85737500Y-137100000D03*
D29*
X82750000Y-139050000D03*
%TD*%
D30*
%TO.C,C24*%
X56610000Y-114065000D03*
X56610000Y-115615000D03*
%TD*%
D26*
%TO.C,C1*%
X89030000Y-113220000D03*
X90930000Y-113220000D03*
%TD*%
D18*
%TO.C,R10*%
X96850000Y-130010000D03*
X98500000Y-130010000D03*
%TD*%
D31*
%TO.C,F1*%
X108040000Y-147350000D03*
X106390000Y-147350000D03*
%TD*%
D17*
%TO.C,S1*%
X46946500Y-123455000D03*
X51096500Y-123455000D03*
X46946500Y-125605000D03*
X51096500Y-125605000D03*
%TD*%
D32*
%TO.C,Y1*%
X71790000Y-148170000D03*
X75790000Y-148170000D03*
X75790000Y-145770000D03*
X71790000Y-145770000D03*
%TD*%
D33*
%TO.C,FL1*%
X103973000Y-147383000D03*
X102193000Y-147383000D03*
%TD*%
D18*
%TO.C,R7*%
X96850000Y-127500000D03*
X98500000Y-127500000D03*
%TD*%
%TO.C,R11*%
X72455000Y-139870000D03*
X74105000Y-139870000D03*
%TD*%
D12*
%TO.C,C12*%
X94000000Y-144380000D03*
X95550000Y-144380000D03*
%TD*%
D18*
%TO.C,R4*%
X70695000Y-152950000D03*
X72345000Y-152950000D03*
%TD*%
D16*
%TO.C,R17*%
X94160000Y-156740000D03*
X95180000Y-156740000D03*
%TD*%
D17*
%TO.C,Find_Host1*%
X116075000Y-134345000D03*
X120225000Y-134345000D03*
X116075000Y-136495000D03*
X120225000Y-136495000D03*
%TD*%
D20*
%TO.C,R12*%
X96037500Y-117000000D03*
X98962500Y-117000000D03*
%TD*%
D34*
%TO.C,U2*%
X79250000Y-150770000D03*
X79250000Y-151270000D03*
X79250000Y-151770000D03*
X79250000Y-152270000D03*
X79250000Y-152770000D03*
X79250000Y-153270000D03*
X79250000Y-153770000D03*
X79250000Y-154270000D03*
X79250000Y-154770000D03*
X79250000Y-155270000D03*
X79250000Y-155770000D03*
X79250000Y-156270000D03*
D35*
X80680000Y-157700000D03*
X81180000Y-157700000D03*
X81680000Y-157700000D03*
X82180000Y-157700000D03*
X82680000Y-157700000D03*
X83180000Y-157700000D03*
X83680000Y-157700000D03*
X84180000Y-157700000D03*
X84680000Y-157700000D03*
X85180000Y-157700000D03*
X85680000Y-157700000D03*
X86180000Y-157700000D03*
D34*
X87610000Y-156270000D03*
X87610000Y-155770000D03*
X87610000Y-155270000D03*
X87610000Y-154770000D03*
X87610000Y-154270000D03*
X87610000Y-153770000D03*
X87610000Y-153270000D03*
X87610000Y-152770000D03*
X87610000Y-152270000D03*
X87610000Y-151770000D03*
X87610000Y-151270000D03*
X87610000Y-150770000D03*
D35*
X86180000Y-149340000D03*
X85680000Y-149340000D03*
X85180000Y-149340000D03*
X84680000Y-149340000D03*
X84180000Y-149340000D03*
X83680000Y-149340000D03*
X83180000Y-149340000D03*
X82680000Y-149340000D03*
X82180000Y-149340000D03*
X81680000Y-149340000D03*
X81180000Y-149340000D03*
X80680000Y-149340000D03*
%TD*%
D36*
%TO.C,Y2*%
X66060000Y-136740000D03*
X67460000Y-136740000D03*
X67460000Y-135640000D03*
%TD*%
D18*
%TO.C,R6*%
X96850000Y-124990000D03*
X98500000Y-124990000D03*
%TD*%
D37*
%TO.C,U1*%
X113850000Y-123587500D03*
X113850000Y-125887500D03*
D38*
X120150000Y-125887500D03*
D37*
X113850000Y-128187500D03*
%TD*%
D39*
%TO.C,Charger1*%
X115620000Y-117530000D03*
X115620000Y-116880000D03*
X115620000Y-116230000D03*
X115620000Y-115580000D03*
X115620000Y-114930000D03*
D40*
X116820000Y-119180000D03*
D41*
X115520000Y-119080000D03*
D42*
X117570000Y-118960000D03*
D43*
X118500000Y-118960000D03*
D44*
X115500000Y-118650000D03*
D45*
X118770000Y-117190000D03*
X118770000Y-115270000D03*
D44*
X115500000Y-113810000D03*
D43*
X118500000Y-113500000D03*
D42*
X117570000Y-113480000D03*
D41*
X115500000Y-113330000D03*
D40*
X116820000Y-113230000D03*
%TD*%
D46*
%TO.C,L2*%
X72150000Y-132740000D03*
X74350000Y-132740000D03*
%TD*%
D12*
%TO.C,C27*%
X59235000Y-132680000D03*
X60785000Y-132680000D03*
%TD*%
D26*
%TO.C,C16*%
X94075000Y-142350000D03*
X95975000Y-142350000D03*
%TD*%
D16*
%TO.C,R3*%
X70990000Y-154480000D03*
X72010000Y-154480000D03*
%TD*%
D17*
%TO.C,S2*%
X46946500Y-128205000D03*
X51096500Y-128205000D03*
X46946500Y-130355000D03*
X51096500Y-130355000D03*
%TD*%
D12*
%TO.C,C14*%
X93960000Y-146080000D03*
X95510000Y-146080000D03*
%TD*%
D47*
%TO.C,BT1*%
X57645000Y-100000000D03*
X113255000Y-100000000D03*
D48*
X49000000Y-100000000D03*
D49*
X121000000Y-100000000D03*
%TD*%
D50*
%TO.C,U6*%
X103000000Y-124760000D03*
D51*
X103000000Y-124475000D03*
D50*
X103500000Y-124760000D03*
D51*
X103500000Y-124475000D03*
D50*
X104000000Y-124760000D03*
D51*
X104000000Y-124475000D03*
D50*
X104500000Y-124760000D03*
D51*
X104500000Y-124475000D03*
D50*
X105000000Y-124760000D03*
D51*
X105000000Y-124475000D03*
X105000000Y-121525000D03*
D50*
X105000000Y-121240000D03*
D51*
X104500000Y-121525000D03*
D50*
X104500000Y-121240000D03*
D51*
X104000000Y-121525000D03*
D50*
X104000000Y-121240000D03*
D51*
X103500000Y-121525000D03*
D50*
X103500000Y-121240000D03*
D51*
X103000000Y-121525000D03*
D50*
X103000000Y-121240000D03*
D52*
X103250000Y-123500000D03*
X104750000Y-123500000D03*
D53*
X103365000Y-123450000D03*
X104635000Y-123450000D03*
D54*
X102370000Y-123250000D03*
D55*
X102450000Y-123250000D03*
X105550000Y-123250000D03*
D54*
X105630000Y-123250000D03*
D52*
X104000000Y-123000000D03*
D56*
X104000000Y-123000000D03*
D54*
X102370000Y-122750000D03*
D55*
X102450000Y-122750000D03*
X105550000Y-122750000D03*
D54*
X105630000Y-122750000D03*
D53*
X103365000Y-122550000D03*
X104635000Y-122550000D03*
D52*
X103250000Y-122500000D03*
X104750000Y-122500000D03*
%TD*%
D57*
%TO.C,U5*%
X107335000Y-155580000D03*
X107335000Y-155080000D03*
X107335000Y-154580000D03*
X107335000Y-154080000D03*
X107335000Y-153580000D03*
X107335000Y-153080000D03*
D58*
X106647500Y-152392500D03*
X106147500Y-152392500D03*
X105647500Y-152392500D03*
X105147500Y-152392500D03*
X104647500Y-152392500D03*
X104147500Y-152392500D03*
D57*
X103460000Y-153080000D03*
X103460000Y-153580000D03*
X103460000Y-154080000D03*
X103460000Y-154580000D03*
X103460000Y-155080000D03*
X103460000Y-155580000D03*
D58*
X104147500Y-156267500D03*
X104647500Y-156267500D03*
X105147500Y-156267500D03*
X105647500Y-156267500D03*
X106147500Y-156267500D03*
X106647500Y-156267500D03*
D59*
X105397500Y-154330000D03*
%TD*%
D60*
%TO.C,UART1*%
X116320000Y-157140000D03*
X116320000Y-151360000D03*
D61*
X115250000Y-157450000D03*
D62*
X115250000Y-156650000D03*
D63*
X115250000Y-155500000D03*
X115250000Y-154500000D03*
X115250000Y-154000000D03*
X115250000Y-153000000D03*
D61*
X115250000Y-151050000D03*
D62*
X115250000Y-151850000D03*
D63*
X115250000Y-152500000D03*
X115250000Y-153500000D03*
X115250000Y-155000000D03*
X115250000Y-156000000D03*
D64*
X115820000Y-158570000D03*
X115820000Y-149930000D03*
D65*
X120000000Y-158570000D03*
X120000000Y-149930000D03*
%TD*%
D15*
%TO.C,C13*%
X95955000Y-140140000D03*
X94055000Y-140140000D03*
%TD*%
D66*
%TO.C,BZ1*%
X71280000Y-118250000D03*
D67*
X78880000Y-118250000D03*
%TD*%
D10*
%TO.C,C7*%
X72710000Y-142740000D03*
X73670000Y-142740000D03*
%TD*%
D11*
%TO.C,C3*%
X90745000Y-126320000D03*
X89195000Y-126320000D03*
%TD*%
D10*
%TO.C,C25*%
X59510000Y-135640000D03*
X60470000Y-135640000D03*
%TD*%
D19*
%TO.C,C21*%
X53470000Y-118356000D03*
X53470000Y-119270000D03*
%TD*%
D68*
%TO.C,R15*%
X53380000Y-115710000D03*
X53380000Y-114060000D03*
%TD*%
D69*
%TO.C,J1*%
X50840000Y-136340000D03*
X53380000Y-138880000D03*
X53380000Y-133800000D03*
X48300000Y-133800000D03*
X48300000Y-138880000D03*
%TD*%
D26*
%TO.C,C10*%
X88970000Y-133650000D03*
X90870000Y-133650000D03*
%TD*%
D11*
%TO.C,C32*%
X58180000Y-127300000D03*
X56630000Y-127300000D03*
%TD*%
D18*
%TO.C,R5*%
X70785000Y-151200000D03*
X72435000Y-151200000D03*
%TD*%
D31*
%TO.C,R1*%
X58230000Y-123740000D03*
X56580000Y-123740000D03*
%TD*%
D18*
%TO.C,R14*%
X93835000Y-151560000D03*
X95485000Y-151560000D03*
%TD*%
D70*
%TO.C,J2*%
X47270000Y-112380000D03*
D71*
X47270000Y-114920000D03*
X47270000Y-117460000D03*
X47270000Y-120000000D03*
%TD*%
D18*
%TO.C,R20*%
X107940000Y-139460000D03*
X109590000Y-139460000D03*
%TD*%
D12*
%TO.C,C30*%
X74520000Y-162330000D03*
X76070000Y-162330000D03*
%TD*%
D31*
%TO.C,R2*%
X58220000Y-125540000D03*
X56570000Y-125540000D03*
%TD*%
D72*
%TO.C,Q1*%
X104525000Y-116950000D03*
X104525000Y-115050000D03*
X102475000Y-116000000D03*
%TD*%
D26*
%TO.C,C2*%
X89020000Y-115360000D03*
X90920000Y-115360000D03*
%TD*%
D30*
%TO.C,C23*%
X58260000Y-114052000D03*
X58260000Y-115602000D03*
%TD*%
D11*
%TO.C,C15*%
X90745000Y-120320000D03*
X89195000Y-120320000D03*
%TD*%
D26*
%TO.C,C5*%
X88950000Y-131490000D03*
X90850000Y-131490000D03*
%TD*%
D68*
%TO.C,R18*%
X55020000Y-115675000D03*
X55020000Y-114025000D03*
%TD*%
D12*
%TO.C,C4*%
X89215000Y-128040000D03*
X90765000Y-128040000D03*
%TD*%
M02*
