%TF.GenerationSoftware,KiCad,Pcbnew,9.0.0*%
%TF.CreationDate,2025-06-11T08:44:37+09:00*%
%TF.ProjectId,FLP_PCB_terminal,464c505f-5043-4425-9f74-65726d696e61,rev?*%
%TF.SameCoordinates,Original*%
%TF.FileFunction,Copper,L4,Bot*%
%TF.FilePolarity,Positive*%
%FSLAX46Y46*%
G04 Gerber Fmt 4.6, Leading zero omitted, Abs format (unit mm)*
G04 Created by KiCad (PCBNEW 9.0.0) date 2025-06-11 08:44:37*
%MOMM*%
%LPD*%
G01*
G04 APERTURE LIST*
%TA.AperFunction,HeatsinkPad*%
%ADD10O,1.700000X1.350000*%
%TD*%
%TA.AperFunction,HeatsinkPad*%
%ADD11O,1.500000X1.100000*%
%TD*%
%TA.AperFunction,ComponentPad*%
%ADD12R,3.500000X3.500000*%
%TD*%
%TA.AperFunction,ComponentPad*%
%ADD13C,3.500000*%
%TD*%
%TA.AperFunction,ComponentPad*%
%ADD14C,0.600000*%
%TD*%
%TA.AperFunction,SMDPad,CuDef*%
%ADD15R,2.800000X2.300000*%
%TD*%
%TA.AperFunction,ComponentPad*%
%ADD16O,2.100000X1.050000*%
%TD*%
%TA.AperFunction,ComponentPad*%
%ADD17O,1.800000X0.900000*%
%TD*%
%TA.AperFunction,ComponentPad*%
%ADD18R,2.000000X2.000000*%
%TD*%
%TA.AperFunction,ComponentPad*%
%ADD19C,2.000000*%
%TD*%
%TA.AperFunction,ComponentPad*%
%ADD20C,2.400000*%
%TD*%
%TA.AperFunction,ComponentPad*%
%ADD21R,1.370000X1.370000*%
%TD*%
%TA.AperFunction,ComponentPad*%
%ADD22C,1.370000*%
%TD*%
%TA.AperFunction,ViaPad*%
%ADD23C,0.600000*%
%TD*%
%TA.AperFunction,Conductor*%
%ADD24C,0.200000*%
%TD*%
G04 APERTURE END LIST*
D10*
%TO.P,Charger1,6,Shield*%
%TO.N,GND*%
X118500000Y-118960000D03*
D11*
X115500000Y-118650000D03*
X115500000Y-113810000D03*
D10*
X118500000Y-113500000D03*
%TD*%
D12*
%TO.P,BT1,1,+*%
%TO.N,Net-(BT1-+)*%
X49000000Y-100000000D03*
D13*
%TO.P,BT1,2,-*%
%TO.N,GND*%
X121000000Y-100000000D03*
%TD*%
D14*
%TO.P,U6,11,PAD*%
%TO.N,GND*%
X103250000Y-123500000D03*
X104750000Y-123500000D03*
X104000000Y-123000000D03*
D15*
X104000000Y-123000000D03*
D14*
X103250000Y-122500000D03*
X104750000Y-122500000D03*
%TD*%
D16*
%TO.P,UART1,SH1*%
%TO.N,N/C*%
X115820000Y-158570000D03*
%TO.P,UART1,SH2*%
X115820000Y-149930000D03*
D17*
%TO.P,UART1,SH3*%
X120000000Y-158570000D03*
%TO.P,UART1,SH4*%
X120000000Y-149930000D03*
%TD*%
D18*
%TO.P,BZ1,1,+*%
%TO.N,Buzzer*%
X71280000Y-118250000D03*
D19*
%TO.P,BZ1,2,-*%
%TO.N,GND*%
X78880000Y-118250000D03*
%TD*%
D20*
%TO.P,J1,1*%
%TO.N,Net-(C27-Pad1)*%
X50840000Y-136340000D03*
%TO.P,J1,2*%
%TO.N,GND*%
X53380000Y-138880000D03*
%TO.P,J1,3*%
X53380000Y-133800000D03*
%TO.P,J1,4*%
X48300000Y-133800000D03*
%TO.P,J1,5*%
X48300000Y-138880000D03*
%TD*%
D21*
%TO.P,J2,01,01*%
%TO.N,GND*%
X47270000Y-112380000D03*
D22*
%TO.P,J2,02,02*%
%TO.N,3.3V OUT*%
X47270000Y-114920000D03*
%TO.P,J2,03,03*%
%TO.N,I2C SCL*%
X47270000Y-117460000D03*
%TO.P,J2,04,04*%
%TO.N,I2C SDL*%
X47270000Y-120000000D03*
%TD*%
D23*
%TO.N,Net-(BT1-+)*%
X93410000Y-122236000D03*
X92210000Y-123436000D03*
%TO.N,Buzzer*%
X88140000Y-145730000D03*
X74045000Y-129335000D03*
X88090000Y-147831959D03*
X88980000Y-152670000D03*
X71850000Y-122720000D03*
X71810000Y-120620000D03*
%TO.N,5v OUT*%
X100514972Y-129794972D03*
X92200000Y-117800000D03*
X103500000Y-125419943D03*
X102700000Y-117590000D03*
%TO.N,Net-(Charger1-VBUS)*%
X110450000Y-113420000D03*
X96850000Y-126410000D03*
%TO.N,OSC_OUT*%
X73240000Y-147950000D03*
X80640000Y-153330000D03*
X73370000Y-144200000D03*
%TO.N,Net-(U5-REGIN)*%
X106647500Y-150857500D03*
X110930000Y-154490000D03*
X92770000Y-149420000D03*
%TO.N,Net-(Q1-D)*%
X103350000Y-116970000D03*
X96040000Y-115100000D03*
%TO.N,Net-(U8-XTB)*%
X61405735Y-136814265D03*
X65040000Y-135700000D03*
%TO.N,I2C SDL*%
X53380000Y-117010000D03*
X80999624Y-146310000D03*
%TO.N,PC_OSC_OUT*%
X74530000Y-161210000D03*
X77790000Y-152350000D03*
%TO.N,NRST*%
X77132897Y-153470456D03*
X57810000Y-128500000D03*
%TO.N,BOOT0*%
X80999624Y-150760000D03*
X58970000Y-122610000D03*
%TO.N,Net-(U4-PROG)*%
X108540000Y-113440000D03*
X96880000Y-123720000D03*
%TO.N,Find_Host*%
X109590000Y-138340000D03*
X86460000Y-146510000D03*
%TO.N,ID*%
X85800053Y-147231959D03*
X109490000Y-142100000D03*
%TO.N,Net-(U5-RXD)*%
X95920000Y-154380000D03*
X104580000Y-157940000D03*
%TO.N,Net-(U5-TXD)*%
X105379202Y-157975785D03*
X96120000Y-153100000D03*
%TO.N,Net-(U6-UVLO)*%
X109660401Y-114448128D03*
X100170000Y-118190000D03*
X109278669Y-113132801D03*
X104513736Y-120094736D03*
%TO.N,Net-(U5-~{RST})*%
X92340000Y-151680000D03*
X102000116Y-152699884D03*
%TO.N,Net-(UART1-CC2)*%
X103560000Y-157976785D03*
X113020000Y-153269000D03*
%TO.N,Net-(Q1-G)*%
X102100000Y-122008530D03*
X99450000Y-130010000D03*
%TO.N,Net-(U2-PB2)*%
X84520000Y-159281000D03*
X73450000Y-151250000D03*
%TO.N,GPS_TX*%
X78344265Y-158024265D03*
X77505735Y-157165735D03*
%TO.N,SCK*%
X81470000Y-156090000D03*
X81599624Y-143194603D03*
%TO.N,MISO*%
X82399187Y-143168089D03*
X82263692Y-155989718D03*
%TO.N,NSS(CS)*%
X83999053Y-143147039D03*
X81200000Y-159240000D03*
%TO.N,DIO0(IRQ)*%
X78510000Y-137110000D03*
X83660000Y-159250000D03*
%TO.N,RESET*%
X85200053Y-154270000D03*
X78460000Y-136040000D03*
%TO.N,MOSI*%
X83199107Y-143156551D03*
X83033327Y-156208041D03*
%TO.N,Net-(U7-I{slash}O2-Pad3)*%
X116520000Y-155149000D03*
X116550000Y-153949000D03*
%TD*%
D24*
%TO.N,Net-(BT1-+)*%
X92210000Y-123436000D02*
X93410000Y-122236000D01*
%TO.N,GND*%
X104500000Y-123500000D02*
X104000000Y-123000000D01*
X104750000Y-123500000D02*
X104750000Y-122500000D01*
X104750000Y-123500000D02*
X104500000Y-123500000D01*
X104750000Y-123500000D02*
X103250000Y-123500000D01*
%TO.N,Buzzer*%
X88140000Y-143430000D02*
X88140000Y-145730000D01*
X71810000Y-122680000D02*
X71850000Y-122720000D01*
X88090000Y-151780000D02*
X88980000Y-152670000D01*
X88090000Y-147831959D02*
X88090000Y-151780000D01*
X71810000Y-120620000D02*
X71810000Y-122680000D01*
X74045000Y-129335000D02*
X88140000Y-143430000D01*
%TO.N,5v OUT*%
X102700000Y-117590000D02*
X99920057Y-117590000D01*
X100514972Y-129794972D02*
X103500000Y-126809943D01*
X99201057Y-130611000D02*
X99698943Y-130611000D01*
X92787943Y-117800000D02*
X92200000Y-117800000D01*
X96249000Y-121261057D02*
X92787943Y-117800000D01*
X99698943Y-130611000D02*
X100514972Y-129794972D01*
X103500000Y-126809943D02*
X103500000Y-125419943D01*
X99920057Y-117590000D02*
X96249000Y-121261057D01*
X96249000Y-127658943D02*
X99201057Y-130611000D01*
X96249000Y-121261057D02*
X96249000Y-127658943D01*
%TO.N,Net-(Charger1-VBUS)*%
X110450000Y-113420000D02*
X109840000Y-113420000D01*
X109840000Y-113420000D02*
X96850000Y-126410000D01*
%TO.N,OSC_OUT*%
X73240000Y-144330000D02*
X73240000Y-147950000D01*
X73240000Y-147950000D02*
X75260000Y-147950000D01*
X73370000Y-144200000D02*
X73240000Y-144330000D01*
X75260000Y-147950000D02*
X80640000Y-153330000D01*
X73370000Y-147820000D02*
X73240000Y-147950000D01*
%TO.N,Net-(U5-REGIN)*%
X92770000Y-149450000D02*
X93950000Y-149450000D01*
X95357500Y-150857500D02*
X106647500Y-150857500D01*
X92770000Y-149450000D02*
X92770000Y-149420000D01*
X93950000Y-149450000D02*
X95357500Y-150857500D01*
X107297500Y-150857500D02*
X110930000Y-154490000D01*
X106647500Y-150857500D02*
X107297500Y-150857500D01*
%TO.N,Net-(Q1-D)*%
X96040000Y-115100000D02*
X101480000Y-115100000D01*
X101480000Y-115100000D02*
X103350000Y-116970000D01*
%TO.N,Net-(U8-XTB)*%
X61405735Y-136814265D02*
X63925735Y-136814265D01*
X63925735Y-136814265D02*
X65040000Y-135700000D01*
%TO.N,I2C SDL*%
X53380000Y-118610000D02*
X80999624Y-146229624D01*
X80999624Y-146229624D02*
X80999624Y-146310000D01*
X53380000Y-117010000D02*
X53380000Y-118610000D01*
%TO.N,PC_OSC_OUT*%
X74530000Y-161210000D02*
X74530000Y-156923296D01*
X74530000Y-156923296D02*
X77790000Y-153663296D01*
X77790000Y-153663296D02*
X77790000Y-152350000D01*
%TO.N,NRST*%
X57810000Y-134147559D02*
X77132897Y-153470456D01*
X57810000Y-128500000D02*
X57810000Y-134147559D01*
%TO.N,BOOT0*%
X58970000Y-121750057D02*
X53628943Y-116409000D01*
X53131057Y-116409000D02*
X52779000Y-116761057D01*
X52779000Y-116761057D02*
X52779000Y-122539376D01*
X58970000Y-122610000D02*
X58970000Y-121750057D01*
X53628943Y-116409000D02*
X53131057Y-116409000D01*
X52779000Y-122539376D02*
X80999624Y-150760000D01*
%TO.N,Net-(U4-PROG)*%
X108540000Y-113440000D02*
X98260000Y-123720000D01*
X98260000Y-123720000D02*
X96880000Y-123720000D01*
%TO.N,Find_Host*%
X101420000Y-146510000D02*
X109590000Y-138340000D01*
X86460000Y-146510000D02*
X101420000Y-146510000D01*
%TO.N,ID*%
X104358041Y-147231959D02*
X109490000Y-142100000D01*
X85800053Y-147231959D02*
X104358041Y-147231959D01*
%TO.N,Net-(U5-RXD)*%
X104580000Y-157759404D02*
X101200596Y-154380000D01*
X104580000Y-157940000D02*
X104580000Y-157759404D01*
X101200596Y-154380000D02*
X95920000Y-154380000D01*
%TO.N,Net-(U5-TXD)*%
X105379202Y-157449202D02*
X101030000Y-153100000D01*
X105379202Y-157975785D02*
X105379202Y-157449202D01*
X101030000Y-153100000D02*
X96120000Y-153100000D01*
%TO.N,Net-(U6-UVLO)*%
X109278669Y-113132801D02*
X108984868Y-112839000D01*
X109660401Y-114948071D02*
X109660401Y-114448128D01*
X104513736Y-120094736D02*
X109660401Y-114948071D01*
X102979943Y-118190000D02*
X100170000Y-118190000D01*
X108984868Y-112839000D02*
X108291057Y-112839000D01*
X107939000Y-113191057D02*
X107939000Y-113230943D01*
X108291057Y-112839000D02*
X107939000Y-113191057D01*
X107939000Y-113230943D02*
X102979943Y-118190000D01*
%TO.N,Net-(U5-~{RST})*%
X92340000Y-151700000D02*
X92340000Y-151680000D01*
X101690232Y-152390000D02*
X93030000Y-152390000D01*
X93030000Y-152390000D02*
X92340000Y-151700000D01*
X102000116Y-152699884D02*
X101690232Y-152390000D01*
%TO.N,Net-(UART1-CC2)*%
X113020000Y-153269000D02*
X107712215Y-158576785D01*
X107712215Y-158576785D02*
X104160000Y-158576785D01*
X104160000Y-158576785D02*
X103560000Y-157976785D01*
%TO.N,Net-(Q1-G)*%
X98520000Y-125588530D02*
X102100000Y-122008530D01*
X98520000Y-129290000D02*
X98520000Y-125588530D01*
X99450000Y-130010000D02*
X99240000Y-130010000D01*
X99240000Y-130010000D02*
X98520000Y-129290000D01*
%TO.N,Net-(U2-PB2)*%
X81990000Y-161811000D02*
X84520000Y-159281000D01*
X73450000Y-151250000D02*
X73450000Y-160979943D01*
X74281057Y-161811000D02*
X81990000Y-161811000D01*
X73450000Y-160979943D02*
X74281057Y-161811000D01*
%TO.N,GPS_TX*%
X77505735Y-157165735D02*
X77505735Y-157185735D01*
X77505735Y-157185735D02*
X78344265Y-158024265D01*
%TO.N,SCK*%
X81599624Y-155960376D02*
X81599624Y-143194603D01*
X81470000Y-156090000D02*
X81599624Y-155960376D01*
%TO.N,MISO*%
X82399187Y-155854223D02*
X82399187Y-143168089D01*
X82263692Y-155989718D02*
X82399187Y-155854223D01*
%TO.N,NSS(CS)*%
X83999053Y-156440947D02*
X81200000Y-159240000D01*
X83999053Y-143147039D02*
X83999053Y-156440947D01*
%TO.N,DIO0(IRQ)*%
X84600053Y-142898096D02*
X84600053Y-158309947D01*
X78811957Y-137110000D02*
X84600053Y-142898096D01*
X78510000Y-137110000D02*
X78811957Y-137110000D01*
X84600053Y-158309947D02*
X83660000Y-159250000D01*
%TO.N,RESET*%
X85200053Y-142780053D02*
X85200053Y-154270000D01*
X78460000Y-136040000D02*
X85200053Y-142780053D01*
%TO.N,MOSI*%
X83033327Y-156208041D02*
X83199107Y-156042261D01*
X83199107Y-156042261D02*
X83199107Y-143156551D01*
%TO.N,Net-(U7-I{slash}O2-Pad3)*%
X116550000Y-153949000D02*
X116550000Y-155119000D01*
X116550000Y-155119000D02*
X116520000Y-155149000D01*
%TD*%
%TA.AperFunction,Conductor*%
%TO.N,GND*%
G36*
X120002702Y-85500617D02*
G01*
X120386771Y-85517386D01*
X120397506Y-85518326D01*
X120775971Y-85568152D01*
X120786597Y-85570025D01*
X121159284Y-85652648D01*
X121169710Y-85655442D01*
X121533765Y-85770227D01*
X121543911Y-85773920D01*
X121896578Y-85920000D01*
X121906369Y-85924566D01*
X122244942Y-86100816D01*
X122254310Y-86106224D01*
X122576244Y-86311318D01*
X122585105Y-86317523D01*
X122887930Y-86549889D01*
X122896217Y-86556843D01*
X123177635Y-86814715D01*
X123185284Y-86822364D01*
X123443156Y-87103782D01*
X123450110Y-87112069D01*
X123682476Y-87414894D01*
X123688681Y-87423755D01*
X123893775Y-87745689D01*
X123899183Y-87755057D01*
X124075430Y-88093623D01*
X124080002Y-88103427D01*
X124226075Y-88456078D01*
X124229775Y-88466244D01*
X124344554Y-88830278D01*
X124347354Y-88840727D01*
X124429971Y-89213389D01*
X124431849Y-89224042D01*
X124481671Y-89602473D01*
X124482614Y-89613249D01*
X124499382Y-89997297D01*
X124499500Y-90002706D01*
X124499500Y-159997293D01*
X124499382Y-160002702D01*
X124482614Y-160386750D01*
X124481671Y-160397526D01*
X124431849Y-160775957D01*
X124429971Y-160786610D01*
X124347354Y-161159272D01*
X124344554Y-161169721D01*
X124229775Y-161533755D01*
X124226075Y-161543921D01*
X124080002Y-161896572D01*
X124075430Y-161906376D01*
X123899183Y-162244942D01*
X123893775Y-162254310D01*
X123688681Y-162576244D01*
X123682476Y-162585105D01*
X123450110Y-162887930D01*
X123443156Y-162896217D01*
X123185284Y-163177635D01*
X123177635Y-163185284D01*
X122896217Y-163443156D01*
X122887930Y-163450110D01*
X122585105Y-163682476D01*
X122576244Y-163688681D01*
X122254310Y-163893775D01*
X122244942Y-163899183D01*
X121906376Y-164075430D01*
X121896572Y-164080002D01*
X121543921Y-164226075D01*
X121533755Y-164229775D01*
X121169721Y-164344554D01*
X121159272Y-164347354D01*
X120786610Y-164429971D01*
X120775957Y-164431849D01*
X120397526Y-164481671D01*
X120386750Y-164482614D01*
X120002703Y-164499382D01*
X119997294Y-164499500D01*
X50002706Y-164499500D01*
X49997297Y-164499382D01*
X49613249Y-164482614D01*
X49602473Y-164481671D01*
X49224042Y-164431849D01*
X49213389Y-164429971D01*
X48840727Y-164347354D01*
X48830278Y-164344554D01*
X48466244Y-164229775D01*
X48456078Y-164226075D01*
X48103427Y-164080002D01*
X48093623Y-164075430D01*
X47755057Y-163899183D01*
X47745689Y-163893775D01*
X47423755Y-163688681D01*
X47414894Y-163682476D01*
X47112069Y-163450110D01*
X47103782Y-163443156D01*
X46822364Y-163185284D01*
X46814715Y-163177635D01*
X46556843Y-162896217D01*
X46549889Y-162887930D01*
X46317523Y-162585105D01*
X46311318Y-162576244D01*
X46161860Y-162341642D01*
X46106223Y-162254309D01*
X46100816Y-162244942D01*
X45924566Y-161906369D01*
X45919997Y-161896572D01*
X45773924Y-161543921D01*
X45770224Y-161533755D01*
X45655442Y-161169710D01*
X45652648Y-161159284D01*
X45570025Y-160786597D01*
X45568152Y-160775971D01*
X45518326Y-160397506D01*
X45517386Y-160386771D01*
X45500618Y-160002702D01*
X45500500Y-159997293D01*
X45500500Y-133688575D01*
X46600000Y-133688575D01*
X46600000Y-133911424D01*
X46629085Y-134132354D01*
X46629088Y-134132367D01*
X46686763Y-134347618D01*
X46772045Y-134553502D01*
X46772054Y-134553520D01*
X46883464Y-134746491D01*
X46883473Y-134746504D01*
X46934040Y-134812403D01*
X46934043Y-134812403D01*
X47584152Y-134162293D01*
X47591049Y-134178942D01*
X47678599Y-134309970D01*
X47790030Y-134421401D01*
X47921058Y-134508951D01*
X47937705Y-134515846D01*
X47287595Y-135165955D01*
X47287595Y-135165956D01*
X47353507Y-135216533D01*
X47546485Y-135327949D01*
X47546497Y-135327954D01*
X47752381Y-135413236D01*
X47967632Y-135470911D01*
X47967645Y-135470914D01*
X48188575Y-135500000D01*
X48411425Y-135500000D01*
X48632354Y-135470914D01*
X48632367Y-135470911D01*
X48847618Y-135413236D01*
X49053502Y-135327954D01*
X49053520Y-135327945D01*
X49246490Y-135216535D01*
X49258327Y-135207453D01*
X49323495Y-135182256D01*
X49391941Y-135196292D01*
X49441932Y-135245104D01*
X49457598Y-135313195D01*
X49433964Y-135378946D01*
X49432195Y-135381309D01*
X49423061Y-135393212D01*
X49423052Y-135393226D01*
X49311595Y-135586273D01*
X49311593Y-135586277D01*
X49226293Y-135792209D01*
X49226290Y-135792219D01*
X49180258Y-135964016D01*
X49168597Y-136007534D01*
X49168594Y-136007547D01*
X49139501Y-136228533D01*
X49139500Y-136228549D01*
X49139500Y-136451450D01*
X49139501Y-136451466D01*
X49168594Y-136672452D01*
X49168595Y-136672457D01*
X49168596Y-136672463D01*
X49184232Y-136730817D01*
X49226290Y-136887780D01*
X49226293Y-136887790D01*
X49311593Y-137093722D01*
X49311595Y-137093726D01*
X49423052Y-137286774D01*
X49432193Y-137298687D01*
X49457387Y-137363856D01*
X49443349Y-137432300D01*
X49394535Y-137482290D01*
X49326444Y-137497954D01*
X49260693Y-137474317D01*
X49258331Y-137472549D01*
X49246493Y-137463465D01*
X49246491Y-137463464D01*
X49053520Y-137352054D01*
X49053502Y-137352045D01*
X48847618Y-137266763D01*
X48632367Y-137209088D01*
X48632354Y-137209085D01*
X48411425Y-137180000D01*
X48188575Y-137180000D01*
X47967645Y-137209085D01*
X47967632Y-137209088D01*
X47752381Y-137266763D01*
X47546497Y-137352045D01*
X47546479Y-137352054D01*
X47353511Y-137463462D01*
X47287595Y-137514042D01*
X47937706Y-138164152D01*
X47921058Y-138171049D01*
X47790030Y-138258599D01*
X47678599Y-138370030D01*
X47591049Y-138501058D01*
X47584153Y-138517706D01*
X46934042Y-137867595D01*
X46883462Y-137933511D01*
X46772054Y-138126479D01*
X46772045Y-138126497D01*
X46686763Y-138332381D01*
X46629088Y-138547632D01*
X46629085Y-138547645D01*
X46600000Y-138768575D01*
X46600000Y-138991424D01*
X46629085Y-139212354D01*
X46629088Y-139212367D01*
X46686763Y-139427618D01*
X46772045Y-139633502D01*
X46772054Y-139633520D01*
X46883464Y-139826491D01*
X46883473Y-139826504D01*
X46934040Y-139892403D01*
X46934043Y-139892403D01*
X47584152Y-139242293D01*
X47591049Y-139258942D01*
X47678599Y-139389970D01*
X47790030Y-139501401D01*
X47921058Y-139588951D01*
X47937705Y-139595846D01*
X47287595Y-140245955D01*
X47287595Y-140245956D01*
X47353507Y-140296533D01*
X47546485Y-140407949D01*
X47546497Y-140407954D01*
X47752381Y-140493236D01*
X47967632Y-140550911D01*
X47967645Y-140550914D01*
X48188575Y-140580000D01*
X48411425Y-140580000D01*
X48632354Y-140550914D01*
X48632367Y-140550911D01*
X48847618Y-140493236D01*
X49053502Y-140407954D01*
X49053514Y-140407949D01*
X49246498Y-140296530D01*
X49312403Y-140245957D01*
X49312404Y-140245956D01*
X48662294Y-139595846D01*
X48678942Y-139588951D01*
X48809970Y-139501401D01*
X48921401Y-139389970D01*
X49008951Y-139258942D01*
X49015846Y-139242293D01*
X49665956Y-139892404D01*
X49665957Y-139892403D01*
X49716530Y-139826498D01*
X49827949Y-139633514D01*
X49827954Y-139633502D01*
X49913236Y-139427618D01*
X49970911Y-139212367D01*
X49970914Y-139212354D01*
X50000000Y-138991424D01*
X50000000Y-138768575D01*
X49970914Y-138547645D01*
X49970911Y-138547632D01*
X49913236Y-138332381D01*
X49827954Y-138126497D01*
X49827945Y-138126479D01*
X49716535Y-137933508D01*
X49716533Y-137933504D01*
X49707451Y-137921669D01*
X49682256Y-137856500D01*
X49696294Y-137788055D01*
X49745108Y-137738065D01*
X49813199Y-137722401D01*
X49878949Y-137746037D01*
X49881279Y-137747781D01*
X49893226Y-137756948D01*
X50086274Y-137868405D01*
X50164299Y-137900724D01*
X50243444Y-137933507D01*
X50292219Y-137953710D01*
X50507537Y-138011404D01*
X50728543Y-138040500D01*
X50728550Y-138040500D01*
X50951450Y-138040500D01*
X50951457Y-138040500D01*
X51172463Y-138011404D01*
X51387781Y-137953710D01*
X51593726Y-137868405D01*
X51786774Y-137756948D01*
X51798686Y-137747807D01*
X51863850Y-137722612D01*
X51932296Y-137736648D01*
X51982288Y-137785460D01*
X51997954Y-137853550D01*
X51974321Y-137919302D01*
X51972552Y-137921665D01*
X51963463Y-137933510D01*
X51852054Y-138126479D01*
X51852045Y-138126497D01*
X51766763Y-138332381D01*
X51709088Y-138547632D01*
X51709085Y-138547645D01*
X51680000Y-138768575D01*
X51680000Y-138991424D01*
X51709085Y-139212354D01*
X51709088Y-139212367D01*
X51766763Y-139427618D01*
X51852045Y-139633502D01*
X51852054Y-139633520D01*
X51963464Y-139826491D01*
X51963473Y-139826504D01*
X52014040Y-139892403D01*
X52014043Y-139892403D01*
X52664152Y-139242293D01*
X52671049Y-139258942D01*
X52758599Y-139389970D01*
X52870030Y-139501401D01*
X53001058Y-139588951D01*
X53017705Y-139595846D01*
X52367595Y-140245955D01*
X52367595Y-140245956D01*
X52433507Y-140296533D01*
X52626485Y-140407949D01*
X52626497Y-140407954D01*
X52832381Y-140493236D01*
X53047632Y-140550911D01*
X53047645Y-140550914D01*
X53268575Y-140580000D01*
X53491425Y-140580000D01*
X53712354Y-140550914D01*
X53712367Y-140550911D01*
X53927618Y-140493236D01*
X54133502Y-140407954D01*
X54133514Y-140407949D01*
X54326498Y-140296530D01*
X54392403Y-140245957D01*
X54392404Y-140245956D01*
X53742294Y-139595846D01*
X53758942Y-139588951D01*
X53889970Y-139501401D01*
X54001401Y-139389970D01*
X54088951Y-139258942D01*
X54095846Y-139242294D01*
X54745956Y-139892404D01*
X54745957Y-139892403D01*
X54796530Y-139826498D01*
X54907949Y-139633514D01*
X54907954Y-139633502D01*
X54993236Y-139427618D01*
X55050911Y-139212367D01*
X55050914Y-139212354D01*
X55080000Y-138991424D01*
X55080000Y-138768575D01*
X55050914Y-138547645D01*
X55050911Y-138547632D01*
X54993236Y-138332381D01*
X54907954Y-138126497D01*
X54907949Y-138126485D01*
X54796533Y-137933507D01*
X54745956Y-137867595D01*
X54745955Y-137867595D01*
X54095846Y-138517704D01*
X54088951Y-138501058D01*
X54001401Y-138370030D01*
X53889970Y-138258599D01*
X53758942Y-138171049D01*
X53742293Y-138164152D01*
X54392403Y-137514043D01*
X54392403Y-137514040D01*
X54326504Y-137463473D01*
X54326491Y-137463464D01*
X54133520Y-137352054D01*
X54133502Y-137352045D01*
X53927618Y-137266763D01*
X53712367Y-137209088D01*
X53712354Y-137209085D01*
X53491425Y-137180000D01*
X53268575Y-137180000D01*
X53047645Y-137209085D01*
X53047632Y-137209088D01*
X52832381Y-137266763D01*
X52626497Y-137352045D01*
X52626479Y-137352054D01*
X52433510Y-137463463D01*
X52421665Y-137472552D01*
X52356495Y-137497743D01*
X52288050Y-137483703D01*
X52238062Y-137434887D01*
X52222402Y-137366795D01*
X52246040Y-137301045D01*
X52247740Y-137298774D01*
X52256948Y-137286774D01*
X52368405Y-137093726D01*
X52453710Y-136887781D01*
X52511404Y-136672463D01*
X52540500Y-136451457D01*
X52540500Y-136228543D01*
X52511404Y-136007537D01*
X52453710Y-135792219D01*
X52368405Y-135586274D01*
X52256948Y-135393226D01*
X52247806Y-135381312D01*
X52222612Y-135316145D01*
X52236650Y-135247700D01*
X52285463Y-135197709D01*
X52353554Y-135182045D01*
X52419305Y-135205681D01*
X52421669Y-135207451D01*
X52433504Y-135216533D01*
X52433508Y-135216535D01*
X52626479Y-135327945D01*
X52626497Y-135327954D01*
X52832381Y-135413236D01*
X53047632Y-135470911D01*
X53047645Y-135470914D01*
X53268575Y-135500000D01*
X53491425Y-135500000D01*
X53712354Y-135470914D01*
X53712367Y-135470911D01*
X53927618Y-135413236D01*
X54133502Y-135327954D01*
X54133514Y-135327949D01*
X54326498Y-135216530D01*
X54392403Y-135165957D01*
X54392404Y-135165956D01*
X53742293Y-134515846D01*
X53758942Y-134508951D01*
X53889970Y-134421401D01*
X54001401Y-134309970D01*
X54088951Y-134178942D01*
X54095846Y-134162294D01*
X54745956Y-134812404D01*
X54745957Y-134812403D01*
X54796530Y-134746498D01*
X54907949Y-134553514D01*
X54907954Y-134553502D01*
X54993236Y-134347618D01*
X55050911Y-134132367D01*
X55050914Y-134132354D01*
X55080000Y-133911424D01*
X55080000Y-133688575D01*
X55050914Y-133467645D01*
X55050911Y-133467632D01*
X54993236Y-133252381D01*
X54907954Y-133046497D01*
X54907949Y-133046485D01*
X54796533Y-132853507D01*
X54745956Y-132787595D01*
X54745955Y-132787595D01*
X54095846Y-133437704D01*
X54088951Y-133421058D01*
X54001401Y-133290030D01*
X53889970Y-133178599D01*
X53758942Y-133091049D01*
X53742293Y-133084152D01*
X54392403Y-132434043D01*
X54392403Y-132434040D01*
X54326504Y-132383473D01*
X54326491Y-132383464D01*
X54133520Y-132272054D01*
X54133502Y-132272045D01*
X53927618Y-132186763D01*
X53712367Y-132129088D01*
X53712354Y-132129085D01*
X53491425Y-132100000D01*
X53268575Y-132100000D01*
X53047645Y-132129085D01*
X53047632Y-132129088D01*
X52832381Y-132186763D01*
X52626497Y-132272045D01*
X52626479Y-132272054D01*
X52433511Y-132383462D01*
X52367595Y-132434042D01*
X53017706Y-133084152D01*
X53001058Y-133091049D01*
X52870030Y-133178599D01*
X52758599Y-133290030D01*
X52671049Y-133421058D01*
X52664152Y-133437706D01*
X52014042Y-132787595D01*
X51963462Y-132853511D01*
X51852054Y-133046479D01*
X51852045Y-133046497D01*
X51766763Y-133252381D01*
X51709088Y-133467632D01*
X51709085Y-133467645D01*
X51680000Y-133688575D01*
X51680000Y-133911424D01*
X51709085Y-134132354D01*
X51709088Y-134132367D01*
X51766763Y-134347618D01*
X51852045Y-134553502D01*
X51852054Y-134553520D01*
X51963464Y-134746491D01*
X51963465Y-134746493D01*
X51972549Y-134758331D01*
X51997743Y-134823500D01*
X51983704Y-134891945D01*
X51934890Y-134941935D01*
X51866799Y-134957598D01*
X51801049Y-134933961D01*
X51798689Y-134932195D01*
X51786774Y-134923052D01*
X51593726Y-134811595D01*
X51593722Y-134811593D01*
X51387790Y-134726293D01*
X51387783Y-134726291D01*
X51387781Y-134726290D01*
X51172463Y-134668596D01*
X51172457Y-134668595D01*
X51172452Y-134668594D01*
X50951466Y-134639501D01*
X50951463Y-134639500D01*
X50951457Y-134639500D01*
X50728543Y-134639500D01*
X50728537Y-134639500D01*
X50728533Y-134639501D01*
X50507547Y-134668594D01*
X50507540Y-134668595D01*
X50507537Y-134668596D01*
X50292219Y-134726290D01*
X50292209Y-134726293D01*
X50086277Y-134811593D01*
X50086273Y-134811595D01*
X49893226Y-134923052D01*
X49893212Y-134923061D01*
X49881309Y-134932195D01*
X49816140Y-134957387D01*
X49747695Y-134943347D01*
X49697707Y-134894531D01*
X49682046Y-134826440D01*
X49705684Y-134760690D01*
X49707453Y-134758327D01*
X49716535Y-134746490D01*
X49827945Y-134553520D01*
X49827954Y-134553502D01*
X49913236Y-134347618D01*
X49970911Y-134132367D01*
X49970914Y-134132354D01*
X50000000Y-133911424D01*
X50000000Y-133688575D01*
X49970914Y-133467645D01*
X49970911Y-133467632D01*
X49913236Y-133252381D01*
X49827954Y-133046497D01*
X49827949Y-133046485D01*
X49716533Y-132853507D01*
X49665956Y-132787595D01*
X49665955Y-132787595D01*
X49015846Y-133437705D01*
X49008951Y-133421058D01*
X48921401Y-133290030D01*
X48809970Y-133178599D01*
X48678942Y-133091049D01*
X48662293Y-133084152D01*
X49312403Y-132434043D01*
X49312403Y-132434041D01*
X49246504Y-132383473D01*
X49246491Y-132383464D01*
X49053520Y-132272054D01*
X49053502Y-132272045D01*
X48847618Y-132186763D01*
X48632367Y-132129088D01*
X48632354Y-132129085D01*
X48411425Y-132100000D01*
X48188575Y-132100000D01*
X47967645Y-132129085D01*
X47967632Y-132129088D01*
X47752381Y-132186763D01*
X47546497Y-132272045D01*
X47546479Y-132272054D01*
X47353511Y-132383462D01*
X47287595Y-132434042D01*
X47937706Y-133084152D01*
X47921058Y-133091049D01*
X47790030Y-133178599D01*
X47678599Y-133290030D01*
X47591049Y-133421058D01*
X47584153Y-133437706D01*
X46934042Y-132787595D01*
X46883462Y-132853511D01*
X46772054Y-133046479D01*
X46772045Y-133046497D01*
X46686763Y-133252381D01*
X46629088Y-133467632D01*
X46629085Y-133467645D01*
X46600000Y-133688575D01*
X45500500Y-133688575D01*
X45500500Y-122618430D01*
X52178498Y-122618430D01*
X52181684Y-122630319D01*
X52212758Y-122746289D01*
X52219423Y-122771160D01*
X52219424Y-122771163D01*
X52223527Y-122778269D01*
X52223528Y-122778271D01*
X52298477Y-122908088D01*
X52298481Y-122908093D01*
X52417349Y-123026961D01*
X52417355Y-123026966D01*
X57196474Y-127806085D01*
X57229959Y-127867408D01*
X57224975Y-127937100D01*
X57196478Y-127981444D01*
X57188208Y-127989714D01*
X57100609Y-128120814D01*
X57100602Y-128120827D01*
X57040264Y-128266498D01*
X57040261Y-128266510D01*
X57009500Y-128421153D01*
X57009500Y-128578846D01*
X57040261Y-128733489D01*
X57040264Y-128733501D01*
X57100602Y-128879172D01*
X57100609Y-128879185D01*
X57188602Y-129010874D01*
X57209480Y-129077551D01*
X57209500Y-129079765D01*
X57209500Y-134060889D01*
X57209499Y-134060907D01*
X57209499Y-134226613D01*
X57209498Y-134226613D01*
X57209499Y-134226616D01*
X57250423Y-134379344D01*
X57274705Y-134421401D01*
X57279358Y-134429459D01*
X57279359Y-134429463D01*
X57279360Y-134429463D01*
X57329479Y-134516273D01*
X57329481Y-134516276D01*
X57448349Y-134635144D01*
X57448355Y-134635149D01*
X73139701Y-150326495D01*
X73173186Y-150387818D01*
X73168202Y-150457510D01*
X73126330Y-150513443D01*
X73099475Y-150528736D01*
X73070826Y-150540603D01*
X73070814Y-150540609D01*
X72939711Y-150628210D01*
X72939707Y-150628213D01*
X72828213Y-150739707D01*
X72828210Y-150739711D01*
X72740609Y-150870814D01*
X72740602Y-150870827D01*
X72680264Y-151016498D01*
X72680261Y-151016510D01*
X72649500Y-151171153D01*
X72649500Y-151328846D01*
X72680261Y-151483489D01*
X72680264Y-151483501D01*
X72740602Y-151629172D01*
X72740609Y-151629185D01*
X72828602Y-151760874D01*
X72849480Y-151827551D01*
X72849500Y-151829765D01*
X72849500Y-160893273D01*
X72849499Y-160893291D01*
X72849499Y-161058997D01*
X72849498Y-161058997D01*
X72890424Y-161211732D01*
X72890425Y-161211733D01*
X72913340Y-161251422D01*
X72913341Y-161251423D01*
X72969477Y-161348655D01*
X72969481Y-161348660D01*
X73088349Y-161467528D01*
X73088355Y-161467533D01*
X73796196Y-162175374D01*
X73796206Y-162175385D01*
X73800536Y-162179715D01*
X73800537Y-162179716D01*
X73912341Y-162291520D01*
X73999152Y-162341639D01*
X73999154Y-162341641D01*
X74037208Y-162363611D01*
X74049272Y-162370577D01*
X74202000Y-162411500D01*
X74360114Y-162411500D01*
X81903331Y-162411500D01*
X81903347Y-162411501D01*
X81910943Y-162411501D01*
X82069054Y-162411501D01*
X82069057Y-162411501D01*
X82221785Y-162370577D01*
X82271904Y-162341639D01*
X82358716Y-162291520D01*
X82470520Y-162179716D01*
X82470520Y-162179714D01*
X82480728Y-162169507D01*
X82480729Y-162169504D01*
X84534662Y-160115572D01*
X84595983Y-160082089D01*
X84598150Y-160081638D01*
X84656085Y-160070113D01*
X84753497Y-160050737D01*
X84899179Y-159990394D01*
X85030289Y-159902789D01*
X85141789Y-159791289D01*
X85229394Y-159660179D01*
X85289737Y-159514497D01*
X85320500Y-159359842D01*
X85320500Y-159202158D01*
X85320500Y-159202155D01*
X85320499Y-159202153D01*
X85315279Y-159175911D01*
X85289737Y-159047503D01*
X85278441Y-159020231D01*
X85229397Y-158901827D01*
X85229390Y-158901814D01*
X85141789Y-158770711D01*
X85141786Y-158770707D01*
X85136568Y-158765489D01*
X85103083Y-158704166D01*
X85108067Y-158634474D01*
X85116862Y-158615808D01*
X85126814Y-158598571D01*
X85159630Y-158541731D01*
X85200554Y-158389004D01*
X85200554Y-158230889D01*
X85200554Y-158223294D01*
X85200553Y-158223276D01*
X85200553Y-155187847D01*
X85220238Y-155120808D01*
X85273042Y-155075053D01*
X85300362Y-155066230D01*
X85326453Y-155061040D01*
X85433550Y-155039737D01*
X85579232Y-154979394D01*
X85710342Y-154891789D01*
X85821842Y-154780289D01*
X85909447Y-154649179D01*
X85969790Y-154503497D01*
X86000553Y-154348842D01*
X86000553Y-154191158D01*
X86000553Y-154191155D01*
X86000552Y-154191153D01*
X85991672Y-154146510D01*
X85969790Y-154036503D01*
X85955007Y-154000814D01*
X85909450Y-153890827D01*
X85909443Y-153890814D01*
X85821451Y-153759125D01*
X85800573Y-153692447D01*
X85800553Y-153690234D01*
X85800553Y-148149806D01*
X85820238Y-148082767D01*
X85873042Y-148037012D01*
X85900362Y-148028189D01*
X85916344Y-148025009D01*
X86033550Y-148001696D01*
X86179232Y-147941353D01*
X86199480Y-147927824D01*
X86310928Y-147853357D01*
X86377606Y-147832479D01*
X86379819Y-147832459D01*
X87172152Y-147832459D01*
X87239191Y-147852144D01*
X87284946Y-147904948D01*
X87293769Y-147932267D01*
X87320261Y-148065450D01*
X87320264Y-148065460D01*
X87380602Y-148211131D01*
X87380609Y-148211144D01*
X87468602Y-148342833D01*
X87489480Y-148409510D01*
X87489500Y-148411724D01*
X87489500Y-151693330D01*
X87489499Y-151693348D01*
X87489499Y-151859054D01*
X87489498Y-151859054D01*
X87530423Y-152011785D01*
X87547793Y-152041869D01*
X87547794Y-152041873D01*
X87609475Y-152148709D01*
X87609481Y-152148717D01*
X87728349Y-152267585D01*
X87728355Y-152267590D01*
X88145425Y-152684660D01*
X88178910Y-152745983D01*
X88179361Y-152748149D01*
X88210261Y-152903491D01*
X88210264Y-152903501D01*
X88270602Y-153049172D01*
X88270609Y-153049185D01*
X88358210Y-153180288D01*
X88358213Y-153180292D01*
X88469707Y-153291786D01*
X88469711Y-153291789D01*
X88600814Y-153379390D01*
X88600827Y-153379397D01*
X88744016Y-153438707D01*
X88746503Y-153439737D01*
X88856008Y-153461519D01*
X88901153Y-153470499D01*
X88901156Y-153470500D01*
X88901158Y-153470500D01*
X89058844Y-153470500D01*
X89058845Y-153470499D01*
X89213497Y-153439737D01*
X89359179Y-153379394D01*
X89490289Y-153291789D01*
X89601789Y-153180289D01*
X89689394Y-153049179D01*
X89749737Y-152903497D01*
X89780500Y-152748842D01*
X89780500Y-152591158D01*
X89780500Y-152591155D01*
X89780499Y-152591153D01*
X89778975Y-152583489D01*
X89749737Y-152436503D01*
X89730224Y-152389394D01*
X89689397Y-152290827D01*
X89689390Y-152290814D01*
X89601789Y-152159711D01*
X89601786Y-152159707D01*
X89490292Y-152048213D01*
X89490288Y-152048210D01*
X89359185Y-151960609D01*
X89359172Y-151960602D01*
X89213501Y-151900264D01*
X89213491Y-151900261D01*
X89058149Y-151869361D01*
X89041392Y-151860595D01*
X89022914Y-151856576D01*
X88997877Y-151837833D01*
X88996238Y-151836976D01*
X88994660Y-151835425D01*
X88760388Y-151601153D01*
X91539500Y-151601153D01*
X91539500Y-151758846D01*
X91570261Y-151913489D01*
X91570264Y-151913501D01*
X91630602Y-152059172D01*
X91630609Y-152059185D01*
X91718210Y-152190288D01*
X91718213Y-152190292D01*
X91829707Y-152301786D01*
X91829711Y-152301789D01*
X91960814Y-152389390D01*
X91960827Y-152389397D01*
X92056067Y-152428846D01*
X92106503Y-152449737D01*
X92156530Y-152459688D01*
X92236883Y-152475672D01*
X92298794Y-152508057D01*
X92300373Y-152509608D01*
X92545139Y-152754374D01*
X92545149Y-152754385D01*
X92549479Y-152758715D01*
X92549480Y-152758716D01*
X92661284Y-152870520D01*
X92661286Y-152870521D01*
X92661290Y-152870524D01*
X92770163Y-152933381D01*
X92798216Y-152949577D01*
X92894966Y-152975501D01*
X92950942Y-152990500D01*
X92950943Y-152990500D01*
X95195500Y-152990500D01*
X95262539Y-153010185D01*
X95308294Y-153062989D01*
X95319500Y-153114500D01*
X95319500Y-153178846D01*
X95350261Y-153333489D01*
X95350264Y-153333501D01*
X95410602Y-153479172D01*
X95410609Y-153479185D01*
X95470334Y-153568569D01*
X95491212Y-153635247D01*
X95472727Y-153702627D01*
X95436124Y-153740561D01*
X95409713Y-153758208D01*
X95409707Y-153758213D01*
X95298213Y-153869707D01*
X95298210Y-153869711D01*
X95210609Y-154000814D01*
X95210602Y-154000827D01*
X95150264Y-154146498D01*
X95150261Y-154146510D01*
X95119500Y-154301153D01*
X95119500Y-154458846D01*
X95150261Y-154613489D01*
X95150264Y-154613501D01*
X95210602Y-154759172D01*
X95210609Y-154759185D01*
X95298210Y-154890288D01*
X95298213Y-154890292D01*
X95409707Y-155001786D01*
X95409711Y-155001789D01*
X95540814Y-155089390D01*
X95540827Y-155089397D01*
X95686498Y-155149735D01*
X95686503Y-155149737D01*
X95841153Y-155180499D01*
X95841156Y-155180500D01*
X95841158Y-155180500D01*
X95998844Y-155180500D01*
X95998845Y-155180499D01*
X96153497Y-155149737D01*
X96299179Y-155089394D01*
X96327975Y-155070153D01*
X96430875Y-155001398D01*
X96497553Y-154980520D01*
X96499766Y-154980500D01*
X100900499Y-154980500D01*
X100967538Y-155000185D01*
X100988180Y-155016819D01*
X103108708Y-157137347D01*
X103142193Y-157198670D01*
X103137209Y-157268362D01*
X103095337Y-157324295D01*
X103089918Y-157328130D01*
X103049711Y-157354995D01*
X103049707Y-157354998D01*
X102938213Y-157466492D01*
X102938210Y-157466496D01*
X102850609Y-157597599D01*
X102850602Y-157597612D01*
X102790264Y-157743283D01*
X102790261Y-157743295D01*
X102759500Y-157897938D01*
X102759500Y-158055631D01*
X102790261Y-158210274D01*
X102790264Y-158210286D01*
X102850602Y-158355957D01*
X102850609Y-158355970D01*
X102938210Y-158487073D01*
X102938213Y-158487077D01*
X103049707Y-158598571D01*
X103049711Y-158598574D01*
X103180814Y-158686175D01*
X103180827Y-158686182D01*
X103326498Y-158746520D01*
X103326503Y-158746522D01*
X103391147Y-158759380D01*
X103481849Y-158777423D01*
X103498605Y-158786187D01*
X103517085Y-158790208D01*
X103542123Y-158808952D01*
X103543760Y-158809808D01*
X103545339Y-158811359D01*
X103675139Y-158941159D01*
X103675149Y-158941170D01*
X103679479Y-158945500D01*
X103679480Y-158945501D01*
X103791284Y-159057305D01*
X103878095Y-159107424D01*
X103878097Y-159107426D01*
X103916151Y-159129396D01*
X103928215Y-159136362D01*
X104080943Y-159177285D01*
X104239057Y-159177285D01*
X107625546Y-159177285D01*
X107625562Y-159177286D01*
X107633158Y-159177286D01*
X107791269Y-159177286D01*
X107791272Y-159177286D01*
X107944000Y-159136362D01*
X107994119Y-159107424D01*
X108080931Y-159057305D01*
X108192735Y-158945501D01*
X108192735Y-158945499D01*
X108202943Y-158935292D01*
X108202944Y-158935289D01*
X108669241Y-158468992D01*
X114269500Y-158468992D01*
X114269500Y-158671007D01*
X114308907Y-158869119D01*
X114308909Y-158869127D01*
X114386212Y-159055752D01*
X114386217Y-159055762D01*
X114498441Y-159223718D01*
X114641281Y-159366558D01*
X114809237Y-159478782D01*
X114809241Y-159478784D01*
X114809244Y-159478786D01*
X114995873Y-159556091D01*
X115193992Y-159595499D01*
X115193996Y-159595500D01*
X115193997Y-159595500D01*
X116446004Y-159595500D01*
X116446005Y-159595499D01*
X116644127Y-159556091D01*
X116830756Y-159478786D01*
X116998718Y-159366558D01*
X117141558Y-159223718D01*
X117253786Y-159055756D01*
X117331091Y-158869127D01*
X117370500Y-158671003D01*
X117370500Y-158476379D01*
X118599500Y-158476379D01*
X118599500Y-158663620D01*
X118636025Y-158847243D01*
X118636027Y-158847251D01*
X118707676Y-159020228D01*
X118707681Y-159020237D01*
X118811697Y-159175907D01*
X118811700Y-159175911D01*
X118944088Y-159308299D01*
X118944092Y-159308302D01*
X119099762Y-159412318D01*
X119099768Y-159412321D01*
X119099769Y-159412322D01*
X119272749Y-159483973D01*
X119426205Y-159514497D01*
X119456379Y-159520499D01*
X119456383Y-159520500D01*
X119456384Y-159520500D01*
X120543617Y-159520500D01*
X120543618Y-159520499D01*
X120727251Y-159483973D01*
X120900231Y-159412322D01*
X121055908Y-159308302D01*
X121188302Y-159175908D01*
X121292322Y-159020231D01*
X121363973Y-158847251D01*
X121400500Y-158663616D01*
X121400500Y-158476384D01*
X121363973Y-158292749D01*
X121292322Y-158119769D01*
X121292321Y-158119768D01*
X121292318Y-158119762D01*
X121188302Y-157964092D01*
X121188299Y-157964088D01*
X121055911Y-157831700D01*
X121055907Y-157831697D01*
X120900237Y-157727681D01*
X120900228Y-157727676D01*
X120727251Y-157656027D01*
X120727243Y-157656025D01*
X120543620Y-157619500D01*
X120543616Y-157619500D01*
X119456384Y-157619500D01*
X119456379Y-157619500D01*
X119272756Y-157656025D01*
X119272748Y-157656027D01*
X119099771Y-157727676D01*
X119099762Y-157727681D01*
X118944092Y-157831697D01*
X118944088Y-157831700D01*
X118811700Y-157964088D01*
X118811697Y-157964092D01*
X118707681Y-158119762D01*
X118707676Y-158119771D01*
X118636027Y-158292748D01*
X118636025Y-158292756D01*
X118599500Y-158476379D01*
X117370500Y-158476379D01*
X117370500Y-158468997D01*
X117331091Y-158270873D01*
X117253786Y-158084244D01*
X117253784Y-158084241D01*
X117253782Y-158084237D01*
X117141558Y-157916281D01*
X116998718Y-157773441D01*
X116825691Y-157657829D01*
X116826432Y-157656718D01*
X116781465Y-157612553D01*
X116765999Y-157544417D01*
X116782369Y-157490152D01*
X116856281Y-157362135D01*
X116895500Y-157215766D01*
X116895500Y-157064234D01*
X116856281Y-156917865D01*
X116780515Y-156786635D01*
X116673365Y-156679485D01*
X116607750Y-156641602D01*
X116542136Y-156603719D01*
X116468950Y-156584109D01*
X116395766Y-156564500D01*
X116244234Y-156564500D01*
X116097863Y-156603719D01*
X115966635Y-156679485D01*
X115966632Y-156679487D01*
X115859487Y-156786632D01*
X115859485Y-156786635D01*
X115783719Y-156917863D01*
X115754440Y-157027137D01*
X115744500Y-157064234D01*
X115744500Y-157215766D01*
X115781806Y-157354996D01*
X115783720Y-157362137D01*
X115786831Y-157369649D01*
X115784552Y-157370592D01*
X115798093Y-157426393D01*
X115775245Y-157492421D01*
X115720326Y-157535615D01*
X115674233Y-157544500D01*
X115193992Y-157544500D01*
X114995880Y-157583907D01*
X114995872Y-157583909D01*
X114809247Y-157661212D01*
X114809237Y-157661217D01*
X114641281Y-157773441D01*
X114498441Y-157916281D01*
X114386217Y-158084237D01*
X114386212Y-158084247D01*
X114308909Y-158270872D01*
X114308907Y-158270880D01*
X114269500Y-158468992D01*
X108669241Y-158468992D01*
X112068082Y-155070153D01*
X115719500Y-155070153D01*
X115719500Y-155227846D01*
X115750261Y-155382489D01*
X115750264Y-155382501D01*
X115810602Y-155528172D01*
X115810609Y-155528185D01*
X115898210Y-155659288D01*
X115898213Y-155659292D01*
X116009707Y-155770786D01*
X116009711Y-155770789D01*
X116140814Y-155858390D01*
X116140827Y-155858397D01*
X116286498Y-155918735D01*
X116286503Y-155918737D01*
X116441153Y-155949499D01*
X116441156Y-155949500D01*
X116441158Y-155949500D01*
X116598844Y-155949500D01*
X116598845Y-155949499D01*
X116753497Y-155918737D01*
X116899179Y-155858394D01*
X117030289Y-155770789D01*
X117141789Y-155659289D01*
X117229394Y-155528179D01*
X117289737Y-155382497D01*
X117320500Y-155227842D01*
X117320500Y-155070158D01*
X117320500Y-155070155D01*
X117320499Y-155070153D01*
X117289738Y-154915510D01*
X117289737Y-154915503D01*
X117229394Y-154769821D01*
X117171397Y-154683022D01*
X117165747Y-154664977D01*
X117155523Y-154649068D01*
X117151071Y-154618106D01*
X117150520Y-154616346D01*
X117150500Y-154614133D01*
X117150500Y-154528765D01*
X117170185Y-154461726D01*
X117171398Y-154459874D01*
X117259390Y-154328185D01*
X117259390Y-154328184D01*
X117259394Y-154328179D01*
X117319737Y-154182497D01*
X117350500Y-154027842D01*
X117350500Y-153870158D01*
X117350500Y-153870155D01*
X117350499Y-153870153D01*
X117332467Y-153779500D01*
X117319737Y-153715503D01*
X117295495Y-153656977D01*
X117259397Y-153569827D01*
X117259390Y-153569814D01*
X117171789Y-153438711D01*
X117171786Y-153438707D01*
X117060292Y-153327213D01*
X117060288Y-153327210D01*
X116929185Y-153239609D01*
X116929172Y-153239602D01*
X116783501Y-153179264D01*
X116783489Y-153179261D01*
X116628845Y-153148500D01*
X116628842Y-153148500D01*
X116471158Y-153148500D01*
X116471155Y-153148500D01*
X116316510Y-153179261D01*
X116316498Y-153179264D01*
X116170827Y-153239602D01*
X116170814Y-153239609D01*
X116039711Y-153327210D01*
X116039707Y-153327213D01*
X115928213Y-153438707D01*
X115928210Y-153438711D01*
X115840609Y-153569814D01*
X115840602Y-153569827D01*
X115780264Y-153715498D01*
X115780261Y-153715510D01*
X115749500Y-153870153D01*
X115749500Y-154027846D01*
X115780261Y-154182489D01*
X115780264Y-154182501D01*
X115840602Y-154328172D01*
X115840609Y-154328185D01*
X115928602Y-154459874D01*
X115934252Y-154477920D01*
X115944477Y-154493830D01*
X115948928Y-154524789D01*
X115949480Y-154526551D01*
X115949500Y-154528765D01*
X115949500Y-154536059D01*
X115929815Y-154603098D01*
X115913181Y-154623740D01*
X115898213Y-154638707D01*
X115898210Y-154638711D01*
X115810609Y-154769814D01*
X115810602Y-154769827D01*
X115750264Y-154915498D01*
X115750261Y-154915510D01*
X115719500Y-155070153D01*
X112068082Y-155070153D01*
X113034664Y-154103571D01*
X113095985Y-154070088D01*
X113098152Y-154069637D01*
X113098841Y-154069500D01*
X113098842Y-154069500D01*
X113253497Y-154038737D01*
X113399179Y-153978394D01*
X113530289Y-153890789D01*
X113641789Y-153779289D01*
X113729394Y-153648179D01*
X113789737Y-153502497D01*
X113820500Y-153347842D01*
X113820500Y-153190158D01*
X113820500Y-153190155D01*
X113820499Y-153190153D01*
X113789737Y-153035503D01*
X113747434Y-152933373D01*
X113729397Y-152889827D01*
X113729390Y-152889814D01*
X113641789Y-152758711D01*
X113641786Y-152758707D01*
X113530292Y-152647213D01*
X113530288Y-152647210D01*
X113399185Y-152559609D01*
X113399172Y-152559602D01*
X113253501Y-152499264D01*
X113253489Y-152499261D01*
X113098845Y-152468500D01*
X113098842Y-152468500D01*
X112941158Y-152468500D01*
X112941155Y-152468500D01*
X112786510Y-152499261D01*
X112786498Y-152499264D01*
X112640827Y-152559602D01*
X112640814Y-152559609D01*
X112509711Y-152647210D01*
X112509707Y-152647213D01*
X112398213Y-152758707D01*
X112398210Y-152758711D01*
X112310609Y-152889814D01*
X112310602Y-152889827D01*
X112250264Y-153035498D01*
X112250261Y-153035508D01*
X112219362Y-153190848D01*
X112186977Y-153252759D01*
X112185426Y-153254337D01*
X111590934Y-153848829D01*
X111529611Y-153882314D01*
X111459919Y-153877330D01*
X111434362Y-153864250D01*
X111309185Y-153780609D01*
X111309172Y-153780602D01*
X111163501Y-153720264D01*
X111163491Y-153720261D01*
X111008151Y-153689362D01*
X110946241Y-153656977D01*
X110944662Y-153655426D01*
X107785090Y-150495855D01*
X107785088Y-150495852D01*
X107666217Y-150376981D01*
X107666216Y-150376980D01*
X107579404Y-150326860D01*
X107579404Y-150326859D01*
X107579400Y-150326858D01*
X107529285Y-150297923D01*
X107376557Y-150256999D01*
X107227264Y-150256999D01*
X107160225Y-150237314D01*
X107158373Y-150236101D01*
X107026685Y-150148109D01*
X107026672Y-150148102D01*
X106881001Y-150087764D01*
X106880989Y-150087761D01*
X106726345Y-150057000D01*
X106726342Y-150057000D01*
X106568658Y-150057000D01*
X106568655Y-150057000D01*
X106414010Y-150087761D01*
X106413998Y-150087764D01*
X106268327Y-150148102D01*
X106268314Y-150148109D01*
X106136625Y-150236102D01*
X106069947Y-150256980D01*
X106067734Y-150257000D01*
X95657598Y-150257000D01*
X95590559Y-150237315D01*
X95569917Y-150220681D01*
X95259822Y-149910586D01*
X95178228Y-149828992D01*
X114269500Y-149828992D01*
X114269500Y-150031007D01*
X114308907Y-150229119D01*
X114308909Y-150229127D01*
X114386212Y-150415752D01*
X114386217Y-150415762D01*
X114498441Y-150583718D01*
X114641281Y-150726558D01*
X114809237Y-150838782D01*
X114809241Y-150838784D01*
X114809244Y-150838786D01*
X114995873Y-150916091D01*
X115193992Y-150955499D01*
X115193996Y-150955500D01*
X115193997Y-150955500D01*
X115674233Y-150955500D01*
X115741272Y-150975185D01*
X115787027Y-151027989D01*
X115796971Y-151097147D01*
X115785647Y-151129860D01*
X115786831Y-151130351D01*
X115783720Y-151137862D01*
X115783720Y-151137863D01*
X115783719Y-151137865D01*
X115744500Y-151284234D01*
X115744500Y-151435766D01*
X115753511Y-151469397D01*
X115783719Y-151582136D01*
X115809759Y-151627237D01*
X115859485Y-151713365D01*
X115966635Y-151820515D01*
X116074465Y-151882771D01*
X116096051Y-151895234D01*
X116097865Y-151896281D01*
X116244234Y-151935500D01*
X116244236Y-151935500D01*
X116395764Y-151935500D01*
X116395766Y-151935500D01*
X116542135Y-151896281D01*
X116673365Y-151820515D01*
X116780515Y-151713365D01*
X116856281Y-151582135D01*
X116895500Y-151435766D01*
X116895500Y-151284234D01*
X116856281Y-151137865D01*
X116782370Y-151009848D01*
X116765898Y-150941951D01*
X116788750Y-150875924D01*
X116826223Y-150842967D01*
X116825691Y-150842171D01*
X116979039Y-150739707D01*
X116998718Y-150726558D01*
X117141558Y-150583718D01*
X117253786Y-150415756D01*
X117331091Y-150229127D01*
X117370500Y-150031003D01*
X117370500Y-149836379D01*
X118599500Y-149836379D01*
X118599500Y-150023620D01*
X118636025Y-150207243D01*
X118636027Y-150207251D01*
X118707676Y-150380228D01*
X118707681Y-150380237D01*
X118811697Y-150535907D01*
X118811700Y-150535911D01*
X118944088Y-150668299D01*
X118944092Y-150668302D01*
X119099762Y-150772318D01*
X119099768Y-150772321D01*
X119099769Y-150772322D01*
X119272749Y-150843973D01*
X119433379Y-150875924D01*
X119456379Y-150880499D01*
X119456383Y-150880500D01*
X119456384Y-150880500D01*
X120543617Y-150880500D01*
X120543618Y-150880499D01*
X120727251Y-150843973D01*
X120900231Y-150772322D01*
X121055908Y-150668302D01*
X121188302Y-150535908D01*
X121292322Y-150380231D01*
X121363973Y-150207251D01*
X121400500Y-150023616D01*
X121400500Y-149836384D01*
X121363973Y-149652749D01*
X121292322Y-149479769D01*
X121292321Y-149479768D01*
X121292318Y-149479762D01*
X121188302Y-149324092D01*
X121188299Y-149324088D01*
X121055911Y-149191700D01*
X121055907Y-149191697D01*
X120900237Y-149087681D01*
X120900228Y-149087676D01*
X120727251Y-149016027D01*
X120727243Y-149016025D01*
X120543620Y-148979500D01*
X120543616Y-148979500D01*
X119456384Y-148979500D01*
X119456379Y-148979500D01*
X119272756Y-149016025D01*
X119272748Y-149016027D01*
X119099771Y-149087676D01*
X119099762Y-149087681D01*
X118944092Y-149191697D01*
X118944088Y-149191700D01*
X118811700Y-149324088D01*
X118811697Y-149324092D01*
X118707681Y-149479762D01*
X118707676Y-149479771D01*
X118636027Y-149652748D01*
X118636025Y-149652756D01*
X118599500Y-149836379D01*
X117370500Y-149836379D01*
X117370500Y-149828997D01*
X117331091Y-149630873D01*
X117253786Y-149444244D01*
X117253784Y-149444241D01*
X117253782Y-149444237D01*
X117141558Y-149276281D01*
X116998718Y-149133441D01*
X116830762Y-149021217D01*
X116830752Y-149021212D01*
X116644127Y-148943909D01*
X116644119Y-148943907D01*
X116446007Y-148904500D01*
X116446003Y-148904500D01*
X115193997Y-148904500D01*
X115193992Y-148904500D01*
X114995880Y-148943907D01*
X114995872Y-148943909D01*
X114809247Y-149021212D01*
X114809237Y-149021217D01*
X114641281Y-149133441D01*
X114498441Y-149276281D01*
X114386217Y-149444237D01*
X114386212Y-149444247D01*
X114308909Y-149630872D01*
X114308907Y-149630880D01*
X114269500Y-149828992D01*
X95178228Y-149828992D01*
X94437590Y-149088355D01*
X94437588Y-149088352D01*
X94318717Y-148969481D01*
X94318716Y-148969480D01*
X94215192Y-148909711D01*
X94215191Y-148909710D01*
X94181783Y-148890422D01*
X94125881Y-148875443D01*
X94029057Y-148849499D01*
X93870943Y-148849499D01*
X93863347Y-148849499D01*
X93863331Y-148849500D01*
X93382941Y-148849500D01*
X93315902Y-148829815D01*
X93295260Y-148813181D01*
X93280292Y-148798213D01*
X93280288Y-148798210D01*
X93149185Y-148710609D01*
X93149172Y-148710602D01*
X93003501Y-148650264D01*
X93003489Y-148650261D01*
X92848845Y-148619500D01*
X92848842Y-148619500D01*
X92691158Y-148619500D01*
X92691155Y-148619500D01*
X92536510Y-148650261D01*
X92536498Y-148650264D01*
X92390827Y-148710602D01*
X92390814Y-148710609D01*
X92259711Y-148798210D01*
X92259707Y-148798213D01*
X92148213Y-148909707D01*
X92148210Y-148909711D01*
X92060609Y-149040814D01*
X92060602Y-149040827D01*
X92000264Y-149186498D01*
X92000261Y-149186510D01*
X91969500Y-149341153D01*
X91969500Y-149498846D01*
X92000261Y-149653489D01*
X92000264Y-149653501D01*
X92060602Y-149799172D01*
X92060609Y-149799185D01*
X92148210Y-149930288D01*
X92148213Y-149930292D01*
X92259707Y-150041786D01*
X92259711Y-150041789D01*
X92390814Y-150129390D01*
X92390827Y-150129397D01*
X92536498Y-150189735D01*
X92536503Y-150189737D01*
X92691153Y-150220499D01*
X92691156Y-150220500D01*
X92691158Y-150220500D01*
X92848844Y-150220500D01*
X92848845Y-150220499D01*
X93003497Y-150189737D01*
X93149179Y-150129394D01*
X93235976Y-150071398D01*
X93302653Y-150050520D01*
X93304867Y-150050500D01*
X93649903Y-150050500D01*
X93716942Y-150070185D01*
X93737583Y-150086818D01*
X94988784Y-151338020D01*
X94988786Y-151338021D01*
X94988790Y-151338024D01*
X95094651Y-151399142D01*
X95125716Y-151417077D01*
X95278443Y-151458001D01*
X95278445Y-151458001D01*
X95444154Y-151458001D01*
X95444170Y-151458000D01*
X106067734Y-151458000D01*
X106134773Y-151477685D01*
X106136625Y-151478898D01*
X106268314Y-151566890D01*
X106268327Y-151566897D01*
X106365672Y-151607218D01*
X106414003Y-151627237D01*
X106568653Y-151657999D01*
X106568656Y-151658000D01*
X106568658Y-151658000D01*
X106726344Y-151658000D01*
X106726345Y-151657999D01*
X106880997Y-151627237D01*
X107026679Y-151566894D01*
X107026689Y-151566887D01*
X107030912Y-151564630D01*
X107099312Y-151550377D01*
X107164560Y-151575367D01*
X107177063Y-151586298D01*
X110095425Y-154504660D01*
X110128910Y-154565983D01*
X110129361Y-154568149D01*
X110160261Y-154723491D01*
X110160264Y-154723501D01*
X110220602Y-154869172D01*
X110220609Y-154869185D01*
X110304250Y-154994362D01*
X110325128Y-155061040D01*
X110306643Y-155128420D01*
X110288829Y-155150934D01*
X107499799Y-157939966D01*
X107438476Y-157973451D01*
X107412118Y-157976285D01*
X106297248Y-157976285D01*
X106230209Y-157956600D01*
X106184454Y-157903796D01*
X106175631Y-157876476D01*
X106155136Y-157773442D01*
X106148939Y-157742288D01*
X106142889Y-157727681D01*
X106088599Y-157596612D01*
X106088592Y-157596599D01*
X106000600Y-157464910D01*
X105979722Y-157398232D01*
X105979702Y-157396019D01*
X105979702Y-157370147D01*
X105979702Y-157370145D01*
X105938779Y-157217418D01*
X105927955Y-157198670D01*
X105859726Y-157080492D01*
X105859723Y-157080488D01*
X105859722Y-157080486D01*
X105747918Y-156968682D01*
X105747917Y-156968681D01*
X105743587Y-156964351D01*
X105743576Y-156964341D01*
X102371769Y-153592534D01*
X102338284Y-153531211D01*
X102343268Y-153461519D01*
X102385140Y-153405586D01*
X102390535Y-153401767D01*
X102510405Y-153321673D01*
X102621905Y-153210173D01*
X102709510Y-153079063D01*
X102769853Y-152933381D01*
X102800616Y-152778726D01*
X102800616Y-152621042D01*
X102800616Y-152621039D01*
X102800615Y-152621037D01*
X102794671Y-152591153D01*
X102769853Y-152466387D01*
X102762957Y-152449738D01*
X102709513Y-152320711D01*
X102709506Y-152320698D01*
X102621905Y-152189595D01*
X102621902Y-152189591D01*
X102510408Y-152078097D01*
X102510404Y-152078094D01*
X102379301Y-151990493D01*
X102379288Y-151990486D01*
X102233617Y-151930148D01*
X102233605Y-151930145D01*
X102078961Y-151899384D01*
X102078958Y-151899384D01*
X102074686Y-151899384D01*
X102059198Y-151895234D01*
X102045452Y-151895889D01*
X102012686Y-151882771D01*
X101971612Y-151859057D01*
X101971610Y-151859055D01*
X101922020Y-151830424D01*
X101922019Y-151830423D01*
X101858159Y-151813312D01*
X101769289Y-151789499D01*
X101611175Y-151789499D01*
X101603579Y-151789499D01*
X101603563Y-151789500D01*
X93330097Y-151789500D01*
X93300656Y-151780855D01*
X93270670Y-151774332D01*
X93265654Y-151770577D01*
X93263058Y-151769815D01*
X93242416Y-151753181D01*
X93176819Y-151687584D01*
X93143334Y-151626261D01*
X93141284Y-151607199D01*
X93141097Y-151607218D01*
X93140500Y-151601163D01*
X93140500Y-151601158D01*
X93109737Y-151446503D01*
X93098469Y-151419300D01*
X93049397Y-151300827D01*
X93049390Y-151300814D01*
X92961789Y-151169711D01*
X92961786Y-151169707D01*
X92850292Y-151058213D01*
X92850288Y-151058210D01*
X92719185Y-150970609D01*
X92719172Y-150970602D01*
X92573501Y-150910264D01*
X92573489Y-150910261D01*
X92418845Y-150879500D01*
X92418842Y-150879500D01*
X92261158Y-150879500D01*
X92261155Y-150879500D01*
X92106510Y-150910261D01*
X92106498Y-150910264D01*
X91960827Y-150970602D01*
X91960814Y-150970609D01*
X91829711Y-151058210D01*
X91829707Y-151058213D01*
X91718213Y-151169707D01*
X91718210Y-151169711D01*
X91630609Y-151300814D01*
X91630602Y-151300827D01*
X91570264Y-151446498D01*
X91570261Y-151446510D01*
X91539500Y-151601153D01*
X88760388Y-151601153D01*
X88726819Y-151567584D01*
X88693334Y-151506261D01*
X88690500Y-151479903D01*
X88690500Y-148411724D01*
X88710185Y-148344685D01*
X88711398Y-148342833D01*
X88799390Y-148211144D01*
X88799390Y-148211143D01*
X88799394Y-148211138D01*
X88859737Y-148065456D01*
X88872420Y-148001694D01*
X88886231Y-147932267D01*
X88918616Y-147870356D01*
X88979332Y-147835782D01*
X89007848Y-147832459D01*
X104271372Y-147832459D01*
X104271388Y-147832460D01*
X104278984Y-147832460D01*
X104437095Y-147832460D01*
X104437098Y-147832460D01*
X104589826Y-147791536D01*
X104656369Y-147753117D01*
X104726757Y-147712479D01*
X104838561Y-147600675D01*
X104838561Y-147600673D01*
X104848765Y-147590470D01*
X104848768Y-147590465D01*
X109504662Y-142934572D01*
X109565983Y-142901089D01*
X109568150Y-142900638D01*
X109626085Y-142889113D01*
X109723497Y-142869737D01*
X109869179Y-142809394D01*
X110000289Y-142721789D01*
X110111789Y-142610289D01*
X110199394Y-142479179D01*
X110259737Y-142333497D01*
X110290500Y-142178842D01*
X110290500Y-142021158D01*
X110290500Y-142021155D01*
X110290499Y-142021153D01*
X110259738Y-141866510D01*
X110259738Y-141866508D01*
X110259737Y-141866503D01*
X110259735Y-141866498D01*
X110199397Y-141720827D01*
X110199390Y-141720814D01*
X110111789Y-141589711D01*
X110111786Y-141589707D01*
X110000292Y-141478213D01*
X110000288Y-141478210D01*
X109869185Y-141390609D01*
X109869172Y-141390602D01*
X109723501Y-141330264D01*
X109723489Y-141330261D01*
X109568845Y-141299500D01*
X109568842Y-141299500D01*
X109411158Y-141299500D01*
X109411155Y-141299500D01*
X109256510Y-141330261D01*
X109256498Y-141330264D01*
X109110827Y-141390602D01*
X109110814Y-141390609D01*
X108979711Y-141478210D01*
X108979707Y-141478213D01*
X108868213Y-141589707D01*
X108868210Y-141589711D01*
X108780609Y-141720814D01*
X108780602Y-141720827D01*
X108720264Y-141866498D01*
X108720261Y-141866508D01*
X108689361Y-142021850D01*
X108656976Y-142083761D01*
X108655425Y-142085339D01*
X104145625Y-146595140D01*
X104084302Y-146628625D01*
X104057944Y-146631459D01*
X102447138Y-146631459D01*
X102380099Y-146611774D01*
X102334344Y-146558970D01*
X102324400Y-146489812D01*
X102353425Y-146426256D01*
X102359457Y-146419778D01*
X105878735Y-142900500D01*
X109604664Y-139174571D01*
X109665985Y-139141088D01*
X109668152Y-139140637D01*
X109668841Y-139140500D01*
X109668842Y-139140500D01*
X109823497Y-139109737D01*
X109969179Y-139049394D01*
X110100289Y-138961789D01*
X110211789Y-138850289D01*
X110299394Y-138719179D01*
X110359737Y-138573497D01*
X110390500Y-138418842D01*
X110390500Y-138261158D01*
X110390500Y-138261155D01*
X110390499Y-138261153D01*
X110363714Y-138126497D01*
X110359737Y-138106503D01*
X110332397Y-138040498D01*
X110299397Y-137960827D01*
X110299390Y-137960814D01*
X110211789Y-137829711D01*
X110211786Y-137829707D01*
X110100292Y-137718213D01*
X110100288Y-137718210D01*
X109969185Y-137630609D01*
X109969172Y-137630602D01*
X109823501Y-137570264D01*
X109823489Y-137570261D01*
X109668845Y-137539500D01*
X109668842Y-137539500D01*
X109511158Y-137539500D01*
X109511155Y-137539500D01*
X109356510Y-137570261D01*
X109356498Y-137570264D01*
X109210827Y-137630602D01*
X109210814Y-137630609D01*
X109079711Y-137718210D01*
X109079707Y-137718213D01*
X108968213Y-137829707D01*
X108968210Y-137829711D01*
X108880609Y-137960814D01*
X108880602Y-137960827D01*
X108820264Y-138106498D01*
X108820261Y-138106508D01*
X108789362Y-138261848D01*
X108756977Y-138323759D01*
X108755426Y-138325337D01*
X101207584Y-145873181D01*
X101146261Y-145906666D01*
X101119903Y-145909500D01*
X89064500Y-145909500D01*
X88997461Y-145889815D01*
X88951706Y-145837011D01*
X88940500Y-145785500D01*
X88940500Y-145651155D01*
X88940499Y-145651153D01*
X88909738Y-145496510D01*
X88909737Y-145496503D01*
X88909735Y-145496498D01*
X88849397Y-145350827D01*
X88849390Y-145350814D01*
X88761398Y-145219125D01*
X88740520Y-145152447D01*
X88740500Y-145150234D01*
X88740500Y-143350945D01*
X88740500Y-143350943D01*
X88705580Y-143220620D01*
X88699577Y-143198215D01*
X88645193Y-143104020D01*
X88620520Y-143061284D01*
X88508716Y-142949480D01*
X88508715Y-142949479D01*
X88504385Y-142945149D01*
X88504374Y-142945139D01*
X74879574Y-129320339D01*
X74846089Y-129259016D01*
X74845638Y-129256849D01*
X74814738Y-129101510D01*
X74814737Y-129101503D01*
X74804816Y-129077551D01*
X74754397Y-128955827D01*
X74754390Y-128955814D01*
X74666789Y-128824711D01*
X74666786Y-128824707D01*
X74555292Y-128713213D01*
X74555288Y-128713210D01*
X74424185Y-128625609D01*
X74424172Y-128625602D01*
X74278501Y-128565264D01*
X74278489Y-128565261D01*
X74123845Y-128534500D01*
X74123842Y-128534500D01*
X73966158Y-128534500D01*
X73966155Y-128534500D01*
X73811510Y-128565261D01*
X73811498Y-128565264D01*
X73665827Y-128625602D01*
X73665814Y-128625609D01*
X73534711Y-128713210D01*
X73534707Y-128713213D01*
X73423213Y-128824707D01*
X73423210Y-128824711D01*
X73335609Y-128955814D01*
X73335602Y-128955827D01*
X73275264Y-129101498D01*
X73275261Y-129101510D01*
X73244500Y-129256153D01*
X73244500Y-129413846D01*
X73275261Y-129568489D01*
X73275264Y-129568501D01*
X73335602Y-129714172D01*
X73335609Y-129714185D01*
X73423210Y-129845288D01*
X73423213Y-129845292D01*
X73534707Y-129956786D01*
X73534711Y-129956789D01*
X73665814Y-130044390D01*
X73665827Y-130044397D01*
X73811498Y-130104735D01*
X73811503Y-130104737D01*
X73876147Y-130117595D01*
X73966849Y-130135638D01*
X74028760Y-130168023D01*
X74030339Y-130169574D01*
X79010326Y-135149561D01*
X79043811Y-135210884D01*
X79038827Y-135280576D01*
X78996955Y-135336509D01*
X78931491Y-135360926D01*
X78863218Y-135346074D01*
X78853754Y-135340344D01*
X78839185Y-135330609D01*
X78839172Y-135330602D01*
X78693501Y-135270264D01*
X78693489Y-135270261D01*
X78538845Y-135239500D01*
X78538842Y-135239500D01*
X78381158Y-135239500D01*
X78381155Y-135239500D01*
X78226510Y-135270261D01*
X78226498Y-135270264D01*
X78080827Y-135330602D01*
X78080814Y-135330609D01*
X77949711Y-135418210D01*
X77949707Y-135418213D01*
X77838213Y-135529707D01*
X77838210Y-135529711D01*
X77750609Y-135660814D01*
X77750602Y-135660827D01*
X77690264Y-135806498D01*
X77690261Y-135806510D01*
X77659500Y-135961153D01*
X77659500Y-136118846D01*
X77690261Y-136273489D01*
X77690264Y-136273501D01*
X77750602Y-136419172D01*
X77750609Y-136419185D01*
X77833690Y-136543524D01*
X77854568Y-136610202D01*
X77836083Y-136677582D01*
X77833691Y-136681305D01*
X77800608Y-136730817D01*
X77800602Y-136730828D01*
X77740264Y-136876498D01*
X77740261Y-136876510D01*
X77709500Y-137031153D01*
X77709500Y-137188846D01*
X77740261Y-137343489D01*
X77740264Y-137343501D01*
X77800602Y-137489172D01*
X77800609Y-137489185D01*
X77888210Y-137620288D01*
X77888213Y-137620292D01*
X77999707Y-137731786D01*
X77999711Y-137731789D01*
X78130814Y-137819390D01*
X78130827Y-137819397D01*
X78249145Y-137868405D01*
X78276503Y-137879737D01*
X78431153Y-137910499D01*
X78431156Y-137910500D01*
X78431158Y-137910500D01*
X78588842Y-137910500D01*
X78669285Y-137894498D01*
X78738873Y-137900724D01*
X78781156Y-137928434D01*
X83030048Y-142177326D01*
X83063533Y-142238649D01*
X83058549Y-142308341D01*
X83016677Y-142364274D01*
X82988072Y-142380276D01*
X82977595Y-142384429D01*
X82965610Y-142386814D01*
X82831847Y-142442220D01*
X82830924Y-142442586D01*
X82797050Y-142445707D01*
X82763202Y-142449347D01*
X82761854Y-142448951D01*
X82761349Y-142448998D01*
X82760485Y-142448549D01*
X82737767Y-142441878D01*
X82632688Y-142398353D01*
X82632676Y-142398350D01*
X82478032Y-142367589D01*
X82478029Y-142367589D01*
X82320345Y-142367589D01*
X82320342Y-142367589D01*
X82165697Y-142398350D01*
X82165685Y-142398353D01*
X82014852Y-142460830D01*
X81945383Y-142468299D01*
X81919948Y-142460830D01*
X81833125Y-142424867D01*
X81833113Y-142424864D01*
X81678469Y-142394103D01*
X81678466Y-142394103D01*
X81520782Y-142394103D01*
X81520779Y-142394103D01*
X81366134Y-142424864D01*
X81366122Y-142424867D01*
X81220451Y-142485205D01*
X81220438Y-142485212D01*
X81089335Y-142572813D01*
X81089331Y-142572816D01*
X80977837Y-142684310D01*
X80977834Y-142684314D01*
X80890233Y-142815417D01*
X80890226Y-142815430D01*
X80829888Y-142961101D01*
X80829885Y-142961113D01*
X80799124Y-143115756D01*
X80799124Y-143273449D01*
X80829885Y-143428092D01*
X80829888Y-143428104D01*
X80890226Y-143573775D01*
X80890233Y-143573788D01*
X80978226Y-143705477D01*
X80999104Y-143772154D01*
X80999124Y-143774368D01*
X80999124Y-145080527D01*
X80979439Y-145147566D01*
X80926635Y-145193321D01*
X80857477Y-145203265D01*
X80793921Y-145174240D01*
X80787443Y-145168208D01*
X59190100Y-123570865D01*
X59156615Y-123509542D01*
X59161599Y-123439850D01*
X59203471Y-123383917D01*
X59230329Y-123368623D01*
X59349172Y-123319397D01*
X59349172Y-123319396D01*
X59349179Y-123319394D01*
X59480289Y-123231789D01*
X59591789Y-123120289D01*
X59679394Y-122989179D01*
X59739737Y-122843497D01*
X59770500Y-122688842D01*
X59770500Y-122531158D01*
X59770500Y-122531155D01*
X59770499Y-122531153D01*
X59761619Y-122486510D01*
X59739737Y-122376503D01*
X59714197Y-122314844D01*
X59679397Y-122230827D01*
X59679390Y-122230814D01*
X59591398Y-122099125D01*
X59570520Y-122032447D01*
X59570500Y-122030234D01*
X59570500Y-121671000D01*
X59570499Y-121670996D01*
X59559454Y-121629774D01*
X59559341Y-121629351D01*
X59529577Y-121518272D01*
X59473128Y-121420500D01*
X59450520Y-121381341D01*
X59338716Y-121269537D01*
X59338713Y-121269535D01*
X55271313Y-117202135D01*
X69779500Y-117202135D01*
X69779500Y-119297870D01*
X69779501Y-119297876D01*
X69785908Y-119357483D01*
X69836202Y-119492328D01*
X69836206Y-119492335D01*
X69922452Y-119607544D01*
X69922455Y-119607547D01*
X70037664Y-119693793D01*
X70037671Y-119693797D01*
X70172517Y-119744091D01*
X70172516Y-119744091D01*
X70179444Y-119744835D01*
X70232127Y-119750500D01*
X71261664Y-119750499D01*
X71328702Y-119770183D01*
X71374457Y-119822987D01*
X71384401Y-119892146D01*
X71355376Y-119955702D01*
X71330556Y-119977600D01*
X71299709Y-119998211D01*
X71188213Y-120109707D01*
X71188210Y-120109711D01*
X71100609Y-120240814D01*
X71100602Y-120240827D01*
X71040264Y-120386498D01*
X71040261Y-120386510D01*
X71009500Y-120541153D01*
X71009500Y-120698846D01*
X71040261Y-120853489D01*
X71040264Y-120853501D01*
X71100602Y-120999172D01*
X71100609Y-120999185D01*
X71188602Y-121130874D01*
X71209480Y-121197551D01*
X71209500Y-121199765D01*
X71209500Y-122200099D01*
X71189815Y-122267138D01*
X71188602Y-122268990D01*
X71140609Y-122340815D01*
X71140602Y-122340828D01*
X71080264Y-122486498D01*
X71080261Y-122486510D01*
X71049500Y-122641153D01*
X71049500Y-122798846D01*
X71080261Y-122953489D01*
X71080264Y-122953501D01*
X71140602Y-123099172D01*
X71140609Y-123099185D01*
X71228210Y-123230288D01*
X71228213Y-123230292D01*
X71339707Y-123341786D01*
X71339711Y-123341789D01*
X71470814Y-123429390D01*
X71470827Y-123429397D01*
X71604427Y-123484735D01*
X71616503Y-123489737D01*
X71739235Y-123514150D01*
X71771153Y-123520499D01*
X71771156Y-123520500D01*
X71771158Y-123520500D01*
X71928844Y-123520500D01*
X71928845Y-123520499D01*
X72083497Y-123489737D01*
X72229179Y-123429394D01*
X72337295Y-123357153D01*
X91409500Y-123357153D01*
X91409500Y-123514846D01*
X91440261Y-123669489D01*
X91440264Y-123669501D01*
X91500602Y-123815172D01*
X91500609Y-123815185D01*
X91588210Y-123946288D01*
X91588213Y-123946292D01*
X91699707Y-124057786D01*
X91699711Y-124057789D01*
X91830814Y-124145390D01*
X91830827Y-124145397D01*
X91957406Y-124197827D01*
X91976503Y-124205737D01*
X92131153Y-124236499D01*
X92131156Y-124236500D01*
X92131158Y-124236500D01*
X92288844Y-124236500D01*
X92288845Y-124236499D01*
X92443497Y-124205737D01*
X92589179Y-124145394D01*
X92720289Y-124057789D01*
X92831789Y-123946289D01*
X92919394Y-123815179D01*
X92979737Y-123669497D01*
X92999356Y-123570865D01*
X93010638Y-123514150D01*
X93043023Y-123452239D01*
X93044518Y-123450716D01*
X93424662Y-123070572D01*
X93485983Y-123037089D01*
X93488150Y-123036638D01*
X93572315Y-123019896D01*
X93643497Y-123005737D01*
X93769607Y-122953501D01*
X93789172Y-122945397D01*
X93789172Y-122945396D01*
X93789179Y-122945394D01*
X93920289Y-122857789D01*
X94031789Y-122746289D01*
X94119394Y-122615179D01*
X94179737Y-122469497D01*
X94210500Y-122314842D01*
X94210500Y-122157158D01*
X94210500Y-122157155D01*
X94210499Y-122157153D01*
X94198545Y-122097059D01*
X94179737Y-122002503D01*
X94159851Y-121954494D01*
X94119397Y-121856827D01*
X94119390Y-121856814D01*
X94031789Y-121725711D01*
X94031786Y-121725707D01*
X93920292Y-121614213D01*
X93920288Y-121614210D01*
X93789185Y-121526609D01*
X93789172Y-121526602D01*
X93643501Y-121466264D01*
X93643489Y-121466261D01*
X93488845Y-121435500D01*
X93488842Y-121435500D01*
X93331158Y-121435500D01*
X93331155Y-121435500D01*
X93176510Y-121466261D01*
X93176498Y-121466264D01*
X93030827Y-121526602D01*
X93030814Y-121526609D01*
X92899711Y-121614210D01*
X92899707Y-121614213D01*
X92788213Y-121725707D01*
X92788210Y-121725711D01*
X92700609Y-121856814D01*
X92700602Y-121856827D01*
X92640264Y-122002498D01*
X92640261Y-122002508D01*
X92609361Y-122157850D01*
X92576976Y-122219761D01*
X92575425Y-122221339D01*
X92195339Y-122601425D01*
X92134016Y-122634910D01*
X92131850Y-122635361D01*
X91976508Y-122666261D01*
X91976498Y-122666264D01*
X91830827Y-122726602D01*
X91830814Y-122726609D01*
X91699711Y-122814210D01*
X91699707Y-122814213D01*
X91588213Y-122925707D01*
X91588210Y-122925711D01*
X91500609Y-123056814D01*
X91500602Y-123056827D01*
X91440264Y-123202498D01*
X91440261Y-123202510D01*
X91409500Y-123357153D01*
X72337295Y-123357153D01*
X72360289Y-123341789D01*
X72382688Y-123319390D01*
X72438694Y-123263385D01*
X72471786Y-123230292D01*
X72471789Y-123230289D01*
X72559394Y-123099179D01*
X72571243Y-123070574D01*
X72585356Y-123036500D01*
X72619737Y-122953497D01*
X72650500Y-122798842D01*
X72650500Y-122641158D01*
X72650500Y-122641155D01*
X72650499Y-122641153D01*
X72645331Y-122615172D01*
X72619737Y-122486503D01*
X72608890Y-122460315D01*
X72559397Y-122340827D01*
X72559390Y-122340814D01*
X72471789Y-122209711D01*
X72471786Y-122209707D01*
X72446819Y-122184740D01*
X72413334Y-122123417D01*
X72410500Y-122097059D01*
X72410500Y-121199765D01*
X72430185Y-121132726D01*
X72431398Y-121130874D01*
X72452932Y-121098647D01*
X72519394Y-120999179D01*
X72579737Y-120853497D01*
X72610500Y-120698842D01*
X72610500Y-120541158D01*
X72610500Y-120541155D01*
X72610499Y-120541153D01*
X72601960Y-120498223D01*
X72579737Y-120386503D01*
X72579735Y-120386498D01*
X72519397Y-120240827D01*
X72519390Y-120240814D01*
X72431789Y-120109711D01*
X72431786Y-120109707D01*
X72320292Y-119998213D01*
X72320286Y-119998208D01*
X72286143Y-119975394D01*
X72241339Y-119921782D01*
X72232632Y-119852456D01*
X72262787Y-119789429D01*
X72322231Y-119752711D01*
X72341777Y-119749004D01*
X72387483Y-119744091D01*
X72522331Y-119693796D01*
X72637546Y-119607546D01*
X72723796Y-119492331D01*
X72774091Y-119357483D01*
X72780500Y-119297873D01*
X72780499Y-118131947D01*
X77380000Y-118131947D01*
X77380000Y-118368052D01*
X77416934Y-118601247D01*
X77489897Y-118825802D01*
X77597087Y-119036174D01*
X77657338Y-119119104D01*
X77657340Y-119119105D01*
X78397037Y-118379408D01*
X78414075Y-118442993D01*
X78479901Y-118557007D01*
X78572993Y-118650099D01*
X78687007Y-118715925D01*
X78750590Y-118732962D01*
X78010893Y-119472658D01*
X78093828Y-119532914D01*
X78304197Y-119640102D01*
X78528752Y-119713065D01*
X78528751Y-119713065D01*
X78761948Y-119750000D01*
X78998052Y-119750000D01*
X79231247Y-119713065D01*
X79455802Y-119640102D01*
X79666163Y-119532918D01*
X79666169Y-119532914D01*
X79749104Y-119472658D01*
X79749105Y-119472658D01*
X79009408Y-118732962D01*
X79072993Y-118715925D01*
X79187007Y-118650099D01*
X79280099Y-118557007D01*
X79345925Y-118442993D01*
X79362962Y-118379409D01*
X80102658Y-119119105D01*
X80102658Y-119119104D01*
X80162914Y-119036169D01*
X80162918Y-119036163D01*
X80270102Y-118825802D01*
X80343065Y-118601247D01*
X80380000Y-118368052D01*
X80380000Y-118131947D01*
X80343065Y-117898754D01*
X80295832Y-117753385D01*
X80295831Y-117753383D01*
X80285359Y-117721153D01*
X91399500Y-117721153D01*
X91399500Y-117878846D01*
X91430261Y-118033489D01*
X91430264Y-118033501D01*
X91490602Y-118179172D01*
X91490609Y-118179185D01*
X91578210Y-118310288D01*
X91578213Y-118310292D01*
X91689707Y-118421786D01*
X91689711Y-118421789D01*
X91820814Y-118509390D01*
X91820827Y-118509397D01*
X91939729Y-118558647D01*
X91966503Y-118569737D01*
X92121153Y-118600499D01*
X92121156Y-118600500D01*
X92121158Y-118600500D01*
X92278844Y-118600500D01*
X92278845Y-118600499D01*
X92433497Y-118569737D01*
X92551370Y-118520912D01*
X92620836Y-118513444D01*
X92683316Y-118544719D01*
X92686501Y-118547793D01*
X95612181Y-121473473D01*
X95645666Y-121534796D01*
X95648500Y-121561154D01*
X95648500Y-127572273D01*
X95648499Y-127572291D01*
X95648499Y-127737997D01*
X95648498Y-127737997D01*
X95648499Y-127738000D01*
X95683174Y-127867408D01*
X95689423Y-127890727D01*
X95689424Y-127890731D01*
X95718114Y-127940424D01*
X95718115Y-127940424D01*
X95768477Y-128027655D01*
X95768481Y-128027660D01*
X95887349Y-128146528D01*
X95887355Y-128146533D01*
X98716196Y-130975374D01*
X98716206Y-130975385D01*
X98720536Y-130979715D01*
X98720537Y-130979716D01*
X98832341Y-131091520D01*
X98919152Y-131141639D01*
X98919154Y-131141641D01*
X98957208Y-131163611D01*
X98969272Y-131170577D01*
X99122000Y-131211501D01*
X99122003Y-131211501D01*
X99287710Y-131211501D01*
X99287726Y-131211500D01*
X99619885Y-131211500D01*
X99778000Y-131211501D01*
X99930727Y-131170577D01*
X100067659Y-131091520D01*
X100529634Y-130629544D01*
X100590955Y-130596061D01*
X100593122Y-130595610D01*
X100651057Y-130584085D01*
X100748469Y-130564709D01*
X100894151Y-130504366D01*
X101025261Y-130416761D01*
X101136761Y-130305261D01*
X101224366Y-130174151D01*
X101284709Y-130028469D01*
X101315472Y-129873814D01*
X101315610Y-129873122D01*
X101347995Y-129811211D01*
X101349490Y-129809688D01*
X103980520Y-127178659D01*
X104059577Y-127041727D01*
X104100501Y-126889000D01*
X104100501Y-126730885D01*
X104100501Y-126723290D01*
X104100500Y-126723272D01*
X104100500Y-125999708D01*
X104120185Y-125932669D01*
X104121398Y-125930817D01*
X104209390Y-125799128D01*
X104209390Y-125799127D01*
X104209394Y-125799122D01*
X104269737Y-125653440D01*
X104300500Y-125498785D01*
X104300500Y-125341101D01*
X104300500Y-125341098D01*
X104300499Y-125341096D01*
X104269738Y-125186453D01*
X104269737Y-125186446D01*
X104269735Y-125186441D01*
X104209397Y-125040770D01*
X104209390Y-125040757D01*
X104121789Y-124909654D01*
X104121786Y-124909650D01*
X104073817Y-124861681D01*
X104040332Y-124800358D01*
X104045316Y-124730666D01*
X104087188Y-124674733D01*
X104152652Y-124650316D01*
X104161498Y-124650000D01*
X105447828Y-124650000D01*
X105447844Y-124649999D01*
X105507372Y-124643598D01*
X105507379Y-124643596D01*
X105642086Y-124593354D01*
X105642093Y-124593350D01*
X105757187Y-124507190D01*
X105757190Y-124507187D01*
X105843350Y-124392093D01*
X105843354Y-124392086D01*
X105893596Y-124257379D01*
X105893598Y-124257372D01*
X105899999Y-124197844D01*
X105900000Y-124197827D01*
X105900000Y-123250000D01*
X105353552Y-123250000D01*
X105014457Y-123589095D01*
X104953134Y-123622580D01*
X104883442Y-123617596D01*
X104859757Y-123602374D01*
X104877164Y-123584968D01*
X104900000Y-123529837D01*
X104900000Y-123470163D01*
X104877164Y-123415032D01*
X104834968Y-123372836D01*
X104779837Y-123350000D01*
X104720163Y-123350000D01*
X104665032Y-123372836D01*
X104622836Y-123415032D01*
X104600000Y-123470163D01*
X104600000Y-123529837D01*
X104622836Y-123584968D01*
X104638950Y-123601082D01*
X104599581Y-123622580D01*
X104529889Y-123617596D01*
X104485542Y-123589095D01*
X104146447Y-123250000D01*
X104124000Y-123250000D01*
X104056961Y-123230315D01*
X104011206Y-123177511D01*
X104005221Y-123150000D01*
X104029837Y-123150000D01*
X104084968Y-123127164D01*
X104127164Y-123084968D01*
X104150000Y-123029837D01*
X104150000Y-122970163D01*
X104127164Y-122915032D01*
X104084968Y-122872836D01*
X104029837Y-122850000D01*
X103970163Y-122850000D01*
X103915032Y-122872836D01*
X103872836Y-122915032D01*
X103850000Y-122970163D01*
X103850000Y-123029837D01*
X103872836Y-123084968D01*
X103915032Y-123127164D01*
X103958416Y-123145134D01*
X103514457Y-123589095D01*
X103453134Y-123622580D01*
X103383442Y-123617596D01*
X103359757Y-123602374D01*
X103377164Y-123584968D01*
X103400000Y-123529837D01*
X103400000Y-123470163D01*
X103377164Y-123415032D01*
X103334968Y-123372836D01*
X103279837Y-123350000D01*
X103220163Y-123350000D01*
X103165032Y-123372836D01*
X103122836Y-123415032D01*
X103100000Y-123470163D01*
X103100000Y-123529837D01*
X103122836Y-123584968D01*
X103138950Y-123601082D01*
X103099581Y-123622580D01*
X103029889Y-123617596D01*
X102985542Y-123589095D01*
X102484127Y-123087681D01*
X102479788Y-123079735D01*
X102472541Y-123074310D01*
X102463306Y-123049550D01*
X102450642Y-123026358D01*
X102451287Y-123017328D01*
X102448124Y-123008846D01*
X102450048Y-122999999D01*
X103103553Y-122999999D01*
X103250000Y-123146446D01*
X103396446Y-123000001D01*
X103396446Y-123000000D01*
X103250000Y-122853553D01*
X103103553Y-122999999D01*
X102450048Y-122999999D01*
X102453740Y-122983025D01*
X102455626Y-122956667D01*
X102461444Y-122947613D01*
X102462976Y-122940573D01*
X102484127Y-122912319D01*
X102985542Y-122410904D01*
X103046865Y-122377419D01*
X103116557Y-122382403D01*
X103140242Y-122397625D01*
X103122836Y-122415032D01*
X103100000Y-122470163D01*
X103100000Y-122529837D01*
X103122836Y-122584968D01*
X103165032Y-122627164D01*
X103220163Y-122650000D01*
X103279837Y-122650000D01*
X103334968Y-122627164D01*
X103377164Y-122584968D01*
X103400000Y-122529837D01*
X103400000Y-122470163D01*
X103377164Y-122415032D01*
X103361048Y-122398916D01*
X103400417Y-122377419D01*
X103470109Y-122382403D01*
X103514457Y-122410904D01*
X103749999Y-122646446D01*
X104250000Y-122646446D01*
X104485542Y-122410904D01*
X104546865Y-122377419D01*
X104616556Y-122382403D01*
X104640242Y-122397625D01*
X104622836Y-122415032D01*
X104600000Y-122470163D01*
X104600000Y-122529837D01*
X104622836Y-122584968D01*
X104665032Y-122627164D01*
X104720163Y-122650000D01*
X104779837Y-122650000D01*
X104834968Y-122627164D01*
X104877164Y-122584968D01*
X104900000Y-122529837D01*
X104900000Y-122470163D01*
X104877164Y-122415032D01*
X104861048Y-122398916D01*
X104900417Y-122377419D01*
X104970109Y-122382403D01*
X105014457Y-122410904D01*
X105353553Y-122750000D01*
X105900000Y-122750000D01*
X105900000Y-121802172D01*
X105899999Y-121802155D01*
X105893598Y-121742627D01*
X105893596Y-121742620D01*
X105843354Y-121607913D01*
X105843350Y-121607906D01*
X105757190Y-121492812D01*
X105757187Y-121492809D01*
X105642093Y-121406649D01*
X105642086Y-121406645D01*
X105507379Y-121356403D01*
X105507372Y-121356401D01*
X105447844Y-121350000D01*
X104250000Y-121350000D01*
X104250000Y-122646446D01*
X103749999Y-122646446D01*
X103750000Y-122646445D01*
X103750000Y-121350000D01*
X103058596Y-121350000D01*
X102991557Y-121330315D01*
X102945802Y-121277511D01*
X102935858Y-121208353D01*
X102964883Y-121144797D01*
X102970915Y-121138319D01*
X103255745Y-120853489D01*
X103629802Y-120479431D01*
X103691123Y-120445948D01*
X103760814Y-120450932D01*
X103816748Y-120492803D01*
X103820583Y-120498223D01*
X103891946Y-120605024D01*
X103891949Y-120605028D01*
X104003443Y-120716522D01*
X104003447Y-120716525D01*
X104134550Y-120804126D01*
X104134563Y-120804133D01*
X104253721Y-120853489D01*
X104280239Y-120864473D01*
X104434889Y-120895235D01*
X104434892Y-120895236D01*
X104434894Y-120895236D01*
X104592580Y-120895236D01*
X104592581Y-120895235D01*
X104747233Y-120864473D01*
X104892915Y-120804130D01*
X105024025Y-120716525D01*
X105135525Y-120605025D01*
X105223130Y-120473915D01*
X105283473Y-120328233D01*
X105314236Y-120173578D01*
X105314374Y-120172886D01*
X105346759Y-120110975D01*
X105348255Y-120109451D01*
X107057706Y-118400000D01*
X114279157Y-118400000D01*
X115090382Y-118400000D01*
X115039936Y-118450446D01*
X114997149Y-118524555D01*
X114975000Y-118607213D01*
X114975000Y-118692787D01*
X114997149Y-118775445D01*
X115039936Y-118849554D01*
X115090382Y-118900000D01*
X114279157Y-118900000D01*
X114290350Y-118956274D01*
X114290351Y-118956276D01*
X114369500Y-119147358D01*
X114369505Y-119147368D01*
X114484410Y-119319335D01*
X114484413Y-119319339D01*
X114630660Y-119465586D01*
X114630664Y-119465589D01*
X114802631Y-119580494D01*
X114802641Y-119580499D01*
X114993725Y-119659649D01*
X114993733Y-119659651D01*
X115196579Y-119699999D01*
X115196583Y-119700000D01*
X115250000Y-119700000D01*
X115250000Y-118973067D01*
X115257213Y-118975000D01*
X115742787Y-118975000D01*
X115750000Y-118973067D01*
X115750000Y-119700000D01*
X115803417Y-119700000D01*
X115803420Y-119699999D01*
X116006266Y-119659651D01*
X116006274Y-119659649D01*
X116197358Y-119580499D01*
X116197368Y-119580494D01*
X116369335Y-119465589D01*
X116369339Y-119465586D01*
X116515586Y-119319339D01*
X116515589Y-119319335D01*
X116630494Y-119147368D01*
X116630499Y-119147358D01*
X116639560Y-119125485D01*
X116709648Y-118956276D01*
X116709649Y-118956274D01*
X116720843Y-118900000D01*
X115909618Y-118900000D01*
X115960064Y-118849554D01*
X116002851Y-118775445D01*
X116020388Y-118709999D01*
X117174950Y-118709999D01*
X117174950Y-118710000D01*
X118005025Y-118710000D01*
X117969930Y-118745095D01*
X117923852Y-118824905D01*
X117900000Y-118913922D01*
X117900000Y-119006078D01*
X117923852Y-119095095D01*
X117969930Y-119174905D01*
X118005025Y-119210000D01*
X117174950Y-119210000D01*
X117178932Y-119235144D01*
X117236082Y-119411037D01*
X117236084Y-119411043D01*
X117320052Y-119575837D01*
X117428754Y-119725454D01*
X117428758Y-119725459D01*
X117559540Y-119856241D01*
X117559545Y-119856245D01*
X117709162Y-119964947D01*
X117873956Y-120048915D01*
X117873959Y-120048916D01*
X118049852Y-120106066D01*
X118232527Y-120135000D01*
X118250000Y-120135000D01*
X118250000Y-119310000D01*
X118750000Y-119310000D01*
X118750000Y-120135000D01*
X118767473Y-120135000D01*
X118950147Y-120106066D01*
X119126040Y-120048916D01*
X119126043Y-120048915D01*
X119290837Y-119964947D01*
X119440454Y-119856245D01*
X119440459Y-119856241D01*
X119571241Y-119725459D01*
X119571245Y-119725454D01*
X119679947Y-119575837D01*
X119763915Y-119411043D01*
X119763917Y-119411037D01*
X119821067Y-119235144D01*
X119825049Y-119210000D01*
X118994975Y-119210000D01*
X119030070Y-119174905D01*
X119076148Y-119095095D01*
X119100000Y-119006078D01*
X119100000Y-118913922D01*
X119076148Y-118824905D01*
X119030070Y-118745095D01*
X118994975Y-118710000D01*
X119825050Y-118710000D01*
X119825049Y-118709999D01*
X119821067Y-118684855D01*
X119763917Y-118508962D01*
X119763915Y-118508956D01*
X119679947Y-118344162D01*
X119571245Y-118194545D01*
X119571241Y-118194540D01*
X119440459Y-118063758D01*
X119440454Y-118063754D01*
X119290837Y-117955052D01*
X119126043Y-117871084D01*
X119126040Y-117871083D01*
X118950147Y-117813933D01*
X118767473Y-117785000D01*
X118750000Y-117785000D01*
X118750000Y-118610000D01*
X118250000Y-118610000D01*
X118250000Y-117785000D01*
X118232527Y-117785000D01*
X118049852Y-117813933D01*
X117873959Y-117871083D01*
X117873956Y-117871084D01*
X117709162Y-117955052D01*
X117559545Y-118063754D01*
X117559540Y-118063758D01*
X117428758Y-118194540D01*
X117428754Y-118194545D01*
X117320052Y-118344162D01*
X117236084Y-118508956D01*
X117236082Y-118508962D01*
X117178932Y-118684855D01*
X117174950Y-118709999D01*
X116020388Y-118709999D01*
X116025000Y-118692787D01*
X116025000Y-118607213D01*
X116002851Y-118524555D01*
X115960064Y-118450446D01*
X115909618Y-118400000D01*
X116720843Y-118400000D01*
X116709649Y-118343725D01*
X116709648Y-118343723D01*
X116630499Y-118152641D01*
X116630494Y-118152631D01*
X116515589Y-117980664D01*
X116515586Y-117980660D01*
X116369339Y-117834413D01*
X116369335Y-117834410D01*
X116197368Y-117719505D01*
X116197358Y-117719500D01*
X116006274Y-117640350D01*
X116006266Y-117640348D01*
X115803420Y-117600000D01*
X115750000Y-117600000D01*
X115750000Y-118326932D01*
X115742787Y-118325000D01*
X115257213Y-118325000D01*
X115250000Y-118326932D01*
X115250000Y-117600000D01*
X115196579Y-117600000D01*
X114993733Y-117640348D01*
X114993725Y-117640350D01*
X114802641Y-117719500D01*
X114802631Y-117719505D01*
X114630664Y-117834410D01*
X114630660Y-117834413D01*
X114484413Y-117980660D01*
X114484410Y-117980664D01*
X114369505Y-118152631D01*
X114369500Y-118152641D01*
X114290351Y-118343723D01*
X114290350Y-118343725D01*
X114279157Y-118400000D01*
X107057706Y-118400000D01*
X110018907Y-115438798D01*
X110018912Y-115438795D01*
X110029115Y-115428591D01*
X110029117Y-115428591D01*
X110140921Y-115316787D01*
X110219978Y-115179855D01*
X110260901Y-115027128D01*
X110260901Y-115027119D01*
X110261962Y-115019068D01*
X110263435Y-115019261D01*
X110280586Y-114960854D01*
X110281799Y-114959002D01*
X110369791Y-114827313D01*
X110369791Y-114827312D01*
X110369795Y-114827307D01*
X110430138Y-114681625D01*
X110460901Y-114526970D01*
X110460901Y-114369286D01*
X110459210Y-114360785D01*
X110465434Y-114291194D01*
X110508294Y-114236015D01*
X110556635Y-114214972D01*
X110608485Y-114204657D01*
X110683497Y-114189737D01*
X110829179Y-114129394D01*
X110960289Y-114041789D01*
X110992524Y-114009554D01*
X111063091Y-113938988D01*
X111071786Y-113930292D01*
X111071789Y-113930289D01*
X111159394Y-113799179D01*
X111219737Y-113653497D01*
X111238335Y-113560000D01*
X114279157Y-113560000D01*
X115090382Y-113560000D01*
X115039936Y-113610446D01*
X114997149Y-113684555D01*
X114975000Y-113767213D01*
X114975000Y-113852787D01*
X114997149Y-113935445D01*
X115039936Y-114009554D01*
X115090382Y-114060000D01*
X114279157Y-114060000D01*
X114290350Y-114116274D01*
X114290351Y-114116276D01*
X114369500Y-114307358D01*
X114369505Y-114307368D01*
X114484410Y-114479335D01*
X114484413Y-114479339D01*
X114630660Y-114625586D01*
X114630664Y-114625589D01*
X114802631Y-114740494D01*
X114802641Y-114740499D01*
X114993725Y-114819649D01*
X114993733Y-114819651D01*
X115196579Y-114859999D01*
X115196583Y-114860000D01*
X115250000Y-114860000D01*
X115250000Y-114133067D01*
X115257213Y-114135000D01*
X115742787Y-114135000D01*
X115750000Y-114133067D01*
X115750000Y-114860000D01*
X115803417Y-114860000D01*
X115803420Y-114859999D01*
X116006266Y-114819651D01*
X116006274Y-114819649D01*
X116197358Y-114740499D01*
X116197368Y-114740494D01*
X116369335Y-114625589D01*
X116369339Y-114625586D01*
X116515586Y-114479339D01*
X116515589Y-114479335D01*
X116630494Y-114307368D01*
X116630499Y-114307358D01*
X116709648Y-114116276D01*
X116709649Y-114116274D01*
X116720843Y-114060000D01*
X115909618Y-114060000D01*
X115960064Y-114009554D01*
X116002851Y-113935445D01*
X116025000Y-113852787D01*
X116025000Y-113767213D01*
X116002851Y-113684555D01*
X115960064Y-113610446D01*
X115909618Y-113560000D01*
X116720843Y-113560000D01*
X116709649Y-113503725D01*
X116709648Y-113503723D01*
X116639560Y-113334515D01*
X116630499Y-113312641D01*
X116630494Y-113312631D01*
X116588645Y-113249999D01*
X117174950Y-113249999D01*
X117174950Y-113250000D01*
X118005025Y-113250000D01*
X117969930Y-113285095D01*
X117923852Y-113364905D01*
X117900000Y-113453922D01*
X117900000Y-113546078D01*
X117923852Y-113635095D01*
X117969930Y-113714905D01*
X118005025Y-113750000D01*
X117174950Y-113750000D01*
X117178932Y-113775144D01*
X117236082Y-113951037D01*
X117236084Y-113951043D01*
X117320052Y-114115837D01*
X117428754Y-114265454D01*
X117428758Y-114265459D01*
X117559540Y-114396241D01*
X117559545Y-114396245D01*
X117709162Y-114504947D01*
X117873956Y-114588915D01*
X117873959Y-114588916D01*
X118049852Y-114646066D01*
X118232527Y-114675000D01*
X118250000Y-114675000D01*
X118250000Y-113850000D01*
X118750000Y-113850000D01*
X118750000Y-114675000D01*
X118767473Y-114675000D01*
X118950147Y-114646066D01*
X119126040Y-114588916D01*
X119126043Y-114588915D01*
X119290837Y-114504947D01*
X119440454Y-114396245D01*
X119440459Y-114396241D01*
X119571241Y-114265459D01*
X119571245Y-114265454D01*
X119679947Y-114115837D01*
X119763915Y-113951043D01*
X119763917Y-113951037D01*
X119821067Y-113775144D01*
X119825049Y-113750000D01*
X118994975Y-113750000D01*
X119030070Y-113714905D01*
X119076148Y-113635095D01*
X119100000Y-113546078D01*
X119100000Y-113453922D01*
X119076148Y-113364905D01*
X119030070Y-113285095D01*
X118994975Y-113250000D01*
X119825050Y-113250000D01*
X119825049Y-113249999D01*
X119821067Y-113224855D01*
X119763917Y-113048962D01*
X119763915Y-113048956D01*
X119679947Y-112884162D01*
X119571245Y-112734545D01*
X119571241Y-112734540D01*
X119440459Y-112603758D01*
X119440454Y-112603754D01*
X119290837Y-112495052D01*
X119126043Y-112411084D01*
X119126040Y-112411083D01*
X118950147Y-112353933D01*
X118767473Y-112325000D01*
X118750000Y-112325000D01*
X118750000Y-113150000D01*
X118250000Y-113150000D01*
X118250000Y-112325000D01*
X118232527Y-112325000D01*
X118049852Y-112353933D01*
X117873959Y-112411083D01*
X117873956Y-112411084D01*
X117709162Y-112495052D01*
X117559545Y-112603754D01*
X117559540Y-112603758D01*
X117428758Y-112734540D01*
X117428754Y-112734545D01*
X117320052Y-112884162D01*
X117236084Y-113048956D01*
X117236082Y-113048962D01*
X117178932Y-113224855D01*
X117174950Y-113249999D01*
X116588645Y-113249999D01*
X116515589Y-113140664D01*
X116515586Y-113140660D01*
X116369339Y-112994413D01*
X116369335Y-112994410D01*
X116197368Y-112879505D01*
X116197358Y-112879500D01*
X116006274Y-112800350D01*
X116006266Y-112800348D01*
X115803420Y-112760000D01*
X115750000Y-112760000D01*
X115750000Y-113486932D01*
X115742787Y-113485000D01*
X115257213Y-113485000D01*
X115250000Y-113486932D01*
X115250000Y-112760000D01*
X115196579Y-112760000D01*
X114993733Y-112800348D01*
X114993725Y-112800350D01*
X114802641Y-112879500D01*
X114802631Y-112879505D01*
X114630664Y-112994410D01*
X114630660Y-112994413D01*
X114484413Y-113140660D01*
X114484410Y-113140664D01*
X114369505Y-113312631D01*
X114369500Y-113312641D01*
X114290351Y-113503723D01*
X114290350Y-113503725D01*
X114279157Y-113560000D01*
X111238335Y-113560000D01*
X111250500Y-113498842D01*
X111250500Y-113341158D01*
X111250500Y-113341155D01*
X111250499Y-113341153D01*
X111232367Y-113249999D01*
X111219737Y-113186503D01*
X111200750Y-113140664D01*
X111159397Y-113040827D01*
X111159390Y-113040814D01*
X111071789Y-112909711D01*
X111071786Y-112909707D01*
X110960292Y-112798213D01*
X110960288Y-112798210D01*
X110829185Y-112710609D01*
X110829172Y-112710602D01*
X110683501Y-112650264D01*
X110683489Y-112650261D01*
X110528845Y-112619500D01*
X110528842Y-112619500D01*
X110371158Y-112619500D01*
X110371155Y-112619500D01*
X110216510Y-112650261D01*
X110216498Y-112650264D01*
X110077508Y-112707835D01*
X110008038Y-112715304D01*
X109945559Y-112684028D01*
X109926954Y-112662165D01*
X109900458Y-112622512D01*
X109900455Y-112622508D01*
X109788961Y-112511014D01*
X109788957Y-112511011D01*
X109657854Y-112423410D01*
X109657841Y-112423403D01*
X109512170Y-112363065D01*
X109512158Y-112363062D01*
X109357514Y-112332301D01*
X109357511Y-112332301D01*
X109341465Y-112332301D01*
X109325976Y-112328151D01*
X109312234Y-112328806D01*
X109279471Y-112315690D01*
X109279468Y-112315690D01*
X109279465Y-112315688D01*
X109266772Y-112308360D01*
X109266770Y-112308358D01*
X109266769Y-112308358D01*
X109216653Y-112279423D01*
X109063925Y-112238499D01*
X108905811Y-112238499D01*
X108898215Y-112238499D01*
X108898199Y-112238500D01*
X108377727Y-112238500D01*
X108377711Y-112238499D01*
X108370115Y-112238499D01*
X108212000Y-112238499D01*
X108071793Y-112276067D01*
X108059268Y-112279424D01*
X107922344Y-112358477D01*
X107922339Y-112358481D01*
X107563217Y-112717603D01*
X107563214Y-112717605D01*
X107563215Y-112717606D01*
X107458478Y-112822343D01*
X107458475Y-112822347D01*
X107434696Y-112863535D01*
X107434695Y-112863537D01*
X107412157Y-112902573D01*
X107392452Y-112928253D01*
X103999509Y-116321196D01*
X103938186Y-116354681D01*
X103868494Y-116349697D01*
X103842937Y-116336617D01*
X103729184Y-116260609D01*
X103729172Y-116260602D01*
X103583501Y-116200264D01*
X103583491Y-116200261D01*
X103428149Y-116169361D01*
X103366238Y-116136976D01*
X103364660Y-116135425D01*
X101967590Y-114738355D01*
X101967588Y-114738352D01*
X101848717Y-114619481D01*
X101848716Y-114619480D01*
X101761904Y-114569360D01*
X101761904Y-114569359D01*
X101761900Y-114569358D01*
X101711785Y-114540423D01*
X101559057Y-114499499D01*
X101400943Y-114499499D01*
X101393347Y-114499499D01*
X101393331Y-114499500D01*
X96619766Y-114499500D01*
X96552727Y-114479815D01*
X96550875Y-114478602D01*
X96419185Y-114390609D01*
X96419172Y-114390602D01*
X96273501Y-114330264D01*
X96273489Y-114330261D01*
X96118845Y-114299500D01*
X96118842Y-114299500D01*
X95961158Y-114299500D01*
X95961155Y-114299500D01*
X95806510Y-114330261D01*
X95806498Y-114330264D01*
X95660827Y-114390602D01*
X95660814Y-114390609D01*
X95529711Y-114478210D01*
X95529707Y-114478213D01*
X95418213Y-114589707D01*
X95418210Y-114589711D01*
X95330609Y-114720814D01*
X95330602Y-114720827D01*
X95270264Y-114866498D01*
X95270261Y-114866510D01*
X95239500Y-115021153D01*
X95239500Y-115178846D01*
X95270261Y-115333489D01*
X95270264Y-115333501D01*
X95330602Y-115479172D01*
X95330609Y-115479185D01*
X95418210Y-115610288D01*
X95418213Y-115610292D01*
X95529707Y-115721786D01*
X95529711Y-115721789D01*
X95660814Y-115809390D01*
X95660827Y-115809397D01*
X95806498Y-115869735D01*
X95806503Y-115869737D01*
X95961153Y-115900499D01*
X95961156Y-115900500D01*
X95961158Y-115900500D01*
X96118844Y-115900500D01*
X96118845Y-115900499D01*
X96273497Y-115869737D01*
X96419179Y-115809394D01*
X96420518Y-115808499D01*
X96550875Y-115721398D01*
X96617553Y-115700520D01*
X96619766Y-115700500D01*
X101179903Y-115700500D01*
X101246942Y-115720185D01*
X101267584Y-115736819D01*
X102268261Y-116737496D01*
X102278357Y-116755985D01*
X102292436Y-116771659D01*
X102294765Y-116786035D01*
X102301746Y-116798819D01*
X102300243Y-116819834D01*
X102303613Y-116840629D01*
X102297801Y-116853981D01*
X102296762Y-116868511D01*
X102284135Y-116885377D01*
X102275728Y-116904693D01*
X102257250Y-116921290D01*
X102254890Y-116924444D01*
X102249472Y-116928278D01*
X102189126Y-116968601D01*
X102122449Y-116989480D01*
X102120234Y-116989500D01*
X100006727Y-116989500D01*
X100006711Y-116989499D01*
X99999115Y-116989499D01*
X99841000Y-116989499D01*
X99773209Y-117007664D01*
X99688271Y-117030423D01*
X99688266Y-117030426D01*
X99551347Y-117109475D01*
X99551339Y-117109481D01*
X96336680Y-120324140D01*
X96275357Y-120357625D01*
X96205665Y-120352641D01*
X96161320Y-120324141D01*
X93275532Y-117438354D01*
X93275531Y-117438352D01*
X93156660Y-117319481D01*
X93156659Y-117319480D01*
X93069847Y-117269360D01*
X93069847Y-117269359D01*
X93069843Y-117269358D01*
X93019728Y-117240423D01*
X92867000Y-117199499D01*
X92866997Y-117199499D01*
X92779764Y-117199499D01*
X92712725Y-117179814D01*
X92710873Y-117178601D01*
X92579185Y-117090609D01*
X92579172Y-117090602D01*
X92433501Y-117030264D01*
X92433489Y-117030261D01*
X92278845Y-116999500D01*
X92278842Y-116999500D01*
X92121158Y-116999500D01*
X92121155Y-116999500D01*
X91966510Y-117030261D01*
X91966498Y-117030264D01*
X91820827Y-117090602D01*
X91820814Y-117090609D01*
X91689711Y-117178210D01*
X91689707Y-117178213D01*
X91578213Y-117289707D01*
X91578210Y-117289711D01*
X91490609Y-117420814D01*
X91490602Y-117420827D01*
X91430264Y-117566498D01*
X91430261Y-117566510D01*
X91399500Y-117721153D01*
X80285359Y-117721153D01*
X80270102Y-117674197D01*
X80162914Y-117463828D01*
X80102658Y-117380894D01*
X80102658Y-117380893D01*
X79362962Y-118120590D01*
X79345925Y-118057007D01*
X79280099Y-117942993D01*
X79187007Y-117849901D01*
X79072993Y-117784075D01*
X79009409Y-117767037D01*
X79749105Y-117027340D01*
X79749104Y-117027338D01*
X79666174Y-116967087D01*
X79455802Y-116859897D01*
X79231247Y-116786934D01*
X79231248Y-116786934D01*
X78998052Y-116750000D01*
X78761948Y-116750000D01*
X78528752Y-116786934D01*
X78304197Y-116859897D01*
X78093830Y-116967084D01*
X78010894Y-117027340D01*
X78750591Y-117767037D01*
X78687007Y-117784075D01*
X78572993Y-117849901D01*
X78479901Y-117942993D01*
X78414075Y-118057007D01*
X78397037Y-118120591D01*
X77657340Y-117380894D01*
X77597084Y-117463830D01*
X77489897Y-117674197D01*
X77416934Y-117898752D01*
X77380000Y-118131947D01*
X72780499Y-118131947D01*
X72780499Y-117202128D01*
X72774091Y-117142517D01*
X72774090Y-117142514D01*
X72764922Y-117117931D01*
X72723797Y-117007671D01*
X72723793Y-117007664D01*
X72637547Y-116892455D01*
X72637544Y-116892452D01*
X72522335Y-116806206D01*
X72522328Y-116806202D01*
X72387482Y-116755908D01*
X72387483Y-116755908D01*
X72327883Y-116749501D01*
X72327881Y-116749500D01*
X72327873Y-116749500D01*
X72327864Y-116749500D01*
X70232129Y-116749500D01*
X70232123Y-116749501D01*
X70172516Y-116755908D01*
X70037671Y-116806202D01*
X70037664Y-116806206D01*
X69922455Y-116892452D01*
X69922452Y-116892455D01*
X69836206Y-117007664D01*
X69836202Y-117007671D01*
X69785908Y-117142517D01*
X69779501Y-117202116D01*
X69779501Y-117202123D01*
X69779500Y-117202135D01*
X55271313Y-117202135D01*
X54116533Y-116047355D01*
X54116531Y-116047352D01*
X53997660Y-115928481D01*
X53997659Y-115928480D01*
X53910847Y-115878360D01*
X53910847Y-115878359D01*
X53910843Y-115878358D01*
X53860728Y-115849423D01*
X53708000Y-115808499D01*
X53549886Y-115808499D01*
X53542290Y-115808499D01*
X53542274Y-115808500D01*
X53217727Y-115808500D01*
X53217711Y-115808499D01*
X53210115Y-115808499D01*
X53052000Y-115808499D01*
X52911793Y-115846067D01*
X52899268Y-115849424D01*
X52762344Y-115928477D01*
X52762339Y-115928481D01*
X52403217Y-116287603D01*
X52403214Y-116287605D01*
X52403215Y-116287606D01*
X52298478Y-116392343D01*
X52265481Y-116449498D01*
X52265480Y-116449500D01*
X52219423Y-116529271D01*
X52219423Y-116529272D01*
X52178499Y-116682000D01*
X52178499Y-116840114D01*
X52178499Y-116840116D01*
X52178500Y-116850110D01*
X52178500Y-122452706D01*
X52178499Y-122452724D01*
X52178499Y-122618430D01*
X52178498Y-122618430D01*
X45500500Y-122618430D01*
X45500500Y-114826699D01*
X46084500Y-114826699D01*
X46084500Y-115013301D01*
X46086690Y-115027127D01*
X46113691Y-115197606D01*
X46113691Y-115197609D01*
X46171352Y-115375071D01*
X46171354Y-115375074D01*
X46256069Y-115541338D01*
X46365751Y-115692302D01*
X46497698Y-115824249D01*
X46648662Y-115933931D01*
X46814926Y-116018646D01*
X46814928Y-116018647D01*
X46979343Y-116072069D01*
X47037019Y-116111507D01*
X47064217Y-116175865D01*
X47052302Y-116244712D01*
X47005058Y-116296187D01*
X46979343Y-116307931D01*
X46814928Y-116361352D01*
X46814925Y-116361354D01*
X46648661Y-116446069D01*
X46562531Y-116508646D01*
X46497698Y-116555751D01*
X46497696Y-116555753D01*
X46497695Y-116555753D01*
X46365753Y-116687695D01*
X46365753Y-116687696D01*
X46365751Y-116687698D01*
X46365749Y-116687701D01*
X46256069Y-116838661D01*
X46171354Y-117004925D01*
X46171352Y-117004928D01*
X46113691Y-117182390D01*
X46113691Y-117182393D01*
X46110565Y-117202129D01*
X46084500Y-117366699D01*
X46084500Y-117553301D01*
X46093447Y-117609792D01*
X46113691Y-117737606D01*
X46113691Y-117737609D01*
X46171352Y-117915071D01*
X46171354Y-117915074D01*
X46256069Y-118081338D01*
X46365751Y-118232302D01*
X46497698Y-118364249D01*
X46648662Y-118473931D01*
X46814926Y-118558646D01*
X46814928Y-118558647D01*
X46979343Y-118612069D01*
X47037019Y-118651507D01*
X47064217Y-118715865D01*
X47052302Y-118784712D01*
X47005058Y-118836187D01*
X46979343Y-118847931D01*
X46814928Y-118901352D01*
X46814925Y-118901354D01*
X46648661Y-118986069D01*
X46562531Y-119048646D01*
X46497698Y-119095751D01*
X46497696Y-119095753D01*
X46497695Y-119095753D01*
X46365753Y-119227695D01*
X46365753Y-119227696D01*
X46365751Y-119227698D01*
X46318646Y-119292531D01*
X46256069Y-119378661D01*
X46171354Y-119544925D01*
X46171352Y-119544928D01*
X46113691Y-119722390D01*
X46113691Y-119722393D01*
X46108889Y-119752711D01*
X46084500Y-119906699D01*
X46084500Y-120093301D01*
X46092446Y-120143471D01*
X46113691Y-120277606D01*
X46113691Y-120277609D01*
X46171352Y-120455071D01*
X46171354Y-120455074D01*
X46256069Y-120621338D01*
X46365751Y-120772302D01*
X46497698Y-120904249D01*
X46648662Y-121013931D01*
X46814926Y-121098646D01*
X46814928Y-121098647D01*
X46992391Y-121156308D01*
X46992392Y-121156308D01*
X46992395Y-121156309D01*
X47176699Y-121185500D01*
X47176700Y-121185500D01*
X47363300Y-121185500D01*
X47363301Y-121185500D01*
X47547605Y-121156309D01*
X47547608Y-121156308D01*
X47547609Y-121156308D01*
X47725071Y-121098647D01*
X47725071Y-121098646D01*
X47725074Y-121098646D01*
X47891338Y-121013931D01*
X48042302Y-120904249D01*
X48174249Y-120772302D01*
X48283931Y-120621338D01*
X48368646Y-120455074D01*
X48401358Y-120354398D01*
X48426308Y-120277609D01*
X48426308Y-120277608D01*
X48426309Y-120277605D01*
X48455500Y-120093301D01*
X48455500Y-119906699D01*
X48426309Y-119722395D01*
X48426308Y-119722391D01*
X48426308Y-119722390D01*
X48368647Y-119544928D01*
X48368645Y-119544925D01*
X48362528Y-119532918D01*
X48283931Y-119378662D01*
X48174249Y-119227698D01*
X48042302Y-119095751D01*
X47891338Y-118986069D01*
X47725074Y-118901354D01*
X47725071Y-118901352D01*
X47560656Y-118847931D01*
X47502980Y-118808494D01*
X47475782Y-118744135D01*
X47487697Y-118675289D01*
X47534941Y-118623813D01*
X47560656Y-118612069D01*
X47725071Y-118558647D01*
X47725071Y-118558646D01*
X47725074Y-118558646D01*
X47891338Y-118473931D01*
X48042302Y-118364249D01*
X48174249Y-118232302D01*
X48283931Y-118081338D01*
X48368646Y-117915074D01*
X48380417Y-117878846D01*
X48426308Y-117737609D01*
X48426308Y-117737608D01*
X48426309Y-117737605D01*
X48455500Y-117553301D01*
X48455500Y-117366699D01*
X48426309Y-117182395D01*
X48426308Y-117182391D01*
X48426308Y-117182390D01*
X48368647Y-117004928D01*
X48368645Y-117004925D01*
X48360786Y-116989499D01*
X48283931Y-116838662D01*
X48174249Y-116687698D01*
X48042302Y-116555751D01*
X47891338Y-116446069D01*
X47725074Y-116361354D01*
X47725071Y-116361352D01*
X47560656Y-116307931D01*
X47502980Y-116268494D01*
X47475782Y-116204135D01*
X47487697Y-116135289D01*
X47534941Y-116083813D01*
X47560656Y-116072069D01*
X47725071Y-116018647D01*
X47725071Y-116018646D01*
X47725074Y-116018646D01*
X47891338Y-115933931D01*
X48042302Y-115824249D01*
X48174249Y-115692302D01*
X48283931Y-115541338D01*
X48368646Y-115375074D01*
X48426309Y-115197605D01*
X48455500Y-115013301D01*
X48455500Y-114826699D01*
X48426309Y-114642395D01*
X48426308Y-114642391D01*
X48426308Y-114642390D01*
X48368647Y-114464928D01*
X48368645Y-114464925D01*
X48333652Y-114396245D01*
X48283931Y-114298662D01*
X48174249Y-114147698D01*
X48042302Y-114015751D01*
X47891338Y-113906069D01*
X47725074Y-113821354D01*
X47725071Y-113821352D01*
X47680686Y-113806931D01*
X47623010Y-113767493D01*
X47595812Y-113703135D01*
X47607727Y-113634288D01*
X47654971Y-113582813D01*
X47719004Y-113565000D01*
X48002828Y-113565000D01*
X48002844Y-113564999D01*
X48062372Y-113558598D01*
X48062379Y-113558596D01*
X48197086Y-113508354D01*
X48197093Y-113508350D01*
X48312187Y-113422190D01*
X48312190Y-113422187D01*
X48398350Y-113307093D01*
X48398354Y-113307086D01*
X48448596Y-113172379D01*
X48448598Y-113172372D01*
X48454999Y-113112844D01*
X48455000Y-113112827D01*
X48455000Y-112630000D01*
X47714560Y-112630000D01*
X47745245Y-112576853D01*
X47780000Y-112447143D01*
X47780000Y-112312857D01*
X47745245Y-112183147D01*
X47714560Y-112130000D01*
X48455000Y-112130000D01*
X48455000Y-111647172D01*
X48454999Y-111647155D01*
X48448598Y-111587627D01*
X48448596Y-111587620D01*
X48398354Y-111452913D01*
X48398350Y-111452906D01*
X48312190Y-111337812D01*
X48312187Y-111337809D01*
X48197093Y-111251649D01*
X48197086Y-111251645D01*
X48062379Y-111201403D01*
X48062372Y-111201401D01*
X48002844Y-111195000D01*
X47520000Y-111195000D01*
X47520000Y-111935439D01*
X47466853Y-111904755D01*
X47337143Y-111870000D01*
X47202857Y-111870000D01*
X47073147Y-111904755D01*
X47020000Y-111935439D01*
X47020000Y-111195000D01*
X46537155Y-111195000D01*
X46477627Y-111201401D01*
X46477620Y-111201403D01*
X46342913Y-111251645D01*
X46342906Y-111251649D01*
X46227812Y-111337809D01*
X46227809Y-111337812D01*
X46141649Y-111452906D01*
X46141645Y-111452913D01*
X46091403Y-111587620D01*
X46091401Y-111587627D01*
X46085000Y-111647155D01*
X46085000Y-112130000D01*
X46825440Y-112130000D01*
X46794755Y-112183147D01*
X46760000Y-112312857D01*
X46760000Y-112447143D01*
X46794755Y-112576853D01*
X46825440Y-112630000D01*
X46085000Y-112630000D01*
X46085000Y-113112844D01*
X46091401Y-113172372D01*
X46091403Y-113172379D01*
X46141645Y-113307086D01*
X46141649Y-113307093D01*
X46227809Y-113422187D01*
X46227812Y-113422190D01*
X46342906Y-113508350D01*
X46342913Y-113508354D01*
X46477620Y-113558596D01*
X46477627Y-113558598D01*
X46537155Y-113564999D01*
X46537172Y-113565000D01*
X46820996Y-113565000D01*
X46888035Y-113584685D01*
X46933790Y-113637489D01*
X46943734Y-113706647D01*
X46914709Y-113770203D01*
X46859314Y-113806931D01*
X46814928Y-113821352D01*
X46814925Y-113821354D01*
X46648661Y-113906069D01*
X46562531Y-113968646D01*
X46497698Y-114015751D01*
X46497696Y-114015753D01*
X46497695Y-114015753D01*
X46365753Y-114147695D01*
X46365753Y-114147696D01*
X46365751Y-114147698D01*
X46335209Y-114189735D01*
X46256069Y-114298661D01*
X46171354Y-114464925D01*
X46171352Y-114464928D01*
X46113691Y-114642390D01*
X46113691Y-114642393D01*
X46098153Y-114740499D01*
X46084500Y-114826699D01*
X45500500Y-114826699D01*
X45500500Y-98202135D01*
X46749500Y-98202135D01*
X46749500Y-101797870D01*
X46749501Y-101797876D01*
X46755908Y-101857483D01*
X46806202Y-101992328D01*
X46806206Y-101992335D01*
X46892452Y-102107544D01*
X46892455Y-102107547D01*
X47007664Y-102193793D01*
X47007671Y-102193797D01*
X47142517Y-102244091D01*
X47142516Y-102244091D01*
X47149444Y-102244835D01*
X47202127Y-102250500D01*
X50797872Y-102250499D01*
X50857483Y-102244091D01*
X50992331Y-102193796D01*
X51107546Y-102107546D01*
X51193796Y-101992331D01*
X51244091Y-101857483D01*
X51250500Y-101797873D01*
X51250499Y-99878711D01*
X55794500Y-99878711D01*
X55794500Y-100121288D01*
X55826161Y-100361785D01*
X55888947Y-100596104D01*
X55906079Y-100637463D01*
X55981776Y-100820212D01*
X56103064Y-101030289D01*
X56103066Y-101030292D01*
X56103067Y-101030293D01*
X56250733Y-101222736D01*
X56250739Y-101222743D01*
X56422256Y-101394260D01*
X56422262Y-101394265D01*
X56614711Y-101541936D01*
X56824788Y-101663224D01*
X57048900Y-101756054D01*
X57283211Y-101818838D01*
X57463586Y-101842584D01*
X57523711Y-101850500D01*
X57523712Y-101850500D01*
X57766289Y-101850500D01*
X57814388Y-101844167D01*
X58006789Y-101818838D01*
X58241100Y-101756054D01*
X58465212Y-101663224D01*
X58675289Y-101541936D01*
X58867738Y-101394265D01*
X59039265Y-101222738D01*
X59186936Y-101030289D01*
X59308224Y-100820212D01*
X59401054Y-100596100D01*
X59463838Y-100361789D01*
X59495500Y-100121288D01*
X59495500Y-99878712D01*
X59495500Y-99878711D01*
X111404500Y-99878711D01*
X111404500Y-100121288D01*
X111436161Y-100361785D01*
X111498947Y-100596104D01*
X111516079Y-100637463D01*
X111591776Y-100820212D01*
X111713064Y-101030289D01*
X111713066Y-101030292D01*
X111713067Y-101030293D01*
X111860733Y-101222736D01*
X111860739Y-101222743D01*
X112032256Y-101394260D01*
X112032262Y-101394265D01*
X112224711Y-101541936D01*
X112434788Y-101663224D01*
X112658900Y-101756054D01*
X112893211Y-101818838D01*
X113073586Y-101842584D01*
X113133711Y-101850500D01*
X113133712Y-101850500D01*
X113376289Y-101850500D01*
X113424388Y-101844167D01*
X113616789Y-101818838D01*
X113851100Y-101756054D01*
X114075212Y-101663224D01*
X114285289Y-101541936D01*
X114477738Y-101394265D01*
X114649265Y-101222738D01*
X114796936Y-101030289D01*
X114918224Y-100820212D01*
X115011054Y-100596100D01*
X115073838Y-100361789D01*
X115105500Y-100121288D01*
X115105500Y-99878712D01*
X115102054Y-99852533D01*
X118750000Y-99852533D01*
X118750000Y-100147466D01*
X118750001Y-100147483D01*
X118788496Y-100439884D01*
X118788499Y-100439897D01*
X118864835Y-100724790D01*
X118864838Y-100724800D01*
X118977704Y-100997281D01*
X118977709Y-100997292D01*
X119125174Y-101252707D01*
X119125180Y-101252715D01*
X119241777Y-101404667D01*
X120137425Y-100509019D01*
X120223249Y-100637463D01*
X120362537Y-100776751D01*
X120490979Y-100862573D01*
X119595331Y-101758221D01*
X119747284Y-101874819D01*
X119747292Y-101874825D01*
X120002707Y-102022290D01*
X120002718Y-102022295D01*
X120275199Y-102135161D01*
X120275209Y-102135164D01*
X120560102Y-102211500D01*
X120560115Y-102211503D01*
X120852516Y-102249998D01*
X120852534Y-102250000D01*
X121147466Y-102250000D01*
X121147483Y-102249998D01*
X121439884Y-102211503D01*
X121439897Y-102211500D01*
X121724790Y-102135164D01*
X121724800Y-102135161D01*
X121997281Y-102022295D01*
X121997292Y-102022290D01*
X122252707Y-101874825D01*
X122252725Y-101874813D01*
X122404667Y-101758222D01*
X122404667Y-101758220D01*
X121509020Y-100862573D01*
X121637463Y-100776751D01*
X121776751Y-100637463D01*
X121862573Y-100509020D01*
X122758220Y-101404667D01*
X122758222Y-101404667D01*
X122874813Y-101252725D01*
X122874825Y-101252707D01*
X123022290Y-100997292D01*
X123022295Y-100997281D01*
X123135161Y-100724800D01*
X123135164Y-100724790D01*
X123211500Y-100439897D01*
X123211503Y-100439884D01*
X123249998Y-100147483D01*
X123250000Y-100147466D01*
X123250000Y-99852533D01*
X123249998Y-99852516D01*
X123211503Y-99560115D01*
X123211500Y-99560102D01*
X123135164Y-99275209D01*
X123135161Y-99275199D01*
X123022295Y-99002718D01*
X123022290Y-99002707D01*
X122874825Y-98747292D01*
X122874819Y-98747284D01*
X122758221Y-98595331D01*
X121862573Y-99490979D01*
X121776751Y-99362537D01*
X121637463Y-99223249D01*
X121509020Y-99137425D01*
X122404667Y-98241777D01*
X122252715Y-98125180D01*
X122252707Y-98125174D01*
X121997292Y-97977709D01*
X121997281Y-97977704D01*
X121724800Y-97864838D01*
X121724790Y-97864835D01*
X121439897Y-97788499D01*
X121439884Y-97788496D01*
X121147483Y-97750001D01*
X121147466Y-97750000D01*
X120852534Y-97750000D01*
X120852516Y-97750001D01*
X120560115Y-97788496D01*
X120560102Y-97788499D01*
X120275209Y-97864835D01*
X120275199Y-97864838D01*
X120002718Y-97977704D01*
X120002707Y-97977709D01*
X119747292Y-98125174D01*
X119747276Y-98125185D01*
X119595331Y-98241775D01*
X119595331Y-98241777D01*
X120490979Y-99137425D01*
X120362537Y-99223249D01*
X120223249Y-99362537D01*
X120137425Y-99490979D01*
X119241777Y-98595331D01*
X119241775Y-98595331D01*
X119125185Y-98747276D01*
X119125174Y-98747292D01*
X118977709Y-99002707D01*
X118977704Y-99002718D01*
X118864838Y-99275199D01*
X118864835Y-99275209D01*
X118788499Y-99560102D01*
X118788496Y-99560115D01*
X118750001Y-99852516D01*
X118750000Y-99852533D01*
X115102054Y-99852533D01*
X115073838Y-99638211D01*
X115011054Y-99403900D01*
X114918224Y-99179788D01*
X114796936Y-98969711D01*
X114649265Y-98777262D01*
X114649260Y-98777256D01*
X114477743Y-98605739D01*
X114477736Y-98605733D01*
X114285293Y-98458067D01*
X114285292Y-98458066D01*
X114285289Y-98458064D01*
X114075212Y-98336776D01*
X114075205Y-98336773D01*
X113851104Y-98243947D01*
X113616785Y-98181161D01*
X113376289Y-98149500D01*
X113376288Y-98149500D01*
X113133712Y-98149500D01*
X113133711Y-98149500D01*
X112893214Y-98181161D01*
X112658895Y-98243947D01*
X112434794Y-98336773D01*
X112434785Y-98336777D01*
X112224706Y-98458067D01*
X112032263Y-98605733D01*
X112032256Y-98605739D01*
X111860739Y-98777256D01*
X111860733Y-98777263D01*
X111713067Y-98969706D01*
X111591777Y-99179785D01*
X111591773Y-99179794D01*
X111498947Y-99403895D01*
X111436161Y-99638214D01*
X111404500Y-99878711D01*
X59495500Y-99878711D01*
X59463838Y-99638211D01*
X59401054Y-99403900D01*
X59308224Y-99179788D01*
X59186936Y-98969711D01*
X59039265Y-98777262D01*
X59039260Y-98777256D01*
X58867743Y-98605739D01*
X58867736Y-98605733D01*
X58675293Y-98458067D01*
X58675292Y-98458066D01*
X58675289Y-98458064D01*
X58465212Y-98336776D01*
X58465205Y-98336773D01*
X58241104Y-98243947D01*
X58006785Y-98181161D01*
X57766289Y-98149500D01*
X57766288Y-98149500D01*
X57523712Y-98149500D01*
X57523711Y-98149500D01*
X57283214Y-98181161D01*
X57048895Y-98243947D01*
X56824794Y-98336773D01*
X56824785Y-98336777D01*
X56614706Y-98458067D01*
X56422263Y-98605733D01*
X56422256Y-98605739D01*
X56250739Y-98777256D01*
X56250733Y-98777263D01*
X56103067Y-98969706D01*
X55981777Y-99179785D01*
X55981773Y-99179794D01*
X55888947Y-99403895D01*
X55826161Y-99638214D01*
X55794500Y-99878711D01*
X51250499Y-99878711D01*
X51250499Y-98202128D01*
X51244091Y-98142517D01*
X51237622Y-98125174D01*
X51193797Y-98007671D01*
X51193793Y-98007664D01*
X51107547Y-97892455D01*
X51107544Y-97892452D01*
X50992335Y-97806206D01*
X50992328Y-97806202D01*
X50857482Y-97755908D01*
X50857483Y-97755908D01*
X50797883Y-97749501D01*
X50797881Y-97749500D01*
X50797873Y-97749500D01*
X50797864Y-97749500D01*
X47202129Y-97749500D01*
X47202123Y-97749501D01*
X47142516Y-97755908D01*
X47007671Y-97806202D01*
X47007664Y-97806206D01*
X46892455Y-97892452D01*
X46892452Y-97892455D01*
X46806206Y-98007664D01*
X46806202Y-98007671D01*
X46755908Y-98142517D01*
X46751754Y-98181161D01*
X46749501Y-98202123D01*
X46749500Y-98202135D01*
X45500500Y-98202135D01*
X45500500Y-90002706D01*
X45500618Y-89997297D01*
X45503377Y-89934108D01*
X45517386Y-89613226D01*
X45518326Y-89602495D01*
X45568152Y-89224025D01*
X45570025Y-89213405D01*
X45652649Y-88840709D01*
X45655440Y-88830295D01*
X45770230Y-88466227D01*
X45773917Y-88456095D01*
X45920003Y-88103412D01*
X45924561Y-88093638D01*
X46100822Y-87755045D01*
X46106217Y-87745700D01*
X46311325Y-87423744D01*
X46317515Y-87414905D01*
X46549896Y-87112060D01*
X46556834Y-87103791D01*
X46814726Y-86822352D01*
X46822352Y-86814726D01*
X47103791Y-86556834D01*
X47112060Y-86549896D01*
X47414905Y-86317515D01*
X47423744Y-86311325D01*
X47745700Y-86106217D01*
X47755045Y-86100822D01*
X48093638Y-85924561D01*
X48103412Y-85920003D01*
X48456095Y-85773917D01*
X48466227Y-85770230D01*
X48830295Y-85655440D01*
X48840709Y-85652649D01*
X49213405Y-85570025D01*
X49224025Y-85568152D01*
X49602495Y-85518326D01*
X49613226Y-85517386D01*
X49997297Y-85500617D01*
X50002706Y-85500500D01*
X50065892Y-85500500D01*
X119934108Y-85500500D01*
X119997294Y-85500500D01*
X120002702Y-85500617D01*
G37*
%TD.AperFunction*%
%TD*%
M02*
