%TF.GenerationSoftware,KiCad,Pcbnew,9.0.0*%
%TF.CreationDate,2025-05-14T10:48:30+09:00*%
%TF.ProjectId,mistance_PCB_host,6d697374-616e-4636-955f-5043425f686f,rev?*%
%TF.SameCoordinates,Original*%
%TF.FileFunction,Paste,Top*%
%TF.FilePolarity,Positive*%
%FSLAX46Y46*%
G04 Gerber Fmt 4.6, Leading zero omitted, Abs format (unit mm)*
G04 Created by KiCad (PCBNEW 9.0.0) date 2025-05-14 10:48:30*
%MOMM*%
%LPD*%
G01*
G04 APERTURE LIST*
G04 Aperture macros list*
%AMRoundRect*
0 Rectangle with rounded corners*
0 $1 Rounding radius*
0 $2 $3 $4 $5 $6 $7 $8 $9 X,Y pos of 4 corners*
0 Add a 4 corners polygon primitive as box body*
4,1,4,$2,$3,$4,$5,$6,$7,$8,$9,$2,$3,0*
0 Add four circle primitives for the rounded corners*
1,1,$1+$1,$2,$3*
1,1,$1+$1,$4,$5*
1,1,$1+$1,$6,$7*
1,1,$1+$1,$8,$9*
0 Add four rect primitives between the rounded corners*
20,1,$1+$1,$2,$3,$4,$5,0*
20,1,$1+$1,$4,$5,$6,$7,0*
20,1,$1+$1,$6,$7,$8,$9,0*
20,1,$1+$1,$8,$9,$2,$3,0*%
G04 Aperture macros list end*
%ADD10C,0.010000*%
%ADD11RoundRect,0.225000X-0.225000X-0.250000X0.225000X-0.250000X0.225000X0.250000X-0.225000X0.250000X0*%
%ADD12RoundRect,0.200000X0.275000X-0.200000X0.275000X0.200000X-0.275000X0.200000X-0.275000X-0.200000X0*%
%ADD13RoundRect,0.200000X0.200000X0.275000X-0.200000X0.275000X-0.200000X-0.275000X0.200000X-0.275000X0*%
%ADD14R,1.140000X0.600000*%
%ADD15R,1.140000X0.300000*%
%ADD16R,0.600000X0.490000*%
%ADD17RoundRect,0.225000X0.225000X0.250000X-0.225000X0.250000X-0.225000X-0.250000X0.225000X-0.250000X0*%
%ADD18R,1.050000X0.650000*%
%ADD19R,1.100000X0.600000*%
%ADD20RoundRect,0.135000X-0.135000X-0.185000X0.135000X-0.185000X0.135000X0.185000X-0.135000X0.185000X0*%
%ADD21RoundRect,0.250000X0.375000X1.075000X-0.375000X1.075000X-0.375000X-1.075000X0.375000X-1.075000X0*%
%ADD22R,1.000000X3.200000*%
%ADD23RoundRect,0.250000X-1.075000X0.312500X-1.075000X-0.312500X1.075000X-0.312500X1.075000X0.312500X0*%
%ADD24RoundRect,0.100000X-0.225000X-0.100000X0.225000X-0.100000X0.225000X0.100000X-0.225000X0.100000X0*%
%ADD25R,0.490000X0.600000*%
%ADD26RoundRect,0.075000X0.225000X-0.575000X0.225000X0.575000X-0.225000X0.575000X-0.225000X-0.575000X0*%
%ADD27RoundRect,0.200000X-0.200000X-0.275000X0.200000X-0.275000X0.200000X0.275000X-0.200000X0.275000X0*%
%ADD28RoundRect,0.250000X0.250000X0.475000X-0.250000X0.475000X-0.250000X-0.475000X0.250000X-0.475000X0*%
%ADD29RoundRect,0.140000X0.140000X0.170000X-0.140000X0.170000X-0.140000X-0.170000X0.140000X-0.170000X0*%
%ADD30R,1.140000X1.470000*%
%ADD31R,0.230000X0.230000*%
%ADD32O,0.800000X0.230000*%
%ADD33R,0.680000X1.050000*%
%ADD34R,0.260000X0.500000*%
%ADD35RoundRect,0.250000X-0.250000X-0.475000X0.250000X-0.475000X0.250000X0.475000X-0.250000X0.475000X0*%
%ADD36R,1.650000X0.400000*%
%ADD37R,0.700000X1.825000*%
%ADD38R,1.500000X2.000000*%
%ADD39R,2.000000X1.350000*%
%ADD40R,2.500000X1.430000*%
%ADD41RoundRect,0.375000X-0.625000X-0.375000X0.625000X-0.375000X0.625000X0.375000X-0.625000X0.375000X0*%
%ADD42RoundRect,0.500000X-0.500000X-1.400000X0.500000X-1.400000X0.500000X1.400000X-0.500000X1.400000X0*%
%ADD43R,1.270000X0.558800*%
%ADD44RoundRect,0.093750X0.156250X0.093750X-0.156250X0.093750X-0.156250X-0.093750X0.156250X-0.093750X0*%
%ADD45RoundRect,0.075000X0.250000X0.075000X-0.250000X0.075000X-0.250000X-0.075000X0.250000X-0.075000X0*%
%ADD46RoundRect,0.250000X-0.275000X-0.275000X0.275000X-0.275000X0.275000X0.275000X-0.275000X0.275000X0*%
%ADD47RoundRect,0.062500X-0.350000X-0.062500X0.350000X-0.062500X0.350000X0.062500X-0.350000X0.062500X0*%
%ADD48RoundRect,0.062500X-0.062500X-0.350000X0.062500X-0.350000X0.062500X0.350000X-0.062500X0.350000X0*%
%ADD49R,1.500000X0.900000*%
%ADD50R,0.900000X1.500000*%
%ADD51R,0.900000X0.900000*%
%ADD52RoundRect,0.249999X-0.395001X-0.395001X0.395001X-0.395001X0.395001X0.395001X-0.395001X0.395001X0*%
%ADD53RoundRect,0.075000X-0.312500X-0.075000X0.312500X-0.075000X0.312500X0.075000X-0.312500X0.075000X0*%
%ADD54RoundRect,0.075000X-0.075000X-0.312500X0.075000X-0.312500X0.075000X0.312500X-0.075000X0.312500X0*%
%ADD55R,2.300000X1.550000*%
G04 APERTURE END LIST*
D10*
%TO.C,U6*%
X60802000Y-66233000D02*
X60854000Y-66241000D01*
X60905000Y-66254000D01*
X60953000Y-66273000D01*
X61000000Y-66297000D01*
X61044000Y-66325000D01*
X61085000Y-66358000D01*
X61122000Y-66395000D01*
X61155000Y-66436000D01*
X61183000Y-66480000D01*
X61207000Y-66527000D01*
X61226000Y-66575000D01*
X61239000Y-66626000D01*
X61247000Y-66678000D01*
X61250000Y-66730000D01*
X61247000Y-66782000D01*
X61239000Y-66834000D01*
X61226000Y-66885000D01*
X61207000Y-66933000D01*
X61183000Y-66980000D01*
X61155000Y-67024000D01*
X61122000Y-67065000D01*
X61085000Y-67102000D01*
X61044000Y-67135000D01*
X61000000Y-67163000D01*
X60953000Y-67187000D01*
X60905000Y-67206000D01*
X60854000Y-67219000D01*
X60802000Y-67227000D01*
X60750000Y-67230000D01*
X58950000Y-67230000D01*
X58898000Y-67227000D01*
X58846000Y-67219000D01*
X58795000Y-67206000D01*
X58747000Y-67187000D01*
X58700000Y-67163000D01*
X58656000Y-67135000D01*
X58615000Y-67102000D01*
X58578000Y-67065000D01*
X58545000Y-67024000D01*
X58517000Y-66980000D01*
X58493000Y-66933000D01*
X58474000Y-66885000D01*
X58461000Y-66834000D01*
X58453000Y-66782000D01*
X58450000Y-66730000D01*
X58453000Y-66678000D01*
X58461000Y-66626000D01*
X58474000Y-66575000D01*
X58493000Y-66527000D01*
X58517000Y-66480000D01*
X58545000Y-66436000D01*
X58578000Y-66395000D01*
X58615000Y-66358000D01*
X58656000Y-66325000D01*
X58700000Y-66297000D01*
X58747000Y-66273000D01*
X58795000Y-66254000D01*
X58846000Y-66241000D01*
X58898000Y-66233000D01*
X58950000Y-66230000D01*
X60750000Y-66230000D01*
X60802000Y-66233000D01*
G36*
X60802000Y-66233000D02*
G01*
X60854000Y-66241000D01*
X60905000Y-66254000D01*
X60953000Y-66273000D01*
X61000000Y-66297000D01*
X61044000Y-66325000D01*
X61085000Y-66358000D01*
X61122000Y-66395000D01*
X61155000Y-66436000D01*
X61183000Y-66480000D01*
X61207000Y-66527000D01*
X61226000Y-66575000D01*
X61239000Y-66626000D01*
X61247000Y-66678000D01*
X61250000Y-66730000D01*
X61247000Y-66782000D01*
X61239000Y-66834000D01*
X61226000Y-66885000D01*
X61207000Y-66933000D01*
X61183000Y-66980000D01*
X61155000Y-67024000D01*
X61122000Y-67065000D01*
X61085000Y-67102000D01*
X61044000Y-67135000D01*
X61000000Y-67163000D01*
X60953000Y-67187000D01*
X60905000Y-67206000D01*
X60854000Y-67219000D01*
X60802000Y-67227000D01*
X60750000Y-67230000D01*
X58950000Y-67230000D01*
X58898000Y-67227000D01*
X58846000Y-67219000D01*
X58795000Y-67206000D01*
X58747000Y-67187000D01*
X58700000Y-67163000D01*
X58656000Y-67135000D01*
X58615000Y-67102000D01*
X58578000Y-67065000D01*
X58545000Y-67024000D01*
X58517000Y-66980000D01*
X58493000Y-66933000D01*
X58474000Y-66885000D01*
X58461000Y-66834000D01*
X58453000Y-66782000D01*
X58450000Y-66730000D01*
X58453000Y-66678000D01*
X58461000Y-66626000D01*
X58474000Y-66575000D01*
X58493000Y-66527000D01*
X58517000Y-66480000D01*
X58545000Y-66436000D01*
X58578000Y-66395000D01*
X58615000Y-66358000D01*
X58656000Y-66325000D01*
X58700000Y-66297000D01*
X58747000Y-66273000D01*
X58795000Y-66254000D01*
X58846000Y-66241000D01*
X58898000Y-66233000D01*
X58950000Y-66230000D01*
X60750000Y-66230000D01*
X60802000Y-66233000D01*
G37*
X60802000Y-68773000D02*
X60854000Y-68781000D01*
X60905000Y-68794000D01*
X60953000Y-68813000D01*
X61000000Y-68837000D01*
X61044000Y-68865000D01*
X61085000Y-68898000D01*
X61122000Y-68935000D01*
X61155000Y-68976000D01*
X61183000Y-69020000D01*
X61207000Y-69067000D01*
X61226000Y-69115000D01*
X61239000Y-69166000D01*
X61247000Y-69218000D01*
X61250000Y-69270000D01*
X61247000Y-69322000D01*
X61239000Y-69374000D01*
X61226000Y-69425000D01*
X61207000Y-69473000D01*
X61183000Y-69520000D01*
X61155000Y-69564000D01*
X61122000Y-69605000D01*
X61085000Y-69642000D01*
X61044000Y-69675000D01*
X61000000Y-69703000D01*
X60953000Y-69727000D01*
X60905000Y-69746000D01*
X60854000Y-69759000D01*
X60802000Y-69767000D01*
X60750000Y-69770000D01*
X58950000Y-69770000D01*
X58898000Y-69767000D01*
X58846000Y-69759000D01*
X58795000Y-69746000D01*
X58747000Y-69727000D01*
X58700000Y-69703000D01*
X58656000Y-69675000D01*
X58615000Y-69642000D01*
X58578000Y-69605000D01*
X58545000Y-69564000D01*
X58517000Y-69520000D01*
X58493000Y-69473000D01*
X58474000Y-69425000D01*
X58461000Y-69374000D01*
X58453000Y-69322000D01*
X58450000Y-69270000D01*
X58453000Y-69218000D01*
X58461000Y-69166000D01*
X58474000Y-69115000D01*
X58493000Y-69067000D01*
X58517000Y-69020000D01*
X58545000Y-68976000D01*
X58578000Y-68935000D01*
X58615000Y-68898000D01*
X58656000Y-68865000D01*
X58700000Y-68837000D01*
X58747000Y-68813000D01*
X58795000Y-68794000D01*
X58846000Y-68781000D01*
X58898000Y-68773000D01*
X58950000Y-68770000D01*
X60750000Y-68770000D01*
X60802000Y-68773000D01*
G36*
X60802000Y-68773000D02*
G01*
X60854000Y-68781000D01*
X60905000Y-68794000D01*
X60953000Y-68813000D01*
X61000000Y-68837000D01*
X61044000Y-68865000D01*
X61085000Y-68898000D01*
X61122000Y-68935000D01*
X61155000Y-68976000D01*
X61183000Y-69020000D01*
X61207000Y-69067000D01*
X61226000Y-69115000D01*
X61239000Y-69166000D01*
X61247000Y-69218000D01*
X61250000Y-69270000D01*
X61247000Y-69322000D01*
X61239000Y-69374000D01*
X61226000Y-69425000D01*
X61207000Y-69473000D01*
X61183000Y-69520000D01*
X61155000Y-69564000D01*
X61122000Y-69605000D01*
X61085000Y-69642000D01*
X61044000Y-69675000D01*
X61000000Y-69703000D01*
X60953000Y-69727000D01*
X60905000Y-69746000D01*
X60854000Y-69759000D01*
X60802000Y-69767000D01*
X60750000Y-69770000D01*
X58950000Y-69770000D01*
X58898000Y-69767000D01*
X58846000Y-69759000D01*
X58795000Y-69746000D01*
X58747000Y-69727000D01*
X58700000Y-69703000D01*
X58656000Y-69675000D01*
X58615000Y-69642000D01*
X58578000Y-69605000D01*
X58545000Y-69564000D01*
X58517000Y-69520000D01*
X58493000Y-69473000D01*
X58474000Y-69425000D01*
X58461000Y-69374000D01*
X58453000Y-69322000D01*
X58450000Y-69270000D01*
X58453000Y-69218000D01*
X58461000Y-69166000D01*
X58474000Y-69115000D01*
X58493000Y-69067000D01*
X58517000Y-69020000D01*
X58545000Y-68976000D01*
X58578000Y-68935000D01*
X58615000Y-68898000D01*
X58656000Y-68865000D01*
X58700000Y-68837000D01*
X58747000Y-68813000D01*
X58795000Y-68794000D01*
X58846000Y-68781000D01*
X58898000Y-68773000D01*
X58950000Y-68770000D01*
X60750000Y-68770000D01*
X60802000Y-68773000D01*
G37*
X60802000Y-71313000D02*
X60854000Y-71321000D01*
X60905000Y-71334000D01*
X60953000Y-71353000D01*
X61000000Y-71377000D01*
X61044000Y-71405000D01*
X61085000Y-71438000D01*
X61122000Y-71475000D01*
X61155000Y-71516000D01*
X61183000Y-71560000D01*
X61207000Y-71607000D01*
X61226000Y-71655000D01*
X61239000Y-71706000D01*
X61247000Y-71758000D01*
X61250000Y-71810000D01*
X61247000Y-71862000D01*
X61239000Y-71914000D01*
X61226000Y-71965000D01*
X61207000Y-72013000D01*
X61183000Y-72060000D01*
X61155000Y-72104000D01*
X61122000Y-72145000D01*
X61085000Y-72182000D01*
X61044000Y-72215000D01*
X61000000Y-72243000D01*
X60953000Y-72267000D01*
X60905000Y-72286000D01*
X60854000Y-72299000D01*
X60802000Y-72307000D01*
X60750000Y-72310000D01*
X58950000Y-72310000D01*
X58898000Y-72307000D01*
X58846000Y-72299000D01*
X58795000Y-72286000D01*
X58747000Y-72267000D01*
X58700000Y-72243000D01*
X58656000Y-72215000D01*
X58615000Y-72182000D01*
X58578000Y-72145000D01*
X58545000Y-72104000D01*
X58517000Y-72060000D01*
X58493000Y-72013000D01*
X58474000Y-71965000D01*
X58461000Y-71914000D01*
X58453000Y-71862000D01*
X58450000Y-71810000D01*
X58453000Y-71758000D01*
X58461000Y-71706000D01*
X58474000Y-71655000D01*
X58493000Y-71607000D01*
X58517000Y-71560000D01*
X58545000Y-71516000D01*
X58578000Y-71475000D01*
X58615000Y-71438000D01*
X58656000Y-71405000D01*
X58700000Y-71377000D01*
X58747000Y-71353000D01*
X58795000Y-71334000D01*
X58846000Y-71321000D01*
X58898000Y-71313000D01*
X58950000Y-71310000D01*
X60750000Y-71310000D01*
X60802000Y-71313000D01*
G36*
X60802000Y-71313000D02*
G01*
X60854000Y-71321000D01*
X60905000Y-71334000D01*
X60953000Y-71353000D01*
X61000000Y-71377000D01*
X61044000Y-71405000D01*
X61085000Y-71438000D01*
X61122000Y-71475000D01*
X61155000Y-71516000D01*
X61183000Y-71560000D01*
X61207000Y-71607000D01*
X61226000Y-71655000D01*
X61239000Y-71706000D01*
X61247000Y-71758000D01*
X61250000Y-71810000D01*
X61247000Y-71862000D01*
X61239000Y-71914000D01*
X61226000Y-71965000D01*
X61207000Y-72013000D01*
X61183000Y-72060000D01*
X61155000Y-72104000D01*
X61122000Y-72145000D01*
X61085000Y-72182000D01*
X61044000Y-72215000D01*
X61000000Y-72243000D01*
X60953000Y-72267000D01*
X60905000Y-72286000D01*
X60854000Y-72299000D01*
X60802000Y-72307000D01*
X60750000Y-72310000D01*
X58950000Y-72310000D01*
X58898000Y-72307000D01*
X58846000Y-72299000D01*
X58795000Y-72286000D01*
X58747000Y-72267000D01*
X58700000Y-72243000D01*
X58656000Y-72215000D01*
X58615000Y-72182000D01*
X58578000Y-72145000D01*
X58545000Y-72104000D01*
X58517000Y-72060000D01*
X58493000Y-72013000D01*
X58474000Y-71965000D01*
X58461000Y-71914000D01*
X58453000Y-71862000D01*
X58450000Y-71810000D01*
X58453000Y-71758000D01*
X58461000Y-71706000D01*
X58474000Y-71655000D01*
X58493000Y-71607000D01*
X58517000Y-71560000D01*
X58545000Y-71516000D01*
X58578000Y-71475000D01*
X58615000Y-71438000D01*
X58656000Y-71405000D01*
X58700000Y-71377000D01*
X58747000Y-71353000D01*
X58795000Y-71334000D01*
X58846000Y-71321000D01*
X58898000Y-71313000D01*
X58950000Y-71310000D01*
X60750000Y-71310000D01*
X60802000Y-71313000D01*
G37*
X60802000Y-73853000D02*
X60854000Y-73861000D01*
X60905000Y-73874000D01*
X60953000Y-73893000D01*
X61000000Y-73917000D01*
X61044000Y-73945000D01*
X61085000Y-73978000D01*
X61122000Y-74015000D01*
X61155000Y-74056000D01*
X61183000Y-74100000D01*
X61207000Y-74147000D01*
X61226000Y-74195000D01*
X61239000Y-74246000D01*
X61247000Y-74298000D01*
X61250000Y-74350000D01*
X61247000Y-74402000D01*
X61239000Y-74454000D01*
X61226000Y-74505000D01*
X61207000Y-74553000D01*
X61183000Y-74600000D01*
X61155000Y-74644000D01*
X61122000Y-74685000D01*
X61085000Y-74722000D01*
X61044000Y-74755000D01*
X61000000Y-74783000D01*
X60953000Y-74807000D01*
X60905000Y-74826000D01*
X60854000Y-74839000D01*
X60802000Y-74847000D01*
X60750000Y-74850000D01*
X58950000Y-74850000D01*
X58898000Y-74847000D01*
X58846000Y-74839000D01*
X58795000Y-74826000D01*
X58747000Y-74807000D01*
X58700000Y-74783000D01*
X58656000Y-74755000D01*
X58615000Y-74722000D01*
X58578000Y-74685000D01*
X58545000Y-74644000D01*
X58517000Y-74600000D01*
X58493000Y-74553000D01*
X58474000Y-74505000D01*
X58461000Y-74454000D01*
X58453000Y-74402000D01*
X58450000Y-74350000D01*
X58453000Y-74298000D01*
X58461000Y-74246000D01*
X58474000Y-74195000D01*
X58493000Y-74147000D01*
X58517000Y-74100000D01*
X58545000Y-74056000D01*
X58578000Y-74015000D01*
X58615000Y-73978000D01*
X58656000Y-73945000D01*
X58700000Y-73917000D01*
X58747000Y-73893000D01*
X58795000Y-73874000D01*
X58846000Y-73861000D01*
X58898000Y-73853000D01*
X58950000Y-73850000D01*
X60750000Y-73850000D01*
X60802000Y-73853000D01*
G36*
X60802000Y-73853000D02*
G01*
X60854000Y-73861000D01*
X60905000Y-73874000D01*
X60953000Y-73893000D01*
X61000000Y-73917000D01*
X61044000Y-73945000D01*
X61085000Y-73978000D01*
X61122000Y-74015000D01*
X61155000Y-74056000D01*
X61183000Y-74100000D01*
X61207000Y-74147000D01*
X61226000Y-74195000D01*
X61239000Y-74246000D01*
X61247000Y-74298000D01*
X61250000Y-74350000D01*
X61247000Y-74402000D01*
X61239000Y-74454000D01*
X61226000Y-74505000D01*
X61207000Y-74553000D01*
X61183000Y-74600000D01*
X61155000Y-74644000D01*
X61122000Y-74685000D01*
X61085000Y-74722000D01*
X61044000Y-74755000D01*
X61000000Y-74783000D01*
X60953000Y-74807000D01*
X60905000Y-74826000D01*
X60854000Y-74839000D01*
X60802000Y-74847000D01*
X60750000Y-74850000D01*
X58950000Y-74850000D01*
X58898000Y-74847000D01*
X58846000Y-74839000D01*
X58795000Y-74826000D01*
X58747000Y-74807000D01*
X58700000Y-74783000D01*
X58656000Y-74755000D01*
X58615000Y-74722000D01*
X58578000Y-74685000D01*
X58545000Y-74644000D01*
X58517000Y-74600000D01*
X58493000Y-74553000D01*
X58474000Y-74505000D01*
X58461000Y-74454000D01*
X58453000Y-74402000D01*
X58450000Y-74350000D01*
X58453000Y-74298000D01*
X58461000Y-74246000D01*
X58474000Y-74195000D01*
X58493000Y-74147000D01*
X58517000Y-74100000D01*
X58545000Y-74056000D01*
X58578000Y-74015000D01*
X58615000Y-73978000D01*
X58656000Y-73945000D01*
X58700000Y-73917000D01*
X58747000Y-73893000D01*
X58795000Y-73874000D01*
X58846000Y-73861000D01*
X58898000Y-73853000D01*
X58950000Y-73850000D01*
X60750000Y-73850000D01*
X60802000Y-73853000D01*
G37*
X60802000Y-76393000D02*
X60854000Y-76401000D01*
X60905000Y-76414000D01*
X60953000Y-76433000D01*
X61000000Y-76457000D01*
X61044000Y-76485000D01*
X61085000Y-76518000D01*
X61122000Y-76555000D01*
X61155000Y-76596000D01*
X61183000Y-76640000D01*
X61207000Y-76687000D01*
X61226000Y-76735000D01*
X61239000Y-76786000D01*
X61247000Y-76838000D01*
X61250000Y-76890000D01*
X61247000Y-76942000D01*
X61239000Y-76994000D01*
X61226000Y-77045000D01*
X61207000Y-77093000D01*
X61183000Y-77140000D01*
X61155000Y-77184000D01*
X61122000Y-77225000D01*
X61085000Y-77262000D01*
X61044000Y-77295000D01*
X61000000Y-77323000D01*
X60953000Y-77347000D01*
X60905000Y-77366000D01*
X60854000Y-77379000D01*
X60802000Y-77387000D01*
X60750000Y-77390000D01*
X58950000Y-77390000D01*
X58898000Y-77387000D01*
X58846000Y-77379000D01*
X58795000Y-77366000D01*
X58747000Y-77347000D01*
X58700000Y-77323000D01*
X58656000Y-77295000D01*
X58615000Y-77262000D01*
X58578000Y-77225000D01*
X58545000Y-77184000D01*
X58517000Y-77140000D01*
X58493000Y-77093000D01*
X58474000Y-77045000D01*
X58461000Y-76994000D01*
X58453000Y-76942000D01*
X58450000Y-76890000D01*
X58453000Y-76838000D01*
X58461000Y-76786000D01*
X58474000Y-76735000D01*
X58493000Y-76687000D01*
X58517000Y-76640000D01*
X58545000Y-76596000D01*
X58578000Y-76555000D01*
X58615000Y-76518000D01*
X58656000Y-76485000D01*
X58700000Y-76457000D01*
X58747000Y-76433000D01*
X58795000Y-76414000D01*
X58846000Y-76401000D01*
X58898000Y-76393000D01*
X58950000Y-76390000D01*
X60750000Y-76390000D01*
X60802000Y-76393000D01*
G36*
X60802000Y-76393000D02*
G01*
X60854000Y-76401000D01*
X60905000Y-76414000D01*
X60953000Y-76433000D01*
X61000000Y-76457000D01*
X61044000Y-76485000D01*
X61085000Y-76518000D01*
X61122000Y-76555000D01*
X61155000Y-76596000D01*
X61183000Y-76640000D01*
X61207000Y-76687000D01*
X61226000Y-76735000D01*
X61239000Y-76786000D01*
X61247000Y-76838000D01*
X61250000Y-76890000D01*
X61247000Y-76942000D01*
X61239000Y-76994000D01*
X61226000Y-77045000D01*
X61207000Y-77093000D01*
X61183000Y-77140000D01*
X61155000Y-77184000D01*
X61122000Y-77225000D01*
X61085000Y-77262000D01*
X61044000Y-77295000D01*
X61000000Y-77323000D01*
X60953000Y-77347000D01*
X60905000Y-77366000D01*
X60854000Y-77379000D01*
X60802000Y-77387000D01*
X60750000Y-77390000D01*
X58950000Y-77390000D01*
X58898000Y-77387000D01*
X58846000Y-77379000D01*
X58795000Y-77366000D01*
X58747000Y-77347000D01*
X58700000Y-77323000D01*
X58656000Y-77295000D01*
X58615000Y-77262000D01*
X58578000Y-77225000D01*
X58545000Y-77184000D01*
X58517000Y-77140000D01*
X58493000Y-77093000D01*
X58474000Y-77045000D01*
X58461000Y-76994000D01*
X58453000Y-76942000D01*
X58450000Y-76890000D01*
X58453000Y-76838000D01*
X58461000Y-76786000D01*
X58474000Y-76735000D01*
X58493000Y-76687000D01*
X58517000Y-76640000D01*
X58545000Y-76596000D01*
X58578000Y-76555000D01*
X58615000Y-76518000D01*
X58656000Y-76485000D01*
X58700000Y-76457000D01*
X58747000Y-76433000D01*
X58795000Y-76414000D01*
X58846000Y-76401000D01*
X58898000Y-76393000D01*
X58950000Y-76390000D01*
X60750000Y-76390000D01*
X60802000Y-76393000D01*
G37*
X60802000Y-78933000D02*
X60854000Y-78941000D01*
X60905000Y-78954000D01*
X60953000Y-78973000D01*
X61000000Y-78997000D01*
X61044000Y-79025000D01*
X61085000Y-79058000D01*
X61122000Y-79095000D01*
X61155000Y-79136000D01*
X61183000Y-79180000D01*
X61207000Y-79227000D01*
X61226000Y-79275000D01*
X61239000Y-79326000D01*
X61247000Y-79378000D01*
X61250000Y-79430000D01*
X61247000Y-79482000D01*
X61239000Y-79534000D01*
X61226000Y-79585000D01*
X61207000Y-79633000D01*
X61183000Y-79680000D01*
X61155000Y-79724000D01*
X61122000Y-79765000D01*
X61085000Y-79802000D01*
X61044000Y-79835000D01*
X61000000Y-79863000D01*
X60953000Y-79887000D01*
X60905000Y-79906000D01*
X60854000Y-79919000D01*
X60802000Y-79927000D01*
X60750000Y-79930000D01*
X58950000Y-79930000D01*
X58898000Y-79927000D01*
X58846000Y-79919000D01*
X58795000Y-79906000D01*
X58747000Y-79887000D01*
X58700000Y-79863000D01*
X58656000Y-79835000D01*
X58615000Y-79802000D01*
X58578000Y-79765000D01*
X58545000Y-79724000D01*
X58517000Y-79680000D01*
X58493000Y-79633000D01*
X58474000Y-79585000D01*
X58461000Y-79534000D01*
X58453000Y-79482000D01*
X58450000Y-79430000D01*
X58453000Y-79378000D01*
X58461000Y-79326000D01*
X58474000Y-79275000D01*
X58493000Y-79227000D01*
X58517000Y-79180000D01*
X58545000Y-79136000D01*
X58578000Y-79095000D01*
X58615000Y-79058000D01*
X58656000Y-79025000D01*
X58700000Y-78997000D01*
X58747000Y-78973000D01*
X58795000Y-78954000D01*
X58846000Y-78941000D01*
X58898000Y-78933000D01*
X58950000Y-78930000D01*
X60750000Y-78930000D01*
X60802000Y-78933000D01*
G36*
X60802000Y-78933000D02*
G01*
X60854000Y-78941000D01*
X60905000Y-78954000D01*
X60953000Y-78973000D01*
X61000000Y-78997000D01*
X61044000Y-79025000D01*
X61085000Y-79058000D01*
X61122000Y-79095000D01*
X61155000Y-79136000D01*
X61183000Y-79180000D01*
X61207000Y-79227000D01*
X61226000Y-79275000D01*
X61239000Y-79326000D01*
X61247000Y-79378000D01*
X61250000Y-79430000D01*
X61247000Y-79482000D01*
X61239000Y-79534000D01*
X61226000Y-79585000D01*
X61207000Y-79633000D01*
X61183000Y-79680000D01*
X61155000Y-79724000D01*
X61122000Y-79765000D01*
X61085000Y-79802000D01*
X61044000Y-79835000D01*
X61000000Y-79863000D01*
X60953000Y-79887000D01*
X60905000Y-79906000D01*
X60854000Y-79919000D01*
X60802000Y-79927000D01*
X60750000Y-79930000D01*
X58950000Y-79930000D01*
X58898000Y-79927000D01*
X58846000Y-79919000D01*
X58795000Y-79906000D01*
X58747000Y-79887000D01*
X58700000Y-79863000D01*
X58656000Y-79835000D01*
X58615000Y-79802000D01*
X58578000Y-79765000D01*
X58545000Y-79724000D01*
X58517000Y-79680000D01*
X58493000Y-79633000D01*
X58474000Y-79585000D01*
X58461000Y-79534000D01*
X58453000Y-79482000D01*
X58450000Y-79430000D01*
X58453000Y-79378000D01*
X58461000Y-79326000D01*
X58474000Y-79275000D01*
X58493000Y-79227000D01*
X58517000Y-79180000D01*
X58545000Y-79136000D01*
X58578000Y-79095000D01*
X58615000Y-79058000D01*
X58656000Y-79025000D01*
X58700000Y-78997000D01*
X58747000Y-78973000D01*
X58795000Y-78954000D01*
X58846000Y-78941000D01*
X58898000Y-78933000D01*
X58950000Y-78930000D01*
X60750000Y-78930000D01*
X60802000Y-78933000D01*
G37*
X44802000Y-66233000D02*
X44854000Y-66241000D01*
X44905000Y-66254000D01*
X44953000Y-66273000D01*
X45000000Y-66297000D01*
X45044000Y-66325000D01*
X45085000Y-66358000D01*
X45122000Y-66395000D01*
X45155000Y-66436000D01*
X45183000Y-66480000D01*
X45207000Y-66527000D01*
X45226000Y-66575000D01*
X45239000Y-66626000D01*
X45247000Y-66678000D01*
X45250000Y-66730000D01*
X45247000Y-66782000D01*
X45239000Y-66834000D01*
X45226000Y-66885000D01*
X45207000Y-66933000D01*
X45183000Y-66980000D01*
X45155000Y-67024000D01*
X45122000Y-67065000D01*
X45085000Y-67102000D01*
X45044000Y-67135000D01*
X45000000Y-67163000D01*
X44953000Y-67187000D01*
X44905000Y-67206000D01*
X44854000Y-67219000D01*
X44802000Y-67227000D01*
X44750000Y-67230000D01*
X42950000Y-67230000D01*
X42898000Y-67227000D01*
X42846000Y-67219000D01*
X42795000Y-67206000D01*
X42747000Y-67187000D01*
X42700000Y-67163000D01*
X42656000Y-67135000D01*
X42615000Y-67102000D01*
X42578000Y-67065000D01*
X42545000Y-67024000D01*
X42517000Y-66980000D01*
X42493000Y-66933000D01*
X42474000Y-66885000D01*
X42461000Y-66834000D01*
X42453000Y-66782000D01*
X42450000Y-66730000D01*
X42453000Y-66678000D01*
X42461000Y-66626000D01*
X42474000Y-66575000D01*
X42493000Y-66527000D01*
X42517000Y-66480000D01*
X42545000Y-66436000D01*
X42578000Y-66395000D01*
X42615000Y-66358000D01*
X42656000Y-66325000D01*
X42700000Y-66297000D01*
X42747000Y-66273000D01*
X42795000Y-66254000D01*
X42846000Y-66241000D01*
X42898000Y-66233000D01*
X42950000Y-66230000D01*
X43850000Y-66230000D01*
X44650000Y-66230000D01*
X44750000Y-66230000D01*
X44802000Y-66233000D01*
G36*
X44802000Y-66233000D02*
G01*
X44854000Y-66241000D01*
X44905000Y-66254000D01*
X44953000Y-66273000D01*
X45000000Y-66297000D01*
X45044000Y-66325000D01*
X45085000Y-66358000D01*
X45122000Y-66395000D01*
X45155000Y-66436000D01*
X45183000Y-66480000D01*
X45207000Y-66527000D01*
X45226000Y-66575000D01*
X45239000Y-66626000D01*
X45247000Y-66678000D01*
X45250000Y-66730000D01*
X45247000Y-66782000D01*
X45239000Y-66834000D01*
X45226000Y-66885000D01*
X45207000Y-66933000D01*
X45183000Y-66980000D01*
X45155000Y-67024000D01*
X45122000Y-67065000D01*
X45085000Y-67102000D01*
X45044000Y-67135000D01*
X45000000Y-67163000D01*
X44953000Y-67187000D01*
X44905000Y-67206000D01*
X44854000Y-67219000D01*
X44802000Y-67227000D01*
X44750000Y-67230000D01*
X42950000Y-67230000D01*
X42898000Y-67227000D01*
X42846000Y-67219000D01*
X42795000Y-67206000D01*
X42747000Y-67187000D01*
X42700000Y-67163000D01*
X42656000Y-67135000D01*
X42615000Y-67102000D01*
X42578000Y-67065000D01*
X42545000Y-67024000D01*
X42517000Y-66980000D01*
X42493000Y-66933000D01*
X42474000Y-66885000D01*
X42461000Y-66834000D01*
X42453000Y-66782000D01*
X42450000Y-66730000D01*
X42453000Y-66678000D01*
X42461000Y-66626000D01*
X42474000Y-66575000D01*
X42493000Y-66527000D01*
X42517000Y-66480000D01*
X42545000Y-66436000D01*
X42578000Y-66395000D01*
X42615000Y-66358000D01*
X42656000Y-66325000D01*
X42700000Y-66297000D01*
X42747000Y-66273000D01*
X42795000Y-66254000D01*
X42846000Y-66241000D01*
X42898000Y-66233000D01*
X42950000Y-66230000D01*
X43850000Y-66230000D01*
X44650000Y-66230000D01*
X44750000Y-66230000D01*
X44802000Y-66233000D01*
G37*
X44802000Y-68773000D02*
X44854000Y-68781000D01*
X44905000Y-68794000D01*
X44953000Y-68813000D01*
X45000000Y-68837000D01*
X45044000Y-68865000D01*
X45085000Y-68898000D01*
X45122000Y-68935000D01*
X45155000Y-68976000D01*
X45183000Y-69020000D01*
X45207000Y-69067000D01*
X45226000Y-69115000D01*
X45239000Y-69166000D01*
X45247000Y-69218000D01*
X45250000Y-69270000D01*
X45247000Y-69322000D01*
X45239000Y-69374000D01*
X45226000Y-69425000D01*
X45207000Y-69473000D01*
X45183000Y-69520000D01*
X45155000Y-69564000D01*
X45122000Y-69605000D01*
X45085000Y-69642000D01*
X45044000Y-69675000D01*
X45000000Y-69703000D01*
X44953000Y-69727000D01*
X44905000Y-69746000D01*
X44854000Y-69759000D01*
X44802000Y-69767000D01*
X44750000Y-69770000D01*
X42950000Y-69770000D01*
X42898000Y-69767000D01*
X42846000Y-69759000D01*
X42795000Y-69746000D01*
X42747000Y-69727000D01*
X42700000Y-69703000D01*
X42656000Y-69675000D01*
X42615000Y-69642000D01*
X42578000Y-69605000D01*
X42545000Y-69564000D01*
X42517000Y-69520000D01*
X42493000Y-69473000D01*
X42474000Y-69425000D01*
X42461000Y-69374000D01*
X42453000Y-69322000D01*
X42450000Y-69270000D01*
X42453000Y-69218000D01*
X42461000Y-69166000D01*
X42474000Y-69115000D01*
X42493000Y-69067000D01*
X42517000Y-69020000D01*
X42545000Y-68976000D01*
X42578000Y-68935000D01*
X42615000Y-68898000D01*
X42656000Y-68865000D01*
X42700000Y-68837000D01*
X42747000Y-68813000D01*
X42795000Y-68794000D01*
X42846000Y-68781000D01*
X42898000Y-68773000D01*
X42950000Y-68770000D01*
X43850000Y-68770000D01*
X44650000Y-68770000D01*
X44750000Y-68770000D01*
X44802000Y-68773000D01*
G36*
X44802000Y-68773000D02*
G01*
X44854000Y-68781000D01*
X44905000Y-68794000D01*
X44953000Y-68813000D01*
X45000000Y-68837000D01*
X45044000Y-68865000D01*
X45085000Y-68898000D01*
X45122000Y-68935000D01*
X45155000Y-68976000D01*
X45183000Y-69020000D01*
X45207000Y-69067000D01*
X45226000Y-69115000D01*
X45239000Y-69166000D01*
X45247000Y-69218000D01*
X45250000Y-69270000D01*
X45247000Y-69322000D01*
X45239000Y-69374000D01*
X45226000Y-69425000D01*
X45207000Y-69473000D01*
X45183000Y-69520000D01*
X45155000Y-69564000D01*
X45122000Y-69605000D01*
X45085000Y-69642000D01*
X45044000Y-69675000D01*
X45000000Y-69703000D01*
X44953000Y-69727000D01*
X44905000Y-69746000D01*
X44854000Y-69759000D01*
X44802000Y-69767000D01*
X44750000Y-69770000D01*
X42950000Y-69770000D01*
X42898000Y-69767000D01*
X42846000Y-69759000D01*
X42795000Y-69746000D01*
X42747000Y-69727000D01*
X42700000Y-69703000D01*
X42656000Y-69675000D01*
X42615000Y-69642000D01*
X42578000Y-69605000D01*
X42545000Y-69564000D01*
X42517000Y-69520000D01*
X42493000Y-69473000D01*
X42474000Y-69425000D01*
X42461000Y-69374000D01*
X42453000Y-69322000D01*
X42450000Y-69270000D01*
X42453000Y-69218000D01*
X42461000Y-69166000D01*
X42474000Y-69115000D01*
X42493000Y-69067000D01*
X42517000Y-69020000D01*
X42545000Y-68976000D01*
X42578000Y-68935000D01*
X42615000Y-68898000D01*
X42656000Y-68865000D01*
X42700000Y-68837000D01*
X42747000Y-68813000D01*
X42795000Y-68794000D01*
X42846000Y-68781000D01*
X42898000Y-68773000D01*
X42950000Y-68770000D01*
X43850000Y-68770000D01*
X44650000Y-68770000D01*
X44750000Y-68770000D01*
X44802000Y-68773000D01*
G37*
X44802000Y-71313000D02*
X44854000Y-71321000D01*
X44905000Y-71334000D01*
X44953000Y-71353000D01*
X45000000Y-71377000D01*
X45044000Y-71405000D01*
X45085000Y-71438000D01*
X45122000Y-71475000D01*
X45155000Y-71516000D01*
X45183000Y-71560000D01*
X45207000Y-71607000D01*
X45226000Y-71655000D01*
X45239000Y-71706000D01*
X45247000Y-71758000D01*
X45250000Y-71810000D01*
X45247000Y-71862000D01*
X45239000Y-71914000D01*
X45226000Y-71965000D01*
X45207000Y-72013000D01*
X45183000Y-72060000D01*
X45155000Y-72104000D01*
X45122000Y-72145000D01*
X45085000Y-72182000D01*
X45044000Y-72215000D01*
X45000000Y-72243000D01*
X44953000Y-72267000D01*
X44905000Y-72286000D01*
X44854000Y-72299000D01*
X44802000Y-72307000D01*
X44750000Y-72310000D01*
X42950000Y-72310000D01*
X42898000Y-72307000D01*
X42846000Y-72299000D01*
X42795000Y-72286000D01*
X42747000Y-72267000D01*
X42700000Y-72243000D01*
X42656000Y-72215000D01*
X42615000Y-72182000D01*
X42578000Y-72145000D01*
X42545000Y-72104000D01*
X42517000Y-72060000D01*
X42493000Y-72013000D01*
X42474000Y-71965000D01*
X42461000Y-71914000D01*
X42453000Y-71862000D01*
X42450000Y-71810000D01*
X42453000Y-71758000D01*
X42461000Y-71706000D01*
X42474000Y-71655000D01*
X42493000Y-71607000D01*
X42517000Y-71560000D01*
X42545000Y-71516000D01*
X42578000Y-71475000D01*
X42615000Y-71438000D01*
X42656000Y-71405000D01*
X42700000Y-71377000D01*
X42747000Y-71353000D01*
X42795000Y-71334000D01*
X42846000Y-71321000D01*
X42898000Y-71313000D01*
X42950000Y-71310000D01*
X43850000Y-71310000D01*
X44650000Y-71310000D01*
X44750000Y-71310000D01*
X44802000Y-71313000D01*
G36*
X44802000Y-71313000D02*
G01*
X44854000Y-71321000D01*
X44905000Y-71334000D01*
X44953000Y-71353000D01*
X45000000Y-71377000D01*
X45044000Y-71405000D01*
X45085000Y-71438000D01*
X45122000Y-71475000D01*
X45155000Y-71516000D01*
X45183000Y-71560000D01*
X45207000Y-71607000D01*
X45226000Y-71655000D01*
X45239000Y-71706000D01*
X45247000Y-71758000D01*
X45250000Y-71810000D01*
X45247000Y-71862000D01*
X45239000Y-71914000D01*
X45226000Y-71965000D01*
X45207000Y-72013000D01*
X45183000Y-72060000D01*
X45155000Y-72104000D01*
X45122000Y-72145000D01*
X45085000Y-72182000D01*
X45044000Y-72215000D01*
X45000000Y-72243000D01*
X44953000Y-72267000D01*
X44905000Y-72286000D01*
X44854000Y-72299000D01*
X44802000Y-72307000D01*
X44750000Y-72310000D01*
X42950000Y-72310000D01*
X42898000Y-72307000D01*
X42846000Y-72299000D01*
X42795000Y-72286000D01*
X42747000Y-72267000D01*
X42700000Y-72243000D01*
X42656000Y-72215000D01*
X42615000Y-72182000D01*
X42578000Y-72145000D01*
X42545000Y-72104000D01*
X42517000Y-72060000D01*
X42493000Y-72013000D01*
X42474000Y-71965000D01*
X42461000Y-71914000D01*
X42453000Y-71862000D01*
X42450000Y-71810000D01*
X42453000Y-71758000D01*
X42461000Y-71706000D01*
X42474000Y-71655000D01*
X42493000Y-71607000D01*
X42517000Y-71560000D01*
X42545000Y-71516000D01*
X42578000Y-71475000D01*
X42615000Y-71438000D01*
X42656000Y-71405000D01*
X42700000Y-71377000D01*
X42747000Y-71353000D01*
X42795000Y-71334000D01*
X42846000Y-71321000D01*
X42898000Y-71313000D01*
X42950000Y-71310000D01*
X43850000Y-71310000D01*
X44650000Y-71310000D01*
X44750000Y-71310000D01*
X44802000Y-71313000D01*
G37*
X44802000Y-73853000D02*
X44854000Y-73861000D01*
X44905000Y-73874000D01*
X44953000Y-73893000D01*
X45000000Y-73917000D01*
X45044000Y-73945000D01*
X45085000Y-73978000D01*
X45122000Y-74015000D01*
X45155000Y-74056000D01*
X45183000Y-74100000D01*
X45207000Y-74147000D01*
X45226000Y-74195000D01*
X45239000Y-74246000D01*
X45247000Y-74298000D01*
X45250000Y-74350000D01*
X45247000Y-74402000D01*
X45239000Y-74454000D01*
X45226000Y-74505000D01*
X45207000Y-74553000D01*
X45183000Y-74600000D01*
X45155000Y-74644000D01*
X45122000Y-74685000D01*
X45085000Y-74722000D01*
X45044000Y-74755000D01*
X45000000Y-74783000D01*
X44953000Y-74807000D01*
X44905000Y-74826000D01*
X44854000Y-74839000D01*
X44802000Y-74847000D01*
X44750000Y-74850000D01*
X42950000Y-74850000D01*
X42898000Y-74847000D01*
X42846000Y-74839000D01*
X42795000Y-74826000D01*
X42747000Y-74807000D01*
X42700000Y-74783000D01*
X42656000Y-74755000D01*
X42615000Y-74722000D01*
X42578000Y-74685000D01*
X42545000Y-74644000D01*
X42517000Y-74600000D01*
X42493000Y-74553000D01*
X42474000Y-74505000D01*
X42461000Y-74454000D01*
X42453000Y-74402000D01*
X42450000Y-74350000D01*
X42453000Y-74298000D01*
X42461000Y-74246000D01*
X42474000Y-74195000D01*
X42493000Y-74147000D01*
X42517000Y-74100000D01*
X42545000Y-74056000D01*
X42578000Y-74015000D01*
X42615000Y-73978000D01*
X42656000Y-73945000D01*
X42700000Y-73917000D01*
X42747000Y-73893000D01*
X42795000Y-73874000D01*
X42846000Y-73861000D01*
X42898000Y-73853000D01*
X42950000Y-73850000D01*
X43850000Y-73850000D01*
X44650000Y-73850000D01*
X44750000Y-73850000D01*
X44802000Y-73853000D01*
G36*
X44802000Y-73853000D02*
G01*
X44854000Y-73861000D01*
X44905000Y-73874000D01*
X44953000Y-73893000D01*
X45000000Y-73917000D01*
X45044000Y-73945000D01*
X45085000Y-73978000D01*
X45122000Y-74015000D01*
X45155000Y-74056000D01*
X45183000Y-74100000D01*
X45207000Y-74147000D01*
X45226000Y-74195000D01*
X45239000Y-74246000D01*
X45247000Y-74298000D01*
X45250000Y-74350000D01*
X45247000Y-74402000D01*
X45239000Y-74454000D01*
X45226000Y-74505000D01*
X45207000Y-74553000D01*
X45183000Y-74600000D01*
X45155000Y-74644000D01*
X45122000Y-74685000D01*
X45085000Y-74722000D01*
X45044000Y-74755000D01*
X45000000Y-74783000D01*
X44953000Y-74807000D01*
X44905000Y-74826000D01*
X44854000Y-74839000D01*
X44802000Y-74847000D01*
X44750000Y-74850000D01*
X42950000Y-74850000D01*
X42898000Y-74847000D01*
X42846000Y-74839000D01*
X42795000Y-74826000D01*
X42747000Y-74807000D01*
X42700000Y-74783000D01*
X42656000Y-74755000D01*
X42615000Y-74722000D01*
X42578000Y-74685000D01*
X42545000Y-74644000D01*
X42517000Y-74600000D01*
X42493000Y-74553000D01*
X42474000Y-74505000D01*
X42461000Y-74454000D01*
X42453000Y-74402000D01*
X42450000Y-74350000D01*
X42453000Y-74298000D01*
X42461000Y-74246000D01*
X42474000Y-74195000D01*
X42493000Y-74147000D01*
X42517000Y-74100000D01*
X42545000Y-74056000D01*
X42578000Y-74015000D01*
X42615000Y-73978000D01*
X42656000Y-73945000D01*
X42700000Y-73917000D01*
X42747000Y-73893000D01*
X42795000Y-73874000D01*
X42846000Y-73861000D01*
X42898000Y-73853000D01*
X42950000Y-73850000D01*
X43850000Y-73850000D01*
X44650000Y-73850000D01*
X44750000Y-73850000D01*
X44802000Y-73853000D01*
G37*
X44802000Y-76393000D02*
X44854000Y-76401000D01*
X44905000Y-76414000D01*
X44953000Y-76433000D01*
X45000000Y-76457000D01*
X45044000Y-76485000D01*
X45085000Y-76518000D01*
X45122000Y-76555000D01*
X45155000Y-76596000D01*
X45183000Y-76640000D01*
X45207000Y-76687000D01*
X45226000Y-76735000D01*
X45239000Y-76786000D01*
X45247000Y-76838000D01*
X45250000Y-76890000D01*
X45247000Y-76942000D01*
X45239000Y-76994000D01*
X45226000Y-77045000D01*
X45207000Y-77093000D01*
X45183000Y-77140000D01*
X45155000Y-77184000D01*
X45122000Y-77225000D01*
X45085000Y-77262000D01*
X45044000Y-77295000D01*
X45000000Y-77323000D01*
X44953000Y-77347000D01*
X44905000Y-77366000D01*
X44854000Y-77379000D01*
X44802000Y-77387000D01*
X44750000Y-77390000D01*
X42950000Y-77390000D01*
X42898000Y-77387000D01*
X42846000Y-77379000D01*
X42795000Y-77366000D01*
X42747000Y-77347000D01*
X42700000Y-77323000D01*
X42656000Y-77295000D01*
X42615000Y-77262000D01*
X42578000Y-77225000D01*
X42545000Y-77184000D01*
X42517000Y-77140000D01*
X42493000Y-77093000D01*
X42474000Y-77045000D01*
X42461000Y-76994000D01*
X42453000Y-76942000D01*
X42450000Y-76890000D01*
X42453000Y-76838000D01*
X42461000Y-76786000D01*
X42474000Y-76735000D01*
X42493000Y-76687000D01*
X42517000Y-76640000D01*
X42545000Y-76596000D01*
X42578000Y-76555000D01*
X42615000Y-76518000D01*
X42656000Y-76485000D01*
X42700000Y-76457000D01*
X42747000Y-76433000D01*
X42795000Y-76414000D01*
X42846000Y-76401000D01*
X42898000Y-76393000D01*
X42950000Y-76390000D01*
X43850000Y-76390000D01*
X44650000Y-76390000D01*
X44750000Y-76390000D01*
X44802000Y-76393000D01*
G36*
X44802000Y-76393000D02*
G01*
X44854000Y-76401000D01*
X44905000Y-76414000D01*
X44953000Y-76433000D01*
X45000000Y-76457000D01*
X45044000Y-76485000D01*
X45085000Y-76518000D01*
X45122000Y-76555000D01*
X45155000Y-76596000D01*
X45183000Y-76640000D01*
X45207000Y-76687000D01*
X45226000Y-76735000D01*
X45239000Y-76786000D01*
X45247000Y-76838000D01*
X45250000Y-76890000D01*
X45247000Y-76942000D01*
X45239000Y-76994000D01*
X45226000Y-77045000D01*
X45207000Y-77093000D01*
X45183000Y-77140000D01*
X45155000Y-77184000D01*
X45122000Y-77225000D01*
X45085000Y-77262000D01*
X45044000Y-77295000D01*
X45000000Y-77323000D01*
X44953000Y-77347000D01*
X44905000Y-77366000D01*
X44854000Y-77379000D01*
X44802000Y-77387000D01*
X44750000Y-77390000D01*
X42950000Y-77390000D01*
X42898000Y-77387000D01*
X42846000Y-77379000D01*
X42795000Y-77366000D01*
X42747000Y-77347000D01*
X42700000Y-77323000D01*
X42656000Y-77295000D01*
X42615000Y-77262000D01*
X42578000Y-77225000D01*
X42545000Y-77184000D01*
X42517000Y-77140000D01*
X42493000Y-77093000D01*
X42474000Y-77045000D01*
X42461000Y-76994000D01*
X42453000Y-76942000D01*
X42450000Y-76890000D01*
X42453000Y-76838000D01*
X42461000Y-76786000D01*
X42474000Y-76735000D01*
X42493000Y-76687000D01*
X42517000Y-76640000D01*
X42545000Y-76596000D01*
X42578000Y-76555000D01*
X42615000Y-76518000D01*
X42656000Y-76485000D01*
X42700000Y-76457000D01*
X42747000Y-76433000D01*
X42795000Y-76414000D01*
X42846000Y-76401000D01*
X42898000Y-76393000D01*
X42950000Y-76390000D01*
X43850000Y-76390000D01*
X44650000Y-76390000D01*
X44750000Y-76390000D01*
X44802000Y-76393000D01*
G37*
X44802000Y-78933000D02*
X44854000Y-78941000D01*
X44905000Y-78954000D01*
X44953000Y-78973000D01*
X45000000Y-78997000D01*
X45044000Y-79025000D01*
X45085000Y-79058000D01*
X45122000Y-79095000D01*
X45155000Y-79136000D01*
X45183000Y-79180000D01*
X45207000Y-79227000D01*
X45226000Y-79275000D01*
X45239000Y-79326000D01*
X45247000Y-79378000D01*
X45250000Y-79430000D01*
X45247000Y-79482000D01*
X45239000Y-79534000D01*
X45226000Y-79585000D01*
X45207000Y-79633000D01*
X45183000Y-79680000D01*
X45155000Y-79724000D01*
X45122000Y-79765000D01*
X45085000Y-79802000D01*
X45044000Y-79835000D01*
X45000000Y-79863000D01*
X44953000Y-79887000D01*
X44905000Y-79906000D01*
X44854000Y-79919000D01*
X44802000Y-79927000D01*
X44750000Y-79930000D01*
X42950000Y-79930000D01*
X42898000Y-79927000D01*
X42846000Y-79919000D01*
X42795000Y-79906000D01*
X42747000Y-79887000D01*
X42700000Y-79863000D01*
X42656000Y-79835000D01*
X42615000Y-79802000D01*
X42578000Y-79765000D01*
X42545000Y-79724000D01*
X42517000Y-79680000D01*
X42493000Y-79633000D01*
X42474000Y-79585000D01*
X42461000Y-79534000D01*
X42453000Y-79482000D01*
X42450000Y-79430000D01*
X42453000Y-79378000D01*
X42461000Y-79326000D01*
X42474000Y-79275000D01*
X42493000Y-79227000D01*
X42517000Y-79180000D01*
X42545000Y-79136000D01*
X42578000Y-79095000D01*
X42615000Y-79058000D01*
X42656000Y-79025000D01*
X42700000Y-78997000D01*
X42747000Y-78973000D01*
X42795000Y-78954000D01*
X42846000Y-78941000D01*
X42898000Y-78933000D01*
X42950000Y-78930000D01*
X43850000Y-78930000D01*
X44650000Y-78930000D01*
X44750000Y-78930000D01*
X44802000Y-78933000D01*
G36*
X44802000Y-78933000D02*
G01*
X44854000Y-78941000D01*
X44905000Y-78954000D01*
X44953000Y-78973000D01*
X45000000Y-78997000D01*
X45044000Y-79025000D01*
X45085000Y-79058000D01*
X45122000Y-79095000D01*
X45155000Y-79136000D01*
X45183000Y-79180000D01*
X45207000Y-79227000D01*
X45226000Y-79275000D01*
X45239000Y-79326000D01*
X45247000Y-79378000D01*
X45250000Y-79430000D01*
X45247000Y-79482000D01*
X45239000Y-79534000D01*
X45226000Y-79585000D01*
X45207000Y-79633000D01*
X45183000Y-79680000D01*
X45155000Y-79724000D01*
X45122000Y-79765000D01*
X45085000Y-79802000D01*
X45044000Y-79835000D01*
X45000000Y-79863000D01*
X44953000Y-79887000D01*
X44905000Y-79906000D01*
X44854000Y-79919000D01*
X44802000Y-79927000D01*
X44750000Y-79930000D01*
X42950000Y-79930000D01*
X42898000Y-79927000D01*
X42846000Y-79919000D01*
X42795000Y-79906000D01*
X42747000Y-79887000D01*
X42700000Y-79863000D01*
X42656000Y-79835000D01*
X42615000Y-79802000D01*
X42578000Y-79765000D01*
X42545000Y-79724000D01*
X42517000Y-79680000D01*
X42493000Y-79633000D01*
X42474000Y-79585000D01*
X42461000Y-79534000D01*
X42453000Y-79482000D01*
X42450000Y-79430000D01*
X42453000Y-79378000D01*
X42461000Y-79326000D01*
X42474000Y-79275000D01*
X42493000Y-79227000D01*
X42517000Y-79180000D01*
X42545000Y-79136000D01*
X42578000Y-79095000D01*
X42615000Y-79058000D01*
X42656000Y-79025000D01*
X42700000Y-78997000D01*
X42747000Y-78973000D01*
X42795000Y-78954000D01*
X42846000Y-78941000D01*
X42898000Y-78933000D01*
X42950000Y-78930000D01*
X43850000Y-78930000D01*
X44650000Y-78930000D01*
X44750000Y-78930000D01*
X44802000Y-78933000D01*
G37*
%TD*%
D11*
%TO.C,C32*%
X70525000Y-70550000D03*
X72075000Y-70550000D03*
%TD*%
D12*
%TO.C,R16*%
X93000000Y-31825000D03*
X93000000Y-30175000D03*
%TD*%
D13*
%TO.C,R28*%
X81075000Y-42000000D03*
X79425000Y-42000000D03*
%TD*%
D14*
%TO.C,UART1*%
X94250000Y-68200000D03*
X94250000Y-67400000D03*
D15*
X94250000Y-66250000D03*
X94250000Y-65250000D03*
X94250000Y-64750000D03*
X94250000Y-63750000D03*
D14*
X94250000Y-61800000D03*
X94250000Y-62600000D03*
D15*
X94250000Y-63250000D03*
X94250000Y-64250000D03*
X94250000Y-65750000D03*
X94250000Y-66750000D03*
%TD*%
D16*
%TO.C,C15*%
X21800000Y-60643000D03*
X21800000Y-61557000D03*
%TD*%
D17*
%TO.C,C20*%
X91775000Y-24000000D03*
X90225000Y-24000000D03*
%TD*%
D16*
%TO.C,C13*%
X24100000Y-60643000D03*
X24100000Y-61557000D03*
%TD*%
D18*
%TO.C,Up1*%
X95925000Y-53925000D03*
X100075000Y-53925000D03*
X95925000Y-56075000D03*
X100075000Y-56075000D03*
%TD*%
D19*
%TO.C,Y1*%
X71000000Y-24700000D03*
X71000000Y-23300000D03*
%TD*%
D11*
%TO.C,C37*%
X29485000Y-39760000D03*
X31035000Y-39760000D03*
%TD*%
D18*
%TO.C,S1*%
X17925000Y-37925000D03*
X22075000Y-37925000D03*
X17925000Y-40075000D03*
X22075000Y-40075000D03*
%TD*%
D12*
%TO.C,R19*%
X87050000Y-30955000D03*
X87050000Y-29305000D03*
%TD*%
D20*
%TO.C,R6*%
X76990000Y-55400000D03*
X78010000Y-55400000D03*
%TD*%
D11*
%TO.C,C19*%
X63475000Y-42550000D03*
X65025000Y-42550000D03*
%TD*%
D21*
%TO.C,L1*%
X76600000Y-71200000D03*
X73800000Y-71200000D03*
%TD*%
D11*
%TO.C,C27*%
X26450000Y-42100000D03*
X28000000Y-42100000D03*
%TD*%
D12*
%TO.C,R18*%
X85010000Y-30935000D03*
X85010000Y-29285000D03*
%TD*%
D17*
%TO.C,C4*%
X84775000Y-74490000D03*
X83225000Y-74490000D03*
%TD*%
D20*
%TO.C,R21*%
X89720000Y-69030000D03*
X90740000Y-69030000D03*
%TD*%
D22*
%TO.C,L4*%
X92100000Y-21000000D03*
X89900000Y-21000000D03*
%TD*%
D17*
%TO.C,C30*%
X78325000Y-63170000D03*
X76775000Y-63170000D03*
%TD*%
D11*
%TO.C,C35*%
X19205000Y-42020000D03*
X20755000Y-42020000D03*
%TD*%
D23*
%TO.C,R1*%
X67800000Y-70587500D03*
X67800000Y-73512500D03*
%TD*%
D24*
%TO.C,Q2*%
X22700000Y-56600000D03*
X22700000Y-57250000D03*
X22700000Y-57900000D03*
X24600000Y-57900000D03*
X24600000Y-57250000D03*
X24600000Y-56600000D03*
%TD*%
D11*
%TO.C,C23*%
X81175000Y-30500000D03*
X82725000Y-30500000D03*
%TD*%
D25*
%TO.C,C17*%
X70543000Y-48500000D03*
X71457000Y-48500000D03*
%TD*%
D26*
%TO.C,Q1*%
X85900000Y-71375000D03*
X87800000Y-71375000D03*
X86850000Y-69325000D03*
%TD*%
D20*
%TO.C,R7*%
X76990000Y-56500000D03*
X78010000Y-56500000D03*
%TD*%
D27*
%TO.C,R23*%
X28575000Y-57390000D03*
X30225000Y-57390000D03*
%TD*%
%TO.C,R3*%
X79860000Y-77070000D03*
X81510000Y-77070000D03*
%TD*%
D13*
%TO.C,R13*%
X28525000Y-48700000D03*
X26875000Y-48700000D03*
%TD*%
D28*
%TO.C,C12*%
X23850000Y-76100000D03*
X21950000Y-76100000D03*
%TD*%
D27*
%TO.C,R15*%
X70175000Y-50000000D03*
X71825000Y-50000000D03*
%TD*%
D29*
%TO.C,C22*%
X71480000Y-20600000D03*
X70520000Y-20600000D03*
%TD*%
D27*
%TO.C,R14*%
X70175000Y-45710000D03*
X71825000Y-45710000D03*
%TD*%
D30*
%TO.C,FL1*%
X89170000Y-54100000D03*
X87390000Y-54100000D03*
%TD*%
D13*
%TO.C,R25*%
X81075000Y-36000000D03*
X79425000Y-36000000D03*
%TD*%
D27*
%TO.C,F1*%
X87375000Y-56030000D03*
X89025000Y-56030000D03*
%TD*%
D18*
%TO.C,Ctrl1*%
X95870000Y-38000000D03*
X100020000Y-38000000D03*
X95870000Y-40150000D03*
X100020000Y-40150000D03*
%TD*%
D31*
%TO.C,U2*%
X73165000Y-74650000D03*
D32*
X73450000Y-74650000D03*
D31*
X73165000Y-75150000D03*
D32*
X73450000Y-75150000D03*
D31*
X73165000Y-75650000D03*
D32*
X73450000Y-75650000D03*
D31*
X73165000Y-76150000D03*
D32*
X73450000Y-76150000D03*
D31*
X73165000Y-76650000D03*
D32*
X73450000Y-76650000D03*
X76400000Y-76650000D03*
D31*
X76685000Y-76650000D03*
D32*
X76400000Y-76150000D03*
D31*
X76685000Y-76150000D03*
D32*
X76400000Y-75650000D03*
D31*
X76685000Y-75650000D03*
D32*
X76400000Y-75150000D03*
D31*
X76685000Y-75150000D03*
D32*
X76400000Y-74650000D03*
D31*
X76685000Y-74650000D03*
D33*
X74475000Y-75015000D03*
X74475000Y-76285000D03*
D34*
X74675000Y-74020000D03*
X74675000Y-77280000D03*
X75175000Y-74020000D03*
X75175000Y-77280000D03*
D33*
X75375000Y-75015000D03*
X75375000Y-76285000D03*
%TD*%
D27*
%TO.C,R31*%
X63535000Y-66750000D03*
X65185000Y-66750000D03*
%TD*%
D20*
%TO.C,R30*%
X26900000Y-39730000D03*
X27920000Y-39730000D03*
%TD*%
D12*
%TO.C,R17*%
X88980000Y-30955000D03*
X88980000Y-29305000D03*
%TD*%
D18*
%TO.C,Down1*%
X95925000Y-48425000D03*
X100075000Y-48425000D03*
X95925000Y-50575000D03*
X100075000Y-50575000D03*
%TD*%
D17*
%TO.C,C10*%
X85735000Y-53950000D03*
X84185000Y-53950000D03*
%TD*%
D35*
%TO.C,C6*%
X19060000Y-43840000D03*
X20960000Y-43840000D03*
%TD*%
D16*
%TO.C,C14*%
X22950000Y-60643000D03*
X22950000Y-61557000D03*
%TD*%
D13*
%TO.C,R12*%
X28525000Y-50200000D03*
X26875000Y-50200000D03*
%TD*%
D23*
%TO.C,R2*%
X67800000Y-75337500D03*
X67800000Y-78262500D03*
%TD*%
D36*
%TO.C,Charger1*%
X96235000Y-76325000D03*
X96235000Y-75675000D03*
X96235000Y-75025000D03*
X96235000Y-74375000D03*
X96235000Y-73725000D03*
D37*
X97435000Y-77975000D03*
D38*
X96135000Y-77875000D03*
D39*
X98185000Y-77755000D03*
D40*
X99385000Y-75985000D03*
X99385000Y-74065000D03*
D39*
X98185000Y-72275000D03*
D38*
X96115000Y-72125000D03*
D37*
X97435000Y-72025000D03*
%TD*%
D13*
%TO.C,R29*%
X81075000Y-38000000D03*
X79425000Y-38000000D03*
%TD*%
%TO.C,R27*%
X81075000Y-44000000D03*
X79425000Y-44000000D03*
%TD*%
%TO.C,R22*%
X81675000Y-63150000D03*
X80025000Y-63150000D03*
%TD*%
D35*
%TO.C,C29*%
X87190000Y-61300000D03*
X89090000Y-61300000D03*
%TD*%
D41*
%TO.C,U4*%
X26850000Y-75100000D03*
X26850000Y-77400000D03*
D42*
X33150000Y-77400000D03*
D41*
X26850000Y-79700000D03*
%TD*%
D43*
%TO.C,U3*%
X87704600Y-74060200D03*
X87704600Y-75000000D03*
X87704600Y-75939800D03*
X90295400Y-75939800D03*
X90295400Y-74060200D03*
%TD*%
D27*
%TO.C,R24*%
X28545000Y-59000000D03*
X30195000Y-59000000D03*
%TD*%
D28*
%TO.C,C24*%
X73400000Y-30500000D03*
X71500000Y-30500000D03*
%TD*%
D11*
%TO.C,C34*%
X72825000Y-64250000D03*
X74375000Y-64250000D03*
%TD*%
D12*
%TO.C,R20*%
X91000000Y-30955000D03*
X91000000Y-29305000D03*
%TD*%
D11*
%TO.C,C18*%
X63475000Y-40040000D03*
X65025000Y-40040000D03*
%TD*%
D44*
%TO.C,U8*%
X89030000Y-65510000D03*
D45*
X89105000Y-64972500D03*
D44*
X89030000Y-64435000D03*
X87330000Y-64435000D03*
D45*
X87255000Y-64972500D03*
D44*
X87330000Y-65510000D03*
%TD*%
D27*
%TO.C,R9*%
X18075000Y-76040000D03*
X19725000Y-76040000D03*
%TD*%
D17*
%TO.C,C28*%
X88905000Y-57660000D03*
X87355000Y-57660000D03*
%TD*%
D13*
%TO.C,R26*%
X81075000Y-40000000D03*
X79425000Y-40000000D03*
%TD*%
D29*
%TO.C,C21*%
X71480000Y-26000000D03*
X70520000Y-26000000D03*
%TD*%
D35*
%TO.C,C25*%
X38010000Y-76380000D03*
X39910000Y-76380000D03*
%TD*%
D27*
%TO.C,R4*%
X79860000Y-74570000D03*
X81510000Y-74570000D03*
%TD*%
D13*
%TO.C,R11*%
X28525000Y-51700000D03*
X26875000Y-51700000D03*
%TD*%
D46*
%TO.C,U5*%
X81512500Y-58300000D03*
X81512500Y-59600000D03*
X82812500Y-58300000D03*
X82812500Y-59600000D03*
D47*
X80225000Y-57700000D03*
X80225000Y-58200000D03*
X80225000Y-58700000D03*
X80225000Y-59200000D03*
X80225000Y-59700000D03*
X80225000Y-60200000D03*
D48*
X80912500Y-60887500D03*
X81412500Y-60887500D03*
X81912500Y-60887500D03*
X82412500Y-60887500D03*
X82912500Y-60887500D03*
X83412500Y-60887500D03*
D47*
X84100000Y-60200000D03*
X84100000Y-59700000D03*
X84100000Y-59200000D03*
X84100000Y-58700000D03*
X84100000Y-58200000D03*
X84100000Y-57700000D03*
D48*
X83412500Y-57012500D03*
X82912500Y-57012500D03*
X82412500Y-57012500D03*
X81912500Y-57012500D03*
X81412500Y-57012500D03*
X80912500Y-57012500D03*
%TD*%
D11*
%TO.C,C7*%
X38160000Y-74480000D03*
X39710000Y-74480000D03*
%TD*%
D49*
%TO.C,U1*%
X35000000Y-37970000D03*
X35000000Y-39240000D03*
X35000000Y-40510000D03*
X35000000Y-41780000D03*
X35000000Y-43050000D03*
X35000000Y-44320000D03*
X35000000Y-45590000D03*
X35000000Y-46860000D03*
X35000000Y-48130000D03*
X35000000Y-49400000D03*
X35000000Y-50670000D03*
X35000000Y-51940000D03*
X35000000Y-53210000D03*
X35000000Y-54480000D03*
D50*
X38035000Y-55730000D03*
X39305000Y-55730000D03*
X40575000Y-55730000D03*
X41845000Y-55730000D03*
X43115000Y-55730000D03*
X44385000Y-55730000D03*
X45655000Y-55730000D03*
X46925000Y-55730000D03*
X48195000Y-55730000D03*
X49465000Y-55730000D03*
D49*
X52500000Y-54480000D03*
X52500000Y-53210000D03*
X52500000Y-51940000D03*
X52500000Y-50670000D03*
X52500000Y-49400000D03*
X52500000Y-48130000D03*
X52500000Y-46860000D03*
X52500000Y-45590000D03*
X52500000Y-44320000D03*
X52500000Y-43050000D03*
X52500000Y-41780000D03*
X52500000Y-40510000D03*
X52500000Y-39240000D03*
X52500000Y-37970000D03*
D51*
X40850000Y-44290000D03*
X40850000Y-45690000D03*
X40850000Y-47090000D03*
X42250000Y-44290000D03*
X42250000Y-45690000D03*
X42250000Y-47090000D03*
X43650000Y-44290000D03*
X43650000Y-45690000D03*
X43650000Y-47090000D03*
%TD*%
D20*
%TO.C,R8*%
X89730000Y-68010000D03*
X90750000Y-68010000D03*
%TD*%
D52*
%TO.C,U7*%
X74400000Y-21400000D03*
X74400000Y-23000000D03*
X74400000Y-24600000D03*
X76000000Y-21400000D03*
X76000000Y-23000000D03*
X76000000Y-24600000D03*
X77600000Y-21400000D03*
X77600000Y-23000000D03*
X77600000Y-24600000D03*
D53*
X73012500Y-21050000D03*
X73012500Y-21700000D03*
X73012500Y-22350000D03*
X73012500Y-23000000D03*
X73012500Y-23650000D03*
X73012500Y-24300000D03*
X73012500Y-24950000D03*
D54*
X74050000Y-25987500D03*
X74700000Y-25987500D03*
X75350000Y-25987500D03*
X76000000Y-25987500D03*
X76650000Y-25987500D03*
X77300000Y-25987500D03*
X77950000Y-25987500D03*
D53*
X78987500Y-24950000D03*
X78987500Y-24300000D03*
X78987500Y-23650000D03*
X78987500Y-23000000D03*
X78987500Y-22350000D03*
X78987500Y-21700000D03*
X78987500Y-21050000D03*
D54*
X77950000Y-20012500D03*
X77300000Y-20012500D03*
X76650000Y-20012500D03*
X76000000Y-20012500D03*
X75350000Y-20012500D03*
X74700000Y-20012500D03*
X74050000Y-20012500D03*
%TD*%
D28*
%TO.C,C33*%
X74500000Y-66100000D03*
X72600000Y-66100000D03*
%TD*%
D16*
%TO.C,C8*%
X25200000Y-60643000D03*
X25200000Y-61557000D03*
%TD*%
D11*
%TO.C,C9*%
X87375000Y-59340000D03*
X88925000Y-59340000D03*
%TD*%
D55*
%TO.C,D1*%
X77900000Y-67000000D03*
X82200000Y-67000000D03*
%TD*%
D13*
%TO.C,R10*%
X28525000Y-53200000D03*
X26875000Y-53200000D03*
%TD*%
D25*
%TO.C,C16*%
X70543000Y-47000000D03*
X71457000Y-47000000D03*
%TD*%
D18*
%TO.C,Find_Host1*%
X95875000Y-32925000D03*
X100025000Y-32925000D03*
X95875000Y-35075000D03*
X100025000Y-35075000D03*
%TD*%
%TO.C,Enter&space1*%
X95870000Y-43000000D03*
X100020000Y-43000000D03*
X95870000Y-45150000D03*
X100020000Y-45150000D03*
%TD*%
D35*
%TO.C,C31*%
X76600000Y-61450000D03*
X78500000Y-61450000D03*
%TD*%
D28*
%TO.C,C11*%
X23850000Y-79110000D03*
X21950000Y-79110000D03*
%TD*%
D17*
%TO.C,C5*%
X84775000Y-77000000D03*
X83225000Y-77000000D03*
%TD*%
D20*
%TO.C,R5*%
X63740000Y-68500000D03*
X64760000Y-68500000D03*
%TD*%
M02*
