%TF.GenerationSoftware,KiCad,Pcbnew,9.0.0*%
%TF.CreationDate,2025-05-14T10:48:30+09:00*%
%TF.ProjectId,mistance_PCB_host,6d697374-616e-4636-955f-5043425f686f,rev?*%
%TF.SameCoordinates,Original*%
%TF.FileFunction,Soldermask,Bot*%
%TF.FilePolarity,Negative*%
%FSLAX46Y46*%
G04 Gerber Fmt 4.6, Leading zero omitted, Abs format (unit mm)*
G04 Created by KiCad (PCBNEW 9.0.0) date 2025-05-14 10:48:30*
%MOMM*%
%LPD*%
G01*
G04 APERTURE LIST*
%ADD10C,0.500000*%
%ADD11O,2.100000X1.050000*%
%ADD12O,1.800000X0.900000*%
%ADD13C,2.400000*%
%ADD14R,1.050000X1.050000*%
%ADD15C,1.050000*%
%ADD16C,0.600000*%
%ADD17C,3.200000*%
%ADD18R,3.500000X3.500000*%
%ADD19C,3.500000*%
%ADD20O,1.700000X1.350000*%
%ADD21O,1.500000X1.100000*%
%ADD22R,1.370000X1.370000*%
%ADD23C,1.370000*%
G04 APERTURE END LIST*
D10*
%TO.C,UART1*%
X95320000Y-67890000D03*
X95320000Y-62110000D03*
D11*
X94820000Y-69320000D03*
X94820000Y-60680000D03*
D12*
X99000000Y-69320000D03*
X99000000Y-60680000D03*
%TD*%
D13*
%TO.C,J5*%
X97460000Y-22540000D03*
X100000000Y-25080000D03*
X100000000Y-20000000D03*
X94920000Y-20000000D03*
X94920000Y-25080000D03*
%TD*%
D14*
%TO.C,J3*%
X20030000Y-49000000D03*
D15*
X21300000Y-49000000D03*
X20030000Y-50270000D03*
X21300000Y-50270000D03*
X20030000Y-51540000D03*
X21300000Y-51540000D03*
X20030000Y-52810000D03*
X21300000Y-52810000D03*
X20030000Y-54080000D03*
X21300000Y-54080000D03*
%TD*%
D16*
%TO.C,U2*%
X74425000Y-74900000D03*
X74425000Y-76400000D03*
X74925000Y-75650000D03*
X75425000Y-74900000D03*
X75425000Y-76400000D03*
%TD*%
D17*
%TO.C,BT1*%
X32645000Y-94000000D03*
X88255000Y-94000000D03*
D18*
X24000000Y-94000000D03*
D19*
X96000000Y-94000000D03*
%TD*%
D20*
%TO.C,Charger1*%
X99115000Y-77755000D03*
D21*
X96115000Y-77445000D03*
X96115000Y-72605000D03*
D20*
X99115000Y-72295000D03*
%TD*%
D22*
%TO.C,J4*%
X60200000Y-39977500D03*
D23*
X60200000Y-42517500D03*
X60200000Y-45057500D03*
X60200000Y-47597500D03*
%TD*%
D16*
%TO.C,U1*%
X40850000Y-44990000D03*
X40850000Y-46390000D03*
X41550000Y-44290000D03*
X41550000Y-45690000D03*
X41550000Y-47090000D03*
X42250000Y-44990000D03*
X42250000Y-46390000D03*
X42950000Y-44290000D03*
X42950000Y-45690000D03*
X42950000Y-47090000D03*
X43650000Y-44990000D03*
X43650000Y-46390000D03*
%TD*%
M02*
