%TF.GenerationSoftware,KiCad,Pcbnew,9.0.0*%
%TF.CreationDate,2025-05-14T10:48:30+09:00*%
%TF.ProjectId,mistance_PCB_host,6d697374-616e-4636-955f-5043425f686f,rev?*%
%TF.SameCoordinates,Original*%
%TF.FileFunction,Soldermask,Top*%
%TF.FilePolarity,Negative*%
%FSLAX46Y46*%
G04 Gerber Fmt 4.6, Leading zero omitted, Abs format (unit mm)*
G04 Created by KiCad (PCBNEW 9.0.0) date 2025-05-14 10:48:30*
%MOMM*%
%LPD*%
G01*
G04 APERTURE LIST*
G04 Aperture macros list*
%AMRoundRect*
0 Rectangle with rounded corners*
0 $1 Rounding radius*
0 $2 $3 $4 $5 $6 $7 $8 $9 X,Y pos of 4 corners*
0 Add a 4 corners polygon primitive as box body*
4,1,4,$2,$3,$4,$5,$6,$7,$8,$9,$2,$3,0*
0 Add four circle primitives for the rounded corners*
1,1,$1+$1,$2,$3*
1,1,$1+$1,$4,$5*
1,1,$1+$1,$6,$7*
1,1,$1+$1,$8,$9*
0 Add four rect primitives between the rounded corners*
20,1,$1+$1,$2,$3,$4,$5,0*
20,1,$1+$1,$4,$5,$6,$7,0*
20,1,$1+$1,$6,$7,$8,$9,0*
20,1,$1+$1,$8,$9,$2,$3,0*%
G04 Aperture macros list end*
%ADD10RoundRect,0.225000X-0.225000X-0.250000X0.225000X-0.250000X0.225000X0.250000X-0.225000X0.250000X0*%
%ADD11RoundRect,0.200000X0.275000X-0.200000X0.275000X0.200000X-0.275000X0.200000X-0.275000X-0.200000X0*%
%ADD12RoundRect,0.200000X0.200000X0.275000X-0.200000X0.275000X-0.200000X-0.275000X0.200000X-0.275000X0*%
%ADD13C,0.500000*%
%ADD14RoundRect,0.090000X0.570000X-0.300000X0.570000X0.300000X-0.570000X0.300000X-0.570000X-0.300000X0*%
%ADD15RoundRect,0.090000X0.570000X-0.150000X0.570000X0.150000X-0.570000X0.150000X-0.570000X-0.150000X0*%
%ADD16O,2.304000X1.254000*%
%ADD17O,2.004000X1.104000*%
%ADD18RoundRect,0.102000X-0.300000X0.245000X-0.300000X-0.245000X0.300000X-0.245000X0.300000X0.245000X0*%
%ADD19RoundRect,0.225000X0.225000X0.250000X-0.225000X0.250000X-0.225000X-0.250000X0.225000X-0.250000X0*%
%ADD20RoundRect,0.102000X-0.525000X-0.325000X0.525000X-0.325000X0.525000X0.325000X-0.525000X0.325000X0*%
%ADD21R,1.100000X0.600000*%
%ADD22RoundRect,0.135000X-0.135000X-0.185000X0.135000X-0.185000X0.135000X0.185000X-0.135000X0.185000X0*%
%ADD23RoundRect,0.250000X0.375000X1.075000X-0.375000X1.075000X-0.375000X-1.075000X0.375000X-1.075000X0*%
%ADD24RoundRect,0.102000X-0.500000X1.600000X-0.500000X-1.600000X0.500000X-1.600000X0.500000X1.600000X0*%
%ADD25C,2.604000*%
%ADD26RoundRect,0.250000X-1.075000X0.312500X-1.075000X-0.312500X1.075000X-0.312500X1.075000X0.312500X0*%
%ADD27RoundRect,0.100000X-0.225000X-0.100000X0.225000X-0.100000X0.225000X0.100000X-0.225000X0.100000X0*%
%ADD28RoundRect,0.102000X-0.245000X-0.300000X0.245000X-0.300000X0.245000X0.300000X-0.245000X0.300000X0*%
%ADD29RoundRect,0.102000X-0.525000X0.525000X-0.525000X-0.525000X0.525000X-0.525000X0.525000X0.525000X0*%
%ADD30C,1.254000*%
%ADD31RoundRect,0.100500X0.301500X-0.651500X0.301500X0.651500X-0.301500X0.651500X-0.301500X-0.651500X0*%
%ADD32RoundRect,0.200000X-0.200000X-0.275000X0.200000X-0.275000X0.200000X0.275000X-0.200000X0.275000X0*%
%ADD33RoundRect,0.250000X0.250000X0.475000X-0.250000X0.475000X-0.250000X-0.475000X0.250000X-0.475000X0*%
%ADD34RoundRect,0.140000X0.140000X0.170000X-0.140000X0.170000X-0.140000X-0.170000X0.140000X-0.170000X0*%
%ADD35RoundRect,0.102000X0.570000X0.735000X-0.570000X0.735000X-0.570000X-0.735000X0.570000X-0.735000X0*%
%ADD36R,0.280000X0.280000*%
%ADD37O,0.850000X0.280000*%
%ADD38C,0.600000*%
%ADD39R,0.680000X1.050000*%
%ADD40R,0.260000X0.500000*%
%ADD41R,0.280000X0.700000*%
%ADD42R,1.650000X2.400000*%
%ADD43C,3.200000*%
%ADD44R,3.500000X3.500000*%
%ADD45C,3.500000*%
%ADD46RoundRect,0.250000X-0.250000X-0.475000X0.250000X-0.475000X0.250000X0.475000X-0.250000X0.475000X0*%
%ADD47O,2.704000X1.204000*%
%ADD48R,1.650000X0.400000*%
%ADD49R,0.700000X1.825000*%
%ADD50R,1.500000X2.000000*%
%ADD51R,2.000000X1.350000*%
%ADD52O,1.700000X1.350000*%
%ADD53O,1.500000X1.100000*%
%ADD54R,2.500000X1.430000*%
%ADD55RoundRect,0.375000X-0.625000X-0.375000X0.625000X-0.375000X0.625000X0.375000X-0.625000X0.375000X0*%
%ADD56RoundRect,0.500000X-0.500000X-1.400000X0.500000X-1.400000X0.500000X1.400000X-0.500000X1.400000X0*%
%ADD57RoundRect,0.102000X-0.635000X-0.279400X0.635000X-0.279400X0.635000X0.279400X-0.635000X0.279400X0*%
%ADD58RoundRect,0.102000X0.685000X-0.685000X0.685000X0.685000X-0.685000X0.685000X-0.685000X-0.685000X0*%
%ADD59C,1.574000*%
%ADD60RoundRect,0.093750X0.156250X0.093750X-0.156250X0.093750X-0.156250X-0.093750X0.156250X-0.093750X0*%
%ADD61RoundRect,0.075000X0.250000X0.075000X-0.250000X0.075000X-0.250000X-0.075000X0.250000X-0.075000X0*%
%ADD62RoundRect,0.062500X-0.350000X-0.062500X0.350000X-0.062500X0.350000X0.062500X-0.350000X0.062500X0*%
%ADD63RoundRect,0.062500X-0.062500X-0.350000X0.062500X-0.350000X0.062500X0.350000X-0.062500X0.350000X0*%
%ADD64R,2.600000X2.600000*%
%ADD65R,1.500000X0.900000*%
%ADD66R,0.900000X1.500000*%
%ADD67R,0.900000X0.900000*%
%ADD68RoundRect,0.075000X-0.312500X-0.075000X0.312500X-0.075000X0.312500X0.075000X-0.312500X0.075000X0*%
%ADD69RoundRect,0.075000X-0.075000X-0.312500X0.075000X-0.312500X0.075000X0.312500X-0.075000X0.312500X0*%
%ADD70R,4.800000X4.800000*%
%ADD71RoundRect,0.102000X1.150000X0.775000X-1.150000X0.775000X-1.150000X-0.775000X1.150000X-0.775000X0*%
G04 APERTURE END LIST*
D10*
%TO.C,C32*%
X70525000Y-70550000D03*
X72075000Y-70550000D03*
%TD*%
D11*
%TO.C,R16*%
X93000000Y-31825000D03*
X93000000Y-30175000D03*
%TD*%
D12*
%TO.C,R28*%
X81075000Y-42000000D03*
X79425000Y-42000000D03*
%TD*%
D13*
%TO.C,UART1*%
X95320000Y-67890000D03*
X95320000Y-62110000D03*
D14*
X94250000Y-68200000D03*
X94250000Y-67400000D03*
D15*
X94250000Y-66250000D03*
X94250000Y-65250000D03*
X94250000Y-64750000D03*
X94250000Y-63750000D03*
D14*
X94250000Y-61800000D03*
X94250000Y-62600000D03*
D15*
X94250000Y-63250000D03*
X94250000Y-64250000D03*
X94250000Y-65750000D03*
X94250000Y-66750000D03*
D16*
X94820000Y-69320000D03*
X94820000Y-60680000D03*
D17*
X99000000Y-69320000D03*
X99000000Y-60680000D03*
%TD*%
D18*
%TO.C,C15*%
X21800000Y-60643000D03*
X21800000Y-61557000D03*
%TD*%
D19*
%TO.C,C20*%
X91775000Y-24000000D03*
X90225000Y-24000000D03*
%TD*%
D18*
%TO.C,C13*%
X24100000Y-60643000D03*
X24100000Y-61557000D03*
%TD*%
D20*
%TO.C,Up1*%
X95925000Y-53925000D03*
X100075000Y-53925000D03*
X95925000Y-56075000D03*
X100075000Y-56075000D03*
%TD*%
D21*
%TO.C,Y1*%
X71000000Y-24700000D03*
X71000000Y-23300000D03*
%TD*%
D10*
%TO.C,C37*%
X29485000Y-39760000D03*
X31035000Y-39760000D03*
%TD*%
D20*
%TO.C,S1*%
X17925000Y-37925000D03*
X22075000Y-37925000D03*
X17925000Y-40075000D03*
X22075000Y-40075000D03*
%TD*%
D11*
%TO.C,R19*%
X87050000Y-30955000D03*
X87050000Y-29305000D03*
%TD*%
D22*
%TO.C,R6*%
X76990000Y-55400000D03*
X78010000Y-55400000D03*
%TD*%
D10*
%TO.C,C19*%
X63475000Y-42550000D03*
X65025000Y-42550000D03*
%TD*%
D23*
%TO.C,L1*%
X76600000Y-71200000D03*
X73800000Y-71200000D03*
%TD*%
D10*
%TO.C,C27*%
X26450000Y-42100000D03*
X28000000Y-42100000D03*
%TD*%
D11*
%TO.C,R18*%
X85010000Y-30935000D03*
X85010000Y-29285000D03*
%TD*%
D19*
%TO.C,C4*%
X84775000Y-74490000D03*
X83225000Y-74490000D03*
%TD*%
D22*
%TO.C,R21*%
X89720000Y-69030000D03*
X90740000Y-69030000D03*
%TD*%
D24*
%TO.C,L4*%
X92100000Y-21000000D03*
X89900000Y-21000000D03*
%TD*%
D19*
%TO.C,C30*%
X78325000Y-63170000D03*
X76775000Y-63170000D03*
%TD*%
D25*
%TO.C,J5*%
X97460000Y-22540000D03*
X100000000Y-25080000D03*
X100000000Y-20000000D03*
X94920000Y-20000000D03*
X94920000Y-25080000D03*
%TD*%
D10*
%TO.C,C35*%
X19205000Y-42020000D03*
X20755000Y-42020000D03*
%TD*%
D26*
%TO.C,R1*%
X67800000Y-70587500D03*
X67800000Y-73512500D03*
%TD*%
D27*
%TO.C,Q2*%
X22700000Y-56600000D03*
X22700000Y-57250000D03*
X22700000Y-57900000D03*
X24600000Y-57900000D03*
X24600000Y-57250000D03*
X24600000Y-56600000D03*
%TD*%
D10*
%TO.C,C23*%
X81175000Y-30500000D03*
X82725000Y-30500000D03*
%TD*%
D28*
%TO.C,C17*%
X70543000Y-48500000D03*
X71457000Y-48500000D03*
%TD*%
D29*
%TO.C,J3*%
X20030000Y-49000000D03*
D30*
X21300000Y-49000000D03*
X20030000Y-50270000D03*
X21300000Y-50270000D03*
X20030000Y-51540000D03*
X21300000Y-51540000D03*
X20030000Y-52810000D03*
X21300000Y-52810000D03*
X20030000Y-54080000D03*
X21300000Y-54080000D03*
%TD*%
D31*
%TO.C,Q1*%
X85900000Y-71375000D03*
X87800000Y-71375000D03*
X86850000Y-69325000D03*
%TD*%
D22*
%TO.C,R7*%
X76990000Y-56500000D03*
X78010000Y-56500000D03*
%TD*%
D32*
%TO.C,R23*%
X28575000Y-57390000D03*
X30225000Y-57390000D03*
%TD*%
%TO.C,R3*%
X79860000Y-77070000D03*
X81510000Y-77070000D03*
%TD*%
D12*
%TO.C,R13*%
X28525000Y-48700000D03*
X26875000Y-48700000D03*
%TD*%
D33*
%TO.C,C12*%
X23850000Y-76100000D03*
X21950000Y-76100000D03*
%TD*%
D32*
%TO.C,R15*%
X70175000Y-50000000D03*
X71825000Y-50000000D03*
%TD*%
D34*
%TO.C,C22*%
X71480000Y-20600000D03*
X70520000Y-20600000D03*
%TD*%
D32*
%TO.C,R14*%
X70175000Y-45710000D03*
X71825000Y-45710000D03*
%TD*%
D35*
%TO.C,FL1*%
X89170000Y-54100000D03*
X87390000Y-54100000D03*
%TD*%
D12*
%TO.C,R25*%
X81075000Y-36000000D03*
X79425000Y-36000000D03*
%TD*%
D32*
%TO.C,F1*%
X87375000Y-56030000D03*
X89025000Y-56030000D03*
%TD*%
D20*
%TO.C,Ctrl1*%
X95870000Y-38000000D03*
X100020000Y-38000000D03*
X95870000Y-40150000D03*
X100020000Y-40150000D03*
%TD*%
D36*
%TO.C,U2*%
X73165000Y-74650000D03*
D37*
X73450000Y-74650000D03*
D36*
X73165000Y-75150000D03*
D37*
X73450000Y-75150000D03*
D36*
X73165000Y-75650000D03*
D37*
X73450000Y-75650000D03*
D36*
X73165000Y-76150000D03*
D37*
X73450000Y-76150000D03*
D36*
X73165000Y-76650000D03*
D37*
X73450000Y-76650000D03*
X76400000Y-76650000D03*
D36*
X76685000Y-76650000D03*
D37*
X76400000Y-76150000D03*
D36*
X76685000Y-76150000D03*
D37*
X76400000Y-75650000D03*
D36*
X76685000Y-75650000D03*
D37*
X76400000Y-75150000D03*
D36*
X76685000Y-75150000D03*
D37*
X76400000Y-74650000D03*
D36*
X76685000Y-74650000D03*
D38*
X74425000Y-74900000D03*
X74425000Y-76400000D03*
D39*
X74475000Y-75015000D03*
X74475000Y-76285000D03*
D40*
X74675000Y-74020000D03*
D41*
X74675000Y-74100000D03*
X74675000Y-77200000D03*
D40*
X74675000Y-77280000D03*
D38*
X74925000Y-75650000D03*
D42*
X74925000Y-75650000D03*
D40*
X75175000Y-74020000D03*
D41*
X75175000Y-74100000D03*
X75175000Y-77200000D03*
D40*
X75175000Y-77280000D03*
D39*
X75375000Y-75015000D03*
X75375000Y-76285000D03*
D38*
X75425000Y-74900000D03*
X75425000Y-76400000D03*
%TD*%
D32*
%TO.C,R31*%
X63535000Y-66750000D03*
X65185000Y-66750000D03*
%TD*%
D43*
%TO.C,BT1*%
X32645000Y-94000000D03*
X88255000Y-94000000D03*
D44*
X24000000Y-94000000D03*
D45*
X96000000Y-94000000D03*
%TD*%
D22*
%TO.C,R30*%
X26900000Y-39730000D03*
X27920000Y-39730000D03*
%TD*%
D11*
%TO.C,R17*%
X88980000Y-30955000D03*
X88980000Y-29305000D03*
%TD*%
D20*
%TO.C,Down1*%
X95925000Y-48425000D03*
X100075000Y-48425000D03*
X95925000Y-50575000D03*
X100075000Y-50575000D03*
%TD*%
D19*
%TO.C,C10*%
X85735000Y-53950000D03*
X84185000Y-53950000D03*
%TD*%
D46*
%TO.C,C6*%
X19060000Y-43840000D03*
X20960000Y-43840000D03*
%TD*%
D47*
%TO.C,U6*%
X44100000Y-66730000D03*
X44100000Y-69270000D03*
X44100000Y-71810000D03*
X44100000Y-74350000D03*
X44100000Y-76890000D03*
X44100000Y-79430000D03*
X59600000Y-79430000D03*
X59600000Y-76890000D03*
X59600000Y-74350000D03*
X59600000Y-71810000D03*
X59600000Y-69270000D03*
X59600000Y-66730000D03*
%TD*%
D18*
%TO.C,C14*%
X22950000Y-60643000D03*
X22950000Y-61557000D03*
%TD*%
D12*
%TO.C,R12*%
X28525000Y-50200000D03*
X26875000Y-50200000D03*
%TD*%
D26*
%TO.C,R2*%
X67800000Y-75337500D03*
X67800000Y-78262500D03*
%TD*%
D48*
%TO.C,Charger1*%
X96235000Y-76325000D03*
X96235000Y-75675000D03*
X96235000Y-75025000D03*
X96235000Y-74375000D03*
X96235000Y-73725000D03*
D49*
X97435000Y-77975000D03*
D50*
X96135000Y-77875000D03*
D51*
X98185000Y-77755000D03*
D52*
X99115000Y-77755000D03*
D53*
X96115000Y-77445000D03*
D54*
X99385000Y-75985000D03*
X99385000Y-74065000D03*
D53*
X96115000Y-72605000D03*
D52*
X99115000Y-72295000D03*
D51*
X98185000Y-72275000D03*
D50*
X96115000Y-72125000D03*
D49*
X97435000Y-72025000D03*
%TD*%
D12*
%TO.C,R29*%
X81075000Y-38000000D03*
X79425000Y-38000000D03*
%TD*%
%TO.C,R27*%
X81075000Y-44000000D03*
X79425000Y-44000000D03*
%TD*%
%TO.C,R22*%
X81675000Y-63150000D03*
X80025000Y-63150000D03*
%TD*%
D46*
%TO.C,C29*%
X87190000Y-61300000D03*
X89090000Y-61300000D03*
%TD*%
D55*
%TO.C,U4*%
X26850000Y-75100000D03*
X26850000Y-77400000D03*
D56*
X33150000Y-77400000D03*
D55*
X26850000Y-79700000D03*
%TD*%
D57*
%TO.C,U3*%
X87704600Y-74060200D03*
X87704600Y-75000000D03*
X87704600Y-75939800D03*
X90295400Y-75939800D03*
X90295400Y-74060200D03*
%TD*%
D32*
%TO.C,R24*%
X28545000Y-59000000D03*
X30195000Y-59000000D03*
%TD*%
D33*
%TO.C,C24*%
X73400000Y-30500000D03*
X71500000Y-30500000D03*
%TD*%
D58*
%TO.C,J4*%
X60200000Y-39977500D03*
D59*
X60200000Y-42517500D03*
X60200000Y-45057500D03*
X60200000Y-47597500D03*
%TD*%
D10*
%TO.C,C34*%
X72825000Y-64250000D03*
X74375000Y-64250000D03*
%TD*%
D11*
%TO.C,R20*%
X91000000Y-30955000D03*
X91000000Y-29305000D03*
%TD*%
D10*
%TO.C,C18*%
X63475000Y-40040000D03*
X65025000Y-40040000D03*
%TD*%
D60*
%TO.C,U8*%
X89030000Y-65510000D03*
D61*
X89105000Y-64972500D03*
D60*
X89030000Y-64435000D03*
X87330000Y-64435000D03*
D61*
X87255000Y-64972500D03*
D60*
X87330000Y-65510000D03*
%TD*%
D32*
%TO.C,R9*%
X18075000Y-76040000D03*
X19725000Y-76040000D03*
%TD*%
D19*
%TO.C,C28*%
X88905000Y-57660000D03*
X87355000Y-57660000D03*
%TD*%
D12*
%TO.C,R26*%
X81075000Y-40000000D03*
X79425000Y-40000000D03*
%TD*%
D34*
%TO.C,C21*%
X71480000Y-26000000D03*
X70520000Y-26000000D03*
%TD*%
D46*
%TO.C,C25*%
X38010000Y-76380000D03*
X39910000Y-76380000D03*
%TD*%
D32*
%TO.C,R4*%
X79860000Y-74570000D03*
X81510000Y-74570000D03*
%TD*%
D12*
%TO.C,R11*%
X28525000Y-51700000D03*
X26875000Y-51700000D03*
%TD*%
D62*
%TO.C,U5*%
X80225000Y-57700000D03*
X80225000Y-58200000D03*
X80225000Y-58700000D03*
X80225000Y-59200000D03*
X80225000Y-59700000D03*
X80225000Y-60200000D03*
D63*
X80912500Y-60887500D03*
X81412500Y-60887500D03*
X81912500Y-60887500D03*
X82412500Y-60887500D03*
X82912500Y-60887500D03*
X83412500Y-60887500D03*
D62*
X84100000Y-60200000D03*
X84100000Y-59700000D03*
X84100000Y-59200000D03*
X84100000Y-58700000D03*
X84100000Y-58200000D03*
X84100000Y-57700000D03*
D63*
X83412500Y-57012500D03*
X82912500Y-57012500D03*
X82412500Y-57012500D03*
X81912500Y-57012500D03*
X81412500Y-57012500D03*
X80912500Y-57012500D03*
D64*
X82162500Y-58950000D03*
%TD*%
D10*
%TO.C,C7*%
X38160000Y-74480000D03*
X39710000Y-74480000D03*
%TD*%
D65*
%TO.C,U1*%
X35000000Y-37970000D03*
X35000000Y-39240000D03*
X35000000Y-40510000D03*
X35000000Y-41780000D03*
X35000000Y-43050000D03*
X35000000Y-44320000D03*
X35000000Y-45590000D03*
X35000000Y-46860000D03*
X35000000Y-48130000D03*
X35000000Y-49400000D03*
X35000000Y-50670000D03*
X35000000Y-51940000D03*
X35000000Y-53210000D03*
X35000000Y-54480000D03*
D66*
X38035000Y-55730000D03*
X39305000Y-55730000D03*
X40575000Y-55730000D03*
X41845000Y-55730000D03*
X43115000Y-55730000D03*
X44385000Y-55730000D03*
X45655000Y-55730000D03*
X46925000Y-55730000D03*
X48195000Y-55730000D03*
X49465000Y-55730000D03*
D65*
X52500000Y-54480000D03*
X52500000Y-53210000D03*
X52500000Y-51940000D03*
X52500000Y-50670000D03*
X52500000Y-49400000D03*
X52500000Y-48130000D03*
X52500000Y-46860000D03*
X52500000Y-45590000D03*
X52500000Y-44320000D03*
X52500000Y-43050000D03*
X52500000Y-41780000D03*
X52500000Y-40510000D03*
X52500000Y-39240000D03*
X52500000Y-37970000D03*
D67*
X40850000Y-44290000D03*
D38*
X40850000Y-44990000D03*
D67*
X40850000Y-45690000D03*
D38*
X40850000Y-46390000D03*
D67*
X40850000Y-47090000D03*
D38*
X41550000Y-44290000D03*
X41550000Y-45690000D03*
X41550000Y-47090000D03*
D67*
X42250000Y-44290000D03*
D38*
X42250000Y-44990000D03*
D67*
X42250000Y-45690000D03*
D38*
X42250000Y-46390000D03*
D67*
X42250000Y-47090000D03*
D38*
X42950000Y-44290000D03*
X42950000Y-45690000D03*
X42950000Y-47090000D03*
D67*
X43650000Y-44290000D03*
D38*
X43650000Y-44990000D03*
D67*
X43650000Y-45690000D03*
D38*
X43650000Y-46390000D03*
D67*
X43650000Y-47090000D03*
%TD*%
D22*
%TO.C,R8*%
X89730000Y-68010000D03*
X90750000Y-68010000D03*
%TD*%
D68*
%TO.C,U7*%
X73012500Y-21050000D03*
X73012500Y-21700000D03*
X73012500Y-22350000D03*
X73012500Y-23000000D03*
X73012500Y-23650000D03*
X73012500Y-24300000D03*
X73012500Y-24950000D03*
D69*
X74050000Y-25987500D03*
X74700000Y-25987500D03*
X75350000Y-25987500D03*
X76000000Y-25987500D03*
X76650000Y-25987500D03*
X77300000Y-25987500D03*
X77950000Y-25987500D03*
D68*
X78987500Y-24950000D03*
X78987500Y-24300000D03*
X78987500Y-23650000D03*
X78987500Y-23000000D03*
X78987500Y-22350000D03*
X78987500Y-21700000D03*
X78987500Y-21050000D03*
D69*
X77950000Y-20012500D03*
X77300000Y-20012500D03*
X76650000Y-20012500D03*
X76000000Y-20012500D03*
X75350000Y-20012500D03*
X74700000Y-20012500D03*
X74050000Y-20012500D03*
D70*
X76000000Y-23000000D03*
%TD*%
D33*
%TO.C,C33*%
X74500000Y-66100000D03*
X72600000Y-66100000D03*
%TD*%
D18*
%TO.C,C8*%
X25200000Y-60643000D03*
X25200000Y-61557000D03*
%TD*%
D10*
%TO.C,C9*%
X87375000Y-59340000D03*
X88925000Y-59340000D03*
%TD*%
D71*
%TO.C,D1*%
X77900000Y-67000000D03*
X82200000Y-67000000D03*
%TD*%
D12*
%TO.C,R10*%
X28525000Y-53200000D03*
X26875000Y-53200000D03*
%TD*%
D28*
%TO.C,C16*%
X70543000Y-47000000D03*
X71457000Y-47000000D03*
%TD*%
D20*
%TO.C,Find_Host1*%
X95875000Y-32925000D03*
X100025000Y-32925000D03*
X95875000Y-35075000D03*
X100025000Y-35075000D03*
%TD*%
%TO.C,Enter&space1*%
X95870000Y-43000000D03*
X100020000Y-43000000D03*
X95870000Y-45150000D03*
X100020000Y-45150000D03*
%TD*%
D46*
%TO.C,C31*%
X76600000Y-61450000D03*
X78500000Y-61450000D03*
%TD*%
D33*
%TO.C,C11*%
X23850000Y-79110000D03*
X21950000Y-79110000D03*
%TD*%
D19*
%TO.C,C5*%
X84775000Y-77000000D03*
X83225000Y-77000000D03*
%TD*%
D22*
%TO.C,R5*%
X63740000Y-68500000D03*
X64760000Y-68500000D03*
%TD*%
M02*
